<svg width="72" height="79" viewBox="0 0 72 79" fill="none" xmlns="http://www.w3.org/2000/svg">
<g filter="url(#filter0_d_5_10941)">
<rect x="15.4994" y="18.8202" width="29.0514" height="29.0514" rx="14.5257" stroke="#BDBDBD" stroke-width="0.881041" shape-rendering="crispEdges"/>
<path d="M37.1741 36.9639L36.9019 36.6917L36.9019 36.6917L37.1741 36.9639ZM23.9899 28.0279L24.2622 28.3001L24.2622 28.3001L23.9899 28.0279ZM24.2102 29.6946H33.7684V28.9246H24.2102V29.6946ZM35.5075 31.4337V36.7438H36.2774V31.4337H35.5075ZM33.7684 38.4828H24.2102V39.2528H33.7684V38.4828ZM22.4712 36.7438V31.4337H21.7012V36.7438H22.4712ZM24.2102 38.4828C23.6987 38.4828 23.3538 38.482 23.0962 38.4474C22.8497 38.4142 22.7415 38.3566 22.6695 38.2845L22.125 38.829C22.364 39.0679 22.6617 39.1658 22.9936 39.2105C23.3144 39.2536 23.7205 39.2528 24.2102 39.2528V38.4828ZM21.7012 36.7438C21.7012 37.2335 21.7004 37.6396 21.7435 37.9604C21.7881 38.2923 21.886 38.59 22.125 38.829L22.6695 38.2845C22.5974 38.2124 22.5398 38.1043 22.5066 37.8578C22.472 37.6002 22.4712 37.2553 22.4712 36.7438H21.7012ZM35.5075 36.7438C35.5075 37.2553 35.5067 37.6002 35.472 37.8578C35.4389 38.1043 35.3812 38.2124 35.3092 38.2845L35.8536 38.829C36.0926 38.59 36.1905 38.2923 36.2351 37.9604C36.2782 37.6396 36.2774 37.2335 36.2774 36.7438H35.5075ZM33.7684 39.2528C34.2582 39.2528 34.6642 39.2536 34.985 39.2105C35.3169 39.1658 35.6146 39.0679 35.8536 38.829L35.3092 38.2845C35.2371 38.3566 35.1289 38.4142 34.8824 38.4474C34.6248 38.482 34.2799 38.4828 33.7684 38.4828V39.2528ZM33.7684 29.6946C34.2799 29.6946 34.6248 29.6954 34.8824 29.73C35.1289 29.7632 35.2371 29.8208 35.3092 29.8929L35.8536 29.3485C35.6146 29.1095 35.3169 29.0116 34.985 28.967C34.6642 28.9238 34.2582 28.9246 33.7684 28.9246V29.6946ZM36.2774 31.4337C36.2774 30.9439 36.2782 30.5379 36.2351 30.217C36.1905 29.8851 36.0926 29.5874 35.8536 29.3485L35.3092 29.8929C35.3812 29.965 35.4389 30.0731 35.472 30.3196C35.5067 30.5772 35.5075 30.9221 35.5075 31.4337H36.2774ZM24.2102 28.9246C23.7205 28.9246 23.3144 28.9238 22.9936 28.967C22.6617 29.0116 22.364 29.1095 22.125 29.3485L22.6695 29.8929C22.7415 29.8208 22.8497 29.7632 23.0962 29.73C23.3538 29.6954 23.6987 29.6946 24.2102 29.6946V28.9246ZM22.4712 31.4337C22.4712 30.9221 22.472 30.5772 22.5066 30.3196C22.5398 30.0731 22.5974 29.965 22.6695 29.8929L22.125 29.3485C21.886 29.5874 21.7881 29.8851 21.7435 30.217C21.7004 30.5379 21.7012 30.9439 21.7012 31.4337H22.4712ZM25.8029 28.1018H35.3611V27.3318H25.8029V28.1018ZM37.1002 29.8408V35.1509H37.8701V29.8408H37.1002ZM37.1002 35.1509C37.1002 35.6625 37.0993 36.0074 37.0647 36.265C37.0316 36.5115 36.9739 36.6196 36.9019 36.6917L37.4463 37.2361C37.6853 36.9972 37.7832 36.6995 37.8278 36.3676C37.8709 36.0467 37.8701 35.6407 37.8701 35.1509H37.1002ZM35.3611 28.1018C35.8726 28.1018 36.2175 28.1026 36.4751 28.1372C36.7216 28.1704 36.8298 28.228 36.9019 28.3001L37.4463 27.7556C37.2073 27.5167 36.9096 27.4188 36.5777 27.3741C36.2569 27.331 35.8509 27.3318 35.3611 27.3318V28.1018ZM37.8701 29.8408C37.8701 29.3511 37.8709 28.945 37.8278 28.6242C37.7832 28.2923 37.6853 27.9946 37.4463 27.7556L36.9019 28.3001C36.9739 28.3722 37.0316 28.4803 37.0647 28.7268C37.0993 28.9844 37.1002 29.3293 37.1002 29.8408H37.8701ZM25.8029 27.3318C25.3132 27.3318 24.9071 27.331 24.5863 27.3741C24.2544 27.4188 23.9567 27.5167 23.7177 27.7556L24.2622 28.3001C24.3342 28.228 24.4424 28.1704 24.6889 28.1372C24.9465 28.1026 25.2914 28.1018 25.8029 28.1018V27.3318ZM24.0661 29.3154C24.076 28.6303 24.1386 28.4236 24.2622 28.3001L23.7177 27.7556C23.3405 28.1329 23.3054 28.6727 23.2962 29.3043L24.0661 29.3154ZM35.8977 37.6576C36.5293 37.6485 37.069 37.6134 37.4463 37.2361L36.9019 36.6917C36.7783 36.8152 36.5716 36.8778 35.8865 36.8877L35.8977 37.6576ZM22.0862 31.9515H35.8924V31.1816H22.0862V31.9515ZM22.0862 33.5446H35.8924V32.7746H22.0862V33.5446ZM33.6758 36.5843C33.6758 36.8116 33.4916 36.9958 33.2643 36.9958V37.7658C33.9168 37.7658 34.4458 37.2368 34.4458 36.5843H33.6758ZM33.2643 36.9958C33.037 36.9958 32.8527 36.8116 32.8527 36.5843H32.0828C32.0828 37.2368 32.6118 37.7658 33.2643 37.7658V36.9958ZM32.8527 36.5843C32.8527 36.357 33.037 36.1727 33.2643 36.1727V35.4028C32.6118 35.4028 32.0828 35.9318 32.0828 36.5843H32.8527ZM33.2643 36.1727C33.4916 36.1727 33.6758 36.357 33.6758 36.5843H34.4458C34.4458 35.9318 33.9168 35.4028 33.2643 35.4028V36.1727ZM32.2018 36.9958C31.9746 36.9958 31.7903 36.8116 31.7903 36.5843H31.0203C31.0203 37.2368 31.5493 37.7658 32.2018 37.7658V36.9958ZM31.7903 36.5843C31.7903 36.357 31.9746 36.1727 32.2018 36.1727V35.4028C31.5493 35.4028 31.0203 35.9318 31.0203 36.5843H31.7903ZM32.2018 36.1727C32.3075 36.1727 32.403 36.2121 32.4761 36.2774L32.9896 35.7037C32.7808 35.5169 32.5042 35.4028 32.2018 35.4028V36.1727ZM32.4761 36.8911C32.403 36.9565 32.3075 36.9958 32.2018 36.9958V37.7658C32.5042 37.7658 32.7808 37.6517 32.9896 37.4648L32.4761 36.8911Z" fill="#111111"/>
</g>
<defs>
<filter id="filter0_d_5_10941" x="-11.3724" y="-4.52743" width="82.795" height="82.795" filterUnits="userSpaceOnUse" color-interpolation-filters="sRGB">
<feFlood flood-opacity="0" result="BackgroundImageFix"/>
<feColorMatrix in="SourceAlpha" type="matrix" values="0 0 0 0 0 0 0 0 0 0 0 0 0 0 0 0 0 0 127 0" result="hardAlpha"/>
<feOffset dy="3.52416"/>
<feGaussianBlur stdDeviation="13.2156"/>
<feComposite in2="hardAlpha" operator="out"/>
<feColorMatrix type="matrix" values="0 0 0 0 0.188235 0 0 0 0 0.482353 0 0 0 0 0.992157 0 0 0 0.05 0"/>
<feBlend mode="normal" in2="BackgroundImageFix" result="effect1_dropShadow_5_10941"/>
<feBlend mode="normal" in="SourceGraphic" in2="effect1_dropShadow_5_10941" result="shape"/>
</filter>
</defs>
</svg>
