<svg width="72" height="79" viewBox="0 0 72 79" fill="none" xmlns="http://www.w3.org/2000/svg">
<g filter="url(#filter0_d_5_10941)">
<rect x="15.4994" y="18.8202" width="29.0514" height="29.0514" rx="14.5257" stroke="#BDBDBD" stroke-width="0.881041" shape-rendering="crispEdges"/>
<path d="M37.1741 36.9638L36.9019 36.6916H36.9019L37.1741 36.9638ZM23.9899 28.0277L24.2622 28.3L23.9899 28.0277ZM24.2102 29.6945H33.7684V28.9245H24.2102V29.6945ZM35.5075 31.4335V36.7436H36.2774V31.4335H35.5075ZM33.7684 38.4827H24.2102V39.2527H33.7684V38.4827ZM22.4712 36.7436V31.4335H21.7012V36.7436H22.4712ZM24.2102 38.4827C23.6987 38.4827 23.3538 38.4819 23.0962 38.4473C22.8497 38.4141 22.7415 38.3565 22.6695 38.2844L22.125 38.8288C22.364 39.0678 22.6617 39.1657 22.9936 39.2103C23.3144 39.2535 23.7205 39.2527 24.2102 39.2527V38.4827ZM21.7012 36.7436C21.7012 37.2334 21.7004 37.6394 21.7435 37.9603C21.7881 38.2922 21.886 38.5899 22.125 38.8288L22.6695 38.2844C22.5974 38.2123 22.5398 38.1042 22.5066 37.8577C22.472 37.6001 22.4712 37.2552 22.4712 36.7436H21.7012ZM35.5075 36.7436C35.5075 37.2552 35.5067 37.6001 35.472 37.8577C35.4389 38.1042 35.3812 38.2123 35.3092 38.2844L35.8536 38.8288C36.0926 38.5899 36.1905 38.2922 36.2351 37.9603C36.2782 37.6394 36.2774 37.2334 36.2774 36.7436H35.5075ZM33.7684 39.2527C34.2582 39.2527 34.6642 39.2535 34.985 39.2103C35.3169 39.1657 35.6146 39.0678 35.8536 38.8288L35.3092 38.2844C35.2371 38.3565 35.1289 38.4141 34.8824 38.4473C34.6248 38.4819 34.2799 38.4827 33.7684 38.4827V39.2527ZM33.7684 29.6945C34.2799 29.6945 34.6248 29.6953 34.8824 29.7299C35.1289 29.7631 35.2371 29.8207 35.3092 29.8928L35.8536 29.3483C35.6146 29.1094 35.3169 29.0115 34.985 28.9668C34.6642 28.9237 34.2582 28.9245 33.7684 28.9245V29.6945ZM36.2774 31.4335C36.2774 30.9438 36.2782 30.5377 36.2351 30.2169C36.1905 29.885 36.0926 29.5873 35.8536 29.3483L35.3092 29.8928C35.3812 29.9649 35.4389 30.073 35.472 30.3195C35.5067 30.5771 35.5075 30.922 35.5075 31.4335H36.2774ZM24.2102 28.9245C23.7205 28.9245 23.3144 28.9237 22.9936 28.9668C22.6617 29.0115 22.364 29.1094 22.125 29.3483L22.6695 29.8928C22.7415 29.8207 22.8497 29.7631 23.0962 29.7299C23.3538 29.6953 23.6987 29.6945 24.2102 29.6945V28.9245ZM22.4712 31.4335C22.4712 30.922 22.472 30.5771 22.5066 30.3195C22.5398 30.073 22.5974 29.9649 22.6695 29.8928L22.125 29.3483C21.886 29.5873 21.7881 29.885 21.7435 30.2169C21.7004 30.5377 21.7012 30.9438 21.7012 31.4335H22.4712ZM25.8029 28.1017H35.3611V27.3317H25.8029V28.1017ZM37.1002 29.8407V35.1508H37.8701V29.8407H37.1002ZM37.1002 35.1508C37.1002 35.6623 37.0993 36.0073 37.0647 36.2648C37.0316 36.5114 36.9739 36.6195 36.9019 36.6916L37.4463 37.236C37.6853 36.997 37.7832 36.6993 37.8278 36.3674C37.8709 36.0466 37.8701 35.6406 37.8701 35.1508H37.1002ZM35.3611 28.1017C35.8726 28.1017 36.2175 28.1025 36.4751 28.1371C36.7216 28.1702 36.8298 28.2279 36.9019 28.3L37.4463 27.7555C37.2073 27.5165 36.9096 27.4186 36.5777 27.374C36.2569 27.3309 35.8509 27.3317 35.3611 27.3317V28.1017ZM37.8701 29.8407C37.8701 29.351 37.8709 28.9449 37.8278 28.6241C37.7832 28.2922 37.6853 27.9945 37.4463 27.7555L36.9019 28.3C36.9739 28.372 37.0316 28.4802 37.0647 28.7267C37.0993 28.9843 37.1002 29.3292 37.1002 29.8407H37.8701ZM25.8029 27.3317C25.3132 27.3317 24.9071 27.3309 24.5863 27.374C24.2544 27.4186 23.9567 27.5165 23.7177 27.7555L24.2622 28.3C24.3342 28.2279 24.4424 28.1702 24.6889 28.1371C24.9465 28.1025 25.2914 28.1017 25.8029 28.1017V27.3317ZM24.0661 29.3153C24.076 28.6302 24.1386 28.4235 24.2622 28.3L23.7177 27.7555C23.3405 28.1328 23.3054 28.6725 23.2962 29.3041L24.0661 29.3153ZM35.8977 37.6575C36.5293 37.6484 37.069 37.6133 37.4463 37.236L36.9019 36.6916C36.7783 36.8151 36.5716 36.8777 35.8865 36.8876L35.8977 37.6575ZM22.0862 31.9514H35.8924V31.1815H22.0862V31.9514ZM22.0862 33.5444H35.8924V32.7745H22.0862V33.5444ZM33.6758 36.5842C33.6758 36.8115 33.4916 36.9957 33.2643 36.9957V37.7657C33.9168 37.7657 34.4458 37.2367 34.4458 36.5842H33.6758ZM33.2643 36.9957C33.037 36.9957 32.8527 36.8115 32.8527 36.5842H32.0828C32.0828 37.2367 32.6118 37.7657 33.2643 37.7657V36.9957ZM32.8527 36.5842C32.8527 36.3569 33.037 36.1726 33.2643 36.1726V35.4027C32.6118 35.4027 32.0828 35.9316 32.0828 36.5842H32.8527ZM33.2643 36.1726C33.4916 36.1726 33.6758 36.3569 33.6758 36.5842H34.4458C34.4458 35.9316 33.9168 35.4027 33.2643 35.4027V36.1726ZM32.2018 36.9957C31.9746 36.9957 31.7903 36.8115 31.7903 36.5842H31.0203C31.0203 37.2367 31.5493 37.7657 32.2018 37.7657V36.9957ZM31.7903 36.5842C31.7903 36.3569 31.9746 36.1726 32.2018 36.1726V35.4027C31.5493 35.4027 31.0203 35.9316 31.0203 36.5842H31.7903ZM32.2018 36.1726C32.3075 36.1726 32.403 36.2119 32.4761 36.2773L32.9896 35.7036C32.7808 35.5168 32.5042 35.4027 32.2018 35.4027V36.1726ZM32.4761 36.891C32.403 36.9564 32.3075 36.9957 32.2018 36.9957V37.7657C32.5042 37.7657 32.7808 37.6516 32.9896 37.4647L32.4761 36.891Z" fill="#111111"/>
</g>
<defs>
<filter id="filter0_d_5_10941" x="-11.3724" y="-4.52743" width="82.795" height="82.795" filterUnits="userSpaceOnUse" color-interpolation-filters="sRGB">
<feFlood flood-opacity="0" result="BackgroundImageFix"/>
<feColorMatrix in="SourceAlpha" type="matrix" values="0 0 0 0 0 0 0 0 0 0 0 0 0 0 0 0 0 0 127 0" result="hardAlpha"/>
<feOffset dy="3.52416"/>
<feGaussianBlur stdDeviation="13.2156"/>
<feComposite in2="hardAlpha" operator="out"/>
<feColorMatrix type="matrix" values="0 0 0 0 0.188235 0 0 0 0 0.482353 0 0 0 0 0.992157 0 0 0 0.05 0"/>
<feBlend mode="normal" in2="BackgroundImageFix" result="effect1_dropShadow_5_10941"/>
<feBlend mode="normal" in="SourceGraphic" in2="effect1_dropShadow_5_10941" result="shape"/>
</filter>
</defs>
</svg>
