<svg width="40" height="41" viewBox="0 0 40 41" fill="none" xmlns="http://www.w3.org/2000/svg">
<g clip-path="url(#clip0_3341_450)">
<path d="M37.1074 29.296L36.4003 28.5889V28.5889L37.1074 29.296ZM7.4727 9.20992L8.17981 9.91703L7.4727 9.20992ZM7.96785 13.091H29.4522V11.091H7.96785V13.091ZM33.2266 16.8653V28.8011H35.2266V16.8653H33.2266ZM29.4523 32.5754H7.96786V34.5754H29.4523V32.5754ZM4.19354 28.8011V16.8653H2.19354V28.8011H4.19354ZM7.96786 32.5754C6.81427 32.5754 6.04968 32.5733 5.48174 32.4969C4.94258 32.4244 4.73265 32.3019 4.59983 32.1691L3.18562 33.5833C3.75198 34.1497 4.45431 34.3768 5.21525 34.4791C5.94743 34.5775 6.87081 34.5754 7.96786 34.5754V32.5754ZM2.19354 28.8011C2.19354 29.8981 2.19142 30.8215 2.28986 31.5537C2.39216 32.3147 2.61926 33.017 3.18562 33.5833L4.59983 32.1691C4.46701 32.0363 4.34451 31.8264 4.27202 31.2872C4.19567 30.7193 4.19354 29.9547 4.19354 28.8011H2.19354ZM33.2266 28.8011C33.2266 29.9547 33.2244 30.7193 33.1481 31.2872C33.0756 31.8264 32.9531 32.0363 32.8203 32.1691L34.2345 33.5833C34.8009 33.017 35.0279 32.3147 35.1303 31.5537C35.2287 30.8215 35.2266 29.8981 35.2266 28.8011H33.2266ZM29.4523 34.5754C30.5493 34.5754 31.4727 34.5775 32.2049 34.4791C32.9658 34.3768 33.6681 34.1497 34.2345 33.5833L32.8203 32.1691C32.6875 32.3019 32.4775 32.4244 31.9384 32.4969C31.3704 32.5733 30.6058 32.5754 29.4523 32.5754V34.5754ZM29.4522 13.091C30.6058 13.091 31.3704 13.0931 31.9384 13.1695C32.4775 13.242 32.6875 13.3645 32.8203 13.4973L34.2345 12.0831C33.6681 11.5167 32.9658 11.2896 32.2049 11.1873C31.4727 11.0889 30.5493 11.091 29.4522 11.091V13.091ZM35.2266 16.8653C35.2266 15.7683 35.2287 14.8449 35.1303 14.1127C35.0279 13.3518 34.8009 12.6494 34.2345 12.0831L32.8203 13.4973C32.9531 13.6301 33.0756 13.84 33.1481 14.3792C33.2244 14.9471 33.2266 15.7117 33.2266 16.8653H35.2266ZM7.96785 11.091C6.87081 11.091 5.94743 11.0889 5.21525 11.1873C4.4543 11.2896 3.75198 11.5167 3.18562 12.0831L4.59983 13.4973C4.73265 13.3645 4.94258 13.242 5.48174 13.1695C6.04968 13.0931 6.81427 13.091 7.96785 13.091V11.091ZM4.19354 16.8653C4.19354 15.7117 4.19567 14.9471 4.27202 14.3792C4.34451 13.84 4.46701 13.6301 4.59983 13.4973L3.18562 12.0831C2.61926 12.6494 2.39216 13.3518 2.28986 14.1127C2.19142 14.8449 2.19354 15.7683 2.19354 16.8653H4.19354ZM11.5478 9.51074H33.0322V7.51074H11.5478V9.51074ZM36.8065 13.2851V25.2208H38.8065V13.2851H36.8065ZM36.8065 25.2208C36.8065 26.3744 36.8044 27.139 36.7281 27.7069C36.6556 28.2461 36.5331 28.456 36.4003 28.5889L37.8145 30.0031C38.3808 29.4367 38.6079 28.7344 38.7102 27.9734C38.8087 27.2413 38.8065 26.3179 38.8065 25.2208H36.8065ZM33.0322 9.51074C34.1858 9.51074 34.9504 9.51287 35.5183 9.58922C36.0575 9.66171 36.2674 9.78421 36.4003 9.91703L37.8145 8.50282C37.2481 7.93646 36.5458 7.70936 35.7848 7.60706C35.0527 7.50862 34.1293 7.51074 33.0322 7.51074V9.51074ZM38.8065 13.2851C38.8065 12.188 38.8087 11.2646 38.7102 10.5324C38.6079 9.7715 38.3808 9.06918 37.8145 8.50282L36.4003 9.91703C36.5331 10.0499 36.6556 10.2598 36.7281 10.7989C36.8044 11.3669 36.8065 12.1315 36.8065 13.2851H38.8065ZM11.5478 7.51074C10.4508 7.51074 9.5274 7.50862 8.79522 7.60706C8.03428 7.70936 7.33195 7.93646 6.76559 8.50282L8.17981 9.91703C8.31263 9.78421 8.52255 9.66171 9.06172 9.58922C9.62965 9.51287 10.3942 9.51074 11.5478 9.51074V7.51074ZM7.7786 12.1059C7.80101 10.5567 7.94651 10.1503 8.17981 9.91703L6.76559 8.50282C5.87324 9.39517 5.79921 10.6667 5.77881 12.077L7.7786 12.1059ZM34.2403 30.9899C35.6506 30.9695 36.9221 30.8954 37.8145 30.0031L36.4003 28.5889C36.167 28.8222 35.7606 28.9677 34.2113 28.9901L34.2403 30.9899ZM3.19354 18.1641H34.2266V16.1641H3.19354V18.1641ZM3.19354 21.7448H34.2266V19.7448H3.19354V21.7448ZM29.1095 28.4426C29.1095 28.8791 28.7556 29.233 28.3191 29.233V31.233C29.8602 31.233 31.1095 29.9837 31.1095 28.4426H29.1095ZM28.3191 29.233C27.8826 29.233 27.5287 28.8791 27.5287 28.4426H25.5287C25.5287 29.9837 26.778 31.233 28.3191 31.233V29.233ZM27.5287 28.4426C27.5287 28.0061 27.8826 27.6523 28.3191 27.6523V25.6523C26.778 25.6523 25.5287 26.9016 25.5287 28.4426H27.5287ZM28.3191 27.6523C28.7556 27.6523 29.1095 28.0061 29.1095 28.4426H31.1095C31.1095 26.9016 29.8602 25.6523 28.3191 25.6523V27.6523ZM25.931 29.233C25.4945 29.233 25.1406 28.8791 25.1406 28.4426H23.1406C23.1406 29.9837 24.3899 31.233 25.931 31.233V29.233ZM25.1406 28.4426C25.1406 28.0061 25.4945 27.6523 25.931 27.6523V25.6523C24.3899 25.6523 23.1406 26.9016 23.1406 28.4426H25.1406ZM25.931 27.6523C26.1341 27.6523 26.3172 27.7275 26.4577 27.8533L27.7915 26.363C27.2985 25.9218 26.645 25.6523 25.931 25.6523V27.6523ZM26.4577 29.032C26.3172 29.1577 26.1341 29.233 25.931 29.233V31.233C26.645 31.233 27.2985 30.9635 27.7915 30.5223L26.4577 29.032Z" fill="#307BFD"/>
</g>
<defs>
<clipPath id="clip0_3341_450">
<rect width="40" height="40" fill="white" transform="translate(0 0.625)"/>
</clipPath>
</defs>
</svg>
