<svg width="32" height="31" viewBox="0 0 32 31" fill="none" xmlns="http://www.w3.org/2000/svg">
<rect x="0.678894" y="-0.00390625" width="30.5059" height="30.5059" rx="15.253" fill="#F5F5F5"/>
<path d="M17.3954 7.28809L17.3881 10.8118L17.3808 14.3356L17.0444 13.5176V13.5155L16.6081 21.36C17.0371 22.4003 17.2662 22.9562 17.2687 22.9583C17.2711 22.9603 17.5148 22.9729 17.8098 22.9855C18.7018 23.0233 19.8084 23.1051 20.6493 23.1953C20.8443 23.2162 21.0101 23.2267 21.0222 23.2183C21.0344 23.2099 21.0369 19.6233 21.0344 15.2459L21.0271 7.28809H17.3954Z" fill="url(#paint0_linear_3341_459)"/>
<path d="M10.8257 7.27846V15.2447C10.8257 19.6263 10.8306 23.215 10.8379 23.2213C10.8452 23.2276 11.1596 23.2004 11.5399 23.1647C11.9201 23.1291 12.4441 23.0829 12.705 23.064C13.1047 23.0347 14.3039 22.9696 14.4404 22.9675C14.4818 22.9675 14.4843 22.7893 14.4891 19.5927L14.4964 16.2179L14.7865 16.9226C14.8304 17.0317 14.845 17.0653 14.8889 17.1722L15.3252 9.32979C15.2325 9.10536 15.2813 9.22282 15.1765 8.96693C14.8206 8.10067 14.5184 7.36866 14.5062 7.3351L14.4818 7.27637H10.8257V7.27846Z" fill="url(#paint1_linear_3341_459)"/>
<path d="M10.8257 7.27846L14.494 16.2241V16.2199L14.7841 16.9247C16.3952 20.849 17.2605 22.9549 17.2654 22.9591C17.2678 22.9612 17.5115 22.9737 17.8065 22.9863C18.6986 23.0241 19.8051 23.1059 20.6461 23.1961C20.8386 23.217 21.0068 23.2275 21.0165 23.2191L17.3799 14.3343V14.3364L17.0436 13.5184C16.7145 12.7193 16.4951 12.1844 15.1716 8.96692C14.8158 8.10067 14.5135 7.36866 14.5013 7.3351L14.477 7.27637H12.6513L10.8257 7.27846Z" fill="#E30A17"/>
<defs>
<linearGradient id="paint0_linear_3341_459" x1="22.6725" y1="19.2013" x2="16.8597" y2="21.754" gradientUnits="userSpaceOnUse">
<stop stop-color="#B20610"/>
<stop offset="0.255959" stop-color="#B20610"/>
<stop offset="1" stop-color="#590004"/>
</linearGradient>
<linearGradient id="paint1_linear_3341_459" x1="9.06304" y1="10.7716" x2="15.3493" y2="8.04274" gradientUnits="userSpaceOnUse">
<stop stop-color="#B20610"/>
<stop offset="0.255959" stop-color="#B20610"/>
<stop offset="1" stop-color="#590004"/>
</linearGradient>
</defs>
</svg>
