<svg width="24" height="25" viewBox="0 0 24 25" fill="none" xmlns="http://www.w3.org/2000/svg">
<path d="M11.999 7.84131C10.7726 7.84131 9.59651 8.32848 8.72934 9.19565C7.86217 10.0628 7.375 11.2389 7.375 12.4653C7.375 13.6917 7.86217 14.8678 8.72934 15.735C9.59651 16.6021 10.7726 17.0893 11.999 17.0893C13.2254 17.0893 14.4015 16.6021 15.2687 15.735C16.1358 14.8678 16.623 13.6917 16.623 12.4653C16.623 11.2389 16.1358 10.0628 15.2687 9.19565C14.4015 8.32848 13.2254 7.84131 11.999 7.84131ZM11.999 15.4683C11.2023 15.4683 10.4382 15.1518 9.87485 14.5885C9.31149 14.0251 8.995 13.261 8.995 12.4643C8.995 11.6676 9.31149 10.9035 9.87485 10.3402C10.4382 9.7768 11.2023 9.46031 11.999 9.46031C12.7957 9.46031 13.5598 9.7768 14.1231 10.3402C14.6865 10.9035 15.003 11.6676 15.003 12.4643C15.003 13.261 14.6865 14.0251 14.1231 14.5885C13.5598 15.1518 12.7957 15.4683 11.999 15.4683Z" fill="white"/>
<path d="M16.8046 8.74926C17.3999 8.74926 17.8826 8.26662 17.8826 7.67126C17.8826 7.0759 17.3999 6.59326 16.8046 6.59326C16.2092 6.59326 15.7266 7.0759 15.7266 7.67126C15.7266 8.26662 16.2092 8.74926 16.8046 8.74926Z" fill="white"/>
<path d="M20.5349 6.57499C20.3034 5.97717 19.9496 5.43428 19.4962 4.98105C19.0428 4.52783 18.4998 4.17427 17.9019 3.94299C17.2022 3.68035 16.4631 3.53834 15.7159 3.52299C14.7529 3.48099 14.4479 3.46899 12.0059 3.46899C9.56391 3.46899 9.25091 3.46899 8.29591 3.52299C7.54929 3.53755 6.81066 3.6796 6.11191 3.94299C5.51384 4.174 4.97067 4.52746 4.51724 4.98072C4.06381 5.43398 3.71013 5.97702 3.47891 6.57499C3.21621 7.27461 3.07452 8.01383 3.05991 8.76099C3.01691 9.72299 3.00391 10.028 3.00391 12.471C3.00391 14.913 3.00391 15.224 3.05991 16.181C3.07491 16.929 3.21591 17.667 3.47891 18.368C3.71078 18.9658 4.0648 19.5086 4.51834 19.9618C4.97188 20.415 5.51497 20.7686 6.11291 21C6.81034 21.2732 7.54928 21.4254 8.29791 21.45C9.26091 21.492 9.56591 21.505 12.0079 21.505C14.4499 21.505 14.7629 21.505 15.7179 21.45C16.465 21.4348 17.2041 21.2931 17.9039 21.031C18.5017 20.7992 19.0445 20.4453 19.4979 19.992C19.9512 19.5386 20.3051 18.9957 20.5369 18.398C20.7999 17.698 20.9409 16.96 20.9559 16.212C20.9989 15.25 21.0119 14.945 21.0119 12.502C21.0119 10.059 21.0119 9.74899 20.9559 8.79199C20.9443 8.03427 20.8018 7.28424 20.5349 6.57499ZM19.3169 16.107C19.3105 16.6833 19.2053 17.2542 19.0059 17.795C18.8557 18.1839 18.6258 18.537 18.331 18.8317C18.0361 19.1263 17.6829 19.356 17.2939 19.506C16.7591 19.7044 16.1943 19.8096 15.6239 19.817C14.6739 19.861 14.4059 19.872 11.9699 19.872C9.53191 19.872 9.28291 19.872 8.31491 19.817C7.74483 19.81 7.18023 19.7048 6.64591 19.506C6.25559 19.357 5.90091 19.1277 5.6048 18.833C5.30868 18.5382 5.07774 18.1846 4.92691 17.795C4.73035 17.26 4.62522 16.6958 4.61591 16.126C4.57291 15.176 4.56291 14.908 4.56291 12.472C4.56291 10.035 4.56291 9.78599 4.61591 8.81699C4.62237 8.24102 4.72756 7.67041 4.92691 7.12999C5.23191 6.34099 5.85691 5.71999 6.64591 5.41799C7.1805 5.22013 7.74493 5.11496 8.31491 5.10699C9.26591 5.06399 9.53291 5.05199 11.9699 5.05199C14.4069 5.05199 14.6569 5.05199 15.6239 5.10699C16.1943 5.11386 16.7593 5.21907 17.2939 5.41799C17.6828 5.56827 18.036 5.7982 18.3309 6.09302C18.6257 6.38785 18.8556 6.74107 19.0059 7.12999C19.2025 7.66494 19.3076 8.22915 19.3169 8.79899C19.3599 9.74999 19.3709 10.017 19.3709 12.454C19.3709 14.89 19.3709 15.152 19.3279 16.108H19.3169V16.107Z" fill="white"/>
</svg>
