<svg width="24" height="25" viewBox="0 0 24 25" fill="none" xmlns="http://www.w3.org/2000/svg">
<path fill-rule="evenodd" clip-rule="evenodd" d="M9.429 9.43311H13.143V11.2831C13.678 10.2191 15.05 9.26311 17.111 9.26311C21.062 9.26311 22 11.3811 22 15.2671V22.4641H18V16.1521C18 13.9391 17.465 12.6911 16.103 12.6911C14.214 12.6911 13.429 14.0361 13.429 16.1511V22.4641H9.429V9.43311ZM2.57 22.2941H6.57V9.26311H2.57V22.2941ZM7.143 5.01411C7.14315 5.34939 7.07666 5.68135 6.94739 5.9907C6.81812 6.30005 6.62865 6.58062 6.39 6.81611C5.9064 7.29674 5.25181 7.56576 4.57 7.56411C3.88939 7.56365 3.23631 7.29531 2.752 6.81711C2.51421 6.58082 2.32539 6.29994 2.19634 5.99054C2.0673 5.68115 2.00058 5.34934 2 5.01411C2 4.33711 2.27 3.68911 2.753 3.21111C3.23689 2.73227 3.89024 2.46381 4.571 2.46411C5.253 2.46411 5.907 2.73311 6.39 3.21111C6.872 3.68911 7.143 4.33711 7.143 5.01411Z" fill="white"/>
</svg>
