<svg width="40" height="41" viewBox="0 0 40 41" fill="none" xmlns="http://www.w3.org/2000/svg">
<rect y="0.624512" width="40" height="40" rx="20" fill="#EBF2FF"/>
<path d="M27 20.6244C27.0004 20.4547 26.9569 20.2877 26.8736 20.1397C26.7904 19.9918 26.6703 19.8679 26.525 19.7801L17.52 14.2713C17.3682 14.1784 17.1943 14.1276 17.0163 14.1243C16.8383 14.121 16.6627 14.1653 16.5075 14.2526C16.3538 14.3385 16.2258 14.4638 16.1366 14.6156C16.0474 14.7674 16.0003 14.9402 16 15.1163V26.1326C16.0003 26.3086 16.0474 26.4815 16.1366 26.6333C16.2258 26.7851 16.3538 26.9104 16.5075 26.9963C16.6627 27.0836 16.8383 27.1279 17.0163 27.1246C17.1943 27.1213 17.3682 27.0705 17.52 26.9776L26.525 21.4688C26.6703 21.381 26.7904 21.2571 26.8736 21.1092C26.9569 20.9612 27.0004 20.7942 27 20.6244Z" fill="#307BFD"/>
</svg>
