<svg width="33" height="38" viewBox="0 0 33 38" fill="none" xmlns="http://www.w3.org/2000/svg">
<g filter="url(#filter0_b_3347_10635)">
<path d="M13.8917 1.86257C8.85414 5.60823 3.95451 6.2646 1.00303 6.0483C0.733439 6.02855 0.5 6.23825 0.5 6.50856V13.9424C0.5 23.3545 5.51619 32.0531 13.6624 36.7675C15.4178 37.7834 17.5822 37.7834 19.3376 36.7675C27.4838 32.0531 32.5 23.3545 32.5 13.9424V6.43646C32.5 6.19318 32.3047 5.99335 32.0618 5.98007C25.8281 5.63933 21.807 3.6971 19.2688 1.87406C17.6752 0.729505 15.4662 0.691877 13.8917 1.86257Z" fill="#307BFD"/>
</g>
<path d="M16.3025 1.03784V2.71685M16.3025 37.5811V35.8033M0.796296 17.9267H2.27778M32.3025 17.9267H30.6235M32.3025 6.17364L30.821 7.65513M0.5 6.17364L1.98148 7.65513M5.04321 28.9885L6.12963 27.902M27.9568 28.9885L26.8704 27.902M0.5 11.902H2.27778M30.821 11.902H32.5M24.5988 4.5934L23.3148 5.87735M8.99383 4.5934L10.2778 5.87735M9.29012 33.5317L10.4753 32.3465M23.9074 33.5317L22.7222 32.3465M2.27778 23.3588L3.56173 22.5687M30.821 23.3588L29.4383 22.5687" stroke="white" stroke-width="0.296296" stroke-linecap="round" stroke-linejoin="round"/>
<g filter="url(#filter1_b_3347_10635)">
<path d="M14.1493 3.59461C9.6093 6.9771 5.19359 7.56983 2.53361 7.37451C2.29064 7.35667 2.08026 7.54604 2.08026 7.79014V14.5033C2.08026 23.0027 6.60102 30.858 13.9427 35.1153C15.5247 36.0327 17.4754 36.0327 19.0573 35.1153C26.399 30.858 30.9198 23.0027 30.9198 14.5033V7.72503C30.9198 7.50534 30.7437 7.32488 30.5248 7.31289C24.9068 7.00519 21.2828 5.25127 18.9953 3.60499C17.5591 2.57141 15.5683 2.53743 14.1493 3.59461Z" fill="#0761FD"/>
</g>
<rect x="7.94183" y="8.7395" width="17.8605" height="17.2651" fill="white"/>
<path fill-rule="evenodd" clip-rule="evenodd" d="M4.44679 8.9468C6.74239 9.11639 10.5532 8.60174 14.4713 5.66485C15.6959 4.74693 17.414 4.77644 18.6535 5.67386C20.6276 7.10326 23.7552 8.62613 28.6036 8.89329C28.7925 8.9037 28.9444 9.06039 28.9444 9.25114V15.1364C28.9444 22.5162 25.043 29.3366 18.707 33.0331C17.3417 33.8296 15.6582 33.8296 14.293 33.0331C7.95702 29.3366 4.05554 22.5162 4.05554 15.1364V9.30767C4.05554 9.09573 4.23711 8.9313 4.44679 8.9468ZM25.3752 13.4193C25.7401 13.0139 25.7072 12.3894 25.3018 12.0245C24.8963 11.6596 24.2718 11.6924 23.9069 12.0979L14.3176 22.7527L10.4823 18.9174C10.0966 18.5317 9.47123 18.5317 9.08553 18.9174C8.69983 19.3031 8.69983 19.9284 9.08553 20.3141L13.657 24.8855C13.8486 25.0771 14.1104 25.1816 14.3813 25.1745C14.6522 25.1674 14.9082 25.0493 15.0895 24.8479L25.3752 13.4193Z" fill="#0255E4"/>
<defs>
<filter id="filter0_b_3347_10635" x="-0.468067" y="0.0319328" width="33.9361" height="38.4657" filterUnits="userSpaceOnUse" color-interpolation-filters="sRGB">
<feFlood flood-opacity="0" result="BackgroundImageFix"/>
<feGaussianBlur in="BackgroundImageFix" stdDeviation="0.484034"/>
<feComposite in2="SourceAlpha" operator="in" result="effect1_backgroundBlur_3347_10635"/>
<feBlend mode="normal" in="SourceGraphic" in2="effect1_backgroundBlur_3347_10635" result="shape"/>
</filter>
<filter id="filter1_b_3347_10635" x="1.00463" y="1.74004" width="30.9908" height="35.1388" filterUnits="userSpaceOnUse" color-interpolation-filters="sRGB">
<feFlood flood-opacity="0" result="BackgroundImageFix"/>
<feGaussianBlur in="BackgroundImageFix" stdDeviation="0.537815"/>
<feComposite in2="SourceAlpha" operator="in" result="effect1_backgroundBlur_3347_10635"/>
<feBlend mode="normal" in="SourceGraphic" in2="effect1_backgroundBlur_3347_10635" result="shape"/>
</filter>
</defs>
</svg>
