<svg width="24" height="25" viewBox="0 0 24 25" fill="none" xmlns="http://www.w3.org/2000/svg">
<path d="M22 5.47678C21.2511 5.82379 20.4567 6.05157 19.6433 6.15254C20.4905 5.62141 21.1411 4.78034 21.4474 3.77821C20.642 4.27812 19.7608 4.63034 18.8419 4.81964C18.0934 3.9856 17.027 3.46436 15.8468 3.46436C13.5807 3.46436 11.7434 5.38591 11.7434 7.75591C11.7434 8.09232 11.7798 8.41982 11.8497 8.73401C8.43953 8.55498 5.41609 6.84644 3.39227 4.24994C3.03914 4.88379 2.8368 5.62108 2.8368 6.40748C2.8368 7.89645 3.56125 9.20998 4.66219 9.97964C4.01059 9.95829 3.37332 9.77422 2.80359 9.44278C2.80336 9.46076 2.80336 9.47874 2.80336 9.4968C2.80336 11.5761 4.21773 13.3107 6.09477 13.705C5.49054 13.8769 4.85674 13.902 4.2418 13.7785C4.76391 15.4836 6.2793 16.7243 8.07477 16.759C6.67047 17.91 4.90117 18.5962 2.97883 18.5962C2.64758 18.5962 2.32102 18.5758 2 18.5362C3.81586 19.7539 5.97266 20.4644 8.28984 20.4644C15.8373 20.4644 19.9644 13.9248 19.9644 8.25362C19.9644 8.06748 19.9605 7.8824 19.9525 7.69838C20.7558 7.091 21.4492 6.33869 22 5.47678Z" fill="white"/>
</svg>
