<svg width="24" height="25" viewBox="0 0 24 25" fill="none" xmlns="http://www.w3.org/2000/svg">
<g clip-path="url(#clip0_105_6778)">
<g clip-path="url(#clip1_105_6778)">
<path d="M18.1542 4.58235C16.3772 2.8011 14.0107 1.82141 11.4958 1.82141C6.30469 1.82141 2.08058 6.04552 2.08058 11.2366C2.08058 12.8948 2.51317 14.5149 3.33594 15.9442L2 20.8214L6.99174 19.5109C8.36585 20.2616 9.91384 20.656 11.4915 20.656H11.4958C16.6826 20.656 21 16.4319 21 11.2408C21 8.72588 19.9312 6.3636 18.1542 4.58235ZM11.4958 19.0698C10.0877 19.0698 8.70937 18.6924 7.50915 17.9799L7.225 17.8103L4.26473 18.5864L5.05357 15.6982L4.86696 15.4013C4.08237 14.1544 3.67098 12.7167 3.67098 11.2366C3.67098 6.92342 7.18259 3.41181 11.5 3.41181C13.5908 3.41181 15.5545 4.2261 17.0304 5.70623C18.5062 7.18637 19.4138 9.14998 19.4096 11.2408C19.4096 15.5582 15.8089 19.0698 11.4958 19.0698ZM15.7877 13.2087C15.5545 13.0899 14.3967 12.5216 14.1804 12.4453C13.9641 12.3647 13.8071 12.3265 13.6502 12.564C13.4933 12.8015 13.0437 13.3274 12.9038 13.4886C12.7681 13.6455 12.6281 13.6667 12.3949 13.548C11.0123 12.8567 10.1047 12.3138 9.19286 10.7489C8.95112 10.3332 9.4346 10.3629 9.88415 9.46382C9.96049 9.3069 9.92232 9.17119 9.86295 9.05244C9.80357 8.93369 9.33281 7.77588 9.13772 7.30512C8.94688 6.84708 8.75179 6.9107 8.60759 6.90221C8.47187 6.89373 8.31495 6.89373 8.15804 6.89373C8.00112 6.89373 7.74665 6.95311 7.53036 7.18637C7.31406 7.42387 6.70759 7.99217 6.70759 9.14998C6.70759 10.3078 7.55156 11.4274 7.66607 11.5844C7.78482 11.7413 9.32433 14.1163 11.6866 15.1384C13.1795 15.783 13.7647 15.8382 14.5112 15.7279C14.965 15.66 15.9022 15.1596 16.0973 14.6082C16.2924 14.0569 16.2924 13.5861 16.233 13.4886C16.1779 13.3826 16.021 13.3232 15.7877 13.2087Z" fill="white"/>
</g>
</g>
<defs>
<clipPath id="clip0_105_6778">
<rect width="24" height="24" fill="white" transform="translate(0 0.464355)"/>
</clipPath>
<clipPath id="clip1_105_6778">
<rect width="19" height="21.7143" fill="white" transform="translate(2 0.464355)"/>
</clipPath>
</defs>
</svg>
