<svg width="24" height="25" viewBox="0 0 24 25" fill="none" xmlns="http://www.w3.org/2000/svg">
<path d="M22.5 12.3987C22.5 12.3471 22.5 12.2885 22.4977 12.2206C22.4953 12.0307 22.4906 11.8175 22.4859 11.5901C22.4672 10.9362 22.4344 10.2846 22.3828 9.67058C22.3125 8.82449 22.2094 8.11902 22.0687 7.58933C21.9204 7.03656 21.6295 6.53241 21.2252 6.12729C20.8209 5.72217 20.3173 5.43026 19.7648 5.28074C19.1016 5.10261 17.8031 4.99246 15.975 4.92449C15.1055 4.89167 14.175 4.87058 13.2445 4.85886C12.9187 4.85417 12.6164 4.85183 12.3445 4.84949H11.6555C11.3836 4.85183 11.0813 4.85417 10.7555 4.85886C9.825 4.87058 8.89453 4.89167 8.025 4.92449C6.19687 4.9948 4.89609 5.10496 4.23516 5.28074C3.6825 5.42989 3.17876 5.72168 2.7744 6.12686C2.37004 6.53204 2.07928 7.03637 1.93125 7.58933C1.78828 8.11902 1.6875 8.82449 1.61719 9.67058C1.56562 10.2846 1.53281 10.9362 1.51406 11.5901C1.50703 11.8175 1.50469 12.0307 1.50234 12.2206C1.50234 12.2885 1.5 12.3471 1.5 12.3987V12.53C1.5 12.5815 1.5 12.6401 1.50234 12.7081C1.50469 12.8979 1.50937 13.1112 1.51406 13.3385C1.53281 13.9925 1.56562 14.644 1.61719 15.2581C1.6875 16.1042 1.79063 16.8096 1.93125 17.3393C2.23125 18.462 3.1125 19.3479 4.23516 19.6479C4.89609 19.826 6.19687 19.9362 8.025 20.0042C8.89453 20.037 9.825 20.0581 10.7555 20.0698C11.0813 20.0745 11.3836 20.0768 11.6555 20.0792H12.3445C12.6164 20.0768 12.9187 20.0745 13.2445 20.0698C14.175 20.0581 15.1055 20.037 15.975 20.0042C17.8031 19.9339 19.1039 19.8237 19.7648 19.6479C20.8875 19.3479 21.7687 18.4643 22.0687 17.3393C22.2117 16.8096 22.3125 16.1042 22.3828 15.2581C22.4344 14.644 22.4672 13.9925 22.4859 13.3385C22.493 13.1112 22.4953 12.8979 22.4977 12.7081C22.4977 12.6401 22.5 12.5815 22.5 12.53V12.3987ZM20.8125 12.5206C20.8125 12.5698 20.8125 12.6237 20.8102 12.687C20.8078 12.8698 20.8031 13.0714 20.7984 13.2893C20.782 13.9128 20.7492 14.5362 20.7 15.1151C20.6367 15.8698 20.5477 16.4886 20.4375 16.9034C20.2922 17.4448 19.8656 17.8737 19.3266 18.0167C18.8344 18.1479 17.5945 18.2534 15.9094 18.3167C15.0562 18.3495 14.1375 18.3706 13.2211 18.3823C12.9 18.387 12.6023 18.3893 12.3352 18.3893H11.6648L10.7789 18.3823C9.8625 18.3706 8.94609 18.3495 8.09063 18.3167C6.40547 18.251 5.16328 18.1479 4.67344 18.0167C4.13437 17.8714 3.70781 17.4448 3.5625 16.9034C3.45234 16.4886 3.36328 15.8698 3.3 15.1151C3.25078 14.5362 3.22031 13.9128 3.20156 13.2893C3.19453 13.0714 3.19219 12.8675 3.18984 12.687C3.18984 12.6237 3.1875 12.5675 3.1875 12.5206V12.4081C3.1875 12.3589 3.1875 12.305 3.18984 12.2417C3.19219 12.0589 3.19688 11.8573 3.20156 11.6393C3.21797 11.0159 3.25078 10.3925 3.3 9.81355C3.36328 9.05886 3.45234 8.44011 3.5625 8.02527C3.70781 7.48386 4.13437 7.05496 4.67344 6.91199C5.16562 6.78074 6.40547 6.67527 8.09063 6.61199C8.94375 6.57917 9.8625 6.55808 10.7789 6.54636C11.1 6.54167 11.3977 6.53933 11.6648 6.53933H12.3352L13.2211 6.54636C14.1375 6.55808 15.0539 6.57917 15.9094 6.61199C17.5945 6.67761 18.8367 6.78074 19.3266 6.91199C19.8656 7.0573 20.2922 7.48386 20.4375 8.02527C20.5477 8.44011 20.6367 9.05886 20.7 9.81355C20.7492 10.3925 20.7797 11.0159 20.7984 11.6393C20.8055 11.8573 20.8078 12.0612 20.8102 12.2417C20.8102 12.305 20.8125 12.3612 20.8125 12.4081V12.5206ZM9.91406 15.605L15.3516 12.4409L9.91406 9.32371V15.605Z" fill="white"/>
</svg>
