<svg width="32" height="32" viewBox="0 0 32 32" fill="none" xmlns="http://www.w3.org/2000/svg">
<path d="M28.3475 7.64919C28.2775 7.55707 28.1871 7.48239 28.0835 7.43099C27.9798 7.3796 27.8657 7.35288 27.75 7.35294H5.70875L4.4725 2.90169C4.42854 2.74386 4.3341 2.60477 4.20363 2.50567C4.07316 2.40658 3.91384 2.35293 3.75 2.35294H0.75C0.551088 2.35294 0.360322 2.43195 0.21967 2.57261C0.0790177 2.71326 0 2.90402 0 3.10294C0 3.30185 0.0790177 3.49261 0.21967 3.63327C0.360322 3.77392 0.551088 3.85294 0.75 3.85294H3.18L7.625 19.8392C7.78717 20.4167 8.13306 20.9256 8.61031 21.2889C9.08756 21.6523 9.67018 21.8503 10.27 21.8529H22.625C23.2257 21.8514 23.8094 21.6539 24.2877 21.2905C24.766 20.927 25.1126 20.4175 25.275 19.8392L28.4788 8.30419C28.509 8.19229 28.5128 8.07491 28.4901 7.96127C28.4673 7.84762 28.4185 7.7408 28.3475 7.64919ZM23.8225 19.4379C23.7496 19.7 23.5933 19.9311 23.3771 20.0962C23.161 20.2613 22.897 20.3515 22.625 20.3529H10.27C9.99696 20.3528 9.73146 20.2633 9.51409 20.0981C9.29672 19.9328 9.13943 19.701 9.06625 19.4379L6.125 8.85294H26.7638L23.8225 19.4379ZM11.5 26.1029C11.5 26.4491 11.3974 26.7874 11.2051 27.0752C11.0128 27.363 10.7395 27.5873 10.4197 27.7197C10.0999 27.8522 9.74806 27.8868 9.40859 27.8193C9.06913 27.7518 8.7573 27.5851 8.51256 27.3404C8.26782 27.0956 8.10115 26.7838 8.03363 26.4443C7.9661 26.1049 8.00076 25.753 8.13321 25.4332C8.26566 25.1135 8.48997 24.8402 8.77775 24.6479C9.06554 24.4556 9.40388 24.3529 9.75 24.3529C10.2141 24.3529 10.6592 24.5373 10.9874 24.8655C11.3156 25.1937 11.5 25.6388 11.5 26.1029ZM24.5 26.1029C24.5 26.4491 24.3974 26.7874 24.2051 27.0752C24.0128 27.363 23.7395 27.5873 23.4197 27.7197C23.0999 27.8522 22.7481 27.8868 22.4086 27.8193C22.0691 27.7518 21.7573 27.5851 21.5126 27.3404C21.2678 27.0956 21.1012 26.7838 21.0336 26.4443C20.9661 26.1049 21.0008 25.753 21.1332 25.4332C21.2657 25.1135 21.49 24.8402 21.7778 24.6479C22.0655 24.4556 22.4039 24.3529 22.75 24.3529C23.2141 24.3529 23.6592 24.5373 23.9874 24.8655C24.3156 25.1937 24.5 25.6388 24.5 26.1029Z" fill="#F1F2F6"/>
</svg>
