<svg width="71" height="70" viewBox="0 0 71 70" fill="none" xmlns="http://www.w3.org/2000/svg">
<path d="M35.5 40.8335H38.4167C41.625 40.8335 44.25 38.2085 44.25 35.0002V5.8335H18C13.625 5.8335 9.8042 8.25429 7.82086 11.8126" stroke="white" stroke-width="4" stroke-linecap="round" stroke-linejoin="round"/>
<path d="M6.33331 49.5835C6.33331 54.4252 10.2416 58.3335 15.0833 58.3335H18C18 55.1252 20.625 52.5002 23.8333 52.5002C27.0416 52.5002 29.6666 55.1252 29.6666 58.3335H41.3333C41.3333 55.1252 43.9583 52.5002 47.1666 52.5002C50.375 52.5002 53 55.1252 53 58.3335H55.9166C60.7583 58.3335 64.6666 54.4252 64.6666 49.5835V40.8335H55.9166C54.3125 40.8335 53 39.521 53 37.9168V29.1668C53 27.5627 54.3125 26.2502 55.9166 26.2502H59.6791L54.6917 17.5294C53.6417 15.721 51.7167 14.5835 49.6167 14.5835H44.25V35.0002C44.25 38.2085 41.625 40.8335 38.4166 40.8335H35.5" stroke="white" stroke-width="4" stroke-linecap="round" stroke-linejoin="round"/>
<path d="M23.8333 64.1667C27.055 64.1667 29.6667 61.555 29.6667 58.3333C29.6667 55.1117 27.055 52.5 23.8333 52.5C20.6117 52.5 18 55.1117 18 58.3333C18 61.555 20.6117 64.1667 23.8333 64.1667Z" stroke="white" stroke-width="4" stroke-linecap="round" stroke-linejoin="round"/>
<path d="M47.1666 64.1667C50.3883 64.1667 53 61.555 53 58.3333C53 55.1117 50.3883 52.5 47.1666 52.5C43.945 52.5 41.3333 55.1117 41.3333 58.3333C41.3333 61.555 43.945 64.1667 47.1666 64.1667Z" stroke="white" stroke-width="4" stroke-linecap="round" stroke-linejoin="round"/>
<path d="M64.6667 35V40.8333H55.9167C54.3125 40.8333 53 39.5208 53 37.9167V29.1667C53 27.5625 54.3125 26.25 55.9167 26.25H59.6791L64.6667 35Z" stroke="white" stroke-width="4" stroke-linecap="round" stroke-linejoin="round"/>
<path d="M6.33331 23.3335H23.8333" stroke="white" stroke-width="4" stroke-linecap="round" stroke-linejoin="round"/>
<path d="M6.33331 32.0835H18" stroke="white" stroke-width="4" stroke-linecap="round" stroke-linejoin="round"/>
<path d="M6.33331 40.8335H12.1666" stroke="white" stroke-width="4" stroke-linecap="round" stroke-linejoin="round"/>
</svg>
