<svg width="13" height="13" viewBox="0 0 13 13" fill="none" xmlns="http://www.w3.org/2000/svg">
<g id="Group">
<path id="Vector" d="M0.5 6.5C0.5 3.67179 0.5 2.25705 1.37853 1.37853C2.25705 0.5 3.67116 0.5 6.5 0.5C9.32821 0.5 10.7429 0.5 11.6215 1.37853C12.5 2.25705 12.5 3.67116 12.5 6.5C12.5 9.32821 12.5 10.7429 11.6215 11.6215C10.7429 12.5 9.32884 12.5 6.5 12.5C3.67179 12.5 2.25705 12.5 1.37853 11.6215C0.5 10.7429 0.5 9.32884 0.5 6.5Z" stroke="white" stroke-opacity="0.5" stroke-linecap="round" stroke-linejoin="round"/>
<path id="Vector_2" d="M9.97905 3.02637H9.97273M9.34241 6.50005C9.34241 7.25382 9.04298 7.97673 8.50998 8.50972C7.97698 9.04272 7.25408 9.34216 6.50031 9.34216C5.74654 9.34216 5.02363 9.04272 4.49064 8.50972C3.95764 7.97673 3.6582 7.25382 3.6582 6.50005C3.6582 5.74628 3.95764 5.02338 4.49064 4.49038C5.02363 3.95738 5.74654 3.65795 6.50031 3.65795C7.25408 3.65795 7.97698 3.95738 8.50998 4.49038C9.04298 5.02338 9.34241 5.74628 9.34241 6.50005Z" stroke="white" stroke-opacity="0.5" stroke-linecap="round" stroke-linejoin="round"/>
</g>
</svg>
