<svg width="71" height="71" viewBox="0 0 71 71" fill="none" xmlns="http://www.w3.org/2000/svg">
<path d="M28.6458 40.7499L33.3416 44.3958C33.9541 45.0083 35.325 45.2998 36.2292 45.2998H42.0042C43.8125 45.2998 45.7958 43.929 46.2625 42.1207L49.9083 31.0664C50.6667 28.9372 49.2958 27.129 47.0208 27.129H40.9542C40.05 27.129 39.2917 26.3707 39.4375 25.3207L40.1958 20.4789C40.4875 19.1081 39.5833 17.5914 38.2125 17.1539C36.9875 16.6872 35.4708 17.2996 34.8875 18.2038L28.675 27.4498" stroke="#F1F2F6" stroke-width="4" stroke-miterlimit="10"/>
<path d="M20.9167 40.7502V25.9041C20.9167 23.7749 21.8208 23.0166 23.95 23.0166H25.4666C27.5958 23.0166 28.5 23.7749 28.5 25.9041V40.7502C28.5 42.8793 27.5958 43.6376 25.4666 43.6376H23.95C21.8208 43.6376 20.9167 42.8793 20.9167 40.7502Z" stroke="#F1F2F6" stroke-width="4" stroke-linecap="round" stroke-linejoin="round"/>
<path d="M53 55.5083H50.7834C48.45 55.5083 46.2333 56.4125 44.6 58.0458L39.6125 62.9752C37.3375 65.221 33.6333 65.221 31.3583 62.9752L26.3708 58.0458C24.7375 56.4125 22.4917 55.5083 20.1875 55.5083H18C13.1583 55.5083 9.25 51.6292 9.25 46.8459V15.025C9.25 10.2416 13.1583 6.36255 18 6.36255H53C57.8417 6.36255 61.75 10.2416 61.75 15.025V46.8459C61.75 51.6001 57.8417 55.5083 53 55.5083Z" stroke="#F1F2F6" stroke-width="4" stroke-miterlimit="10" stroke-linecap="round" stroke-linejoin="round"/>
</svg>
