<svg width="158" height="22" viewBox="0 0 158 22" fill="none" xmlns="http://www.w3.org/2000/svg">
<path d="M11 1.49023L14.09 7.75023L21 8.76023L16 13.6302L17.18 20.5102L11 17.2602L4.82 20.5102L6 13.6302L1 8.76023L7.91 7.75023L11 1.49023Z" fill="#FF8600" stroke="#FF8600" stroke-width="2" stroke-linecap="round" stroke-linejoin="round"/>
<path d="M45 1.49023L48.09 7.75023L55 8.76023L50 13.6302L51.18 20.5102L45 17.2602L38.82 20.5102L40 13.6302L35 8.76023L41.91 7.75023L45 1.49023Z" fill="#FF8600" stroke="#FF8600" stroke-width="2" stroke-linecap="round" stroke-linejoin="round"/>
<path d="M79 1.49023L82.09 7.75023L89 8.76023L84 13.6302L85.18 20.5102L79 17.2602L72.82 20.5102L74 13.6302L69 8.76023L75.91 7.75023L79 1.49023Z" fill="#FF8600" stroke="#FF8600" stroke-width="2" stroke-linecap="round" stroke-linejoin="round"/>
<path d="M113 1.49023L116.09 7.75023L123 8.76023L118 13.6302L119.18 20.5102L113 17.2602L106.82 20.5102L108 13.6302L103 8.76023L109.91 7.75023L113 1.49023Z" fill="#FF8600" stroke="#FF8600" stroke-width="2" stroke-linecap="round" stroke-linejoin="round"/>
<path d="M147 1.49023L150.09 7.75023L157 8.76023L152 13.6302L153.18 20.5102L147 17.2602L140.82 20.5102L142 13.6302L137 8.76023L143.91 7.75023L147 1.49023Z" fill="#FF8600" stroke="#FF8600" stroke-width="2" stroke-linecap="round" stroke-linejoin="round"/>
</svg>
