<svg width="352" height="108" viewBox="0 0 352 108" fill="none" xmlns="http://www.w3.org/2000/svg">
<g clip-path="url(#clip0_2923_11149)">
<path d="M0.627241 10.4179L13.6015 14.0277L7.83458 9.53209C11.0964 10.1329 15.3488 11.6686 20.826 14.3819L31.0582 26.4399L26.6461 17.5535C29.7937 19.5452 33.2348 22.2722 36.6637 25.5683L40.5791 37.432L39.4507 28.3497C42.899 31.9737 46.2601 36.08 49.2174 40.508C52.3222 45.1448 54.9828 50.149 56.7607 55.2833L59.4546 51.1644C59.9195 55.7029 59.667 59.7589 58.7749 63.5922L62.3863 60.9737C62.2445 65.576 61.2677 68.7028 59.186 71.4517C61.6413 77.5233 63.4085 84.0037 65.2205 90.457L63.1626 91.4095C53.8368 51.551 31.8302 28.8613 13.9452 20.1862L13.6938 23.6147C29.7113 31.5191 43.7545 47.0637 53.8123 71.1931C51.6933 71.5715 49.5474 71.5064 47.4898 71.0367L44.9615 59.6004L45.2061 70.3715C43.7998 69.8305 42.4733 69.12 41.2501 68.2362L42.2816 59.5868L39.5523 66.8289C38.409 65.7757 37.4042 64.5432 36.5645 63.1464C31.4763 54.7544 26.2335 46.447 17.6266 40.2096L22.4651 36.2339L14.3134 38.0239C12.7907 37.1518 11.1559 36.0455 9.87401 34.9574L15.5729 33.2127L6.24984 31.3632C5.38373 30.38 4.55489 29.332 3.78468 28.274C1.05242 24.4625 -1.05212 20.3693 -1.39015 16.3802C-1.57105 14.3867 -1.15755 12.4132 -0.148822 11.1767C0.102595 10.8808 0.382271 10.6094 0.627241 10.4179Z" fill="#9D7C6B"/>
</g>
<path d="M168.286 89.6314C163.87 89.6314 160.158 87.7434 157.15 83.9674C154.334 80.3834 152.926 76.3514 152.926 71.8714C152.926 61.8874 159.198 51.1994 171.742 39.8074V38.7514C171.742 33.1834 173.246 27.1354 176.254 20.6074C179.838 12.9274 184.19 9.08738 189.31 9.08738C191.422 9.08738 193.118 9.75938 194.398 11.1034C195.678 12.3834 196.318 14.0794 196.318 16.1914C196.318 19.9034 193.566 24.4474 188.062 29.8234L175.102 41.3434C175.23 42.5594 175.454 44.0954 175.774 45.9514C176.158 47.7434 176.574 49.8554 177.022 52.2874C177.918 50.8794 178.942 49.5354 180.094 48.2554C181.246 46.9754 182.558 45.7914 184.03 44.7034C187.294 42.2074 190.366 40.9594 193.246 40.9594C196.382 40.9594 198.846 42.2394 200.638 44.7994C202.302 47.0394 203.134 49.7594 203.134 52.9594C203.134 56.4794 201.79 60.9274 199.102 66.3034C196.798 71.0394 194.27 75.0074 191.518 78.2074L195.742 82.0474C197.918 84.0314 199.006 85.3114 199.006 85.8874C199.006 86.3994 198.782 86.6554 198.334 86.6554C198.014 86.6554 195.294 84.3514 190.174 79.7434C183.966 86.3354 176.67 89.6314 168.286 89.6314ZM175.198 36.7354L186.334 27.5194C191.262 22.9754 193.726 19.3274 193.726 16.5754C193.726 15.4234 193.278 14.4314 192.382 13.5994C191.55 12.7674 190.59 12.3514 189.502 12.3514C186.238 12.3514 183.006 15.6794 179.806 22.3354C177.118 27.7754 175.582 32.5754 175.198 36.7354ZM168.286 86.7514C175.71 86.7514 182.302 83.7754 188.062 77.8234C182.174 72.3194 178.014 66.0474 175.582 59.0074C174.558 61.2474 174.046 63.9034 174.046 66.9754C174.046 68.2554 173.694 68.9594 172.99 69.0874C172.414 68.7674 172.126 67.8714 172.126 66.3994C172.126 63.1994 172.99 59.8714 174.718 56.4154C173.438 51.8714 172.574 47.8714 172.126 44.4154C161.886 55.0394 156.766 64.3514 156.766 72.3514C156.766 76.0634 157.758 79.2954 159.742 82.0474C161.918 85.1834 164.766 86.7514 168.286 86.7514ZM189.502 76.1914C192.062 73.2474 194.27 69.8554 196.126 66.0154C198.302 61.5994 199.39 57.7594 199.39 54.4954C199.39 51.8074 198.782 49.5354 197.566 47.6794C196.158 45.5034 194.206 44.4154 191.71 44.4154C189.47 44.4154 186.846 45.6634 183.838 48.1594C182.622 49.1834 181.502 50.2394 180.478 51.3274C179.454 52.4154 178.526 53.5994 177.694 54.8794C179.998 63.3914 183.934 70.4954 189.502 76.1914Z" fill="#9D7C6B"/>
<path d="M348.249 13.2179L335.275 16.8242L341.042 12.333C337.78 12.9332 333.528 14.4674 328.051 17.1781L317.818 29.2243L322.231 20.3466C319.083 22.3363 315.642 25.0607 312.213 28.3535L308.297 40.2056L309.426 31.1322C305.978 34.7527 302.616 38.855 299.659 43.2786C296.554 47.9109 293.894 52.9103 292.116 58.0396L289.422 53.9246C288.957 58.4587 289.21 62.5108 290.102 66.3403L286.49 63.7244C286.632 68.3222 287.609 71.4459 289.691 74.1921C287.235 80.2578 285.468 86.7318 283.656 93.1788L285.714 94.1304C295.04 54.3109 317.046 31.6433 334.931 22.9767L335.183 26.4019C319.165 34.2985 305.122 49.8279 295.064 73.9337C297.183 74.3118 299.329 74.2468 301.387 73.7775L303.915 62.3524L303.67 73.113C305.077 72.5725 306.403 71.8627 307.626 70.9798L306.595 62.3389L309.324 69.5739C310.468 68.5217 311.472 67.2904 312.312 65.8949C317.4 57.5111 322.643 49.2118 331.25 42.9805L326.411 39.0087L334.563 40.7969C336.086 39.9258 337.721 38.8206 339.003 37.7335L333.304 35.9905L342.627 34.1428C343.493 33.1605 344.322 32.1135 345.092 31.0566C347.824 27.2489 349.929 23.1597 350.267 19.1744C350.448 17.1828 350.034 15.2113 349.025 13.976C348.774 13.6804 348.494 13.4093 348.249 13.2179Z" fill="#9D7C6B"/>
<defs>
<clipPath id="clip0_2923_11149">
<rect width="60.8864" height="98.3468" fill="white" transform="matrix(-0.985954 0.167017 0.167017 0.985954 60.0312 0)"/>
</clipPath>
</defs>
</svg>
