<svg width="25" height="31" viewBox="0 0 25 31" fill="none" xmlns="http://www.w3.org/2000/svg">
<g clip-path="url(#clip0_60_462)">
<path d="M20.8792 16.438C20.9224 21.1203 24.9553 22.6785 25 22.6984C24.9659 22.8083 24.3556 24.9189 22.8753 27.0991C21.5956 28.9839 20.2674 30.8619 18.1752 30.9008C16.1193 30.9389 15.4583 29.6722 13.1079 29.6722C10.7582 29.6722 10.0237 30.8619 8.07765 30.9389C6.05811 31.0159 4.52025 28.9007 3.22992 27.0228C0.59329 23.1814 -1.42164 16.1679 1.2839 11.4336C2.62796 9.0826 5.02989 7.59382 7.63697 7.55565C9.62011 7.51752 11.492 8.90017 12.7043 8.90017C13.9158 8.90017 16.1905 7.23742 18.5818 7.48161C19.5829 7.5236 22.3929 7.88912 24.1973 10.5508C24.0519 10.6416 20.8444 12.5233 20.8792 16.438ZM17.0155 4.94019C18.0877 3.6323 18.8094 1.81159 18.6125 0C17.067 0.0625954 15.1982 1.03784 14.0897 2.34501C13.0962 3.50257 12.2261 5.35533 12.4609 7.13106C14.1835 7.26537 15.9433 6.24891 17.0155 4.94019Z" fill="white"/>
</g>
<defs>
<clipPath id="clip0_60_462">
<rect width="25" height="31" fill="white"/>
</clipPath>
</defs>
</svg>
