<svg width="129" height="44" viewBox="0 0 129 44" fill="none" xmlns="http://www.w3.org/2000/svg">
<path d="M22.7039 2.58826C17.5673 2.758 12.7036 4.92083 9.16142 8.61052C5.61923 12.3002 3.68219 17.2212 3.76786 22.3128C3.85353 27.4044 5.95505 32.2587 9.6194 35.8294C13.2838 39.4 18.2175 41.401 23.357 41.401C28.4965 41.401 33.4302 39.4 37.0946 35.8294C40.7589 32.2587 42.8604 27.4044 42.9461 22.3128C43.0318 17.2212 41.0947 12.3002 37.5525 8.61052C34.0103 4.92083 29.1467 2.758 24.01 2.58826H22.7039ZM50.1325 2.58826C44.9958 2.758 40.1322 4.92083 36.59 8.61052C33.0478 12.3002 31.1108 17.2212 31.1964 22.3128C31.2821 27.4044 33.3836 32.2587 37.048 35.8294C40.7123 39.4 45.646 41.401 50.7856 41.401C55.9251 41.401 60.8588 39.4 64.5231 35.8294C68.1875 32.2587 70.289 27.4044 70.3747 22.3128C70.4603 17.2212 68.5233 12.3002 64.9811 8.61052C61.4389 4.92083 56.5753 2.758 51.4386 2.58826H50.1325ZM77.5611 2.58826C72.4244 2.758 67.5608 4.92083 64.0186 8.61052C60.4764 12.3002 58.5393 17.2212 58.625 22.3128C58.7107 27.4044 60.8122 32.2587 64.4766 35.8294C68.1409 39.4 73.0746 41.401 78.2141 41.401C83.3537 41.401 88.2874 39.4 91.9517 35.8294C95.6161 32.2587 97.7176 27.4044 97.8032 22.3128C97.8889 17.2212 95.9519 12.3002 92.4097 8.61052C88.8675 4.92083 84.0039 2.758 78.8672 2.58826H77.5611ZM104.99 2.58826C99.853 2.758 94.9893 4.92083 91.4472 8.61052C87.905 12.3002 85.9679 17.2212 86.0536 22.3128C86.1393 27.4044 88.2408 32.2587 91.9051 35.8294C95.5695 39.4 100.503 41.401 105.643 41.401C110.782 41.401 115.716 39.4 119.38 35.8294C123.045 32.2587 125.146 27.4044 125.232 22.3128C125.317 17.2212 123.38 12.3002 119.838 8.61052C116.296 4.92083 111.432 2.758 106.296 2.58826H104.99Z" stroke="#D0D0D0" stroke-width="2.88235"/>
</svg>
