<svg width="1440" height="781" viewBox="0 0 1440 781" fill="none" xmlns="http://www.w3.org/2000/svg">
<path d="M120 -149H0V-40.5556M120 -149V-40.5556M120 -149H240M120 -40.5556H0M120 -40.5556H240M120 -40.5556V67.8889M0 -40.5556V67.8889M240 -149V-40.5556M240 -149H360M240 -40.5556H360M240 -40.5556V67.8889M360 -149V-40.5556M360 -149H480M360 -40.5556H480M360 -40.5556V67.8889M480 -149V-40.5556M480 -149H600M480 -40.5556H600M480 -40.5556V67.8889M600 -149V-40.5556M600 -149H720M600 -40.5556H720M600 -40.5556V67.8889M720 -149V-40.5556M720 -149H840M720 -40.5556H840M720 -40.5556V67.8889M840 -149V-40.5556M840 -149H960M840 -40.5556H960M840 -40.5556V67.8889M960 -149V-40.5556M960 -149H1080M960 -40.5556H1080M960 -40.5556V67.8889M1080 -149V-40.5556M1080 -149H1200M1080 -40.5556H1200M1080 -40.5556V67.8889M1200 -149V-40.5556M1200 -149H1320M1200 -40.5556H1320M1200 -40.5556V67.8889M1320 -149V-40.5556M1320 -149H1440V-40.5556M1320 -40.5556H1440M1320 -40.5556V67.8889M1440 -40.5556V67.8889M120 67.8889H0M120 67.8889H240M120 67.8889V176.333M0 67.8889V176.333M240 67.8889H360M240 67.8889V176.333M360 67.8889H480M360 67.8889V176.333M480 67.8889H600M480 67.8889V176.333M600 67.8889H720M600 67.8889V176.333M720 67.8889H840M720 67.8889V176.333M840 67.8889H960M840 67.8889V176.333M960 67.8889H1080M960 67.8889V176.333M1080 67.8889H1200M1080 67.8889V176.333M1200 67.8889H1320M1200 67.8889V176.333M1320 67.8889H1440M1320 67.8889V176.333M1440 67.8889V176.333M120 176.333H0M120 176.333H240M120 176.333V284.778M0 176.333V284.778M240 176.333H360M240 176.333V284.778M360 176.333H480M360 176.333V284.778M480 176.333H600M480 176.333V284.778M600 176.333H720M600 176.333V284.778M720 176.333H840M720 176.333V284.778M840 176.333H960M840 176.333V284.778M960 176.333H1080M960 176.333V284.778M1080 176.333H1200M1080 176.333V284.778M1200 176.333H1320M1200 176.333V284.778M1320 176.333H1440M1320 176.333V284.778M1440 176.333V284.778M120 284.778H0M120 284.778H240M120 284.778V393.222M0 284.778V393.222M240 284.778H360M240 284.778V393.222M360 284.778H480M360 284.778V393.222M480 284.778H600M480 284.778V393.222M600 284.778H720M600 284.778V393.222M720 284.778H840M720 284.778V393.222M840 284.778H960M840 284.778V393.222M960 284.778H1080M960 284.778V393.222M1080 284.778H1200M1080 284.778V393.222M1200 284.778H1320M1200 284.778V393.222M1320 284.778H1440M1320 284.778V393.222M1440 284.778V393.222M120 393.222H0M120 393.222H240M120 393.222V501.667M0 393.222V501.667M240 393.222H360M240 393.222V501.667M360 393.222H480M360 393.222V501.667M480 393.222H600M480 393.222V501.667M600 393.222H720M600 393.222V501.667M720 393.222H840M720 393.222V501.667M840 393.222H960M840 393.222V501.667M960 393.222H1080M960 393.222V501.667M1080 393.222H1200M1080 393.222V501.667M1200 393.222H1320M1200 393.222V501.667M1320 393.222H1440M1320 393.222V501.667M1440 393.222V501.667M120 501.667H0M120 501.667H240M120 501.667V610.111M0 501.667V610.111M240 501.667H360M240 501.667V610.111M360 501.667H480M360 501.667V610.111M480 501.667H600M480 501.667V610.111M600 501.667H720M600 501.667V610.111M720 501.667H840M720 501.667V610.111M840 501.667H960M840 501.667V610.111M960 501.667H1080M960 501.667V610.111M1080 501.667H1200M1080 501.667V610.111M1200 501.667H1320M1200 501.667V610.111M1320 501.667H1440M1320 501.667V610.111M1440 501.667V610.111M120 610.111H0M120 610.111H240M120 610.111V718.556M0 610.111V718.556M240 610.111H360M240 610.111V718.556M360 610.111H480M360 610.111V718.556M480 610.111H600M480 610.111V718.556M600 610.111H720M600 610.111V718.556M720 610.111H840M720 610.111V718.556M840 610.111H960M840 610.111V718.556M960 610.111H1080M960 610.111V718.556M1080 610.111H1200M1080 610.111V718.556M1200 610.111H1320M1200 610.111V718.556M1320 610.111H1440M1320 610.111V718.556M1440 610.111V718.556M120 718.556H0M120 718.556H240M120 718.556V827M0 718.556V827H120M240 718.556H360M240 718.556V827M360 718.556H480M360 718.556V827M480 718.556H600M480 718.556V827M600 718.556H720M600 718.556V827M720 718.556H840M720 718.556V827M840 718.556H960M840 718.556V827M960 718.556H1080M960 718.556V827M1080 718.556H1200M1080 718.556V827M1200 718.556H1320M1200 718.556V827M1320 718.556H1440M1320 718.556V827M1440 718.556V827H1320M120 827H240M240 827H360M360 827H480M480 827H600M600 827H720M720 827H840M840 827H960M960 827H1080M1080 827H1200M1200 827H1320" stroke="url(#paint0_linear_46_110)"/>
<defs>
<linearGradient id="paint0_linear_46_110" x1="720" y1="-149" x2="720" y2="827" gradientUnits="userSpaceOnUse">
<stop stop-color="#E4E5E7"/>
<stop offset="1" stop-color="white" stop-opacity="0"/>
</linearGradient>
</defs>
</svg>
