<svg width="60" height="60" viewBox="0 0 60 60" fill="none" xmlns="http://www.w3.org/2000/svg">
<rect x="0.5" y="0.5" width="59" height="59" rx="29.5" stroke="#DADADA"/>
<path d="M19.4887 27.4237C18.2619 28.6225 18.3325 30.2206 19.645 31.5187L22.4419 34.3437C20.9869 35.2712 18.1762 36.4125 16.835 37.7544C14.7375 39.8519 14.7519 42.6769 16.8912 44.8312C19.0462 46.9712 21.8712 47 23.9687 44.9025C25.3244 43.5469 26.4512 40.7362 27.3787 39.295L30.2325 42.1062C31.5312 43.39 33.115 43.4612 34.3275 42.2487L35.8544 40.6794C36.8244 39.6806 36.9812 38.4531 36.2825 37.3262C36.91 37.1694 37.495 36.8125 37.9512 36.3419L44.5862 29.6781C46.17 28.1094 46.1275 26.24 44.4862 24.5987L33.0012 13.1131C31.9731 12.1 30.5756 12 29.6194 12.9562C29.1912 13.3837 28.8631 13.9975 28.6919 14.825C27.9212 18.3637 26.3656 21.6594 24.5394 23.9856C24.2256 24.3994 24.0119 24.7981 23.9119 25.2125C22.9275 24.8125 21.8994 25.0269 21.0437 25.8687L19.4887 27.4237ZM35.9544 35.1575C35.3544 35.7425 34.7981 35.6994 34.1994 35.0862H34.185L26.5087 27.4094L26.5231 27.3956C25.9669 26.8531 25.7094 26.2537 26.5087 25.0981C28.1637 22.7156 29.8044 19.4481 30.775 15.8094C30.8319 15.6387 30.9031 15.4956 31.0312 15.3675C31.26 15.125 31.5737 15.0531 31.8875 15.3812L38.8219 22.3019C38.4512 24.6844 36.5531 27.0531 35.0981 28.5081C34.9556 28.6512 34.77 28.8506 34.9981 29.0794C35.7119 29.7925 39.9919 26.725 41.7331 25.2269L42.7456 26.2256C43.4306 26.9106 43.445 27.6525 42.8312 28.2656L35.9544 35.1575ZM21.415 28.7794L22.3994 27.8094C22.8419 27.3812 23.4269 27.3669 23.8831 27.8375L33.9 37.8687C34.3425 38.3394 34.3562 38.8812 33.9144 39.3237L32.9725 40.3081C32.5162 40.7644 31.9456 40.7506 31.4887 40.28L27.8931 36.6987C27.3937 36.185 26.8231 36.3844 26.3094 37.055C25.2681 38.5387 23.5131 42.2775 22.4719 43.305C21.2444 44.5031 19.6175 44.5312 18.405 43.3187C17.1925 42.1062 17.2062 40.465 18.4194 39.2525C19.4462 38.225 23.1844 36.4556 24.6831 35.4144C25.3394 34.9006 25.5531 34.33 25.025 33.8306L21.4437 30.2631C20.9875 29.8212 20.9731 29.2219 21.4156 28.7794M19.3606 42.3769C19.8319 42.8331 20.5169 42.8331 20.9731 42.3769C21.4294 41.8919 21.4156 41.2212 20.9731 40.7644C20.5025 40.3081 19.8031 40.2937 19.3606 40.7644C18.9331 41.25 18.9044 41.9062 19.3606 42.3769Z" fill="#050811"/>
</svg>
