<svg width="162" height="47" viewBox="0 0 162 47" fill="none" xmlns="http://www.w3.org/2000/svg">
<rect y="0.00195312" width="162" height="47" rx="8" fill="white"/>
<path d="M38.1284 23.4935L26.9004 34.5149C26.3076 34.0568 25.9573 33.3472 25.9573 32.6017V14.4123C25.9573 13.6578 26.2986 12.9481 26.9004 12.499L38.1284 23.4935Z" fill="#2196F3"/>
<path d="M47.0389 23.4934C47.0389 24.3647 46.5718 25.1732 45.8083 25.6043L42.2782 27.5625L38.1194 23.5024L42.2782 19.4424L45.8083 21.4185C46.5718 21.8317 47.0389 22.6311 47.0389 23.4934Z" fill="#FFC107"/>
<path d="M42.2869 27.5622L29.487 34.7122C29.1366 34.9009 28.7414 34.9997 28.3372 34.9997C27.915 35.0087 27.5018 34.8919 27.1515 34.6763C27.0617 34.6314 26.9809 34.5775 26.9 34.5236L38.128 23.5022L42.2869 27.5622Z" fill="#F44336"/>
<path d="M42.2869 19.433L38.128 23.493L26.9 12.4896C26.9809 12.4357 27.0617 12.3818 27.1515 12.3369C27.8701 11.9057 28.7594 11.8878 29.487 12.3009L42.2869 19.433Z" fill="#4CAF50"/>
<path d="M60.384 17.362H61.648C61.7333 17.362 61.84 17.3566 61.968 17.346C62.096 17.33 62.232 17.298 62.376 17.25C62.52 17.1966 62.6613 17.122 62.8 17.026C62.944 16.93 63.072 16.7993 63.184 16.634C63.296 16.4686 63.3867 16.2633 63.456 16.018C63.5307 15.7673 63.568 15.466 63.568 15.114C63.568 14.7726 63.5333 14.4686 63.464 14.202C63.4 13.93 63.2907 13.7006 63.136 13.514C62.9867 13.322 62.792 13.178 62.552 13.082C62.312 12.9806 62.016 12.93 61.664 12.93H60.384V17.362ZM59.624 12.29H61.584C62.464 12.29 63.1413 12.514 63.616 12.962C64.0907 13.41 64.328 14.0926 64.328 15.01C64.328 15.49 64.2747 15.9166 64.168 16.29C64.0613 16.658 63.896 16.97 63.672 17.226C63.448 17.4766 63.1627 17.6686 62.816 17.802C62.4693 17.9353 62.0587 18.002 61.584 18.002H59.624V12.29ZM65.6408 15.938C65.6408 16.1886 65.6728 16.4126 65.7368 16.61C65.8061 16.802 65.8995 16.9646 66.0168 17.098C66.1341 17.226 66.2701 17.3246 66.4248 17.394C66.5848 17.4633 66.7528 17.498 66.9288 17.498C67.1048 17.498 67.2701 17.4633 67.4248 17.394C67.5848 17.3246 67.7235 17.226 67.8408 17.098C67.9581 16.9646 68.0488 16.802 68.1128 16.61C68.1821 16.4126 68.2168 16.1886 68.2168 15.938C68.2168 15.6873 68.1821 15.466 68.1128 15.274C68.0488 15.0766 67.9581 14.9113 67.8408 14.778C67.7235 14.6446 67.5848 14.5433 67.4248 14.474C67.2701 14.4046 67.1048 14.37 66.9288 14.37C66.7528 14.37 66.5848 14.4046 66.4248 14.474C66.2701 14.5433 66.1341 14.6446 66.0168 14.778C65.8995 14.9113 65.8061 15.0766 65.7368 15.274C65.6728 15.466 65.6408 15.6873 65.6408 15.938ZM64.9208 15.938C64.9208 15.634 64.9635 15.3513 65.0488 15.09C65.1341 14.8233 65.2621 14.594 65.4328 14.402C65.6035 14.2046 65.8141 14.05 66.0648 13.938C66.3155 13.826 66.6035 13.77 66.9288 13.77C67.2595 13.77 67.5475 13.826 67.7928 13.938C68.0435 14.05 68.2541 14.2046 68.4248 14.402C68.5955 14.594 68.7235 14.8233 68.8088 15.09C68.8941 15.3513 68.9368 15.634 68.9368 15.938C68.9368 16.242 68.8941 16.5246 68.8088 16.786C68.7235 17.0473 68.5955 17.2766 68.4248 17.474C68.2541 17.666 68.0435 17.818 67.7928 17.93C67.5475 18.0366 67.2595 18.09 66.9288 18.09C66.6035 18.09 66.3155 18.0366 66.0648 17.93C65.8141 17.818 65.6035 17.666 65.4328 17.474C65.2621 17.2766 65.1341 17.0473 65.0488 16.786C64.9635 16.5246 64.9208 16.242 64.9208 15.938ZM73.8346 18.002H73.1146L72.2746 14.714H72.2586L71.4266 18.002H70.6906L69.3626 13.866H70.1146L71.0506 17.25H71.0666L71.8986 13.866H72.6426L73.5066 17.25H73.5226L74.4506 13.866H75.1546L73.8346 18.002ZM75.8011 13.866H76.4411V14.522H76.4571C76.7397 14.0206 77.1877 13.77 77.8011 13.77C78.0731 13.77 78.2997 13.8073 78.4811 13.882C78.6624 13.9566 78.8091 14.0606 78.9211 14.194C79.0331 14.3273 79.1104 14.4873 79.1531 14.674C79.2011 14.8553 79.2251 15.058 79.2251 15.282V18.002H78.5451V15.202C78.5451 14.946 78.4704 14.7433 78.3211 14.594C78.1717 14.4446 77.9664 14.37 77.7051 14.37C77.4971 14.37 77.3157 14.402 77.1611 14.466C77.0117 14.53 76.8864 14.6206 76.7851 14.738C76.6837 14.8553 76.6064 14.994 76.5531 15.154C76.5051 15.3086 76.4811 15.4793 76.4811 15.666V18.002H75.8011V13.866ZM80.2864 12.29H80.9664V18.002H80.2864V12.29ZM82.5158 15.938C82.5158 16.1886 82.5478 16.4126 82.6118 16.61C82.6811 16.802 82.7745 16.9646 82.8918 17.098C83.0091 17.226 83.1451 17.3246 83.2998 17.394C83.4598 17.4633 83.6278 17.498 83.8038 17.498C83.9798 17.498 84.1451 17.4633 84.2998 17.394C84.4598 17.3246 84.5985 17.226 84.7158 17.098C84.8331 16.9646 84.9238 16.802 84.9878 16.61C85.0571 16.4126 85.0918 16.1886 85.0918 15.938C85.0918 15.6873 85.0571 15.466 84.9878 15.274C84.9238 15.0766 84.8331 14.9113 84.7158 14.778C84.5985 14.6446 84.4598 14.5433 84.2998 14.474C84.1451 14.4046 83.9798 14.37 83.8038 14.37C83.6278 14.37 83.4598 14.4046 83.2998 14.474C83.1451 14.5433 83.0091 14.6446 82.8918 14.778C82.7745 14.9113 82.6811 15.0766 82.6118 15.274C82.5478 15.466 82.5158 15.6873 82.5158 15.938ZM81.7958 15.938C81.7958 15.634 81.8385 15.3513 81.9238 15.09C82.0091 14.8233 82.1371 14.594 82.3078 14.402C82.4785 14.2046 82.6891 14.05 82.9398 13.938C83.1905 13.826 83.4785 13.77 83.8038 13.77C84.1345 13.77 84.4225 13.826 84.6678 13.938C84.9185 14.05 85.1291 14.2046 85.2998 14.402C85.4705 14.594 85.5985 14.8233 85.6838 15.09C85.7691 15.3513 85.8118 15.634 85.8118 15.938C85.8118 16.242 85.7691 16.5246 85.6838 16.786C85.5985 17.0473 85.4705 17.2766 85.2998 17.474C85.1291 17.666 84.9185 17.818 84.6678 17.93C84.4225 18.0366 84.1345 18.09 83.8038 18.09C83.4785 18.09 83.1905 18.0366 82.9398 17.93C82.6891 17.818 82.4785 17.666 82.3078 17.474C82.1371 17.2766 82.0091 17.0473 81.9238 16.786C81.8385 16.5246 81.7958 16.242 81.7958 15.938ZM90.2776 17.986C90.1602 18.0553 89.9976 18.09 89.7896 18.09C89.6136 18.09 89.4722 18.042 89.3656 17.946C89.2642 17.8446 89.2136 17.682 89.2136 17.458C89.0269 17.682 88.8082 17.8446 88.5576 17.946C88.3122 18.042 88.0456 18.09 87.7576 18.09C87.5709 18.09 87.3922 18.0686 87.2216 18.026C87.0562 17.9833 86.9122 17.9166 86.7896 17.826C86.6669 17.7353 86.5682 17.618 86.4936 17.474C86.4242 17.3246 86.3896 17.146 86.3896 16.938C86.3896 16.7033 86.4296 16.5113 86.5096 16.362C86.5896 16.2126 86.6936 16.0926 86.8216 16.002C86.9549 15.906 87.1042 15.834 87.2696 15.786C87.4402 15.738 87.6136 15.698 87.7896 15.666C87.9762 15.6286 88.1522 15.602 88.3176 15.586C88.4882 15.5646 88.6376 15.538 88.7656 15.506C88.8936 15.4686 88.9949 15.418 89.0696 15.354C89.1442 15.2846 89.1816 15.186 89.1816 15.058C89.1816 14.9086 89.1522 14.7886 89.0936 14.698C89.0402 14.6073 88.9682 14.538 88.8776 14.49C88.7922 14.442 88.6936 14.41 88.5816 14.394C88.4749 14.378 88.3682 14.37 88.2616 14.37C87.9736 14.37 87.7336 14.426 87.5416 14.538C87.3496 14.6446 87.2456 14.85 87.2296 15.154H86.5496C86.5602 14.898 86.6136 14.682 86.7096 14.506C86.8056 14.33 86.9336 14.1886 87.0936 14.082C87.2536 13.97 87.4349 13.89 87.6376 13.842C87.8456 13.794 88.0669 13.77 88.3016 13.77C88.4882 13.77 88.6722 13.7833 88.8536 13.81C89.0402 13.8366 89.2082 13.8926 89.3576 13.978C89.5069 14.058 89.6269 14.1726 89.7176 14.322C89.8082 14.4713 89.8536 14.666 89.8536 14.906V17.034C89.8536 17.194 89.8616 17.3113 89.8776 17.386C89.8989 17.4606 89.9629 17.498 90.0696 17.498C90.1282 17.498 90.1976 17.4846 90.2776 17.458V17.986ZM89.1736 15.866C89.0882 15.93 88.9762 15.978 88.8376 16.01C88.6989 16.0366 88.5522 16.0606 88.3976 16.082C88.2482 16.098 88.0962 16.1193 87.9416 16.146C87.7869 16.1673 87.6482 16.2046 87.5256 16.258C87.4029 16.3113 87.3016 16.3886 87.2216 16.49C87.1469 16.586 87.1096 16.7193 87.1096 16.89C87.1096 17.002 87.1309 17.098 87.1736 17.178C87.2216 17.2526 87.2802 17.314 87.3496 17.362C87.4242 17.41 87.5096 17.4446 87.6056 17.466C87.7016 17.4873 87.8029 17.498 87.9096 17.498C88.1336 17.498 88.3256 17.4686 88.4856 17.41C88.6456 17.346 88.7762 17.2686 88.8776 17.178C88.9789 17.082 89.0536 16.9806 89.1016 16.874C89.1496 16.762 89.1736 16.658 89.1736 16.562V15.866ZM91.4064 15.97C91.4064 16.162 91.4304 16.3513 91.4784 16.538C91.5318 16.7193 91.6091 16.882 91.7104 17.026C91.8171 17.17 91.9504 17.2846 92.1104 17.37C92.2758 17.4553 92.4678 17.498 92.6864 17.498C92.9158 17.498 93.1104 17.4526 93.2704 17.362C93.4304 17.2713 93.5611 17.154 93.6624 17.01C93.7638 16.8606 93.8358 16.6926 93.8784 16.506C93.9264 16.3193 93.9504 16.13 93.9504 15.938C93.9504 15.7353 93.9264 15.5406 93.8784 15.354C93.8304 15.162 93.7531 14.994 93.6464 14.85C93.5451 14.706 93.4118 14.5913 93.2464 14.506C93.0811 14.4153 92.8811 14.37 92.6464 14.37C92.4171 14.37 92.2224 14.4153 92.0624 14.506C91.9024 14.5966 91.7744 14.7166 91.6784 14.866C91.5824 15.0153 91.5131 15.186 91.4704 15.378C91.4278 15.57 91.4064 15.7673 91.4064 15.97ZM94.6064 18.002H93.9264V17.442H93.9104C93.7984 17.6713 93.6224 17.8366 93.3824 17.938C93.1424 18.0393 92.8784 18.09 92.5904 18.09C92.2704 18.09 91.9904 18.0313 91.7504 17.914C91.5158 17.7966 91.3184 17.6393 91.1584 17.442C91.0038 17.2446 90.8864 17.0153 90.8064 16.754C90.7264 16.4926 90.6864 16.2153 90.6864 15.922C90.6864 15.6286 90.7238 15.3513 90.7984 15.09C90.8784 14.8286 90.9958 14.602 91.1504 14.41C91.3104 14.2126 91.5078 14.058 91.7424 13.946C91.9824 13.8286 92.2598 13.77 92.5744 13.77C92.6811 13.77 92.7958 13.7806 92.9184 13.802C93.0411 13.8233 93.1638 13.8606 93.2864 13.914C93.4091 13.962 93.5238 14.0286 93.6304 14.114C93.7424 14.194 93.8358 14.2953 93.9104 14.418H93.9264V12.29H94.6064V18.002ZM98.3752 15.938C98.3752 16.1886 98.4072 16.4126 98.4712 16.61C98.5405 16.802 98.6339 16.9646 98.7512 17.098C98.8685 17.226 99.0045 17.3246 99.1592 17.394C99.3192 17.4633 99.4872 17.498 99.6632 17.498C99.8392 17.498 100.005 17.4633 100.159 17.394C100.319 17.3246 100.458 17.226 100.575 17.098C100.693 16.9646 100.783 16.802 100.847 16.61C100.917 16.4126 100.951 16.1886 100.951 15.938C100.951 15.6873 100.917 15.466 100.847 15.274C100.783 15.0766 100.693 14.9113 100.575 14.778C100.458 14.6446 100.319 14.5433 100.159 14.474C100.005 14.4046 99.8392 14.37 99.6632 14.37C99.4872 14.37 99.3192 14.4046 99.1592 14.474C99.0045 14.5433 98.8685 14.6446 98.7512 14.778C98.6339 14.9113 98.5405 15.0766 98.4712 15.274C98.4072 15.466 98.3752 15.6873 98.3752 15.938ZM97.6552 15.938C97.6552 15.634 97.6979 15.3513 97.7832 15.09C97.8685 14.8233 97.9965 14.594 98.1672 14.402C98.3379 14.2046 98.5485 14.05 98.7992 13.938C99.0499 13.826 99.3379 13.77 99.6632 13.77C99.9939 13.77 100.282 13.826 100.527 13.938C100.778 14.05 100.989 14.2046 101.159 14.402C101.33 14.594 101.458 14.8233 101.543 15.09C101.629 15.3513 101.671 15.634 101.671 15.938C101.671 16.242 101.629 16.5246 101.543 16.786C101.458 17.0473 101.33 17.2766 101.159 17.474C100.989 17.666 100.778 17.818 100.527 17.93C100.282 18.0366 99.9939 18.09 99.6632 18.09C99.3379 18.09 99.0499 18.0366 98.7992 17.93C98.5485 17.818 98.3379 17.666 98.1672 17.474C97.9965 17.2766 97.8685 17.0473 97.7832 16.786C97.6979 16.5246 97.6552 16.242 97.6552 15.938ZM102.473 13.866H103.113V14.522H103.129C103.412 14.0206 103.86 13.77 104.473 13.77C104.745 13.77 104.972 13.8073 105.153 13.882C105.334 13.9566 105.481 14.0606 105.593 14.194C105.705 14.3273 105.782 14.4873 105.825 14.674C105.873 14.8553 105.897 15.058 105.897 15.282V18.002H105.217V15.202C105.217 14.946 105.142 14.7433 104.993 14.594C104.844 14.4446 104.638 14.37 104.377 14.37C104.169 14.37 103.988 14.402 103.833 14.466C103.684 14.53 103.558 14.6206 103.457 14.738C103.356 14.8553 103.278 14.994 103.225 15.154C103.177 15.3086 103.153 15.4793 103.153 15.666V18.002H102.473V13.866ZM110.089 13.866H110.913V14.466H110.089V17.034C110.089 17.114 110.094 17.178 110.105 17.226C110.121 17.274 110.147 17.3113 110.185 17.338C110.222 17.3646 110.273 17.3833 110.337 17.394C110.406 17.3993 110.494 17.402 110.601 17.402H110.913V18.002H110.393C110.217 18.002 110.065 17.9913 109.937 17.97C109.814 17.9433 109.713 17.898 109.633 17.834C109.558 17.77 109.502 17.6793 109.465 17.562C109.427 17.4446 109.409 17.29 109.409 17.098V14.466H108.705V13.866H109.409V12.626H110.089V13.866ZM111.668 12.29H112.348V14.474H112.364C112.418 14.346 112.492 14.2393 112.588 14.154C112.684 14.0633 112.791 13.9913 112.908 13.938C113.031 13.8793 113.156 13.8366 113.284 13.81C113.418 13.7833 113.546 13.77 113.668 13.77C113.94 13.77 114.167 13.8073 114.348 13.882C114.53 13.9566 114.676 14.0606 114.788 14.194C114.9 14.3273 114.978 14.4873 115.02 14.674C115.068 14.8553 115.092 15.058 115.092 15.282V18.002H114.412V15.202C114.412 14.946 114.338 14.7433 114.188 14.594C114.039 14.4446 113.834 14.37 113.572 14.37C113.364 14.37 113.183 14.402 113.028 14.466C112.879 14.53 112.754 14.6206 112.652 14.738C112.551 14.8553 112.474 14.994 112.42 15.154C112.372 15.3086 112.348 15.4793 112.348 15.666V18.002H111.668V12.29ZM118.986 15.538C118.975 15.378 118.938 15.226 118.874 15.082C118.815 14.938 118.732 14.8153 118.626 14.714C118.524 14.6073 118.402 14.5246 118.258 14.466C118.119 14.402 117.964 14.37 117.794 14.37C117.618 14.37 117.458 14.402 117.314 14.466C117.175 14.5246 117.055 14.6073 116.954 14.714C116.852 14.8206 116.772 14.946 116.714 15.09C116.655 15.2286 116.62 15.378 116.61 15.538H118.986ZM119.642 16.69C119.551 17.154 119.351 17.5033 119.042 17.738C118.732 17.9726 118.343 18.09 117.874 18.09C117.543 18.09 117.255 18.0366 117.01 17.93C116.77 17.8233 116.567 17.674 116.402 17.482C116.236 17.29 116.111 17.0606 116.026 16.794C115.946 16.5273 115.9 16.2366 115.89 15.922C115.89 15.6073 115.938 15.3193 116.034 15.058C116.13 14.7966 116.263 14.57 116.434 14.378C116.61 14.186 116.815 14.0366 117.05 13.93C117.29 13.8233 117.551 13.77 117.834 13.77C118.202 13.77 118.506 13.8473 118.746 14.002C118.991 14.1513 119.186 14.3433 119.33 14.578C119.479 14.8126 119.58 15.0686 119.634 15.346C119.692 15.6233 119.716 15.8873 119.706 16.138H116.61C116.604 16.3193 116.626 16.4926 116.674 16.658C116.722 16.818 116.799 16.962 116.906 17.09C117.012 17.2126 117.148 17.3113 117.314 17.386C117.479 17.4606 117.674 17.498 117.898 17.498C118.186 17.498 118.42 17.4313 118.602 17.298C118.788 17.1646 118.911 16.962 118.97 16.69H119.642Z" fill="#050810"/>
<path d="M68.786 34.002H67.666L67.4 32.826C66.9333 33.358 66.4667 33.7266 66 33.932C65.5333 34.1373 64.9967 34.24 64.39 34.24C63.6433 34.24 62.9713 34.1046 62.374 33.834C61.786 33.554 61.2867 33.176 60.876 32.7C60.4653 32.224 60.148 31.6686 59.924 31.034C59.7093 30.3993 59.602 29.7226 59.602 29.004C59.602 28.2946 59.7093 27.6226 59.924 26.988C60.148 26.3533 60.4653 25.798 60.876 25.322C61.2867 24.846 61.786 24.468 62.374 24.188C62.9713 23.908 63.6433 23.768 64.39 23.768C64.9313 23.768 65.4447 23.8426 65.93 23.992C66.4247 24.132 66.8633 24.3466 67.246 24.636C67.6287 24.916 67.946 25.2706 68.198 25.7C68.45 26.1293 68.6087 26.624 68.674 27.184H66.966C66.9193 26.8573 66.8167 26.5726 66.658 26.33C66.5087 26.078 66.3173 25.868 66.084 25.7C65.8507 25.532 65.5893 25.406 65.3 25.322C65.0107 25.238 64.7073 25.196 64.39 25.196C63.858 25.196 63.396 25.3033 63.004 25.518C62.6213 25.7326 62.3087 26.022 62.066 26.386C61.8233 26.7406 61.6413 27.1466 61.52 27.604C61.408 28.0613 61.352 28.528 61.352 29.004C61.352 29.48 61.408 29.9466 61.52 30.404C61.6413 30.8613 61.8233 31.272 62.066 31.636C62.3087 31.9906 62.6213 32.2753 63.004 32.49C63.396 32.7046 63.858 32.812 64.39 32.812C64.838 32.8213 65.2347 32.7653 65.58 32.644C65.9253 32.5133 66.2147 32.3313 66.448 32.098C66.6907 31.8553 66.8727 31.5613 66.994 31.216C67.1153 30.8706 67.1807 30.488 67.19 30.068H64.53V28.738H68.786V34.002ZM73.781 34.198C73.2024 34.198 72.6844 34.1046 72.227 33.918C71.779 33.722 71.3964 33.456 71.079 33.12C70.771 32.784 70.533 32.3826 70.365 31.916C70.2064 31.4493 70.127 30.936 70.127 30.376C70.127 29.8253 70.2064 29.3166 70.365 28.85C70.533 28.3833 70.771 27.982 71.079 27.646C71.3964 27.31 71.779 27.0486 72.227 26.862C72.6844 26.666 73.2024 26.568 73.781 26.568C74.3597 26.568 74.873 26.666 75.321 26.862C75.7784 27.0486 76.161 27.31 76.469 27.646C76.7864 27.982 77.0244 28.3833 77.183 28.85C77.351 29.3166 77.435 29.8253 77.435 30.376C77.435 30.936 77.351 31.4493 77.183 31.916C77.0244 32.3826 76.7864 32.784 76.469 33.12C76.161 33.456 75.7784 33.722 75.321 33.918C74.873 34.1046 74.3597 34.198 73.781 34.198ZM73.781 32.938C74.1357 32.938 74.4437 32.8633 74.705 32.714C74.9664 32.5646 75.181 32.3686 75.349 32.126C75.517 31.8833 75.6384 31.6126 75.713 31.314C75.797 31.006 75.839 30.6933 75.839 30.376C75.839 30.068 75.797 29.76 75.713 29.452C75.6384 29.144 75.517 28.8733 75.349 28.64C75.181 28.3973 74.9664 28.2013 74.705 28.052C74.4437 27.9026 74.1357 27.828 73.781 27.828C73.4264 27.828 73.1184 27.9026 72.857 28.052C72.5957 28.2013 72.381 28.3973 72.213 28.64C72.045 28.8733 71.919 29.144 71.835 29.452C71.7604 29.76 71.723 30.068 71.723 30.376C71.723 30.6933 71.7604 31.006 71.835 31.314C71.919 31.6126 72.045 31.8833 72.213 32.126C72.381 32.3686 72.5957 32.5646 72.857 32.714C73.1184 32.8633 73.4264 32.938 73.781 32.938ZM82.0799 34.198C81.5012 34.198 80.9832 34.1046 80.5259 33.918C80.0779 33.722 79.6952 33.456 79.3779 33.12C79.0699 32.784 78.8319 32.3826 78.6639 31.916C78.5052 31.4493 78.4259 30.936 78.4259 30.376C78.4259 29.8253 78.5052 29.3166 78.6639 28.85C78.8319 28.3833 79.0699 27.982 79.3779 27.646C79.6952 27.31 80.0779 27.0486 80.5259 26.862C80.9832 26.666 81.5012 26.568 82.0799 26.568C82.6585 26.568 83.1719 26.666 83.6199 26.862C84.0772 27.0486 84.4599 27.31 84.7679 27.646C85.0852 27.982 85.3232 28.3833 85.4819 28.85C85.6499 29.3166 85.7339 29.8253 85.7339 30.376C85.7339 30.936 85.6499 31.4493 85.4819 31.916C85.3232 32.3826 85.0852 32.784 84.7679 33.12C84.4599 33.456 84.0772 33.722 83.6199 33.918C83.1719 34.1046 82.6585 34.198 82.0799 34.198ZM82.0799 32.938C82.4345 32.938 82.7425 32.8633 83.0039 32.714C83.2652 32.5646 83.4799 32.3686 83.6479 32.126C83.8159 31.8833 83.9372 31.6126 84.0119 31.314C84.0959 31.006 84.1379 30.6933 84.1379 30.376C84.1379 30.068 84.0959 29.76 84.0119 29.452C83.9372 29.144 83.8159 28.8733 83.6479 28.64C83.4799 28.3973 83.2652 28.2013 83.0039 28.052C82.7425 27.9026 82.4345 27.828 82.0799 27.828C81.7252 27.828 81.4172 27.9026 81.1559 28.052C80.8945 28.2013 80.6799 28.3973 80.5119 28.64C80.3439 28.8733 80.2179 29.144 80.1339 29.452C80.0592 29.76 80.0219 30.068 80.0219 30.376C80.0219 30.6933 80.0592 31.006 80.1339 31.314C80.2179 31.6126 80.3439 31.8833 80.5119 32.126C80.6799 32.3686 80.8945 32.5646 81.1559 32.714C81.4172 32.8633 81.7252 32.938 82.0799 32.938ZM93.7527 33.624C93.7527 34.716 93.4447 35.528 92.8287 36.06C92.222 36.6013 91.3447 36.872 90.1967 36.872C89.8327 36.872 89.464 36.8346 89.0907 36.76C88.7267 36.6853 88.3907 36.5593 88.0827 36.382C87.784 36.2046 87.532 35.9713 87.3267 35.682C87.1214 35.3926 87 35.038 86.9627 34.618H88.5587C88.6054 34.842 88.6847 35.024 88.7967 35.164C88.9087 35.304 89.0394 35.4113 89.1887 35.486C89.3474 35.57 89.52 35.6213 89.7067 35.64C89.8934 35.668 90.0894 35.682 90.2947 35.682C90.9387 35.682 91.41 35.5233 91.7087 35.206C92.0074 34.8886 92.1567 34.4313 92.1567 33.834V32.728H92.1287C91.9047 33.1293 91.5967 33.442 91.2047 33.666C90.822 33.89 90.4067 34.002 89.9587 34.002C89.38 34.002 88.8854 33.904 88.4747 33.708C88.0734 33.5026 87.7374 33.2273 87.4667 32.882C87.2054 32.5273 87.014 32.1213 86.8927 31.664C86.7714 31.2066 86.7107 30.7166 86.7107 30.194C86.7107 29.7086 86.7854 29.2466 86.9347 28.808C87.084 28.3693 87.2987 27.9866 87.5787 27.66C87.8587 27.324 88.1994 27.058 88.6007 26.862C89.0114 26.666 89.4734 26.568 89.9867 26.568C90.444 26.568 90.864 26.666 91.2467 26.862C91.6294 27.0486 91.9234 27.3473 92.1287 27.758H92.1567V26.764H93.7527V33.624ZM90.2107 32.742C90.5654 32.742 90.864 32.672 91.1067 32.532C91.3587 32.3826 91.5594 32.1913 91.7087 31.958C91.8674 31.7153 91.9794 31.4446 92.0447 31.146C92.1194 30.838 92.1567 30.53 92.1567 30.222C92.1567 29.914 92.1194 29.6153 92.0447 29.326C91.97 29.0366 91.8534 28.78 91.6947 28.556C91.5454 28.332 91.3447 28.1546 91.0927 28.024C90.85 27.8933 90.556 27.828 90.2107 27.828C89.856 27.828 89.5574 27.9026 89.3147 28.052C89.072 28.2013 88.876 28.3973 88.7267 28.64C88.5774 28.8733 88.47 29.144 88.4047 29.452C88.3394 29.7506 88.3067 30.0493 88.3067 30.348C88.3067 30.6466 88.344 30.9406 88.4187 31.23C88.4934 31.51 88.6054 31.762 88.7547 31.986C88.9134 32.21 89.1094 32.392 89.3427 32.532C89.5854 32.672 89.8747 32.742 90.2107 32.742ZM95.4015 24.006H96.9975V34.002H95.4015V24.006ZM103.706 29.746C103.688 29.494 103.632 29.2513 103.538 29.018C103.454 28.7846 103.333 28.584 103.174 28.416C103.025 28.2386 102.838 28.0986 102.614 27.996C102.4 27.884 102.157 27.828 101.886 27.828C101.606 27.828 101.35 27.8793 101.116 27.982C100.892 28.0753 100.696 28.2106 100.528 28.388C100.37 28.556 100.239 28.7566 100.136 28.99C100.043 29.2233 99.9918 29.4753 99.9825 29.746H103.706ZM99.9825 30.796C99.9825 31.076 100.02 31.3466 100.094 31.608C100.178 31.8693 100.3 32.098 100.458 32.294C100.617 32.49 100.818 32.6486 101.06 32.77C101.303 32.882 101.592 32.938 101.928 32.938C102.395 32.938 102.768 32.84 103.048 32.644C103.338 32.4386 103.552 32.1353 103.692 31.734H105.204C105.12 32.126 104.976 32.476 104.77 32.784C104.565 33.092 104.318 33.3533 104.028 33.568C103.739 33.7733 103.412 33.9273 103.048 34.03C102.694 34.142 102.32 34.198 101.928 34.198C101.359 34.198 100.855 34.1046 100.416 33.918C99.9778 33.7313 99.6045 33.47 99.2965 33.134C98.9978 32.798 98.7692 32.3966 98.6105 31.93C98.4612 31.4633 98.3865 30.95 98.3865 30.39C98.3865 29.8766 98.4658 29.3913 98.6245 28.934C98.7925 28.4673 99.0258 28.0613 99.3245 27.716C99.6325 27.3613 100.001 27.0813 100.43 26.876C100.86 26.6706 101.345 26.568 101.886 26.568C102.456 26.568 102.964 26.6893 103.412 26.932C103.87 27.1653 104.248 27.478 104.546 27.87C104.845 28.262 105.06 28.7146 105.19 29.228C105.33 29.732 105.368 30.2546 105.302 30.796H99.9825ZM110.636 24.006H115.046C115.756 24.006 116.334 24.1086 116.782 24.314C117.23 24.5193 117.576 24.776 117.818 25.084C118.061 25.392 118.224 25.728 118.308 26.092C118.402 26.456 118.448 26.792 118.448 27.1C118.448 27.408 118.402 27.744 118.308 28.108C118.224 28.4626 118.061 28.794 117.818 29.102C117.576 29.41 117.23 29.6666 116.782 29.872C116.334 30.068 115.756 30.166 115.046 30.166H112.386V34.002H110.636V24.006ZM112.386 28.738H114.948C115.144 28.738 115.345 28.71 115.55 28.654C115.756 28.598 115.942 28.5093 116.11 28.388C116.288 28.2573 116.428 28.0893 116.53 27.884C116.642 27.6693 116.698 27.4033 116.698 27.086C116.698 26.7593 116.652 26.4886 116.558 26.274C116.465 26.0593 116.339 25.8913 116.18 25.77C116.022 25.6393 115.84 25.5506 115.634 25.504C115.429 25.4573 115.21 25.434 114.976 25.434H112.386V28.738ZM119.792 24.006H121.388V34.002H119.792V24.006ZM129.189 32.392C129.189 32.588 129.212 32.728 129.259 32.812C129.315 32.896 129.418 32.938 129.567 32.938C129.614 32.938 129.67 32.938 129.735 32.938C129.8 32.938 129.875 32.9286 129.959 32.91V34.016C129.903 34.0346 129.828 34.0533 129.735 34.072C129.651 34.1 129.562 34.1233 129.469 34.142C129.376 34.1606 129.282 34.1746 129.189 34.184C129.096 34.1933 129.016 34.198 128.951 34.198C128.624 34.198 128.354 34.1326 128.139 34.002C127.924 33.8713 127.784 33.6426 127.719 33.316C127.402 33.624 127.01 33.848 126.543 33.988C126.086 34.128 125.642 34.198 125.213 34.198C124.886 34.198 124.574 34.1513 124.275 34.058C123.976 33.974 123.71 33.848 123.477 33.68C123.253 33.5026 123.071 33.2833 122.931 33.022C122.8 32.7513 122.735 32.4386 122.735 32.084C122.735 31.636 122.814 31.272 122.973 30.992C123.141 30.712 123.356 30.4926 123.617 30.334C123.888 30.1753 124.186 30.0633 124.513 29.998C124.849 29.9233 125.185 29.8673 125.521 29.83C125.81 29.774 126.086 29.7366 126.347 29.718C126.608 29.69 126.837 29.648 127.033 29.592C127.238 29.536 127.397 29.452 127.509 29.34C127.63 29.2186 127.691 29.0413 127.691 28.808C127.691 28.6026 127.64 28.4346 127.537 28.304C127.444 28.1733 127.322 28.0753 127.173 28.01C127.033 27.9353 126.874 27.8886 126.697 27.87C126.52 27.842 126.352 27.828 126.193 27.828C125.745 27.828 125.376 27.9213 125.087 28.108C124.798 28.2946 124.634 28.584 124.597 28.976H123.001C123.029 28.5093 123.141 28.122 123.337 27.814C123.533 27.506 123.78 27.2586 124.079 27.072C124.387 26.8853 124.732 26.7546 125.115 26.68C125.498 26.6053 125.89 26.568 126.291 26.568C126.646 26.568 126.996 26.6053 127.341 26.68C127.686 26.7546 127.994 26.876 128.265 27.044C128.545 27.212 128.769 27.4313 128.937 27.702C129.105 27.9633 129.189 28.2853 129.189 28.668V32.392ZM127.593 30.376C127.35 30.5346 127.052 30.6326 126.697 30.67C126.342 30.698 125.988 30.7446 125.633 30.81C125.465 30.838 125.302 30.88 125.143 30.936C124.984 30.9826 124.844 31.0526 124.723 31.146C124.602 31.23 124.504 31.3466 124.429 31.496C124.364 31.636 124.331 31.8086 124.331 32.014C124.331 32.1913 124.382 32.3406 124.485 32.462C124.588 32.5833 124.709 32.6813 124.849 32.756C124.998 32.8213 125.157 32.868 125.325 32.896C125.502 32.924 125.661 32.938 125.801 32.938C125.978 32.938 126.17 32.9146 126.375 32.868C126.58 32.8213 126.772 32.742 126.949 32.63C127.136 32.518 127.29 32.378 127.411 32.21C127.532 32.0326 127.593 31.818 127.593 31.566V30.376ZM130.108 26.764H131.858L133.748 32.168H133.776L135.61 26.764H137.276L134.462 34.394C134.332 34.7206 134.201 35.0333 134.07 35.332C133.949 35.6306 133.795 35.892 133.608 36.116C133.431 36.3493 133.207 36.5313 132.936 36.662C132.666 36.802 132.32 36.872 131.9 36.872C131.527 36.872 131.158 36.844 130.794 36.788V35.444C130.925 35.4626 131.051 35.4813 131.172 35.5C131.294 35.528 131.42 35.542 131.55 35.542C131.737 35.542 131.891 35.5186 132.012 35.472C132.134 35.4253 132.232 35.3553 132.306 35.262C132.39 35.178 132.46 35.0753 132.516 34.954C132.572 34.8326 132.624 34.6926 132.67 34.534L132.852 33.974L130.108 26.764Z" fill="#050810"/>
</svg>
