<svg width="162" height="47" viewBox="0 0 162 47" fill="none" xmlns="http://www.w3.org/2000/svg">
<rect y="0.00195312" width="162" height="47" rx="8" fill="white"/>
<g clip-path="url(#clip0_2003_7911)">
<path d="M51.8792 24.4399C51.9224 29.1223 55.9553 30.6804 56 30.7003C55.9659 30.8102 55.3556 32.9209 53.8753 35.101C52.5956 36.9859 51.2674 38.8638 49.1752 38.9027C47.1193 38.9409 46.4583 37.6742 44.1079 37.6742C41.7582 37.6742 41.0237 38.8638 39.0776 38.9409C37.0581 39.0179 35.5203 36.9027 34.2299 35.0247C31.5933 31.1833 29.5784 24.1698 32.2839 19.4356C33.628 17.0846 36.0299 15.5958 38.637 15.5576C40.6201 15.5195 42.492 16.9021 43.7043 16.9021C44.9158 16.9021 47.1905 15.2394 49.5818 15.4836C50.5829 15.5256 53.3929 15.8911 55.1973 18.5527C55.0519 18.6435 51.8444 20.5253 51.8792 24.4399ZM48.0155 12.9421C49.0877 11.6343 49.8094 9.81354 49.6125 8.00195C48.067 8.06455 46.1982 9.03979 45.0897 10.347C44.0962 11.5045 43.2261 13.3573 43.4609 15.133C45.1835 15.2673 46.9433 14.2509 48.0155 12.9421Z" fill="#050810"/>
</g>
<path d="M67.384 17.362H68.648C68.7333 17.362 68.84 17.3566 68.968 17.346C69.096 17.33 69.232 17.298 69.376 17.25C69.52 17.1966 69.6613 17.122 69.8 17.026C69.944 16.93 70.072 16.7993 70.184 16.634C70.296 16.4686 70.3867 16.2633 70.456 16.018C70.5307 15.7673 70.568 15.466 70.568 15.114C70.568 14.7726 70.5333 14.4686 70.464 14.202C70.4 13.93 70.2907 13.7006 70.136 13.514C69.9867 13.322 69.792 13.178 69.552 13.082C69.312 12.9806 69.016 12.93 68.664 12.93H67.384V17.362ZM66.624 12.29H68.584C69.464 12.29 70.1413 12.514 70.616 12.962C71.0907 13.41 71.328 14.0926 71.328 15.01C71.328 15.49 71.2747 15.9166 71.168 16.29C71.0613 16.658 70.896 16.97 70.672 17.226C70.448 17.4766 70.1627 17.6686 69.816 17.802C69.4693 17.9353 69.0587 18.002 68.584 18.002H66.624V12.29ZM72.6408 15.938C72.6408 16.1886 72.6728 16.4126 72.7368 16.61C72.8061 16.802 72.8995 16.9646 73.0168 17.098C73.1341 17.226 73.2701 17.3246 73.4248 17.394C73.5848 17.4633 73.7528 17.498 73.9288 17.498C74.1048 17.498 74.2701 17.4633 74.4248 17.394C74.5848 17.3246 74.7235 17.226 74.8408 17.098C74.9581 16.9646 75.0488 16.802 75.1128 16.61C75.1821 16.4126 75.2168 16.1886 75.2168 15.938C75.2168 15.6873 75.1821 15.466 75.1128 15.274C75.0488 15.0766 74.9581 14.9113 74.8408 14.778C74.7235 14.6446 74.5848 14.5433 74.4248 14.474C74.2701 14.4046 74.1048 14.37 73.9288 14.37C73.7528 14.37 73.5848 14.4046 73.4248 14.474C73.2701 14.5433 73.1341 14.6446 73.0168 14.778C72.8995 14.9113 72.8061 15.0766 72.7368 15.274C72.6728 15.466 72.6408 15.6873 72.6408 15.938ZM71.9208 15.938C71.9208 15.634 71.9635 15.3513 72.0488 15.09C72.1341 14.8233 72.2621 14.594 72.4328 14.402C72.6035 14.2046 72.8141 14.05 73.0648 13.938C73.3155 13.826 73.6035 13.77 73.9288 13.77C74.2595 13.77 74.5475 13.826 74.7928 13.938C75.0435 14.05 75.2541 14.2046 75.4248 14.402C75.5955 14.594 75.7235 14.8233 75.8088 15.09C75.8941 15.3513 75.9368 15.634 75.9368 15.938C75.9368 16.242 75.8941 16.5246 75.8088 16.786C75.7235 17.0473 75.5955 17.2766 75.4248 17.474C75.2541 17.666 75.0435 17.818 74.7928 17.93C74.5475 18.0366 74.2595 18.09 73.9288 18.09C73.6035 18.09 73.3155 18.0366 73.0648 17.93C72.8141 17.818 72.6035 17.666 72.4328 17.474C72.2621 17.2766 72.1341 17.0473 72.0488 16.786C71.9635 16.5246 71.9208 16.242 71.9208 15.938ZM80.8346 18.002H80.1146L79.2746 14.714H79.2586L78.4266 18.002H77.6906L76.3626 13.866H77.1146L78.0506 17.25H78.0666L78.8986 13.866H79.6426L80.5066 17.25H80.5226L81.4506 13.866H82.1546L80.8346 18.002ZM82.8011 13.866H83.4411V14.522H83.4571C83.7397 14.0206 84.1877 13.77 84.8011 13.77C85.0731 13.77 85.2997 13.8073 85.4811 13.882C85.6624 13.9566 85.8091 14.0606 85.9211 14.194C86.0331 14.3273 86.1104 14.4873 86.1531 14.674C86.2011 14.8553 86.2251 15.058 86.2251 15.282V18.002H85.5451V15.202C85.5451 14.946 85.4704 14.7433 85.3211 14.594C85.1717 14.4446 84.9664 14.37 84.7051 14.37C84.4971 14.37 84.3157 14.402 84.1611 14.466C84.0117 14.53 83.8864 14.6206 83.7851 14.738C83.6837 14.8553 83.6064 14.994 83.5531 15.154C83.5051 15.3086 83.4811 15.4793 83.4811 15.666V18.002H82.8011V13.866ZM87.2864 12.29H87.9664V18.002H87.2864V12.29ZM89.5158 15.938C89.5158 16.1886 89.5478 16.4126 89.6118 16.61C89.6811 16.802 89.7745 16.9646 89.8918 17.098C90.0091 17.226 90.1451 17.3246 90.2998 17.394C90.4598 17.4633 90.6278 17.498 90.8038 17.498C90.9798 17.498 91.1451 17.4633 91.2998 17.394C91.4598 17.3246 91.5985 17.226 91.7158 17.098C91.8331 16.9646 91.9238 16.802 91.9878 16.61C92.0571 16.4126 92.0918 16.1886 92.0918 15.938C92.0918 15.6873 92.0571 15.466 91.9878 15.274C91.9238 15.0766 91.8331 14.9113 91.7158 14.778C91.5985 14.6446 91.4598 14.5433 91.2998 14.474C91.1451 14.4046 90.9798 14.37 90.8038 14.37C90.6278 14.37 90.4598 14.4046 90.2998 14.474C90.1451 14.5433 90.0091 14.6446 89.8918 14.778C89.7745 14.9113 89.6811 15.0766 89.6118 15.274C89.5478 15.466 89.5158 15.6873 89.5158 15.938ZM88.7958 15.938C88.7958 15.634 88.8385 15.3513 88.9238 15.09C89.0091 14.8233 89.1371 14.594 89.3078 14.402C89.4785 14.2046 89.6891 14.05 89.9398 13.938C90.1905 13.826 90.4785 13.77 90.8038 13.77C91.1345 13.77 91.4225 13.826 91.6678 13.938C91.9185 14.05 92.1291 14.2046 92.2998 14.402C92.4705 14.594 92.5985 14.8233 92.6838 15.09C92.7691 15.3513 92.8118 15.634 92.8118 15.938C92.8118 16.242 92.7691 16.5246 92.6838 16.786C92.5985 17.0473 92.4705 17.2766 92.2998 17.474C92.1291 17.666 91.9185 17.818 91.6678 17.93C91.4225 18.0366 91.1345 18.09 90.8038 18.09C90.4785 18.09 90.1905 18.0366 89.9398 17.93C89.6891 17.818 89.4785 17.666 89.3078 17.474C89.1371 17.2766 89.0091 17.0473 88.9238 16.786C88.8385 16.5246 88.7958 16.242 88.7958 15.938ZM97.2776 17.986C97.1602 18.0553 96.9976 18.09 96.7896 18.09C96.6136 18.09 96.4722 18.042 96.3656 17.946C96.2642 17.8446 96.2136 17.682 96.2136 17.458C96.0269 17.682 95.8082 17.8446 95.5576 17.946C95.3122 18.042 95.0456 18.09 94.7576 18.09C94.5709 18.09 94.3922 18.0686 94.2216 18.026C94.0562 17.9833 93.9122 17.9166 93.7896 17.826C93.6669 17.7353 93.5682 17.618 93.4936 17.474C93.4242 17.3246 93.3896 17.146 93.3896 16.938C93.3896 16.7033 93.4296 16.5113 93.5096 16.362C93.5896 16.2126 93.6936 16.0926 93.8216 16.002C93.9549 15.906 94.1042 15.834 94.2696 15.786C94.4402 15.738 94.6136 15.698 94.7896 15.666C94.9762 15.6286 95.1522 15.602 95.3176 15.586C95.4882 15.5646 95.6376 15.538 95.7656 15.506C95.8936 15.4686 95.9949 15.418 96.0696 15.354C96.1442 15.2846 96.1816 15.186 96.1816 15.058C96.1816 14.9086 96.1522 14.7886 96.0936 14.698C96.0402 14.6073 95.9682 14.538 95.8776 14.49C95.7922 14.442 95.6936 14.41 95.5816 14.394C95.4749 14.378 95.3682 14.37 95.2616 14.37C94.9736 14.37 94.7336 14.426 94.5416 14.538C94.3496 14.6446 94.2456 14.85 94.2296 15.154H93.5496C93.5602 14.898 93.6136 14.682 93.7096 14.506C93.8056 14.33 93.9336 14.1886 94.0936 14.082C94.2536 13.97 94.4349 13.89 94.6376 13.842C94.8456 13.794 95.0669 13.77 95.3016 13.77C95.4882 13.77 95.6722 13.7833 95.8536 13.81C96.0402 13.8366 96.2082 13.8926 96.3576 13.978C96.5069 14.058 96.6269 14.1726 96.7176 14.322C96.8082 14.4713 96.8536 14.666 96.8536 14.906V17.034C96.8536 17.194 96.8616 17.3113 96.8776 17.386C96.8989 17.4606 96.9629 17.498 97.0696 17.498C97.1282 17.498 97.1976 17.4846 97.2776 17.458V17.986ZM96.1736 15.866C96.0882 15.93 95.9762 15.978 95.8376 16.01C95.6989 16.0366 95.5522 16.0606 95.3976 16.082C95.2482 16.098 95.0962 16.1193 94.9416 16.146C94.7869 16.1673 94.6482 16.2046 94.5256 16.258C94.4029 16.3113 94.3016 16.3886 94.2216 16.49C94.1469 16.586 94.1096 16.7193 94.1096 16.89C94.1096 17.002 94.1309 17.098 94.1736 17.178C94.2216 17.2526 94.2802 17.314 94.3496 17.362C94.4242 17.41 94.5096 17.4446 94.6056 17.466C94.7016 17.4873 94.8029 17.498 94.9096 17.498C95.1336 17.498 95.3256 17.4686 95.4856 17.41C95.6456 17.346 95.7762 17.2686 95.8776 17.178C95.9789 17.082 96.0536 16.9806 96.1016 16.874C96.1496 16.762 96.1736 16.658 96.1736 16.562V15.866ZM98.4064 15.97C98.4064 16.162 98.4304 16.3513 98.4784 16.538C98.5318 16.7193 98.6091 16.882 98.7104 17.026C98.8171 17.17 98.9504 17.2846 99.1104 17.37C99.2758 17.4553 99.4678 17.498 99.6864 17.498C99.9158 17.498 100.11 17.4526 100.27 17.362C100.43 17.2713 100.561 17.154 100.662 17.01C100.764 16.8606 100.836 16.6926 100.878 16.506C100.926 16.3193 100.95 16.13 100.95 15.938C100.95 15.7353 100.926 15.5406 100.878 15.354C100.83 15.162 100.753 14.994 100.646 14.85C100.545 14.706 100.412 14.5913 100.246 14.506C100.081 14.4153 99.8811 14.37 99.6464 14.37C99.4171 14.37 99.2224 14.4153 99.0624 14.506C98.9024 14.5966 98.7744 14.7166 98.6784 14.866C98.5824 15.0153 98.5131 15.186 98.4704 15.378C98.4278 15.57 98.4064 15.7673 98.4064 15.97ZM101.606 18.002H100.926V17.442H100.91C100.798 17.6713 100.622 17.8366 100.382 17.938C100.142 18.0393 99.8784 18.09 99.5904 18.09C99.2704 18.09 98.9904 18.0313 98.7504 17.914C98.5158 17.7966 98.3184 17.6393 98.1584 17.442C98.0038 17.2446 97.8864 17.0153 97.8064 16.754C97.7264 16.4926 97.6864 16.2153 97.6864 15.922C97.6864 15.6286 97.7238 15.3513 97.7984 15.09C97.8784 14.8286 97.9958 14.602 98.1504 14.41C98.3104 14.2126 98.5078 14.058 98.7424 13.946C98.9824 13.8286 99.2598 13.77 99.5744 13.77C99.6811 13.77 99.7958 13.7806 99.9184 13.802C100.041 13.8233 100.164 13.8606 100.286 13.914C100.409 13.962 100.524 14.0286 100.63 14.114C100.742 14.194 100.836 14.2953 100.91 14.418H100.926V12.29H101.606V18.002ZM105.375 15.938C105.375 16.1886 105.407 16.4126 105.471 16.61C105.541 16.802 105.634 16.9646 105.751 17.098C105.869 17.226 106.005 17.3246 106.159 17.394C106.319 17.4633 106.487 17.498 106.663 17.498C106.839 17.498 107.005 17.4633 107.159 17.394C107.319 17.3246 107.458 17.226 107.575 17.098C107.693 16.9646 107.783 16.802 107.847 16.61C107.917 16.4126 107.951 16.1886 107.951 15.938C107.951 15.6873 107.917 15.466 107.847 15.274C107.783 15.0766 107.693 14.9113 107.575 14.778C107.458 14.6446 107.319 14.5433 107.159 14.474C107.005 14.4046 106.839 14.37 106.663 14.37C106.487 14.37 106.319 14.4046 106.159 14.474C106.005 14.5433 105.869 14.6446 105.751 14.778C105.634 14.9113 105.541 15.0766 105.471 15.274C105.407 15.466 105.375 15.6873 105.375 15.938ZM104.655 15.938C104.655 15.634 104.698 15.3513 104.783 15.09C104.869 14.8233 104.997 14.594 105.167 14.402C105.338 14.2046 105.549 14.05 105.799 13.938C106.05 13.826 106.338 13.77 106.663 13.77C106.994 13.77 107.282 13.826 107.527 13.938C107.778 14.05 107.989 14.2046 108.159 14.402C108.33 14.594 108.458 14.8233 108.543 15.09C108.629 15.3513 108.671 15.634 108.671 15.938C108.671 16.242 108.629 16.5246 108.543 16.786C108.458 17.0473 108.33 17.2766 108.159 17.474C107.989 17.666 107.778 17.818 107.527 17.93C107.282 18.0366 106.994 18.09 106.663 18.09C106.338 18.09 106.05 18.0366 105.799 17.93C105.549 17.818 105.338 17.666 105.167 17.474C104.997 17.2766 104.869 17.0473 104.783 16.786C104.698 16.5246 104.655 16.242 104.655 15.938ZM109.473 13.866H110.113V14.522H110.129C110.412 14.0206 110.86 13.77 111.473 13.77C111.745 13.77 111.972 13.8073 112.153 13.882C112.334 13.9566 112.481 14.0606 112.593 14.194C112.705 14.3273 112.782 14.4873 112.825 14.674C112.873 14.8553 112.897 15.058 112.897 15.282V18.002H112.217V15.202C112.217 14.946 112.142 14.7433 111.993 14.594C111.844 14.4446 111.638 14.37 111.377 14.37C111.169 14.37 110.988 14.402 110.833 14.466C110.684 14.53 110.558 14.6206 110.457 14.738C110.356 14.8553 110.278 14.994 110.225 15.154C110.177 15.3086 110.153 15.4793 110.153 15.666V18.002H109.473V13.866ZM117.089 13.866H117.913V14.466H117.089V17.034C117.089 17.114 117.094 17.178 117.105 17.226C117.121 17.274 117.147 17.3113 117.185 17.338C117.222 17.3646 117.273 17.3833 117.337 17.394C117.406 17.3993 117.494 17.402 117.601 17.402H117.913V18.002H117.393C117.217 18.002 117.065 17.9913 116.937 17.97C116.814 17.9433 116.713 17.898 116.633 17.834C116.558 17.77 116.502 17.6793 116.465 17.562C116.427 17.4446 116.409 17.29 116.409 17.098V14.466H115.705V13.866H116.409V12.626H117.089V13.866ZM118.668 12.29H119.348V14.474H119.364C119.418 14.346 119.492 14.2393 119.588 14.154C119.684 14.0633 119.791 13.9913 119.908 13.938C120.031 13.8793 120.156 13.8366 120.284 13.81C120.418 13.7833 120.546 13.77 120.668 13.77C120.94 13.77 121.167 13.8073 121.348 13.882C121.53 13.9566 121.676 14.0606 121.788 14.194C121.9 14.3273 121.978 14.4873 122.02 14.674C122.068 14.8553 122.092 15.058 122.092 15.282V18.002H121.412V15.202C121.412 14.946 121.338 14.7433 121.188 14.594C121.039 14.4446 120.834 14.37 120.572 14.37C120.364 14.37 120.183 14.402 120.028 14.466C119.879 14.53 119.754 14.6206 119.652 14.738C119.551 14.8553 119.474 14.994 119.42 15.154C119.372 15.3086 119.348 15.4793 119.348 15.666V18.002H118.668V12.29ZM125.986 15.538C125.975 15.378 125.938 15.226 125.874 15.082C125.815 14.938 125.732 14.8153 125.626 14.714C125.524 14.6073 125.402 14.5246 125.258 14.466C125.119 14.402 124.964 14.37 124.794 14.37C124.618 14.37 124.458 14.402 124.314 14.466C124.175 14.5246 124.055 14.6073 123.954 14.714C123.852 14.8206 123.772 14.946 123.714 15.09C123.655 15.2286 123.62 15.378 123.61 15.538H125.986ZM126.642 16.69C126.551 17.154 126.351 17.5033 126.042 17.738C125.732 17.9726 125.343 18.09 124.874 18.09C124.543 18.09 124.255 18.0366 124.01 17.93C123.77 17.8233 123.567 17.674 123.402 17.482C123.236 17.29 123.111 17.0606 123.026 16.794C122.946 16.5273 122.9 16.2366 122.89 15.922C122.89 15.6073 122.938 15.3193 123.034 15.058C123.13 14.7966 123.263 14.57 123.434 14.378C123.61 14.186 123.815 14.0366 124.05 13.93C124.29 13.8233 124.551 13.77 124.834 13.77C125.202 13.77 125.506 13.8473 125.746 14.002C125.991 14.1513 126.186 14.3433 126.33 14.578C126.479 14.8126 126.58 15.0686 126.634 15.346C126.692 15.6233 126.716 15.8873 126.706 16.138H123.61C123.604 16.3193 123.626 16.4926 123.674 16.658C123.722 16.818 123.799 16.962 123.906 17.09C124.012 17.2126 124.148 17.3113 124.314 17.386C124.479 17.4606 124.674 17.498 124.898 17.498C125.186 17.498 125.42 17.4313 125.602 17.298C125.788 17.1646 125.911 16.962 125.97 16.69H126.642Z" fill="#050810"/>
<path d="M69.738 24.006H71.6L75.45 34.002H73.574L72.636 31.356H68.646L67.708 34.002H65.902L69.738 24.006ZM69.122 30.026H72.174L70.676 25.728H70.634L69.122 30.026ZM76.2199 26.764H77.7319V27.744H77.7599C77.9839 27.324 78.2966 27.0253 78.6979 26.848C79.0992 26.6613 79.5332 26.568 79.9999 26.568C80.5692 26.568 81.0639 26.6706 81.4839 26.876C81.9132 27.072 82.2679 27.3473 82.5479 27.702C82.8279 28.0473 83.0379 28.4533 83.1779 28.92C83.3179 29.3866 83.3879 29.886 83.3879 30.418C83.3879 30.9033 83.3226 31.3746 83.1919 31.832C83.0706 32.2893 82.8792 32.6953 82.6179 33.05C82.3659 33.3953 82.0439 33.6753 81.6519 33.89C81.2599 34.0953 80.7979 34.198 80.2659 34.198C80.0326 34.198 79.7992 34.1746 79.5659 34.128C79.3326 34.0906 79.1086 34.0253 78.8939 33.932C78.6792 33.8386 78.4786 33.722 78.2919 33.582C78.1146 33.4326 77.9652 33.26 77.8439 33.064H77.8159V36.676H76.2199V26.764ZM81.7919 30.39C81.7919 30.0633 81.7499 29.746 81.6659 29.438C81.5819 29.13 81.4559 28.8593 81.2879 28.626C81.1199 28.3833 80.9099 28.192 80.6579 28.052C80.4059 27.9026 80.1166 27.828 79.7899 27.828C79.1179 27.828 78.6092 28.0613 78.2639 28.528C77.9279 28.9946 77.7599 29.6153 77.7599 30.39C77.7599 30.754 77.8019 31.0946 77.8859 31.412C77.9792 31.72 78.1146 31.986 78.2919 32.21C78.4692 32.434 78.6792 32.6113 78.9219 32.742C79.1739 32.8726 79.4632 32.938 79.7899 32.938C80.1539 32.938 80.4619 32.8633 80.7139 32.714C80.9659 32.5646 81.1712 32.3733 81.3299 32.14C81.4979 31.8973 81.6146 31.6266 81.6799 31.328C81.7546 31.02 81.7919 30.7073 81.7919 30.39ZM84.7785 26.764H86.2905V27.744H86.3185C86.5425 27.324 86.8552 27.0253 87.2565 26.848C87.6578 26.6613 88.0918 26.568 88.5585 26.568C89.1278 26.568 89.6225 26.6706 90.0425 26.876C90.4718 27.072 90.8265 27.3473 91.1065 27.702C91.3865 28.0473 91.5965 28.4533 91.7365 28.92C91.8765 29.3866 91.9465 29.886 91.9465 30.418C91.9465 30.9033 91.8812 31.3746 91.7505 31.832C91.6292 32.2893 91.4378 32.6953 91.1765 33.05C90.9245 33.3953 90.6025 33.6753 90.2105 33.89C89.8185 34.0953 89.3565 34.198 88.8245 34.198C88.5912 34.198 88.3578 34.1746 88.1245 34.128C87.8912 34.0906 87.6672 34.0253 87.4525 33.932C87.2378 33.8386 87.0372 33.722 86.8505 33.582C86.6732 33.4326 86.5238 33.26 86.4025 33.064H86.3745V36.676H84.7785V26.764ZM90.3505 30.39C90.3505 30.0633 90.3085 29.746 90.2245 29.438C90.1405 29.13 90.0145 28.8593 89.8465 28.626C89.6785 28.3833 89.4685 28.192 89.2165 28.052C88.9645 27.9026 88.6752 27.828 88.3485 27.828C87.6765 27.828 87.1678 28.0613 86.8225 28.528C86.4865 28.9946 86.3185 29.6153 86.3185 30.39C86.3185 30.754 86.3605 31.0946 86.4445 31.412C86.5378 31.72 86.6732 31.986 86.8505 32.21C87.0278 32.434 87.2378 32.6113 87.4805 32.742C87.7325 32.8726 88.0218 32.938 88.3485 32.938C88.7125 32.938 89.0205 32.8633 89.2725 32.714C89.5245 32.5646 89.7298 32.3733 89.8885 32.14C90.0565 31.8973 90.1732 31.6266 90.2385 31.328C90.3132 31.02 90.3505 30.7073 90.3505 30.39ZM98.5636 30.67C98.5636 31.0526 98.6289 31.3793 98.7596 31.65C98.8902 31.9206 99.0722 32.1446 99.3056 32.322C99.5389 32.49 99.8049 32.616 100.104 32.7C100.412 32.7746 100.743 32.812 101.098 32.812C101.48 32.812 101.807 32.77 102.078 32.686C102.348 32.5926 102.568 32.476 102.736 32.336C102.904 32.196 103.025 32.0373 103.1 31.86C103.174 31.6733 103.212 31.4866 103.212 31.3C103.212 30.9173 103.123 30.6373 102.946 30.46C102.778 30.2733 102.591 30.1426 102.386 30.068C102.031 29.9373 101.616 29.816 101.14 29.704C100.673 29.5826 100.094 29.4286 99.4036 29.242C98.9742 29.13 98.6149 28.9853 98.3256 28.808C98.0456 28.6213 97.8216 28.416 97.6536 28.192C97.4856 27.968 97.3642 27.73 97.2896 27.478C97.2242 27.226 97.1916 26.9693 97.1916 26.708C97.1916 26.204 97.2942 25.77 97.4996 25.406C97.7142 25.0326 97.9942 24.7246 98.3396 24.482C98.6849 24.2393 99.0769 24.062 99.5156 23.95C99.9542 23.8286 100.398 23.768 100.846 23.768C101.368 23.768 101.858 23.838 102.316 23.978C102.782 24.1086 103.188 24.3093 103.534 24.58C103.888 24.8506 104.168 25.1866 104.374 25.588C104.579 25.98 104.682 26.4373 104.682 26.96H102.932C102.885 26.316 102.666 25.8633 102.274 25.602C101.882 25.3313 101.382 25.196 100.776 25.196C100.57 25.196 100.36 25.2193 100.146 25.266C99.9309 25.3033 99.7349 25.3733 99.5576 25.476C99.3802 25.5693 99.2309 25.7 99.1096 25.868C98.9976 26.036 98.9416 26.246 98.9416 26.498C98.9416 26.8526 99.0489 27.1326 99.2636 27.338C99.4876 27.534 99.7769 27.6833 100.132 27.786C100.169 27.7953 100.314 27.8373 100.566 27.912C100.827 27.9773 101.116 28.052 101.434 28.136C101.751 28.22 102.059 28.304 102.358 28.388C102.666 28.4626 102.885 28.5186 103.016 28.556C103.342 28.6586 103.627 28.7986 103.87 28.976C104.112 29.1533 104.313 29.3586 104.472 29.592C104.64 29.816 104.761 30.0586 104.836 30.32C104.92 30.5813 104.962 30.8426 104.962 31.104C104.962 31.664 104.845 32.1446 104.612 32.546C104.388 32.938 104.089 33.26 103.716 33.512C103.342 33.764 102.918 33.946 102.442 34.058C101.966 34.1793 101.48 34.24 100.986 34.24C100.416 34.24 99.8796 34.17 99.3756 34.03C98.8716 33.89 98.4329 33.6753 98.0596 33.386C97.6862 33.0966 97.3876 32.728 97.1636 32.28C96.9396 31.8226 96.8229 31.286 96.8136 30.67H98.5636ZM105.542 26.764H106.746V24.594H108.342V26.764H109.784V27.954H108.342V31.818C108.342 31.986 108.346 32.1306 108.356 32.252C108.374 32.3733 108.407 32.476 108.454 32.56C108.51 32.644 108.589 32.7093 108.692 32.756C108.794 32.7933 108.934 32.812 109.112 32.812C109.224 32.812 109.336 32.812 109.448 32.812C109.56 32.8026 109.672 32.784 109.784 32.756V33.988C109.606 34.0066 109.434 34.0253 109.266 34.044C109.098 34.0626 108.925 34.072 108.748 34.072C108.328 34.072 107.987 34.0346 107.726 33.96C107.474 33.876 107.273 33.7593 107.124 33.61C106.984 33.4513 106.886 33.2553 106.83 33.022C106.783 32.7886 106.755 32.5226 106.746 32.224V27.954H105.542V26.764ZM114.25 34.198C113.671 34.198 113.153 34.1046 112.696 33.918C112.248 33.722 111.865 33.456 111.548 33.12C111.24 32.784 111.002 32.3826 110.834 31.916C110.675 31.4493 110.596 30.936 110.596 30.376C110.596 29.8253 110.675 29.3166 110.834 28.85C111.002 28.3833 111.24 27.982 111.548 27.646C111.865 27.31 112.248 27.0486 112.696 26.862C113.153 26.666 113.671 26.568 114.25 26.568C114.828 26.568 115.342 26.666 115.79 26.862C116.247 27.0486 116.63 27.31 116.938 27.646C117.255 27.982 117.493 28.3833 117.652 28.85C117.82 29.3166 117.904 29.8253 117.904 30.376C117.904 30.936 117.82 31.4493 117.652 31.916C117.493 32.3826 117.255 32.784 116.938 33.12C116.63 33.456 116.247 33.722 115.79 33.918C115.342 34.1046 114.828 34.198 114.25 34.198ZM114.25 32.938C114.604 32.938 114.912 32.8633 115.174 32.714C115.435 32.5646 115.65 32.3686 115.818 32.126C115.986 31.8833 116.107 31.6126 116.182 31.314C116.266 31.006 116.308 30.6933 116.308 30.376C116.308 30.068 116.266 29.76 116.182 29.452C116.107 29.144 115.986 28.8733 115.818 28.64C115.65 28.3973 115.435 28.2013 115.174 28.052C114.912 27.9026 114.604 27.828 114.25 27.828C113.895 27.828 113.587 27.9026 113.326 28.052C113.064 28.2013 112.85 28.3973 112.682 28.64C112.514 28.8733 112.388 29.144 112.304 29.452C112.229 29.76 112.192 30.068 112.192 30.376C112.192 30.6933 112.229 31.006 112.304 31.314C112.388 31.6126 112.514 31.8833 112.682 32.126C112.85 32.3686 113.064 32.5646 113.326 32.714C113.587 32.8633 113.895 32.938 114.25 32.938ZM119.231 26.764H120.729V28.164H120.757C120.803 27.968 120.892 27.7766 121.023 27.59C121.163 27.4033 121.326 27.2353 121.513 27.086C121.709 26.9273 121.923 26.8013 122.157 26.708C122.39 26.6146 122.628 26.568 122.871 26.568C123.057 26.568 123.183 26.5726 123.249 26.582C123.323 26.5913 123.398 26.6006 123.473 26.61V28.15C123.361 28.1313 123.244 28.1173 123.123 28.108C123.011 28.0893 122.899 28.08 122.787 28.08C122.516 28.08 122.259 28.136 122.017 28.248C121.783 28.3506 121.578 28.5093 121.401 28.724C121.223 28.9293 121.083 29.186 120.981 29.494C120.878 29.802 120.827 30.1566 120.827 30.558V34.002H119.231V26.764ZM128.876 29.746C128.858 29.494 128.802 29.2513 128.708 29.018C128.624 28.7846 128.503 28.584 128.344 28.416C128.195 28.2386 128.008 28.0986 127.784 27.996C127.57 27.884 127.327 27.828 127.056 27.828C126.776 27.828 126.52 27.8793 126.286 27.982C126.062 28.0753 125.866 28.2106 125.698 28.388C125.54 28.556 125.409 28.7566 125.306 28.99C125.213 29.2233 125.162 29.4753 125.152 29.746H128.876ZM125.152 30.796C125.152 31.076 125.19 31.3466 125.264 31.608C125.348 31.8693 125.47 32.098 125.628 32.294C125.787 32.49 125.988 32.6486 126.23 32.77C126.473 32.882 126.762 32.938 127.098 32.938C127.565 32.938 127.938 32.84 128.218 32.644C128.508 32.4386 128.722 32.1353 128.862 31.734H130.374C130.29 32.126 130.146 32.476 129.94 32.784C129.735 33.092 129.488 33.3533 129.198 33.568C128.909 33.7733 128.582 33.9273 128.218 34.03C127.864 34.142 127.49 34.198 127.098 34.198C126.529 34.198 126.025 34.1046 125.586 33.918C125.148 33.7313 124.774 33.47 124.466 33.134C124.168 32.798 123.939 32.3966 123.78 31.93C123.631 31.4633 123.556 30.95 123.556 30.39C123.556 29.8766 123.636 29.3913 123.794 28.934C123.962 28.4673 124.196 28.0613 124.494 27.716C124.802 27.3613 125.171 27.0813 125.6 26.876C126.03 26.6706 126.515 26.568 127.056 26.568C127.626 26.568 128.134 26.6893 128.582 26.932C129.04 27.1653 129.418 27.478 129.716 27.87C130.015 28.262 130.23 28.7146 130.36 29.228C130.5 29.732 130.538 30.2546 130.472 30.796H125.152Z" fill="#050810"/>
<defs>
<clipPath id="clip0_2003_7911">
<rect width="25" height="31" fill="white" transform="translate(31 8.00195)"/>
</clipPath>
</defs>
</svg>
