<svg width="25" height="24" viewBox="0 0 25 24" fill="none" xmlns="http://www.w3.org/2000/svg">
<path d="M5.5 22C4.95 22 4.47933 21.8043 4.088 21.413C3.69667 21.0217 3.50067 20.5507 3.5 20V6C3.5 5.45 3.696 4.97933 4.088 4.588C4.48 4.19667 4.95067 4.00067 5.5 4H6.5V2H8.5V4H16.5V2H18.5V4H19.5C20.05 4 20.521 4.196 20.913 4.588C21.305 4.98 21.5007 5.45067 21.5 6V20C21.5 20.55 21.3043 21.021 20.913 21.413C20.5217 21.805 20.0507 22.0007 19.5 22H5.5ZM5.5 20H19.5V10H5.5V20ZM5.5 8H19.5V6H5.5V8ZM12.5 14C12.2167 14 11.9793 13.904 11.788 13.712C11.5967 13.52 11.5007 13.2827 11.5 13C11.4993 12.7173 11.5953 12.48 11.788 12.288C11.9807 12.096 12.218 12 12.5 12C12.782 12 13.0197 12.096 13.213 12.288C13.4063 12.48 13.502 12.7173 13.5 13C13.498 13.2827 13.402 13.5203 13.212 13.713C13.022 13.9057 12.7847 14.0013 12.5 14ZM8.5 14C8.21667 14 7.97933 13.904 7.788 13.712C7.59667 13.52 7.50067 13.2827 7.5 13C7.49933 12.7173 7.59533 12.48 7.788 12.288C7.98067 12.096 8.218 12 8.5 12C8.782 12 9.01967 12.096 9.213 12.288C9.40633 12.48 9.502 12.7173 9.5 13C9.498 13.2827 9.402 13.5203 9.212 13.713C9.022 13.9057 8.78467 14.0013 8.5 14ZM16.5 14C16.2167 14 15.9793 13.904 15.788 13.712C15.5967 13.52 15.5007 13.2827 15.5 13C15.4993 12.7173 15.5953 12.48 15.788 12.288C15.9807 12.096 16.218 12 16.5 12C16.782 12 17.0197 12.096 17.213 12.288C17.4063 12.48 17.502 12.7173 17.5 13C17.498 13.2827 17.402 13.5203 17.212 13.713C17.022 13.9057 16.7847 14.0013 16.5 14ZM12.5 18C12.2167 18 11.9793 17.904 11.788 17.712C11.5967 17.52 11.5007 17.2827 11.5 17C11.4993 16.7173 11.5953 16.48 11.788 16.288C11.9807 16.096 12.218 16 12.5 16C12.782 16 13.0197 16.096 13.213 16.288C13.4063 16.48 13.502 16.7173 13.5 17C13.498 17.2827 13.402 17.5203 13.212 17.713C13.022 17.9057 12.7847 18.0013 12.5 18ZM8.5 18C8.21667 18 7.97933 17.904 7.788 17.712C7.59667 17.52 7.50067 17.2827 7.5 17C7.49933 16.7173 7.59533 16.48 7.788 16.288C7.98067 16.096 8.218 16 8.5 16C8.782 16 9.01967 16.096 9.213 16.288C9.40633 16.48 9.502 16.7173 9.5 17C9.498 17.2827 9.402 17.5203 9.212 17.713C9.022 17.9057 8.78467 18.0013 8.5 18ZM16.5 18C16.2167 18 15.9793 17.904 15.788 17.712C15.5967 17.52 15.5007 17.2827 15.5 17C15.4993 16.7173 15.5953 16.48 15.788 16.288C15.9807 16.096 16.218 16 16.5 16C16.782 16 17.0197 16.096 17.213 16.288C17.4063 16.48 17.502 16.7173 17.5 17C17.498 17.2827 17.402 17.5203 17.212 17.713C17.022 17.9057 16.7847 18.0013 16.5 18Z" fill="#9D7C6B"/>
</svg>
