<svg width="160" height="76" viewBox="0 0 160 76" fill="none" xmlns="http://www.w3.org/2000/svg">
<path fill-rule="evenodd" clip-rule="evenodd" d="M93.1677 11.8895C102.544 16.8208 108.95 26.6525 108.95 37.9853C108.95 49.3181 102.544 59.1808 93.1677 64.0819V60.7122C96.7536 58.567 99.787 55.5654 101.994 52.0128L93.1677 48.43V42.9778L102.851 50.5434C104.874 46.8063 106.008 42.5485 106.008 37.9845C106.008 28.3668 100.859 19.9138 93.1677 15.2576V11.8895ZM79.5308 8.55078C84.4342 8.55078 89.061 9.74583 93.1677 11.8895V15.2592C89.3981 12.9915 84.9853 11.6446 80.3275 11.4911L83.698 35.5967L93.1677 42.9786V48.4307L79.4688 42.8864L65.8621 48.461V43.0391L75.3931 35.596L78.7333 11.4904C74.0136 11.6438 69.6317 12.9915 65.8621 15.2576V11.8895C69.9386 9.74583 74.5964 8.55078 79.5308 8.55078ZM93.1677 64.0819C89.061 66.2255 84.4335 67.45 79.5308 67.45C74.5972 67.45 69.9394 66.2255 65.8629 64.1121V60.7122C69.8472 63.1309 74.5352 64.5097 79.5308 64.5097C84.4955 64.5097 89.154 63.1309 93.1677 60.7122V64.0819ZM65.8629 64.1121C56.4544 59.1808 50.0498 49.3181 50.0498 37.9853C50.0498 26.6525 56.4544 16.8208 65.8629 11.8895V15.2592C58.14 19.9146 52.9917 28.3373 52.9917 37.9853C52.9917 42.5485 54.1565 46.8683 56.1793 50.6046L65.8629 43.0391V48.461L57.0674 52.074C59.2739 55.5979 62.277 58.5677 65.8629 60.7122V64.1121Z" fill="#D0D0D0"/>
</svg>
