<svg width="234" height="215" viewBox="0 0 234 215" fill="none" xmlns="http://www.w3.org/2000/svg">
<path d="M5.71782 50.5486C13.562 65.8805 28.5525 73.0726 34.7157 76.8722C40.3093 80.32 43.4586 86.6882 46.0216 92.2777C46.2235 92.7183 46.1858 91.6995 46.031 91.2382C45.1531 88.6292 43.7838 87.1606 42.3872 85.1691C40.991 83.1775 39.5672 80.663 37.3603 78.7525C36.8928 78.348 33.3983 74.341 32.8984 73.9742C33.819 74.2659 39.6055 76.7561 40.5229 77.0497C43.8752 78.6837 47.175 80.3916 50.2575 82.3985C62.098 90.1064 70.973 101.342 82.0682 109.939C94.0546 119.228 103.571 130.486 110.893 143.152C111.179 143.646 111.965 143.231 111.741 142.731C106.585 131.236 99.0436 121.153 89.1502 112.59C84.0896 108.211 78.4723 104.393 73.5192 99.9089C68.5116 95.3756 64.0755 90.3482 58.9506 85.9174C57.9567 85.0582 56.9234 84.2608 55.8745 83.4876C64.3841 87.8549 72.5393 92.8035 81.1565 97.0101C81.6504 97.2514 82.1294 96.5865 81.6394 96.3244C72.4072 91.3887 63.9672 85.3518 54.8118 80.294C50.4865 77.9047 45.3732 76.4966 40.7373 74.5521C35.7559 72.4627 30.8956 70.1189 26.4075 67.2712C20.082 63.2581 14.7043 58.0549 10.9301 51.941C6.75183 45.1722 5.04032 37.4603 2.55545 30.08C2.37966 29.5589 2.1029 28.9532 1.50502 28.8647C0.980164 28.7876 0.472664 29.1923 0.300784 29.6529C0.129259 30.1136 0.209198 30.6092 0.294719 31.0824C1.41514 37.2663 2.79145 44.8288 5.71782 50.5486Z" fill="#4E4E50" fill-opacity="0.5"/>
<path d="M228.772 149.198C217.71 141.047 210.275 129.858 199.652 121.009C189.047 112.218 175.983 105.758 161.845 102.661C147.658 99.5749 133.044 99.7931 118.674 99.233C104.326 98.7858 89.7311 97.641 76.5637 92.7723L73.2699 91.5543L75.6912 93.9156C85.3127 103.299 95.5113 112.274 106.823 120.089C112.462 124.008 118.345 127.669 124.555 130.89C130.804 134.111 137.243 136.771 143.794 139.385C150.367 141.917 157.192 144.144 164.275 145.445C171.339 146.793 178.504 147.537 185.659 148.071C199.987 149.016 214.327 149.263 228.675 149.427L228.694 149.174C214.415 148.221 200.11 147.416 185.925 146.102C178.841 145.421 171.797 144.531 164.943 143.068C158.085 141.62 151.45 139.536 145.005 136.983C138.583 134.417 132.166 131.621 126.059 128.581C119.934 125.504 114.085 121.972 108.46 118.17C97.2167 110.553 86.6718 102.061 76.8352 92.9373L75.9631 94.0803C89.5953 98.6527 104.248 99.3989 118.602 100.103C132.985 100.713 147.5 101.361 161.208 104.693C174.874 107.979 187.652 114.044 198.181 122.469C208.723 130.839 216.851 141.884 228.598 149.402L228.772 149.198Z" fill="#4E4E50" fill-opacity="0.5"/>
<path d="M225.49 148.894C204.22 136.498 185.255 121.35 160.043 115.564C147.039 112.579 133.691 110.794 120.651 107.903C106.803 104.831 93.5464 100.695 80.5818 95.4788C79.9132 95.2099 79.3686 96.2484 80.0205 96.5512C103.648 107.543 130.225 110.666 155.96 115.955C182.861 121.484 202.233 136.95 225.249 149.238C225.492 149.367 225.727 149.033 225.49 148.894Z" fill="#4E4E50" fill-opacity="0.5"/>
<path d="M228.4 148.781C215.643 147.016 204.701 141.665 193.041 137.176C180.59 132.382 167.399 129.428 154.368 126.108C127.544 119.273 103.017 108.374 79.505 95.2282C78.8322 94.852 78.1578 95.8095 78.829 96.1888C102.444 109.53 126.898 120.451 153.941 127.289C167.346 130.679 180.918 133.703 193.693 138.688C205.045 143.118 215.762 148.231 228.364 149.343C228.769 149.379 228.783 148.835 228.4 148.781Z" fill="#4E4E50" fill-opacity="0.5"/>
<path d="M221.474 148.52C196.224 144.225 170.684 140.153 146.696 131.89C121.971 123.374 100.676 109.704 79.9514 95.2924C79.3081 94.8455 78.3789 95.8443 79.0112 96.3188C98.5007 110.953 120.173 123.977 143.988 132.328C168.729 141.004 195.148 145.143 221.383 148.951C221.653 148.991 221.744 148.566 221.474 148.52Z" fill="#4E4E50" fill-opacity="0.5"/>
<path d="M228.236 148.817C206.713 132.336 187.677 115.253 159.506 108.326C132.887 101.779 104.227 103.904 78.587 94.2604C78.0273 94.05 77.5723 94.91 78.121 95.1522C101.548 105.48 129.134 103.164 154.189 108.419C169.313 111.591 182.988 116.898 195.424 125.14C206.72 132.627 216.886 141.377 228.008 149.066C228.164 149.175 228.388 148.934 228.236 148.817Z" fill="#4E4E50" fill-opacity="0.5"/>
<path d="M87.2973 206.112C84.5807 197.262 86.1622 187.978 88.1412 179.018C90.1108 170.033 92.4804 160.824 92.0205 151.511C91.6677 142.244 89.3443 133.162 85.5364 124.717C81.733 116.25 76.0156 108.669 72.5316 100.194C72.4247 99.9337 72.101 99.8072 71.8093 99.9118C71.577 99.9944 71.4348 100.199 71.4404 100.41L71.441 100.428C71.7018 109.866 67.9572 118.946 64.7238 128.023C63.1202 132.59 61.5703 137.221 60.6568 142.004C59.7285 146.798 59.8051 151.731 60.4311 156.463C61.6651 165.981 64.6677 175.156 68.798 183.835C70.9114 188.155 73.2615 192.385 76.137 196.329C79.0554 200.207 82.5313 203.939 87.1392 206.231C87.1908 206.257 87.2581 206.239 87.2882 206.191C87.3175 206.145 87.2955 206.084 87.2473 206.057C82.8432 203.566 79.8081 199.667 77.0584 195.784C74.3718 191.818 72.2061 187.572 70.2782 183.252C66.5526 174.556 63.9256 165.437 62.6764 156.179C62.0701 151.528 62.1211 146.892 62.8856 142.277C63.6936 137.651 65.1391 133.083 66.6639 128.522C69.7137 119.453 73.1447 110.03 72.5687 100.354L71.4786 100.588C75.3425 109.071 81.2897 116.493 84.8086 124.994C88.4793 133.424 90.0837 142.535 90.1981 151.593C90.4037 160.689 88.3351 169.689 86.5007 178.788C85.6225 183.341 84.9507 187.956 84.8173 192.589C84.7361 197.219 85.432 201.864 87.0893 206.177C87.1087 206.228 87.1709 206.253 87.2277 206.234C87.2825 206.215 87.3125 206.161 87.2973 206.112Z" fill="#4E4E50" fill-opacity="0.5"/>
<path d="M87.0489 205.855C79.7071 200.314 79.8078 189.543 78.4417 181.557C76.7415 171.619 75.1476 162.086 75.5732 151.933C76.3029 134.532 76.8453 117.042 72.2418 100.123C72.1035 99.6157 71.1944 99.7444 71.3324 100.259C76.5882 119.775 73.8403 139.35 74.1553 159.255C74.3155 169.411 76.8128 179.543 78.7658 189.465C79.9307 195.384 80.8496 202.58 86.9021 206.033C87.0322 206.107 87.1676 205.944 87.0489 205.855Z" fill="#4E4E50" fill-opacity="0.5"/>
<path d="M86.7387 205.588C79.6842 199.181 74.9775 191.382 71.958 182.761C68.7613 173.635 65.9398 163.092 65.4355 153.41C64.9564 144.217 69.0311 134.719 70.6121 125.636C72.0887 117.154 72.7429 108.633 72.4111 100.097C72.3827 99.3658 71.1316 99.5579 71.1597 100.284C71.552 110.503 70.4398 120.681 68.3339 130.784C66.4047 140.037 63.2476 148.655 64.7464 158.068C67.3987 174.737 71.4768 194.698 86.4854 205.826C86.64 205.941 86.883 205.72 86.7387 205.588Z" fill="#4E4E50" fill-opacity="0.5"/>
<path d="M87.1541 205.813C81.9239 200.009 82.0903 189.474 81.6879 182.29C81.1577 172.827 81.1929 163.339 81.065 153.857C80.8268 136.192 83.067 117.683 72.983 101.895C72.7571 101.541 72.2014 101.77 72.3305 102.163C73.8085 106.651 75.9772 110.922 77.4783 115.415C79.5431 121.598 79.9808 127.031 79.6492 133.527C79.1875 142.567 79.8434 151.64 79.9337 160.672C80.0322 170.51 79.9838 180.444 81.139 190.212C81.7209 195.128 82.4439 202.65 86.8404 206.108C87.0324 206.259 87.3098 205.987 87.1541 205.813Z" fill="#4E4E50" fill-opacity="0.5"/>
<path d="M87.3409 205.791C82.5219 197.011 83.9216 185.512 84.6859 175.936C85.4973 165.776 86.6652 155.648 86.9155 145.469C87.1173 137.292 84.9592 129.666 82.6146 121.906C80.3441 114.389 77.0023 106.321 72.0937 99.9646C71.8339 99.6287 71.2859 99.9819 71.4286 100.337C74.6176 108.267 79.3922 115.323 81.7896 123.587C82.8856 127.365 84.1569 131.156 84.9132 135.008C86.0547 140.823 85.6241 146.723 85.3255 152.623C84.8352 162.321 83.5383 171.987 83.103 181.685C82.7385 189.817 82.5213 198.735 86.609 206.093C86.8345 206.498 87.5668 206.202 87.3409 205.791Z" fill="#4E4E50" fill-opacity="0.5"/>
<path d="M52.7408 146.722C50.3255 140.399 50.9492 133.674 51.7888 127.053C52.1744 123.721 52.6488 120.368 52.869 116.962C53.0868 113.549 52.8337 110.113 52.2883 106.752C51.067 100.021 48.2678 93.6883 44.6574 87.8757C40.9549 82.1126 36.4154 76.8382 33.2534 70.9362C33.0819 70.6161 32.6505 70.4898 32.2901 70.6537C32.0087 70.782 31.854 71.0501 31.8813 71.3138L31.886 71.3555C32.6032 78.0812 31.1519 84.8742 29.9471 91.6845C29.3351 95.0984 28.7258 98.5434 28.3947 102.05C27.9496 105.533 28.2688 109.249 29.057 112.646C30.5785 119.534 33.4746 126.002 37.1728 132.028C39.0041 135.052 41.1759 137.906 43.6178 140.554C46.0755 143.156 48.9653 145.617 52.5536 146.892C52.6253 146.917 52.7076 146.885 52.7377 146.82C52.7661 146.759 52.7311 146.688 52.6692 146.658C49.3331 145.095 46.9621 142.396 44.7722 139.73C42.5966 137.016 40.8276 134.047 39.1568 131.052C35.9196 125.013 33.3819 118.614 31.9155 112.073C30.3731 105.56 31.5117 98.8303 32.5138 91.9625C33.5274 85.1458 34.5908 78.0842 33.3229 71.1363L31.9557 71.5552C35.5878 77.4296 40.3436 82.5103 43.8223 88.3086C47.3466 94.0777 49.2221 100.588 49.9942 107.094C50.9377 113.611 50.2443 120.195 49.6368 126.934C49.1136 133.586 49.0359 140.79 52.4824 146.828C52.5175 146.89 52.602 146.913 52.6714 146.879C52.7346 146.849 52.7628 146.781 52.7408 146.722Z" fill="#4E4E50" fill-opacity="0.5"/>
<path d="M52.4881 146.573C46.8597 143.109 46.1241 135.5 44.5551 129.945C42.603 123.033 40.7565 116.401 40.2974 109.207C39.5102 96.8776 38.5835 84.497 34.0468 72.8342C33.9103 72.4842 33.2751 72.6303 33.4116 72.9852C38.6057 86.4414 38.124 100.429 39.8398 114.462C40.7157 121.622 43.2474 128.623 45.3785 135.508C46.6494 139.616 47.8413 144.64 52.3971 146.708C52.4948 146.752 52.5786 146.629 52.4881 146.573Z" fill="#4E4E50" fill-opacity="0.5"/>
<path d="M52.2464 146.402C46.7581 142.31 42.8315 137.091 40.0412 131.19C37.0879 124.942 34.2937 117.671 33.2099 110.867C32.1804 104.406 34.3608 97.4521 34.8021 90.9434C35.2146 84.8653 35.0398 78.809 34.164 72.804C34.0894 72.2894 33.2156 72.5011 33.2897 73.0119C34.3348 80.2028 34.3088 87.4558 33.5706 94.717C32.8947 101.366 31.3004 107.644 33.0693 114.197C36.2029 125.803 40.595 139.646 52.0846 146.586C52.2027 146.657 52.3587 146.486 52.2464 146.402Z" fill="#4E4E50" fill-opacity="0.5"/>
<path d="M52.5574 146.539C48.4091 142.761 47.7377 135.313 46.9128 130.266C45.827 123.618 45.1406 116.918 44.3386 110.232C42.8448 97.7751 43.0473 84.5715 34.7044 74.041C34.5172 73.805 34.1399 74.0006 34.2613 74.2707C35.6471 77.3487 37.5074 80.2311 38.9095 83.3118C40.8391 87.5505 41.5573 91.3589 41.8086 95.9655C42.1591 102.375 43.3052 108.741 44.0466 115.111C44.8544 122.051 45.5647 129.067 47.118 135.892C47.8991 139.327 48.9762 144.593 52.357 146.766C52.5045 146.861 52.6813 146.652 52.5574 146.539Z" fill="#4E4E50" fill-opacity="0.5"/>
<path d="M52.6892 146.512C48.6098 140.608 48.7405 132.404 48.5653 125.598C48.3794 118.375 48.4492 111.154 47.8636 103.953C47.3931 98.1679 45.2894 92.9159 43.043 87.5807C40.8675 82.4121 37.8902 76.9214 33.9284 72.7332C33.7191 72.512 33.3563 72.7945 33.4844 73.0363C36.3434 78.4403 40.2614 83.1304 42.5832 88.8178C43.6452 91.4177 44.8313 94.0168 45.6579 96.6898C46.904 100.725 47.0406 104.916 47.2713 109.1C47.6505 115.976 47.4545 122.88 47.8729 129.753C48.2234 135.516 48.7383 141.825 52.1921 146.77C52.3824 147.043 52.88 146.789 52.6892 146.512Z" fill="#4E4E50" fill-opacity="0.5"/>
<path d="M27.6617 70.0356C39.7147 75.1038 52.4138 78.998 65.4349 81.8338C78.4763 84.5172 91.8841 86.4723 105.481 85.9349C112.253 85.6991 119.071 84.8836 125.619 83.0467C132.204 81.2638 138.297 78.3621 144.164 75.2671L152.935 70.5442C155.782 68.9467 158.897 67.4592 161.37 65.2364C166.424 61.0198 170.846 56.3023 175.16 51.5212L176.66 49.8577L174.325 50.3079C162.116 52.66 149.818 49.1544 136.941 50.0692C130.506 50.5401 124.213 52.0778 118.21 54.0851C112.221 56.1553 106.468 58.6448 100.733 61.0327C94.9968 63.4156 89.2473 65.7088 83.3335 67.4268C77.4306 69.1722 71.2906 70.1593 65.101 70.644C52.6985 71.6269 40.1926 70.6696 27.74 69.7928L27.7002 70.0445C40.03 71.6828 52.4989 73.1924 65.1929 72.588C71.5189 72.2435 77.88 71.3776 84.0439 69.713C90.2314 68.1266 96.082 65.737 101.868 63.3903C113.381 58.693 124.824 53.5675 137.089 52.4962C149.255 51.4957 161.927 54.5634 174.661 51.8085L173.825 50.5959C169.707 55.4473 165.488 60.2878 160.67 64.5545C158.313 66.7322 155.359 68.1731 152.469 69.8411C149.589 71.4671 146.7 73.0804 143.732 74.5609C137.828 77.5542 131.758 80.3886 125.27 81.8125C118.814 83.3599 112.125 83.9188 105.488 83.9062C98.842 84.0393 92.2044 83.5749 85.617 82.8571C79.005 82.255 72.4759 81.117 65.9737 79.9189C53.0048 77.355 40.2132 74.0419 27.7786 69.802L27.6617 70.0356Z" fill="#4E4E50" fill-opacity="0.5"/>
<path d="M174.383 50.9701C164.215 59.4994 153.225 66.5441 140.316 71.1806C129.731 74.9827 118.155 77.045 107.024 78.9051C80.9275 83.266 54.3119 76.4911 29.9361 69.5456C29.1007 69.3076 28.7935 70.5333 29.6288 70.7654C55.1484 77.8525 82.6487 84.5514 109.819 79.4629C133.923 74.9492 157.596 68.6304 174.869 51.3684C175.165 51.0724 174.697 50.7061 174.383 50.9701Z" fill="#4E4E50" fill-opacity="0.5"/>
<path d="M174.53 50.9101C150.729 60.4014 126.821 72.7305 100.748 75.5612C75.7175 78.2783 51.6191 74.5678 27.7138 68.9789C26.8623 68.7794 26.5542 70.0045 27.4072 70.1981C51.3454 75.6361 75.8197 79.1831 100.793 76.4629C126.857 73.623 151.233 61.6252 174.717 51.4404C175.074 51.2856 174.906 50.7598 174.53 50.9101Z" fill="#4E4E50" fill-opacity="0.5"/>
</svg>
