<svg width="234" height="215" viewBox="0 0 234 215" fill="none" xmlns="http://www.w3.org/2000/svg">
<path d="M228.161 164.262C220.317 148.93 205.327 141.738 199.163 137.938C193.57 134.491 190.421 128.122 187.858 122.533C187.656 122.092 187.693 123.111 187.848 123.572C188.726 126.181 190.095 127.65 191.492 129.641C192.888 131.633 194.312 134.148 196.519 136.058C196.986 136.463 200.481 140.47 200.981 140.836C200.06 140.545 194.274 138.054 193.356 137.761C190.004 136.127 186.704 134.419 183.622 132.412C171.781 124.704 162.906 113.469 151.811 104.872C139.825 95.583 130.308 84.3243 122.986 71.6588C122.7 71.1645 121.914 71.5795 122.138 72.0793C127.295 83.5747 134.836 93.6572 144.729 102.22C149.79 106.6 155.407 110.418 160.36 114.902C165.368 119.435 169.804 124.462 174.929 128.893C175.922 129.752 176.956 130.55 178.005 131.323C169.495 126.956 161.34 122.007 152.723 117.8C152.229 117.559 151.75 118.224 152.24 118.486C161.472 123.422 169.912 129.459 179.067 134.517C183.393 136.906 188.506 138.314 193.142 140.258C198.123 142.348 202.984 144.692 207.472 147.539C213.797 151.552 219.175 156.756 222.949 162.87C227.127 169.638 228.839 177.35 231.324 184.731C231.499 185.252 231.776 185.857 232.374 185.946C232.899 186.023 233.406 185.618 233.578 185.158C233.75 184.697 233.67 184.201 233.584 183.728C232.464 177.544 231.088 169.982 228.161 164.262Z" fill="#4E4E50" fill-opacity="0.5"/>
<path d="M5.10761 65.6122C16.1691 73.7637 23.6043 84.9527 34.2269 93.8016C44.8322 102.592 57.8965 109.053 72.0344 112.149C86.2208 115.236 100.835 115.017 115.206 115.578C129.553 116.025 144.148 117.17 157.315 122.038L160.609 123.256L158.188 120.895C148.566 111.512 138.368 102.537 127.056 94.7218C121.417 90.8023 115.534 87.1411 109.324 83.9204C103.075 80.6998 96.6358 78.0398 90.0849 75.4256C83.5117 72.8932 76.6867 70.667 69.6041 69.3658C62.5401 68.0172 55.3753 67.2732 48.2203 66.7394C33.8926 65.7946 19.5517 65.548 5.20449 65.3838L5.18486 65.637C19.4645 66.5892 33.7691 67.3947 47.9543 68.7088C55.0378 69.3897 62.082 70.2791 68.936 71.743C75.7946 73.1908 82.4287 75.2741 88.8738 77.8279C95.2966 80.393 101.713 83.1898 107.821 86.2293C113.946 89.3065 119.794 92.8388 125.419 96.6405C136.662 104.257 147.207 112.749 157.044 121.873L157.916 120.73C144.284 116.158 129.631 115.412 115.277 114.707C100.894 114.097 86.3789 113.449 72.6707 110.118C59.0048 106.831 46.2273 100.767 35.6984 92.3417C25.1564 83.9712 17.028 72.9268 5.28131 65.4087L5.10761 65.6122Z" fill="#4E4E50" fill-opacity="0.5"/>
<path d="M8.38897 65.9162C29.6592 78.3128 48.6239 93.4605 73.8362 99.2467C86.8404 102.232 100.188 104.017 113.228 106.908C127.076 109.979 140.333 114.116 153.297 119.332C153.966 119.601 154.511 118.562 153.859 118.259C130.231 107.268 103.654 104.145 77.919 98.8556C51.0182 93.3267 31.6458 77.8601 8.63039 65.5729C8.38723 65.4434 8.15165 65.7777 8.38897 65.9162Z" fill="#4E4E50" fill-opacity="0.5"/>
<path d="M5.47972 66.0292C18.2368 67.7946 29.1782 73.1458 40.838 77.635C53.289 82.4289 66.4804 85.3827 79.5116 88.7029C106.336 95.5377 130.862 106.436 154.374 119.582C155.047 119.959 155.722 119.001 155.05 118.622C131.435 105.281 106.982 94.3593 79.9384 87.5217C66.5332 84.1319 52.961 81.1073 40.1869 76.1228C28.8342 71.693 18.1177 66.5792 5.5158 65.4675C5.11088 65.4318 5.0961 65.9756 5.47972 66.0292Z" fill="#4E4E50" fill-opacity="0.5"/>
<path d="M12.4055 66.2906C37.6552 70.5852 63.1954 74.6576 87.1836 82.9205C111.908 91.4365 133.203 105.107 153.928 119.518C154.571 119.965 155.5 118.966 154.868 118.492C135.378 103.858 113.706 90.8332 89.8913 82.4822C65.1503 73.8069 38.7311 69.6674 12.4962 65.8591C12.2263 65.8195 12.1354 66.2446 12.4055 66.2906Z" fill="#4E4E50" fill-opacity="0.5"/>
<path d="M5.64339 65.9935C27.166 82.4741 46.2025 99.5576 74.3731 106.485C100.993 113.032 129.652 110.906 155.292 120.55C155.852 120.761 156.307 119.901 155.758 119.658C132.331 109.331 104.745 111.646 79.6899 106.391C64.566 103.22 50.8907 97.9123 38.4548 89.6707C27.1592 82.184 16.9931 73.4334 5.87098 65.7441C5.71511 65.6359 5.49068 65.8763 5.64339 65.9935Z" fill="#4E4E50" fill-opacity="0.5"/>
<path d="M146.582 8.69896C149.298 17.5489 147.717 26.8323 145.738 35.7923C143.768 44.7773 141.399 53.9863 141.859 63.2993C142.211 72.5666 144.535 81.6488 148.343 90.0934C152.146 98.5601 157.864 106.142 161.348 114.616C161.454 114.877 161.778 115.003 162.07 114.899C162.302 114.816 162.444 114.612 162.439 114.401L162.438 114.382C162.177 104.945 165.922 95.8641 169.155 86.7877C170.759 82.2202 172.309 77.5893 173.222 72.8064C174.151 68.013 174.074 63.0796 173.448 58.3472C172.214 48.8293 169.211 39.6542 165.081 30.9757C162.968 26.6558 160.618 22.4252 157.742 18.4811C154.824 14.6035 151.348 10.8717 146.74 8.57951C146.688 8.55325 146.621 8.57118 146.591 8.6192C146.562 8.66531 146.584 8.72636 146.632 8.75348C151.036 11.2444 154.071 15.1431 156.821 19.0268C159.507 22.9928 161.673 27.2384 163.601 31.5589C167.327 40.2547 169.954 49.3736 171.203 58.6315C171.809 63.2822 171.758 67.9182 170.994 72.5335C170.186 77.1591 168.74 81.7277 167.215 86.2889C164.165 95.3578 160.734 104.78 161.31 114.456L162.401 114.222C158.537 105.739 152.589 98.3179 149.071 89.8164C145.4 81.3861 143.795 72.2758 143.681 63.2174C143.475 54.1219 145.544 45.1216 147.378 36.0229C148.257 31.4698 148.928 26.855 149.062 22.2213C149.143 17.5911 148.447 12.9461 146.79 8.63377C146.77 8.58303 146.708 8.55721 146.651 8.57614C146.597 8.59506 146.567 8.6498 146.582 8.69896Z" fill="#4E4E50" fill-opacity="0.5"/>
<path d="M146.83 8.95562C154.172 14.4969 154.071 25.2672 155.437 33.2539C157.138 43.1917 158.732 52.7242 158.306 62.8773C157.576 80.2785 157.034 97.7689 161.637 114.687C161.776 115.195 162.685 115.066 162.547 114.552C157.291 95.0359 160.039 75.4602 159.724 55.5557C159.564 45.3996 157.066 35.2678 155.113 25.3453C153.948 19.4262 153.03 12.2304 146.977 8.77766C146.847 8.70324 146.712 8.86644 146.83 8.95562Z" fill="#4E4E50" fill-opacity="0.5"/>
<path d="M147.14 9.22254C154.195 15.6295 158.902 23.429 161.921 32.0496C165.118 41.1752 167.939 51.7183 168.444 61.4008C168.923 70.5931 164.848 80.0912 163.267 89.1744C161.79 97.6564 161.136 106.178 161.468 114.713C161.496 115.445 162.748 115.253 162.719 114.527C162.327 104.307 163.439 94.1294 165.545 84.0261C167.474 74.7739 170.632 66.1552 169.133 56.7423C166.48 40.0735 162.402 20.1121 147.394 8.9842C147.239 8.86966 146.996 9.09094 147.14 9.22254Z" fill="#4E4E50" fill-opacity="0.5"/>
<path d="M146.725 8.99742C151.955 14.8018 151.789 25.3366 152.191 32.5208C152.721 41.9831 152.686 51.4716 152.814 60.9534C153.052 78.6187 150.812 97.1273 160.896 112.916C161.122 113.27 161.678 113.04 161.549 112.647C160.071 108.16 157.902 103.889 156.401 99.3953C154.336 93.2126 153.898 87.7797 154.23 81.2837C154.692 72.2438 154.036 63.1703 153.945 54.1388C153.847 44.3003 153.895 34.3665 152.74 24.5986C152.158 19.6827 151.435 12.1608 147.039 8.70255C146.847 8.55159 146.569 8.82399 146.725 8.99742Z" fill="#4E4E50" fill-opacity="0.5"/>
<path d="M146.538 9.01951C151.357 17.7992 149.958 29.2987 149.193 38.8741C148.382 49.0344 147.214 59.1624 146.964 69.3413C146.762 77.5182 148.92 85.1442 151.265 92.9049C153.535 100.422 156.877 108.489 161.785 114.846C162.045 115.182 162.593 114.829 162.451 114.474C159.262 106.544 154.487 99.4873 152.09 91.224C150.994 87.4455 149.722 83.6549 148.966 79.8026C147.824 73.9875 148.255 68.0878 148.554 62.188C149.044 52.4899 150.341 42.8234 150.776 33.1259C151.141 24.9937 151.358 16.0756 147.27 8.71788C147.045 8.31231 146.312 8.60834 146.538 9.01951Z" fill="#4E4E50" fill-opacity="0.5"/>
<path d="M181.138 68.0881C183.554 74.4111 182.93 81.137 182.09 87.7573C181.705 91.0895 181.23 94.4421 181.01 97.8488C180.792 101.262 181.045 104.697 181.591 108.058C182.812 114.789 185.611 121.122 189.222 126.935C192.924 132.698 197.464 137.972 200.626 143.874C200.797 144.194 201.229 144.321 201.589 144.157C201.87 144.029 202.025 143.76 201.998 143.497L201.993 143.455C201.276 136.729 202.727 129.936 203.932 123.126C204.544 119.712 205.153 116.267 205.484 112.76C205.93 109.277 205.61 105.561 204.822 102.165C203.301 95.277 200.405 88.809 196.706 82.7821C194.875 79.7581 192.703 76.9046 190.261 74.2569C187.804 71.6542 184.914 69.194 181.326 67.9185C181.254 67.8933 181.172 67.9255 181.141 67.9906C181.113 68.0515 181.148 68.1228 181.21 68.1523C184.546 69.716 186.917 72.4149 189.107 75.0807C191.283 77.7944 193.052 80.7633 194.722 83.7587C197.96 89.7973 200.497 96.1964 201.964 102.738C203.506 109.25 202.367 115.98 201.365 122.848C200.352 129.665 199.288 136.726 200.556 143.674L201.923 143.255C198.291 137.381 193.536 132.3 190.057 126.502C186.533 120.733 184.657 114.223 183.885 107.717C182.941 101.199 183.635 94.6151 184.242 87.8768C184.766 81.2244 184.843 74.0205 181.397 67.9823C181.362 67.921 181.277 67.8979 181.208 67.9314C181.145 67.9619 181.116 68.0299 181.138 68.0881Z" fill="#4E4E50" fill-opacity="0.5"/>
<path d="M181.391 68.2375C187.019 71.7011 187.755 79.3104 189.324 84.866C191.276 91.7779 193.123 98.4099 193.582 105.603C194.369 117.933 195.296 130.314 199.832 141.976C199.969 142.326 200.604 142.18 200.468 141.825C195.273 128.369 195.755 114.381 194.039 100.348C193.163 93.1884 190.632 86.1879 188.501 79.3024C187.23 75.1947 186.038 70.1709 181.482 68.1027C181.384 68.0587 181.301 68.1818 181.391 68.2375Z" fill="#4E4E50" fill-opacity="0.5"/>
<path d="M181.633 68.4081C187.121 72.5007 191.048 77.7196 193.838 83.6208C196.791 89.8682 199.585 97.1391 200.669 103.944C201.699 110.404 199.518 117.358 199.077 123.867C198.665 129.945 198.839 136.002 199.715 142.007C199.79 142.521 200.664 142.309 200.589 141.799C199.544 134.608 199.57 127.355 200.309 120.094C200.984 113.444 202.579 107.167 200.81 100.613C197.676 89.0074 193.284 75.1642 181.795 68.2247C181.676 68.1531 181.52 68.3245 181.633 68.4081Z" fill="#4E4E50" fill-opacity="0.5"/>
<path d="M181.322 68.2717C185.47 72.0499 186.141 79.4972 186.966 84.5444C188.052 91.1926 188.739 97.893 189.541 104.579C191.034 117.035 190.832 130.239 199.175 140.769C199.362 141.006 199.739 140.81 199.618 140.54C198.232 137.462 196.372 134.579 194.97 131.499C193.04 127.26 192.322 123.452 192.071 118.845C191.72 112.435 190.574 106.07 189.833 99.6992C189.025 92.7596 188.314 85.7434 186.761 78.9183C185.98 75.4835 184.903 70.2174 181.522 68.0442C181.375 67.9495 181.198 68.1587 181.322 68.2717Z" fill="#4E4E50" fill-opacity="0.5"/>
<path d="M181.19 68.2984C185.269 74.2026 185.139 82.4062 185.314 89.2122C185.5 96.4352 185.43 103.656 186.016 110.858C186.486 116.643 188.59 121.895 190.836 127.23C193.012 132.398 195.989 137.889 199.951 142.077C200.16 142.299 200.523 142.016 200.395 141.774C197.536 136.37 193.618 131.68 191.296 125.993C190.234 123.393 189.048 120.794 188.221 118.121C186.975 114.085 186.839 109.894 186.608 105.711C186.229 98.8344 186.425 91.9303 186.006 85.0579C185.656 79.2947 185.141 72.9857 181.687 68.0405C181.497 67.7679 180.999 68.0219 181.19 68.2984Z" fill="#4E4E50" fill-opacity="0.5"/>
<path d="M206.218 144.775C194.165 139.707 181.466 135.813 168.444 132.977C155.403 130.293 141.995 128.338 128.399 128.876C121.627 129.111 114.808 129.927 108.26 131.764C101.675 133.547 95.5825 136.448 89.7154 139.543L80.9441 144.266C78.097 145.864 74.9821 147.351 72.5089 149.574C67.4553 153.791 63.0332 158.508 58.7192 163.289L57.219 164.953L59.5548 164.503C71.7638 162.151 84.0615 165.656 96.9381 164.741C103.373 164.27 109.666 162.733 115.669 160.725C121.659 158.655 127.411 156.166 133.146 153.778C138.883 151.395 144.632 149.102 150.546 147.384C156.449 145.638 162.589 144.651 168.778 144.167C181.181 143.184 193.687 144.141 206.139 145.018L206.179 144.766C193.849 143.128 181.38 141.618 168.687 142.223C162.36 142.567 155.999 143.433 149.836 145.098C143.648 146.684 137.797 149.074 132.011 151.42C120.498 156.118 109.055 161.243 96.7908 162.314C84.6241 163.315 71.9524 160.247 59.2186 163.002L60.0541 164.215C64.1725 159.363 68.3912 154.523 73.2091 150.256C75.5664 148.078 78.5207 146.637 81.4105 144.969C84.2909 143.343 87.1794 141.73 90.1471 140.25C96.0513 137.256 102.121 134.422 108.609 132.998C115.066 131.451 121.754 130.892 128.392 130.904C135.037 130.771 141.675 131.236 148.262 131.953C154.874 132.556 161.404 133.694 167.906 134.892C180.875 137.456 193.666 140.769 206.101 145.009L206.218 144.775Z" fill="#4E4E50" fill-opacity="0.5"/>
<path d="M59.4962 163.84C69.6646 155.311 80.6539 148.266 93.5629 143.63C104.148 139.828 115.725 137.766 126.856 135.905C152.952 131.545 179.567 138.319 203.943 145.265C204.778 145.503 205.086 144.277 204.25 144.045C178.731 136.958 151.23 130.259 124.061 135.348C99.9566 139.861 76.2833 146.18 59.0102 163.442C58.7138 163.738 59.1819 164.104 59.4962 163.84Z" fill="#4E4E50" fill-opacity="0.5"/>
<path d="M59.3488 163.9C83.1498 154.409 107.058 142.08 133.131 139.249C158.161 136.532 182.26 140.243 206.165 145.832C207.017 146.031 207.325 144.806 206.472 144.612C182.533 139.174 158.059 135.627 133.086 138.348C107.022 141.188 82.6463 153.185 59.1617 163.37C58.8053 163.525 58.9731 164.051 59.3488 163.9Z" fill="#4E4E50" fill-opacity="0.5"/>
</svg>
