<svg width="158" height="152" viewBox="0 0 158 152" fill="none" xmlns="http://www.w3.org/2000/svg">
<path d="M79.1899 110.443L79.1893 110.471L79.1857 110.499C79.1552 110.733 79.1396 111.134 79.1279 111.643C79.1242 111.806 79.1209 111.979 79.1174 112.158C79.1105 112.519 79.1031 112.903 79.091 113.274C79.0729 113.828 79.0436 114.378 78.9861 114.818C78.9575 115.037 78.9198 115.246 78.8668 115.422C78.828 115.551 78.7568 115.751 78.6063 115.9C78.1596 116.47 77.4038 116.763 76.608 116.931C75.7731 117.109 74.7748 117.173 73.7536 117.202C73.2444 117.217 72.7219 117.223 72.2049 117.229L72.1925 117.229C71.6698 117.235 71.1527 117.241 70.6512 117.256C69.6426 117.286 68.7278 117.35 67.9973 117.508L67.9973 117.508L67.9869 117.51C64.0771 118.27 61.3588 118.989 59.2726 119.541L59.1718 119.568C57.0862 120.12 55.5829 120.516 54.1465 120.583C52.6841 120.651 51.3153 120.379 49.4702 119.661C47.6415 118.949 45.3135 117.786 41.9343 116.053C40.9419 115.609 39.7288 115.186 38.6786 114.862C38.0503 114.668 37.4973 114.516 37.0932 114.415C37.0934 114.416 37.0936 114.416 37.0938 114.416C37.3902 114.945 37.9454 115.734 38.7105 116.719C40.2334 118.681 42.5272 121.348 45.062 124.133C47.5957 126.918 50.3629 129.812 52.83 132.228C55.3083 134.654 57.4522 136.566 58.749 137.413L58.7552 137.417L58.7613 137.421C63.9942 141.066 69.538 142.215 75.8208 141.13C81.0857 140.073 84.0368 140.233 86.4257 140.573C86.9022 140.641 87.3504 140.714 87.7858 140.786C89.5175 141.07 91.0448 141.32 93.3297 141.04C93.3351 141.038 93.342 141.035 93.3505 141.031C93.3925 141.012 93.4537 140.982 93.5364 140.937C93.7009 140.848 93.9252 140.716 94.2052 140.544C94.7639 140.2 95.5226 139.71 96.4247 139.115C98.2277 137.925 100.588 136.324 103.034 134.658C103.785 134.146 104.545 133.628 105.3 133.113C109.44 130.289 113.417 127.576 114.923 126.663C115.402 126.354 115.885 126.049 116.367 125.744C117.442 125.064 118.512 124.387 119.523 123.684C120.984 122.666 122.276 121.622 123.211 120.492C124.142 119.367 124.7 118.18 124.74 116.867C124.781 115.551 124.305 114.035 123.023 112.247L123.018 112.24L123.013 112.232C120.725 108.79 116.45 107.768 111.749 107.982C107.07 108.195 102.131 109.629 98.7475 110.903C96.8992 111.646 93.9383 112.622 91.0215 113.223C89.5615 113.524 88.0996 113.735 86.7863 113.772C85.4954 113.809 84.2963 113.68 83.3803 113.264C82.7942 113.06 82.1911 112.669 81.6401 112.263C81.2776 111.996 80.9086 111.699 80.5696 111.427C80.3889 111.282 80.2168 111.143 80.0586 111.02C79.8231 110.836 79.6144 110.681 79.4336 110.565C79.3353 110.502 79.2547 110.457 79.1903 110.425C79.1901 110.431 79.19 110.437 79.1899 110.443ZM36.8821 113.945C36.8817 113.939 36.8812 113.938 36.8819 113.944L36.8821 113.945Z" stroke="#4E4E50"/>
<path d="M139.493 50.8881L139.493 50.8882L139.485 50.8784C137.225 48.059 133.059 45.0136 128.66 43.2686C124.241 41.5156 119.773 41.1436 116.761 43.3634C116.755 43.3708 116.701 43.4421 116.705 43.715C116.709 44.0124 116.78 44.4246 116.913 44.9574C117.074 45.5999 117.305 46.3484 117.566 47.1964C117.742 47.765 117.931 48.3784 118.122 49.0345C119.055 52.2384 119.983 56.3069 119.05 60.0062L119.05 60.0067C118.271 63.0864 117.993 64.9633 118.025 66.1571C118.041 66.7477 118.132 67.1456 118.258 67.4296C118.38 67.7062 118.547 67.8997 118.757 68.0676C118.972 68.2395 119.224 68.3791 119.545 68.5566L119.58 68.5756C119.906 68.7561 120.283 68.9681 120.665 69.2663C121.447 69.8772 122.199 70.8116 122.769 72.5317L122.769 72.5317L122.771 72.538C123.373 74.4379 122.687 76.2507 121.733 77.8412C121.252 78.6415 120.688 79.4114 120.152 80.1312C120.098 80.2043 120.043 80.2769 119.99 80.3489C119.511 80.9904 119.067 81.5859 118.712 82.1488C117.819 83.6844 117.182 84.988 116.622 86.1582C116.563 86.2824 116.505 86.4053 116.447 86.527C115.959 87.5491 115.513 88.4866 114.988 89.3813C113.797 91.4143 112.216 93.2115 108.847 95.512L108.846 95.5127C102.376 99.9096 97.3574 101.397 92.3102 102.08C90.3215 102.349 88.3248 102.494 86.2482 102.644C85.7069 102.683 85.1602 102.723 84.6067 102.765C81.9229 102.971 79.0585 103.241 75.8189 103.836L75.8025 103.839L75.786 103.841C75.7224 103.848 75.6653 103.855 75.6134 103.861C75.6165 103.867 75.6197 103.874 75.623 103.881C78.1078 107.335 82.161 109.951 86.2316 110.695C88.0573 110.931 90.6167 110.641 93.2353 110.123C95.8441 109.608 98.4581 108.878 100.361 108.268C106.374 106.234 109.858 105.535 113.427 105.341C115.203 105.245 116.993 105.275 119.109 105.321C119.301 105.326 119.497 105.33 119.695 105.335C121.679 105.379 123.967 105.431 126.81 105.411C132.141 105.361 136.63 104.09 140.134 101.557C143.634 99.0274 146.195 95.2083 147.622 89.9807C150.767 77.3446 147.979 60.9455 139.493 50.8881Z" stroke="#4E4E50"/>
<path d="M75.3654 113.335C75.4105 113.297 75.4329 113.272 75.443 113.258L75.4443 113.248C75.5783 112.222 75.6123 110.338 75.367 109.075C75.2856 108.656 75.0171 108.011 74.5922 107.252C74.1735 106.504 73.6239 105.683 73.0137 104.92C72.4021 104.155 71.7403 103.461 71.1003 102.957C70.4478 102.444 69.8827 102.181 69.4529 102.162C67.8611 102.131 66.0438 101.651 64.4508 101.23C64.0344 101.12 63.6333 101.014 63.2556 100.921C61.549 100.588 60.4544 100.223 59.46 99.6295C58.5303 99.0746 57.7072 98.3291 56.5643 97.294C56.5043 97.2397 56.4434 97.1846 56.3816 97.1286C56.0712 96.8575 55.9754 96.7777 55.9074 96.7396L55.9053 96.7385C55.8841 96.7265 55.8714 96.7194 55.7504 96.7018C53.4564 97.4019 51.3747 96.7523 49.579 95.3489C47.7711 93.9362 46.2259 91.744 44.9572 89.3234C42.4196 84.4819 40.8983 78.5494 40.6297 75.5304L40.6295 75.5281C40.2763 71.3398 40.7286 66.6624 41.1508 62.2964C41.2405 61.3693 41.3288 60.4561 41.4077 59.5647C41.4471 58.4919 41.1254 57.2478 40.5264 55.9271C39.9275 54.6066 39.0659 53.2409 38.0671 51.9416C36.064 49.336 33.5562 47.0572 31.6196 45.9719C30.4954 45.3633 29.2363 45.467 27.88 46.1127C26.5139 46.7631 25.1073 47.9402 23.7767 49.3639C21.1172 52.2097 18.874 55.9176 17.9801 57.9125C17.0875 59.9046 16.283 62.782 15.7086 65.741C15.1349 68.6967 14.7984 71.6939 14.8247 73.9208C14.8749 75.7804 15.2991 77.5561 15.7404 79.4033C15.7727 79.5385 15.8051 79.6742 15.8374 79.8103C16.3079 81.7888 16.7642 83.8495 16.6969 86.0754L16.697 86.0754L16.6967 86.0822C16.4213 92.3485 16.399 95.406 17.4781 97.9957C18.5485 100.564 20.7144 102.709 25.0463 106.998L25.194 107.144C27.5692 109.374 29.0015 110.211 30.5313 110.637C31.3116 110.855 32.133 110.97 33.1536 111.093C33.3048 111.111 33.4602 111.13 33.62 111.149C34.5302 111.257 35.5852 111.382 36.8527 111.593C39.4806 111.938 41.8927 112.977 44.2581 114.04C44.413 114.11 44.5677 114.18 44.7222 114.249C46.9495 115.253 49.1497 116.245 51.547 116.755C51.8568 116.818 52.4641 116.849 53.3339 116.837C54.1907 116.825 55.2616 116.774 56.4707 116.688C58.8883 116.517 61.8411 116.209 64.7049 115.816C67.5714 115.423 70.3347 114.945 72.3785 114.435C73.4039 114.179 74.2258 113.92 74.7844 113.669C75.0658 113.542 75.2543 113.428 75.3654 113.335ZM75.4498 113.248C75.4501 113.247 75.4503 113.247 75.4503 113.247L75.4498 113.248Z" stroke="#4E4E50"/>
<path d="M29.4352 16.095L29.4353 16.0951L29.4283 16.1032C28.2491 17.4758 26.4511 20.1897 24.4197 23.5948C22.3943 26.9898 20.154 31.0428 18.0916 35.0726C16.0286 39.1037 14.1481 43.103 12.8394 46.3922C12.1847 48.0376 11.6771 49.4955 11.3607 50.6856C11.0401 51.8913 10.9372 52.748 11.0224 53.2395C11.1399 53.7574 11.4634 54.3984 11.9326 55.0308C12.4014 55.6627 12.9896 56.2505 13.5941 56.665C14.2093 57.087 14.7819 57.2895 15.2359 57.2568C15.6364 57.228 16.0381 57.0098 16.3521 56.3381C17.8175 52.6172 20.3632 47.7816 23.705 44.941C25.3856 43.5125 27.3058 42.5566 29.4179 42.548C31.5372 42.5394 33.7566 43.4848 36.0289 45.6723C36.7831 46.3876 37.5791 47.249 38.3338 48.0658C38.6496 48.4075 38.9581 48.7414 39.2533 49.0536C39.7612 49.5905 40.2307 50.0645 40.6451 50.4254C40.9015 50.6486 41.1172 50.8106 41.2922 50.9179C41.305 50.8768 41.3185 50.8305 41.3328 50.7785C41.4482 50.358 41.5717 49.7163 41.7215 48.8819C41.7647 48.6411 41.8098 48.3857 41.8573 48.1171C42.1354 46.5433 42.4935 44.5174 43.0126 42.3206C44.2224 37.2013 46.3357 31.0147 50.4935 27.3241L50.4992 27.319L50.505 27.3142C51.2614 26.6828 52.5462 25.8305 54.0176 24.8922C54.6692 24.4766 55.3556 24.0454 56.0565 23.605C56.9602 23.0373 57.8879 22.4544 58.796 21.8707C60.4015 20.8388 61.9009 19.8324 62.9982 18.9679C63.5482 18.5346 63.9815 18.149 64.274 17.8236C64.4201 17.6609 64.5207 17.5246 64.583 17.415C64.6445 17.3067 64.6522 17.2529 64.6529 17.2431C64.6586 15.7176 63.5658 13.619 61.5246 11.6083C59.5022 9.61619 56.6245 7.78909 53.2346 6.79247C46.4946 4.81093 37.6628 6.09305 29.4352 16.095Z" stroke="#4E4E50"/>
<path d="M108.245 13.8685L108.243 13.8686C106.924 13.9245 105.336 13.6569 103.673 13.2976C102.924 13.1359 102.15 12.9531 101.369 12.7689C101.278 12.7474 101.187 12.7258 101.095 12.7043C100.22 12.4979 99.3381 12.2922 98.4646 12.1111C96.7127 11.748 95.0234 11.4905 93.5307 11.5231C92.0371 11.5557 90.798 11.8777 89.8913 12.6169C89.7041 12.7701 89.6048 12.9163 89.5553 13.0491C89.5064 13.1804 89.4942 13.3305 89.5312 13.5125C89.6097 13.8979 89.9019 14.3902 90.4445 14.9834C91.5204 16.1595 93.3705 17.512 95.5106 18.9273C96.7047 19.7169 97.9536 20.5038 99.1897 21.2827C100.18 21.9065 101.162 22.5252 102.101 23.136C104.17 24.4819 106.006 25.7743 107.001 26.8721L107.015 26.887L107.027 26.9031C107.378 27.3592 108.049 28.5094 108.844 29.9272C109.63 31.3305 110.56 33.0396 111.465 34.7044L111.527 34.8175C112.453 36.5198 113.349 38.1663 114.041 39.3906C114.387 40.0036 114.678 40.5048 114.894 40.8523C114.958 40.954 115.013 41.0394 115.059 41.109C123.168 38.5993 129.412 40.4904 132.308 41.9715C133.048 42.3401 133.708 42.6879 134.291 42.9945L134.293 42.9958C134.878 43.3037 135.377 43.5666 135.806 43.7725C136.24 43.9806 136.574 44.1167 136.831 44.1824C137.098 44.2508 137.192 44.219 137.209 44.2103L137.209 44.2102C137.213 44.2083 137.223 44.2032 137.239 44.1774C137.259 44.1465 137.287 44.086 137.311 43.9766C137.36 43.7512 137.374 43.3994 137.332 42.8736C137.25 41.8275 136.967 40.2528 136.507 37.9722L136.507 37.9722L136.505 37.9634C135.963 35.0043 134.467 33.1028 132.67 30.982C132.563 30.8558 132.455 30.7288 132.346 30.6009C130.628 28.5811 128.704 26.3187 127.291 22.806L127.29 22.8052C125.036 17.1702 122.683 14.9084 119.8 14.0279C118.331 13.5792 116.686 13.4765 114.771 13.5207C113.656 13.5464 112.481 13.6201 111.21 13.6999C110.278 13.7583 109.295 13.8201 108.245 13.8685Z" stroke="#4E4E50"/>
<path d="M115.696 63.1233L115.697 63.1171C117.334 57.1318 117.23 53.3856 116.12 49.8664C115.561 48.0917 114.741 46.359 113.73 44.4057C113.393 43.754 113.034 43.076 112.657 42.3643C111.91 40.9557 111.094 39.4153 110.242 37.6869C105.573 28.4154 101.075 25.0261 96.6266 22.5349C95.8141 22.0799 94.9971 21.6524 94.1764 21.223C90.4768 19.2876 86.7006 17.312 82.9115 12.5904C81.2469 10.5458 79.6881 9.77084 78.2518 9.71156C76.7958 9.65147 75.3412 10.32 73.8814 11.4313C72.4245 12.5402 71.0234 14.0424 69.6782 15.552C69.4512 15.8067 69.2255 16.0621 69.0012 16.3159C67.9118 17.5482 66.8572 18.7412 65.8708 19.6216L65.8709 19.6217L65.8612 19.63C64.1873 21.0492 62.0798 22.3755 59.9506 23.7155C58.9546 24.3424 57.9539 24.9722 56.9904 25.616C53.9199 27.6677 51.1839 29.8831 49.7825 32.6983C48.3526 35.5709 47.3013 39.9082 46.4927 44.4456C45.8152 48.2477 45.3148 52.1484 44.9 55.3819C44.821 55.9974 44.7452 56.5887 44.6718 57.1505C44.6065 57.6504 44.5477 58.1007 44.496 58.5039C44.8599 57.4606 45.244 56.2865 45.6537 55.0339L45.681 54.9503C46.4335 52.6497 47.2679 50.1048 48.2088 47.6864C49.1485 45.2709 50.2032 42.9581 51.4036 41.1265C52.595 39.3085 53.9803 37.886 55.6125 37.3761C61.0967 35.6503 64.3815 34.4569 69.4859 32.6025C70.2378 32.3294 71.0292 32.0419 71.8729 31.7362C75.8426 30.0521 80.4504 29.6938 83.9073 33.1331L83.9125 33.1383L83.9176 33.1436C85.1224 34.4151 85.8334 35.9119 86.3998 37.1043C86.5763 37.4759 86.7388 37.818 86.8978 38.1145C87.2512 38.7733 87.5625 39.1729 87.9149 39.3581C88.2279 39.5225 88.678 39.5678 89.4537 39.2312C90.2283 38.8723 91.0128 38.456 91.8146 38.0304C92.127 37.8646 92.442 37.6974 92.7601 37.5317C93.8825 36.9469 95.0324 36.3866 96.1612 36.028C97.2904 35.6694 98.4366 35.4999 99.542 35.7349C100.661 35.9729 101.685 36.6141 102.579 37.777C105.742 41.8909 110.357 49.8899 111.894 54.917L111.895 54.921C112.019 55.3398 112.166 55.9805 112.336 56.7204C112.379 56.9079 112.424 57.1018 112.47 57.3001C112.701 58.2941 112.974 59.4248 113.298 60.5052C113.624 61.5903 113.995 62.6001 114.414 63.3616C114.761 63.9905 115.093 64.3626 115.389 64.5288C115.394 64.5017 115.4 64.4727 115.406 64.4415C115.42 64.3628 115.438 64.2697 115.46 64.156C115.512 63.8916 115.584 63.553 115.696 63.1233ZM115.606 64.6129C115.606 64.6127 115.602 64.6124 115.595 64.6127C115.603 64.6133 115.606 64.6131 115.606 64.6129ZM115.329 64.7905C115.329 64.7905 115.33 64.7899 115.33 64.7885L115.329 64.7905Z" stroke="#4E4E50"/>
<path d="M85.7805 41.66L85.7929 41.649L85.8061 41.6388C85.8292 41.6211 85.9161 41.5244 85.908 41.1955C85.9004 40.8828 85.8054 40.4575 85.6048 39.9518C85.2056 38.9454 84.4274 37.7197 83.3244 36.6139C81.1241 34.4078 77.7105 32.7464 73.5351 34.1466L73.5267 34.1494L73.5183 34.1519C71.5498 34.736 69.6017 35.532 67.5717 36.3614L67.4908 36.3945C65.442 37.2315 63.3135 38.0981 61.042 38.7841C60.0032 39.1439 59.1212 39.3591 58.3626 39.5431L58.3562 39.5446C57.5895 39.7306 56.9758 39.8795 56.42 40.1075C55.3612 40.542 54.462 41.2848 53.3563 43.3389L53.3564 43.339L53.3508 43.3489C51.9055 45.8927 50.5495 49.9231 49.1936 53.9528C49.13 54.1419 49.0663 54.3311 49.0027 54.5201C48.2973 56.6146 47.5928 58.6823 46.8808 60.4877C46.1747 62.2782 45.4476 63.8466 44.6854 64.9364C44.4525 65.3232 44.2354 65.9191 44.0427 66.6672C43.8501 67.4148 43.6905 68.2795 43.5608 69.1704C43.3029 70.9414 43.1676 72.785 43.121 73.9551C43.2861 77.5516 44.5087 81.0953 45.7887 84.4966C46.6024 86.4094 48.0537 89.0827 49.9125 91.138C51.6951 93.1091 53.7443 94.3994 55.9006 94.1199C55.901 94.0085 55.8996 93.8719 55.897 93.7104C55.8957 93.6244 55.8941 93.5324 55.8924 93.4351C55.8836 92.9371 55.8724 92.299 55.8833 91.6029C55.909 89.9621 56.0564 87.8852 56.7099 86.4537L56.7139 86.445L56.7182 86.4365C57.1779 85.5235 57.3482 84.3939 57.35 83.0427C57.3518 81.7574 57.2024 80.3219 57.0378 78.7396C57.0293 78.6575 57.0207 78.575 57.0121 78.4921C56.6657 75.1554 56.29 71.2469 57.2644 67.1723L57.2659 67.1664C57.496 66.2536 57.7641 65.4729 58.0163 64.7628C58.0485 64.6721 58.0803 64.5829 58.1117 64.4949C58.3285 63.8873 58.5248 63.337 58.6778 62.776C59.0196 61.5226 59.1432 60.221 58.671 58.2991L58.668 58.2872L58.6657 58.2751C58.4045 56.9301 58.0196 54.4122 58.0425 52.1248C58.0539 50.9848 58.1665 49.8649 58.4674 48.9672C58.7637 48.0834 59.2841 47.3033 60.1821 47.0508C60.2494 47.0268 60.3313 46.9934 60.4258 46.9549C60.8375 46.787 61.4869 46.5221 62.2043 46.5169C63.1673 46.51 64.2276 46.9381 65.3311 48.2403L65.3387 48.2494L65.346 48.2588C66.2973 49.4962 67.0117 50.8099 67.6841 52.0565L67.7288 52.1394C68.3898 53.3652 69.0108 54.5167 69.7937 55.536C69.8164 55.5388 69.8791 55.5387 69.997 55.4996C70.2481 55.4164 70.6014 55.2074 71.0477 54.8627C71.9289 54.182 73.0233 53.0914 74.1525 51.8771C75.1713 50.7814 76.2012 49.604 77.1072 48.5682C77.2015 48.4604 77.2944 48.3542 77.3858 48.2498C78.3353 47.1651 79.1508 46.2407 79.6106 45.833C80.6459 44.8387 81.8042 44.1496 82.8832 43.5346C82.9834 43.4775 83.0828 43.4211 83.1812 43.3652C84.1618 42.8085 85.0473 42.3059 85.7805 41.66ZM56.2792 94.0549C56.2586 94.0577 56.239 94.0619 56.2203 94.067C56.2297 94.0651 56.2392 94.0632 56.2486 94.0613L56.2792 94.0549Z" stroke="#4E4E50"/>
<path d="M79.9809 84.0217C79.6498 84.0087 79.3103 83.9947 78.9641 83.9803C76.8388 83.8922 74.4624 83.7937 72.2226 83.8728C69.6457 83.7523 67.2258 84.0845 65.2307 84.4722L79.9809 84.0217ZM79.9809 84.0217C82.5578 84.1422 84.7375 83.9947 86.9451 83.6347L79.9809 84.0217ZM62.187 59.8332L62.1898 59.8399L62.1924 59.8466C63.1195 62.2415 64.5564 63.8873 66.2524 65.6042C68.2096 67.1557 70.5233 68.9406 72.4882 70.0409L72.5063 70.0511L72.5236 70.0627C73.5054 70.7253 74.3969 71.2698 75.1962 71.7515C75.2974 71.8125 75.3973 71.8725 75.4959 71.9318C76.1714 72.3382 76.7849 72.7071 77.3165 73.0659L77.328 73.0736L77.3391 73.082C78.7139 74.1253 79.7189 74.9206 80.6976 75.9369C81.4439 76.6648 82.3225 77.3402 83.4274 77.4845C83.988 77.5578 84.639 77.4993 85.3957 77.3607C85.9594 77.2574 86.554 77.1155 87.1942 76.9627C87.416 76.9098 87.6432 76.8556 87.8766 76.8012C88.2759 76.7081 88.6934 76.604 89.124 76.4965C90.5602 76.1382 92.1425 75.7435 93.6835 75.6024C94.2751 75.4654 94.8713 75.3495 95.4324 75.2404C95.713 75.1858 95.9848 75.133 96.2429 75.0801C97.0469 74.9152 97.7261 74.7481 98.2463 74.5217L98.2639 74.514L98.282 74.5077C98.3761 74.4751 98.4668 74.441 98.5543 74.4059C98.9451 74.2125 99.2892 74.0285 99.5857 73.8612C99.6007 73.8528 99.6154 73.8444 99.63 73.836C99.9299 73.6339 100.154 73.4423 100.316 73.3041C100.384 73.2461 100.44 73.1974 100.487 73.1614C100.522 73.135 100.587 73.0862 100.665 73.0536C100.688 73.0442 100.727 73.0291 100.779 73.0199C100.82 73.0124 100.931 72.997 101.058 73.0477C101.221 73.113 101.33 73.2539 101.364 73.4101C101.39 73.5318 101.364 73.6293 101.353 73.6666C101.328 73.7472 101.289 73.8054 101.276 73.8246C101.256 73.8532 101.235 73.8785 101.218 73.899C101.182 73.9406 101.138 73.984 101.091 74.0276C100.913 74.1927 100.603 74.4293 100.149 74.691C99.8312 74.9009 99.4374 75.1238 98.9687 75.3165C98.1305 75.7299 97.0937 76.1812 95.8663 76.6069L95.8525 76.6117L95.8383 76.6157C95.367 76.7487 94.8833 76.8776 94.3896 77.0093C93.2073 77.3244 91.9675 77.6549 90.703 78.0935L90.6782 78.1021L90.6527 78.108C90.375 78.1728 90.0999 78.2389 89.8271 78.3045C88.4021 78.6472 87.0413 78.9745 85.7225 78.9973C84.3057 79.2635 82.9394 79.0814 81.6395 78.4532C80.1559 77.8095 78.7431 76.7373 77.3908 75.7112L77.3622 75.6895L77.3485 75.679L77.3355 75.6677C76.7759 75.1788 76.1533 74.73 75.4868 74.2658C75.3527 74.1724 75.2166 74.0782 75.079 73.983C74.5493 73.6166 73.9975 73.2348 73.4511 72.8216C71.8248 71.9547 70.016 70.8486 68.2338 69.5297L68.2234 69.5221L68.2135 69.5139C67.2024 68.6818 66.2681 67.7515 65.3842 66.8713C64.8999 66.389 64.4307 65.9218 63.9722 65.494C63.8857 65.4227 63.8008 65.3528 63.7177 65.2841C63.0424 64.7271 62.476 64.2598 61.9956 63.9478C61.7258 63.7725 61.5142 63.6674 61.3517 63.6201C61.2646 63.5947 61.2061 63.5898 61.1671 63.5925C61.1469 63.6291 61.1158 63.6958 61.0814 63.8098C61.0218 64.0075 60.9737 64.2724 60.9313 64.5965C60.8904 64.9102 60.8574 65.2581 60.8224 65.6275L60.8198 65.6547C60.7842 66.0304 60.7464 66.4259 60.6965 66.8079C60.5934 67.5972 60.3853 68.3097 60.1487 69.0883C60.1293 69.1523 60.1096 69.2169 60.0897 69.2822C59.8682 70.0091 59.6221 70.8165 59.3902 71.8467C59.084 74.1912 58.6532 77.5132 58.7659 79.8426C59.0217 81.6977 59.3565 82.901 59.6303 83.8849C59.7041 84.1503 59.7735 84.3997 59.8357 84.6416C59.8839 84.7821 59.9291 84.928 59.966 85.0474C59.9863 85.1131 60.0041 85.1707 60.0186 85.215C60.0494 85.3092 60.0722 85.3667 60.0882 85.4013C60.1364 85.3947 60.2205 85.3765 60.3561 85.3295L60.3897 85.3178L60.4246 85.3111C60.7027 85.257 61.2228 85.1007 61.9592 84.8795C62.0189 84.8616 62.0801 84.8432 62.1427 84.8244C62.9589 84.5794 63.9785 84.2768 65.1067 83.9879L65.1209 83.9842L65.1353 83.9814C67.1452 83.5908 69.6009 83.252 72.2254 83.3724C74.4801 83.2938 76.8702 83.393 78.9879 83.4808C79.3333 83.4952 79.6714 83.5092 80.0005 83.5221L80.0043 83.5223C82.5458 83.6411 84.6908 83.4957 86.8646 83.1413L86.8646 83.1411L86.8771 83.1394C89.2364 82.8155 91.451 82.0498 93.2643 81.4208C93.7787 81.2171 94.2624 81.0366 94.7102 80.8703L94.8055 80.8349C95.221 80.6806 95.6021 80.5391 95.9537 80.3997C96.7166 80.0974 97.2936 79.8227 97.7151 79.4985L97.7371 79.4816L97.7608 79.4673C98.8245 78.8224 99.3079 78.1193 100.107 76.9354C100.65 75.9606 101.25 74.5716 101.616 73.3664L101.632 73.3147L101.658 73.2675C102.167 72.3585 102.299 71.3945 102.468 70.1028C102.627 68.8824 102.585 67.6241 102.512 66.5455C102.472 66.1943 102.435 65.8958 102.387 65.6781C102.355 65.7081 102.319 65.7446 102.279 65.7884C102.128 65.9505 101.947 66.1738 101.718 66.4582C101.695 66.4876 101.671 66.5174 101.646 66.5478C101.206 67.097 100.632 67.8123 99.9042 68.5578L99.8911 68.5713L99.8769 68.5837C98.1743 70.0837 95.9231 72.0188 93.3254 73.0251L93.3171 73.0283L93.3087 73.0313C90.4625 74.0184 87.7591 73.8826 84.5866 72.5765C81.4368 71.2798 78.0219 68.8531 75.1319 65.8504C72.0299 62.8201 69.4505 59.2114 67.6498 56.3693C66.7641 54.9713 66.0709 53.7035 65.4906 52.6422L65.4522 52.572C64.8628 51.4941 64.4065 50.6672 63.9779 50.1048C63.4503 49.5376 63.0309 49.2747 62.6833 49.169C62.3451 49.0662 62.0185 49.0952 61.6337 49.2286L61.614 49.2355L61.5939 49.2406C61.1201 49.362 60.7734 49.5692 60.5241 49.9387C60.266 50.3214 60.0735 50.9355 60.0395 51.9471C60.2151 53.8569 61.0542 57.1396 62.187 59.8332ZM101.108 73.9461C101.108 73.946 101.107 73.9469 101.104 73.9491C101.106 73.9473 101.108 73.9462 101.108 73.9461ZM102.306 65.4271C102.306 65.4271 102.306 65.4277 102.307 65.4289C102.306 65.4276 102.306 65.427 102.306 65.4271Z" stroke="#4E4E50"/>
<path d="M87.3863 99.9713C87.3588 99.9921 87.3317 100.013 87.3051 100.033C89.3389 99.6373 93.8982 98.7417 98.1183 97.1787L98.1282 97.1751L98.1382 97.1718C102.406 95.7926 106.46 93.9787 109.055 91.7974C111.648 89.6173 113.002 87.2798 113.923 85.0777L113.934 85.0513L113.948 85.0264C114.386 84.2428 114.75 83.5187 115.1 82.8213C115.194 82.633 115.288 82.4467 115.382 82.2617C115.815 81.4067 116.251 80.5851 116.795 79.7735C117.251 78.8395 117.803 77.9793 118.304 77.216C118.354 77.139 118.404 77.0632 118.453 76.9886C118.895 76.3163 119.274 75.7392 119.525 75.231C119.693 74.669 119.734 74.2772 119.679 73.8873C119.622 73.4834 119.455 73.0406 119.132 72.3809C118.692 71.8061 118.18 71.084 117.653 70.3406C117.626 70.3028 117.599 70.2649 117.572 70.227C117.001 69.4219 116.413 68.5959 115.866 67.8842C115.412 67.294 115.007 66.8285 114.673 66.5088C114.505 66.3487 114.364 66.2338 114.252 66.159C114.196 66.122 114.154 66.1001 114.127 66.0873C114.119 66.1009 114.109 66.1195 114.097 66.1448C114.031 66.2936 113.982 66.5685 114.026 66.9489C114.12 67.7674 114.387 68.814 115.055 69.9161L115.072 69.9448L115.086 69.9757C115.256 70.368 115.504 70.7631 115.774 71.1944C115.87 71.3476 115.969 71.5054 116.068 71.6692C116.415 72.241 116.777 72.9043 116.832 73.5743C117.127 75.1746 116.13 76.5252 114.672 77.8397C113.376 79.2257 111.425 80.722 109.527 81.9902C108.554 82.6403 107.546 83.171 106.618 83.6452C106.493 83.709 106.37 83.7716 106.249 83.8332C105.459 84.2354 104.751 84.596 104.16 84.9708L104.122 84.9943L104.082 85.011C102.546 85.6413 101.626 86.3483 101.159 86.708L101.158 86.7089L101.15 86.7147C101.036 86.8021 100.941 86.8751 100.872 86.9253C100.838 86.9502 100.797 86.9783 100.758 87.0015C100.739 87.0127 100.707 87.0305 100.668 87.0463L100.667 87.047C100.644 87.0563 100.538 87.0998 100.401 87.0819C100.315 87.0707 100.2 87.0324 100.103 86.9321C100.008 86.8338 99.9745 86.7218 99.9645 86.645C99.9482 86.5195 99.9839 86.4206 99.9921 86.3978L99.9927 86.3964C100.016 86.3323 100.049 86.276 100.065 86.2506C100.099 86.1933 100.151 86.1167 100.206 86.0339C100.547 85.3442 101.151 84.4922 102.618 83.5625C103.244 83.1655 104.034 82.7506 104.863 82.3161C104.998 82.2451 105.134 82.1736 105.271 82.1016C106.256 81.5824 107.282 81.0272 108.205 80.4103L108.217 80.4023L108.23 80.395C110.277 79.1922 111.709 77.909 112.927 76.7826C113.913 75.6494 114.353 74.7801 114.294 73.9042L114.291 73.8548L114.297 73.8058C114.414 72.9104 114.011 71.6727 113.322 70.5357L113.318 70.5291L113.314 70.5223C113.114 70.1676 112.842 69.8386 112.525 69.4561C112.468 69.388 112.41 69.3182 112.351 69.2462C111.975 68.7881 111.567 68.2623 111.288 67.6212L111.28 67.6036L111.274 67.5855C111.102 67.0896 111 66.5547 110.909 65.9985C110.882 65.8304 110.855 65.6608 110.829 65.4883C110.766 65.0828 110.7 64.6616 110.612 64.2057C110.337 63.1397 109.708 61.5984 109.212 60.4575C108.749 59.6447 108.247 59.1943 107.524 58.7018C107.132 58.5489 106.71 58.3977 106.362 58.304C106.341 58.2984 106.32 58.293 106.3 58.2879C106.333 58.3621 106.37 58.443 106.413 58.5307C106.616 58.942 106.915 59.4517 107.271 60.0391L107.275 60.0458L107.279 60.0526C107.289 60.0709 107.299 60.0893 107.31 60.1077C107.798 60.9723 108.347 61.9463 108.483 62.8976C108.844 63.662 108.97 64.4154 108.825 65.5274C108.697 66.5072 108.044 67.8114 106.995 69.0158C106.789 69.2744 106.559 69.5256 106.326 69.7756C106.286 69.8184 106.246 69.8612 106.206 69.9041C106.006 70.1186 105.803 70.3359 105.597 70.5719C105.107 71.1327 104.615 71.7838 104.196 72.6459C103.364 74.3624 103.035 76.7795 102.89 77.8825C102.892 77.9079 102.895 77.9309 102.897 77.9519C102.949 77.9212 103.013 77.8808 103.089 77.8283C103.287 77.6929 103.524 77.5108 103.82 77.2832C105.1 76.1063 107.241 74.8514 108.165 74.3302C108.4 74.1973 108.641 74.0829 108.846 74.0513C108.926 74.039 109.173 74.0098 109.373 74.1952C109.607 74.4116 109.555 74.6949 109.527 74.7938C109.494 74.9133 109.431 75.0228 109.374 75.1099C109.312 75.2038 109.234 75.3044 109.144 75.41C108.964 75.6206 108.716 75.8737 108.402 76.1641C107.37 77.1568 105.401 78.6646 102.37 80.0249L102.363 80.0282L102.356 80.0313C100.839 80.6536 99.1273 81.298 97.5086 81.9075C97.4128 81.9435 97.3174 81.9794 97.2224 82.0152C95.5144 82.6585 93.9365 83.2562 92.8051 83.7488L92.7875 83.7565L92.7694 83.7628C91.8797 84.0714 91.276 84.3769 90.6988 84.6691C90.5664 84.7361 90.4354 84.8024 90.3027 84.8678C89.5811 85.2237 88.8469 85.5328 87.6796 85.7232L87.6616 85.7261L87.6435 85.7277C85.6427 85.906 81.9434 85.8579 78.0763 85.7836C74.2087 85.7094 69.8864 85.7917 67.288 85.8835L67.2694 85.8841L67.2508 85.8834C65.5738 85.8176 64.67 85.96 64.0408 86.0928C64.7552 86.1779 65.6468 86.3131 66.7073 86.5348C67.5598 86.6468 68.5263 86.8122 69.583 86.9932C72.0377 87.4135 74.9793 87.9172 78.1107 88.0267C82.3635 88.155 86.7085 87.6542 90.2234 87.0403C93.7647 86.2142 96.4336 85.2843 97.7687 84.6258L97.7966 84.612L97.826 84.6018C98.16 84.4859 98.4252 84.3877 98.6357 84.3084C98.6886 84.2885 98.7391 84.2694 98.787 84.2513C98.9245 84.1991 99.0406 84.1551 99.1307 84.1239C99.1921 84.1026 99.2564 84.0818 99.3174 84.0673C99.3678 84.0553 99.4684 84.0337 99.5821 84.0486C99.7297 84.0678 99.9164 84.1547 100.011 84.3619C100.079 84.5109 100.062 84.6513 100.056 84.6957L100.029 84.901L99.8649 85.0273C99.8504 85.0384 99.831 85.0549 99.8061 85.076C99.6891 85.1753 99.4508 85.3775 99.0322 85.6137C98.5267 85.8989 97.7476 86.2455 96.4915 86.6302C94.2081 87.4217 90.132 88.6308 85.9164 89.1713C81.6941 89.7126 77.565 89.6081 73.6978 89.32L73.6839 89.319L73.6702 89.3172C72.2157 89.1272 70.8332 88.9193 69.5406 88.7249C67.2021 88.3732 65.1581 88.0658 63.5152 87.989L63.512 87.9889C62.1269 87.9153 61.094 87.939 60.325 88.0885C59.5653 88.2361 59.1119 88.4967 58.8225 88.8618L58.8017 88.8882L58.7774 88.9115C58.3947 89.2798 58.1745 89.8248 58.0856 90.5051C57.9969 91.184 58.0458 91.9503 58.1577 92.6991L58.1589 92.7074L58.1599 92.7157C58.3574 94.4247 58.7781 95.8527 59.9982 96.9898C61.2495 98.1562 63.6108 99.1014 65.6795 99.5851C67.9559 100.095 70.0515 100.37 72.8168 100.517C75.5727 100.663 79.0277 100.472 81.2076 100.324L81.2076 100.324L81.2164 100.324C82.4211 100.263 83.1718 100.209 83.9162 99.962C84.6555 99.7171 85.4226 99.2699 86.608 98.3582C87.7953 97.445 89.3657 96.0951 90.8909 94.7784C90.978 94.7032 91.0649 94.6281 91.1516 94.5532C92.5744 93.3246 93.9384 92.1467 94.8573 91.4399C95.2771 91.117 95.6048 90.8878 95.829 90.7708C95.8872 90.7405 95.9526 90.71 96.0204 90.688C96.0728 90.671 96.1965 90.6347 96.3412 90.6626C96.4245 90.6787 96.5281 90.719 96.6178 90.8076C96.7083 90.897 96.7511 91.0024 96.7676 91.091C96.7961 91.2431 96.7532 91.3709 96.7348 91.4217C96.6904 91.5437 96.6107 91.6713 96.5335 91.7832C96.4496 91.905 96.341 92.0472 96.2119 92.2067C95.9533 92.5263 95.5965 92.9347 95.1523 93.4207L95.1438 93.43L95.1349 93.4388C93.3761 95.1786 89.9667 97.9921 88.0396 99.4743C87.7954 99.6622 87.5792 99.8256 87.3863 99.9713ZM100.915 86.7779C100.915 86.778 100.915 86.7769 100.916 86.7747C100.915 86.7768 100.915 86.7778 100.915 86.7779ZM114.154 66.0543C114.154 66.0534 114.15 66.0552 114.144 66.0623C114.151 66.0586 114.154 66.0551 114.154 66.0543ZM99.5495 85.04C99.5494 85.04 99.5494 85.04 99.5494 85.04L99.5554 85.0388C99.5552 85.0388 99.5533 85.0391 99.5495 85.04Z" stroke="#4E4E50"/>
<path d="M81.7407 50.7068C84.0561 47.7855 86.3712 45.0393 87.6352 43.8665C87.66 43.8404 87.6841 43.8153 87.7075 43.7911C85.757 44.9975 83.7733 46.3746 82.0708 47.6833C81.0266 48.6132 79.9431 49.7169 78.819 50.8619C78.2499 51.4417 77.6703 52.0321 77.0802 52.6159C75.3424 54.335 73.5236 55.9848 71.711 56.982L71.6948 56.9909L71.6779 56.9986C71.5157 57.0728 71.4547 57.1442 71.4304 57.1858C71.4076 57.2246 71.3908 57.2814 71.4032 57.3811C71.4318 57.6117 71.6012 57.9449 71.9145 58.3525C72.3877 58.968 73.0353 59.5673 73.5022 59.9994C73.6395 60.1264 73.7612 60.2391 73.8582 60.3333C73.9316 60.3967 73.976 60.4262 73.999 60.4395C74.0067 60.4351 74.0166 60.4289 74.0291 60.4203C74.1185 60.3587 74.2538 60.2296 74.4646 59.9772C74.6702 59.7308 74.9235 59.3974 75.2514 58.954C76.5689 57.1729 79.169 53.8332 81.7407 50.7068ZM92.9802 40.9903C91.687 41.5209 90.1725 42.3159 88.6042 43.2474C88.6562 43.2533 88.7145 43.2675 88.7743 43.2963C88.8815 43.348 88.9587 43.4296 89.0067 43.517C89.0886 43.6664 89.075 43.8109 89.0696 43.8582C89.0622 43.9239 89.0457 43.9834 89.0315 44.0276C88.9779 44.1945 88.8642 44.4183 88.7389 44.6455C88.607 44.8845 88.4402 45.166 88.2582 45.463C87.5803 46.5687 86.656 47.9456 86.4259 48.2872C86.3635 48.484 86.3428 48.6204 86.3419 48.7085C86.3416 48.7332 86.3429 48.7518 86.3446 48.7654C86.3892 48.7714 86.4679 48.7711 86.5881 48.7478L86.6186 48.7419L86.6497 48.7398C86.8392 48.7269 87.2358 48.6132 87.8306 48.3971C88.3525 48.2076 88.9719 47.9608 89.6417 47.6939C89.7062 47.6682 89.7711 47.6423 89.8364 47.6163C91.3057 47.0313 92.9978 46.3647 94.2691 46.0818L94.2774 46.0799L94.2858 46.0784C96.7924 45.6094 98.8122 46.113 100.496 47.1301C102.162 48.1363 103.479 49.6335 104.619 51.1167C105.016 51.6327 105.387 52.1406 105.743 52.6286C106.435 53.5753 107.072 54.4473 107.735 55.1586C108.73 56.2262 109.637 56.7635 110.652 56.6356L110.715 56.6276L110.779 56.6359C110.814 56.6404 110.839 56.6416 110.858 56.6413C110.863 56.6142 110.868 56.5696 110.866 56.5007C110.855 56.1005 110.632 55.3399 110.04 54.0728C108.874 51.5747 106.232 47.1471 104.24 44.3088L104.238 44.3061C102.52 41.8248 101.075 40.3983 99.4284 39.8646C97.7978 39.3359 95.843 39.6449 93.0031 40.9802L92.9918 40.9856L92.9802 40.9903ZM86.3513 48.7965C86.3513 48.7964 86.3512 48.796 86.3508 48.7952L86.3513 48.7965ZM110.895 56.6371C110.895 56.637 110.894 56.6373 110.892 56.6381C110.894 56.6375 110.895 56.6371 110.895 56.6371ZM110.848 56.6762C110.847 56.677 110.847 56.6774 110.847 56.6774L110.848 56.6762ZM73.9776 60.45C73.9776 60.45 73.9783 60.4498 73.9796 60.4493C73.9783 60.4496 73.9777 60.4499 73.9776 60.45Z" stroke="#4E4E50"/>
<path d="M98.3419 48.665L98.3148 48.6568L98.2888 48.6455C97.0265 48.0995 95.4218 48.2556 93.1897 48.8273C90.959 49.3985 88.5675 50.1366 86.9911 51.1612C86.3281 51.6738 85.932 52.1549 85.6522 52.6637C85.369 53.1788 85.1933 53.7415 84.9938 54.4556C84.9174 55.0506 84.8713 55.6838 84.8562 56.2357C85.1068 55.757 85.406 55.2063 85.7319 54.7231C86.5808 53.4647 87.8645 52.4524 89.3318 52.149C90.5592 51.6293 91.9757 51.5654 92.9339 51.9424L92.9655 51.9549L92.9951 51.9715C94.1593 52.6234 94.5572 53.4659 95.2006 55.0328C95.6353 55.7272 96.0404 56.601 96.4113 57.4007C96.433 57.4477 96.4547 57.4945 96.4763 57.5409C96.8858 58.4231 97.2419 59.1695 97.5698 59.5959L97.5914 59.6241L97.6089 59.655C97.6141 59.6644 97.6193 59.6734 97.6244 59.6821C97.6274 59.6755 97.6306 59.6687 97.6337 59.6617C97.7082 59.4974 97.7861 59.285 97.873 59.0288L97.8945 58.9654L97.932 58.9099C98.4221 58.1833 99.0518 56.6015 99.4543 55.1569L99.4634 55.124L99.477 55.0927C100.056 53.7534 100.216 52.5651 100.177 51.3389C100.055 50.7307 99.8409 50.1304 99.5312 49.6472C99.2161 49.1555 98.8202 48.8104 98.3419 48.665Z" stroke="#4E4E50"/>
<path d="M78.2898 65.8638C80.0716 67.2766 82.9071 69.0095 84.4214 69.7387C83.8691 69.0187 83.1412 68.038 82.3243 66.2578C81.2178 64.5517 80.0528 61.7767 79.6271 59.9486C79.413 59.0293 79.3697 58.3649 79.4258 57.9355C79.4506 57.7458 79.5061 57.5005 79.6649 57.3282C79.7584 57.2267 79.9305 57.1099 80.1628 57.1363C80.3249 57.1547 80.4412 57.2354 80.5165 57.3107C80.702 57.4591 80.8235 57.6747 80.9075 57.8577C81.0079 58.0762 81.0938 58.3386 81.1701 58.616C81.3212 59.165 81.453 59.8426 81.5797 60.4955C82.0085 62.0097 82.6408 63.55 83.8629 65.3828C85.3308 67.2912 87.1514 69.4101 88.4635 70.4143C89.0785 70.7739 89.5452 70.8654 90.018 70.821C90.5307 70.7728 91.0851 70.5642 91.8921 70.2332C93.6969 69.4073 96.2064 68.04 97.8355 66.9789C98.53 66.351 98.9305 65.8623 99.1704 65.4512C99.408 65.0441 99.5 64.6932 99.5489 64.3186L99.5569 64.2576L99.5794 64.2003C99.7157 63.8539 99.7504 63.5923 99.7637 63.308C99.7671 63.2336 99.769 63.1511 99.7711 63.0616C99.7763 62.8342 99.7825 62.5609 99.8186 62.2564C99.8053 62.1411 99.7918 62.0242 99.7787 61.9065C99.4241 62.6525 98.9526 63.4931 98.3552 64.1872C97.5097 65.6048 96.4228 66.8735 94.7101 67.3732C93.1932 68.1046 91.3578 68.0751 89.6533 67.8524L89.6224 67.8484L89.5923 67.8406C87.7745 67.3681 86.3052 66.2314 84.9897 64.2617L84.9715 64.2345L84.957 64.2051C83.8852 62.0309 83.4207 58.8604 83.328 56.2319L83.3274 56.2133L83.3281 56.1947C83.4203 53.846 83.8688 51.9568 84.5222 50.1188C84.4736 50.0156 84.4134 49.9131 84.3499 49.8235C84.1767 50.0793 83.9052 50.4689 83.4318 51.0133C82.6263 52.2075 81.2851 54.1937 79.7309 56.1547C78.9437 57.1479 78.1119 58.0774 77.3853 58.8756C77.2583 59.0152 77.1351 59.1501 77.0162 59.2803C76.4464 59.9042 75.9755 60.4197 75.666 60.8102C75.2635 61.318 75.1422 61.5289 75.1108 61.663C75.0932 61.7386 75.0921 61.8217 75.2604 62.1631L75.2742 62.191L75.2844 62.2205C75.5589 63.0125 76.3843 64.3529 78.2898 65.8638ZM84.1596 49.6129C84.1596 49.6131 84.1615 49.6144 84.1652 49.6165C84.1615 49.6138 84.1596 49.6128 84.1596 49.6129Z" stroke="#4E4E50"/>
<path d="M90.5089 54.3315C90.6532 54.034 90.8619 53.7962 91.0683 53.6096C91.0055 53.6265 90.942 53.6428 90.8803 53.6586L90.8671 53.662C90.7087 53.7025 90.5461 53.7443 90.3773 53.797C90.04 53.9023 89.7024 54.0444 89.4073 54.2713L89.3681 54.3015L89.3237 54.3234C89.0392 54.4637 88.7224 54.7035 88.4387 54.9871C88.1604 55.2654 87.9421 55.5578 87.8237 55.7948C87.5424 56.5182 87.4426 57.2619 87.5235 58.0325C87.585 58.2117 87.6418 58.3865 87.6982 58.5601C87.7899 58.8421 87.8805 59.1208 87.9881 59.4094C88.1627 59.8776 88.3519 60.2814 88.583 60.582C89.021 61.1518 89.6877 61.443 90.6895 61.5738L90.7386 61.5803L90.7855 61.5962C91.2417 61.7511 91.8276 61.8308 92.4365 61.8835C92.6551 61.9025 92.8838 61.9182 93.1073 61.9336C93.4478 61.9571 93.7761 61.9797 94.0377 62.0114C94.9614 61.9467 95.5401 61.8423 95.9289 61.7258C96.0535 61.5776 96.1914 61.4561 96.2884 61.3706C96.3156 61.3466 96.3397 61.3254 96.3593 61.3073C96.4218 61.2495 96.4581 61.2092 96.4795 61.1799C96.3438 60.795 96.1773 60.3721 95.7315 59.5815L95.7246 59.5694L95.7185 59.557C95.6103 59.3374 95.484 59.0411 95.3525 58.7327C95.2715 58.5425 95.1885 58.3478 95.1066 58.1637C94.8772 57.648 94.6414 57.1775 94.4042 56.8689L94.3548 56.8046L94.3282 56.7279C94.1791 56.2978 94.0335 56.0215 93.8838 55.8488C93.7487 55.6929 93.6065 55.6158 93.4154 55.5909L93.2983 55.5756L93.2005 55.5096C93.1268 55.4598 93.0433 55.4397 92.9073 55.4554C92.7763 55.4706 92.6326 55.5141 92.4469 55.5773C92.4368 55.5903 92.4255 55.6058 92.4136 55.6241C92.3761 55.6813 92.3387 55.7543 92.3094 55.8349C92.2462 56.009 92.2448 56.1479 92.2713 56.2245L92.31 56.336L92.2947 56.453C92.2612 56.7094 92.278 56.9019 92.3462 57.0987C92.4187 57.3078 92.5595 57.5515 92.823 57.8943L92.8532 57.9335L92.875 57.9779C93.0153 58.2625 93.255 58.5793 93.5385 58.8631C93.8232 59.1479 94.1226 59.3699 94.3624 59.4862L94.4686 59.5378L94.5405 59.6314L94.9561 60.1719L95.0599 60.307L95.0859 60.3408L95.0924 60.3492L95.094 60.3513L95.0944 60.3518L95.0945 60.352L95.0945 60.352L95.0946 60.352L94.6982 60.6568L95.0946 60.352L95.8301 61.3089L94.6334 61.1525L94.6236 61.1513C94.4147 61.124 93.9421 61.0624 93.4752 60.7784C93.1639 60.7041 92.867 60.5105 92.611 60.2963C92.3074 60.0422 91.9987 59.7057 91.7067 59.3259C91.7002 59.3174 91.6935 59.3087 91.6868 59.3C91.3352 58.843 90.7341 58.0615 90.5928 57.085C90.4095 56.6814 90.3058 56.2003 90.2804 55.7425C90.2537 55.2613 90.3101 54.7415 90.5089 54.3315Z" stroke="#4E4E50"/>
<path d="M97.1713 62.9551C97.3298 62.672 97.4901 62.3723 97.6394 62.0797C97.1972 62.4067 96.636 62.7963 95.9692 63.1725L95.9572 63.1794L95.9447 63.1855C95.1618 63.5717 93.9445 63.8734 92.3614 63.6666C91.0467 63.4949 89.5208 63.0746 88.4414 62.4702L88.4233 62.46L88.406 62.4484C87.7844 62.0289 87.3014 61.6129 86.9342 61.1352C86.5633 60.6527 86.3269 60.1288 86.1699 59.5154C86.0837 59.1783 86.0333 58.848 86.0015 58.5461C85.962 58.7092 85.9282 58.8867 85.9033 59.0773C85.7735 60.0716 85.8155 61.2917 86.0754 62.3331C86.5479 63.413 87.0286 64.2522 87.6953 64.9194C88.6727 65.4666 89.6056 65.9834 90.5534 66.3116C91.5398 66.4339 92.5294 66.3585 93.333 66.0798L93.3848 66.0618L93.4394 66.0555C94.155 65.9727 94.7655 65.519 95.5105 64.946C96.1713 64.4377 96.6368 63.91 97.1713 62.9551Z" stroke="#4E4E50"/>
<path d="M104.035 56.6337L104.031 56.6148L104.029 56.5958C103.97 56.0856 104.027 55.656 104.103 55.3067C104.134 55.1634 104.169 55.0295 104.199 54.9168C104.204 54.8954 104.21 54.8748 104.215 54.855C104.238 54.767 104.255 54.6979 104.266 54.6406C104.208 54.4164 104.082 54.1583 103.894 53.8612C103.684 53.5305 103.422 53.1887 103.142 52.8243C102.879 52.482 102.562 52.1294 102.229 51.7589L102.222 51.7508C102.042 51.5504 101.857 51.3446 101.678 51.137C101.737 51.9765 101.629 52.8004 101.508 53.7309L101.503 53.7664L101.495 53.8274L101.473 53.8847C101.324 54.2632 101.222 54.6521 101.112 55.0745L101.109 55.0869C101.007 55.4788 100.898 55.9004 100.737 56.3204C100.686 56.7167 100.636 57.09 100.566 57.4137C100.512 57.6614 100.442 57.9056 100.335 58.1272C100.411 58.0758 100.507 58.0396 100.623 58.0382C100.801 58.0361 100.926 58.1218 100.977 58.1616C101.037 58.2088 101.083 58.2618 101.114 58.3025C101.232 58.4565 101.339 58.69 101.423 58.9331L101.462 59.0446L101.446 59.1616C101.415 59.4061 101.413 59.6945 101.412 60.0656C101.412 60.1183 101.411 60.1728 101.411 60.229C101.409 60.6653 101.399 61.1758 101.326 61.7391C101.263 62.2166 101.167 62.7259 101.083 63.1738C101.066 63.2609 101.05 63.3458 101.035 63.4276C101.136 63.3173 101.248 63.2066 101.365 63.1166L101.405 63.0864L101.449 63.0645C101.781 62.9006 102.138 62.7455 102.493 62.792C102.895 62.8445 103.149 63.1244 103.341 63.3746C103.511 63.5957 103.606 63.9262 103.671 64.2631C103.741 64.6245 103.794 65.0863 103.831 65.6412L103.834 65.6906L103.828 65.7397C103.762 66.2449 103.742 66.7958 103.784 67.2122C103.796 67.3247 103.811 67.4181 103.827 67.4929C103.952 67.3986 104.105 67.2566 104.28 67.0703C104.661 66.6666 105.094 66.1078 105.483 65.533C105.753 65.0483 105.954 64.6297 106.072 64.2651C106.193 63.8952 106.219 63.6149 106.176 63.3965L106.161 63.3168L106.171 63.2364C106.251 62.622 106.178 62.2735 106.073 61.7791C106.054 61.6897 106.034 61.5954 106.014 61.4939C105.891 61.2385 105.769 60.9555 105.646 60.6674C105.601 60.5643 105.557 60.4606 105.512 60.3572C105.327 59.9328 105.125 59.4916 104.875 59.0475L104.868 59.0354L104.862 59.0229C104.503 58.2956 104.173 57.3481 104.035 56.6337ZM101.077 58.6812L101.077 58.6842C101.077 58.6829 101.077 58.682 101.077 58.6815L101.077 58.6812ZM99.8044 58.4803C99.8044 58.4804 99.8062 58.4797 99.8098 58.4776C99.8063 58.4792 99.8044 58.4802 99.8044 58.4803ZM103.894 67.688C103.894 67.6877 103.893 67.6849 103.889 67.6804C103.892 67.6861 103.894 67.6883 103.894 67.688ZM103.652 67.6017C103.65 67.6022 103.649 67.6026 103.649 67.6026C103.649 67.6027 103.65 67.6024 103.652 67.6017Z" stroke="#4E4E50"/>
</svg>
