<svg width="391" height="77" viewBox="0 0 391 77" fill="none" xmlns="http://www.w3.org/2000/svg">
<path d="M64.5051 38.5H161.505" stroke="white" stroke-width="2"/>
<path d="M188.695 64.568C185.965 64.568 183.554 64.0133 181.463 62.904C179.415 61.8373 177.815 60.408 176.663 58.616C175.554 56.824 174.999 54.84 174.999 52.664C174.999 50.744 175.405 48.8667 176.215 47.032C177.026 45.1973 178.157 43.512 179.607 41.976C181.058 40.44 182.786 39.16 184.791 38.136C186.797 37.0693 188.973 36.3653 191.319 36.024C189.826 34.6587 188.674 33.144 187.863 31.48C187.095 29.816 186.711 28.1307 186.711 26.424C186.711 24.12 187.287 21.944 188.439 19.896C189.591 17.848 191.213 16.184 193.303 14.904C195.437 13.624 197.89 12.984 200.663 12.984C203.223 12.984 205.165 13.6027 206.487 14.84C207.853 16.0347 208.535 17.784 208.535 20.088C208.535 21.7093 208.258 23.3093 207.703 24.888C207.149 26.424 206.466 27.704 205.655 28.728C204.845 29.7093 204.034 30.2 203.223 30.2C202.626 30.2 202.05 29.944 201.495 29.432C200.983 28.8773 200.535 28.2587 200.151 27.576C201.73 26.296 203.031 24.952 204.055 23.544C205.122 22.136 205.655 20.6853 205.655 19.192C205.655 17.9973 205.314 17.0373 204.631 16.312C203.949 15.544 202.861 15.16 201.367 15.16C199.447 15.16 197.826 15.7147 196.503 16.824C195.181 17.9333 194.178 19.384 193.495 21.176C192.813 22.9253 192.471 24.8453 192.471 26.936C192.471 27.9173 192.557 29.0053 192.727 30.2C192.941 31.3947 193.389 32.6107 194.071 33.848C194.754 35.0427 195.778 36.1947 197.143 37.304C194.071 37.7733 191.405 38.84 189.143 40.504C186.882 42.1253 185.133 44.024 183.895 46.2C182.658 48.376 182.039 50.5307 182.039 52.664C182.039 53.944 182.295 55.2667 182.807 56.632C183.362 57.9973 184.258 59.1493 185.495 60.088C186.733 61.0267 188.354 61.496 190.359 61.496C192.663 61.496 194.861 60.9627 196.951 59.896C199.042 58.8293 200.941 57.4 202.647 55.608C204.397 53.7733 205.826 51.7253 206.935 49.464C208.045 47.2027 208.749 44.8773 209.047 42.488C208.237 42.5307 207.447 42.5947 206.679 42.68C205.954 42.7653 205.101 42.8933 204.119 43.064C203.181 43.2347 201.922 43.4693 200.343 43.768C200.386 41.592 201.111 40.1413 202.519 39.416C203.927 38.6907 205.613 38.328 207.575 38.328C208.941 38.328 210.178 38.4133 211.287 38.584C212.439 38.7547 213.57 38.9467 214.679 39.16C215.831 39.3307 217.111 39.416 218.519 39.416C217.837 40.824 217.218 41.6773 216.663 41.976C216.151 42.232 215.639 42.36 215.127 42.36C214.359 42.36 213.698 42.3813 213.143 42.424C212.631 42.424 212.098 42.424 211.543 42.424C211.245 45.3253 210.413 48.0987 209.047 50.744C207.725 53.3893 206.018 55.7573 203.927 57.848C201.837 59.9387 199.49 61.5813 196.887 62.776C194.285 63.9707 191.554 64.568 188.695 64.568Z" fill="white"/>
<path d="M229.505 37.875L326.495 39.125" stroke="white" stroke-width="2"/>
<path d="M12.4805 6.99985C11.7914 12.2375 15.6314 28.5696 25.9725 34.768C32.7379 38.8232 44.1427 42.2632 45.8647 38.2675C47.5867 34.2718 38.6513 25.0723 35.4192 22.5122C31.8432 19.6797 18.6262 9.64857 12.4805 6.99985Z" fill="white"/>
<path d="M3.09039e-06 39.5017C3.26273 43.6565 17.6241 52.3305 29.2859 49.2712C36.9154 47.2698 47.3489 41.5214 45.6963 37.4965C44.0437 33.4716 31.219 33.4276 27.1288 33.9483C22.6035 34.5244 6.19069 36.9599 3.09039e-06 39.5017Z" fill="white"/>
<path d="M377.54 7.99985C378.229 13.2375 374.389 29.5696 364.048 35.768C357.283 39.8232 345.878 43.2632 344.156 39.2675C342.434 35.2718 351.369 26.0723 354.601 23.5122C358.177 20.6797 371.394 10.6486 377.54 7.99985Z" fill="white"/>
<path d="M390.021 40.5017C386.758 44.6565 372.396 53.3305 360.735 50.2712C353.105 48.2698 342.672 42.5214 344.324 38.4965C345.977 34.4716 358.801 34.4276 362.892 34.9483C367.417 35.5244 383.83 37.9599 390.021 40.5017Z" fill="white"/>
</svg>
