<svg width="46" height="46" viewBox="0 0 46 46" fill="none" xmlns="http://www.w3.org/2000/svg">
<rect x="1" y="1" width="44" height="44" rx="22" stroke="white" stroke-width="2"/>
<path d="M23.5326 11.2203C23.4629 11.1505 23.3801 11.0951 23.2889 11.0573C23.1978 11.0195 23.1001 11 23.0014 11C22.9028 11 22.805 11.0195 22.7139 11.0573C22.6228 11.0951 22.54 11.1505 22.4703 11.2203L17.9692 15.7201C17.8995 15.7898 17.8442 15.8726 17.8064 15.9637C17.7687 16.0548 17.7492 16.1524 17.7492 16.251C17.7492 16.3497 17.7687 16.4473 17.8064 16.5384C17.8442 16.6295 17.8995 16.7123 17.9692 16.782C18.039 16.8517 18.1218 16.9071 18.2129 16.9448C18.304 16.9825 18.4017 17.002 18.5004 17.002C18.599 17.002 18.6967 16.9825 18.7878 16.9448C18.8789 16.9071 18.9617 16.8517 19.0315 16.782L22.2512 13.5617V29.7503C22.2512 29.9492 22.3303 30.1399 22.471 30.2806C22.6117 30.4212 22.8025 30.5003 23.0014 30.5003C23.2004 30.5003 23.3912 30.4212 23.5319 30.2806C23.6726 30.1399 23.7516 29.9492 23.7516 29.7503V13.5617L26.9714 16.782C27.1122 16.9228 27.3033 17.002 27.5025 17.002C27.7017 17.002 27.8928 16.9228 28.0336 16.782C28.1745 16.6412 28.2536 16.4502 28.2536 16.251C28.2536 16.0519 28.1745 15.8609 28.0336 15.7201L23.5326 11.2203ZM17 29.0003C16.9994 27.8047 17.3562 26.6362 18.0245 25.6448C18.6928 24.6533 19.6422 23.884 20.7509 23.4356V25.1021C19.8928 25.5973 19.2222 26.3618 18.843 27.277C18.4638 28.1921 18.3973 29.2068 18.6537 30.1636C18.9102 31.1204 19.4753 31.9658 20.2613 32.5688C21.0474 33.1718 22.0106 33.4987 23.0014 33.4987C23.9923 33.4987 24.9554 33.1718 25.7415 32.5688C26.5276 31.9658 27.0927 31.1204 27.3491 30.1636C27.6056 29.2068 27.5391 28.1921 27.1599 27.277C26.7807 26.3618 26.1101 25.5973 25.252 25.1021V23.4371C26.5424 23.96 27.6108 24.915 28.2744 26.1387C28.938 27.3625 29.1554 28.7787 28.8895 30.145C28.6235 31.5114 27.8908 32.7428 26.8166 33.6285C25.7425 34.5141 24.3938 34.999 23.0014 35C21.4097 35 19.8833 34.3679 18.7578 33.2427C17.6323 32.1176 17 30.5915 17 29.0003Z" fill="white" fill-opacity="0.941176"/>
</svg>
