<svg width="28" height="28" viewBox="0 0 28 28" fill="none" xmlns="http://www.w3.org/2000/svg">
<path d="M5.25 9.11719H14C14.174 9.11719 14.341 9.04805 14.464 8.92498C14.5871 8.80191 14.6562 8.63499 14.6562 8.46094C14.6562 8.28689 14.5871 8.11997 14.464 7.9969C14.341 7.87383 14.174 7.80469 14 7.80469H5.25C5.07595 7.80469 4.90903 7.87383 4.78596 7.9969C4.66289 8.11997 4.59375 8.28689 4.59375 8.46094C4.59375 8.63499 4.66289 8.80191 4.78596 8.92498C4.90903 9.04805 5.07595 9.11719 5.25 9.11719Z" fill="#070C17"/>
<path d="M23.4062 14C23.4062 13.826 23.3371 13.659 23.214 13.536C23.091 13.4129 22.924 13.3438 22.75 13.3438H5.25C5.07595 13.3438 4.90903 13.4129 4.78596 13.536C4.66289 13.659 4.59375 13.826 4.59375 14C4.59375 14.174 4.66289 14.341 4.78596 14.464C4.90903 14.5871 5.07595 14.6562 5.25 14.6562H22.75C22.924 14.6562 23.091 14.5871 23.214 14.464C23.3371 14.341 23.4062 14.174 23.4062 14Z" fill="#070C17"/>
<path d="M22.75 18.8818H14C13.826 18.8818 13.659 18.951 13.536 19.074C13.4129 19.1971 13.3438 19.364 13.3438 19.5381C13.3438 19.7121 13.4129 19.8791 13.536 20.0021C13.659 20.1252 13.826 20.1943 14 20.1943H22.75C22.924 20.1943 23.091 20.1252 23.214 20.0021C23.3371 19.8791 23.4062 19.7121 23.4062 19.5381C23.4062 19.364 23.3371 19.1971 23.214 19.074C23.091 18.951 22.924 18.8818 22.75 18.8818Z" fill="#070C17"/>
</svg>
