<svg width="36" height="37" viewBox="0 0 36 37" fill="none" xmlns="http://www.w3.org/2000/svg">
<path d="M13.8462 4.65385C13.8462 2.35974 15.7059 0.5 18 0.5C20.2941 0.5 22.1538 2.35974 22.1538 4.65385V32.3462C22.1538 34.6403 20.2941 36.5 18 36.5C15.7059 36.5 13.8462 34.6403 13.8462 32.3462V4.65385Z" fill="#06E51C"/>
<path d="M3.95122 22.4512C1.76902 22.4512 0 20.6822 0 18.5C0 16.3178 1.76902 14.5488 3.95122 14.5488H32.0488C34.231 14.5488 36 16.3178 36 18.5C36 20.6822 34.231 22.4512 32.0488 22.4512H3.95122Z" fill="#06E51C"/>
<path d="M5.13114 11.8468C3.45341 10.2509 3.45342 7.57561 5.13114 5.97973C6.69431 4.49281 9.14885 4.49281 10.712 5.97973L30.8689 25.1533C32.5466 26.7492 32.5466 29.4245 30.8689 31.0204C29.3057 32.5073 26.8511 32.5073 25.288 31.0204L5.13114 11.8468Z" fill="#06E51C"/>
<path d="M25.288 5.97968C26.8511 4.49276 29.3057 4.49276 30.8689 5.97969C32.5466 7.57557 32.5466 10.2509 30.8689 11.8468L10.712 31.0203C9.14885 32.5073 6.69432 32.5073 5.13114 31.0203C3.45342 29.4245 3.45342 26.7491 5.13114 25.1533L25.288 5.97968Z" fill="#06E51C"/>
</svg>
