<?xml version="1.0" standalone="no"?>
<!DOCTYPE svg PUBLIC "-//W3C//DTD SVG 20010904//EN"
 "http://www.w3.org/TR/2001/REC-SVG-20010904/DTD/svg10.dtd">
<svg version="1.0" xmlns="http://www.w3.org/2000/svg"
 width="229.000000pt" height="330.000000pt" viewBox="0 0 229.000000 330.000000"
 preserveAspectRatio="xMidYMid meet">

<g transform="translate(0.000000,330.000000) scale(0.100000,-0.100000)"
fill="#000000" stroke="none">
<path d="M1773 3235 c-133 -36 -262 -135 -333 -254 -39 -65 -70 -160 -70 -212
0 -29 -4 -29 107 -4 16 4 26 19 37 58 20 68 100 175 161 215 86 57 148 74 251
70 73 -3 101 -9 147 -32 77 -37 157 -112 189 -178 l27 -53 1 127 0 127 -53 40
c-130 99 -314 136 -464 96z"/>
<path d="M1535 2756 c-253 -56 -476 -108 -497 -115 -47 -16 -122 -81 -152
-134 -14 -23 -50 -114 -81 -202 -381 -1076 -476 -1339 -486 -1343 -5 -2 -5
-10 -2 -18 3 -8 -1 -14 -8 -14 -7 0 -9 -3 -6 -7 4 -3 2 -12 -4 -20 -6 -7 -8
-13 -4 -13 4 0 2 -7 -5 -15 -7 -8 -9 -15 -5 -15 4 0 3 -6 -3 -13 -15 -18 -240
-655 -253 -717 -8 -40 -8 -62 0 -92 l12 -39 482 5 c265 2 492 6 504 8 17 2 19
6 10 17 -10 12 -9 12 11 2 14 -7 22 -8 22 -1 0 5 7 10 15 10 8 0 15 4 15 9 0
5 7 12 16 15 10 4 13 2 8 -7 -5 -8 -2 -8 9 2 9 7 23 11 31 8 11 -4 13 -1 9 10
-5 12 -2 15 10 10 10 -4 20 0 26 11 6 9 11 13 11 9 0 -5 7 -1 16 7 21 22 40
20 23 -1 -13 -17 -13 -17 7 0 11 9 24 14 27 11 4 -4 9 1 13 10 3 9 12 16 20
16 8 0 14 6 14 13 0 8 4 7 10 -3 9 -13 12 -13 21 3 13 22 30 22 23 0 -4 -10 3
-4 15 12 11 17 21 24 21 16 0 -10 5 -9 18 5 15 17 26 23 57 28 6 1 16 5 23 10
7 4 16 6 19 3 3 -3 15 3 26 14 12 11 27 17 34 15 7 -3 13 -1 13 5 0 6 9 8 20
4 14 -4 20 -2 18 6 -2 7 3 14 10 15 6 1 15 3 20 4 4 2 16 4 27 5 31 2 75 27
75 42 0 11 22 18 34 11 2 -2 12 5 23 14 13 12 30 16 52 13 25 -3 31 -1 27 11
-3 8 -2 14 2 15 27 3 46 9 55 18 6 6 18 11 27 11 8 0 28 7 44 15 16 9 31 13
34 10 3 -2 10 2 16 9 6 8 20 16 31 18 11 2 26 9 33 16 8 7 18 10 23 6 5 -3 23
4 39 16 17 12 30 18 30 14 0 -3 7 -1 15 6 13 11 15 123 15 897 l0 885 -41 -37
c-51 -46 -192 -115 -235 -115 -67 0 -96 89 -44 132 11 9 44 24 73 33 75 25
142 70 181 123 58 81 66 104 66 195 0 81 -1 84 -32 115 -47 45 -121 74 -198
78 -54 3 -145 -14 -525 -100z"/>
<path d="M2235 519 c-3 -4 2 -6 10 -5 21 3 28 13 10 13 -9 0 -18 -4 -20 -8z"/>
<path d="M1860 370 c-9 -6 -10 -10 -3 -10 6 0 15 5 18 10 8 12 4 12 -15 0z"/>
<path d="M1815 340 c-3 -6 1 -7 9 -4 18 7 21 14 7 14 -6 0 -13 -4 -16 -10z"/>
</g>
</svg>
