<svg width="103" height="24" viewBox="0 0 103 24" fill="none" xmlns="http://www.w3.org/2000/svg">
<path d="M59.6789 21.2456C59.6789 21.4393 59.74 21.5517 59.8523 21.5517C59.9472 21.5517 60.0258 21.5008 60.0972 21.4496L91.89 0.815537C92.4271 0.440056 93.0707 0.246948 93.7258 0.264636H100.713C101.784 0.264636 102.508 0.978489 102.508 2.04957V15.3908C102.508 17.0023 102.151 17.9408 100.723 18.7974L92.2469 23.8974C92.1623 23.9562 92.0623 23.9996 91.9613 23.9996C91.8605 23.9996 91.7574 23.9179 91.7574 23.6221V8.0574C91.7574 7.87367 91.7065 7.75138 91.5839 7.75138C91.4945 7.75138 91.4095 7.79716 91.3391 7.85349L68.1038 22.9493C67.5734 23.3062 66.9511 23.5002 66.3189 23.4899H50.9171C49.8358 23.4899 49.1219 22.7761 49.1219 21.6947V2.46825C49.1219 2.32548 49.0608 2.19295 48.9382 2.19295C48.849 2.19295 48.7644 2.23963 48.6933 2.29505L33.3635 11.4947C33.2105 11.5969 33.1698 11.6682 33.1698 11.7396C33.1698 11.8008 33.2006 11.8619 33.3024 11.9743L44.2569 22.9185C44.3997 23.0613 44.5018 23.1736 44.5018 23.2959C44.5018 23.398 44.3385 23.4797 44.1448 23.4797H34.2509C33.4756 23.4797 32.8738 23.3673 32.4557 22.9493L25.8156 16.3194C25.7647 16.2586 25.6915 16.2173 25.6117 16.2173C25.5397 16.2173 25.4696 16.2417 25.4078 16.2785L14.3105 22.9493C13.6373 23.3574 13.1783 23.4694 12.5153 23.4694H2.30542C1.21416 23.4797 0.5 22.7556 0.5 21.6845V8.59806C0.5 6.97638 0.856927 6.04807 2.29518 5.19144L10.8223 0.0712632C10.8886 0.0261781 10.9665 0.001373 11.0467 -0.00012207C11.1792 -0.00012207 11.2506 0.132407 11.2506 0.42819V17.9514C11.2506 18.1351 11.2913 18.2164 11.4241 18.2164C11.5144 18.2164 11.5976 18.1655 11.6792 18.1143L40.4834 0.784818C41.0343 0.407408 41.7075 0.223974 42.3807 0.254396H57.8843C58.9554 0.254396 59.6795 0.968249 59.6795 2.03933L59.6692 21.2456H59.6789Z" fill="#D0D0D0"/>
</svg>
