<svg width="42" height="34" viewBox="0 0 42 34" fill="none" xmlns="http://www.w3.org/2000/svg">
<path d="M41.3264 0H21.7392C21.2493 0 20.7769 0.152266 20.3745 0.429926L0.297438 14.2503C0.113726 14.3757 0 14.5906 0 14.8145V20.8156C0 21.1918 0.297438 21.4963 0.664862 21.4963H5.89627C6.50864 21.4963 6.75359 22.3114 6.2462 22.6607L0.297438 26.754C0.113726 26.8793 0 27.0943 0 27.3182V33.3193C0 33.6955 0.297438 34 0.664862 34H20.252C20.7419 34 21.2143 33.8477 21.6167 33.5701L41.7026 19.7408C41.8863 19.6154 42 19.4004 42 19.1765V13.1754C42 12.7993 41.7026 12.4947 41.3351 12.4947H36.1037C35.4914 12.4947 35.2464 11.6797 35.7538 11.3303L41.7026 7.23709C41.8863 7.1117 42 6.89673 42 6.67281V0.680717C42 0.304531 41.7026 0 41.3351 0H41.3264ZM9.73672 20.2961L20.392 12.9605C20.7857 12.6918 21.2493 12.5485 21.7217 12.5485H31.9046C32.517 12.5485 32.7619 13.3635 32.2545 13.7129L21.5993 21.0485C21.2056 21.3172 20.7419 21.4605 20.2695 21.4605H10.0866C9.47428 21.4605 9.22933 20.6454 9.73672 20.2961Z" fill="#0D0D0D"/>
</svg>
