<svg width="40" height="30" viewBox="0 0 40 30" fill="none" xmlns="http://www.w3.org/2000/svg">
<path d="M2.08773 21.6146C0.686605 25.2434 -0.013958 27.0578 0.86176 28.335C1.73748 29.6123 3.68241 29.6129 7.57226 29.6141L18.0437 29.6172L29.4834 29.6172L32.8352 20.5097C32.8358 20.5081 32.8346 20.5064 32.8329 20.5064C32.8312 20.5064 32.83 20.5047 32.8306 20.5031L34.3075 16.4818C34.455 16.0802 34.1591 15.654 33.7329 15.654H23.5987C23.3422 15.654 23.1128 15.8145 23.0241 16.0562L21.1338 21.3221C21.045 21.5638 20.8157 21.7244 20.5591 21.7244C20.1435 21.7244 18.9755 21.7241 17.5632 21.7236C14.1617 21.7226 12.461 21.722 11.6615 20.606C10.8621 19.4899 11.4087 17.8795 12.5021 14.6587L12.9925 13.2142C13.584 11.4717 13.8798 10.6005 14.5737 10.1006C15.2677 9.60071 16.1856 9.59617 18.0214 9.5871C23.4863 9.56007 33.234 9.51407 36.2559 9.51407C36.5123 9.51407 36.7415 9.35372 36.8304 9.11224L39.7307 1.23148C39.8785 0.829858 39.5826 0.403249 39.1562 0.403249H20.2482C20.2439 0.403249 20.2409 0.398938 20.2424 0.394862C20.2439 0.390786 20.2409 0.386475 20.2365 0.386475C19.3033 0.386475 18.1027 0.387813 16.8603 0.389733C13.6763 0.394655 12.0843 0.397116 10.8566 1.24051C9.62893 2.08389 9.05491 3.57052 7.90688 6.54378L2.08773 21.6146Z" fill="#7240FF" stroke="url(#paint0_linear_155_2128)" stroke-width="0.198527"/>
<defs>
<linearGradient id="paint0_linear_155_2128" x1="22.27" y1="-7.47276" x2="48.2725" y2="30.8542" gradientUnits="userSpaceOnUse">
<stop stop-color="white"/>
<stop offset="1" stop-color="white" stop-opacity="0"/>
</linearGradient>
</defs>
</svg>
