<svg width="152" height="30" viewBox="0 0 152 30" fill="none" xmlns="http://www.w3.org/2000/svg">
<path d="M3.20297 21.6127C1.80184 25.2414 1.10128 27.0558 1.97699 28.3331C2.85271 29.6104 4.79764 29.6109 8.68749 29.6121L19.1589 29.6153L30.5986 29.6153L33.9504 20.5078C33.951 20.5062 33.9498 20.5045 33.9482 20.5045C33.9465 20.5045 33.9453 20.5028 33.9459 20.5012L35.4227 16.4799C35.5702 16.0783 35.2743 15.652 34.8481 15.652H24.714C24.4574 15.652 24.2281 15.8125 24.1393 16.0542L22.249 21.3202C22.1602 21.5619 21.9309 21.7224 21.6744 21.7224C21.2587 21.7224 20.0907 21.7221 18.6785 21.7217C15.277 21.7206 13.5762 21.7201 12.7768 20.604C11.9773 19.488 12.524 17.8776 13.6173 14.6568L14.1077 13.2123C14.6992 11.4698 14.995 10.5985 15.689 10.0986C16.3829 9.59876 17.3008 9.59422 19.1366 9.58514C24.6015 9.55812 34.3493 9.51211 37.3711 9.51211C37.6275 9.51211 37.8568 9.35177 37.9456 9.11028L40.8459 1.22953C40.9938 0.827905 40.6978 0.401296 40.2714 0.401296H21.3635C21.3591 0.401296 21.3561 0.396984 21.3576 0.392909C21.3591 0.388833 21.3561 0.384521 21.3518 0.384521C20.4185 0.384521 19.2179 0.38586 17.9755 0.38778C14.7915 0.392702 13.1995 0.395163 11.9719 1.23855C10.7442 2.08194 10.1701 3.56857 9.02212 6.54182L3.20297 21.6127Z" fill="#7240FF"/>
<path d="M60.8648 23H59.2648L58.8848 21.32C58.2181 22.08 57.5514 22.6067 56.8848 22.9C56.2181 23.1933 55.4514 23.34 54.5848 23.34C53.5181 23.34 52.5581 23.1467 51.7048 22.76C50.8648 22.36 50.1514 21.82 49.5648 21.14C48.9781 20.46 48.5248 19.6667 48.2048 18.76C47.8981 17.8533 47.7448 16.8867 47.7448 15.86C47.7448 14.8467 47.8981 13.8867 48.2048 12.98C48.5248 12.0733 48.9781 11.28 49.5648 10.6C50.1514 9.92 50.8648 9.38 51.7048 8.98C52.5581 8.58 53.5181 8.38 54.5848 8.38C55.3581 8.38 56.0914 8.48667 56.7848 8.7C57.4914 8.9 58.1181 9.20667 58.6648 9.62C59.2114 10.02 59.6648 10.5267 60.0248 11.14C60.3848 11.7533 60.6114 12.46 60.7048 13.26H58.2648C58.1981 12.7933 58.0514 12.3867 57.8248 12.04C57.6114 11.68 57.3381 11.38 57.0048 11.14C56.6714 10.9 56.2981 10.72 55.8848 10.6C55.4714 10.48 55.0381 10.42 54.5848 10.42C53.8248 10.42 53.1648 10.5733 52.6048 10.88C52.0581 11.1867 51.6114 11.6 51.2648 12.12C50.9181 12.6267 50.6581 13.2067 50.4848 13.86C50.3248 14.5133 50.2448 15.18 50.2448 15.86C50.2448 16.54 50.3248 17.2067 50.4848 17.86C50.6581 18.5133 50.9181 19.1 51.2648 19.62C51.6114 20.1267 52.0581 20.5333 52.6048 20.84C53.1648 21.1467 53.8248 21.3 54.5848 21.3C55.2248 21.3133 55.7914 21.2333 56.2848 21.06C56.7781 20.8733 57.1914 20.6133 57.5248 20.28C57.8714 19.9333 58.1314 19.5133 58.3048 19.02C58.4781 18.5267 58.5714 17.98 58.5848 17.38H54.7848V15.48H60.8648V23ZM71.3205 20.7C71.3205 20.98 71.3539 21.18 71.4205 21.3C71.5005 21.42 71.6472 21.48 71.8605 21.48C71.9272 21.48 72.0072 21.48 72.1005 21.48C72.1939 21.48 72.3005 21.4667 72.4205 21.44V23.02C72.3405 23.0467 72.2339 23.0733 72.1005 23.1C71.9805 23.14 71.8539 23.1733 71.7205 23.2C71.5872 23.2267 71.4539 23.2467 71.3205 23.26C71.1872 23.2733 71.0739 23.28 70.9805 23.28C70.5139 23.28 70.1272 23.1867 69.8205 23C69.5139 22.8133 69.3139 22.4867 69.2205 22.02C68.7672 22.46 68.2072 22.78 67.5405 22.98C66.8872 23.18 66.2539 23.28 65.6405 23.28C65.1739 23.28 64.7272 23.2133 64.3005 23.08C63.8739 22.96 63.4939 22.78 63.1605 22.54C62.8405 22.2867 62.5805 21.9733 62.3805 21.6C62.1939 21.2133 62.1005 20.7667 62.1005 20.26C62.1005 19.62 62.2139 19.1 62.4405 18.7C62.6805 18.3 62.9872 17.9867 63.3605 17.76C63.7472 17.5333 64.1739 17.3733 64.6405 17.28C65.1205 17.1733 65.6005 17.0933 66.0805 17.04C66.4939 16.96 66.8872 16.9067 67.2605 16.88C67.6339 16.84 67.9605 16.78 68.2405 16.7C68.5339 16.62 68.7605 16.5 68.9205 16.34C69.0939 16.1667 69.1805 15.9133 69.1805 15.58C69.1805 15.2867 69.1072 15.0467 68.9605 14.86C68.8272 14.6733 68.6539 14.5333 68.4405 14.44C68.2405 14.3333 68.0139 14.2667 67.7605 14.24C67.5072 14.2 67.2672 14.18 67.0405 14.18C66.4005 14.18 65.8739 14.3133 65.4605 14.58C65.0472 14.8467 64.8139 15.26 64.7605 15.82H62.4805C62.5205 15.1533 62.6805 14.6 62.9605 14.16C63.2405 13.72 63.5939 13.3667 64.0205 13.1C64.4605 12.8333 64.9539 12.6467 65.5005 12.54C66.0472 12.4333 66.6072 12.38 67.1805 12.38C67.6872 12.38 68.1872 12.4333 68.6805 12.54C69.1739 12.6467 69.6139 12.82 70.0005 13.06C70.4005 13.3 70.7205 13.6133 70.9605 14C71.2005 14.3733 71.3205 14.8333 71.3205 15.38V20.7ZM69.0405 17.82C68.6939 18.0467 68.2672 18.1867 67.7605 18.24C67.2539 18.28 66.7472 18.3467 66.2405 18.44C66.0005 18.48 65.7672 18.54 65.5405 18.62C65.3139 18.6867 65.1139 18.7867 64.9405 18.92C64.7672 19.04 64.6272 19.2067 64.5205 19.42C64.4272 19.62 64.3805 19.8667 64.3805 20.16C64.3805 20.4133 64.4539 20.6267 64.6005 20.8C64.7472 20.9733 64.9205 21.1133 65.1205 21.22C65.3339 21.3133 65.5605 21.38 65.8005 21.42C66.0539 21.46 66.2805 21.48 66.4805 21.48C66.7339 21.48 67.0072 21.4467 67.3005 21.38C67.5939 21.3133 67.8672 21.2 68.1205 21.04C68.3872 20.88 68.6072 20.68 68.7805 20.44C68.9539 20.1867 69.0405 19.88 69.0405 19.52V17.82ZM74.8938 19.68C74.9605 20.3467 75.2138 20.8133 75.6538 21.08C76.0938 21.3467 76.6205 21.48 77.2338 21.48C77.4472 21.48 77.6872 21.4667 77.9538 21.44C78.2338 21.4 78.4938 21.3333 78.7338 21.24C78.9738 21.1467 79.1672 21.0133 79.3138 20.84C79.4738 20.6533 79.5472 20.4133 79.5338 20.12C79.5205 19.8267 79.4138 19.5867 79.2138 19.4C79.0138 19.2133 78.7538 19.0667 78.4338 18.96C78.1272 18.84 77.7738 18.74 77.3738 18.66C76.9738 18.58 76.5672 18.4933 76.1538 18.4C75.7272 18.3067 75.3138 18.1933 74.9138 18.06C74.5272 17.9267 74.1738 17.7467 73.8538 17.52C73.5472 17.2933 73.3005 17.0067 73.1138 16.66C72.9272 16.3 72.8338 15.86 72.8338 15.34C72.8338 14.78 72.9672 14.3133 73.2338 13.94C73.5138 13.5533 73.8605 13.2467 74.2738 13.02C74.7005 12.78 75.1672 12.6133 75.6738 12.52C76.1938 12.4267 76.6872 12.38 77.1538 12.38C77.6872 12.38 78.1938 12.44 78.6738 12.56C79.1672 12.6667 79.6072 12.8467 79.9938 13.1C80.3938 13.3533 80.7205 13.6867 80.9738 14.1C81.2405 14.5 81.4072 14.9867 81.4738 15.56H79.0938C78.9872 15.0133 78.7338 14.6467 78.3338 14.46C77.9472 14.2733 77.5005 14.18 76.9938 14.18C76.8338 14.18 76.6405 14.1933 76.4138 14.22C76.2005 14.2467 75.9938 14.3 75.7938 14.38C75.6072 14.4467 75.4472 14.5533 75.3138 14.7C75.1805 14.8333 75.1138 15.0133 75.1138 15.24C75.1138 15.52 75.2072 15.7467 75.3938 15.92C75.5938 16.0933 75.8472 16.24 76.1538 16.36C76.4738 16.4667 76.8338 16.56 77.2338 16.64C77.6338 16.72 78.0472 16.8067 78.4738 16.9C78.8872 16.9933 79.2938 17.1067 79.6938 17.24C80.0938 17.3733 80.4472 17.5533 80.7538 17.78C81.0738 18.0067 81.3272 18.2933 81.5138 18.64C81.7138 18.9867 81.8138 19.4133 81.8138 19.92C81.8138 20.5333 81.6738 21.0533 81.3938 21.48C81.1138 21.9067 80.7472 22.2533 80.2938 22.52C79.8538 22.7867 79.3605 22.98 78.8138 23.1C78.2672 23.22 77.7272 23.28 77.1938 23.28C76.5405 23.28 75.9338 23.2067 75.3738 23.06C74.8272 22.9133 74.3472 22.6933 73.9338 22.4C73.5338 22.0933 73.2138 21.72 72.9738 21.28C72.7472 20.8267 72.6272 20.2933 72.6138 19.68H74.8938ZM82.9449 12.66H85.0849V14.66H85.1249C85.1916 14.38 85.3183 14.1067 85.5049 13.84C85.7049 13.5733 85.9383 13.3333 86.2049 13.12C86.4849 12.8933 86.7916 12.7133 87.1249 12.58C87.4583 12.4467 87.7983 12.38 88.1449 12.38C88.4116 12.38 88.5916 12.3867 88.6849 12.4C88.7916 12.4133 88.8983 12.4267 89.0049 12.44V14.64C88.8449 14.6133 88.6783 14.5933 88.5049 14.58C88.3449 14.5533 88.1849 14.54 88.0249 14.54C87.6383 14.54 87.2716 14.62 86.9249 14.78C86.5916 14.9267 86.2983 15.1533 86.0449 15.46C85.7916 15.7533 85.5916 16.12 85.4449 16.56C85.2983 17 85.2249 17.5067 85.2249 18.08V23H82.9449V12.66ZM96.1246 16.92C96.0979 16.56 96.0179 16.2133 95.8846 15.88C95.7646 15.5467 95.5913 15.26 95.3646 15.02C95.1513 14.7667 94.8846 14.5667 94.5646 14.42C94.2579 14.26 93.9113 14.18 93.5246 14.18C93.1246 14.18 92.7579 14.2533 92.4246 14.4C92.1046 14.5333 91.8246 14.7267 91.5846 14.98C91.3579 15.22 91.1713 15.5067 91.0246 15.84C90.8913 16.1733 90.8179 16.5333 90.8046 16.92H96.1246ZM90.8046 18.42C90.8046 18.82 90.8579 19.2067 90.9646 19.58C91.0846 19.9533 91.2579 20.28 91.4846 20.56C91.7113 20.84 91.9979 21.0667 92.3446 21.24C92.6913 21.4 93.1046 21.48 93.5846 21.48C94.2513 21.48 94.7846 21.34 95.1846 21.06C95.5979 20.7667 95.9046 20.3333 96.1046 19.76H98.2646C98.1446 20.32 97.9379 20.82 97.6446 21.26C97.3513 21.7 96.9979 22.0733 96.5846 22.38C96.1713 22.6733 95.7046 22.8933 95.1846 23.04C94.6779 23.2 94.1446 23.28 93.5846 23.28C92.7713 23.28 92.0513 23.1467 91.4246 22.88C90.7979 22.6133 90.2646 22.24 89.8246 21.76C89.3979 21.28 89.0713 20.7067 88.8446 20.04C88.6313 19.3733 88.5246 18.64 88.5246 17.84C88.5246 17.1067 88.6379 16.4133 88.8646 15.76C89.1046 15.0933 89.4379 14.5133 89.8646 14.02C90.3046 13.5133 90.8313 13.1133 91.4446 12.82C92.0579 12.5267 92.7513 12.38 93.5246 12.38C94.3379 12.38 95.0646 12.5533 95.7046 12.9C96.3579 13.2333 96.8979 13.68 97.3246 14.24C97.7513 14.8 98.0579 15.4467 98.2446 16.18C98.4446 16.9 98.4979 17.6467 98.4046 18.42H90.8046ZM99.5379 12.66H101.698V14.18L101.738 14.22C102.085 13.6467 102.538 13.2 103.098 12.88C103.658 12.5467 104.278 12.38 104.958 12.38C106.091 12.38 106.985 12.6733 107.638 13.26C108.291 13.8467 108.618 14.7267 108.618 15.9V23H106.338V16.5C106.311 15.6867 106.138 15.1 105.818 14.74C105.498 14.3667 104.998 14.18 104.318 14.18C103.931 14.18 103.585 14.2533 103.278 14.4C102.971 14.5333 102.711 14.7267 102.498 14.98C102.285 15.22 102.118 15.5067 101.998 15.84C101.878 16.1733 101.818 16.5267 101.818 16.9V23H99.5379V12.66ZM109.382 12.66H111.102V9.56H113.382V12.66H115.442V14.36H113.382V19.88C113.382 20.12 113.389 20.3267 113.402 20.5C113.429 20.6733 113.476 20.82 113.542 20.94C113.622 21.06 113.736 21.1533 113.882 21.22C114.029 21.2733 114.229 21.3 114.482 21.3C114.642 21.3 114.802 21.3 114.962 21.3C115.122 21.2867 115.282 21.26 115.442 21.22V22.98C115.189 23.0067 114.942 23.0333 114.702 23.06C114.462 23.0867 114.216 23.1 113.962 23.1C113.362 23.1 112.876 23.0467 112.502 22.94C112.142 22.82 111.856 22.6533 111.642 22.44C111.442 22.2133 111.302 21.9333 111.222 21.6C111.156 21.2667 111.116 20.8867 111.102 20.46V14.36H109.382V12.66ZM131.409 13.26C131.302 12.8467 131.155 12.4667 130.969 12.12C130.782 11.7733 130.542 11.4733 130.249 11.22C129.955 10.9667 129.609 10.7733 129.209 10.64C128.822 10.4933 128.369 10.42 127.849 10.42C127.089 10.42 126.429 10.5733 125.869 10.88C125.322 11.1867 124.875 11.6 124.529 12.12C124.182 12.6267 123.922 13.2067 123.749 13.86C123.589 14.5133 123.509 15.18 123.509 15.86C123.509 16.54 123.589 17.2067 123.749 17.86C123.922 18.5133 124.182 19.1 124.529 19.62C124.875 20.1267 125.322 20.5333 125.869 20.84C126.429 21.1467 127.089 21.3 127.849 21.3C128.409 21.3 128.902 21.2067 129.329 21.02C129.755 20.82 130.122 20.5533 130.429 20.22C130.735 19.8733 130.975 19.4733 131.149 19.02C131.322 18.5667 131.435 18.08 131.489 17.56H133.929C133.875 18.4133 133.689 19.1933 133.369 19.9C133.062 20.6067 132.642 21.22 132.109 21.74C131.575 22.2467 130.949 22.64 130.229 22.92C129.509 23.2 128.715 23.34 127.849 23.34C126.782 23.34 125.822 23.1467 124.969 22.76C124.129 22.36 123.415 21.82 122.829 21.14C122.242 20.46 121.789 19.6667 121.469 18.76C121.162 17.8533 121.009 16.8867 121.009 15.86C121.009 14.8467 121.162 13.8867 121.469 12.98C121.789 12.0733 122.242 11.28 122.829 10.6C123.415 9.92 124.129 9.38 124.969 8.98C125.822 8.58 126.782 8.38 127.849 8.38C128.649 8.38 129.402 8.49333 130.109 8.72C130.815 8.93333 131.435 9.25333 131.969 9.68C132.515 10.0933 132.955 10.6 133.289 11.2C133.622 11.8 133.829 12.4867 133.909 13.26H131.409ZM143.942 20.7C143.942 20.98 143.976 21.18 144.042 21.3C144.122 21.42 144.269 21.48 144.482 21.48C144.549 21.48 144.629 21.48 144.722 21.48C144.816 21.48 144.922 21.4667 145.042 21.44V23.02C144.962 23.0467 144.856 23.0733 144.722 23.1C144.602 23.14 144.476 23.1733 144.342 23.2C144.209 23.2267 144.076 23.2467 143.942 23.26C143.809 23.2733 143.696 23.28 143.602 23.28C143.136 23.28 142.749 23.1867 142.442 23C142.136 22.8133 141.936 22.4867 141.842 22.02C141.389 22.46 140.829 22.78 140.162 22.98C139.509 23.18 138.876 23.28 138.262 23.28C137.796 23.28 137.349 23.2133 136.922 23.08C136.496 22.96 136.116 22.78 135.782 22.54C135.462 22.2867 135.202 21.9733 135.002 21.6C134.816 21.2133 134.722 20.7667 134.722 20.26C134.722 19.62 134.836 19.1 135.062 18.7C135.302 18.3 135.609 17.9867 135.982 17.76C136.369 17.5333 136.796 17.3733 137.262 17.28C137.742 17.1733 138.222 17.0933 138.702 17.04C139.116 16.96 139.509 16.9067 139.882 16.88C140.256 16.84 140.582 16.78 140.862 16.7C141.156 16.62 141.382 16.5 141.542 16.34C141.716 16.1667 141.802 15.9133 141.802 15.58C141.802 15.2867 141.729 15.0467 141.582 14.86C141.449 14.6733 141.276 14.5333 141.062 14.44C140.862 14.3333 140.636 14.2667 140.382 14.24C140.129 14.2 139.889 14.18 139.662 14.18C139.022 14.18 138.496 14.3133 138.082 14.58C137.669 14.8467 137.436 15.26 137.382 15.82H135.102C135.142 15.1533 135.302 14.6 135.582 14.16C135.862 13.72 136.216 13.3667 136.642 13.1C137.082 12.8333 137.576 12.6467 138.122 12.54C138.669 12.4333 139.229 12.38 139.802 12.38C140.309 12.38 140.809 12.4333 141.302 12.54C141.796 12.6467 142.236 12.82 142.622 13.06C143.022 13.3 143.342 13.6133 143.582 14C143.822 14.3733 143.942 14.8333 143.942 15.38V20.7ZM141.662 17.82C141.316 18.0467 140.889 18.1867 140.382 18.24C139.876 18.28 139.369 18.3467 138.862 18.44C138.622 18.48 138.389 18.54 138.162 18.62C137.936 18.6867 137.736 18.7867 137.562 18.92C137.389 19.04 137.249 19.2067 137.142 19.42C137.049 19.62 137.002 19.8667 137.002 20.16C137.002 20.4133 137.076 20.6267 137.222 20.8C137.369 20.9733 137.542 21.1133 137.742 21.22C137.956 21.3133 138.182 21.38 138.422 21.42C138.676 21.46 138.902 21.48 139.102 21.48C139.356 21.48 139.629 21.4467 139.922 21.38C140.216 21.3133 140.489 21.2 140.742 21.04C141.009 20.88 141.229 20.68 141.402 20.44C141.576 20.1867 141.662 19.88 141.662 19.52V17.82ZM145.796 12.66H147.936V14.66H147.976C148.042 14.38 148.169 14.1067 148.356 13.84C148.556 13.5733 148.789 13.3333 149.056 13.12C149.336 12.8933 149.642 12.7133 149.976 12.58C150.309 12.4467 150.649 12.38 150.996 12.38C151.262 12.38 151.442 12.3867 151.536 12.4C151.642 12.4133 151.749 12.4267 151.856 12.44V14.64C151.696 14.6133 151.529 14.5933 151.356 14.58C151.196 14.5533 151.036 14.54 150.876 14.54C150.489 14.54 150.122 14.62 149.776 14.78C149.442 14.9267 149.149 15.1533 148.896 15.46C148.642 15.7533 148.442 16.12 148.296 16.56C148.149 17 148.076 17.5067 148.076 18.08V23H145.796V12.66Z" fill="#050810"/>
</svg>
