<svg width="99" height="43" viewBox="0 0 99 43" fill="none" xmlns="http://www.w3.org/2000/svg">
<g clip-path="url(#clip0_46_92)">
<path d="M49.4998 0.00720215C45.8904 0.00781565 42.3393 0.917956 39.1744 2.65362C36.0094 4.38928 33.3325 6.89452 31.3909 9.93808H0.5L3.57525 13.0142H29.7862C29.2887 14.172 28.894 15.3712 28.6066 16.5981H7.15803L10.1958 19.6367H28.1093C28.0505 20.2561 28.0186 20.8778 28.0138 21.5C28.0194 22.0745 28.0481 22.6486 28.0998 23.2209H13.7789L16.8166 26.2595H28.5669C28.8393 27.485 29.2185 28.6842 29.7002 29.8434H20.3994L23.4747 32.9195H31.3279C33.2584 35.9984 35.9379 38.5374 39.1159 40.299C42.2939 42.0605 45.8665 42.9872 49.4998 42.9924C53.1332 42.9873 56.7059 42.0606 59.884 40.299C63.062 38.5375 65.7416 35.9985 67.6721 32.9195H75.5253L78.6006 29.8434H69.2998C69.7814 28.6842 70.1607 27.485 70.4331 26.2595H82.1834L85.2211 23.2209H70.9002C70.9519 22.6486 70.9806 22.0745 70.9862 21.5C70.9815 20.8778 70.9497 20.2561 70.891 19.6367H88.8042L91.842 16.5981H70.3934C70.106 15.3712 69.7113 14.172 69.2138 13.0142H95.4248L98.5 9.93808H67.6091C65.6674 6.89447 62.9905 4.38919 59.8255 2.65353C56.6604 0.917863 53.1093 0.00775503 49.4998 0.00720215ZM49.4998 2.92052C51.939 2.92051 54.3543 3.40108 56.6078 4.33479C58.8613 5.26849 60.9089 6.63705 62.6336 8.36231C64.3584 10.0876 65.7265 12.1358 66.6599 14.3899C67.5934 16.6441 68.0738 19.0601 68.0738 21.5C68.0738 23.9399 67.5934 26.3559 66.6599 28.61C65.7265 30.8642 64.3584 32.9124 62.6336 34.6376C60.9089 36.3629 58.8613 37.7314 56.6078 38.6652C54.3543 39.5989 51.939 40.0794 49.4998 40.0794C44.5737 40.0794 39.8493 38.122 36.366 34.6376C32.8827 31.1533 30.9258 26.4276 30.9258 21.5C30.9258 16.5724 32.8827 11.8466 36.366 8.36231C39.8493 4.87799 44.5737 2.92052 49.4998 2.92052ZM34.7242 16.6845V26.3151H36.732V18.7343L38.8499 26.3151H40.9309L43.0559 18.7343V26.3151H45.0641V16.6845H41.8218L39.9014 23.2538L37.959 16.6845H34.7242ZM47.1597 16.6845V26.3151H49.3211V16.6845H47.1597ZM51.3947 16.6845V26.3151H53.4029V20.035L57.7187 26.3151H59.8875V16.6845H57.8793V23.1158L53.4981 16.6845H51.3947ZM62.1144 16.6845V26.3151H64.2758V16.6845H62.1144Z" fill="#D0D0D0"/>
</g>
<defs>
<clipPath id="clip0_46_92">
<rect width="98" height="43" fill="white" transform="translate(0.5)"/>
</clipPath>
</defs>
</svg>
