<svg width="23" height="23" viewBox="0 0 23 23" fill="none" xmlns="http://www.w3.org/2000/svg">
<path d="M13.1287 11.4915L1.90067 22.513C1.30783 22.0549 0.95752 21.3452 0.95752 20.5997V2.41032C0.95752 1.6558 1.29885 0.946191 1.90067 0.49707L13.1287 11.4915Z" fill="#2196F3"/>
<path d="M22.0392 11.4915C22.0392 12.3628 21.5721 13.1712 20.8086 13.6024L17.2785 15.5605L13.1196 11.5005L17.2785 7.44043L20.8086 9.41656C21.5721 9.82975 22.0392 10.6292 22.0392 11.4915Z" fill="#FFC107"/>
<path d="M17.2873 15.5603L4.48732 22.7103C4.13701 22.8989 3.74178 22.9977 3.33758 22.9977C2.9154 23.0067 2.50221 22.8899 2.1519 22.6744C2.06207 22.6294 1.98123 22.5756 1.90039 22.5217L13.1284 11.5002L17.2873 15.5603Z" fill="#F44336"/>
<path d="M17.2873 7.43102L13.1284 11.4911L1.90039 0.487618C1.98123 0.433723 2.06207 0.379829 2.1519 0.334917C2.87049 -0.0962388 3.75975 -0.114203 4.48732 0.298988L17.2873 7.43102Z" fill="#4CAF50"/>
</svg>
