<svg width="60" height="60" viewBox="0 0 60 60" fill="none" xmlns="http://www.w3.org/2000/svg">
<rect x="0.5" y="0.5" width="59" height="59" rx="29.5" stroke="#DADADA"/>
<path d="M29.8575 38.2891L26.5242 41.6224L29.8575 44.9557" stroke="#050811" stroke-width="2" stroke-linecap="round" stroke-linejoin="round"/>
<path d="M26.5241 41.6224H41.5241C42.0551 41.5951 42.5719 41.4411 43.0312 41.1733C43.4906 40.9055 43.8792 40.5317 44.1647 40.0831C44.4502 39.6345 44.6242 39.1242 44.6722 38.5946C44.7202 38.0651 44.6409 37.5317 44.4408 37.0391L43.5241 35.3724M24.0841 28.2891L22.8641 23.7358L18.3108 24.9558" stroke="#050811" stroke-width="2" stroke-linecap="round" stroke-linejoin="round"/>
<path d="M22.8642 23.7358L15.3642 36.7258C15.1226 37.1992 14.9978 37.7236 15 38.2551C15.0023 38.7867 15.1317 39.3099 15.3773 39.7813C15.6229 40.2527 15.9777 40.6585 16.4121 40.9648C16.8464 41.2712 17.3478 41.4692 17.8742 41.5424L19.7759 41.5824M35.6309 28.2891L40.1842 29.5091L41.4042 24.9558" stroke="#050811" stroke-width="2" stroke-linecap="round" stroke-linejoin="round"/>
<path d="M40.1841 29.5091L32.6841 16.5191C32.3948 16.0731 32.003 15.7029 31.5415 15.4391C31.08 15.1754 30.562 15.0259 30.031 15.0031C29.4999 14.9802 28.971 15.0848 28.4886 15.3079C28.0061 15.531 27.584 15.8663 27.2575 16.2858L26.2725 17.9124" stroke="#050811" stroke-width="2" stroke-linecap="round" stroke-linejoin="round"/>
</svg>
