<svg width="60" height="60" viewBox="0 0 60 60" fill="none" xmlns="http://www.w3.org/2000/svg">
<rect x="0.5" y="0.5" width="59" height="59" rx="29.5" stroke="#DADADA"/>
<path fill-rule="evenodd" clip-rule="evenodd" d="M17.5 30C17.5 26.6848 18.817 23.5054 21.1612 21.1612C23.5054 18.817 26.6848 17.5 30 17.5C33.3152 17.5 36.4946 18.817 38.8388 21.1612C41.183 23.5054 42.5 26.6848 42.5 30C42.5 33.3152 41.183 36.4946 38.8388 38.8388C36.4946 41.183 33.3152 42.5 30 42.5C26.6848 42.5 23.5054 41.183 21.1612 38.8388C18.817 36.4946 17.5 33.3152 17.5 30ZM30 15C28.0302 15 26.0796 15.388 24.2597 16.1418C22.4399 16.8956 20.7863 18.0005 19.3934 19.3934C18.0005 20.7863 16.8956 22.4399 16.1418 24.2597C15.388 26.0796 15 28.0302 15 30C15 31.9698 15.388 33.9204 16.1418 35.7403C16.8956 37.5601 18.0005 39.2137 19.3934 40.6066C20.7863 41.9995 22.4399 43.1044 24.2597 43.8582C26.0796 44.612 28.0302 45 30 45C33.9782 45 37.7936 43.4196 40.6066 40.6066C43.4196 37.7936 45 33.9782 45 30C45 26.0218 43.4196 22.2064 40.6066 19.3934C37.7936 16.5804 33.9782 15 30 15ZM25.4167 27.5C25.9692 27.5 26.4991 27.2805 26.8898 26.8898C27.2805 26.4991 27.5 25.9692 27.5 25.4167C27.5 24.8641 27.2805 24.3342 26.8898 23.9435C26.4991 23.5528 25.9692 23.3333 25.4167 23.3333C24.8641 23.3333 24.3342 23.5528 23.9435 23.9435C23.5528 24.3342 23.3333 24.8641 23.3333 25.4167C23.3333 25.9692 23.5528 26.4991 23.9435 26.8898C24.3342 27.2805 24.8641 27.5 25.4167 27.5ZM36.6667 25.4167C36.6667 25.9692 36.4472 26.4991 36.0565 26.8898C35.6658 27.2805 35.1359 27.5 34.5833 27.5C34.0308 27.5 33.5009 27.2805 33.1102 26.8898C32.7195 26.4991 32.5 25.9692 32.5 25.4167C32.5 24.8641 32.7195 24.3342 33.1102 23.9435C33.5009 23.5528 34.0308 23.3333 34.5833 23.3333C35.1359 23.3333 35.6658 23.5528 36.0565 23.9435C36.4472 24.3342 36.6667 24.8641 36.6667 25.4167ZM24.5 32.8767L24.4933 32.8633C24.3638 32.5643 24.1226 32.3276 23.8211 32.2038C23.5197 32.08 23.1818 32.0789 22.8795 32.2006C22.5772 32.3223 22.3343 32.5572 22.2027 32.8554C22.0711 33.1535 22.0612 33.4913 22.175 33.7967L23.3333 33.3333C22.1733 33.7967 22.1733 33.7983 22.1733 33.8L22.175 33.8033L22.1783 33.81L22.185 33.8283C22.2171 33.9063 22.2521 33.983 22.29 34.0583C22.7079 34.8858 23.2535 35.6422 23.9067 36.3C25.14 37.5317 27.11 38.75 30 38.75C32.89 38.75 34.8617 37.5317 36.0917 36.3C36.5946 35.7985 37.034 35.2371 37.4 34.6283C37.5527 34.3693 37.6912 34.1023 37.815 33.8283L37.8217 33.81L37.825 33.8033V33.8C37.825 33.7983 37.8267 33.7967 36.6667 33.3333L37.8267 33.7967C37.9338 33.493 37.9197 33.1596 37.7871 32.8661C37.6545 32.5726 37.4138 32.3416 37.115 32.2212C36.8163 32.1009 36.4826 32.1005 36.1836 32.2201C35.8846 32.3397 35.6433 32.5702 35.51 32.8633L35.5033 32.8767L35.4617 32.9667C35.1653 33.544 34.7819 34.0724 34.325 34.5333C33.4717 35.385 32.1083 36.25 30 36.25C27.8917 36.25 26.5283 35.385 25.675 34.5333C25.2187 34.0723 24.8359 33.5439 24.54 32.9667L24.5 32.8767Z" fill="#050811"/>
</svg>
