<svg width="60" height="60" viewBox="0 0 60 60" fill="none" xmlns="http://www.w3.org/2000/svg">
<rect x="0.5" y="0.5" width="59" height="59" rx="29.5" stroke="#DADADA"/>
<path fill-rule="evenodd" clip-rule="evenodd" d="M45.316 19.6234L43.6097 19.2209L38.9985 23.8059L36.3866 21.1459L40.8841 16.4275L40.4903 14.695C39.5401 14.3763 38.5459 14.2081 37.5438 14.1962C36.4504 14.1769 35.3649 14.3855 34.3566 14.8087C33.3816 15.2486 32.5007 15.8725 31.7622 16.6462C30.9374 17.4244 30.2853 18.3671 29.8482 19.4134C29.003 21.4936 29.003 23.8214 29.8482 25.9016C25.2877 30.388 20.7861 34.9341 16.3447 39.5384C15.8853 40.14 15.6666 40.8903 15.7235 41.645C15.7453 42.047 15.8462 42.4407 16.0204 42.8037C16.1945 43.1667 16.4385 43.4917 16.7385 43.7603C17.0126 44.0593 17.3313 44.2984 17.6944 44.4778C18.0663 44.6419 18.4666 44.7359 18.8713 44.7556C19.5625 44.7425 20.2253 44.48 20.7394 44.0184C24.1257 40.8312 30.6138 34.2841 34.2997 30.4472C35.2994 30.8716 36.3735 31.0903 37.4585 31.0881C38.5506 31.0868 39.6313 30.8668 40.6371 30.4411C41.6428 30.0154 42.5531 29.3927 43.3144 28.6097C44.8745 27.0136 45.747 24.8697 45.7447 22.6378C45.7704 21.6162 45.6255 20.5974 45.316 19.6234ZM19.416 42.4675C19.3323 42.543 19.2306 42.5958 19.1207 42.6206C19.013 42.641 18.9024 42.641 18.7947 42.6206C18.6817 42.6031 18.5741 42.5605 18.4797 42.4959C18.3788 42.4365 18.2934 42.354 18.2303 42.2553C17.9241 41.9425 17.6375 41.3475 17.9241 41.0128C20.921 37.8256 27.0919 31.5956 30.9507 27.7872C31.1694 28.0774 31.4086 28.3516 31.6682 28.6097C31.9263 28.8795 32.2034 29.1281 32.4994 29.3556C28.7675 33.1837 22.6797 39.3394 19.416 42.4675ZM43.7366 22.6378C43.741 24.3112 43.0891 25.9191 41.9166 27.1178C40.7468 28.2661 39.1731 28.9094 37.5339 28.9094C35.8948 28.9094 34.321 28.2661 33.1513 27.1178C32.2933 26.2232 31.7072 25.1031 31.4613 23.8882C31.2153 22.6733 31.3197 21.4135 31.7622 20.2556C32.0567 19.4677 32.5131 18.7502 33.102 18.1496C33.6909 17.549 34.3993 17.0786 35.1813 16.7687C35.9246 16.4601 36.7214 16.3011 37.5263 16.3006H38.0819L34.1072 20.3978V21.9203L38.2525 26.0459H39.6963L43.7366 22.0734V22.6378ZM20.0875 26.63H23.4366L24.9788 28.1984L26.4619 26.7241L25.0072 25.2409V25.1469L25.1319 21.5397L24.6507 20.5837L18.3944 16.4669L17.1016 16.6112L15.2838 18.4684L15.1394 19.7787L19.16 26.1619L20.0875 26.63ZM18.0203 18.685L23.0822 22.0187L22.9969 24.4753H20.6432L17.3794 19.3084L18.0203 18.685ZM33.5625 33.91L35.0369 32.4378L41.8313 39.405C42.4031 40.0067 42.7219 40.8051 42.7219 41.6351C42.7219 42.4652 42.4031 43.2636 41.8313 43.8653C41.4016 44.3081 40.8482 44.6108 40.2436 44.7338C39.639 44.8568 39.0113 44.7942 38.4428 44.5544C38.0796 44.3939 37.7539 44.1592 37.4869 43.8653L30.6138 36.8587L32.0991 35.3756L38.9503 42.3625C39.0424 42.4642 39.157 42.5429 39.285 42.5922C39.5369 42.6938 39.8184 42.6938 40.0703 42.5922C40.1984 42.5429 40.313 42.4642 40.405 42.3625C40.5028 42.2693 40.5777 42.1548 40.6238 42.0278C40.6752 41.8998 40.7019 41.7632 40.7025 41.6253C40.6982 41.488 40.6724 41.3521 40.626 41.2228C40.5799 41.0959 40.505 40.9813 40.4072 40.8881L33.5625 33.91Z" fill="#050811"/>
</svg>
