<svg width="25" height="24" viewBox="0 0 25 24" fill="none" xmlns="http://www.w3.org/2000/svg">
<path fill-rule="evenodd" clip-rule="evenodd" d="M20.7335 3.45C18.4835 1.2 15.4835 0 12.3335 0C5.7335 0 0.333496 5.4 0.333496 12C0.333496 14.1 0.933505 16.2 1.98351 18L0.333496 24L6.63351 22.35C8.43351 23.25 10.3835 23.85 12.3335 23.85C18.9335 23.85 24.3335 18.45 24.3335 11.85C24.3335 8.7 22.9835 5.7 20.7335 3.45ZM12.3335 21.9C10.5335 21.9 8.73351 21.45 7.23351 20.55L6.93349 20.4L3.18349 21.45L4.23351 17.85L3.93349 17.4C2.88349 15.75 2.43349 13.95 2.43349 12.15C2.43349 6.75 6.9335 2.25 12.3335 2.25C15.0335 2.25 17.4335 3.3 19.3835 5.1C21.3335 7.05 22.2335 9.45 22.2335 12.15C22.2335 17.4 17.8835 21.9 12.3335 21.9ZM17.7335 14.4C17.4335 14.25 15.9335 13.5 15.6335 13.5C15.3335 13.35 15.1835 13.35 15.0335 13.65C14.8835 13.95 14.2835 14.55 14.1335 14.85C13.9835 15 13.8335 15 13.5335 15C13.2335 14.85 12.3335 14.55 11.1335 13.5C10.2335 12.75 9.6335 11.7 9.48351 11.4C9.33351 11.1 9.48351 10.95 9.63351 10.8C9.78351 10.65 9.9335 10.5 10.0835 10.35C10.2335 10.2 10.2335 10.05 10.3835 9.9C10.5335 9.75 10.3835 9.6 10.3835 9.45C10.3835 9.3 9.78351 7.8 9.48351 7.2C9.33351 6.75 9.03351 6.75 8.88351 6.75C8.73351 6.75 8.58348 6.75 8.28348 6.75C8.13348 6.75 7.83348 6.75 7.53348 7.05C7.23348 7.35 6.48351 8.1 6.48351 9.6C6.48351 11.1 7.53349 12.45 7.68349 12.75C7.83349 12.9 9.78348 16.05 12.7835 17.25C15.3335 18.3 15.7835 18 16.3835 18C16.9835 18 18.1835 17.25 18.3335 16.65C18.6335 15.9 18.6335 15.3 18.4835 15.3C18.3335 14.55 18.0335 14.55 17.7335 14.4Z" fill="#050811"/>
</svg>
