<svg width="34" height="34" viewBox="0 0 34 34" fill="none" xmlns="http://www.w3.org/2000/svg">
<path d="M22.3571 12.1786L10.4709 24.0982C10.2031 24.3661 9.88475 24.5 9.516 24.5C9.14814 24.5 8.83029 24.3661 8.56243 24.0982C8.29457 23.8304 8.16064 23.5121 8.16064 23.1433C8.16064 22.7754 8.29457 22.4576 8.56243 22.1897L20.4821 10.3036H10.3035C9.92404 10.3036 9.60573 10.1754 9.34859 9.9192C9.09234 9.66205 8.96422 9.34375 8.96422 8.96429C8.96422 8.58482 9.09234 8.26652 9.34859 8.00938C9.60573 7.75313 9.92404 7.625 10.3035 7.625H23.6964C24.0758 7.625 24.3937 7.75313 24.6499 8.00938C24.9071 8.26652 25.0356 8.58482 25.0356 8.96429V22.3571C25.0356 22.7366 24.9071 23.0545 24.6499 23.3107C24.3937 23.5679 24.0758 23.6964 23.6964 23.6964C23.3169 23.6964 22.999 23.5679 22.7428 23.3107C22.4856 23.0545 22.3571 22.7366 22.3571 22.3571V12.1786Z" fill="#091416"/>
</svg>
