<svg width="40" height="40" viewBox="0 0 40 40" fill="none" xmlns="http://www.w3.org/2000/svg">
<path d="M26.6667 12.2609L11.875 27.0942C11.5417 27.4276 11.1456 27.5942 10.6867 27.5942C10.2289 27.5942 9.83333 27.4276 9.5 27.0942C9.16667 26.7609 9 26.3648 9 25.9059C9 25.4481 9.16667 25.0526 9.5 24.7192L24.3333 9.92757H11.6667C11.1944 9.92757 10.7983 9.76813 10.4783 9.44924C10.1594 9.12924 10 8.73313 10 8.26091C10 7.78868 10.1594 7.39257 10.4783 7.07257C10.7983 6.75368 11.1944 6.59424 11.6667 6.59424H28.3333C28.8056 6.59424 29.2011 6.75368 29.52 7.07257C29.84 7.39257 30 7.78868 30 8.26091V24.9276C30 25.3998 29.84 25.7954 29.52 26.1142C29.2011 26.4342 28.8056 26.5942 28.3333 26.5942C27.8611 26.5942 27.4656 26.4342 27.1467 26.1142C26.8267 25.7954 26.6667 25.3998 26.6667 24.9276V12.2609Z" fill="white"/>
<rect x="8.69556" y="31.3043" width="21.7391" height="2.6087" rx="1.30435" fill="white"/>
</svg>
