<svg width="20" height="20" viewBox="0 0 20 20" fill="none" xmlns="http://www.w3.org/2000/svg">
<path fill-rule="evenodd" clip-rule="evenodd" d="M3.08547 8.97174C3.08547 5.71432 5.72613 3.07366 8.98355 3.07366C12.241 3.07366 14.8816 5.71432 14.8816 8.97174C14.8816 12.2292 12.241 14.8698 8.98355 14.8698C5.72613 14.8698 3.08547 12.2292 3.08547 8.97174ZM8.98355 1.65494C4.94259 1.65494 1.66675 4.93078 1.66675 8.97174C1.66675 13.0127 4.94259 16.2885 8.98355 16.2885C10.8781 16.2885 12.6045 15.5685 13.904 14.3871L17.1224 17.6055C17.3995 17.8825 17.8486 17.8825 18.1256 17.6055C18.4026 17.3285 18.4026 16.8793 18.1256 16.6023L14.8579 13.3346C15.7641 12.1164 16.3003 10.6067 16.3003 8.97174C16.3003 4.93078 13.0245 1.65494 8.98355 1.65494Z" fill="white"/>
</svg>
