<svg width="22" height="10" viewBox="0 0 22 10" fill="none" xmlns="http://www.w3.org/2000/svg">
<path d="M10.0414 7.16706C9.56011 7.16706 9.27993 6.85756 9.27993 6.05326V3.21507L10.8797 3.33298L10.961 2.60238L9.31728 2.68028V1.06959H8.83604C8.59871 2.33393 8.0021 2.79398 7.20112 2.87188V3.25508H8.15592V6.47857C8.15592 7.35866 8.80198 7.81661 9.59856 7.81661C10.2413 7.81661 10.9192 7.54816 11.1566 7.01336L10.9181 6.74492C10.7995 6.93441 10.4765 7.16706 10.0414 7.16706ZM6.20237 6.32171C5.87934 7.04811 5.35964 7.08916 4.83993 7.08916H3.15887C2.60071 7.08916 2.35789 6.89335 2.35789 6.43646V4.05937C2.35789 4.05937 3.55771 4.05937 3.95875 4.10043C4.27848 4.13728 4.43999 4.21518 4.55866 4.59838L4.67732 5.13633H5.15857L5.11572 3.75829L5.19702 2.41288H4.72017L4.55866 3.02874C4.47845 3.44878 4.39714 3.48984 3.95875 3.56353C3.40059 3.60353 2.35789 3.60353 2.35789 3.60353V0.767449C2.35789 0.649542 2.35789 0.612695 2.56115 0.612695H5.07836C5.52005 0.612695 5.75958 0.95589 5.9167 1.64438L6.07821 2.18339H6.51661C6.55946 0.649542 6.59791 0 6.59791 0C6.59791 0 5.52005 0.110538 4.88169 0.110538H1.68107L0 0.0779028V0.497947L0.558158 0.61059C0.961394 0.688493 1.08006 0.765344 1.08006 1.10854C1.08006 1.10854 1.12291 2.14443 1.12291 3.86567C1.12291 5.59111 1.08006 6.62701 1.08006 6.62701C1.08006 6.93336 0.961394 7.04705 0.558158 7.12496L0 7.24391V7.6608L1.71952 7.62395H4.60151C5.23987 7.62395 6.76052 7.6608 6.76052 7.6608C6.79788 7.28076 6.99785 5.59322 7.0407 5.40162H6.63637L6.20237 6.32171ZM12.8387 3.56143C12.8387 3.06243 13.3189 2.87188 13.8001 2.87188C14.1957 2.87188 14.5176 3.02663 14.6011 3.21402L14.8813 3.98147L15.2779 3.94462C15.2779 3.56142 15.3197 3.06242 15.3999 2.68028C15.0395 2.52553 14.3198 2.44762 13.8386 2.44762C12.7574 2.44762 11.9191 2.91188 11.9191 3.90778C11.9191 5.67007 14.6 5.28687 14.6 6.59122C14.6 7.01126 14.3187 7.35866 13.6375 7.35866C12.9992 7.35866 12.7179 7.04916 12.5992 6.74281L12.2806 6.01326H11.8751C11.9191 6.51437 11.9564 7.01126 11.8751 7.46815C11.8751 7.46815 12.7179 7.77765 13.5573 7.77765C14.6802 7.77765 15.5988 7.24392 15.5988 6.24381C15.5988 4.48152 12.8387 4.74787 12.8387 3.56143ZM19.8366 2.56658V2.94978L20.1212 3.02769C20.398 3.10138 20.5167 3.21507 20.5167 3.40983C20.5167 3.52353 20.4793 3.56142 20.4365 3.71618C20.3178 4.02253 19.5553 5.82482 19.1598 6.62911C18.7372 5.60232 18.3368 4.56725 17.9588 3.52458C17.9204 3.44773 17.9204 3.41088 17.9204 3.37088C17.9204 3.21507 18.0358 3.06348 18.317 3.02769L18.6785 2.94978V2.56658L17.1996 2.64343L15.9954 2.60238V2.98979L16.2009 3.06243C16.4767 3.14033 16.5162 3.17823 16.7162 3.60143C17.4776 5.21212 18.317 7.31655 18.6016 7.97031C17.9599 9.04305 17.2787 9.34834 16.759 9.34834C16.4393 9.34834 16.3206 9.19359 16.2811 9.00199L16.1207 8.19875L15.6812 8.2356C15.601 8.73776 15.5197 9.27149 15.401 9.69154C15.7163 9.88314 16.0778 10.001 16.558 9.99999C17.3172 9.99999 18.3983 9.80839 19.4399 7.545L21.199 3.60038C21.3583 3.29192 21.399 3.25402 21.7989 3.09927L22 2.94768V2.56658L20.9617 2.60238L19.8366 2.56658Z" fill="white"/>
</svg>
