<svg width="48" height="48" viewBox="0 0 48 48" fill="none" xmlns="http://www.w3.org/2000/svg">
<rect x="0.5" y="0.5" width="47" height="47" rx="23.5" stroke="#877C6F"/>
<path d="M24 14C18.486 14 14 18.486 14 24C14 29.514 18.486 34 24 34C29.514 34 34 29.514 34 24C34 18.486 29.514 14 24 14ZM16 24C16 23.101 16.156 22.238 16.431 21.431L18 23L20 25V27L22 29L23 30V31.931C19.061 31.436 16 28.072 16 24ZM30.33 28.873C29.677 28.347 28.687 28 28 28V27C28 26.4696 27.7893 25.9609 27.4142 25.5858C27.0391 25.2107 26.5304 25 26 25H22V22C22.5304 22 23.0391 21.7893 23.4142 21.4142C23.7893 21.0391 24 20.5304 24 20V19H25C25.5304 19 26.0391 18.7893 26.4142 18.4142C26.7893 18.0391 27 17.5304 27 17V16.589C29.928 17.778 32 20.65 32 24C31.9996 25.7647 31.4121 27.479 30.33 28.873Z" fill="#61513F"/>
</svg>
