<svg width="48" height="48" viewBox="0 0 48 48" fill="none" xmlns="http://www.w3.org/2000/svg">
<rect x="0.5" y="0.5" width="47" height="47" rx="23.5" stroke="#877C6F"/>
<g clip-path="url(#clip0_1_1739)">
<path d="M34.7954 22.9022L25.0979 13.2047C24.9537 13.0605 24.7826 12.9461 24.5942 12.8681C24.4058 12.7901 24.2039 12.7499 24.0001 12.7499C23.7962 12.7499 23.5943 12.7901 23.4059 12.8681C23.2176 12.9461 23.0464 13.0605 22.9022 13.2047L13.2047 22.9022C13.0606 23.0464 12.9462 23.2175 12.8682 23.4059C12.7902 23.5942 12.75 23.7961 12.75 24C12.75 24.2039 12.7902 24.4058 12.8682 24.5941C12.9462 24.7825 13.0606 24.9536 13.2047 25.0978L22.9022 34.7953C23.0464 34.9395 23.2176 35.0538 23.4059 35.1319C23.5943 35.2099 23.7962 35.2501 24.0001 35.2501C24.2039 35.2501 24.4058 35.2099 24.5942 35.1319C24.7826 35.0538 24.9537 34.9395 25.0979 34.7953L34.7954 25.0978C34.9395 24.9536 35.0539 24.7825 35.1319 24.5941C35.21 24.4058 35.2501 24.2039 35.2501 24C35.2501 23.7961 35.21 23.5942 35.1319 23.4059C35.0539 23.2175 34.9395 23.0464 34.7954 22.9022ZM28.2807 23.7806L26.0307 26.0306C25.89 26.1714 25.6991 26.2504 25.5001 26.2504C25.301 26.2504 25.1102 26.1714 24.9694 26.0306C24.8287 25.8899 24.7496 25.699 24.7496 25.5C24.7496 25.301 24.8287 25.1101 24.9694 24.9694L25.9397 24H22.5001C22.1022 24 21.7207 24.158 21.4394 24.4393C21.1581 24.7206 21.0001 25.1022 21.0001 25.5V26.25C21.0001 26.4489 20.921 26.6397 20.7804 26.7803C20.6397 26.921 20.449 27 20.2501 27C20.0511 27 19.8604 26.921 19.7197 26.7803C19.5791 26.6397 19.5001 26.4489 19.5001 26.25V25.5C19.5001 24.7043 19.8161 23.9413 20.3787 23.3787C20.9413 22.8161 21.7044 22.5 22.5001 22.5H25.9397L24.9694 21.5306C24.8287 21.3899 24.7496 21.199 24.7496 21C24.7496 20.801 24.8287 20.6101 24.9694 20.4694C25.1102 20.3286 25.301 20.2496 25.5001 20.2496C25.6991 20.2496 25.89 20.3286 26.0307 20.4694L28.2807 22.7194C28.3504 22.789 28.4057 22.8717 28.4435 22.9628C28.4812 23.0538 28.5006 23.1514 28.5006 23.25C28.5006 23.3486 28.4812 23.4462 28.4435 23.5372C28.4057 23.6283 28.3504 23.711 28.2807 23.7806Z" fill="#61513F"/>
</g>
<defs>
<clipPath id="clip0_1_1739">
<rect width="24" height="24" fill="white" transform="translate(12 12)"/>
</clipPath>
</defs>
</svg>
