<svg width="44" height="32" viewBox="0 0 44 32" fill="none" xmlns="http://www.w3.org/2000/svg">
<rect x="44" y="32" width="44" height="32" rx="16" transform="rotate(-180 44 32)" fill="white"/>
<path d="M9.64645 15.6464C9.45119 15.8417 9.45119 16.1583 9.64645 16.3536L12.8284 19.5355C13.0237 19.7308 13.3403 19.7308 13.5355 19.5355C13.7308 19.3403 13.7308 19.0237 13.5355 18.8284L10.7071 16L13.5355 13.1716C13.7308 12.9763 13.7308 12.6597 13.5355 12.4645C13.3403 12.2692 13.0237 12.2692 12.8284 12.4645L9.64645 15.6464ZM34 15.5L10 15.5L10 16.5L34 16.5L34 15.5Z" fill="#645F5C"/>
</svg>
