<svg width="9" height="8" viewBox="0 0 9 8" fill="none" xmlns="http://www.w3.org/2000/svg">
<path d="M8.02114 6.77268L7.79797 1.10815C7.79152 1.00261 7.76432 0.897752 7.71795 0.799582C7.62903 0.601816 7.46825 0.441036 7.27048 0.352116C7.17231 0.305742 7.06745 0.278547 6.96192 0.272091L1.29738 0.048924C1.19175 0.0447626 1.08797 0.061447 0.991977 0.0980253C0.895979 0.134604 0.809641 0.190359 0.737891 0.262109C0.592987 0.407013 0.516302 0.608268 0.524706 0.821599C0.533111 1.03493 0.625917 1.24286 0.782707 1.39965C0.939498 1.55644 1.14743 1.64925 1.36076 1.65765L5.09347 1.79906L0.419331 6.47319C0.275017 6.61751 0.198644 6.81794 0.207014 7.0304C0.215385 7.24286 0.307812 7.44995 0.463964 7.6061C0.620115 7.76225 0.8272 7.85468 1.03966 7.86305C1.25212 7.87142 1.45256 7.79505 1.59687 7.65073L6.27101 2.9766L6.41241 6.7093C6.41614 6.81504 6.44078 6.92064 6.4849 7.02001C6.52903 7.11938 6.59176 7.21056 6.66948 7.28828C6.74721 7.36601 6.83839 7.42874 6.93776 7.47286C7.03713 7.51699 7.14273 7.54162 7.24846 7.54536C7.35423 7.54996 7.45822 7.53358 7.55442 7.49716C7.65062 7.46074 7.73713 7.40501 7.80896 7.33318C7.88079 7.26134 7.93652 7.17483 7.97294 7.07863C8.00936 6.98243 8.02574 6.87845 8.02114 6.77268Z" fill="#16121E"/>
</svg>
