<svg width="1440" height="463" viewBox="0 0 1440 463" fill="none" xmlns="http://www.w3.org/2000/svg">
<g clip-path="url(#clip0_6389_11149)">
<path d="M1251.76 127.622C1278.36 143.477 1310.46 144.653 1337.06 160.236C1361.08 174.315 1378.73 199.063 1383.98 226.423C1390.11 258.293 1382.15 290.77 1388.6 322.806C1396.37 361.419 1414.96 392.793 1440.38 422.26C1441.42 423.465 1439.82 424.869 1438.64 423.919C1413.87 403.868 1398.13 372.13 1389.35 342.06C1384.86 326.695 1382 310.683 1381.77 294.657C1381.55 278.598 1383.56 262.596 1383.29 246.535C1382.67 210.701 1364.99 177.725 1332.96 160.347C1307.19 146.363 1275.46 145.78 1251.67 127.762C1251.59 127.7 1251.67 127.567 1251.76 127.622Z" fill="#9D7C6B"/>
<path d="M1234.2 109.506C1241.3 118.072 1250.55 125.344 1259.66 131.663C1260.14 131.994 1259.7 132.673 1259.19 132.422C1249.91 127.853 1238.89 118.928 1233.88 109.735C1233.78 109.545 1234.05 109.33 1234.2 109.506Z" fill="#9D7C6B"/>
<path d="M1243.3 119.97C1240.68 116.693 1241.66 114.59 1243.05 111.117C1244.52 107.467 1246.83 104.826 1246.42 100.581C1246.06 96.7986 1243.69 93.4169 1241.14 90.6641C1236.54 85.6872 1229.46 81.4696 1222.55 81.9691C1214.36 82.5606 1209.17 88.5598 1208.83 96.7012C1208.41 106.373 1213.95 113.721 1223.17 116.759C1229.85 118.959 1237.69 115.482 1243.58 119.589C1243.89 119.802 1243.67 120.215 1243.33 120.156C1236.6 118.992 1230.46 121.745 1223.77 119.668C1218.38 117.995 1212.82 115.182 1209.78 110.273C1205.09 102.685 1205.56 89.2602 1213.06 83.4359C1221.64 76.7708 1233.03 81.1994 1240.26 87.5659C1244.13 90.964 1247.72 95.0784 1248.23 100.409C1248.83 106.64 1241.13 114.5 1243.56 119.778C1243.63 119.937 1243.42 120.123 1243.3 119.97Z" fill="#9D7C6B"/>
<path d="M1212.18 87.2717C1218.14 80.3641 1225.65 80.8377 1232.79 86.1709C1236.75 89.1252 1239.42 93.2104 1241.11 97.7942C1242.03 100.311 1242.81 102.903 1242.79 105.604C1242.74 110.422 1239.96 113.825 1242.53 119.185C1242.66 119.453 1242.29 119.77 1242.08 119.509C1237.8 114.008 1242.61 107.671 1241.25 101.271C1238.56 88.6564 1223.52 75.4659 1212.25 87.3474C1212.21 87.397 1212.14 87.3218 1212.18 87.2717Z" fill="#9D7C6B"/>
<path d="M1218.6 84.6265C1222.75 83.8662 1227.31 87.5101 1229.92 90.3679C1230.14 90.6192 1229.78 90.9534 1229.54 90.7288C1226.82 88.2623 1222.65 84.385 1218.65 84.8305C1218.52 84.8451 1218.46 84.6513 1218.6 84.6265Z" fill="#9D7C6B"/>
<path d="M1231.85 93.313C1235.17 96.497 1236.95 100.885 1237.81 105.349C1237.89 105.734 1237.36 105.829 1237.23 105.48C1235.67 101.249 1234.74 96.9713 1231.62 93.5294C1231.48 93.3794 1231.7 93.1735 1231.85 93.313Z" fill="#9D7C6B"/>
<path d="M1214.14 91.665C1215.57 102.218 1224.09 107.306 1231.82 113.236C1232.08 113.438 1231.84 113.849 1231.54 113.682C1223.02 108.966 1214.81 101.993 1213.67 91.7737C1213.63 91.4669 1214.1 91.3505 1214.14 91.665Z" fill="#9D7C6B"/>
<path d="M1210.97 88.7745C1210.66 93.6129 1211.19 97.3428 1212.91 101.888C1213.05 102.277 1212.55 102.577 1212.32 102.202C1210.04 98.413 1209.4 92.9505 1210.8 88.7461C1210.83 88.6543 1210.97 88.6727 1210.97 88.7745Z" fill="#9D7C6B"/>
<path d="M1214.47 105.866C1219.27 110.47 1224.2 115.163 1230.99 116.353C1235.18 117.087 1239.18 116.783 1242.95 119.03C1243.14 119.148 1243 119.505 1242.78 119.408C1237.58 117.134 1231.7 118.31 1226.49 116.065C1221.56 113.94 1217.86 109.891 1214.37 105.962C1214.31 105.895 1214.4 105.804 1214.47 105.866Z" fill="#9D7C6B"/>
<path d="M1218.23 89.1277C1229.7 96.5675 1233.62 108.584 1241.76 118.96C1241.97 119.224 1241.64 119.549 1241.38 119.321C1236.95 115.317 1234.69 111.871 1232.26 106.557C1229.06 99.5524 1224.28 93.9213 1218.12 89.3061C1218.01 89.2267 1218.11 89.0531 1218.23 89.1277Z" fill="#9D7C6B"/>
<path d="M1260.15 157.432C1272.91 143.732 1291.59 142.894 1308.49 149.032C1309.03 149.227 1308.79 150.026 1308.23 149.883C1290.74 145.418 1274.64 145.259 1260.42 157.718C1260.23 157.887 1259.98 157.618 1260.15 157.432Z" fill="#9D7C6B"/>
<path d="M1271.13 150.769C1268.43 154.876 1273.7 163.201 1272.57 168.321C1271.61 172.699 1268.86 175.706 1265.3 178.276C1256.82 184.384 1243.64 188.247 1235.24 179.816C1228.42 172.972 1230.11 159.581 1236.03 152.658C1239.93 148.094 1246.28 146.313 1252.05 145.715C1259.18 144.976 1264.58 148.888 1271.51 149.133C1271.81 149.143 1271.94 149.593 1271.65 149.721C1265.87 152.232 1261.05 148.162 1255.09 148.009C1247.33 147.81 1238.73 151.232 1235.2 158.317C1231.59 165.56 1231.43 175.98 1239.11 180.76C1250.11 187.608 1269.78 178.417 1270.92 165.733C1271.45 159.933 1266.05 155.154 1270.88 150.564C1271.01 150.438 1271.24 150.611 1271.13 150.769Z" fill="#9D7C6B"/>
<path d="M1234.46 175.049C1242.89 188.606 1259.58 179.32 1265.18 168.196C1268.27 162.062 1264.62 154.223 1270.09 149.545C1270.32 149.351 1270.73 149.627 1270.52 149.893C1266.63 155.032 1269.22 161.939 1266.47 167.65C1264.05 172.661 1260.41 177.027 1255.48 179.697C1247.24 184.168 1239.08 183.527 1234.36 175.098C1234.33 175.039 1234.42 174.992 1234.46 175.049Z" fill="#9D7C6B"/>
<path d="M1240.2 178.787C1244.14 180.017 1248.83 177.14 1252.09 175.182C1252.39 175.004 1252.6 175.453 1252.34 175.643C1249.18 177.883 1244.09 180.534 1240.14 178.987C1240.01 178.939 1240.07 178.746 1240.2 178.787Z" fill="#9D7C6B"/>
<path d="M1254.68 172.862C1258.45 170.138 1260.2 166.078 1262.58 162.257C1262.75 161.981 1263.25 162.177 1263.12 162.497C1261.37 166.708 1258.76 170.699 1254.83 173.138C1254.65 173.247 1254.52 172.976 1254.68 172.862Z" fill="#9D7C6B"/>
<path d="M1236.71 171.021C1239.83 161.205 1249.38 156.019 1258.66 153.103C1258.95 153.014 1259.11 153.46 1258.85 153.588C1250.1 157.853 1240.64 161.077 1237.18 171.162C1237.08 171.458 1236.62 171.322 1236.71 171.021Z" fill="#9D7C6B"/>
<path d="M1233.31 173.393C1232.77 168.985 1234.51 163.724 1237.53 160.478C1237.78 160.201 1238.24 160.577 1238.04 160.891C1236.82 162.809 1235.65 164.634 1234.85 166.78C1234.04 168.932 1233.78 171.113 1233.48 173.376C1233.47 173.466 1233.32 173.499 1233.31 173.393Z" fill="#9D7C6B"/>
<path d="M1240.25 157.237C1244.47 154.088 1248.86 150.92 1254.11 149.801C1259.67 148.615 1265.17 150.86 1270.76 149.76C1271.03 149.707 1271.1 150.085 1270.85 150.168C1266.75 151.525 1263.17 150.485 1258.97 150.366C1251.88 150.165 1246.1 153.729 1240.33 157.349C1240.26 157.39 1240.18 157.285 1240.25 157.237Z" fill="#9D7C6B"/>
<path d="M1240.58 174.307C1248.04 170.784 1253.7 165.93 1258.53 159.284C1261.61 155.05 1264.9 152.216 1269.43 149.547C1269.68 149.399 1269.96 149.774 1269.73 149.966C1259.68 158.503 1253.43 169.492 1240.67 174.492C1240.55 174.539 1240.45 174.366 1240.58 174.307Z" fill="#9D7C6B"/>
<path d="M1356.65 285.427C1370.17 287.295 1379.42 296.082 1384.9 308.221C1385.14 308.743 1384.42 309.127 1384.12 308.641C1376.89 297.109 1369.88 289.777 1356.59 285.813C1356.38 285.751 1356.42 285.395 1356.65 285.427Z" fill="#9D7C6B"/>
<path d="M1368.24 291.052C1364.26 290.54 1361.33 296.976 1358.62 299.255C1357.02 300.605 1355.17 301.63 1353.14 302.199C1348.09 303.609 1343.06 301.817 1338.57 299.537C1329.83 295.104 1321.19 285.724 1324.73 275.13C1327.61 266.505 1339.4 261.315 1347.97 262.623C1353.43 263.457 1357.71 267.235 1361.23 271.255C1366.39 277.141 1365.97 284.028 1369.83 290.496C1369.99 290.761 1369.65 291.081 1369.39 290.911C1367.09 289.374 1366.2 288.064 1365.14 285.396C1363.04 280.114 1361.88 275.311 1357.63 271.089C1352.68 266.168 1347.56 263.833 1340.58 265.153C1333.44 266.504 1325.9 271.614 1325.67 279.539C1325.35 291.134 1341.43 303.885 1352.78 300.605C1359.21 298.743 1359.09 293.355 1363.94 290.874C1365.7 289.978 1366.5 290.003 1368.29 290.73C1368.45 290.794 1368.44 291.078 1368.24 291.052Z" fill="#9D7C6B"/>
<path d="M1327.96 273.392C1321.56 286.501 1335.41 295.58 1347.23 295.634C1351.48 295.653 1354.74 294.835 1358.34 292.725C1359.85 291.841 1361.1 290.598 1362.69 289.84C1364.86 288.804 1366.47 288.652 1368.73 289.519C1369 289.625 1368.97 290.098 1368.64 290.064C1362.21 289.414 1357.04 295.824 1350.37 296.404C1345 296.872 1339.53 296.028 1334.84 293.277C1327.05 288.704 1323.39 281.524 1327.87 273.338C1327.9 273.278 1327.99 273.333 1327.96 273.392Z" fill="#9D7C6B"/>
<path d="M1327.93 280.248C1329.09 284.231 1333.96 286.578 1337.42 288.286C1337.68 288.417 1337.48 288.868 1337.21 288.76C1333.54 287.321 1328.63 284.458 1327.73 280.294C1327.7 280.162 1327.9 280.119 1327.93 280.248Z" fill="#9D7C6B"/>
<path d="M1340.73 289.187C1345.07 290.896 1349.46 290.165 1353.97 290.092C1354.31 290.086 1354.36 290.617 1354.03 290.677C1349.56 291.494 1344.77 291.458 1340.6 289.472C1340.44 289.395 1340.56 289.122 1340.73 289.187Z" fill="#9D7C6B"/>
<path d="M1332.58 273.102C1342.44 270.286 1352.14 275.689 1359.53 281.844C1359.76 282.037 1359.45 282.397 1359.2 282.247C1350.97 277.253 1342.93 270.904 1332.69 273.578C1332.39 273.658 1332.28 273.188 1332.58 273.102Z" fill="#9D7C6B"/>
<path d="M1328.73 271.526C1332.19 268.68 1337.49 267.323 1341.89 268.079C1342.27 268.145 1342.14 268.723 1341.78 268.727C1336.92 268.784 1333.25 269.624 1328.83 271.666C1328.75 271.705 1328.65 271.592 1328.73 271.526Z" fill="#9D7C6B"/>
<path d="M1346.07 268.604C1350.55 270.273 1355.04 272.018 1358.71 275.182C1363.49 279.303 1364.62 285.665 1368.89 290.194C1369.08 290.396 1368.79 290.65 1368.59 290.483C1364.39 287.02 1363.43 281.854 1360.03 277.754C1356.45 273.436 1350.98 271.049 1346.01 268.73C1345.94 268.697 1346 268.576 1346.07 268.604Z" fill="#9D7C6B"/>
<path d="M1331.91 278.134C1338.11 282.09 1345.1 284.632 1352.47 285.056C1358.43 285.398 1362.96 286.265 1368.36 288.962C1368.63 289.097 1368.42 289.519 1368.15 289.435C1364.12 288.226 1360.29 286.544 1356.07 286.177C1353.37 285.944 1350.73 286.04 1348.05 285.547C1342.01 284.434 1336.72 281.944 1331.8 278.313C1331.69 278.234 1331.79 278.061 1331.91 278.134Z" fill="#9D7C6B"/>
<path d="M1405.58 284.732C1390.81 296.199 1387.68 312.345 1388.86 330.293C1388.89 330.794 1388.07 330.871 1387.98 330.376C1385.08 312.856 1389.4 294.065 1405.35 284.415C1405.54 284.302 1405.76 284.595 1405.58 284.732Z" fill="#9D7C6B"/>
<path d="M1396.58 293.663C1401.42 290.207 1404.38 294.618 1409.36 296.089C1422.6 299.999 1437.37 280.656 1432.04 268.229C1429.04 261.225 1422.66 258.791 1415.4 259.377C1406.14 260.125 1400.27 266.427 1397.71 275.137C1395.83 281.535 1399.52 288.523 1395.62 294.238C1395.46 294.471 1394.98 294.398 1395.04 294.063C1396.01 287.857 1393.4 281.99 1394.94 275.772C1396.21 270.626 1398.79 264.636 1403.06 261.266C1410.46 255.425 1425.09 255.484 1431.33 263.189C1438.2 271.67 1433.87 283.215 1427.59 290.529C1424.27 294.394 1420.21 298.035 1414.95 298.64C1409.22 299.298 1401.23 292.087 1396.74 293.954C1396.54 294.036 1396.41 293.786 1396.58 293.663Z" fill="#9D7C6B"/>
<path d="M1427.54 262.438C1434.53 268.314 1434.14 275.829 1428.9 283.038C1425.99 287.033 1421.94 289.752 1417.37 291.493C1414.87 292.448 1412.29 293.268 1409.59 293.268C1404.78 293.267 1401.31 290.56 1396.01 293.184C1395.74 293.317 1395.43 292.941 1395.68 292.736C1401.08 288.424 1407.58 293.006 1413.91 291.675C1426.56 289.017 1439.39 273.534 1427.47 262.51C1427.42 262.463 1427.49 262.395 1427.54 262.438Z" fill="#9D7C6B"/>
<path d="M1430.27 268.825C1431.08 272.965 1427.49 277.575 1424.66 280.213C1424.41 280.446 1424.08 280.082 1424.3 279.834C1426.74 277.09 1430.56 272.869 1430.06 268.871C1430.05 268.741 1430.24 268.691 1430.27 268.825Z" fill="#9D7C6B"/>
<path d="M1421.75 282.177C1418.6 285.54 1414.24 287.375 1409.78 288.293C1409.47 288.357 1409.25 287.867 1409.58 287.742C1413.82 286.11 1418.1 285.136 1421.53 281.95C1421.68 281.811 1421.88 282.03 1421.75 282.177Z" fill="#9D7C6B"/>
<path d="M1423.17 264.456C1412.64 266.011 1407.66 274.6 1401.82 282.397C1401.62 282.665 1401.21 282.424 1401.38 282.124C1405.99 273.547 1412.86 265.252 1423.06 263.979C1423.37 263.941 1423.49 264.409 1423.17 264.456Z" fill="#9D7C6B"/>
<path d="M1426.02 261.241C1421.18 260.994 1417.46 261.574 1412.93 263.347C1412.54 263.5 1412.25 262.993 1412.62 262.764C1416.38 260.432 1421.83 259.732 1426.05 261.07C1426.15 261.1 1426.13 261.246 1426.02 261.241Z" fill="#9D7C6B"/>
<path d="M1408.98 264.955C1404.45 269.807 1399.78 274.823 1398.7 281.616C1398.03 285.816 1398.36 289.815 1396.17 293.596C1396.05 293.797 1395.7 293.649 1395.79 293.427C1398 288.203 1396.75 282.339 1398.93 277.098C1401 272.142 1405 268.392 1408.88 264.854C1408.95 264.793 1409.04 264.889 1408.98 264.955Z" fill="#9D7C6B"/>
<path d="M1425.76 268.506C1418.47 280.073 1406.5 284.147 1396.22 292.412C1395.96 292.624 1395.64 292.287 1395.86 292.034C1399.81 287.555 1403.23 285.252 1408.51 282.754C1415.48 279.463 1421.05 274.612 1425.58 268.397C1425.66 268.29 1425.83 268.391 1425.76 268.506Z" fill="#9D7C6B"/>
<path d="M1423.39 344.194C1411.18 358.36 1411.31 374.807 1416.03 392.164C1416.16 392.648 1415.36 392.888 1415.18 392.419C1408.87 375.822 1409.38 356.547 1423.1 343.928C1423.27 343.78 1423.54 344.023 1423.39 344.194Z" fill="#9D7C6B"/>
<path d="M1416.34 354.73C1420.39 350.384 1424.17 354.121 1429.34 354.576C1443.09 355.787 1453.74 333.899 1446.06 322.774C1441.73 316.504 1434.99 315.383 1427.99 317.395C1419.06 319.963 1414.56 327.303 1413.77 336.348C1413.2 342.992 1418.2 349.109 1415.51 355.485C1415.4 355.744 1414.92 355.766 1414.9 355.428C1414.63 349.152 1410.91 343.919 1411.18 337.519C1411.41 332.223 1412.75 325.841 1416.27 321.692C1422.36 314.501 1436.72 311.66 1444.36 317.976C1452.77 324.928 1450.82 337.102 1446.11 345.515C1443.62 349.96 1440.36 354.334 1435.33 355.969C1429.84 357.748 1420.59 352.263 1416.55 354.984C1416.37 355.104 1416.2 354.884 1416.34 354.73Z" fill="#9D7C6B"/>
<path d="M1440.5 317.99C1448.51 322.367 1449.62 329.808 1445.91 337.914C1443.85 342.406 1440.42 345.873 1436.29 348.484C1434.03 349.916 1431.65 351.232 1429.01 351.766C1424.29 352.718 1420.36 350.751 1415.68 354.375C1415.44 354.558 1415.06 354.252 1415.27 354C1419.71 348.703 1426.99 351.907 1432.93 349.348C1444.8 344.237 1454.31 326.519 1440.44 318.076C1440.38 318.04 1440.44 317.958 1440.5 317.99Z" fill="#9D7C6B"/>
<path d="M1444.44 323.711C1446.05 327.608 1443.44 332.838 1441.2 335.982C1441 336.26 1440.6 335.97 1440.77 335.683C1442.61 332.511 1445.52 327.617 1444.25 323.796C1444.2 323.672 1444.38 323.584 1444.44 323.711Z" fill="#9D7C6B"/>
<path d="M1438.73 338.487C1436.31 342.406 1432.4 345.071 1428.21 346.852C1427.92 346.977 1427.61 346.539 1427.9 346.353C1431.74 343.913 1435.74 342.109 1438.47 338.307C1438.59 338.142 1438.83 338.316 1438.73 338.487Z" fill="#9D7C6B"/>
<path d="M1436.61 320.833C1426.6 324.446 1423.42 333.851 1419.24 342.649C1419.1 342.951 1418.65 342.796 1418.75 342.47C1421.57 333.149 1426.66 323.657 1436.41 320.388C1436.71 320.29 1436.91 320.726 1436.61 320.833Z" fill="#9D7C6B"/>
<path d="M1438.78 317.118C1433.98 317.835 1430.45 319.141 1426.36 321.776C1426.01 322.003 1425.62 321.564 1425.94 321.266C1429.16 318.236 1434.37 316.469 1438.77 316.945C1438.87 316.955 1438.87 317.103 1438.78 317.118Z" fill="#9D7C6B"/>
<path d="M1422.8 324.135C1419.32 329.789 1415.74 335.63 1416.03 342.503C1416.2 346.752 1417.32 350.605 1415.92 354.746C1415.85 354.966 1415.47 354.892 1415.52 354.655C1416.65 349.097 1414.26 343.598 1415.36 338.027C1416.4 332.761 1419.58 328.292 1422.69 324.055C1422.74 323.982 1422.85 324.059 1422.8 324.135Z" fill="#9D7C6B"/>
<path d="M1439.96 324.291C1435.1 337.074 1424.17 343.438 1415.74 353.576C1415.52 353.835 1415.14 353.568 1415.31 353.276C1418.29 348.103 1421.19 345.169 1425.87 341.673C1432.05 337.068 1436.54 331.21 1439.76 324.22C1439.82 324.099 1440.01 324.164 1439.96 324.291Z" fill="#9D7C6B"/>
<path d="M1316.83 175.628C1335.4 165.227 1358 173.468 1368.75 191.119C1369 191.539 1368.33 192.043 1368.03 191.636C1355.73 174.859 1336.44 167.728 1317.02 175.976C1316.79 176.074 1316.61 175.754 1316.83 175.628Z" fill="#9D7C6B"/>
<path d="M1329.4 172.835C1326.18 175.336 1327.49 186.748 1324.54 190.88C1321.97 194.489 1318.03 196.231 1313.88 197.36C1304.1 200.022 1291.16 199.091 1286.09 188.861C1281.65 179.903 1288.03 167.354 1296.35 162.979C1301.14 160.458 1306.59 160.773 1311.78 161.736C1319.46 163.162 1323.23 168.751 1330.25 171.407C1330.6 171.538 1330.5 171.991 1330.15 172.02C1323.64 172.554 1319.75 166.566 1313.81 164.743C1306.07 162.366 1297.31 163.853 1291.75 169.867C1285.4 176.732 1284.2 188.24 1292.89 193.983C1301.94 199.967 1321.44 197.674 1325.13 186.044C1326.84 180.636 1323.22 175.336 1329.2 172.571C1329.36 172.498 1329.55 172.714 1329.4 172.835Z" fill="#9D7C6B"/>
<path d="M1286.85 184.047C1290.47 199.53 1309.13 196.293 1318.13 187.454C1322.98 182.691 1322.15 174.013 1328.78 171.356C1329.12 171.223 1329.35 171.644 1329.05 171.847C1323.86 175.354 1322.94 184.401 1317.89 188.858C1313.95 192.332 1309.25 194.839 1303.97 195.431C1295.1 196.427 1288.41 193.015 1286.75 184.07C1286.74 184.004 1286.84 183.981 1286.85 184.047Z" fill="#9D7C6B"/>
<path d="M1291.08 189.432C1294.37 191.878 1299.83 190.62 1303.5 189.845C1303.83 189.774 1303.93 190.255 1303.61 190.355C1299.92 191.505 1294.15 192.342 1290.95 189.593C1290.87 189.516 1290.99 189.361 1291.08 189.432Z" fill="#9D7C6B"/>
<path d="M1306.7 188.479C1311.13 187.085 1314.1 183.842 1317.58 180.986C1317.88 180.743 1318.24 181.13 1317.99 181.416C1314.99 184.838 1311.25 187.712 1306.77 188.785C1306.57 188.832 1306.51 188.539 1306.7 188.479Z" fill="#9D7C6B"/>
<path d="M1290.28 180.977C1296.45 172.702 1307.03 170.816 1316.81 171.045C1317.1 171.052 1317.16 171.523 1316.86 171.561C1307.15 172.789 1297.3 172.772 1290.69 181.231C1290.5 181.475 1290.09 181.231 1290.28 180.977Z" fill="#9D7C6B"/>
<path d="M1286.3 182.097C1287.23 177.753 1290.53 173.37 1294.43 171.248C1294.75 171.074 1295.11 171.539 1294.81 171.779C1291.07 174.812 1288.62 177.863 1286.46 182.168C1286.41 182.261 1286.28 182.187 1286.3 182.097Z" fill="#9D7C6B"/>
<path d="M1298.07 169.039C1303.06 167.415 1308.24 165.821 1313.55 166.425C1319.2 167.068 1323.7 171.063 1329.34 171.765C1329.61 171.798 1329.6 172.183 1329.33 172.183C1324.44 172.191 1320.96 169.347 1316.42 167.989C1310.38 166.182 1304.06 167.753 1298.11 169.175C1298.02 169.196 1297.99 169.067 1298.07 169.039Z" fill="#9D7C6B"/>
<path d="M1292.88 185.316C1300.57 184.436 1307.44 181.931 1313.8 177.524C1318.44 174.302 1322.58 172.303 1328.15 171.139C1328.43 171.082 1328.62 171.512 1328.33 171.625C1316.07 176.473 1306.57 184.889 1292.9 185.522C1292.78 185.527 1292.76 185.329 1292.88 185.316Z" fill="#9D7C6B"/>
<path d="M1359.4 225.006C1366.19 224.554 1375.81 225.378 1380.82 230.763C1385.5 235.78 1385.53 244.708 1385.15 250.976C1385.12 251.556 1384.3 251.507 1384.27 250.943C1383.93 245.292 1383.76 236.848 1379.93 232.168C1375.31 226.525 1366.06 225.86 1359.38 225.401C1359.12 225.383 1359.15 225.022 1359.4 225.006Z" fill="#9D7C6B"/>
<path d="M1371.83 228.083C1367.81 228.416 1366.31 235.368 1364.2 238.084C1362.92 239.738 1361.34 241.138 1359.48 242.124C1355.2 244.39 1350.42 243.94 1345.86 242.885C1336.18 240.646 1325.58 233.921 1325.95 222.722C1326.27 213.272 1336.83 205.254 1345.76 204.559C1351.4 204.119 1356.41 206.901 1360.81 210.159C1367.11 214.824 1368.18 221.685 1373.3 227.188C1373.5 227.404 1373.28 227.824 1372.98 227.704C1370.92 226.887 1370.32 226.591 1368.84 224.913C1364.4 219.887 1363.55 214.903 1357.36 210.818C1351.1 206.691 1344.53 205.928 1337.71 209.401C1330.19 213.23 1325.18 221.232 1329.09 229.532C1334.51 241.052 1355.01 246.956 1363.55 236.322C1366.33 232.858 1366.15 226.759 1371.88 227.761C1372.08 227.796 1372 228.069 1371.83 228.083Z" fill="#9D7C6B"/>
<path d="M1328.78 219.257C1325.28 233.767 1341.44 239.557 1353.12 236.775C1359.06 235.36 1361.19 232.114 1365.51 228.605C1367.78 226.766 1369.17 226.252 1372.01 226.478C1372.31 226.502 1372.39 226.985 1372.06 227.029C1365.58 227.911 1361.93 235.117 1355.54 237.057C1350.26 238.658 1344.68 238.953 1339.43 237.147C1330.87 234.208 1326.08 228.137 1328.68 219.228C1328.7 219.162 1328.79 219.192 1328.78 219.257Z" fill="#9D7C6B"/>
<path d="M1330.19 225.963C1332.1 229.627 1337.45 230.877 1341.14 231.836C1341.42 231.909 1341.35 232.393 1341.05 232.347C1337.22 231.761 1331.68 229.914 1330 226.061C1329.95 225.94 1330.12 225.842 1330.19 225.963Z" fill="#9D7C6B"/>
<path d="M1344.57 232.025C1349.17 232.773 1353.3 231.153 1357.7 230.136C1358.02 230.063 1358.22 230.555 1357.91 230.685C1353.69 232.425 1349.02 233.39 1344.52 232.332C1344.35 232.292 1344.39 231.996 1344.57 232.025Z" fill="#9D7C6B"/>
<path d="M1333.22 218.012C1342.33 213.248 1352.83 216.397 1361.41 220.896C1361.67 221.033 1361.48 221.466 1361.2 221.369C1352.04 218.196 1342.99 213.727 1333.46 218.442C1333.17 218.581 1332.95 218.158 1333.22 218.012Z" fill="#9D7C6B"/>
<path d="M1329.14 217.275C1331.93 213.772 1336.8 211.331 1341.27 211.142C1341.65 211.126 1341.69 211.714 1341.33 211.796C1336.6 212.877 1333.15 214.473 1329.27 217.384C1329.2 217.437 1329.07 217.36 1329.14 217.275Z" fill="#9D7C6B"/>
<path d="M1345.48 210.779C1350.33 211.487 1355.25 212.287 1359.57 214.749C1364.9 217.783 1367.28 223.711 1372.32 227.098C1372.54 227.25 1372.34 227.575 1372.1 227.455C1367.76 225.268 1365.81 221.185 1362.38 217.957C1357.81 213.649 1351.39 212.274 1345.46 210.915C1345.38 210.898 1345.4 210.767 1345.48 210.779Z" fill="#9D7C6B"/>
<path d="M1333.63 223.066C1340.87 225.727 1348.43 226.686 1356.06 225.346C1361.54 224.383 1366.12 224.609 1371.53 226.008C1371.82 226.081 1371.75 226.544 1371.45 226.519C1367.29 226.178 1363.15 225.351 1358.97 225.861C1356.45 226.168 1354.05 226.806 1351.51 226.922C1345.19 227.209 1339.31 225.83 1333.57 223.267C1333.45 223.214 1333.5 223.019 1333.63 223.066Z" fill="#9D7C6B"/>
<path d="M1360.63 347.857C1383.48 337.536 1399.45 360.414 1406.59 379.366C1406.79 379.883 1406.06 380.318 1405.81 379.786C1396.95 361.048 1384.01 340.537 1360.77 348.223C1360.56 348.293 1360.43 347.948 1360.63 347.857Z" fill="#9D7C6B"/>
<path d="M1373.41 346.421C1369.01 349.15 1370.57 359.468 1366.67 363.844C1363.12 367.837 1357.78 369.024 1352.65 369.473C1343.03 370.315 1331.03 367.054 1328.21 356.484C1325.77 347.338 1333.43 336.215 1341.8 333.001C1347.04 330.986 1353.14 332.039 1358.33 333.834C1364.97 336.128 1368.41 342.029 1374.48 345.099C1374.77 345.246 1374.6 345.686 1374.31 345.679C1367.62 345.525 1363.55 338.717 1357.61 336.245C1349.99 333.077 1341.69 334.057 1335.71 339.788C1330.44 344.844 1327.78 352.371 1331.52 359.036C1338.26 371.058 1362.84 371.96 1367.77 357.946C1369.51 352.984 1367.67 348.023 1373.3 346.115C1373.48 346.053 1373.56 346.329 1373.41 346.421Z" fill="#9D7C6B"/>
<path d="M1329.94 353.026C1331.89 368.772 1350.9 367.674 1360.64 359.681C1365.87 355.386 1366.15 346.787 1373.03 344.857C1373.33 344.771 1373.49 345.229 1373.22 345.375C1367.77 348.271 1366.29 356.594 1361.22 360.468C1357.08 363.635 1352.27 365.764 1347.04 366.088C1337.72 366.665 1330.57 362.598 1329.84 353.036C1329.83 352.978 1329.93 352.967 1329.94 353.026Z" fill="#9D7C6B"/>
<path d="M1333.59 358.846C1336.56 361.589 1342.17 360.949 1345.85 360.571C1346.17 360.538 1346.3 361.013 1345.96 361.081C1342.18 361.833 1336.33 362.071 1333.44 358.991C1333.34 358.892 1333.49 358.756 1333.59 358.846Z" fill="#9D7C6B"/>
<path d="M1349.19 359.552C1353.76 358.631 1357.07 355.713 1360.86 353.23C1361.15 353.044 1361.45 353.482 1361.21 353.705C1357.86 356.791 1353.83 359.266 1349.26 359.857C1349.06 359.883 1348.99 359.592 1349.19 359.552Z" fill="#9D7C6B"/>
<path d="M1333.7 350.316C1340.68 342.775 1351.44 342.028 1361.09 343.286C1361.42 343.33 1361.41 343.802 1361.07 343.809C1351.31 344 1341.47 342.994 1334.03 350.669C1333.81 350.896 1333.49 350.544 1333.7 350.316Z" fill="#9D7C6B"/>
<path d="M1329.6 351.043C1330.98 346.842 1334.72 342.823 1338.8 341.125C1339.19 340.962 1339.47 341.475 1339.11 341.709C1335.02 344.367 1332.4 347.011 1329.75 351.114C1329.7 351.195 1329.56 351.139 1329.6 351.043Z" fill="#9D7C6B"/>
<path d="M1342.69 339.304C1347.71 338.238 1352.83 337.254 1357.96 338.279C1363.72 339.431 1367.83 344.052 1373.53 345.344C1373.76 345.396 1373.69 345.776 1373.46 345.753C1369.06 345.322 1366.06 342.678 1362.22 340.759C1356.1 337.696 1349.25 338.595 1342.72 339.44C1342.63 339.451 1342.6 339.323 1342.69 339.304Z" fill="#9D7C6B"/>
<path d="M1335.82 354.934C1344.03 354.872 1351.36 352.92 1358.46 348.819C1362.99 346.197 1367.13 345.12 1372.35 344.593C1372.68 344.56 1372.8 345.01 1372.47 345.103C1359.82 348.619 1349.41 355.964 1335.81 355.143C1335.67 355.135 1335.68 354.935 1335.82 354.934Z" fill="#9D7C6B"/>
<path d="M1289.59 121.599C1293.22 134.723 1300.94 144.878 1313.35 150.586C1313.81 150.8 1313.46 151.538 1312.98 151.391C1299.94 147.315 1291.03 135.062 1289.21 121.686C1289.17 121.437 1289.53 121.35 1289.59 121.599Z" fill="#9D7C6B"/>
<path d="M1294.27 133.377C1293.01 127.708 1297.6 127.295 1301.1 123.616C1311.29 112.904 1298.27 90.9766 1284.79 90.5822C1276.73 90.3463 1271.28 97.452 1269.38 104.592C1267.19 112.823 1271.53 119.941 1277.73 124.945C1282.86 129.09 1290.76 128.733 1294.44 134.504C1294.61 134.772 1294.25 135.076 1294 134.919C1288.19 131.296 1281.53 131.49 1276.08 126.988C1271.9 123.536 1267.82 118.895 1266.77 113.434C1264.98 104.085 1271.16 91.1576 1281.05 89.2073C1292.26 86.9957 1300.86 96.7308 1304.68 106.106C1306.3 110.079 1307.32 114.284 1306.03 118.504C1304.35 124.021 1294.65 128.287 1294.6 133.347C1294.6 133.534 1294.31 133.559 1294.27 133.377Z" fill="#9D7C6B"/>
<path d="M1277.69 92.6284C1286.31 88.269 1293.43 92.2866 1297.77 100.609C1300.19 105.23 1300.86 110.449 1300.3 115.606C1299.58 122.28 1293.23 127.099 1293.6 133.733C1293.62 134.061 1293.13 134.076 1293.05 133.785C1291.14 126.911 1298.54 122.369 1299.4 115.573C1300.97 103.181 1292.49 86.1116 1277.74 92.7206C1277.68 92.7481 1277.63 92.6591 1277.69 92.6284Z" fill="#9D7C6B"/>
<path d="M1284.65 92.6282C1288.79 93.5508 1291.54 98.5989 1292.9 102.216C1293.02 102.52 1292.59 102.776 1292.44 102.463C1290.84 99.0261 1288.54 94.0077 1284.59 92.8286C1284.46 92.7895 1284.52 92.5992 1284.65 92.6282Z" fill="#9D7C6B"/>
<path d="M1293.57 105.685C1295.46 109.902 1295.41 114.674 1294.5 119.14C1294.43 119.475 1293.91 119.373 1293.92 119.044C1294.08 114.532 1294.89 110.169 1293.28 105.794C1293.22 105.629 1293.5 105.524 1293.57 105.685Z" fill="#9D7C6B"/>
<path d="M1277.83 97.4648C1275.08 107.698 1281.13 115.752 1285.98 124.143C1286.13 124.393 1285.75 124.681 1285.56 124.447C1279.49 116.837 1274.46 107.212 1277.36 97.3242C1277.45 97.0215 1277.91 97.1621 1277.83 97.4648Z" fill="#9D7C6B"/>
<path d="M1276 93.5612C1274.99 95.6017 1273.98 97.5633 1273.45 99.7959C1272.92 102.027 1272.86 104.189 1272.8 106.463C1272.79 106.829 1272.21 106.903 1272.15 106.524C1271.46 102.146 1272.95 96.811 1275.86 93.4527C1275.93 93.373 1276.04 93.4793 1276 93.5612Z" fill="#9D7C6B"/>
<path d="M1272.72 110.682C1275.48 116.905 1278.29 123.095 1284.28 126.886C1287.83 129.134 1291.38 130.272 1294.03 133.687C1294.19 133.896 1293.92 134.171 1293.72 133.976C1289.7 129.943 1283.89 128.733 1279.94 124.642C1276.21 120.78 1274.34 115.702 1272.59 110.73C1272.57 110.656 1272.69 110.61 1272.72 110.682Z" fill="#9D7C6B"/>
<path d="M1282.59 96.657C1290.33 107.865 1289.45 120.605 1292.99 133.231C1293.07 133.512 1292.63 133.679 1292.5 133.412C1290.46 129.125 1289.26 125.202 1288.89 120.463C1288.18 111.57 1287.08 104.619 1282.4 96.756C1282.33 96.638 1282.51 96.5488 1282.59 96.657Z" fill="#9D7C6B"/>
<path d="M1357.43 152.809C1357.2 164.679 1361.12 175.463 1366.08 186.064C1366.33 186.587 1365.61 186.959 1365.3 186.484C1359.02 176.951 1355.1 164.127 1357.05 152.744C1357.09 152.518 1357.44 152.592 1357.43 152.809Z" fill="#9D7C6B"/>
<path d="M1358.47 165.453C1358.15 160.813 1362.1 160.488 1365.59 158.89C1373.59 155.228 1375.81 148.182 1374.4 139.911C1373.28 133.298 1370.31 125.936 1363.94 122.679C1355.2 118.207 1345.68 124.769 1342.02 132.817C1339.29 138.832 1340.43 144.661 1343.66 150.284C1346.44 155.11 1350.31 157.471 1354.38 160.804C1356.6 162.618 1357.56 163.908 1358.3 166.566C1358.39 166.86 1357.97 167.081 1357.77 166.851C1353.64 162.113 1347.42 160.27 1343.67 155.077C1340.61 150.843 1337.66 145.036 1337.84 139.659C1338.15 130.152 1347.56 119.073 1357.49 119.21C1368.91 119.366 1374.91 131.069 1376.2 140.96C1376.81 145.673 1376.8 150.543 1374.08 154.624C1371.26 158.836 1359.56 161.468 1358.8 165.507C1358.76 165.705 1358.49 165.624 1358.47 165.453Z" fill="#9D7C6B"/>
<path d="M1354.5 121.632C1363.61 119.982 1369.17 125.415 1371.2 134.181C1372.37 139.27 1371.65 144.271 1369.83 149.115C1367.33 155.76 1359.32 159.078 1357.73 165.581C1357.66 165.894 1357.18 165.802 1357.19 165.49C1357.25 163.065 1357.54 161.947 1359.19 160.078C1363.11 155.649 1367.16 153.937 1369.39 147.789C1373.51 136.452 1369.34 119.761 1354.52 121.735C1354.45 121.744 1354.43 121.645 1354.5 121.632Z" fill="#9D7C6B"/>
<path d="M1361.15 123.662C1364.85 125.821 1366 131.364 1366.26 135.301C1366.28 135.594 1365.78 135.643 1365.74 135.349C1365.2 131.542 1364.46 126.173 1361.04 123.84C1360.93 123.764 1361.04 123.593 1361.15 123.662Z" fill="#9D7C6B"/>
<path d="M1365.88 138.749C1366.48 143.319 1365.01 147.896 1362.85 151.886C1362.69 152.181 1362.21 151.963 1362.32 151.645C1363.79 147.384 1365.85 143.425 1365.57 138.778C1365.56 138.603 1365.85 138.573 1365.88 138.749Z" fill="#9D7C6B"/>
<path d="M1353.23 126.292C1347.54 135.292 1351.03 144.738 1353.23 154.188C1353.3 154.465 1352.86 154.651 1352.75 154.37C1349.18 145.369 1347.12 134.602 1352.81 126.037C1352.98 125.776 1353.4 126.026 1353.23 126.292Z" fill="#9D7C6B"/>
<path d="M1352.61 122.029C1351.05 123.688 1349.51 125.26 1348.36 127.239C1347.2 129.211 1346.51 131.278 1345.79 133.427C1345.68 133.767 1345.09 133.707 1345.14 133.319C1345.77 128.926 1348.74 124.262 1352.51 121.889C1352.59 121.834 1352.67 121.96 1352.61 122.029Z" fill="#9D7C6B"/>
<path d="M1344.48 137.45C1345.23 143.592 1345.97 149.856 1349.78 154.944C1352.62 158.73 1356.37 161.149 1358.14 165.666C1358.24 165.91 1357.91 166.107 1357.78 165.864C1354.89 160.564 1349.36 157.557 1346.85 152.001C1344.8 147.445 1344.55 142.374 1344.34 137.462C1344.34 137.384 1344.47 137.371 1344.48 137.45Z" fill="#9D7C6B"/>
<path d="M1358.01 126.911C1359.95 132.881 1360.7 138.882 1359.77 145.124C1359.44 147.334 1358.75 149.406 1358.2 151.558C1357.03 156.056 1357.39 160.338 1357.29 164.921C1357.28 165.21 1356.82 165.268 1356.77 164.969C1355.95 159.471 1356.14 154.85 1357.72 149.519C1359.92 142.119 1359.68 134.402 1357.8 126.957C1357.77 126.825 1357.96 126.785 1358.01 126.911Z" fill="#9D7C6B"/>
<path d="M1396.81 214.79C1389.99 224.527 1387.12 235.562 1385.31 247.158C1385.22 247.709 1384.42 247.714 1384.42 247.126C1384.54 235.934 1388.48 222.592 1396.5 214.544C1396.66 214.388 1396.94 214.604 1396.81 214.79Z" fill="#9D7C6B"/>
<path d="M1390.56 225.866C1393.02 221.617 1396.33 223.968 1400.29 224.578C1415.33 226.892 1425.74 206.221 1419.1 193.555C1414.93 185.584 1404.89 184.685 1397.41 188.351C1391.35 191.323 1388.14 196.196 1387.13 202.706C1386.11 209.296 1388.02 213.337 1389.72 219.493C1390.49 222.286 1390.75 223.856 1389.81 226.657C1389.72 226.93 1389.25 226.965 1389.2 226.636C1388.45 220.406 1384.33 215.438 1384.12 209.045C1383.95 203.766 1384.82 197.276 1387.98 192.888C1393.5 185.247 1407.53 181.365 1415.62 186.974C1424.72 193.282 1423.6 205.751 1419.47 214.548C1417.32 219.114 1414.46 223.617 1409.61 225.614C1404.79 227.595 1393.68 223.193 1390.81 226.072C1390.68 226.207 1390.47 226.026 1390.56 225.866Z" fill="#9D7C6B"/>
<path d="M1411.85 187.348C1420.68 191.323 1422.03 199.595 1418.21 208.176C1416.41 212.227 1413.52 215.448 1409.99 218.076C1408.17 219.437 1406.19 220.821 1404.03 221.6C1399.14 223.361 1394.45 221.412 1389.9 225.532C1389.67 225.737 1389.28 225.451 1389.47 225.185C1393.65 219.33 1401.84 222.119 1407.7 218.613C1418.49 212.157 1425.95 194.621 1411.8 187.437C1411.74 187.406 1411.79 187.321 1411.85 187.348Z" fill="#9D7C6B"/>
<path d="M1416.22 192.75C1418.08 196.514 1415.96 201.917 1413.93 205.236C1413.75 205.53 1413.34 205.26 1413.48 204.963C1415.09 201.6 1417.57 196.593 1416.03 192.849C1415.98 192.727 1416.16 192.627 1416.22 192.75Z" fill="#9D7C6B"/>
<path d="M1411.66 207.922C1409.57 212.014 1405.84 214.98 1401.82 217.068C1401.53 217.215 1401.2 216.799 1401.47 216.592C1405.1 213.875 1408.98 211.766 1411.39 207.757C1411.5 207.582 1411.75 207.744 1411.66 207.922Z" fill="#9D7C6B"/>
<path d="M1408.2 190.482C1398.39 194.821 1396.04 204.463 1392.55 213.571C1392.43 213.887 1391.98 213.749 1392.05 213.42C1394.13 203.959 1398.49 193.993 1407.96 190.052C1408.25 189.932 1408.49 190.353 1408.2 190.482Z" fill="#9D7C6B"/>
<path d="M1410.06 186.61C1405.36 187.703 1401.9 189.295 1398.04 192.21C1397.71 192.463 1397.29 192.05 1397.59 191.73C1400.58 188.464 1405.62 186.314 1410.05 186.438C1410.15 186.441 1410.16 186.588 1410.06 186.61Z" fill="#9D7C6B"/>
<path d="M1394.68 194.833C1391.63 200.752 1388.47 206.901 1389.31 213.764C1389.82 217.998 1391.22 221.629 1390.17 225.886C1390.11 226.113 1389.73 226.056 1389.76 225.818C1390.42 220.166 1387.6 214.842 1388.33 209.19C1389.02 203.868 1391.78 199.231 1394.56 194.761C1394.61 194.683 1394.72 194.755 1394.68 194.833Z" fill="#9D7C6B"/>
<path d="M1411.79 193.673C1410.16 199.308 1407.72 204.304 1403.87 208.785C1401.93 211.053 1399.61 212.705 1397.46 214.746C1394.4 217.647 1392.32 221.318 1389.89 224.733C1389.7 225.011 1389.3 224.76 1389.45 224.459C1391.89 219.372 1394.53 215.859 1398.85 212.268C1404.8 207.308 1408.94 200.862 1411.59 193.613C1411.64 193.487 1411.83 193.543 1411.79 193.673Z" fill="#9D7C6B"/>
</g>
<g clip-path="url(#clip1_6389_11149)">
<path d="M188.24 127.622C161.636 143.477 129.536 144.653 102.944 160.236C78.9173 174.315 61.2749 199.063 56.0159 226.423C49.8902 258.293 57.8468 290.77 51.4015 322.806C43.6326 361.419 25.0359 392.793 -0.383983 422.26C-1.42341 423.465 0.182555 424.869 1.35679 423.919C26.1284 403.868 41.8749 372.13 50.6522 342.06C55.1373 326.695 58 310.683 58.2252 294.657C58.4507 278.598 56.4355 262.596 56.7123 246.535C57.3301 210.701 75.0125 177.725 107.037 160.347C132.806 146.363 164.537 145.78 188.326 127.762C188.409 127.7 188.332 127.567 188.24 127.622Z" fill="#9D7C6B"/>
<path d="M205.8 109.506C198.695 118.072 189.447 125.344 180.341 131.663C179.865 131.994 180.296 132.673 180.806 132.422C190.09 127.853 201.111 118.928 206.117 109.735C206.221 109.545 205.945 109.33 205.8 109.506Z" fill="#9D7C6B"/>
<path d="M196.703 119.97C199.318 116.693 198.341 114.59 196.948 111.117C195.483 107.467 193.171 104.826 193.577 100.581C193.938 96.7986 196.309 93.4169 198.857 90.6641C203.463 85.6872 210.536 81.4696 217.448 81.9691C225.637 82.5606 230.825 88.5598 231.173 96.7012C231.587 106.373 226.052 113.721 216.829 116.759C210.151 118.959 202.307 115.482 196.42 119.589C196.115 119.802 196.331 120.215 196.674 120.156C203.403 118.992 209.539 121.745 216.233 119.668C221.624 117.995 227.179 115.182 230.216 110.273C234.911 102.685 234.437 89.2602 226.938 83.4359C218.357 76.7708 206.969 81.1994 199.736 87.5659C195.875 90.964 192.276 95.0784 191.767 100.409C191.172 106.64 198.874 114.5 196.439 119.778C196.365 119.937 196.58 120.123 196.703 119.97Z" fill="#9D7C6B"/>
<path d="M227.819 87.2717C221.858 80.3641 214.349 80.8377 207.206 86.1709C203.248 89.1252 200.577 93.2104 198.893 97.7942C197.968 100.311 197.187 102.903 197.214 105.604C197.261 110.422 200.035 113.825 197.468 119.185C197.339 119.453 197.713 119.77 197.916 119.509C202.196 114.008 197.39 107.671 198.752 101.271C201.435 88.6564 216.484 75.4659 227.747 87.3474C227.794 87.397 227.862 87.3218 227.819 87.2717Z" fill="#9D7C6B"/>
<path d="M221.4 84.6265C217.248 83.8662 212.69 87.5101 210.084 90.3679C209.855 90.6192 210.216 90.9534 210.462 90.7288C213.175 88.2623 217.35 84.385 221.353 84.8305C221.484 84.8451 221.535 84.6513 221.4 84.6265Z" fill="#9D7C6B"/>
<path d="M208.154 93.313C204.831 96.497 203.048 100.885 202.186 105.349C202.112 105.734 202.635 105.829 202.764 105.48C204.332 101.249 205.259 96.9713 208.381 93.5294C208.518 93.3794 208.299 93.1735 208.154 93.313Z" fill="#9D7C6B"/>
<path d="M225.857 91.665C224.431 102.218 215.908 107.306 208.183 113.236C207.92 113.438 208.156 113.849 208.456 113.682C216.975 108.966 225.187 101.993 226.332 91.7737C226.367 91.4669 225.899 91.3505 225.857 91.665Z" fill="#9D7C6B"/>
<path d="M229.034 88.7745C229.341 93.6129 228.809 97.3428 227.092 101.888C226.945 102.277 227.449 102.577 227.676 102.202C229.962 98.413 230.595 92.9505 229.204 88.7461C229.174 88.6543 229.027 88.6727 229.034 88.7745Z" fill="#9D7C6B"/>
<path d="M225.534 105.866C220.726 110.47 215.796 115.163 209.006 116.353C204.815 117.087 200.82 116.783 197.054 119.03C196.856 119.148 197.002 119.505 197.224 119.408C202.415 117.134 208.299 118.31 213.51 116.065C218.442 113.94 222.143 109.891 225.634 105.962C225.694 105.895 225.598 105.804 225.534 105.866Z" fill="#9D7C6B"/>
<path d="M221.774 89.1277C210.299 96.5675 206.377 108.584 198.238 118.96C198.031 119.224 198.364 119.549 198.616 119.321C203.045 115.317 205.305 111.871 207.737 106.557C210.943 99.5524 215.723 93.9213 221.883 89.3061C221.989 89.2267 221.888 89.0531 221.774 89.1277Z" fill="#9D7C6B"/>
<path d="M179.852 157.432C167.089 143.732 148.408 142.894 131.509 149.032C130.972 149.227 131.209 150.026 131.766 149.883C149.261 145.418 165.358 145.259 179.579 157.718C179.771 157.887 180.024 157.618 179.852 157.432Z" fill="#9D7C6B"/>
<path d="M168.866 150.769C171.572 154.876 166.296 163.201 167.428 168.321C168.395 172.699 171.138 175.706 174.703 178.276C183.175 184.384 196.355 188.247 204.758 179.816C211.578 172.972 209.888 159.581 203.97 152.658C200.07 148.094 193.724 146.313 187.95 145.715C180.824 144.976 175.422 148.888 168.487 149.133C168.192 149.143 168.056 149.593 168.35 149.721C174.13 152.232 178.949 148.162 184.905 148.009C192.667 147.81 201.274 151.232 204.801 158.317C208.407 165.56 208.571 175.98 200.892 180.76C189.892 187.608 170.224 178.417 169.075 165.733C168.55 159.933 173.954 155.154 169.12 150.564C168.987 150.438 168.762 150.611 168.866 150.769Z" fill="#9D7C6B"/>
<path d="M205.544 175.049C197.106 188.606 180.415 179.32 174.815 168.196C171.728 162.062 175.378 154.223 169.905 149.545C169.679 149.351 169.274 149.627 169.475 149.893C173.375 155.032 170.782 161.939 173.534 167.65C175.949 172.661 179.593 177.027 184.518 179.697C192.762 184.168 200.923 183.527 205.636 175.098C205.67 175.039 205.58 174.992 205.544 175.049Z" fill="#9D7C6B"/>
<path d="M199.801 178.787C195.863 180.017 191.17 177.14 187.91 175.182C187.615 175.004 187.397 175.453 187.663 175.643C190.819 177.883 195.911 180.534 199.862 178.987C199.986 178.939 199.932 178.746 199.801 178.787Z" fill="#9D7C6B"/>
<path d="M185.32 172.862C181.549 170.138 179.798 166.078 177.419 162.257C177.247 161.981 176.75 162.177 176.883 162.497C178.626 166.708 181.244 170.699 185.172 173.138C185.348 173.247 185.479 172.976 185.32 172.862Z" fill="#9D7C6B"/>
<path d="M203.286 171.021C200.171 161.205 190.623 156.019 181.336 153.103C181.054 153.014 180.891 153.46 181.154 153.588C189.903 157.853 199.364 161.077 202.818 171.162C202.92 171.458 203.381 171.322 203.286 171.021Z" fill="#9D7C6B"/>
<path d="M206.693 173.393C207.229 168.985 205.49 163.724 202.473 160.478C202.216 160.201 201.763 160.577 201.962 160.891C203.181 162.809 204.345 164.634 205.152 166.78C205.961 168.932 206.216 171.113 206.521 173.376C206.533 173.466 206.68 173.499 206.693 173.393Z" fill="#9D7C6B"/>
<path d="M199.753 157.237C195.529 154.088 191.143 150.92 185.894 149.801C180.329 148.615 174.831 150.86 169.243 149.76C168.974 149.707 168.897 150.085 169.15 150.168C173.248 151.525 176.83 150.485 181.031 150.366C188.116 150.165 193.903 153.729 199.672 157.349C199.738 157.39 199.816 157.285 199.753 157.237Z" fill="#9D7C6B"/>
<path d="M199.424 174.307C191.963 170.784 186.304 165.93 181.469 159.284C178.389 155.05 175.096 152.216 170.571 149.547C170.32 149.399 170.04 149.774 170.267 149.966C180.32 158.503 186.569 169.492 199.325 174.492C199.447 174.539 199.548 174.366 199.424 174.307Z" fill="#9D7C6B"/>
<path d="M83.3477 285.427C69.829 287.295 60.5794 296.082 55.0994 308.221C54.8638 308.743 55.578 309.127 55.8828 308.641C63.1053 297.109 70.1183 289.777 83.4117 285.813C83.6199 285.751 83.5755 285.395 83.3477 285.427Z" fill="#9D7C6B"/>
<path d="M71.7645 291.052C75.7434 290.54 78.6699 296.976 81.3771 299.255C82.9815 300.605 84.8285 301.63 86.8616 302.199C91.9085 303.609 96.9414 301.817 101.432 299.537C110.166 295.104 118.806 285.724 115.269 275.13C112.389 266.505 100.601 261.315 92.0302 262.623C86.5663 263.457 82.2913 267.235 78.767 271.255C73.6075 277.141 74.026 284.028 70.1666 290.496C70.0086 290.761 70.3505 291.081 70.6057 290.911C72.9127 289.374 73.8014 288.064 74.8624 285.396C76.9636 280.114 78.1161 275.311 82.3684 271.089C87.3226 266.168 92.4359 263.833 99.4168 265.153C106.557 266.504 114.102 271.614 114.325 279.539C114.653 291.134 98.5667 303.885 87.2239 300.605C80.7864 298.743 80.9066 293.355 76.0551 290.874C74.3036 289.978 73.5034 290.003 71.7111 290.73C71.552 290.794 71.5647 291.078 71.7645 291.052Z" fill="#9D7C6B"/>
<path d="M112.041 273.392C118.436 286.501 104.589 295.58 92.7736 295.634C88.5153 295.653 85.2585 294.835 81.6555 292.725C80.1471 291.841 78.8965 290.598 77.3091 289.84C75.1404 288.804 73.5283 288.652 71.2739 289.519C70.9965 289.625 71.0297 290.098 71.3645 290.064C77.7911 289.414 82.9609 295.824 89.6299 296.404C94.9982 296.872 100.475 296.028 105.163 293.277C112.953 288.704 116.608 281.524 112.13 273.338C112.097 273.278 112.012 273.333 112.041 273.392Z" fill="#9D7C6B"/>
<path d="M112.066 280.248C110.907 284.231 106.039 286.578 102.582 288.286C102.318 288.417 102.518 288.868 102.794 288.76C106.458 287.321 111.372 284.458 112.27 280.294C112.299 280.162 112.104 280.119 112.066 280.248Z" fill="#9D7C6B"/>
<path d="M99.2699 289.187C94.9347 290.896 90.5387 290.165 86.0269 290.092C85.6931 290.086 85.6413 290.617 85.9722 290.677C90.4417 291.494 95.2341 291.458 99.397 289.472C99.5567 289.395 99.4355 289.122 99.2699 289.187Z" fill="#9D7C6B"/>
<path d="M107.417 273.102C97.5568 270.286 87.8629 275.689 80.4689 281.844C80.2369 282.037 80.5485 282.397 80.7949 282.247C89.0304 277.253 97.0729 270.904 107.309 273.578C107.614 273.658 107.719 273.188 107.417 273.102Z" fill="#9D7C6B"/>
<path d="M111.269 271.526C107.813 268.68 102.514 267.323 98.1125 268.079C97.7272 268.145 97.8624 268.723 98.2203 268.727C103.076 268.784 106.755 269.624 111.168 271.666C111.252 271.705 111.349 271.592 111.269 271.526Z" fill="#9D7C6B"/>
<path d="M93.9289 268.604C89.448 270.273 84.9624 272.018 81.2908 275.182C76.5079 279.303 75.3755 285.665 71.1059 290.194C70.9158 290.396 71.2064 290.65 71.4087 290.483C75.6059 287.02 76.569 281.854 79.9717 277.754C83.5546 273.436 89.0172 271.049 93.9857 268.73C94.0572 268.697 94.003 268.576 93.9289 268.604Z" fill="#9D7C6B"/>
<path d="M108.095 278.134C101.89 282.09 94.8984 284.632 87.5249 285.056C81.5718 285.398 77.0426 286.265 71.6413 288.962C71.3708 289.097 71.575 289.519 71.8533 289.435C75.8751 288.226 79.7076 286.544 83.9346 286.177C86.6321 285.944 89.2664 286.04 91.9466 285.547C97.9859 284.434 103.279 281.944 108.204 278.313C108.311 278.234 108.21 278.061 108.095 278.134Z" fill="#9D7C6B"/>
<path d="M34.4179 284.732C49.1916 296.199 52.3249 312.345 51.1385 330.293C51.1054 330.794 51.9342 330.871 52.0164 330.376C54.9202 312.856 50.6015 294.065 34.6474 284.415C34.4599 284.302 34.2402 284.595 34.4179 284.732Z" fill="#9D7C6B"/>
<path d="M43.4172 293.663C38.5833 290.207 35.6229 294.618 30.6417 296.089C17.405 299.999 2.62753 280.656 7.95744 268.229C10.961 261.225 17.3392 258.791 24.5974 259.377C33.8651 260.125 39.7322 266.427 42.2922 275.137C44.173 281.535 40.4761 288.523 44.3843 294.238C44.5433 294.471 45.0162 294.398 44.964 294.063C43.9892 287.857 46.6023 281.99 45.0636 275.772C43.7901 270.626 41.2098 264.636 36.942 261.266C29.5452 255.425 14.91 255.484 8.67161 263.189C1.80419 271.67 6.1299 283.215 12.4101 290.529C15.7289 294.394 19.7904 298.035 25.0507 298.64C30.7789 299.298 38.7656 292.087 43.2613 293.954C43.4601 294.036 43.5886 293.786 43.4172 293.663Z" fill="#9D7C6B"/>
<path d="M12.4568 262.438C5.47421 268.314 5.85783 275.829 11.1033 283.038C14.0105 287.033 18.0605 289.752 22.6253 291.493C25.1287 292.448 27.7138 293.268 30.4145 293.268C35.2241 293.267 38.6862 290.56 43.9942 293.184C44.2631 293.317 44.5745 292.941 44.3187 292.736C38.9173 288.424 32.4223 293.006 26.0888 291.675C13.4388 289.017 0.609195 273.534 12.5326 262.51C12.5827 262.463 12.5073 262.395 12.4568 262.438Z" fill="#9D7C6B"/>
<path d="M9.73257 268.825C8.92052 272.965 12.5137 277.575 15.3356 280.213C15.5853 280.446 15.9167 280.082 15.6965 279.834C13.2637 277.09 9.44133 272.869 9.93628 268.871C9.95254 268.741 9.7588 268.691 9.73257 268.825Z" fill="#9D7C6B"/>
<path d="M18.2549 282.177C21.3984 285.54 25.7647 287.375 30.2181 288.293C30.5299 288.357 30.7473 287.867 30.4235 287.742C26.18 286.11 21.8977 285.136 18.4713 281.95C18.3224 281.811 18.1175 282.03 18.2549 282.177Z" fill="#9D7C6B"/>
<path d="M16.8291 264.456C27.3639 266.011 32.343 274.6 38.1778 282.397C38.3778 282.665 38.7855 282.424 38.624 282.124C34.0129 273.547 27.1421 265.252 16.9372 263.979C16.6305 263.941 16.5151 264.409 16.8291 264.456Z" fill="#9D7C6B"/>
<path d="M13.9755 261.241C18.8197 260.994 22.5408 261.574 27.067 263.347C27.4571 263.5 27.7501 262.993 27.38 262.764C23.621 260.432 18.1668 259.732 13.9471 261.07C13.854 261.1 13.8747 261.246 13.9755 261.241Z" fill="#9D7C6B"/>
<path d="M31.0222 264.955C35.5545 269.807 40.2203 274.823 41.3029 281.616C41.9722 285.816 41.6386 289.815 43.8314 293.596C43.9477 293.797 44.3043 293.649 44.21 293.427C41.9995 288.203 43.2518 282.339 41.0687 277.098C39.0049 272.142 35.0017 268.392 31.1185 264.854C31.0516 264.793 30.9612 264.889 31.0222 264.955Z" fill="#9D7C6B"/>
<path d="M14.2384 268.506C21.5349 280.073 33.5031 284.147 43.778 292.412C44.0411 292.624 44.3619 292.287 44.1389 292.034C40.1887 287.555 36.7699 285.252 31.4855 282.754C24.5232 279.463 18.9538 274.612 14.4169 268.397C14.3384 268.29 14.1657 268.391 14.2384 268.506Z" fill="#9D7C6B"/>
<path d="M16.6082 344.194C28.8173 358.36 28.6901 374.807 23.971 392.164C23.8396 392.648 24.6367 392.888 24.8154 392.419C31.1324 375.822 30.6222 356.547 16.896 343.928C16.7346 343.78 16.4614 344.023 16.6082 344.194Z" fill="#9D7C6B"/>
<path d="M23.6596 354.73C19.6065 350.384 15.8308 354.121 10.6571 354.576C-3.09183 355.787 -13.7442 333.899 -6.05822 322.774C-1.72652 316.504 5.00754 315.383 12.0056 317.395C20.9415 319.963 25.4438 327.303 26.2276 336.348C26.8032 342.992 21.7954 349.109 24.4937 355.485C24.6037 355.744 25.0819 355.766 25.0966 355.428C25.3707 349.152 29.0944 343.919 28.818 337.519C28.5893 332.223 27.2468 325.841 23.7313 321.692C17.6382 314.501 3.28109 311.66 -4.35966 317.976C-12.7713 324.928 -10.8185 337.102 -6.11186 345.515C-3.62432 349.96 -0.364992 354.334 4.6715 355.969C10.1558 357.748 19.4128 352.263 23.4497 354.984C23.6282 355.104 23.8034 354.884 23.6596 354.73Z" fill="#9D7C6B"/>
<path d="M-0.500685 317.99C-8.50929 322.367 -9.62186 329.808 -5.90839 337.914C-3.85056 342.406 -0.419215 345.873 3.70996 348.484C5.97447 349.916 8.34622 351.232 10.9933 351.766C15.7076 352.718 19.6373 350.751 24.3204 354.375C24.5577 354.558 24.9376 354.252 24.7271 354C20.2873 348.703 13.0132 351.907 7.06895 349.348C-4.8038 344.237 -14.3119 326.519 -0.440793 318.076C-0.382335 318.04 -0.442923 317.958 -0.500685 317.99Z" fill="#9D7C6B"/>
<path d="M-4.43628 323.711C-6.05217 327.608 -3.44371 332.838 -1.20041 335.982C-1.00186 336.26 -0.604808 335.97 -0.771374 335.683C-2.61249 332.511 -5.52266 327.617 -4.2455 323.796C-4.20392 323.672 -4.38384 323.584 -4.43628 323.711Z" fill="#9D7C6B"/>
<path d="M1.27201 338.487C3.6869 342.406 7.60309 345.071 11.7866 346.852C12.0794 346.977 12.3897 346.539 12.0967 346.353C8.26053 343.913 4.2563 342.109 1.5291 338.307C1.4107 338.142 1.16668 338.316 1.27201 338.487Z" fill="#9D7C6B"/>
<path d="M3.38532 320.833C13.4028 324.446 16.582 333.851 20.7563 342.649C20.8994 342.951 21.3466 342.796 21.2476 342.47C18.4274 333.149 13.336 323.657 3.58554 320.388C3.29244 320.29 3.08665 320.726 3.38532 320.833Z" fill="#9D7C6B"/>
<path d="M1.22491 317.118C6.02219 317.835 9.55436 319.141 13.6397 321.776C13.9916 322.003 14.3794 321.564 14.0621 321.266C10.8398 318.236 5.63227 316.469 1.23096 316.945C1.13407 316.955 1.12496 317.103 1.22491 317.118Z" fill="#9D7C6B"/>
<path d="M17.1987 324.135C20.6795 329.789 24.2589 335.63 23.9742 342.503C23.7986 346.752 22.6794 350.605 24.0796 354.746C24.1538 354.966 24.5325 354.892 24.4842 354.655C23.3524 349.097 25.7413 343.598 24.6401 338.027C23.5992 332.761 20.4182 328.292 17.3128 324.055C17.2592 323.982 17.1515 324.059 17.1987 324.135Z" fill="#9D7C6B"/>
<path d="M0.0433454 324.291C4.90384 337.074 15.8277 343.438 24.2616 353.576C24.4776 353.835 24.8588 353.568 24.6904 353.276C21.7059 348.103 18.8109 345.169 14.1262 341.673C7.95389 337.068 3.45598 331.21 0.239956 324.22C0.184386 324.099 -0.00516198 324.164 0.0433454 324.291Z" fill="#9D7C6B"/>
<path d="M123.166 175.628C104.595 165.227 82.0001 173.468 71.2532 191.119C70.9972 191.539 71.668 192.043 71.9669 191.636C84.2654 174.859 103.561 167.728 122.979 175.976C123.21 176.074 123.392 175.754 123.166 175.628Z" fill="#9D7C6B"/>
<path d="M110.604 172.835C113.822 175.336 112.507 186.748 115.457 190.88C118.033 194.489 121.97 196.231 126.121 197.36C135.903 200.022 148.843 199.091 153.912 188.861C158.35 179.903 151.966 167.354 143.651 162.979C138.859 160.458 133.412 160.773 128.222 161.736C120.538 163.162 116.767 168.751 109.748 171.407C109.402 171.538 109.499 171.991 109.849 172.02C116.357 172.554 120.252 166.566 126.192 164.743C133.934 162.366 142.691 163.853 148.252 169.867C154.601 176.732 155.799 188.24 147.111 193.983C138.057 199.967 118.556 197.674 114.873 186.044C113.161 180.636 116.781 175.336 110.795 172.571C110.637 172.498 110.449 172.714 110.604 172.835Z" fill="#9D7C6B"/>
<path d="M153.147 184.047C149.527 199.53 130.867 196.293 121.868 187.454C117.019 182.691 117.855 174.013 111.218 171.356C110.885 171.223 110.654 171.644 110.954 171.847C116.14 175.354 117.065 184.401 122.113 188.858C126.048 192.332 130.748 194.839 136.026 195.431C144.904 196.427 151.595 193.015 153.249 184.07C153.261 184.004 153.163 183.981 153.147 184.047Z" fill="#9D7C6B"/>
<path d="M148.915 189.432C145.627 191.878 140.166 190.62 136.505 189.845C136.172 189.774 136.071 190.255 136.389 190.355C140.076 191.505 145.847 192.342 149.046 189.593C149.135 189.516 149.01 189.361 148.915 189.432Z" fill="#9D7C6B"/>
<path d="M133.301 188.479C128.873 187.085 125.9 183.842 122.418 180.986C122.12 180.743 121.758 181.13 122.009 181.416C125.01 184.838 128.75 187.712 133.232 188.785C133.43 188.832 133.491 188.539 133.301 188.479Z" fill="#9D7C6B"/>
<path d="M149.723 180.977C143.554 172.702 132.968 170.816 123.189 171.045C122.901 171.052 122.839 171.523 123.14 171.561C132.848 172.789 142.698 172.772 149.307 181.231C149.497 181.475 149.912 181.231 149.723 180.977Z" fill="#9D7C6B"/>
<path d="M153.7 182.097C152.774 177.753 149.47 173.37 145.574 171.248C145.255 171.074 144.892 171.539 145.189 171.779C148.93 174.812 151.381 177.863 153.541 182.168C153.589 182.261 153.718 182.187 153.7 182.097Z" fill="#9D7C6B"/>
<path d="M141.926 169.039C136.943 167.415 131.762 165.821 126.453 166.425C120.796 167.068 116.304 171.063 110.658 171.765C110.394 171.798 110.4 172.183 110.674 172.183C115.556 172.191 119.039 169.347 123.581 167.989C129.622 166.182 135.944 167.753 141.895 169.175C141.984 169.196 142.01 169.067 141.926 169.039Z" fill="#9D7C6B"/>
<path d="M147.118 185.316C139.433 184.436 132.561 181.931 126.204 177.524C121.557 174.302 117.424 172.303 111.849 171.139C111.573 171.082 111.383 171.512 111.667 171.625C123.93 176.473 133.435 184.889 147.099 185.522C147.216 185.527 147.237 185.329 147.118 185.316Z" fill="#9D7C6B"/>
<path d="M80.6017 225.006C73.8054 224.554 64.1945 225.378 59.1751 230.763C54.4993 235.78 54.469 244.708 54.8452 250.976C54.88 251.556 55.7006 251.507 55.734 250.943C56.0669 245.292 56.2348 236.848 60.0669 232.168C64.6871 226.525 73.9395 225.86 80.6161 225.401C80.8748 225.383 80.8516 225.022 80.6017 225.006Z" fill="#9D7C6B"/>
<path d="M68.1731 228.083C72.1902 228.416 73.6945 235.368 75.7959 238.084C77.0757 239.738 78.6598 241.138 80.5205 242.124C84.7957 244.39 89.5841 243.94 94.14 242.885C103.815 240.646 114.421 233.921 114.047 222.722C113.731 213.272 103.166 205.254 94.2445 204.559C88.5964 204.119 83.5859 206.901 79.1876 210.159C72.8901 214.824 71.8209 221.685 66.7048 227.188C66.5045 227.404 66.7187 227.824 67.0217 227.704C69.084 226.887 69.6775 226.591 71.1596 224.913C75.5979 219.887 76.4477 214.903 82.641 210.818C88.8954 206.691 95.4655 205.928 102.287 209.401C109.809 213.23 114.815 221.232 110.91 229.532C105.489 241.052 84.9939 246.956 76.4548 236.322C73.6734 232.858 73.8465 226.759 68.1196 227.761C67.9194 227.796 68.0046 228.069 68.1731 228.083Z" fill="#9D7C6B"/>
<path d="M111.221 219.257C114.724 233.767 98.5586 239.557 86.8776 236.775C80.9369 235.36 78.8052 232.114 74.4862 228.605C72.2236 226.766 70.8346 226.252 67.9925 226.478C67.6942 226.502 67.6126 226.985 67.941 227.029C74.4196 227.911 78.0663 235.117 84.4626 237.057C89.7388 238.658 95.3147 238.953 100.573 237.147C109.129 234.208 113.919 228.137 111.322 219.228C111.302 219.162 111.205 219.192 111.221 219.257Z" fill="#9D7C6B"/>
<path d="M109.812 225.963C107.898 229.627 102.554 230.877 98.862 231.836C98.5807 231.909 98.6499 232.393 98.9472 232.347C102.778 231.761 108.317 229.914 109.996 226.061C110.049 225.94 109.875 225.842 109.812 225.963Z" fill="#9D7C6B"/>
<path d="M95.4303 232.025C90.8292 232.773 86.6985 231.153 82.2992 230.136C81.9843 230.063 81.7762 230.555 82.0935 230.685C86.3058 232.425 90.9798 233.39 95.4812 232.332C95.652 232.292 95.6072 231.996 95.4303 232.025Z" fill="#9D7C6B"/>
<path d="M106.775 218.012C97.6666 213.248 87.1676 216.397 78.5907 220.896C78.3279 221.033 78.5234 221.466 78.8029 221.369C87.9547 218.196 97.0079 213.727 106.544 218.442C106.825 218.581 107.054 218.158 106.775 218.012Z" fill="#9D7C6B"/>
<path d="M110.861 217.275C108.07 213.772 103.201 211.331 98.7323 211.142C98.3519 211.126 98.312 211.714 98.6713 211.796C103.403 212.877 106.847 214.473 110.726 217.384C110.798 217.437 110.928 217.36 110.861 217.275Z" fill="#9D7C6B"/>
<path d="M94.5204 210.779C89.665 211.487 84.7529 212.287 80.4284 214.749C75.0995 217.783 72.7167 223.711 67.6827 227.098C67.4563 227.25 67.6625 227.575 67.9014 227.455C72.2384 225.268 74.1897 221.185 77.6188 217.957C82.1945 213.649 88.6098 212.274 94.5431 210.915C94.6189 210.898 94.5991 210.767 94.5204 210.779Z" fill="#9D7C6B"/>
<path d="M106.374 223.066C99.1303 225.727 91.5663 226.686 83.9408 225.346C78.4614 224.383 73.8794 224.609 68.467 226.008C68.1818 226.081 68.2544 226.544 68.5521 226.519C72.7139 226.178 76.8511 225.351 81.0345 225.861C83.5508 226.168 85.9505 226.806 88.4935 226.922C94.8131 227.209 100.688 225.83 106.434 223.267C106.554 223.214 106.503 223.019 106.374 223.066Z" fill="#9D7C6B"/>
<path d="M79.3713 347.857C56.5211 337.536 40.5525 360.414 33.4086 379.366C33.2135 379.883 33.9406 380.318 34.1922 379.786C43.046 361.048 55.9847 340.537 79.2338 348.223C79.4442 348.293 79.5738 347.948 79.3713 347.857Z" fill="#9D7C6B"/>
<path d="M66.5866 346.421C70.9935 349.15 69.4291 359.468 73.3252 363.844C76.8809 367.837 82.2209 369.024 87.3469 369.473C96.9701 370.315 108.972 367.054 111.79 356.484C114.228 347.338 106.567 336.215 98.2022 333.001C92.9588 330.986 86.8557 332.039 81.6665 333.834C75.0346 336.128 71.5908 342.029 65.5195 345.099C65.2282 345.246 65.3994 345.686 65.6941 345.679C72.3847 345.525 76.4466 338.717 82.3939 336.245C90.0112 333.077 98.3144 334.057 104.288 339.788C109.558 344.844 112.22 352.371 108.481 359.036C101.738 371.058 77.1549 371.96 72.2315 357.946C70.4886 352.984 72.3328 348.023 66.7012 346.115C66.5161 346.053 66.4373 346.329 66.5866 346.421Z" fill="#9D7C6B"/>
<path d="M110.059 353.026C108.112 368.772 89.1044 367.674 79.3625 359.681C74.1283 355.386 73.8508 346.787 66.9737 344.857C66.668 344.771 66.5049 345.229 66.7801 345.375C72.2277 348.271 73.7113 356.594 78.7788 360.468C82.9217 363.635 87.7286 365.764 92.9623 366.088C102.28 366.665 109.43 362.598 110.162 353.036C110.167 352.978 110.066 352.967 110.059 353.026Z" fill="#9D7C6B"/>
<path d="M106.411 358.846C103.444 361.589 97.8262 360.949 94.1539 360.571C93.8297 360.538 93.6987 361.013 94.038 361.081C97.8246 361.833 103.67 362.071 106.562 358.991C106.655 358.892 106.509 358.756 106.411 358.846Z" fill="#9D7C6B"/>
<path d="M90.8123 359.552C86.2374 358.631 82.925 355.713 79.1369 353.23C78.8546 353.044 78.5507 353.482 78.7926 353.705C82.1405 356.791 86.1705 359.266 90.7427 359.857C90.9389 359.883 91.0138 359.592 90.8123 359.552Z" fill="#9D7C6B"/>
<path d="M106.302 350.316C99.3185 342.775 88.5639 342.028 78.9146 343.286C78.5842 343.33 78.5922 343.802 78.9338 343.809C88.6945 344 98.5262 342.994 105.965 350.669C106.186 350.896 106.514 350.544 106.302 350.316Z" fill="#9D7C6B"/>
<path d="M110.403 351.043C109.023 346.842 105.282 342.823 101.199 341.125C100.807 340.962 100.525 341.475 100.886 341.709C104.98 344.367 107.595 347.011 110.245 351.114C110.298 351.195 110.435 351.139 110.403 351.043Z" fill="#9D7C6B"/>
<path d="M97.3124 339.304C92.2874 338.238 87.1683 337.254 82.0435 338.279C76.2814 339.431 72.1735 344.052 66.474 345.344C66.2441 345.396 66.3056 345.776 66.5421 345.753C70.9398 345.322 73.9437 342.678 77.7804 340.759C83.9035 337.696 90.7477 338.595 97.2815 339.44C97.3685 339.451 97.4017 339.323 97.3124 339.304Z" fill="#9D7C6B"/>
<path d="M104.182 354.934C95.9693 354.872 88.6366 352.92 81.5443 348.819C77.0115 346.197 72.8659 345.12 67.6486 344.593C67.3216 344.56 67.1996 345.01 67.5332 345.103C80.1785 348.619 90.5939 355.964 104.19 355.143C104.325 355.135 104.317 354.935 104.182 354.934Z" fill="#9D7C6B"/>
<path d="M150.405 121.599C146.784 134.723 139.058 144.878 126.655 150.586C126.19 150.8 126.543 151.538 127.015 151.391C140.064 147.315 148.967 135.062 150.791 121.686C150.825 121.437 150.474 121.35 150.405 121.599Z" fill="#9D7C6B"/>
<path d="M145.726 133.377C146.985 127.708 142.403 127.295 138.904 123.616C128.713 112.904 141.733 90.9766 155.205 90.5822C163.268 90.3463 168.724 97.452 170.623 104.592C172.811 112.823 168.47 119.941 162.273 124.945C157.14 129.09 149.244 128.733 145.559 134.504C145.388 134.772 145.747 135.076 145.998 134.919C151.81 131.296 158.466 131.49 163.921 126.988C168.103 123.536 172.182 118.895 173.23 113.434C175.023 104.085 168.836 91.1576 158.95 89.2073C147.74 86.9957 139.143 96.7308 135.319 106.106C133.699 110.079 132.684 114.284 133.968 118.504C135.646 124.021 145.349 128.287 145.401 133.347C145.403 133.534 145.686 133.559 145.726 133.377Z" fill="#9D7C6B"/>
<path d="M162.309 92.6284C153.688 88.269 146.57 92.2866 142.225 100.609C139.812 105.23 139.137 110.449 139.695 115.606C140.417 122.28 146.769 127.099 146.396 133.733C146.378 134.061 146.866 134.076 146.947 133.785C148.856 126.911 141.463 122.369 140.601 115.573C139.029 103.181 147.514 86.1116 162.26 92.7206C162.321 92.7481 162.37 92.6591 162.309 92.6284Z" fill="#9D7C6B"/>
<path d="M155.348 92.6282C151.214 93.5508 148.462 98.5989 147.098 102.216C146.983 102.52 147.413 102.776 147.559 102.463C149.164 99.0261 151.457 94.0077 155.408 92.8286C155.539 92.7895 155.478 92.5992 155.348 92.6282Z" fill="#9D7C6B"/>
<path d="M146.431 105.685C144.536 109.902 144.592 114.674 145.498 119.14C145.566 119.475 146.09 119.373 146.078 119.044C145.916 114.532 145.111 110.169 146.722 105.794C146.783 105.629 146.503 105.524 146.431 105.685Z" fill="#9D7C6B"/>
<path d="M162.17 97.4648C164.922 107.698 158.874 115.752 154.019 124.143C153.875 124.393 154.252 124.681 154.439 124.447C160.515 116.837 165.538 107.212 162.637 97.3242C162.548 97.0215 162.088 97.1621 162.17 97.4648Z" fill="#9D7C6B"/>
<path d="M164.004 93.5612C165.011 95.6017 166.023 97.5633 166.553 99.7959C167.083 102.027 167.137 104.189 167.197 106.463C167.207 106.829 167.792 106.903 167.852 106.524C168.541 102.146 167.047 96.811 164.138 93.4527C164.07 93.373 163.964 93.4793 164.004 93.5612Z" fill="#9D7C6B"/>
<path d="M167.277 110.682C164.515 116.905 161.707 123.095 155.719 126.886C152.168 129.134 148.615 130.272 145.973 133.687C145.811 133.896 146.082 134.171 146.276 133.976C150.296 129.943 156.111 128.733 160.063 124.642C163.793 120.78 165.663 115.702 167.406 110.73C167.432 110.656 167.309 110.61 167.277 110.682Z" fill="#9D7C6B"/>
<path d="M157.413 96.657C149.67 107.865 150.55 120.605 147.012 133.231C146.933 133.512 147.37 133.679 147.497 133.412C149.538 129.125 150.738 125.202 151.112 120.463C151.815 111.57 152.917 104.619 157.598 96.756C157.668 96.638 157.488 96.5488 157.413 96.657Z" fill="#9D7C6B"/>
<path d="M82.565 152.809C82.7954 164.679 78.8752 175.463 73.9182 186.064C73.6733 186.587 74.3891 186.959 74.7016 186.484C80.9766 176.951 84.9024 164.127 82.9516 152.744C82.9131 152.518 82.5609 152.592 82.565 152.809Z" fill="#9D7C6B"/>
<path d="M81.5258 165.453C81.8464 160.813 77.9023 160.488 74.4119 158.89C66.4146 155.228 64.1892 148.182 65.596 139.911C66.7205 133.298 69.6901 125.936 76.0565 122.679C84.8001 118.207 94.323 124.769 97.98 132.817C100.713 138.832 99.5747 144.661 96.3369 150.284C93.558 155.11 89.6851 157.471 85.6155 160.804C83.4011 162.618 82.4373 163.908 81.6966 166.566C81.6142 166.86 82.0277 167.081 82.2282 166.851C86.359 162.113 92.577 160.27 96.3306 155.077C99.3902 150.843 102.34 145.036 102.163 139.659C101.852 130.152 92.4421 119.073 82.5127 119.21C71.0863 119.366 65.0922 131.069 63.8021 140.96C63.1872 145.673 63.1956 150.543 65.9226 154.624C68.7379 158.836 80.4373 161.468 81.2034 165.507C81.2413 165.705 81.514 165.624 81.5258 165.453Z" fill="#9D7C6B"/>
<path d="M85.5025 121.632C76.3848 119.982 70.8276 125.415 68.8034 134.181C67.6286 139.27 68.3466 144.271 70.1694 149.115C72.6698 155.76 80.6749 159.078 82.2666 165.581C82.3432 165.894 82.8202 165.802 82.8124 165.49C82.7517 163.065 82.4621 161.947 80.8078 160.078C76.8887 155.649 72.8351 153.937 70.6052 147.789C66.4931 136.452 70.6547 119.761 85.4792 121.735C85.5448 121.744 85.5699 121.645 85.5025 121.632Z" fill="#9D7C6B"/>
<path d="M78.8456 123.662C75.1471 125.821 73.9977 131.364 73.7432 135.301C73.7243 135.594 74.218 135.643 74.2596 135.349C74.8 131.542 75.5379 126.173 78.9552 123.84C79.0663 123.764 78.9627 123.593 78.8456 123.662Z" fill="#9D7C6B"/>
<path d="M74.1221 138.749C73.5209 143.319 74.985 147.896 77.1483 151.886C77.308 152.181 77.7945 151.963 77.6845 151.645C76.2138 147.384 74.1478 143.425 74.4319 138.778C74.4429 138.603 74.1452 138.573 74.1221 138.749Z" fill="#9D7C6B"/>
<path d="M86.7733 126.292C92.4629 135.292 88.9676 144.738 86.7661 154.188C86.7015 154.465 87.14 154.651 87.2516 154.37C90.8247 145.369 92.8803 134.602 87.1898 126.037C87.0161 125.776 86.6048 126.026 86.7733 126.292Z" fill="#9D7C6B"/>
<path d="M87.3919 122.029C88.9447 123.688 90.4853 125.26 91.6424 127.239C92.7962 129.211 93.4859 131.278 94.2083 133.427C94.3223 133.767 94.9118 133.707 94.8562 133.319C94.2279 128.926 91.2565 124.262 87.4936 121.889C87.4064 121.834 87.328 121.96 87.3919 122.029Z" fill="#9D7C6B"/>
<path d="M95.5186 137.45C94.7685 143.592 94.0333 149.856 90.219 154.944C87.3808 158.73 83.6268 161.149 81.8548 165.666C81.7589 165.91 82.0906 166.107 82.2232 165.864C85.1115 160.564 90.6432 157.557 93.1472 152.001C95.2001 147.445 95.4538 142.374 95.6565 137.462C95.6596 137.384 95.5286 137.371 95.5186 137.45Z" fill="#9D7C6B"/>
<path d="M81.9937 126.911C80.0472 132.881 79.2949 138.882 80.2297 145.124C80.5608 147.334 81.2471 149.406 81.8032 151.558C82.9649 156.056 82.6074 160.338 82.712 164.921C82.7184 165.21 83.1835 165.268 83.2283 164.969C84.049 159.471 83.859 154.85 82.2783 149.519C80.0845 142.119 80.3172 134.402 82.1975 126.957C82.2308 126.825 82.0348 126.785 81.9937 126.911Z" fill="#9D7C6B"/>
<path d="M43.1947 214.79C50.0099 224.527 52.879 235.562 54.6893 247.158C54.7754 247.709 55.5844 247.714 55.5782 247.126C55.4636 235.934 51.5245 222.592 43.4995 214.544C43.3438 214.388 43.0646 214.604 43.1947 214.79Z" fill="#9D7C6B"/>
<path d="M49.4409 225.866C46.9757 221.617 43.6697 223.968 39.7057 224.578C24.6654 226.892 14.2619 206.221 20.8953 193.555C25.0706 185.584 35.1067 184.685 42.5876 188.351C48.6546 191.323 51.8583 196.196 52.8656 202.706C53.8853 209.296 51.9756 213.337 50.283 219.493C49.5149 222.286 49.2511 223.856 50.1903 226.657C50.2819 226.93 50.7549 226.965 50.7951 226.636C51.551 220.406 55.6682 215.438 55.8791 209.045C56.053 203.766 55.1847 197.276 52.0157 192.888C46.4977 185.247 32.4686 181.365 24.3772 186.974C15.2781 193.282 16.3983 205.751 20.5338 214.548C22.6801 219.114 25.5388 223.617 30.3929 225.614C35.2071 227.595 46.3186 223.193 49.187 226.072C49.3208 226.207 49.5332 226.026 49.4409 225.866Z" fill="#9D7C6B"/>
<path d="M28.1463 187.348C19.3238 191.323 17.9697 199.595 21.7859 208.176C23.5868 212.227 26.4813 215.448 30.0063 218.076C31.8328 219.437 33.8064 220.821 35.9667 221.6C40.8559 223.361 45.5473 221.412 50.1023 225.532C50.3281 225.737 50.7231 225.451 50.5323 225.185C46.3477 219.33 38.1642 222.119 32.3019 218.613C21.5091 212.157 14.0529 194.621 28.2011 187.437C28.262 187.406 28.2062 187.321 28.1463 187.348Z" fill="#9D7C6B"/>
<path d="M23.7832 192.75C21.9182 196.514 24.0424 201.917 26.07 205.236C26.2495 205.53 26.6583 205.26 26.5159 204.963C24.9067 201.6 22.4302 196.593 23.9675 192.849C24.0176 192.727 23.8444 192.627 23.7832 192.75Z" fill="#9D7C6B"/>
<path d="M28.3418 207.922C30.4252 212.014 34.1637 214.98 38.1834 217.068C38.4677 217.215 38.8043 216.799 38.528 216.592C34.902 213.875 31.0164 211.766 28.6095 207.757C28.5041 207.582 28.2514 207.744 28.3418 207.922Z" fill="#9D7C6B"/>
<path d="M31.8047 190.482C41.6095 194.821 43.9587 204.463 47.4493 213.571C47.5701 213.887 48.0221 213.749 47.9496 213.42C45.8654 203.959 41.5132 193.993 32.0356 190.052C31.7497 189.932 31.515 190.353 31.8047 190.482Z" fill="#9D7C6B"/>
<path d="M29.9359 186.61C34.6428 187.703 38.0977 189.295 41.9567 192.21C42.2923 192.463 42.707 192.05 42.4135 191.73C39.4194 188.464 34.3808 186.314 29.952 186.438C29.853 186.441 29.8396 186.588 29.9359 186.61Z" fill="#9D7C6B"/>
<path d="M45.3224 194.833C48.3671 200.752 51.5331 206.901 50.6932 213.764C50.1754 217.998 48.783 221.629 49.833 225.886C49.889 226.113 50.2701 226.056 50.2425 225.818C49.58 220.166 52.3973 214.842 51.6652 209.19C50.9759 203.868 48.2171 199.231 45.4415 194.761C45.3935 194.683 45.2818 194.755 45.3224 194.833Z" fill="#9D7C6B"/>
<path d="M28.2064 193.673C29.844 199.308 32.2789 204.304 36.1258 208.785C38.0738 211.053 40.3893 212.705 42.539 214.746C45.5958 217.647 47.6788 221.318 50.1054 224.733C50.3034 225.011 50.6961 224.76 50.5515 224.459C48.1105 219.372 45.4662 215.859 41.153 212.268C35.1964 207.308 31.0589 200.862 28.4065 193.613C28.3607 193.487 28.168 193.543 28.2064 193.673Z" fill="#9D7C6B"/>
</g>
<defs>
<clipPath id="clip0_6389_11149">
<rect width="358.77" height="358.77" fill="white" transform="translate(1105 335.629) rotate(-69.3089)"/>
</clipPath>
<clipPath id="clip1_6389_11149">
<rect width="358.77" height="358.77" fill="white" transform="matrix(-0.353329 -0.935499 -0.935499 0.353329 335 335.629)"/>
</clipPath>
</defs>
</svg>
