<svg width="1292" height="355" viewBox="0 0 1292 355" fill="none" xmlns="http://www.w3.org/2000/svg">
<g clip-path="url(#clip0_6337_11149)">
<path d="M349.348 138.726C318.336 141.144 288.612 129.038 257.727 131.233C229.821 133.216 203.155 146.729 186.642 167.477C167.407 191.645 160.73 222.064 141.132 246.241C117.511 275.381 87.1364 294.049 51.3678 308.339C49.9053 308.923 50.7651 310.754 52.2413 310.437C83.3841 303.762 111.32 283.627 132.198 262.046C142.866 251.019 152.335 238.788 159.408 225.471C166.497 212.126 171.52 197.915 178.656 184.59C194.576 154.858 224.806 134.477 261.405 132.995C290.856 131.803 319.99 144.254 349.366 138.879C349.469 138.86 349.456 138.718 349.348 138.726Z" fill="#846549"/>
<path d="M373.098 130.728C362.959 134.998 351.424 137.311 340.426 138.886C339.851 138.968 339.952 139.712 340.524 139.71C350.934 139.673 364.791 136.699 373.288 131.049C373.464 130.932 373.305 130.64 373.098 130.728Z" fill="#846549"/>
<path d="M360.332 135.774C364.116 134.099 364.128 131.94 364.349 128.467C364.58 124.815 363.608 121.662 365.796 118.276C367.746 115.259 371.353 113.396 374.852 112.131C381.179 109.846 389.425 109.201 395.502 112.437C402.703 116.271 404.855 123.407 401.683 130.361C397.914 138.623 389.726 142.513 380.029 141.294C373.007 140.412 367.356 134.304 360.237 135.34C359.868 135.394 359.888 135.827 360.226 135.918C366.85 137.688 371.256 142.493 378.239 143.485C383.863 144.284 390.126 144.195 394.995 141.326C402.52 136.892 407.842 125.466 403.513 117.535C398.558 108.458 386.293 107.52 376.981 109.898C372.009 111.166 366.971 113.142 364.222 117.395C361.01 122.365 364.653 132.083 360.173 135.506C360.039 135.608 360.155 135.852 360.332 135.774Z" fill="#846549"/>
<path d="M402.67 121.103C400.205 112.893 393.166 110.227 384.378 111.777C379.509 112.635 375.328 114.964 371.83 118.112C369.909 119.841 368.087 121.692 366.954 123.962C364.932 128.012 365.998 131.991 361.364 135.43C361.133 135.601 361.337 136.019 361.633 135.883C367.887 133.026 366.229 125.764 370.211 120.964C378.06 111.503 397.412 106.603 402.572 121.137C402.594 121.198 402.688 121.163 402.67 121.103Z" fill="#846549"/>
<path d="M397.961 116.272C394.508 113.943 388.796 115.134 385.199 116.462C384.883 116.579 385.068 117.006 385.389 116.918C388.916 115.961 394.377 114.419 397.831 116.424C397.943 116.49 398.073 116.348 397.961 116.272Z" fill="#846549"/>
<path d="M382.181 118.138C377.791 119.447 374.288 122.392 371.59 125.775C371.357 126.068 371.793 126.36 372.06 126.121C375.3 123.22 377.977 120.019 382.295 118.412C382.483 118.342 382.373 118.081 382.181 118.138Z" fill="#846549"/>
<path d="M399.001 123.979C393.181 132.228 383.242 133.01 373.668 134.821C373.342 134.884 373.381 135.323 373.725 135.306C383.501 134.834 393.965 132.348 399.388 124.264C399.551 124.022 399.174 123.733 399.001 123.979Z" fill="#846549"/>
<path d="M403.132 122.855C401.338 127.029 399.255 129.933 395.744 133.036C395.444 133.302 395.774 133.758 396.141 133.536C399.846 131.298 402.764 126.986 403.299 122.901C403.311 122.812 403.17 122.768 403.132 122.855Z" fill="#846549"/>
<path d="M392.621 135.729C386.271 137.621 379.773 139.537 373.081 137.764C368.952 136.669 365.445 134.786 361.055 135.13C360.824 135.148 360.803 135.507 361.047 135.516C366.747 135.731 371.599 139.113 377.305 139.36C382.705 139.593 387.809 137.714 392.671 135.851C392.754 135.819 392.706 135.704 392.621 135.729Z" fill="#846549"/>
<path d="M396.372 120.191C382.738 121.737 374.018 130.191 362.162 135.555C361.86 135.691 362.024 136.099 362.352 136.011C368.099 134.467 371.634 132.505 376.125 129.05C382.045 124.497 388.809 121.734 396.395 120.385C396.526 120.361 396.509 120.175 396.372 120.191Z" fill="#846549"/>
<path d="M328.936 160.248C323.191 143.581 306.545 135.262 288.532 133.507C287.958 133.451 287.832 134.216 288.4 134.324C306.24 137.721 320.96 144.152 328.566 160.377C328.668 160.596 329.014 160.474 328.936 160.248Z" fill="#846549"/>
<path d="M321.792 150.193C322.495 154.733 314.125 159.548 312.96 164.293C311.964 168.35 313.172 171.985 315.316 175.589C320.41 184.154 330.752 192.762 342.014 189.133C351.156 186.188 355.357 174.294 352.937 166.088C351.343 160.68 346.329 156.602 341.33 153.746C335.16 150.222 328.566 151.292 322.148 148.669C321.876 148.558 321.558 148.879 321.772 149.106C325.957 153.564 332.088 152.123 337.575 154.425C344.726 157.423 351.094 163.796 351.268 171.162C351.446 178.694 347.13 187.479 338.091 188.347C325.143 189.591 311.179 173.88 315.569 162.799C317.576 157.732 324.544 155.937 322.111 150.125C322.044 149.965 321.765 150.019 321.792 150.193Z" fill="#846549"/>
<path d="M344.774 185.465C331.282 193.368 320.068 178.792 319.738 167.201C319.557 160.809 326.24 155.739 323.263 149.593C323.14 149.339 322.652 149.404 322.722 149.708C324.069 155.599 318.749 160.321 318.806 166.221C318.857 171.399 320.303 176.538 323.641 180.781C329.229 187.883 336.933 190.675 344.836 185.544C344.892 185.508 344.83 185.432 344.774 185.465Z" fill="#846549"/>
<path d="M337.944 186.251C333.831 185.674 330.793 181.354 328.665 178.386C328.472 178.117 328.081 178.404 328.242 178.67C330.155 181.832 333.653 186.126 337.913 186.443C338.047 186.453 338.08 186.27 337.944 186.251Z" fill="#846549"/>
<path d="M327.301 175.388C325.035 171.572 325.182 167.46 324.654 163.293C324.616 162.993 324.079 162.954 324.063 163.276C323.845 167.51 324.517 171.916 327.048 175.559C327.161 175.722 327.396 175.549 327.301 175.388Z" fill="#846549"/>
<path d="M344.444 181.175C345.815 171.691 339.347 163.459 332.143 157.231C331.924 157.043 331.585 157.349 331.769 157.563C337.905 164.699 345.136 171.255 343.958 181.102C343.923 181.391 344.402 181.465 344.444 181.175Z" fill="#846549"/>
<path d="M346.529 184.548C348.905 181.079 349.577 175.967 348.223 172.021C348.107 171.685 347.533 171.815 347.58 172.158C347.868 174.261 348.146 176.262 347.96 178.387C347.774 180.517 347.072 182.447 346.379 184.465C346.352 184.544 346.472 184.632 346.529 184.548Z" fill="#846549"/>
<path d="M347.136 168.201C344.64 163.843 342.005 159.404 337.707 156.327C333.15 153.065 327.182 152.702 322.567 149.503C322.345 149.35 322.114 149.634 322.308 149.807C325.457 152.613 329.163 153.203 333.038 154.817C339.574 157.538 343.314 162.88 347.014 168.261C347.056 168.323 347.173 168.266 347.136 168.201Z" fill="#846549"/>
<path d="M339.52 182.348C334.239 176.358 331.168 169.989 329.615 162.456C328.626 157.657 326.843 153.944 323.868 149.865C323.703 149.639 323.287 149.839 323.411 150.092C328.904 161.335 329.882 173.077 339.351 182.462C339.441 182.552 339.608 182.449 339.52 182.348Z" fill="#846549"/>
<path d="M186.233 227.992C173.126 224.043 160.941 227.623 150.75 235.545C150.312 235.886 150.797 236.499 151.283 236.216C162.8 229.513 172.326 226.237 186.126 228.341C186.342 228.374 186.454 228.058 186.233 227.992Z" fill="#846549"/>
<path d="M173.278 227.975C177.12 229.169 177.025 235.748 178.513 238.759C179.394 240.543 180.636 242.153 182.243 243.458C186.233 246.696 191.583 247.249 196.647 247.173C206.497 247.025 218.382 242.699 219.703 232.393C220.778 224.002 212.272 214.853 203.91 212.452C198.579 210.921 193.068 212.339 188.137 214.266C180.918 217.087 178.347 223.021 172.062 226.858C171.805 227.015 171.979 227.422 172.284 227.384C175.043 227.039 176.413 226.305 178.522 224.506C182.699 220.943 185.806 217.394 191.487 215.595C198.105 213.499 203.761 213.63 209.549 217.581C215.47 221.622 220.148 228.975 216.955 235.697C212.284 245.533 192.176 249.642 183.256 242.272C178.194 238.089 180.613 233.63 177.26 229.575C176.05 228.112 175.311 227.807 173.368 227.684C173.195 227.673 173.085 227.915 173.278 227.975Z" fill="#846549"/>
<path d="M217.509 229.623C217.713 243.2 201.217 245.149 190.439 240.376C186.554 238.656 183.94 236.643 181.565 233.408C180.57 232.054 179.965 230.504 178.845 229.222C177.315 227.471 175.912 226.687 173.489 226.493C173.19 226.469 173.018 226.878 173.337 226.986C179.466 229.062 181.425 236.534 187.247 239.739C191.933 242.319 197.28 243.847 202.726 243.456C211.778 242.807 218.182 238.289 217.614 229.614C217.61 229.55 217.509 229.562 217.509 229.623Z" fill="#846549"/>
<path d="M214.594 235.37C211.832 238.23 206.395 238.208 202.516 238.229C202.22 238.23 202.208 238.689 202.506 238.711C206.458 239.001 212.158 238.609 214.76 235.492C214.843 235.393 214.684 235.278 214.594 235.37Z" fill="#846549"/>
<path d="M199.115 237.631C194.436 237.293 190.748 234.889 186.673 232.987C186.371 232.847 186.097 233.269 186.372 233.455C190.09 235.961 194.468 237.885 199.109 237.921C199.287 237.922 199.294 237.644 199.115 237.631Z" fill="#846549"/>
<path d="M213.425 227.495C205.656 221.118 194.516 221.686 185.148 223.82C184.854 223.888 184.983 224.316 185.272 224.291C194.909 223.471 204.951 221.438 213.123 227.849C213.366 228.04 213.663 227.69 213.425 227.495Z" fill="#846549"/>
<path d="M217.607 227.745C215.681 223.955 211.439 220.659 207.108 219.496C206.729 219.394 206.605 219.933 206.929 220.083C211.324 222.111 214.313 224.314 217.455 227.821C217.515 227.888 217.652 227.833 217.607 227.745Z" fill="#846549"/>
<path d="M203.075 218.231C198.281 217.799 193.45 217.431 188.752 218.581C182.632 220.079 178.874 224.941 173.046 226.989C172.787 227.08 172.943 227.411 173.198 227.354C178.503 226.168 181.594 222.238 186.448 220.195C191.561 218.043 197.556 218.274 203.073 218.359C203.152 218.361 203.154 218.238 203.075 218.231Z" fill="#846549"/>
<path d="M211.885 231.981C204.542 232.761 197.088 232.037 190.194 229.385C184.629 227.244 180.134 226.122 174.062 226.176C173.758 226.178 173.763 226.615 174.052 226.659C178.231 227.287 182.441 227.442 186.445 228.859C189.001 229.764 191.358 230.919 194.009 231.598C199.983 233.13 205.869 233.205 211.908 232.175C212.039 232.152 212.022 231.967 211.885 231.981Z" fill="#846549"/>
<path d="M141.99 207.459C150.524 223.078 146.456 237.865 137.684 252.399C137.439 252.805 138.16 253.207 138.448 252.826C148.6 239.351 152.722 221.867 142.335 207.287C142.213 207.116 141.888 207.271 141.99 207.459Z" fill="#846549"/>
<path d="M146.355 218.601C143.436 213.737 138.85 216.221 133.686 215.421C119.961 213.295 114.799 191.084 124.977 182.86C130.713 178.224 137.562 178.789 143.918 182.239C152.034 186.643 154.673 194.309 153.271 202.641C152.241 208.761 145.88 213.101 146.989 219.476C147.034 219.736 147.496 219.867 147.591 219.566C149.364 213.976 154.257 210.133 155.521 204.302C156.568 199.477 156.786 193.413 154.346 188.853C150.116 180.949 136.768 175.031 127.788 178.934C117.901 183.23 116.891 194.654 119.473 203.335C120.837 207.922 122.974 212.624 127.503 215.275C132.435 218.162 142.796 215.385 146.088 218.78C146.234 218.93 146.458 218.774 146.355 218.601Z" fill="#846549"/>
<path d="M131.555 179.85C122.68 181.919 119.809 188.363 121.494 196.535C122.428 201.063 124.949 204.989 128.358 208.307C130.228 210.127 132.23 211.867 134.688 212.968C139.067 214.929 143.378 214.076 147.085 218.436C147.273 218.657 147.718 218.469 147.573 218.193C144.504 212.383 136.628 213.568 131.433 209.872C121.057 202.489 116.015 184.303 131.593 179.941C131.659 179.922 131.619 179.835 131.555 179.85Z" fill="#846549"/>
<path d="M126.338 184.083C123.824 187.216 125.119 192.538 126.558 195.895C126.685 196.192 127.142 196.023 127.048 195.726C126.01 192.438 124.339 187.348 126.503 184.204C126.574 184.102 126.419 183.981 126.338 184.083Z" fill="#846549"/>
<path d="M128.373 198.73C129.793 202.826 132.981 206.142 136.641 208.726C136.898 208.906 137.306 208.585 137.064 208.349C133.901 205.253 130.42 202.691 128.667 198.628C128.591 198.452 128.311 198.552 128.373 198.73Z" fill="#846549"/>
<path d="M134.67 183.321C143.593 188.918 144.444 198.135 146.414 207.038C146.481 207.344 146.956 207.309 146.937 206.992C146.416 197.935 143.717 188.192 134.973 182.966C134.71 182.809 134.404 183.154 134.67 183.321Z" fill="#846549"/>
<path d="M133.45 179.467C137.966 181.236 141.104 183.239 144.464 186.569C144.754 186.855 145.238 186.551 145 186.208C142.577 182.724 137.912 179.914 133.498 179.313C133.4 179.3 133.356 179.431 133.45 179.467Z" fill="#846549"/>
<path d="M147.376 189.526C149.422 195.434 151.52 201.533 149.593 207.659C148.403 211.446 146.385 214.656 146.761 218.714C146.78 218.929 147.168 218.951 147.178 218.727C147.405 213.454 151.058 209.059 151.317 203.783C151.562 198.795 149.526 194.024 147.507 189.481C147.472 189.402 147.349 189.446 147.376 189.526Z" fill="#846549"/>
<path d="M130.576 185.653C132.261 198.306 141.409 206.595 147.219 217.701C147.368 217.986 147.805 217.834 147.71 217.532C146.034 212.173 143.909 208.852 140.169 204.607C135.242 199.014 132.251 192.685 130.785 185.634C130.76 185.513 130.559 185.527 130.576 185.653Z" fill="#846549"/>
<path d="M100.294 249.948C105.336 266.78 98.1716 280.489 86.4365 293.088C86.1096 293.44 86.7322 293.966 87.096 293.646C99.9597 282.335 107.756 265.999 100.67 249.843C100.587 249.653 100.233 249.746 100.294 249.948Z" fill="#846549"/>
<path d="M102.197 261.64C100.37 256.351 95.3315 257.938 90.4269 256.209C77.3928 251.615 77.077 228.958 88.8414 222.784C95.4717 219.304 102.082 221.111 107.59 225.649C114.623 231.442 115.576 239.419 112.413 247.306C110.089 253.1 102.909 256.177 102.633 262.612C102.622 262.874 103.048 263.087 103.206 262.81C106.145 257.671 111.778 254.811 114.269 249.343C116.331 244.818 117.844 238.931 116.422 234.025C113.958 225.524 102.106 217.293 92.4442 219.461C81.8073 221.849 78.3673 232.831 79.0461 241.789C79.4051 246.523 80.4975 251.512 84.3816 254.934C88.611 258.659 99.3886 257.844 101.897 261.767C102.008 261.94 102.262 261.828 102.197 261.64Z" fill="#846549"/>
<path d="M95.951 221.047C86.7852 221.443 82.5829 227.216 82.4893 235.513C82.4372 240.11 84.0749 244.41 86.7145 248.279C88.1621 250.4 89.7571 252.469 91.9375 253.995C95.8208 256.714 100.241 256.671 102.951 261.612C103.088 261.863 103.566 261.761 103.482 261.465C101.711 255.222 93.7157 254.937 89.4016 250.372C80.7848 241.253 79.7235 222.552 95.9688 221.143C96.0372 221.137 96.0172 221.044 95.951 221.047Z" fill="#846549"/>
<path d="M89.9166 224.229C86.7755 226.831 86.9083 232.271 87.6027 235.816C87.6643 236.13 88.1502 236.049 88.1216 235.74C87.8049 232.336 87.2535 227.054 90.0535 224.378C90.1449 224.291 90.0187 224.144 89.9166 224.229Z" fill="#846549"/>
<path d="M88.7798 238.919C89.2982 243.183 91.7212 247.01 94.7658 250.206C94.979 250.43 95.4488 250.19 95.262 249.915C92.8158 246.309 89.9439 243.167 89.0909 238.874C89.0539 238.687 88.7571 238.733 88.7798 238.919Z" fill="#846549"/>
<path d="M98.2697 225.011C105.84 232.118 104.703 241.284 104.732 250.348C104.733 250.659 105.206 250.712 105.256 250.398C106.684 241.45 106.117 231.431 98.6427 224.72C98.418 224.518 98.0439 224.799 98.2697 225.011Z" fill="#846549"/>
<path d="M97.8956 221.021C101.955 223.577 104.61 226.111 107.2 229.981C107.423 230.314 107.964 230.106 107.803 229.726C106.169 225.877 102.185 222.275 97.9749 220.879C97.8824 220.848 97.8109 220.968 97.8956 221.021Z" fill="#846549"/>
<path d="M109.429 233.406C110.174 239.556 110.929 245.903 107.724 251.538C105.743 255.021 103.073 257.789 102.572 261.825C102.546 262.039 102.922 262.131 102.98 261.913C104.332 256.801 108.863 253.174 110.248 248.064C111.558 243.234 110.577 238.197 109.567 233.385C109.549 233.303 109.418 233.323 109.429 233.406Z" fill="#846549"/>
<path d="M93.7455 226.541C92.6915 239.218 99.9074 248.998 103.24 260.919C103.325 261.224 103.787 261.156 103.759 260.843C103.259 255.298 101.881 251.662 99.1151 246.827C95.4704 240.457 93.8865 233.721 93.9551 226.561C93.9563 226.437 93.756 226.414 93.7455 226.541Z" fill="#846549"/>
<path d="M269.538 152.358C257.091 136.083 232.991 133.765 215.643 144.151C215.23 144.398 215.625 145.094 216.071 144.875C234.457 135.852 255.078 137.754 269.219 152.573C269.386 152.749 269.689 152.556 269.538 152.358Z" fill="#846549"/>
<path d="M259.3 144.899C261.157 148.304 255.069 157.317 255.983 161.977C256.781 166.047 259.619 169.11 262.913 171.748C270.677 177.964 282.855 182.461 291.853 175.969C299.732 170.283 299.299 157.18 293.605 150.129C290.324 146.065 285.231 144.107 280.094 142.797C272.488 140.856 266.66 143.995 259.132 143.356C258.761 143.324 258.656 143.742 258.962 143.909C264.657 147.01 270.769 143.589 276.957 144.485C285.023 145.653 292.357 150.468 294.842 157.768C297.679 166.101 293.837 176.219 283.467 177.481C272.661 178.796 255.892 168.925 257.524 157.692C258.284 152.469 263.851 149.511 259.587 144.756C259.475 144.631 259.21 144.735 259.3 144.899Z" fill="#846549"/>
<path d="M293.22 171.629C283.289 183.108 267.69 172.791 263.288 161.725C260.915 155.762 265.395 148.842 260.492 143.913C260.246 143.665 259.855 143.924 260.041 144.216C263.259 149.265 260.224 157.212 262.909 163C265.002 167.511 268.205 171.525 272.756 174.173C280.411 178.627 287.964 178.5 293.303 171.69C293.342 171.64 293.263 171.58 293.22 171.629Z" fill="#846549"/>
<path d="M287.061 174.408C283.019 175.114 278.587 171.835 275.587 169.693C275.314 169.499 275.016 169.86 275.263 170.073C278.126 172.539 283.021 175.592 287.11 174.596C287.224 174.568 287.177 174.388 287.061 174.408Z" fill="#846549"/>
<path d="M273.255 167.245C269.822 164.273 268.506 160.346 266.56 156.537C266.394 156.212 265.898 156.388 266.004 156.73C267.269 160.817 269.441 164.747 273.061 167.472C273.221 167.593 273.403 167.372 273.255 167.245Z" fill="#846549"/>
<path d="M291.419 167.664C289.35 158.224 280.522 152.33 271.523 148.533C271.258 148.422 270.999 148.791 271.257 148.946C279.568 153.932 288.541 157.934 290.931 167.707C291 167.989 291.483 167.954 291.419 167.664Z" fill="#846549"/>
<path d="M294.559 170.222C295.578 166.21 294.449 161.195 291.812 157.831C291.596 157.555 291.067 157.796 291.234 158.119C293.339 162.181 294.263 165.734 294.385 170.217C294.388 170.314 294.537 170.305 294.559 170.222Z" fill="#846549"/>
<path d="M289.438 154.496C285.599 151.105 281.566 147.659 276.474 145.999C271.049 144.231 265.247 145.741 259.808 144.026C259.553 143.946 259.394 144.27 259.643 144.382C264.084 146.38 268.472 145.421 273.189 146.136C279.462 147.088 284.544 150.98 289.352 154.597C289.423 154.651 289.503 154.553 289.438 154.496Z" fill="#846549"/>
<path d="M287.188 170.232C280.57 166.363 275.388 161.464 271.49 155.184C268.641 150.593 265.736 147.236 261.159 143.988C260.933 143.827 260.575 144.11 260.786 144.321C269.871 153.377 274.916 164.295 287.083 170.397C287.187 170.449 287.291 170.292 287.188 170.232Z" fill="#846549"/>
<path d="M209.629 176.318C203.636 173.168 194.535 169.938 187.657 172.398C181.251 174.689 177.397 182.146 175.053 187.544C174.836 188.044 175.604 188.337 175.876 187.88C178.601 183.287 182.373 176.29 187.867 173.936C194.491 171.099 203.198 174.316 209.473 176.654C209.716 176.745 209.85 176.433 209.629 176.318Z" fill="#846549"/>
<path d="M196.997 173.824C200.511 175.74 198.9 182.171 199.649 185.3C200.106 187.205 200.947 189.023 202.219 190.607C205.139 194.246 209.691 195.822 214.29 196.797C224.057 198.869 236.594 197.567 241.053 188.044C244.815 180.008 238.635 168.991 230.812 164.771C225.859 162.1 220.105 162.385 214.705 163.317C206.973 164.653 203.059 169.958 196.044 172.476C195.769 172.575 195.784 173.013 196.111 173.037C198.339 173.194 199.006 173.188 201.074 172.389C207.268 169.993 210.178 166.17 217.567 165.277C225.028 164.375 231.336 166.415 236.057 172.102C241.263 178.373 242.39 187.111 235.278 192.462C225.407 199.891 204.22 196.474 201.004 184.095C199.957 180.062 202.729 175.029 197.086 173.532C196.889 173.48 196.85 173.743 196.997 173.824Z" fill="#846549"/>
<path d="M239.966 183.993C236.936 197.562 219.739 195.814 210.298 188.723C205.497 185.117 204.947 181.532 202.52 176.834C201.248 174.374 200.204 173.377 197.52 172.407C197.239 172.306 196.958 172.676 197.237 172.847C202.757 176.226 202.988 183.743 207.979 187.975C212.096 191.466 217.045 193.987 222.605 194.619C231.654 195.649 238.616 192.522 240.07 184.009C240.08 183.946 239.979 183.932 239.966 183.993Z" fill="#846549"/>
<path d="M235.809 189.029C232.495 191.314 227.096 190.181 223.324 189.477C223.037 189.424 222.892 189.857 223.182 189.94C226.92 191.012 232.755 191.725 235.934 189.186C236.035 189.107 235.918 188.953 235.809 189.029Z" fill="#846549"/>
<path d="M220.119 188.236C215.61 186.986 212.544 183.946 208.976 181.301C208.721 181.112 208.32 181.438 208.553 181.677C211.642 184.85 215.483 187.564 220.034 188.514C220.207 188.55 220.293 188.284 220.119 188.236Z" fill="#846549"/>
<path d="M236.452 181.138C230.202 173.438 219.296 171.791 209.56 172.058C209.262 172.066 209.254 172.508 209.55 172.541C219.241 173.618 229.398 173.57 236.057 181.404C236.253 181.635 236.643 181.374 236.452 181.138Z" fill="#846549"/>
<path d="M240.487 182.188C239.448 178.119 236.062 174.091 232.075 172.11C231.736 171.942 231.448 172.417 231.739 172.633C235.583 175.467 238.034 178.206 240.318 182.224C240.36 182.297 240.512 182.286 240.487 182.188Z" fill="#846549"/>
<path d="M228.397 170.088C223.673 168.701 218.859 167.368 213.867 167.665C207.716 168.03 203.007 172.018 196.973 172.8C196.701 172.834 196.75 173.19 197.019 173.187C201.904 173.126 205.43 170.505 209.935 169.203C215.946 167.464 222.375 168.93 228.359 170.212C228.435 170.228 228.473 170.111 228.397 170.088Z" fill="#846549"/>
<path d="M233.92 185.203C226.186 184.476 218.89 182.194 212.523 177.963C207.948 174.923 203.68 173.243 198.154 172.207C197.863 172.152 197.731 172.569 198.012 172.67C201.947 174.081 206.067 175.076 209.656 177.209C211.816 178.492 213.727 180.004 215.992 181.138C221.621 183.955 227.561 185.197 233.89 185.396C234.021 185.4 234.059 185.216 233.92 185.203Z" fill="#846549"/>
<path d="M155.857 278.606C139.48 260.654 115.139 273.284 100.513 286.228C100.114 286.582 100.589 287.242 101.046 286.9C117.137 274.832 137.705 262.945 155.574 278.857C155.736 279.001 156.002 278.766 155.857 278.606Z" fill="#846549"/>
<path d="M144.834 272.192C147.676 276.272 141.83 284.268 143.501 289.518C145.026 294.309 149.378 297.48 153.852 299.946C162.251 304.575 174.574 306.741 181.669 299.045C187.808 292.387 185.602 279.955 179.365 273.855C175.456 270.032 169.449 268.424 163.956 267.81C156.936 267.024 151.272 270.558 144.429 270.651C144.101 270.655 144.069 271.093 144.34 271.207C150.496 273.806 157.111 269.767 163.585 270.123C171.876 270.579 179.015 274.784 181.996 282.016C184.626 288.396 183.823 295.779 177.563 299.831C166.272 307.141 143.508 297.871 145.033 284.137C145.573 279.275 149.378 275.876 145.07 271.983C144.928 271.855 144.738 272.054 144.834 272.192Z" fill="#846549"/>
<path d="M181.575 295.446C173.054 307.827 156.223 299.158 150.781 288.497C147.857 282.769 151.29 275.461 145.857 271.042C145.615 270.845 145.271 271.162 145.459 271.396C149.176 276.041 146.959 283.61 149.912 288.918C152.326 293.257 155.789 296.998 160.414 299.404C168.649 303.686 176.9 303.198 181.665 295.497C181.694 295.45 181.607 295.4 181.575 295.446Z" fill="#846549"/>
<path d="M175.76 298.828C171.884 299.913 167.045 297.086 163.864 295.273C163.583 295.113 163.26 295.457 163.54 295.652C166.664 297.825 171.883 300.408 175.836 299.01C175.963 298.965 175.888 298.792 175.76 298.828Z" fill="#846549"/>
<path d="M161.259 293.057C157.489 290.422 155.724 286.629 153.34 283.007C153.163 282.737 152.698 282.979 152.823 283.264C154.548 287.211 157.156 290.926 161.064 293.285C161.232 293.386 161.425 293.173 161.259 293.057Z" fill="#846549"/>
<path d="M179.317 291.646C176.192 282.489 166.722 277.478 157.4 274.596C157.08 274.498 156.885 274.896 157.193 275.041C165.996 279.181 175.377 282.348 178.859 291.804C178.962 292.084 179.412 291.924 179.317 291.646Z" fill="#846549"/>
<path d="M182.739 293.927C183.283 289.849 181.6 284.96 178.611 281.875C178.324 281.579 177.848 281.893 178.076 282.236C180.663 286.129 181.911 289.408 182.564 293.922C182.578 294.011 182.726 294.02 182.739 293.927Z" fill="#846549"/>
<path d="M175.854 278.766C171.737 275.825 167.498 272.915 162.394 271.683C156.655 270.297 150.935 272.488 145.193 271.245C144.962 271.195 144.855 271.538 145.08 271.616C149.268 273.048 153.136 272.06 157.45 272.019C164.337 271.954 170.182 275.497 175.767 278.868C175.842 278.913 175.927 278.819 175.854 278.766Z" fill="#846549"/>
<path d="M175.408 294.646C167.959 291.245 162.12 286.622 157.422 280.298C154.42 276.256 151.107 273.665 146.584 271.096C146.301 270.935 145.997 271.262 146.261 271.476C156.264 279.574 162.598 289.967 175.326 294.824C175.452 294.872 175.53 294.702 175.408 294.646Z" fill="#846549"/>
<path d="M317.489 118.259C308.568 127.763 297.183 133.11 283.446 132.828C282.932 132.817 282.937 133.579 283.429 133.648C297.054 135.559 310.41 128.937 317.803 118.489C317.941 118.294 317.659 118.078 317.489 118.259Z" fill="#846549"/>
<path d="M308.182 126.206C311.757 121.976 307.764 119.762 306.156 115.258C301.47 102.139 322.72 89.1007 335.152 94.2643C342.593 97.3547 344.514 105.525 343.182 112.273C341.646 120.053 334.644 124.239 326.858 125.899C320.409 127.274 313.375 123.755 307.547 127.081C307.276 127.235 307.473 127.636 307.769 127.607C314.612 126.946 320.587 129.822 327.482 128.28C332.769 127.097 338.471 124.877 341.766 120.735C347.405 113.643 347.313 100.304 339.15 94.641C329.894 88.2192 317.896 92.8592 310.397 99.1439C307.219 101.808 304.493 104.912 303.853 108.967C303.017 114.267 310.021 121.794 307.899 126.048C307.821 126.206 308.067 126.342 308.182 126.206Z" fill="#846549"/>
<path d="M340.742 98.8729C334.763 91.7098 326.561 92.1687 319.039 97.3603C314.862 100.243 312.01 104.334 310.308 108.877C308.106 114.756 311.823 121.378 308.639 126.777C308.482 127.044 308.92 127.255 309.118 127.045C313.802 122.072 309.019 115.256 311.147 109.219C315.028 98.209 330.068 87.3871 340.657 98.9299C340.701 98.9776 340.784 98.9232 340.742 98.8729Z" fill="#846549"/>
<path d="M334.405 96.0343C330.246 95.1205 325.578 98.2224 322.787 100.692C322.551 100.9 322.832 101.289 323.1 101.087C326.034 98.8661 330.272 95.6022 334.374 96.2267C334.51 96.2472 334.536 96.0631 334.405 96.0343Z" fill="#846549"/>
<path d="M320.692 103.323C317.16 106.078 315.166 110.095 314.077 114.201C313.995 114.509 314.515 114.637 314.646 114.357C316.432 110.515 317.57 106.536 320.91 103.533C321.036 103.419 320.827 103.218 320.692 103.323Z" fill="#846549"/>
<path d="M338.542 102.863C336.661 112.548 327.704 116.821 319.689 121.862C319.45 122.012 319.67 122.407 319.94 122.287C328.733 118.398 337.43 112.393 339.027 102.936C339.076 102.646 338.597 102.577 338.542 102.863Z" fill="#846549"/>
<path d="M341.885 100.345C341.927 102.463 342.007 104.517 341.533 106.601C341.059 108.684 340.182 110.515 339.262 112.442C339.114 112.752 339.615 113.053 339.832 112.76C342.335 109.377 343.262 104.305 342.053 100.309C342.025 100.214 341.883 100.26 341.885 100.345Z" fill="#846549"/>
<path d="M337.527 116.004C332.345 120.085 327.136 124.119 320.06 124.849C315.864 125.282 312.143 124.786 308.274 126.566C308.037 126.675 308.166 127.015 308.426 126.931C313.814 125.196 319.625 126.555 324.977 124.743C330.027 123.032 333.905 119.546 337.624 116.097C337.679 116.046 337.586 115.957 337.527 116.004Z" fill="#846549"/>
<path d="M334.559 100.247C322.706 106.468 318.047 117.487 309.415 126.608C309.222 126.811 309.549 127.129 309.779 126.957C313.474 124.203 316.248 121.409 318.62 117.597C323.071 110.443 327.054 105.076 334.684 100.405C334.798 100.335 334.673 100.187 334.559 100.247Z" fill="#846549"/>
<path d="M242.36 116.708C237.482 126.734 229.292 134.159 220.236 141.008C219.789 141.346 220.281 141.949 220.769 141.679C230.567 136.261 239.637 127.132 242.739 116.812C242.801 116.607 242.449 116.525 242.36 116.708Z" fill="#846549"/>
<path d="M235.995 126.865C238.275 123.113 234.824 121.233 232.332 118.472C226.622 112.147 227.616 105.344 232.441 98.9975C236.299 93.9226 242.157 88.9736 249.348 88.8448C259.225 88.6677 265.081 98.0419 264.96 106.267C264.87 112.415 261.335 116.827 255.978 120.212C251.38 123.117 246.843 123.513 241.71 124.643C238.917 125.257 237.486 125.944 235.673 127.865C235.472 128.078 235.754 128.431 236.035 128.32C241.826 126.041 248.276 127.034 253.918 124.22C258.518 121.925 263.692 118.269 265.836 113.697C269.627 105.616 265.81 92.5091 256.713 88.5742C246.244 84.0459 235.772 91.3934 230.359 99.1434C227.779 102.836 225.699 106.914 226.433 111.441C227.19 116.114 236.712 123.087 235.678 126.778C235.628 126.959 235.911 127.003 235.995 126.865Z" fill="#846549"/>
<path d="M258.395 91.8204C250.803 86.7214 243.416 89.0014 237.816 95.5107C234.566 99.2891 233.076 103.766 232.659 108.563C232.087 115.142 237.952 121.183 236.614 127.273C236.55 127.566 237.023 127.684 237.15 127.42C238.134 125.366 238.349 124.312 237.645 122.074C235.975 116.77 233.019 113.685 233.624 107.631C234.74 96.469 245.682 84.1998 258.33 91.8966C258.386 91.9306 258.451 91.8584 258.395 91.8204Z" fill="#846549"/>
<path d="M251.466 90.8036C247.174 91.1018 243.752 95.2714 241.833 98.4619C241.69 98.6994 242.119 98.9415 242.282 98.7128C244.406 95.7478 247.379 91.5558 251.49 90.9975C251.623 90.9791 251.602 90.794 251.466 90.8036Z" fill="#846549"/>
<path d="M240.7 101.502C238.194 105.08 237.566 109.506 237.825 113.727C237.844 114.039 238.38 114.055 238.416 113.744C238.904 109.579 238.72 105.424 240.97 101.652C241.055 101.51 240.797 101.363 240.7 101.502Z" fill="#846549"/>
<path d="M257.555 96.2375C258.877 106.088 251.647 112.567 245.593 119.576C245.415 119.781 245.734 120.116 245.957 119.926C253.067 113.852 259.553 105.681 258.043 96.1941C257.997 95.9048 257.516 95.9459 257.555 96.2375Z" fill="#846549"/>
<path d="M259.946 92.9226C260.648 94.9437 261.377 96.8873 261.582 99.0152C261.787 101.136 261.529 103.146 261.265 105.24C261.224 105.57 261.786 105.76 261.901 105.413C263.212 101.481 262.506 96.367 260.098 92.8471C260.042 92.7657 259.917 92.8392 259.946 92.9226Z" fill="#846549"/>
<path d="M260.734 109.14C257.419 113.973 254.064 118.915 248.412 121.616C244.206 123.627 239.752 124.12 236.203 127.177C236.011 127.342 236.229 127.642 236.453 127.492C241.354 124.236 247.678 123.976 252.339 120.348C256.16 117.373 258.564 113.233 260.854 109.206C260.89 109.142 260.777 109.077 260.734 109.14Z" fill="#846549"/>
<path d="M252.939 94.8068C248.608 99.0087 245.352 103.723 243.528 109.327C242.882 111.311 242.618 113.325 242.202 115.352C241.332 119.589 239.171 123.027 237.302 126.904C237.184 127.148 237.582 127.387 237.751 127.155C240.855 122.888 242.662 118.945 243.508 113.84C244.683 106.753 248.203 100.391 253.105 94.9289C253.192 94.8318 253.031 94.718 252.939 94.8068Z" fill="#846549"/>
<path d="M179.956 152.516C181.987 163.441 179.869 173.844 176.547 184.285C176.389 184.782 177.124 185.116 177.37 184.621C182.062 175.21 184.195 162.44 180.339 152.434C180.265 152.24 179.918 152.307 179.956 152.516Z" fill="#846549"/>
<path d="M180.895 164.331C180.472 159.77 176.455 160.389 172.586 159.283C157.903 155.086 157.292 133.547 168.759 125.655C175.976 120.687 185.497 124.028 190.736 130.146C194.984 135.107 195.812 140.49 193.939 146.348C192.043 152.278 188.572 154.881 184.393 159.342C182.497 161.365 181.584 162.571 181.238 165.298C181.205 165.563 181.62 165.786 181.798 165.527C185.156 160.623 191.033 158.144 193.965 152.881C196.386 148.535 198.377 142.751 197.373 137.787C195.625 129.143 184.518 120.175 174.749 121.568C163.763 123.136 159.438 134.025 159.432 143.073C159.429 147.768 160.102 152.701 163.664 156.352C167.197 159.973 179.199 160.821 180.576 164.399C180.64 164.566 180.911 164.502 180.895 164.331Z" fill="#846549"/>
<path d="M178.02 123.417C168.285 123.146 163.507 129.515 163.303 138.251C163.207 142.375 164.461 146.25 166.543 149.886C167.622 151.77 168.826 153.733 170.458 155.266C174.154 158.733 179.26 159.015 181.64 164.32C181.758 164.583 182.24 164.505 182.181 164.205C180.881 157.599 172.236 156.596 168.403 151.272C161.345 141.469 162.073 123.756 178.032 123.514C178.1 123.513 178.086 123.419 178.02 123.417Z" fill="#846549"/>
<path d="M171.733 126.158C168.422 128.547 168.04 133.934 168.463 137.538C168.501 137.857 168.988 137.798 168.986 137.492C168.963 134.021 168.854 128.822 171.858 126.316C171.956 126.234 171.841 126.08 171.733 126.158Z" fill="#846549"/>
<path d="M169.38 140.711C169.522 144.985 171.654 148.991 174.418 152.377C174.614 152.617 175.099 152.406 174.936 152.12C172.8 148.368 170.167 145.019 169.694 140.683C169.673 140.493 169.374 140.526 169.38 140.711Z" fill="#846549"/>
<path d="M180.007 127.531C187.072 135.16 185.078 144.185 184.352 153.23C184.327 153.543 184.797 153.613 184.872 153.308C187.03 144.541 187.339 134.428 180.401 127.265C180.192 127.049 179.798 127.305 180.007 127.531Z" fill="#846549"/>
<path d="M179.965 123.531C183.781 126.364 186.244 129.105 188.507 133.117C188.704 133.467 189.259 133.29 189.129 132.902C187.803 128.949 184.138 125.095 180.053 123.393C179.962 123.355 179.887 123.473 179.965 123.531Z" fill="#846549"/>
<path d="M190.446 136.685C190.681 142.879 190.928 149.315 187.222 154.715C184.936 158.047 182.112 160.517 181.243 164.507C181.197 164.72 181.568 164.828 181.645 164.617C183.465 159.618 188.311 156.312 190.067 151.284C191.72 146.551 191.196 141.546 190.586 136.673C190.575 136.589 190.443 136.603 190.446 136.685Z" fill="#846549"/>
<path d="M175.363 128.735C174.439 134.117 174.514 139.291 176.096 144.608C176.896 147.301 178.296 149.627 179.378 152.211C180.917 155.885 181.24 159.806 181.986 163.653C182.047 163.966 182.512 163.917 182.509 163.606C182.468 158.354 181.566 154.336 179.179 149.572C175.882 142.994 174.879 135.913 175.571 128.766C175.583 128.642 175.384 128.61 175.363 128.735Z" fill="#846549"/>
</g>
<g clip-path="url(#clip1_6337_11149)">
<path d="M940.232 138.726C971.244 141.144 1000.97 129.038 1031.85 131.233C1059.76 133.216 1086.42 146.729 1102.94 167.477C1122.17 191.645 1128.85 222.064 1148.45 246.241C1172.07 275.381 1202.44 294.049 1238.21 308.339C1239.67 308.923 1238.81 310.754 1237.34 310.437C1206.2 303.762 1178.26 283.627 1157.38 262.046C1146.71 251.019 1137.24 238.788 1130.17 225.471C1123.08 212.126 1118.06 197.915 1110.92 184.59C1095 154.858 1064.77 134.477 1028.17 132.995C998.724 131.803 969.59 144.254 940.213 138.879C940.111 138.86 940.124 138.718 940.232 138.726Z" fill="#846549"/>
<path d="M916.482 130.728C926.621 134.998 938.156 137.311 949.153 138.886C949.729 138.968 949.627 139.712 949.056 139.71C938.646 139.673 924.789 136.699 916.292 131.049C916.115 130.932 916.275 130.64 916.482 130.728Z" fill="#846549"/>
<path d="M929.248 135.774C925.463 134.099 925.451 131.94 925.231 128.467C925 124.815 925.972 121.662 923.783 118.276C921.833 115.259 918.226 113.396 914.727 112.131C908.401 109.846 900.155 109.201 894.077 112.437C886.877 116.271 884.725 123.407 887.897 130.361C891.666 138.623 899.854 142.513 909.551 141.294C916.573 140.412 922.223 134.304 929.342 135.34C929.712 135.394 929.692 135.827 929.354 135.918C922.729 137.688 918.324 142.493 911.34 143.485C905.716 144.284 899.454 144.195 894.585 141.326C887.06 136.892 881.738 125.466 886.067 117.535C891.022 108.458 903.286 107.52 912.599 109.898C917.57 111.166 922.609 113.142 925.357 117.395C928.569 122.365 924.927 132.083 929.406 135.506C929.541 135.608 929.425 135.852 929.248 135.774Z" fill="#846549"/>
<path d="M886.909 121.103C889.374 112.893 896.413 110.227 905.201 111.777C910.07 112.635 914.252 114.964 917.75 118.112C919.671 119.841 921.492 121.692 922.626 123.962C924.647 128.012 923.581 131.991 928.215 135.43C928.447 135.601 928.243 136.019 927.947 135.883C921.692 133.026 923.351 125.764 919.369 120.964C911.52 111.503 892.167 106.603 887.007 121.137C886.986 121.198 886.891 121.163 886.909 121.103Z" fill="#846549"/>
<path d="M891.619 116.272C895.072 113.943 900.783 115.134 904.38 116.462C904.696 116.579 904.511 117.006 904.19 116.918C900.664 115.961 895.202 114.419 891.748 116.424C891.636 116.49 891.506 116.348 891.619 116.272Z" fill="#846549"/>
<path d="M907.399 118.138C911.789 119.447 915.292 122.392 917.99 125.775C918.222 126.068 917.786 126.36 917.52 126.121C914.28 123.22 911.602 120.019 907.285 118.412C907.096 118.342 907.207 118.081 907.399 118.138Z" fill="#846549"/>
<path d="M890.579 123.979C896.399 132.228 906.338 133.01 915.912 134.821C916.238 134.884 916.199 135.323 915.854 135.306C906.079 134.834 895.614 132.348 890.192 124.264C890.029 124.022 890.405 123.733 890.579 123.979Z" fill="#846549"/>
<path d="M886.447 122.855C888.242 127.029 890.324 129.933 893.835 133.036C894.136 133.302 893.806 133.758 893.438 133.536C889.734 131.298 886.816 126.986 886.28 122.901C886.268 122.812 886.41 122.768 886.447 122.855Z" fill="#846549"/>
<path d="M896.959 135.729C903.308 137.621 909.807 139.537 916.498 137.764C920.628 136.669 924.135 134.786 928.525 135.13C928.756 135.148 928.776 135.507 928.533 135.516C922.833 135.731 917.98 139.113 912.275 139.36C906.874 139.593 901.77 137.714 896.908 135.851C896.825 135.819 896.874 135.704 896.959 135.729Z" fill="#846549"/>
<path d="M893.207 120.191C906.842 121.737 915.562 130.191 927.418 135.555C927.719 135.691 927.555 136.099 927.228 136.011C921.48 134.467 917.946 132.505 913.454 129.05C907.534 124.497 900.77 121.734 893.184 120.385C893.054 120.361 893.071 120.175 893.207 120.191Z" fill="#846549"/>
<path d="M960.643 160.248C966.389 143.581 983.035 135.262 1001.05 133.507C1001.62 133.451 1001.75 134.216 1001.18 134.324C983.34 137.721 968.619 144.152 961.014 160.377C960.911 160.596 960.566 160.474 960.643 160.248Z" fill="#846549"/>
<path d="M967.788 150.193C967.085 154.733 975.455 159.548 976.62 164.293C977.615 168.35 976.407 171.985 974.264 175.589C969.17 184.154 958.828 192.762 947.566 189.133C938.424 186.188 934.223 174.294 936.642 166.088C938.237 160.68 943.25 156.602 948.25 153.746C954.42 150.222 961.014 151.292 967.432 148.669C967.704 148.558 968.021 148.879 967.808 149.106C963.623 153.564 957.492 152.123 952.005 154.425C944.854 157.423 938.486 163.796 938.312 171.162C938.133 178.694 942.45 187.479 951.489 188.347C964.437 189.591 978.401 173.88 974.011 162.799C972.003 157.732 965.036 155.937 967.468 150.125C967.536 149.965 967.815 150.019 967.788 150.193Z" fill="#846549"/>
<path d="M944.806 185.465C958.298 193.368 969.512 178.792 969.841 167.201C970.023 160.809 963.34 155.739 966.317 149.593C966.44 149.339 966.927 149.404 966.857 149.708C965.511 155.599 970.831 160.321 970.774 166.221C970.723 171.399 969.277 176.538 965.938 180.781C960.35 187.883 952.647 190.675 944.744 185.544C944.688 185.508 944.75 185.432 944.806 185.465Z" fill="#846549"/>
<path d="M951.636 186.251C955.748 185.674 958.787 181.354 960.915 178.386C961.108 178.117 961.499 178.404 961.338 178.67C959.425 181.832 955.926 186.126 951.666 186.443C951.533 186.453 951.499 186.27 951.636 186.251Z" fill="#846549"/>
<path d="M962.278 175.388C964.544 171.572 964.398 167.46 964.926 163.293C964.964 162.993 965.5 162.954 965.517 163.276C965.734 167.51 965.062 171.916 962.532 175.559C962.419 175.722 962.183 175.549 962.278 175.388Z" fill="#846549"/>
<path d="M945.136 181.175C943.764 171.691 950.233 163.459 957.437 157.231C957.655 157.043 957.995 157.349 957.81 157.563C951.674 164.699 944.444 171.255 945.622 181.102C945.657 181.391 945.178 181.465 945.136 181.175Z" fill="#846549"/>
<path d="M943.051 184.548C940.674 181.079 940.002 175.967 941.357 172.021C941.473 171.685 942.046 171.815 941.999 172.158C941.712 174.261 941.434 176.262 941.619 178.387C941.806 180.517 942.508 182.447 943.2 184.465C943.228 184.544 943.108 184.632 943.051 184.548Z" fill="#846549"/>
<path d="M942.444 168.201C944.94 163.843 947.574 159.404 951.873 156.327C956.43 153.065 962.397 152.702 967.013 149.503C967.234 149.35 967.466 149.634 967.272 149.807C964.122 152.613 960.417 153.203 956.542 154.817C950.006 157.538 946.266 162.88 942.566 168.261C942.524 168.323 942.407 168.266 942.444 168.201Z" fill="#846549"/>
<path d="M950.06 182.348C955.341 176.358 958.412 169.989 959.964 162.456C960.954 157.657 962.736 153.944 965.712 149.865C965.877 149.639 966.292 149.839 966.168 150.092C960.676 161.335 959.698 173.077 950.229 182.462C950.138 182.552 949.972 182.449 950.06 182.348Z" fill="#846549"/>
<path d="M1103.35 227.992C1116.45 224.043 1128.64 227.623 1138.83 235.545C1139.27 235.886 1138.78 236.499 1138.3 236.216C1126.78 229.513 1117.25 226.237 1103.45 228.341C1103.24 228.374 1103.13 228.058 1103.35 227.992Z" fill="#846549"/>
<path d="M1116.3 227.975C1112.46 229.169 1112.55 235.748 1111.07 238.759C1110.19 240.543 1108.94 242.153 1107.34 243.458C1103.35 246.696 1098 247.249 1092.93 247.173C1083.08 247.025 1071.2 242.699 1069.88 232.393C1068.8 224.002 1077.31 214.853 1085.67 212.452C1091 210.921 1096.51 212.339 1101.44 214.266C1108.66 217.087 1111.23 223.021 1117.52 226.858C1117.77 227.015 1117.6 227.422 1117.3 227.384C1114.54 227.039 1113.17 226.305 1111.06 224.506C1106.88 220.943 1103.77 217.394 1098.09 215.595C1091.47 213.499 1085.82 213.63 1080.03 217.581C1074.11 221.622 1069.43 228.975 1072.62 235.697C1077.3 245.533 1097.4 249.642 1106.32 242.272C1111.39 238.089 1108.97 233.63 1112.32 229.575C1113.53 228.112 1114.27 227.807 1116.21 227.684C1116.38 227.673 1116.49 227.915 1116.3 227.975Z" fill="#846549"/>
<path d="M1072.07 229.623C1071.87 243.2 1088.36 245.149 1099.14 240.376C1103.03 238.656 1105.64 236.643 1108.01 233.408C1109.01 232.054 1109.61 230.504 1110.73 229.222C1112.27 227.471 1113.67 226.687 1116.09 226.493C1116.39 226.469 1116.56 226.878 1116.24 226.986C1110.11 229.062 1108.15 236.534 1102.33 239.739C1097.65 242.319 1092.3 243.847 1086.85 243.456C1077.8 242.807 1071.4 238.289 1071.97 229.614C1071.97 229.55 1072.07 229.562 1072.07 229.623Z" fill="#846549"/>
<path d="M1074.99 235.37C1077.75 238.23 1083.18 238.208 1087.06 238.229C1087.36 238.23 1087.37 238.689 1087.07 238.711C1083.12 239.001 1077.42 238.609 1074.82 235.492C1074.74 235.393 1074.9 235.278 1074.99 235.37Z" fill="#846549"/>
<path d="M1090.46 237.631C1095.14 237.293 1098.83 234.889 1102.91 232.987C1103.21 232.847 1103.48 233.269 1103.21 233.455C1099.49 235.961 1095.11 237.885 1090.47 237.921C1090.29 237.922 1090.29 237.644 1090.46 237.631Z" fill="#846549"/>
<path d="M1076.15 227.495C1083.92 221.118 1095.06 221.686 1104.43 223.82C1104.73 223.888 1104.6 224.316 1104.31 224.291C1094.67 223.471 1084.63 221.438 1076.46 227.849C1076.21 228.04 1075.92 227.69 1076.15 227.495Z" fill="#846549"/>
<path d="M1071.97 227.745C1073.9 223.955 1078.14 220.659 1082.47 219.496C1082.85 219.394 1082.97 219.933 1082.65 220.083C1078.26 222.111 1075.27 224.314 1072.12 227.821C1072.06 227.888 1071.93 227.833 1071.97 227.745Z" fill="#846549"/>
<path d="M1086.5 218.231C1091.3 217.799 1096.13 217.431 1100.83 218.581C1106.95 220.079 1110.71 224.941 1116.53 226.989C1116.79 227.08 1116.64 227.411 1116.38 227.354C1111.08 226.168 1107.99 222.238 1103.13 220.195C1098.02 218.043 1092.02 218.274 1086.51 218.359C1086.43 218.361 1086.43 218.238 1086.5 218.231Z" fill="#846549"/>
<path d="M1077.69 231.981C1085.04 232.761 1092.49 232.037 1099.39 229.385C1104.95 227.244 1109.45 226.122 1115.52 226.176C1115.82 226.178 1115.82 226.615 1115.53 226.659C1111.35 227.287 1107.14 227.442 1103.13 228.859C1100.58 229.764 1098.22 230.919 1095.57 231.598C1089.6 233.13 1083.71 233.205 1077.67 232.175C1077.54 232.152 1077.56 231.967 1077.69 231.981Z" fill="#846549"/>
<path d="M1147.59 207.459C1139.06 223.078 1143.12 237.865 1151.9 252.399C1152.14 252.805 1151.42 253.207 1151.13 252.826C1140.98 239.351 1136.86 221.867 1147.24 207.287C1147.37 207.116 1147.69 207.271 1147.59 207.459Z" fill="#846549"/>
<path d="M1143.23 218.601C1146.14 213.737 1150.73 216.221 1155.89 215.421C1169.62 213.295 1174.78 191.084 1164.6 182.86C1158.87 178.224 1152.02 178.789 1145.66 182.239C1137.55 186.643 1134.91 194.309 1136.31 202.641C1137.34 208.761 1143.7 213.101 1142.59 219.476C1142.55 219.736 1142.08 219.867 1141.99 219.566C1140.22 213.976 1135.32 210.133 1134.06 204.302C1133.01 199.477 1132.79 193.413 1135.23 188.853C1139.46 180.949 1152.81 175.031 1161.79 178.934C1171.68 183.23 1172.69 194.654 1170.11 203.335C1168.74 207.922 1166.61 212.624 1162.08 215.275C1157.14 218.162 1146.78 215.385 1143.49 218.78C1143.35 218.93 1143.12 218.774 1143.23 218.601Z" fill="#846549"/>
<path d="M1158.02 179.85C1166.9 181.919 1169.77 188.363 1168.09 196.535C1167.15 201.063 1164.63 204.989 1161.22 208.307C1159.35 210.127 1157.35 211.867 1154.89 212.968C1150.51 214.929 1146.2 214.076 1142.49 218.436C1142.31 218.657 1141.86 218.469 1142.01 218.193C1145.08 212.383 1152.95 213.568 1158.15 209.872C1168.52 202.489 1173.57 184.303 1157.99 179.941C1157.92 179.922 1157.96 179.835 1158.02 179.85Z" fill="#846549"/>
<path d="M1163.24 184.083C1165.76 187.216 1164.46 192.538 1163.02 195.895C1162.89 196.192 1162.44 196.023 1162.53 195.726C1163.57 192.438 1165.24 187.348 1163.08 184.204C1163.01 184.102 1163.16 183.981 1163.24 184.083Z" fill="#846549"/>
<path d="M1161.21 198.73C1159.79 202.826 1156.6 206.142 1152.94 208.726C1152.68 208.906 1152.27 208.585 1152.52 208.349C1155.68 205.253 1159.16 202.691 1160.91 198.628C1160.99 198.452 1161.27 198.552 1161.21 198.73Z" fill="#846549"/>
<path d="M1154.91 183.321C1145.99 188.918 1145.14 198.135 1143.17 207.038C1143.1 207.344 1142.62 207.309 1142.64 206.992C1143.16 197.935 1145.86 188.192 1154.61 182.966C1154.87 182.809 1155.18 183.154 1154.91 183.321Z" fill="#846549"/>
<path d="M1156.13 179.467C1151.61 181.236 1148.48 183.239 1145.12 186.569C1144.83 186.855 1144.34 186.551 1144.58 186.208C1147 182.724 1151.67 179.914 1156.08 179.313C1156.18 179.3 1156.22 179.431 1156.13 179.467Z" fill="#846549"/>
<path d="M1142.2 189.526C1140.16 195.434 1138.06 201.533 1139.99 207.659C1141.18 211.446 1143.19 214.656 1142.82 218.714C1142.8 218.929 1142.41 218.951 1142.4 218.727C1142.17 213.454 1138.52 209.059 1138.26 203.783C1138.02 198.795 1140.05 194.024 1142.07 189.481C1142.11 189.402 1142.23 189.446 1142.2 189.526Z" fill="#846549"/>
<path d="M1159 185.653C1157.32 198.306 1148.17 206.595 1142.36 217.701C1142.21 217.986 1141.78 217.834 1141.87 217.532C1143.55 212.173 1145.67 208.852 1149.41 204.607C1154.34 199.014 1157.33 192.685 1158.79 185.634C1158.82 185.513 1159.02 185.527 1159 185.653Z" fill="#846549"/>
<path d="M1189.29 249.948C1184.24 266.78 1191.41 280.489 1203.14 293.088C1203.47 293.44 1202.85 293.966 1202.48 293.646C1189.62 282.335 1181.82 265.999 1188.91 249.843C1188.99 249.653 1189.35 249.746 1189.29 249.948Z" fill="#846549"/>
<path d="M1187.38 261.64C1189.21 256.351 1194.25 257.938 1199.15 256.209C1212.19 251.615 1212.5 228.958 1200.74 222.784C1194.11 219.304 1187.5 221.111 1181.99 225.649C1174.96 231.442 1174 239.419 1177.17 247.306C1179.49 253.1 1186.67 256.177 1186.95 262.612C1186.96 262.874 1186.53 263.087 1186.37 262.81C1183.43 257.671 1177.8 254.811 1175.31 249.343C1173.25 244.818 1171.74 238.931 1173.16 234.025C1175.62 225.524 1187.47 217.293 1197.14 219.461C1207.77 221.849 1211.21 232.831 1210.53 241.789C1210.17 246.523 1209.08 251.512 1205.2 254.934C1200.97 258.659 1190.19 257.844 1187.68 261.767C1187.57 261.94 1187.32 261.828 1187.38 261.64Z" fill="#846549"/>
<path d="M1193.63 221.047C1202.79 221.443 1207 227.216 1207.09 235.513C1207.14 240.11 1205.5 244.41 1202.86 248.279C1201.42 250.4 1199.82 252.469 1197.64 253.995C1193.76 256.714 1189.34 256.671 1186.63 261.612C1186.49 261.863 1186.01 261.761 1186.1 261.465C1187.87 255.222 1195.86 254.937 1200.18 250.372C1208.79 241.253 1209.86 222.552 1193.61 221.143C1193.54 221.137 1193.56 221.044 1193.63 221.047Z" fill="#846549"/>
<path d="M1199.66 224.229C1202.8 226.831 1202.67 232.271 1201.98 235.816C1201.92 236.13 1201.43 236.049 1201.46 235.74C1201.77 232.336 1202.33 227.054 1199.53 224.378C1199.43 224.291 1199.56 224.144 1199.66 224.229Z" fill="#846549"/>
<path d="M1200.8 238.919C1200.28 243.183 1197.86 247.01 1194.81 250.206C1194.6 250.43 1194.13 250.19 1194.32 249.915C1196.76 246.309 1199.64 243.167 1200.49 238.874C1200.53 238.687 1200.82 238.733 1200.8 238.919Z" fill="#846549"/>
<path d="M1191.31 225.011C1183.74 232.118 1184.88 241.284 1184.85 250.348C1184.85 250.659 1184.37 250.712 1184.32 250.398C1182.9 241.45 1183.46 231.431 1190.94 224.72C1191.16 224.518 1191.54 224.799 1191.31 225.011Z" fill="#846549"/>
<path d="M1191.68 221.021C1187.62 223.577 1184.97 226.111 1182.38 229.981C1182.16 230.314 1181.62 230.106 1181.78 229.726C1183.41 225.877 1187.39 222.275 1191.6 220.879C1191.7 220.848 1191.77 220.968 1191.68 221.021Z" fill="#846549"/>
<path d="M1180.15 233.406C1179.41 239.556 1178.65 245.903 1181.86 251.538C1183.84 255.021 1186.51 257.789 1187.01 261.825C1187.03 262.039 1186.66 262.131 1186.6 261.913C1185.25 256.801 1180.72 253.174 1179.33 248.064C1178.02 243.234 1179 238.197 1180.01 233.385C1180.03 233.303 1180.16 233.323 1180.15 233.406Z" fill="#846549"/>
<path d="M1195.83 226.541C1196.89 239.218 1189.67 248.998 1186.34 260.919C1186.25 261.224 1185.79 261.156 1185.82 260.843C1186.32 255.298 1187.7 251.662 1190.46 246.827C1194.11 240.457 1195.69 233.721 1195.62 226.561C1195.62 226.437 1195.82 226.414 1195.83 226.541Z" fill="#846549"/>
<path d="M1020.04 152.358C1032.49 136.083 1056.59 133.765 1073.94 144.151C1074.35 144.398 1073.96 145.094 1073.51 144.875C1055.12 135.852 1034.5 137.754 1020.36 152.573C1020.19 152.749 1019.89 152.556 1020.04 152.358Z" fill="#846549"/>
<path d="M1030.28 144.899C1028.42 148.304 1034.51 157.317 1033.6 161.977C1032.8 166.047 1029.96 169.11 1026.67 171.748C1018.9 177.964 1006.72 182.461 997.727 175.969C989.847 170.283 990.28 157.18 995.974 150.129C999.256 146.065 1004.35 144.107 1009.49 142.797C1017.09 140.856 1022.92 143.995 1030.45 143.356C1030.82 143.324 1030.92 143.742 1030.62 143.909C1024.92 147.01 1018.81 143.589 1012.62 144.485C1004.56 145.653 997.222 150.468 994.737 157.768C991.901 166.101 995.743 176.219 1006.11 177.481C1016.92 178.796 1033.69 168.925 1032.06 157.692C1031.3 152.469 1025.73 149.511 1029.99 144.756C1030.1 144.631 1030.37 144.735 1030.28 144.899Z" fill="#846549"/>
<path d="M996.359 171.629C1006.29 183.108 1021.89 172.791 1026.29 161.725C1028.66 155.762 1024.18 148.842 1029.09 143.913C1029.33 143.665 1029.72 143.924 1029.54 144.216C1026.32 149.265 1029.36 157.212 1026.67 163C1024.58 167.511 1021.37 171.525 1016.82 174.173C1009.17 178.627 1001.62 178.5 996.277 171.69C996.237 171.64 996.317 171.58 996.359 171.629Z" fill="#846549"/>
<path d="M1002.52 174.408C1006.56 175.114 1010.99 171.835 1013.99 169.693C1014.27 169.499 1014.56 169.86 1014.32 170.073C1011.45 172.539 1006.56 175.592 1002.47 174.596C1002.36 174.568 1002.4 174.388 1002.52 174.408Z" fill="#846549"/>
<path d="M1016.32 167.245C1019.76 164.273 1021.07 160.346 1023.02 156.537C1023.19 156.212 1023.68 156.388 1023.58 156.73C1022.31 160.817 1020.14 164.747 1016.52 167.472C1016.36 167.593 1016.18 167.372 1016.32 167.245Z" fill="#846549"/>
<path d="M998.16 167.664C1000.23 158.224 1009.06 152.33 1018.06 148.533C1018.32 148.422 1018.58 148.791 1018.32 148.946C1010.01 153.932 1001.04 157.934 998.648 167.707C998.579 167.989 998.097 167.954 998.16 167.664Z" fill="#846549"/>
<path d="M995.021 170.222C994.001 166.21 995.13 161.195 997.767 157.831C997.983 157.555 998.513 157.796 998.346 158.119C996.24 162.181 995.317 165.734 995.195 170.217C995.192 170.314 995.042 170.305 995.021 170.222Z" fill="#846549"/>
<path d="M1000.14 154.496C1003.98 151.105 1008.01 147.659 1013.11 145.999C1018.53 144.231 1024.33 145.741 1029.77 144.026C1030.03 143.946 1030.19 144.27 1029.94 144.382C1025.5 146.38 1021.11 145.421 1016.39 146.136C1010.12 147.088 1005.04 150.98 1000.23 154.597C1000.16 154.651 1000.08 154.553 1000.14 154.496Z" fill="#846549"/>
<path d="M1002.39 170.232C1009.01 166.363 1014.19 161.464 1018.09 155.184C1020.94 150.593 1023.84 147.236 1028.42 143.988C1028.65 143.827 1029 144.11 1028.79 144.321C1019.71 153.377 1014.66 164.295 1002.5 170.397C1002.39 170.449 1002.29 170.292 1002.39 170.232Z" fill="#846549"/>
<path d="M1079.95 176.318C1085.94 173.168 1095.05 169.938 1101.92 172.398C1108.33 174.689 1112.18 182.146 1114.53 187.544C1114.74 188.044 1113.98 188.337 1113.7 187.88C1110.98 183.287 1107.21 176.29 1101.71 173.936C1095.09 171.099 1086.38 174.316 1080.11 176.654C1079.86 176.745 1079.73 176.433 1079.95 176.318Z" fill="#846549"/>
<path d="M1092.58 173.824C1089.07 175.74 1090.68 182.171 1089.93 185.3C1089.47 187.205 1088.63 189.023 1087.36 190.607C1084.44 194.246 1079.89 195.822 1075.29 196.797C1065.52 198.869 1052.99 197.567 1048.53 188.044C1044.76 180.008 1050.94 168.991 1058.77 164.771C1063.72 162.1 1069.47 162.385 1074.87 163.317C1082.61 164.653 1086.52 169.958 1093.54 172.476C1093.81 172.575 1093.8 173.013 1093.47 173.037C1091.24 173.194 1090.57 173.188 1088.51 172.389C1082.31 169.993 1079.4 166.17 1072.01 165.277C1064.55 164.375 1058.24 166.415 1053.52 172.102C1048.32 178.373 1047.19 187.111 1054.3 192.462C1064.17 199.891 1085.36 196.474 1088.58 184.095C1089.62 180.062 1086.85 175.029 1092.49 173.532C1092.69 173.48 1092.73 173.743 1092.58 173.824Z" fill="#846549"/>
<path d="M1049.61 183.993C1052.64 197.562 1069.84 195.814 1079.28 188.723C1084.08 185.117 1084.63 181.532 1087.06 176.834C1088.33 174.374 1089.38 173.377 1092.06 172.407C1092.34 172.306 1092.62 172.676 1092.34 172.847C1086.82 176.226 1086.59 183.743 1081.6 187.975C1077.48 191.466 1072.54 193.987 1066.97 194.619C1057.93 195.649 1050.96 192.522 1049.51 184.009C1049.5 183.946 1049.6 183.932 1049.61 183.993Z" fill="#846549"/>
<path d="M1053.77 189.029C1057.08 191.314 1062.48 190.181 1066.26 189.477C1066.54 189.424 1066.69 189.857 1066.4 189.94C1062.66 191.012 1056.82 191.725 1053.65 189.186C1053.55 189.107 1053.66 188.953 1053.77 189.029Z" fill="#846549"/>
<path d="M1069.46 188.236C1073.97 186.986 1077.04 183.946 1080.6 181.301C1080.86 181.112 1081.26 181.438 1081.03 181.677C1077.94 184.85 1074.1 187.564 1069.55 188.514C1069.37 188.55 1069.29 188.284 1069.46 188.236Z" fill="#846549"/>
<path d="M1053.13 181.138C1059.38 173.438 1070.28 171.791 1080.02 172.058C1080.32 172.066 1080.33 172.508 1080.03 172.541C1070.34 173.618 1060.18 173.57 1053.52 181.404C1053.33 181.635 1052.94 181.374 1053.13 181.138Z" fill="#846549"/>
<path d="M1049.09 182.188C1050.13 178.119 1053.52 174.091 1057.5 172.11C1057.84 171.942 1058.13 172.417 1057.84 172.633C1054 175.467 1051.55 178.206 1049.26 182.224C1049.22 182.297 1049.07 182.286 1049.09 182.188Z" fill="#846549"/>
<path d="M1061.18 170.088C1065.91 168.701 1070.72 167.368 1075.71 167.665C1081.86 168.03 1086.57 172.018 1092.61 172.8C1092.88 172.834 1092.83 173.19 1092.56 173.187C1087.68 173.126 1084.15 170.505 1079.64 169.203C1073.63 167.464 1067.2 168.93 1061.22 170.212C1061.14 170.228 1061.11 170.111 1061.18 170.088Z" fill="#846549"/>
<path d="M1055.66 185.203C1063.39 184.476 1070.69 182.194 1077.06 177.963C1081.63 174.923 1085.9 173.243 1091.43 172.207C1091.72 172.152 1091.85 172.569 1091.57 172.67C1087.63 174.081 1083.51 175.076 1079.92 177.209C1077.76 178.492 1075.85 180.004 1073.59 181.138C1067.96 183.955 1062.02 185.197 1055.69 185.396C1055.56 185.4 1055.52 185.216 1055.66 185.203Z" fill="#846549"/>
<path d="M1133.72 278.606C1150.1 260.654 1174.44 273.284 1189.07 286.228C1189.47 286.582 1188.99 287.242 1188.53 286.9C1172.44 274.832 1151.87 262.945 1134.01 278.857C1133.84 279.001 1133.58 278.766 1133.72 278.606Z" fill="#846549"/>
<path d="M1144.75 272.192C1141.9 276.272 1147.75 284.268 1146.08 289.518C1144.55 294.309 1140.2 297.48 1135.73 299.946C1127.33 304.575 1115.01 306.741 1107.91 299.045C1101.77 292.387 1103.98 279.955 1110.21 273.855C1114.12 270.032 1120.13 268.424 1125.62 267.81C1132.64 267.024 1138.31 270.558 1145.15 270.651C1145.48 270.655 1145.51 271.093 1145.24 271.207C1139.08 273.806 1132.47 269.767 1125.99 270.123C1117.7 270.579 1110.56 274.784 1107.58 282.016C1104.95 288.396 1105.76 295.779 1112.02 299.831C1123.31 307.141 1146.07 297.871 1144.55 284.137C1144.01 279.275 1140.2 275.876 1144.51 271.983C1144.65 271.855 1144.84 272.054 1144.75 272.192Z" fill="#846549"/>
<path d="M1108 295.446C1116.53 307.827 1133.36 299.158 1138.8 288.497C1141.72 282.769 1138.29 275.461 1143.72 271.042C1143.96 270.845 1144.31 271.162 1144.12 271.396C1140.4 276.041 1142.62 283.61 1139.67 288.918C1137.25 293.257 1133.79 296.998 1129.17 299.404C1120.93 303.686 1112.68 303.198 1107.91 295.497C1107.89 295.45 1107.97 295.4 1108 295.446Z" fill="#846549"/>
<path d="M1113.82 298.828C1117.7 299.913 1122.53 297.086 1125.72 295.273C1126 295.113 1126.32 295.457 1126.04 295.652C1122.92 297.825 1117.7 300.408 1113.74 299.01C1113.62 298.965 1113.69 298.792 1113.82 298.828Z" fill="#846549"/>
<path d="M1128.32 293.057C1132.09 290.422 1133.86 286.629 1136.24 283.007C1136.42 282.737 1136.88 282.979 1136.76 283.264C1135.03 287.211 1132.42 290.926 1128.52 293.285C1128.35 293.386 1128.15 293.173 1128.32 293.057Z" fill="#846549"/>
<path d="M1110.26 291.646C1113.39 282.489 1122.86 277.478 1132.18 274.596C1132.5 274.498 1132.69 274.896 1132.39 275.041C1123.58 279.181 1114.2 282.348 1110.72 291.804C1110.62 292.084 1110.17 291.924 1110.26 291.646Z" fill="#846549"/>
<path d="M1106.84 293.927C1106.3 289.849 1107.98 284.96 1110.97 281.875C1111.26 281.579 1111.73 281.893 1111.5 282.236C1108.92 286.129 1107.67 289.408 1107.02 293.922C1107 294.011 1106.85 294.02 1106.84 293.927Z" fill="#846549"/>
<path d="M1113.73 278.766C1117.84 275.825 1122.08 272.915 1127.19 271.683C1132.92 270.297 1138.64 272.488 1144.39 271.245C1144.62 271.195 1144.72 271.538 1144.5 271.616C1140.31 273.048 1136.44 272.06 1132.13 272.019C1125.24 271.954 1119.4 275.497 1113.81 278.868C1113.74 278.913 1113.65 278.819 1113.73 278.766Z" fill="#846549"/>
<path d="M1114.17 294.646C1121.62 291.245 1127.46 286.622 1132.16 280.298C1135.16 276.256 1138.47 273.665 1143 271.096C1143.28 270.935 1143.58 271.262 1143.32 271.476C1133.32 279.574 1126.98 289.967 1114.25 294.824C1114.13 294.872 1114.05 294.702 1114.17 294.646Z" fill="#846549"/>
<path d="M972.09 118.259C981.012 127.763 992.397 133.11 1006.13 132.828C1006.65 132.817 1006.64 133.579 1006.15 133.648C992.526 135.559 979.169 128.937 971.777 118.489C971.639 118.294 971.921 118.078 972.09 118.259Z" fill="#846549"/>
<path d="M981.398 126.206C977.822 121.976 981.816 119.762 983.424 115.258C988.109 102.139 966.86 89.1007 954.427 94.2643C946.987 97.3547 945.066 105.525 946.398 112.273C947.934 120.053 954.935 124.239 962.721 125.899C969.17 127.274 976.205 123.755 982.032 127.081C982.303 127.235 982.107 127.636 981.81 127.607C974.968 126.946 968.992 129.822 962.097 128.28C956.81 127.097 951.108 124.877 947.814 120.735C942.174 113.643 942.267 100.304 950.429 94.641C959.686 88.2192 971.684 92.8592 979.182 99.1439C982.36 101.808 985.087 104.912 985.727 108.967C986.563 114.267 979.559 121.794 981.681 126.048C981.759 126.206 981.512 126.342 981.398 126.206Z" fill="#846549"/>
<path d="M948.838 98.8729C954.817 91.7098 963.018 92.1687 970.541 97.3603C974.717 100.243 977.569 104.334 979.271 108.877C981.474 114.756 977.757 121.378 980.941 126.777C981.098 127.044 980.66 127.255 980.461 127.045C975.778 122.072 980.56 115.256 978.432 109.219C974.552 98.209 959.512 87.3871 948.922 98.9299C948.879 98.9776 948.796 98.9232 948.838 98.8729Z" fill="#846549"/>
<path d="M955.175 96.0343C959.333 95.1205 964.001 98.2224 966.793 100.692C967.028 100.9 966.747 101.289 966.48 101.087C963.545 98.8661 959.307 95.6022 955.205 96.2267C955.07 96.2472 955.044 96.0631 955.175 96.0343Z" fill="#846549"/>
<path d="M968.888 103.323C972.42 106.078 974.414 110.095 975.503 114.201C975.585 114.509 975.064 114.637 974.934 114.357C973.147 110.515 972.01 106.536 968.669 103.533C968.543 103.419 968.753 103.218 968.888 103.323Z" fill="#846549"/>
<path d="M951.038 102.863C952.918 112.548 961.875 116.821 969.891 121.862C970.13 122.012 969.909 122.407 969.639 122.287C960.847 118.398 952.149 112.393 950.552 102.936C950.504 102.646 950.982 102.577 951.038 102.863Z" fill="#846549"/>
<path d="M947.695 100.345C947.653 102.463 947.572 104.517 948.047 106.601C948.52 108.684 949.398 110.515 950.317 112.442C950.465 112.752 949.965 113.053 949.748 112.76C947.244 109.377 946.318 104.305 947.526 100.309C947.555 100.214 947.697 100.26 947.695 100.345Z" fill="#846549"/>
<path d="M952.053 116.004C957.234 120.085 962.444 124.119 969.519 124.849C973.715 125.282 977.437 124.786 981.306 126.566C981.542 126.675 981.414 127.015 981.154 126.931C975.766 125.196 969.954 126.555 964.603 124.743C959.553 123.032 955.674 119.546 951.956 116.097C951.901 116.046 951.993 115.957 952.053 116.004Z" fill="#846549"/>
<path d="M955.021 100.247C966.874 106.468 971.532 117.487 980.164 126.608C980.357 126.811 980.03 127.129 979.8 126.957C976.105 124.203 973.332 121.409 970.96 117.597C966.509 110.443 962.526 105.076 954.896 100.405C954.781 100.335 954.906 100.187 955.021 100.247Z" fill="#846549"/>
<path d="M1047.22 116.708C1052.1 126.734 1060.29 134.159 1069.34 141.008C1069.79 141.346 1069.3 141.949 1068.81 141.679C1059.01 136.261 1049.94 127.132 1046.84 116.812C1046.78 116.607 1047.13 116.525 1047.22 116.708Z" fill="#846549"/>
<path d="M1053.59 126.865C1051.3 123.113 1054.76 121.233 1057.25 118.472C1062.96 112.147 1061.96 105.344 1057.14 98.9975C1053.28 93.9226 1047.42 88.9736 1040.23 88.8448C1030.36 88.6677 1024.5 98.0419 1024.62 106.267C1024.71 112.415 1028.24 116.827 1033.6 120.212C1038.2 123.117 1042.74 123.513 1047.87 124.643C1050.66 125.257 1052.09 125.944 1053.91 127.865C1054.11 128.078 1053.83 128.431 1053.54 128.32C1047.75 126.041 1041.3 127.034 1035.66 124.22C1031.06 121.925 1025.89 118.269 1023.74 113.697C1019.95 105.616 1023.77 92.5091 1032.87 88.5742C1043.34 84.0459 1053.81 91.3934 1059.22 99.1434C1061.8 102.836 1063.88 106.914 1063.15 111.441C1062.39 116.114 1052.87 123.087 1053.9 126.778C1053.95 126.959 1053.67 127.003 1053.59 126.865Z" fill="#846549"/>
<path d="M1031.18 91.8204C1038.78 86.7214 1046.16 89.0014 1051.76 95.5107C1055.01 99.2891 1056.5 103.766 1056.92 108.563C1057.49 115.142 1051.63 121.183 1052.97 127.273C1053.03 127.566 1052.56 127.684 1052.43 127.42C1051.45 125.366 1051.23 124.312 1051.93 122.074C1053.6 116.77 1056.56 113.685 1055.96 107.631C1054.84 96.469 1043.9 84.1998 1031.25 91.8966C1031.19 91.9306 1031.13 91.8584 1031.18 91.8204Z" fill="#846549"/>
<path d="M1038.11 90.8036C1042.41 91.1018 1045.83 95.2714 1047.75 98.4619C1047.89 98.6994 1047.46 98.9415 1047.3 98.7128C1045.17 95.7478 1042.2 91.5558 1038.09 90.9975C1037.96 90.9791 1037.98 90.794 1038.11 90.8036Z" fill="#846549"/>
<path d="M1048.88 101.502C1051.39 105.08 1052.01 109.506 1051.75 113.727C1051.74 114.039 1051.2 114.055 1051.16 113.744C1050.68 109.579 1050.86 105.424 1048.61 101.652C1048.52 101.51 1048.78 101.363 1048.88 101.502Z" fill="#846549"/>
<path d="M1032.02 96.2375C1030.7 106.088 1037.93 112.567 1043.99 119.576C1044.16 119.781 1043.85 120.116 1043.62 119.926C1036.51 113.852 1030.03 105.681 1031.54 96.1941C1031.58 95.9048 1032.06 95.9459 1032.02 96.2375Z" fill="#846549"/>
<path d="M1029.63 92.9226C1028.93 94.9437 1028.2 96.8873 1028 99.0152C1027.79 101.136 1028.05 103.146 1028.31 105.24C1028.36 105.57 1027.79 105.76 1027.68 105.413C1026.37 101.481 1027.07 96.367 1029.48 92.8471C1029.54 92.7657 1029.66 92.8392 1029.63 92.9226Z" fill="#846549"/>
<path d="M1028.85 109.14C1032.16 113.973 1035.52 118.915 1041.17 121.616C1045.37 123.627 1049.83 124.12 1053.38 127.177C1053.57 127.342 1053.35 127.642 1053.13 127.492C1048.23 124.236 1041.9 123.976 1037.24 120.348C1033.42 117.373 1031.02 113.233 1028.73 109.206C1028.69 109.142 1028.8 109.077 1028.85 109.14Z" fill="#846549"/>
<path d="M1036.64 94.8068C1040.97 99.0087 1044.23 103.723 1046.05 109.327C1046.7 111.311 1046.96 113.325 1047.38 115.352C1048.25 119.589 1050.41 123.027 1052.28 126.904C1052.4 127.148 1052 127.387 1051.83 127.155C1048.72 122.888 1046.92 118.945 1046.07 113.84C1044.9 106.753 1041.38 100.391 1036.47 94.9289C1036.39 94.8318 1036.55 94.718 1036.64 94.8068Z" fill="#846549"/>
<path d="M1109.62 152.516C1107.59 163.441 1109.71 173.844 1113.03 184.285C1113.19 184.782 1112.46 185.116 1112.21 184.621C1107.52 175.21 1105.38 162.44 1109.24 152.434C1109.32 152.24 1109.66 152.307 1109.62 152.516Z" fill="#846549"/>
<path d="M1108.68 164.331C1109.11 159.77 1113.12 160.389 1116.99 159.283C1131.68 155.086 1132.29 133.547 1120.82 125.655C1113.6 120.687 1104.08 124.028 1098.84 130.146C1094.6 135.107 1093.77 140.49 1095.64 146.348C1097.54 152.278 1101.01 154.881 1105.19 159.342C1107.08 161.365 1108 162.571 1108.34 165.298C1108.37 165.563 1107.96 165.786 1107.78 165.527C1104.42 160.623 1098.55 158.144 1095.61 152.881C1093.19 148.535 1091.2 142.751 1092.21 137.787C1093.95 129.143 1105.06 120.175 1114.83 121.568C1125.82 123.136 1130.14 134.025 1130.15 143.073C1130.15 147.768 1129.48 152.701 1125.92 156.352C1122.38 159.973 1110.38 160.821 1109 164.399C1108.94 164.566 1108.67 164.502 1108.68 164.331Z" fill="#846549"/>
<path d="M1111.56 123.417C1121.29 123.146 1126.07 129.515 1126.28 138.251C1126.37 142.375 1125.12 146.25 1123.04 149.886C1121.96 151.77 1120.75 153.733 1119.12 155.266C1115.43 158.733 1110.32 159.015 1107.94 164.32C1107.82 164.583 1107.34 164.505 1107.4 164.205C1108.7 157.599 1117.34 156.596 1121.18 151.272C1128.23 141.469 1127.51 123.756 1111.55 123.514C1111.48 123.513 1111.49 123.419 1111.56 123.417Z" fill="#846549"/>
<path d="M1117.85 126.158C1121.16 128.547 1121.54 133.934 1121.12 137.538C1121.08 137.857 1120.59 137.798 1120.59 137.492C1120.62 134.021 1120.73 128.822 1117.72 126.316C1117.62 126.234 1117.74 126.08 1117.85 126.158Z" fill="#846549"/>
<path d="M1120.2 140.711C1120.06 144.985 1117.93 148.991 1115.16 152.377C1114.97 152.617 1114.48 152.406 1114.64 152.12C1116.78 148.368 1119.41 145.019 1119.89 140.683C1119.91 140.493 1120.21 140.526 1120.2 140.711Z" fill="#846549"/>
<path d="M1109.57 127.531C1102.51 135.16 1104.5 144.185 1105.23 153.23C1105.25 153.543 1104.78 153.613 1104.71 153.308C1102.55 144.541 1102.24 134.428 1109.18 127.265C1109.39 127.049 1109.78 127.305 1109.57 127.531Z" fill="#846549"/>
<path d="M1109.61 123.531C1105.8 126.364 1103.34 129.105 1101.07 133.117C1100.88 133.467 1100.32 133.29 1100.45 132.902C1101.78 128.949 1105.44 125.095 1109.53 123.393C1109.62 123.355 1109.69 123.473 1109.61 123.531Z" fill="#846549"/>
<path d="M1099.13 136.685C1098.9 142.879 1098.65 149.315 1102.36 154.715C1104.64 158.047 1107.47 160.517 1108.34 164.507C1108.38 164.72 1108.01 164.828 1107.93 164.617C1106.11 159.618 1101.27 156.312 1099.51 151.284C1097.86 146.551 1098.38 141.546 1098.99 136.673C1099 136.589 1099.14 136.603 1099.13 136.685Z" fill="#846549"/>
<path d="M1114.22 128.735C1115.14 134.117 1115.07 139.291 1113.48 144.608C1112.68 147.301 1111.28 149.627 1110.2 152.211C1108.66 155.885 1108.34 159.806 1107.59 163.653C1107.53 163.966 1107.07 163.917 1107.07 163.606C1107.11 158.354 1108.01 154.336 1110.4 149.572C1113.7 142.994 1114.7 135.913 1114.01 128.766C1114 128.642 1114.2 128.61 1114.22 128.735Z" fill="#846549"/>
</g>
<path d="M54 314.013C54 314.013 568.062 315 606.072 315C658.916 315 644.082 277 644.082 277" stroke="#846549" stroke-width="2" stroke-linecap="round"/>
<path d="M1238 314.013C1238 314.013 723.938 315 685.928 315C633.084 315 647.918 277 647.918 277" stroke="#846549" stroke-width="2" stroke-linecap="round"/>
<defs>
<clipPath id="clip0_6337_11149">
<rect width="345.209" height="361.162" fill="white" transform="matrix(0.341273 -0.939964 -0.939964 -0.341273 339.479 447.953)"/>
</clipPath>
<clipPath id="clip1_6337_11149">
<rect width="345.209" height="361.162" fill="white" transform="translate(952.1 447.953) rotate(-109.954)"/>
</clipPath>
</defs>
</svg>
