<svg width="93" height="158" viewBox="0 0 93 158" fill="none" xmlns="http://www.w3.org/2000/svg">
<path d="M6.89906 157.478C15.6574 147.633 25.0045 138.389 32.8826 127.782C39.7233 118.571 45.4336 108.588 50.2463 98.1801C59.8523 77.4066 64.7016 55.2562 68.2379 32.7567C68.3627 31.9632 69.6484 31.9365 69.6863 32.7863C71.8702 81.6879 42.3083 126.409 7.17772 157.761C7.00908 157.912 6.74847 157.647 6.89906 157.478Z" fill="#9D7C6B"/>
<path d="M68.6282 33.2872C72.9376 29.0323 74.0327 23.6738 73.8714 17.8203C73.767 14.0398 72.9375 10.5641 70.7584 7.43886C69.4408 5.54903 66.8461 1.51579 64.9933 3.19198C61.6888 6.1819 61.6205 15.344 62.2621 19.1732C63.142 24.4239 65.5831 29.24 69.0772 33.2142C69.3497 33.5241 68.8959 33.9014 68.5886 33.695C57.8262 26.4659 59.5751 10.2182 64.8792 0.429434C65.0681 0.0811143 65.5958 -0.181362 65.9418 0.157656C71.5155 5.61967 75.1784 10.412 75.3284 18.4624C75.4372 24.2934 74.2996 30.4074 68.9341 33.598C68.7413 33.7129 68.4352 33.4778 68.6282 33.2872Z" fill="#9D7C6B"/>
<path d="M66.8116 7.61763C69.1027 20.4138 70.6465 33.4536 68.8673 46.4404C68.823 46.7639 68.2994 46.7682 68.2832 46.4284C67.6633 33.44 67.8747 20.6086 66.6945 7.63044C66.6875 7.55449 66.7983 7.54345 66.8116 7.61763Z" fill="#9D7C6B"/>
<path d="M70.1709 11.9022C72.0219 18.365 72.3506 25.7771 70.0992 32.1889C70.0361 32.3685 69.7581 32.2809 69.7847 32.099C70.7931 25.1879 71.2737 18.8582 70.1256 11.9135C70.1213 11.8879 70.1634 11.8765 70.1709 11.9022Z" fill="#9D7C6B"/>
<path d="M64.54 16.2461C65.2914 21.6863 66.3427 26.8814 68.2676 32.0402C68.3913 32.3716 67.9618 32.5978 67.7387 32.3382C65.9347 30.2373 65.4122 27.6106 65.0185 24.929C64.5983 22.0669 64.1582 19.1328 64.4932 16.2452C64.4965 16.2179 64.5365 16.2199 64.54 16.2461Z" fill="#9D7C6B"/>
<path d="M57.1193 58.3987C59.8023 52.9096 59.0825 47.5326 56.9402 42.0399C55.7567 39.0055 54.2256 36.237 51.6816 34.1402C50.3125 33.0117 46.9822 30.3066 45.108 30.2475C41.1428 30.1225 44.8034 43.8339 45.8237 45.995C48.2676 51.1713 52.5161 55.385 57.458 58.1685C57.768 58.3429 57.6825 58.9353 57.2694 58.8273C44.6607 55.5323 40.9774 39.6302 42.7388 28.5792C42.8072 28.1509 43.2893 27.8551 43.6978 28.0469C50.0743 31.0406 55.1467 34.0238 57.9773 40.767C60.4069 46.5545 61.8549 53.4311 57.4946 58.6212C57.3395 58.8057 57.0056 58.6312 57.1193 58.3987Z" fill="#9D7C6B"/>
<path d="M46.9233 34.7716C53.3182 46.1206 59.0662 57.8968 61.6826 70.7744C61.7501 71.1062 61.2377 71.2159 61.1163 70.9154C56.2458 58.8648 52.2162 46.6855 46.8214 34.8289C46.7947 34.7697 46.8905 34.7133 46.9233 34.7716Z" fill="#9D7C6B"/>
<path d="M51.5157 37.7218C55.4076 43.2521 58.0876 50.0425 58.1401 56.8652C58.1417 57.0758 57.8521 57.1127 57.8121 56.9013C56.5182 50.0503 54.8196 43.8932 51.4752 37.7448C51.4625 37.7214 51.5008 37.7004 51.5157 37.7218Z" fill="#9D7C6B"/>
<path d="M47.6335 43.6795C50.1223 48.5901 52.86 53.1443 56.3759 57.3738C56.5621 57.598 56.2788 57.9958 56.0102 57.84C51.6163 55.2892 48.7067 48.398 47.5881 43.6907C47.5815 43.6632 47.6222 43.6576 47.6335 43.6795Z" fill="#9D7C6B"/>
<path d="M35.9941 108.908C40.0259 104.314 40.7425 98.9365 40.1174 93.072C39.7485 89.6105 38.8245 86.3794 36.7375 83.5538C35.9122 82.4365 32.3972 77.9821 30.9427 78.3173C29.4499 78.6614 28.6418 84.2538 28.4265 85.4222C27.9079 88.2375 27.8506 91.1522 28.3534 93.9739C29.3576 99.6088 32.3411 104.787 36.3801 108.771C36.6314 109.019 36.4023 109.574 36.0306 109.36C24.7269 102.866 25.3086 86.5831 29.947 76.363C30.1243 75.9719 30.662 75.7959 31.0093 76.0913C36.6469 80.8845 40.712 85.2997 41.5421 92.9154C42.1982 98.9358 41.6521 105.507 36.3 109.219C36.1035 109.355 35.823 109.103 35.9941 108.908Z" fill="#9D7C6B"/>
<path d="M32.3604 83.4313C35.5507 96.0602 38.0059 108.932 37.1486 122.044C37.1265 122.383 36.6032 122.356 36.5646 122.032C35.0291 109.126 34.3392 96.3161 32.2471 83.4593C32.2368 83.3951 32.344 83.3662 32.3604 83.4313Z" fill="#9D7C6B"/>
<path d="M36.0175 87.483C38.3176 93.7888 39.1708 101.149 37.3828 107.693C37.3277 107.895 37.0406 107.859 37.0567 107.644C37.58 100.646 37.6127 94.3531 35.9721 87.4941C35.966 87.4681 36.0086 87.4583 36.0175 87.483Z" fill="#9D7C6B"/>
<path d="M30.7069 92.2137C31.8415 97.6089 33.2584 102.705 35.5472 107.724C35.667 107.986 35.2909 108.298 35.0741 108.079C31.5366 104.495 30.4456 97.0553 30.6602 92.2128C30.6615 92.1842 30.7019 92.1895 30.7069 92.2137Z" fill="#9D7C6B"/>
<path d="M64.4408 86.906C63.34 80.4818 67.6557 75.4907 72.4133 71.7398C78.4493 66.9811 84.4272 66.8144 91.7998 67.4795C92.2618 67.5212 92.4837 68.0461 92.3323 68.4384C88.3122 78.8467 77.1105 90.725 64.6076 87.2238C64.2719 87.1298 64.1913 86.5316 64.6216 86.5386C69.5004 86.6178 74.2797 85.5526 78.6106 83.2565C81.4829 81.7336 83.8872 79.6989 85.9428 77.1684C86.9426 75.9375 91.0133 71.0683 90.4616 69.4444C89.9392 67.9066 85.2053 68.3956 83.9758 68.4845C80.3742 68.7447 77.4938 69.8589 74.5445 71.915C69.3488 75.537 65.3598 80.4063 64.8767 86.9152C64.8576 87.1748 64.4809 87.1403 64.4408 86.906Z" fill="#9D7C6B"/>
<path d="M85.6611 71.7553C75.0202 79.2708 65.3945 87.7534 55.1077 95.7002C54.8492 95.8999 54.4715 95.5375 54.698 95.2839C63.4411 85.4982 74.3544 78.2247 85.59 71.6614C85.6537 71.6242 85.7246 71.7106 85.6611 71.7553Z" fill="#9D7C6B"/>
<path d="M80.1726 71.9255C74.1396 75.5545 69.6499 80.0067 65.0331 85.2699C64.9173 85.4018 64.6521 85.2736 64.7516 85.1029C68.1782 79.2272 74.0215 74.6694 80.1497 71.8847C80.1734 71.8739 80.1956 71.9117 80.1726 71.9255Z" fill="#9D7C6B"/>
<path d="M80.5279 79.0204C77.2528 82.5356 71.1928 87.0019 66.1882 86.9863C65.8673 86.9854 65.6904 86.525 66.0414 86.3973C71.2216 84.5155 75.8516 81.9551 80.4951 78.9871C80.516 78.9737 80.5474 78.9996 80.5279 79.0204Z" fill="#9D7C6B"/>
<path d="M27.2711 146.261C28.8351 140.186 34.378 137.362 40.0629 135.825C47.7951 133.735 53.3248 135.838 60.0895 139.632C60.4282 139.822 60.7102 140.351 60.3613 140.695C52.4133 148.537 37.3088 154.935 27.2756 146.567C26.9824 146.322 27.2584 145.806 27.6252 145.977C32.2123 148.117 37.2534 149.122 42.3202 148.63C45.0548 148.364 60.1941 143.234 57.6474 139.851C56.8077 138.736 53.8033 137.844 52.513 137.367C49.4877 136.248 46.4964 136.007 43.3236 136.521C36.9171 137.559 30.8619 140.509 27.6905 146.381C27.5814 146.583 27.2042 146.521 27.2711 146.261Z" fill="#9D7C6B"/>
<path d="M52.8318 141.08C40.0426 143.587 27.771 147.386 15.1312 150.443C14.7965 150.524 14.7012 150.006 14.9901 149.876C26.9588 144.525 39.8941 142.353 52.8188 140.963C52.8951 140.955 52.9053 141.066 52.8318 141.08Z" fill="#9D7C6B"/>
<path d="M47.7582 138.988C40.7808 139.85 34.7922 142.054 28.4723 144.982C28.3036 145.06 28.1602 144.804 28.3118 144.697C33.8977 140.765 40.9839 138.994 47.7531 138.941C47.7829 138.941 47.789 138.985 47.7582 138.988Z" fill="#9D7C6B"/>
<path d="M45.1831 145.609C42.3826 146.793 39.297 147.191 36.3013 147.597C33.7558 147.943 31.1913 148.107 28.8147 147.004C28.49 146.853 28.6392 146.394 28.9819 146.42C34.4685 146.829 39.7402 146.369 45.172 145.564C45.1987 145.56 45.2074 145.599 45.1831 145.609Z" fill="#9D7C6B"/>
<path d="M80.0791 47.6609C77.0289 49.5524 74.6195 51.8049 72.0873 54.3285C67.2556 59.1438 65.0621 63.4824 63.8747 70.1373C63.8224 70.4307 63.3288 70.5468 63.2421 70.2099C60.8564 60.9535 72.95 51.4333 79.9464 47.4855C80.0664 47.4178 80.2012 47.5851 80.0791 47.6609Z" fill="#9D7C6B"/>
<path d="M80.3698 40.9478C79.8097 36.5186 87.352 36.6662 89.773 38.2236C93.4733 40.6042 94.0629 46.1581 91.1717 49.3971C88.1389 52.7951 81.6969 52.6849 79.2525 48.6068C76.5568 44.1094 81.8313 38.3679 86.5844 40.0457C88.9356 40.8756 90.5129 43.4664 89.8241 45.9362C89.2417 48.0236 86.6013 49.6779 84.6838 48.124C84.384 47.8811 84.4133 47.4433 84.7597 47.2585C86.1547 46.5133 88.0687 44.6243 86.1507 43.1691C84.4128 41.8505 82.1431 43.5112 81.6441 45.2601C80.5209 49.1961 85.7773 50.3254 88.4121 48.9858C91.2453 47.5451 91.9325 43.7471 90.3207 41.1413C88.5532 38.2836 82.0936 37.0481 80.5208 40.96C80.4933 41.0281 80.38 41.0289 80.3698 40.9478Z" fill="#9D7C6B"/>
<path d="M11.6139 119.867C14.4577 124.686 16.4509 130.401 17.2964 135.936C17.9379 140.133 18.4707 147.018 15.3598 150.353C15.0951 150.636 14.6924 150.378 14.7971 150.019C17.7562 139.871 16.4552 129.298 11.4241 119.974C11.3658 119.866 11.551 119.76 11.6139 119.867Z" fill="#9D7C6B"/>
<path d="M14.5118 114.006C17.1995 110.441 10.5817 106.82 7.70678 106.968C3.31275 107.194 0.0401573 111.72 0.938452 115.968C1.88083 120.424 7.52541 123.531 11.6737 121.207C16.2484 118.645 14.5259 111.041 9.56782 110.134C7.11501 109.686 4.45865 111.149 3.82857 113.635C3.29605 115.736 4.76482 118.484 7.20096 118.089C7.58187 118.027 7.77396 117.632 7.56546 117.3C6.7255 115.96 6.00393 113.369 8.3913 113.06C10.5548 112.78 11.6987 115.349 11.2624 117.115C10.2801 121.088 5.15797 119.455 3.53776 116.983C1.79544 114.324 3.08722 110.687 5.78125 109.228C8.73553 107.627 14.9546 109.766 14.3746 113.942C14.3644 114.015 14.4625 114.072 14.5118 114.006Z" fill="#9D7C6B"/>
<path d="M57.6425 113.173C49.9466 114.514 41.2733 118.683 36.5527 125.055C36.3933 125.27 36.0055 125.116 36.0638 124.844C36.8177 121.328 41.3276 119.128 44.2181 117.506C48.2757 115.229 53.0071 113.604 57.6226 112.99C57.7401 112.975 57.7582 113.152 57.6425 113.173Z" fill="#9D7C6B"/>
<path d="M59.9782 108.066C60.9302 104.466 66.7161 106.938 68.1014 108.9C70.2184 111.897 68.938 116.376 65.6897 117.977C62.2822 119.656 57.335 117.557 56.7199 113.639C56.0413 109.319 61.9152 106.528 65.0661 109.312C66.6247 110.689 67.0344 113.185 65.7295 114.879C64.6266 116.311 62.0676 116.765 61.0707 114.964C60.9148 114.683 61.0743 114.353 61.3998 114.319C62.7117 114.178 64.7823 113.316 63.7541 111.591C62.8227 110.028 60.5482 110.603 59.6155 111.799C57.5165 114.492 61.228 117.008 63.6843 116.796C66.3257 116.568 68.0444 113.846 67.6126 111.327C67.1393 108.565 62.5305 105.59 60.0912 108.123C60.0487 108.167 59.9609 108.132 59.9782 108.066Z" fill="#9D7C6B"/>
<path d="M48.7316 78.511C51.6721 83.4024 55.5747 92.932 51.125 97.9146C50.9523 98.1079 50.6417 97.9319 50.7345 97.6832C53.1367 91.2465 51.8577 84.5495 48.5999 78.5852C48.5592 78.5105 48.6874 78.4375 48.7316 78.511Z" fill="#9D7C6B"/>
<path d="M50.7145 74.4313C52.5625 71.9459 47.9549 69.4643 45.961 69.5801C42.9138 69.7571 40.6642 72.9121 41.3071 75.8549C41.9815 78.9417 45.9116 81.071 48.7787 79.4402C51.9407 77.6416 50.7107 72.3743 47.2667 71.7678C45.563 71.4679 43.7269 72.4957 43.3013 74.223C42.9417 75.6828 43.9732 77.5824 45.6614 77.2971C45.9255 77.2524 46.0568 76.978 45.9107 76.7482C45.3218 75.8223 44.8092 74.0285 46.464 73.8031C47.9636 73.5986 48.769 75.3758 48.4745 76.6027C47.8115 79.3637 44.2504 78.2546 43.1148 76.547C41.8941 74.7107 42.7735 72.1814 44.6355 71.1563C46.6777 70.032 51.0021 71.4873 50.6189 74.3872C50.6122 74.4378 50.6806 74.477 50.7145 74.4313Z" fill="#9D7C6B"/>
</svg>
