<svg width="335" height="463" viewBox="0 0 335 463" fill="none" xmlns="http://www.w3.org/2000/svg">
<g clip-path="url(#clip0_2799_11888)">
<path d="M146.76 127.622C173.364 143.477 205.464 144.653 232.056 160.236C256.083 174.315 273.725 199.063 278.984 226.423C285.11 258.293 277.153 290.77 283.598 322.806C291.367 361.419 309.964 392.793 335.384 422.26C336.423 423.465 334.817 424.869 333.643 423.919C308.872 403.868 293.125 372.13 284.348 342.06C279.863 326.695 277 310.683 276.775 294.657C276.549 278.598 278.565 262.596 278.288 246.535C277.67 210.701 259.987 177.725 227.963 160.347C202.194 146.363 170.463 145.78 146.674 127.762C146.591 127.7 146.668 127.567 146.76 127.622Z" fill="#9D7C6B"/>
<path d="M129.2 109.506C136.305 118.072 145.553 125.344 154.659 131.663C155.135 131.994 154.704 132.673 154.194 132.422C144.91 127.853 133.889 118.928 128.883 109.735C128.779 109.545 129.055 109.33 129.2 109.506Z" fill="#9D7C6B"/>
<path d="M138.297 119.97C135.682 116.693 136.659 114.59 138.052 111.117C139.517 107.467 141.829 104.826 141.423 100.581C141.061 96.7986 138.691 93.4169 136.143 90.6641C131.537 85.6872 124.464 81.4696 117.552 81.9691C109.363 82.5606 104.174 88.5598 103.826 96.7012C103.413 106.373 108.948 113.721 118.17 116.759C124.849 118.959 132.693 115.482 138.58 119.589C138.885 119.802 138.669 120.215 138.326 120.156C131.596 118.992 125.461 121.745 118.767 119.668C113.376 117.995 107.82 115.182 104.783 110.273C100.089 102.685 100.563 89.2602 108.061 83.4359C116.643 76.7708 128.031 81.1994 135.264 87.5659C139.125 90.964 142.723 95.0784 143.233 100.409C143.828 106.64 136.125 114.5 138.561 119.778C138.634 119.937 138.419 120.123 138.297 119.97Z" fill="#9D7C6B"/>
<path d="M107.181 87.2717C113.141 80.3641 120.651 80.8377 127.794 86.1709C131.752 89.1252 134.422 93.2104 136.107 97.7942C137.032 100.311 137.812 102.903 137.786 105.604C137.739 110.422 134.965 113.825 137.532 119.185C137.66 119.453 137.287 119.77 137.084 119.509C132.804 114.008 137.609 107.671 136.248 101.271C133.565 88.6564 118.515 75.4659 107.253 87.3474C107.206 87.397 107.137 87.3218 107.181 87.2717Z" fill="#9D7C6B"/>
<path d="M113.6 84.6265C117.751 83.8662 122.31 87.5101 124.916 90.3679C125.145 90.6192 124.784 90.9534 124.537 90.7288C121.824 88.2623 117.65 84.385 113.646 84.8305C113.516 84.8451 113.465 84.6513 113.6 84.6265Z" fill="#9D7C6B"/>
<path d="M126.846 93.313C130.169 96.497 131.951 100.885 132.813 105.349C132.887 105.734 132.364 105.829 132.235 105.48C130.668 101.249 129.741 96.9713 126.618 93.5294C126.482 93.3794 126.7 93.1735 126.846 93.313Z" fill="#9D7C6B"/>
<path d="M109.143 91.665C110.568 102.218 119.091 107.306 126.817 113.236C127.08 113.438 126.844 113.849 126.544 113.682C118.025 108.966 109.813 101.993 108.667 91.7737C108.633 91.4669 109.101 91.3505 109.143 91.665Z" fill="#9D7C6B"/>
<path d="M105.966 88.7745C105.659 93.6129 106.191 97.3428 107.908 101.888C108.055 102.277 107.551 102.577 107.324 102.202C105.038 98.413 104.405 92.9505 105.796 88.7461C105.826 88.6543 105.972 88.6727 105.966 88.7745Z" fill="#9D7C6B"/>
<path d="M109.466 105.866C114.274 110.47 119.204 115.163 125.994 116.353C130.185 117.087 134.18 116.783 137.946 119.03C138.144 119.148 137.998 119.505 137.776 119.408C132.585 117.134 126.701 118.31 121.49 116.065C116.558 113.94 112.857 109.891 109.365 105.962C109.306 105.895 109.402 105.804 109.466 105.866Z" fill="#9D7C6B"/>
<path d="M113.226 89.1277C124.701 96.5675 128.623 108.584 136.762 118.96C136.969 119.224 136.636 119.549 136.384 119.321C131.954 115.317 129.694 111.871 127.262 106.557C124.057 99.5524 119.277 93.9213 113.117 89.3061C113.011 89.2267 113.111 89.0531 113.226 89.1277Z" fill="#9D7C6B"/>
<path d="M155.148 157.432C167.911 143.732 186.592 142.894 203.491 149.032C204.028 149.227 203.791 150.026 203.234 149.883C185.739 145.418 169.642 145.259 155.421 157.718C155.229 157.887 154.976 157.618 155.148 157.432Z" fill="#9D7C6B"/>
<path d="M166.134 150.769C163.428 154.876 168.704 163.201 167.572 168.321C166.605 172.699 163.862 175.706 160.297 178.276C151.825 184.384 138.645 188.247 130.242 179.816C123.422 172.972 125.112 159.581 131.029 152.658C134.93 148.094 141.276 146.313 147.05 145.715C154.176 144.976 159.578 148.888 166.513 149.133C166.808 149.143 166.944 149.593 166.65 149.721C160.87 152.232 156.051 148.162 150.095 148.009C142.333 147.81 133.726 151.232 130.199 158.317C126.592 165.56 126.429 175.98 134.108 180.76C145.108 187.608 164.776 178.417 165.925 165.733C166.45 159.933 161.046 155.154 165.88 150.564C166.013 150.438 166.238 150.611 166.134 150.769Z" fill="#9D7C6B"/>
<path d="M129.455 175.049C137.894 188.606 154.585 179.32 160.185 168.196C163.272 162.062 159.622 154.223 165.095 149.545C165.321 149.351 165.726 149.627 165.525 149.893C161.625 155.032 164.218 161.939 161.466 167.65C159.051 172.661 155.407 177.027 150.482 179.697C142.238 184.168 134.077 183.527 129.364 175.098C129.33 175.039 129.42 174.992 129.455 175.049Z" fill="#9D7C6B"/>
<path d="M135.199 178.787C139.137 180.017 143.83 177.14 147.09 175.182C147.385 175.004 147.603 175.453 147.337 175.643C144.181 177.883 139.089 180.534 135.138 178.987C135.014 178.939 135.068 178.746 135.199 178.787Z" fill="#9D7C6B"/>
<path d="M149.68 172.862C153.451 170.138 155.202 166.078 157.581 162.257C157.753 161.981 158.25 162.177 158.117 162.497C156.374 166.708 153.756 170.699 149.828 173.138C149.652 173.247 149.521 172.976 149.68 172.862Z" fill="#9D7C6B"/>
<path d="M131.714 171.021C134.829 161.205 144.377 156.019 153.664 153.103C153.946 153.014 154.109 153.46 153.846 153.588C145.097 157.853 135.636 161.077 132.182 171.162C132.08 171.458 131.619 171.322 131.714 171.021Z" fill="#9D7C6B"/>
<path d="M128.307 173.393C127.771 168.985 129.51 163.724 132.527 160.478C132.784 160.201 133.237 160.577 133.038 160.891C131.819 162.809 130.655 164.634 129.848 166.78C129.039 168.932 128.784 171.113 128.479 173.376C128.467 173.466 128.32 173.499 128.307 173.393Z" fill="#9D7C6B"/>
<path d="M135.247 157.237C139.471 154.088 143.857 150.92 149.106 149.801C154.671 148.615 160.169 150.86 165.757 149.76C166.026 149.707 166.103 150.085 165.85 150.168C161.752 151.525 158.17 150.485 153.969 150.366C146.884 150.165 141.097 153.729 135.328 157.349C135.262 157.39 135.184 157.285 135.247 157.237Z" fill="#9D7C6B"/>
<path d="M135.576 174.307C143.037 170.784 148.696 165.93 153.531 159.284C156.611 155.05 159.904 152.216 164.429 149.547C164.68 149.399 164.96 149.774 164.733 149.966C154.68 158.503 148.431 169.492 135.675 174.492C135.553 174.539 135.452 174.366 135.576 174.307Z" fill="#9D7C6B"/>
<path d="M251.652 285.427C265.171 287.295 274.42 296.082 279.9 308.221C280.136 308.743 279.422 309.127 279.117 308.641C271.895 297.109 264.882 289.777 251.588 285.813C251.38 285.751 251.424 285.395 251.652 285.427Z" fill="#9D7C6B"/>
<path d="M263.235 291.052C259.256 290.54 256.33 296.976 253.623 299.255C252.018 300.605 250.171 301.63 248.138 302.199C243.091 303.609 238.058 301.817 233.568 299.537C224.834 295.104 216.194 285.724 219.731 275.13C222.611 266.505 234.399 261.315 242.97 262.623C248.434 263.457 252.709 267.235 256.233 271.255C261.392 277.141 260.974 284.028 264.833 290.496C264.991 290.761 264.649 291.081 264.394 290.911C262.087 289.374 261.198 288.064 260.137 285.396C258.036 280.114 256.884 275.311 252.631 271.089C247.677 266.168 242.564 263.833 235.583 265.153C228.443 266.504 220.898 271.614 220.675 279.539C220.347 291.134 236.433 303.885 247.776 300.605C254.213 298.743 254.093 293.355 258.945 290.874C260.696 289.978 261.496 290.003 263.289 290.73C263.448 290.794 263.435 291.078 263.235 291.052Z" fill="#9D7C6B"/>
<path d="M222.959 273.392C216.564 286.501 230.411 295.58 242.226 295.634C246.484 295.653 249.741 294.835 253.344 292.725C254.853 291.841 256.103 290.598 257.691 289.84C259.859 288.804 261.471 288.652 263.726 289.519C264.003 289.625 263.97 290.098 263.635 290.064C257.209 289.414 252.039 295.824 245.37 296.404C240.002 296.872 234.525 296.028 229.837 293.277C222.047 288.704 218.392 281.524 222.87 273.338C222.903 273.278 222.988 273.333 222.959 273.392Z" fill="#9D7C6B"/>
<path d="M222.933 280.248C224.092 284.231 228.961 286.578 232.417 288.286C232.682 288.417 232.482 288.868 232.205 288.76C228.541 287.321 223.628 284.458 222.729 280.294C222.701 280.162 222.896 280.119 222.933 280.248Z" fill="#9D7C6B"/>
<path d="M235.73 289.187C240.065 290.896 244.461 290.165 248.973 290.092C249.307 290.086 249.359 290.617 249.028 290.677C244.558 291.494 239.766 291.458 235.603 289.472C235.443 289.395 235.564 289.122 235.73 289.187Z" fill="#9D7C6B"/>
<path d="M227.582 273.102C237.443 270.286 247.137 275.689 254.531 281.844C254.763 282.037 254.451 282.397 254.205 282.247C245.969 277.253 237.927 270.904 227.69 273.578C227.385 273.658 227.281 273.188 227.582 273.102Z" fill="#9D7C6B"/>
<path d="M223.731 271.526C227.187 268.68 232.486 267.323 236.887 268.079C237.273 268.145 237.138 268.723 236.78 268.727C231.924 268.784 228.245 269.624 223.832 271.666C223.748 271.705 223.651 271.592 223.731 271.526Z" fill="#9D7C6B"/>
<path d="M241.071 268.604C245.552 270.273 250.037 272.018 253.709 275.182C258.492 279.303 259.624 285.665 263.894 290.194C264.084 290.396 263.793 290.65 263.591 290.483C259.394 287.02 258.431 281.854 255.028 277.754C251.445 273.436 245.983 271.049 241.014 268.73C240.943 268.697 240.997 268.576 241.071 268.604Z" fill="#9D7C6B"/>
<path d="M226.905 278.134C233.11 282.09 240.101 284.632 247.475 285.056C253.428 285.398 257.957 286.265 263.358 288.962C263.629 289.097 263.425 289.519 263.147 289.435C259.125 288.226 255.292 286.544 251.065 286.177C248.368 285.944 245.733 286.04 243.053 285.547C237.014 284.434 231.721 281.944 226.796 278.313C226.689 278.234 226.79 278.061 226.905 278.134Z" fill="#9D7C6B"/>
<path d="M300.582 284.732C285.809 296.199 282.675 312.345 283.862 330.293C283.895 330.794 283.066 330.871 282.984 330.376C280.08 312.856 284.399 294.065 300.353 284.415C300.54 284.302 300.76 284.595 300.582 284.732Z" fill="#9D7C6B"/>
<path d="M291.583 293.663C296.417 290.207 299.377 294.618 304.358 296.089C317.595 299.999 332.373 280.656 327.043 268.229C324.039 261.225 317.661 258.791 310.403 259.377C301.135 260.125 295.268 266.427 292.708 275.137C290.827 281.535 294.524 288.523 290.616 294.238C290.457 294.471 289.984 294.398 290.036 294.063C291.011 287.857 288.398 281.99 289.937 275.772C291.21 270.626 293.79 264.636 298.058 261.266C305.455 255.425 320.09 255.484 326.329 263.189C333.196 271.67 328.87 283.215 322.59 290.529C319.271 294.394 315.21 298.035 309.95 298.64C304.221 299.298 296.235 292.087 291.739 293.954C291.54 294.036 291.412 293.786 291.583 293.663Z" fill="#9D7C6B"/>
<path d="M322.543 262.438C329.526 268.314 329.142 275.829 323.897 283.038C320.99 287.033 316.939 289.752 312.375 291.493C309.871 292.448 307.286 293.268 304.586 293.268C299.776 293.267 296.314 290.56 291.006 293.184C290.737 293.317 290.425 292.941 290.681 292.736C296.083 288.424 302.578 293.006 308.911 291.675C321.561 289.017 334.391 273.534 322.467 262.51C322.417 262.463 322.493 262.395 322.543 262.438Z" fill="#9D7C6B"/>
<path d="M325.268 268.825C326.08 272.965 322.486 277.575 319.665 280.213C319.415 280.446 319.084 280.082 319.304 279.834C321.737 277.09 325.559 272.869 325.064 268.871C325.048 268.741 325.241 268.691 325.268 268.825Z" fill="#9D7C6B"/>
<path d="M316.745 282.177C313.602 285.54 309.235 287.375 304.782 288.293C304.47 288.357 304.253 287.867 304.577 287.742C308.82 286.11 313.103 285.136 316.529 281.95C316.678 281.811 316.883 282.03 316.745 282.177Z" fill="#9D7C6B"/>
<path d="M318.171 264.456C307.637 266.011 302.657 274.6 296.823 282.397C296.623 282.665 296.215 282.424 296.376 282.124C300.987 273.547 307.858 265.252 318.063 263.979C318.37 263.941 318.485 264.409 318.171 264.456Z" fill="#9D7C6B"/>
<path d="M321.024 261.241C316.18 260.994 312.459 261.574 307.933 263.347C307.543 263.5 307.25 262.993 307.62 262.764C311.379 260.432 316.833 259.732 321.053 261.07C321.146 261.1 321.125 261.246 321.024 261.241Z" fill="#9D7C6B"/>
<path d="M303.978 264.955C299.446 269.807 294.78 274.823 293.698 281.616C293.028 285.816 293.362 289.815 291.169 293.596C291.053 293.797 290.696 293.649 290.79 293.427C293.001 288.203 291.749 282.339 293.932 277.098C295.995 272.142 299.999 268.392 303.882 264.854C303.949 264.793 304.039 264.889 303.978 264.955Z" fill="#9D7C6B"/>
<path d="M320.762 268.506C313.465 280.073 301.497 284.147 291.222 292.412C290.959 292.624 290.638 292.287 290.861 292.034C294.811 287.555 298.23 285.252 303.515 282.754C310.477 279.463 316.046 274.612 320.583 268.397C320.662 268.29 320.834 268.391 320.762 268.506Z" fill="#9D7C6B"/>
<path d="M318.392 344.194C306.183 358.36 306.31 374.807 311.029 392.164C311.16 392.648 310.363 392.888 310.185 392.419C303.868 375.822 304.378 356.547 318.104 343.928C318.265 343.78 318.539 344.023 318.392 344.194Z" fill="#9D7C6B"/>
<path d="M311.34 354.73C315.393 350.384 319.169 354.121 324.343 354.576C338.092 355.787 348.744 333.899 341.058 322.774C336.726 316.504 329.992 315.383 322.994 317.395C314.058 319.963 309.556 327.303 308.772 336.348C308.197 342.992 313.205 349.109 310.506 355.485C310.396 355.744 309.918 355.766 309.903 355.428C309.629 349.152 305.906 343.919 306.182 337.519C306.411 332.223 307.753 325.841 311.269 321.692C317.362 314.501 331.719 311.66 339.36 317.976C347.771 324.928 345.818 337.102 341.112 345.515C338.624 349.96 335.365 354.334 330.328 355.969C324.844 357.748 315.587 352.263 311.55 354.984C311.372 355.104 311.197 354.884 311.34 354.73Z" fill="#9D7C6B"/>
<path d="M335.501 317.99C343.509 322.367 344.622 329.808 340.908 337.914C338.85 342.406 335.419 345.873 331.29 348.484C329.025 349.916 326.654 351.232 324.007 351.766C319.292 352.718 315.363 350.751 310.68 354.375C310.442 354.558 310.062 354.252 310.273 354C314.713 348.703 321.987 351.907 327.931 349.348C339.804 344.237 349.312 326.519 335.441 318.076C335.382 318.04 335.443 317.958 335.501 317.99Z" fill="#9D7C6B"/>
<path d="M339.436 323.711C341.052 327.608 338.443 332.838 336.2 335.982C336.002 336.26 335.605 335.97 335.771 335.683C337.612 332.511 340.522 327.617 339.245 323.796C339.204 323.672 339.384 323.584 339.436 323.711Z" fill="#9D7C6B"/>
<path d="M333.728 338.487C331.313 342.406 327.397 345.071 323.213 346.852C322.921 346.977 322.61 346.539 322.903 346.353C326.739 343.913 330.744 342.109 333.471 338.307C333.589 338.142 333.833 338.316 333.728 338.487Z" fill="#9D7C6B"/>
<path d="M331.614 320.833C321.597 324.446 318.418 333.851 314.243 342.649C314.1 342.951 313.653 342.796 313.752 342.47C316.572 333.149 321.664 323.657 331.414 320.388C331.707 320.29 331.913 320.726 331.614 320.833Z" fill="#9D7C6B"/>
<path d="M333.775 317.118C328.978 317.835 325.446 319.141 321.36 321.776C321.008 322.003 320.621 321.564 320.938 321.266C324.16 318.236 329.368 316.469 333.769 316.945C333.866 316.955 333.875 317.103 333.775 317.118Z" fill="#9D7C6B"/>
<path d="M317.802 324.135C314.321 329.789 310.741 335.63 311.026 342.503C311.202 346.752 312.321 350.605 310.921 354.746C310.846 354.966 310.468 354.892 310.516 354.655C311.648 349.097 309.259 343.598 310.36 338.027C311.401 332.761 314.582 328.292 317.687 324.055C317.741 323.982 317.849 324.059 317.802 324.135Z" fill="#9D7C6B"/>
<path d="M334.957 324.291C330.096 337.074 319.172 343.438 310.738 353.576C310.522 353.835 310.141 353.568 310.31 353.276C313.294 348.103 316.189 345.169 320.874 341.673C327.046 337.068 331.544 331.21 334.76 324.22C334.816 324.099 335.005 324.164 334.957 324.291Z" fill="#9D7C6B"/>
<path d="M211.834 175.628C230.405 165.227 253 173.468 263.747 191.119C264.003 191.539 263.332 192.043 263.033 191.636C250.735 174.859 231.439 167.728 212.021 175.976C211.79 176.074 211.608 175.754 211.834 175.628Z" fill="#9D7C6B"/>
<path d="M224.396 172.835C221.178 175.336 222.493 186.748 219.543 190.88C216.967 194.489 213.03 196.231 208.879 197.36C199.097 200.022 186.157 199.091 181.089 188.861C176.65 179.903 183.035 167.354 191.35 162.979C196.141 160.458 201.588 160.773 206.778 161.736C214.463 163.162 218.233 168.751 225.252 171.407C225.598 171.538 225.501 171.991 225.151 172.02C218.643 172.554 214.748 166.566 208.808 164.743C201.066 162.366 192.309 163.853 186.748 169.867C180.4 176.732 179.201 188.24 187.889 193.983C196.943 199.967 216.444 197.674 220.127 186.044C221.839 180.636 218.219 175.336 224.205 172.571C224.363 172.498 224.551 172.714 224.396 172.835Z" fill="#9D7C6B"/>
<path d="M181.853 184.047C185.473 199.53 204.133 196.293 213.132 187.454C217.981 182.691 217.145 174.013 223.783 171.356C224.116 171.223 224.346 171.644 224.046 171.847C218.861 175.354 217.935 184.401 212.887 188.858C208.952 192.332 204.253 194.839 198.974 195.431C190.096 196.427 183.405 193.015 181.751 184.07C181.739 184.004 181.838 183.981 181.853 184.047Z" fill="#9D7C6B"/>
<path d="M186.085 189.432C189.373 191.878 194.834 190.62 198.495 189.845C198.828 189.774 198.929 190.255 198.611 190.355C194.924 191.505 189.153 192.342 185.954 189.593C185.865 189.516 185.99 189.361 186.085 189.432Z" fill="#9D7C6B"/>
<path d="M201.699 188.479C206.127 187.085 209.1 183.842 212.582 180.986C212.879 180.743 213.242 181.13 212.991 181.416C209.99 184.838 206.25 187.712 201.768 188.785C201.57 188.832 201.509 188.539 201.699 188.479Z" fill="#9D7C6B"/>
<path d="M185.277 180.977C191.446 172.702 202.032 170.816 211.811 171.045C212.099 171.052 212.161 171.523 211.86 171.561C202.152 172.789 192.302 172.772 185.693 181.231C185.503 181.475 185.088 181.231 185.277 180.977Z" fill="#9D7C6B"/>
<path d="M181.301 182.097C182.226 177.753 185.53 173.37 189.426 171.248C189.746 171.074 190.108 171.539 189.811 171.779C186.071 174.812 183.62 177.863 181.459 182.168C181.411 182.261 181.282 182.187 181.301 182.097Z" fill="#9D7C6B"/>
<path d="M193.074 169.039C198.057 167.415 203.238 165.821 208.547 166.425C214.204 167.068 218.697 171.063 224.342 171.765C224.606 171.798 224.6 172.183 224.326 172.183C219.444 172.191 215.962 169.347 211.419 167.989C205.379 166.182 199.057 167.753 193.105 169.175C193.017 169.196 192.99 169.067 193.074 169.039Z" fill="#9D7C6B"/>
<path d="M187.882 185.316C195.567 184.436 202.439 181.931 208.796 177.524C213.443 174.302 217.576 172.303 223.151 171.139C223.427 171.082 223.618 171.512 223.333 171.625C211.07 176.473 201.565 184.889 187.901 185.522C187.784 185.527 187.764 185.329 187.882 185.316Z" fill="#9D7C6B"/>
<path d="M254.398 225.006C261.194 224.554 270.805 225.378 275.824 230.763C280.5 235.78 280.531 244.708 280.154 250.976C280.12 251.556 279.299 251.507 279.266 250.943C278.933 245.292 278.765 236.848 274.933 232.168C270.313 226.525 261.06 225.86 254.384 225.401C254.125 225.383 254.148 225.022 254.398 225.006Z" fill="#9D7C6B"/>
<path d="M266.827 228.083C262.81 228.416 261.305 235.368 259.204 238.084C257.924 239.738 256.34 241.138 254.479 242.124C250.204 244.39 245.416 243.94 240.86 242.885C231.185 240.646 220.579 233.921 220.953 222.722C221.269 213.272 231.834 205.254 240.755 204.559C246.403 204.119 251.414 206.901 255.812 210.159C262.11 214.824 263.179 221.685 268.295 227.188C268.495 227.404 268.281 227.824 267.978 227.704C265.916 226.887 265.322 226.591 263.84 224.913C259.402 219.887 258.552 214.903 252.359 210.818C246.104 206.691 239.534 205.928 232.713 209.401C225.191 213.23 220.185 221.232 224.09 229.532C229.511 241.052 250.006 246.956 258.545 236.322C261.326 232.858 261.153 226.759 266.88 227.761C267.08 227.796 266.995 228.069 266.827 228.083Z" fill="#9D7C6B"/>
<path d="M223.778 219.257C220.275 233.767 236.441 239.557 248.122 236.775C254.063 235.36 256.194 232.114 260.513 228.605C262.776 226.766 264.165 226.252 267.007 226.478C267.305 226.502 267.387 226.985 267.059 227.029C260.58 227.911 256.933 235.117 250.537 237.057C245.261 238.658 239.685 238.953 234.427 237.147C225.87 234.208 221.081 228.137 223.678 219.228C223.697 219.162 223.794 219.192 223.778 219.257Z" fill="#9D7C6B"/>
<path d="M225.188 225.963C227.102 229.627 232.445 230.877 236.138 231.836C236.419 231.909 236.35 232.393 236.053 232.347C232.222 231.761 226.682 229.914 225.004 226.061C224.95 225.94 225.124 225.842 225.188 225.963Z" fill="#9D7C6B"/>
<path d="M239.57 232.025C244.171 232.773 248.301 231.153 252.701 230.136C253.015 230.063 253.224 230.555 252.906 230.685C248.694 232.425 244.02 233.39 239.519 232.332C239.348 232.292 239.393 231.996 239.57 232.025Z" fill="#9D7C6B"/>
<path d="M228.225 218.012C237.333 213.248 247.832 216.397 256.409 220.896C256.672 221.033 256.476 221.466 256.197 221.369C247.045 218.196 237.992 213.727 228.455 218.442C228.175 218.581 227.945 218.158 228.225 218.012Z" fill="#9D7C6B"/>
<path d="M224.139 217.275C226.93 213.772 231.799 211.331 236.268 211.142C236.648 211.126 236.688 211.714 236.329 211.796C231.597 212.877 228.153 214.473 224.273 217.384C224.202 217.437 224.072 217.36 224.139 217.275Z" fill="#9D7C6B"/>
<path d="M240.479 210.779C245.335 211.487 250.247 212.287 254.571 214.749C259.9 217.783 262.283 223.711 267.317 227.098C267.544 227.25 267.337 227.575 267.099 227.455C262.761 225.268 260.81 221.185 257.381 217.957C252.805 213.649 246.39 212.274 240.457 210.915C240.381 210.898 240.401 210.767 240.479 210.779Z" fill="#9D7C6B"/>
<path d="M228.626 223.066C235.87 225.727 243.434 226.686 251.059 225.346C256.538 224.383 261.121 224.609 266.533 226.008C266.818 226.081 266.745 226.544 266.448 226.519C262.286 226.178 258.149 225.351 253.965 225.861C251.449 226.168 249.049 226.806 246.506 226.922C240.187 227.209 234.312 225.83 228.565 223.267C228.446 223.214 228.496 223.019 228.626 223.066Z" fill="#9D7C6B"/>
<path d="M255.628 347.857C278.479 337.536 294.447 360.414 301.591 379.366C301.786 379.883 301.059 380.318 300.808 379.786C291.954 361.048 279.015 340.537 255.766 348.223C255.556 348.293 255.426 347.948 255.628 347.857Z" fill="#9D7C6B"/>
<path d="M268.413 346.421C264.006 349.15 265.571 359.468 261.674 363.844C258.119 367.837 252.779 369.024 247.653 369.473C238.03 370.315 226.027 367.054 223.21 356.484C220.772 347.338 228.433 336.215 236.798 333.001C242.041 330.986 248.144 332.039 253.333 333.834C259.965 336.128 263.409 342.029 269.48 345.099C269.771 345.246 269.6 345.686 269.306 345.679C262.615 345.525 258.553 338.717 252.606 336.245C244.988 333.077 236.685 334.057 230.712 339.788C225.441 344.844 222.78 352.371 226.518 359.036C233.262 371.058 257.845 371.96 262.768 357.946C264.511 352.984 262.667 348.023 268.298 346.115C268.484 346.053 268.562 346.329 268.413 346.421Z" fill="#9D7C6B"/>
<path d="M224.941 353.026C226.888 368.772 245.895 367.674 255.637 359.681C260.871 355.386 261.149 346.787 268.026 344.857C268.332 344.771 268.495 345.229 268.22 345.375C262.772 348.271 261.288 356.594 256.221 360.468C252.078 363.635 247.271 365.764 242.037 366.088C232.72 366.665 225.57 362.598 224.837 353.036C224.833 352.978 224.933 352.967 224.941 353.026Z" fill="#9D7C6B"/>
<path d="M228.589 358.846C231.556 361.589 237.173 360.949 240.846 360.571C241.17 360.538 241.301 361.013 240.962 361.081C237.175 361.833 231.33 362.071 228.438 358.991C228.344 358.892 228.491 358.756 228.589 358.846Z" fill="#9D7C6B"/>
<path d="M244.187 359.552C248.762 358.631 252.075 355.713 255.863 353.23C256.145 353.044 256.449 353.482 256.207 353.705C252.859 356.791 248.829 359.266 244.257 359.857C244.061 359.883 243.986 359.592 244.187 359.552Z" fill="#9D7C6B"/>
<path d="M228.697 350.316C235.681 342.775 246.436 342.028 256.085 343.286C256.415 343.33 256.407 343.802 256.066 343.809C246.305 344 236.474 342.994 229.034 350.669C228.814 350.896 228.486 350.544 228.697 350.316Z" fill="#9D7C6B"/>
<path d="M224.596 351.043C225.976 346.842 229.717 342.823 233.801 341.125C234.193 340.962 234.475 341.475 234.114 341.709C230.02 344.367 227.404 347.011 224.755 351.114C224.702 351.195 224.565 351.139 224.596 351.043Z" fill="#9D7C6B"/>
<path d="M237.687 339.304C242.712 338.238 247.831 337.254 252.956 338.279C258.718 339.431 262.826 344.052 268.526 345.344C268.756 345.396 268.694 345.776 268.458 345.753C264.06 345.322 261.056 342.678 257.219 340.759C251.096 337.696 244.252 338.595 237.718 339.44C237.631 339.451 237.598 339.323 237.687 339.304Z" fill="#9D7C6B"/>
<path d="M230.817 354.934C239.03 354.872 246.363 352.92 253.455 348.819C257.988 346.197 262.134 345.12 267.351 344.593C267.678 344.56 267.8 345.01 267.467 345.103C254.821 348.619 244.406 355.964 230.81 355.143C230.675 355.135 230.683 354.935 230.817 354.934Z" fill="#9D7C6B"/>
<path d="M184.594 121.599C188.216 134.723 195.942 144.878 208.345 150.586C208.81 150.8 208.456 151.538 207.984 151.391C194.936 147.315 186.033 135.062 184.209 121.686C184.175 121.437 184.526 121.35 184.594 121.599Z" fill="#9D7C6B"/>
<path d="M189.273 133.377C188.015 127.708 192.596 127.295 196.095 123.616C206.286 112.904 193.266 90.9766 179.794 90.5822C171.732 90.3463 166.276 97.452 164.377 104.592C162.189 112.823 166.529 119.941 172.727 124.945C177.86 129.09 185.756 128.733 189.44 134.504C189.612 134.772 189.253 135.076 189.001 134.919C183.19 131.296 176.534 131.49 171.079 126.988C166.896 123.536 162.817 118.895 161.77 113.434C159.976 104.085 166.164 91.1576 176.05 89.2073C187.26 86.9957 195.857 96.7308 199.68 106.106C201.301 110.079 202.316 114.284 201.032 118.504C199.353 124.021 189.65 128.287 189.599 133.347C189.597 133.534 189.314 133.559 189.273 133.377Z" fill="#9D7C6B"/>
<path d="M172.69 92.6284C181.311 88.269 188.43 92.2866 192.775 100.609C195.188 105.23 195.863 110.449 195.305 115.606C194.582 122.28 188.23 127.099 188.604 133.733C188.622 134.061 188.134 134.076 188.053 133.785C186.144 126.911 193.537 122.369 194.399 115.573C195.971 103.181 187.485 86.1116 172.74 92.7206C172.679 92.7481 172.63 92.6591 172.69 92.6284Z" fill="#9D7C6B"/>
<path d="M179.652 92.6282C183.786 93.5508 186.537 98.5989 187.901 102.216C188.017 102.52 187.587 102.776 187.441 102.463C185.836 99.0261 183.542 94.0077 179.592 92.8286C179.461 92.7895 179.522 92.5992 179.652 92.6282Z" fill="#9D7C6B"/>
<path d="M188.569 105.685C190.464 109.902 190.408 114.674 189.501 119.14C189.434 119.475 188.91 119.373 188.922 119.044C189.084 114.532 189.888 110.169 188.278 105.794C188.217 105.629 188.497 105.524 188.569 105.685Z" fill="#9D7C6B"/>
<path d="M172.83 97.4648C170.078 107.698 176.126 115.752 180.981 124.143C181.125 124.393 180.748 124.681 180.561 124.447C174.485 116.837 169.462 107.212 172.363 97.3242C172.452 97.0215 172.912 97.1621 172.83 97.4648Z" fill="#9D7C6B"/>
<path d="M170.996 93.5612C169.988 95.6017 168.977 97.5633 168.446 99.7959C167.917 102.027 167.862 104.189 167.802 106.463C167.792 106.829 167.207 106.903 167.148 106.524C166.459 102.146 167.953 96.811 170.861 93.4527C170.93 93.373 171.036 93.4793 170.996 93.5612Z" fill="#9D7C6B"/>
<path d="M167.723 110.682C170.485 116.905 173.293 123.095 179.281 126.886C182.832 129.134 186.384 130.272 189.027 133.687C189.188 133.896 188.918 134.171 188.724 133.976C184.704 129.943 178.889 128.733 174.937 124.642C171.207 120.78 169.337 115.702 167.593 110.73C167.567 110.656 167.691 110.61 167.723 110.682Z" fill="#9D7C6B"/>
<path d="M177.586 96.657C185.33 107.865 184.449 120.605 187.988 133.231C188.067 133.512 187.63 133.679 187.502 133.412C185.461 129.125 184.262 125.202 183.887 120.463C183.184 111.57 182.082 104.619 177.402 96.756C177.332 96.638 177.511 96.5488 177.586 96.657Z" fill="#9D7C6B"/>
<path d="M252.434 152.809C252.204 164.679 256.124 175.463 261.081 186.064C261.326 186.587 260.61 186.959 260.298 186.484C254.023 176.951 250.097 164.127 252.048 152.744C252.086 152.518 252.438 152.592 252.434 152.809Z" fill="#9D7C6B"/>
<path d="M253.474 165.453C253.153 160.813 257.098 160.488 260.588 158.89C268.585 155.228 270.811 148.182 269.404 139.911C268.279 133.298 265.31 125.936 258.943 122.679C250.2 118.207 240.677 124.769 237.02 132.817C234.286 138.832 235.425 144.661 238.663 150.284C241.442 155.11 245.315 157.471 249.384 160.804C251.599 162.618 252.562 163.908 253.303 166.566C253.386 166.86 252.972 167.081 252.772 166.851C248.641 162.113 242.423 160.27 238.669 155.077C235.61 150.843 232.66 145.036 232.837 139.659C233.148 130.152 242.558 119.073 252.487 119.21C263.913 119.366 269.908 131.069 271.198 140.96C271.813 145.673 271.804 150.543 269.077 154.624C266.262 158.836 254.562 161.468 253.796 165.507C253.759 165.705 253.486 165.624 253.474 165.453Z" fill="#9D7C6B"/>
<path d="M249.497 121.632C258.615 119.982 264.172 125.415 266.196 134.181C267.371 139.27 266.653 144.271 264.83 149.115C262.33 155.76 254.325 159.078 252.733 165.581C252.656 165.894 252.179 165.802 252.187 165.49C252.248 163.065 252.537 161.947 254.192 160.078C258.111 155.649 262.164 153.937 264.394 147.789C268.506 136.452 264.345 119.761 249.52 121.735C249.455 121.744 249.43 121.645 249.497 121.632Z" fill="#9D7C6B"/>
<path d="M256.154 123.662C259.853 125.821 261.002 131.364 261.257 135.301C261.276 135.594 260.782 135.643 260.74 135.349C260.2 131.542 259.462 126.173 256.045 123.84C255.934 123.764 256.037 123.593 256.154 123.662Z" fill="#9D7C6B"/>
<path d="M260.877 138.749C261.479 143.319 260.015 147.896 257.851 151.886C257.692 152.181 257.205 151.963 257.315 151.645C258.786 147.384 260.852 143.425 260.568 138.778C260.557 138.603 260.854 138.573 260.877 138.749Z" fill="#9D7C6B"/>
<path d="M248.227 126.292C242.537 135.292 246.032 144.738 248.234 154.188C248.298 154.465 247.86 154.651 247.748 154.37C244.175 145.369 242.12 134.602 247.81 126.037C247.984 125.776 248.395 126.026 248.227 126.292Z" fill="#9D7C6B"/>
<path d="M247.607 122.029C246.055 123.688 244.514 125.26 243.357 127.239C242.203 129.211 241.513 131.278 240.791 133.427C240.677 133.767 240.087 133.707 240.143 133.319C240.771 128.926 243.743 124.262 247.506 121.889C247.593 121.834 247.671 121.96 247.607 122.029Z" fill="#9D7C6B"/>
<path d="M239.481 137.45C240.231 143.592 240.966 149.856 244.781 154.944C247.619 158.73 251.373 161.149 253.145 165.666C253.241 165.91 252.909 166.107 252.776 165.864C249.888 160.564 244.356 157.557 241.852 152.001C239.799 147.445 239.546 142.374 239.343 137.462C239.34 137.384 239.471 137.371 239.481 137.45Z" fill="#9D7C6B"/>
<path d="M253.006 126.911C254.952 132.881 255.705 138.882 254.77 145.124C254.439 147.334 253.753 149.406 253.196 151.558C252.035 156.056 252.392 160.338 252.288 164.921C252.281 165.21 251.816 165.268 251.771 164.969C250.951 159.471 251.141 154.85 252.721 149.519C254.915 142.119 254.682 134.402 252.802 126.957C252.769 126.825 252.965 126.785 253.006 126.911Z" fill="#9D7C6B"/>
<path d="M291.805 214.79C284.99 224.527 282.121 235.562 280.311 247.158C280.225 247.709 279.416 247.714 279.422 247.126C279.537 235.934 283.476 222.592 291.501 214.544C291.656 214.388 291.936 214.604 291.805 214.79Z" fill="#9D7C6B"/>
<path d="M285.559 225.866C288.024 221.617 291.33 223.968 295.294 224.578C310.335 226.892 320.738 206.221 314.105 193.555C309.929 185.584 299.893 184.685 292.412 188.351C286.345 191.323 283.142 196.196 282.134 202.706C281.115 209.296 283.024 213.337 284.717 219.493C285.485 222.286 285.749 223.856 284.81 226.657C284.718 226.93 284.245 226.965 284.205 226.636C283.449 220.406 279.332 215.438 279.121 209.045C278.947 203.766 279.815 197.276 282.984 192.888C288.502 185.247 302.531 181.365 310.623 186.974C319.722 193.282 318.602 205.751 314.466 214.548C312.32 219.114 309.461 223.617 304.607 225.614C299.793 227.595 288.681 223.193 285.813 226.072C285.679 226.207 285.467 226.026 285.559 225.866Z" fill="#9D7C6B"/>
<path d="M306.853 187.348C315.676 191.323 317.03 199.595 313.214 208.176C311.413 212.227 308.518 215.448 304.993 218.076C303.167 219.437 301.193 220.821 299.033 221.6C294.144 223.361 289.452 221.412 284.897 225.532C284.672 225.737 284.277 225.451 284.467 225.185C288.652 219.33 296.835 222.119 302.698 218.613C313.491 212.157 320.947 194.621 306.799 187.437C306.738 187.406 306.794 187.321 306.853 187.348Z" fill="#9D7C6B"/>
<path d="M311.217 192.75C313.082 196.514 310.958 201.917 308.93 205.236C308.75 205.53 308.342 205.26 308.484 204.963C310.093 201.6 312.57 196.593 311.032 192.849C310.982 192.727 311.155 192.627 311.217 192.75Z" fill="#9D7C6B"/>
<path d="M306.658 207.922C304.575 212.014 300.836 214.98 296.817 217.068C296.532 217.215 296.196 216.799 296.472 216.592C300.098 213.875 303.984 211.766 306.391 207.757C306.496 207.582 306.749 207.744 306.658 207.922Z" fill="#9D7C6B"/>
<path d="M303.195 190.482C293.391 194.821 291.042 204.463 287.551 213.571C287.43 213.887 286.978 213.749 287.051 213.42C289.135 203.959 293.487 193.993 302.965 190.052C303.25 189.932 303.485 190.353 303.195 190.482Z" fill="#9D7C6B"/>
<path d="M305.064 186.61C300.357 187.703 296.902 189.295 293.043 192.21C292.707 192.463 292.293 192.05 292.586 191.73C295.58 188.464 300.619 186.314 305.048 186.438C305.147 186.441 305.16 186.588 305.064 186.61Z" fill="#9D7C6B"/>
<path d="M289.677 194.833C286.633 200.752 283.467 206.901 284.307 213.764C284.825 217.998 286.217 221.629 285.167 225.886C285.111 226.113 284.73 226.056 284.757 225.818C285.42 220.166 282.603 214.842 283.335 209.19C284.024 203.868 286.783 199.231 289.558 194.761C289.606 194.683 289.718 194.755 289.677 194.833Z" fill="#9D7C6B"/>
<path d="M306.794 193.673C305.156 199.308 302.721 204.304 298.874 208.785C296.926 211.053 294.611 212.705 292.461 214.746C289.404 217.647 287.321 221.318 284.895 224.733C284.697 225.011 284.304 224.76 284.449 224.459C286.89 219.372 289.534 215.859 293.847 212.268C299.804 207.308 303.941 200.862 306.594 193.613C306.639 193.487 306.832 193.543 306.794 193.673Z" fill="#9D7C6B"/>
</g>
<defs>
<clipPath id="clip0_2799_11888">
<rect width="358.77" height="358.77" fill="white" transform="translate(0 335.629) rotate(-69.3089)"/>
</clipPath>
</defs>
</svg>
