<svg width="93" height="158" viewBox="0 0 93 158" fill="none" xmlns="http://www.w3.org/2000/svg">
<path d="M86.1012 157.478C77.3429 147.633 67.9958 138.389 60.1177 127.782C53.2769 118.571 47.5667 108.588 42.754 98.1801C33.1479 77.4066 28.2987 55.2562 24.7623 32.7567C24.6375 31.9632 23.3519 31.9365 23.314 32.7863C21.13 81.6879 50.6919 126.409 85.8225 157.761C85.9912 157.912 86.2518 157.647 86.1012 157.478Z" fill="#9D7C6B"/>
<path d="M24.3721 33.2872C20.0627 29.0323 18.9675 23.6738 19.1289 17.8203C19.2332 14.0398 20.0628 10.5641 22.2418 7.43886C23.5595 5.54903 26.1541 1.51579 28.0069 3.19198C31.3115 6.1819 31.3798 15.344 30.7381 19.1732C29.8583 24.4239 27.4172 29.24 23.9231 33.2142C23.6506 33.5241 24.1043 33.9014 24.4116 33.695C35.1741 26.4659 33.4252 10.2182 28.121 0.429434C27.9321 0.0811143 27.4045 -0.181362 27.0584 0.157656C21.4848 5.61967 17.8218 10.412 17.6718 18.4624C17.563 24.2934 18.7007 30.4074 24.0661 33.598C24.259 33.7129 24.5651 33.4778 24.3721 33.2872Z" fill="#9D7C6B"/>
<path d="M26.1887 7.61763C23.8976 20.4138 22.3537 33.4536 24.133 46.4404C24.1772 46.7639 24.7008 46.7682 24.717 46.4284C25.3369 33.44 25.1255 20.6086 26.3057 7.63044C26.3128 7.55449 26.2019 7.54345 26.1887 7.61763Z" fill="#9D7C6B"/>
<path d="M22.8294 11.9022C20.9784 18.365 20.6497 25.7771 22.9011 32.1889C22.9642 32.3685 23.2422 32.2809 23.2155 32.099C22.2071 25.1879 21.7265 18.8582 22.8747 11.9135C22.8789 11.8879 22.8368 11.8765 22.8294 11.9022Z" fill="#9D7C6B"/>
<path d="M28.4602 16.2461C27.7089 21.6863 26.6575 26.8814 24.7327 32.0402C24.6089 32.3716 25.0385 32.5978 25.2615 32.3382C27.0656 30.2373 27.588 27.6106 27.9817 24.929C28.4019 22.0669 28.8421 19.1328 28.507 16.2452C28.5038 16.2179 28.4638 16.2199 28.4602 16.2461Z" fill="#9D7C6B"/>
<path d="M35.8809 58.3987C33.198 52.9096 33.9178 47.5326 36.06 42.0399C37.2435 39.0055 38.7747 36.237 41.3187 34.1402C42.6877 33.0117 46.018 30.3066 47.8922 30.2475C51.8574 30.1225 48.1969 43.8339 47.1766 45.995C44.7327 51.1713 40.4842 55.385 35.5422 58.1685C35.2322 58.3429 35.3178 58.9353 35.7308 58.8273C48.3396 55.5323 52.0229 39.6302 50.2614 28.5792C50.193 28.1509 49.711 27.8551 49.3024 28.0469C42.9259 31.0406 37.8536 34.0238 35.023 40.767C32.5934 46.5545 31.1453 53.4311 35.5056 58.6212C35.6608 58.8057 35.9946 58.6312 35.8809 58.3987Z" fill="#9D7C6B"/>
<path d="M46.0769 34.7716C39.6821 46.1206 33.9341 57.8968 31.3176 70.7744C31.2502 71.1062 31.7626 71.2159 31.884 70.9154C36.7544 58.8648 40.7841 46.6855 46.1788 34.8289C46.2055 34.7697 46.1098 34.7133 46.0769 34.7716Z" fill="#9D7C6B"/>
<path d="M41.4845 37.7218C37.5926 43.2521 34.9126 50.0425 34.8601 56.8652C34.8585 57.0758 35.1481 57.1127 35.1881 56.9013C36.482 50.0503 38.1806 43.8932 41.525 37.7448C41.5377 37.7214 41.4995 37.7004 41.4845 37.7218Z" fill="#9D7C6B"/>
<path d="M45.3668 43.6795C42.878 48.5901 40.1402 53.1443 36.6244 57.3738C36.4381 57.598 36.7214 57.9958 36.99 57.84C41.3839 55.2892 44.2936 48.398 45.4122 43.6907C45.4187 43.6632 45.378 43.6576 45.3668 43.6795Z" fill="#9D7C6B"/>
<path d="M57.0061 108.908C52.9742 104.314 52.2577 98.9365 52.8828 93.072C53.2517 89.6105 54.1757 86.3794 56.2627 83.5538C57.088 82.4365 60.603 77.9821 62.0575 78.3173C63.5503 78.6614 64.3584 84.2538 64.5737 85.4222C65.0923 88.2375 65.1496 91.1522 64.6467 93.9739C63.6425 99.6088 60.659 104.787 56.62 108.771C56.3688 109.019 56.5979 109.574 56.9696 109.36C68.2733 102.866 67.6916 86.5831 63.0532 76.363C62.8759 75.9719 62.3381 75.7959 61.9908 76.0913C56.3533 80.8845 52.2882 85.2997 51.4581 92.9154C50.8019 98.9358 51.3481 105.507 56.7002 109.219C56.8967 109.355 57.1772 109.103 57.0061 108.908Z" fill="#9D7C6B"/>
<path d="M60.6398 83.4313C57.4496 96.0602 54.9944 108.932 55.8516 122.044C55.8738 122.383 56.397 122.356 56.4357 122.032C57.9711 109.126 58.6611 96.3161 60.7531 83.4593C60.7635 83.3951 60.6563 83.3662 60.6398 83.4313Z" fill="#9D7C6B"/>
<path d="M56.9826 87.483C54.6825 93.7888 53.8293 101.149 55.6173 107.693C55.6725 107.895 55.9595 107.859 55.9434 107.644C55.4201 100.646 55.3874 94.3531 57.028 87.4941C57.0342 87.4681 56.9915 87.4583 56.9826 87.483Z" fill="#9D7C6B"/>
<path d="M62.2932 92.2137C61.1587 97.6089 59.7417 102.705 57.453 107.724C57.3332 107.986 57.7093 108.298 57.9261 108.079C61.4636 104.495 62.5546 97.0553 62.34 92.2128C62.3387 92.1842 62.2983 92.1895 62.2932 92.2137Z" fill="#9D7C6B"/>
<path d="M28.5594 86.906C29.6602 80.4818 25.3445 75.4907 20.5869 71.7398C14.5509 66.9811 8.57302 66.8144 1.20037 67.4795C0.738369 67.5212 0.516473 68.0461 0.667919 68.4384C4.68795 78.8467 15.8897 90.725 28.3926 87.2238C28.7283 87.1298 28.8089 86.5316 28.3786 86.5386C23.4998 86.6178 18.7205 85.5526 14.3896 83.2565C11.5173 81.7336 9.11297 79.6989 7.05741 77.1684C6.05762 75.9375 1.98685 71.0683 2.53863 69.4444C3.06096 67.9066 7.79486 68.3956 9.02434 68.4845C12.626 68.7447 15.5064 69.8589 18.4557 71.915C23.6514 75.537 27.6404 80.4063 28.1235 86.9152C28.1425 87.1748 28.5193 87.1403 28.5594 86.906Z" fill="#9D7C6B"/>
<path d="M7.3391 71.7553C17.98 79.2708 27.6057 87.7534 37.8925 95.7002C38.151 95.8999 38.5287 95.5375 38.3021 95.2839C29.5591 85.4982 18.6458 78.2247 7.41017 71.6614C7.3465 71.6242 7.27563 71.7106 7.3391 71.7553Z" fill="#9D7C6B"/>
<path d="M12.8277 71.9255C18.8606 75.5545 23.3503 80.0067 27.9671 85.2699C28.083 85.4018 28.3482 85.2736 28.2487 85.1029C24.8221 79.2272 18.9788 74.6694 12.8505 71.8847C12.8268 71.8739 12.8047 71.9117 12.8277 71.9255Z" fill="#9D7C6B"/>
<path d="M12.4722 79.0204C15.7473 82.5356 21.8073 87.0019 26.8119 86.9863C27.1328 86.9854 27.3098 86.525 26.9587 86.3973C21.7785 84.5155 17.1485 81.9551 12.505 78.9871C12.4841 78.9737 12.4527 78.9996 12.4722 79.0204Z" fill="#9D7C6B"/>
<path d="M65.7292 146.261C64.1651 140.186 58.6222 137.362 52.9374 135.825C45.2052 133.735 39.6754 135.838 32.9107 139.632C32.572 139.822 32.2901 140.351 32.639 140.695C40.5869 148.537 55.6915 154.935 65.7246 146.567C66.0178 146.322 65.7418 145.806 65.3751 145.977C60.7879 148.117 55.7468 149.122 50.68 148.63C47.9454 148.364 32.8062 143.234 35.3528 139.851C36.1925 138.736 39.1969 137.844 40.4872 137.367C43.5126 136.248 46.5039 136.007 49.6767 136.521C56.0832 137.559 62.1383 140.509 65.3098 146.381C65.4188 146.583 65.7961 146.521 65.7292 146.261Z" fill="#9D7C6B"/>
<path d="M40.1684 141.08C52.9576 143.587 65.2293 147.386 77.8691 150.443C78.2037 150.524 78.2991 150.006 78.0102 149.876C66.0415 144.525 53.1061 142.353 40.1815 140.963C40.1051 140.955 40.0949 141.066 40.1684 141.08Z" fill="#9D7C6B"/>
<path d="M45.2421 138.988C52.2194 139.85 58.2081 142.054 64.5279 144.982C64.6966 145.06 64.84 144.804 64.6885 144.697C59.1025 140.765 52.0163 138.994 45.2471 138.941C45.2174 138.941 45.2112 138.985 45.2421 138.988Z" fill="#9D7C6B"/>
<path d="M47.8171 145.609C50.6176 146.793 53.7032 147.191 56.6989 147.597C59.2444 147.943 61.8089 148.107 64.1855 147.004C64.5102 146.853 64.361 146.394 64.0184 146.42C58.5317 146.829 53.2601 146.369 47.8282 145.564C47.8015 145.56 47.7929 145.599 47.8171 145.609Z" fill="#9D7C6B"/>
<path d="M12.9211 47.6609C15.9713 49.5524 18.3808 51.8049 20.9129 54.3285C25.7447 59.1438 27.9381 63.4824 29.1256 70.1373C29.1779 70.4307 29.6714 70.5468 29.7582 70.2099C32.1438 60.9535 20.0503 51.4333 13.0538 47.4855C12.9338 47.4178 12.7991 47.5851 12.9211 47.6609Z" fill="#9D7C6B"/>
<path d="M12.6305 40.9478C13.1905 36.5186 5.64828 36.6662 3.2272 38.2236C-0.473105 40.6042 -1.06264 46.1581 1.82855 49.3971C4.86131 52.7951 11.3034 52.6849 13.7478 48.6068C16.4435 44.1094 11.169 38.3679 6.41586 40.0457C4.06468 40.8756 2.48733 43.4664 3.17618 45.9362C3.75858 48.0236 6.39892 49.6779 8.31647 48.124C8.61625 47.8811 8.58694 47.4433 8.24055 47.2585C6.84553 46.5133 4.93156 44.6243 6.84956 43.1691C8.58743 41.8505 10.8572 43.5112 11.3561 45.2601C12.4793 49.1961 7.22297 50.3254 4.58812 48.9858C1.75496 47.5451 1.06772 43.7471 2.67952 41.1413C4.44706 38.2836 10.9067 37.0481 12.4794 40.96C12.5069 41.0281 12.6203 41.0289 12.6305 40.9478Z" fill="#9D7C6B"/>
<path d="M81.3864 119.867C78.5426 124.686 76.5494 130.401 75.7038 135.936C75.0624 140.133 74.5296 147.018 77.6404 150.353C77.9052 150.636 78.3079 150.378 78.2031 150.019C75.244 139.871 76.5451 129.298 81.5762 119.974C81.6345 119.866 81.4493 119.76 81.3864 119.867Z" fill="#9D7C6B"/>
<path d="M78.4885 114.006C75.8009 110.441 82.4186 106.82 85.2935 106.968C89.6876 107.194 92.9601 111.72 92.0619 115.968C91.1195 120.424 85.4749 123.531 81.3266 121.207C76.7519 118.645 78.4744 111.041 83.4325 110.134C85.8853 109.686 88.5417 111.149 89.1717 113.635C89.7043 115.736 88.2355 118.484 85.7993 118.089C85.4184 118.027 85.2263 117.632 85.4348 117.3C86.2748 115.96 86.9964 113.369 84.609 113.06C82.4455 112.78 81.3016 115.349 81.7379 117.115C82.7202 121.088 87.8423 119.455 89.4625 116.983C91.2049 114.324 89.9131 110.687 87.2191 109.228C84.2648 107.627 78.0457 109.766 78.6257 113.942C78.6359 114.015 78.5378 114.072 78.4885 114.006Z" fill="#9D7C6B"/>
<path d="M35.3578 113.173C43.0537 114.514 51.7271 118.683 56.4476 125.055C56.607 125.27 56.9948 125.116 56.9365 124.844C56.1826 121.328 51.6727 119.128 48.7822 117.506C44.7246 115.229 39.9933 113.604 35.3778 112.99C35.2602 112.975 35.2421 113.152 35.3578 113.173Z" fill="#9D7C6B"/>
<path d="M33.022 108.066C32.0701 104.466 26.2841 106.938 24.8989 108.9C22.7818 111.897 24.0623 116.376 27.3105 117.977C30.718 119.656 35.6652 117.557 36.2804 113.639C36.9589 109.319 31.085 106.528 27.9341 109.312C26.3755 110.689 25.9658 113.185 27.2707 114.879C28.3737 116.311 30.9327 116.765 31.9296 114.964C32.0855 114.683 31.926 114.353 31.6004 114.319C30.2885 114.178 28.218 113.316 29.2461 111.591C30.1776 110.028 32.4521 110.603 33.3848 111.799C35.4838 114.492 31.7722 117.008 29.316 116.796C26.6746 116.568 24.9559 113.846 25.3876 111.327C25.861 108.565 30.4698 105.59 32.909 108.123C32.9515 108.167 33.0394 108.132 33.022 108.066Z" fill="#9D7C6B"/>
<path d="M44.2687 78.511C41.3282 83.4024 37.4256 92.932 41.8753 97.9146C42.048 98.1079 42.3586 97.9319 42.2658 97.6832C39.8636 91.2465 41.1426 84.5495 44.4004 78.5852C44.4411 78.5105 44.3129 78.4375 44.2687 78.511Z" fill="#9D7C6B"/>
<path d="M42.2857 74.4313C40.4377 71.9459 45.0454 69.4643 47.0393 69.5801C50.0865 69.7571 52.336 72.9121 51.6932 75.8549C51.0187 78.9417 47.0886 81.071 44.2215 79.4402C41.0596 77.6416 42.2895 72.3743 45.7336 71.7678C47.4373 71.4679 49.2734 72.4957 49.699 74.223C50.0585 75.6828 49.027 77.5824 47.3389 77.2971C47.0747 77.2524 46.9435 76.978 47.0895 76.7482C47.6784 75.8223 48.191 74.0285 46.5362 73.8031C45.0367 73.5986 44.2313 75.3758 44.5257 76.6027C45.1888 79.3637 48.7498 78.2546 49.8854 76.547C51.1062 74.7107 50.2268 72.1814 48.3648 71.1563C46.3225 70.032 41.9981 71.4873 42.3814 74.3872C42.388 74.4378 42.3197 74.477 42.2857 74.4313Z" fill="#9D7C6B"/>
</svg>
