<svg width="70" height="112" viewBox="0 0 70 112" fill="none" xmlns="http://www.w3.org/2000/svg">
<path d="M86.2257 101.655C83.9084 94.2279 78.2257 90.0295 75.9371 87.9224C73.86 86.0104 72.9417 82.9322 72.2175 80.2431C72.1604 80.0312 72.118 80.4942 72.1547 80.7126C72.3633 81.9476 72.8364 82.6981 73.2909 83.6867C73.7451 84.6753 74.1809 85.9021 74.9692 86.9053C75.1362 87.1177 76.3288 89.1501 76.5111 89.3475C76.1535 89.1575 73.9437 87.6662 73.5876 87.4756C72.3183 86.5251 71.0744 85.5445 69.9358 84.4425C65.5622 80.2098 62.5937 74.5696 58.5734 69.9818C54.2303 65.0252 51.0023 59.3337 48.7461 53.1449C48.6578 52.9033 48.3148 53.0413 48.3776 53.2814C49.8205 58.8045 52.3124 63.8394 55.8463 68.3357C57.6541 70.6354 59.7198 72.7164 61.4779 75.0566C63.2553 77.4224 64.7725 79.9756 66.6034 82.3025C66.9585 82.7538 67.3331 83.1796 67.7154 83.5954C64.5056 81.0834 61.4729 78.3311 58.2103 75.885C58.0233 75.7447 57.7909 76.0151 57.9752 76.1645C61.4462 78.9791 64.533 82.2415 67.966 85.1065C69.5878 86.4598 71.5855 87.4194 73.3588 88.5913C75.2643 89.8505 77.1061 91.2171 78.768 92.7881C81.1105 95.0019 83.0003 97.6941 84.1869 100.697C85.5005 104.021 85.7583 107.616 86.3492 111.11C86.391 111.356 86.4691 111.648 86.707 111.726C86.9159 111.794 87.1451 111.643 87.241 111.445C87.3369 111.248 87.3325 111.019 87.3246 110.799C87.2203 107.933 87.0901 104.426 86.2257 101.655Z" fill="#9D7C6B"/>
<path d="M1.19429 42.9673C5.22617 47.3513 7.61234 52.8798 11.4263 57.5515C15.2366 62.1958 20.1782 65.9417 25.7469 68.2344C31.3359 70.5256 37.2862 71.3497 43.0933 72.5103C48.8976 73.6184 54.7627 75.0575 59.8365 78.0903L61.1057 78.8489L60.2559 77.6284C56.879 72.7784 53.2444 68.0764 49.0918 63.8288C47.023 61.7006 44.8402 59.6737 42.4998 57.8254C40.1437 55.9747 37.6781 54.3654 35.1647 52.7698C32.6377 51.2098 29.9909 49.7723 27.187 48.7368C24.3933 47.681 21.5244 46.8922 18.6475 46.1991C12.8796 44.8672 7.06672 43.8502 1.24661 42.8701L1.22427 42.9833C6.97223 44.3155 12.7386 45.5829 18.4277 47.0727C21.2672 47.8278 24.0789 48.6748 26.7807 49.7694C29.4853 50.8571 32.0626 52.2179 34.5364 53.7795C37.0005 55.3449 39.449 57.0146 41.758 58.7744C44.072 60.5525 46.2479 62.5189 48.3178 64.5929C52.4538 68.7467 56.2566 73.2521 59.7356 77.9985L60.1548 77.5368C54.8753 74.6087 48.964 73.3461 43.1716 72.1212C37.3623 70.9374 31.5015 69.7279 26.1207 67.3561C20.7546 65.0073 15.907 61.4585 12.107 56.9843C8.29868 52.534 5.62265 47.0272 1.27641 42.8862L1.19429 42.9673Z" fill="#9D7C6B"/>
<path d="M2.50955 43.3136C10.4485 50.2616 17.2946 58.308 27.2104 62.516C32.3247 64.6867 37.6469 66.3368 42.781 68.4672C48.2334 70.7304 53.385 73.4377 58.3567 76.6146C58.6131 76.7783 58.8933 76.3432 58.6456 76.1651C49.6692 69.7034 39.0478 66.6135 28.8914 62.597C18.275 58.3986 11.2814 50.1824 2.62711 43.1736C2.53566 43.0997 2.42098 43.236 2.50955 43.3136Z" fill="#9D7C6B"/>
<path d="M1.32173 43.1803C6.40489 44.784 10.5469 47.8943 15.0297 50.6603C19.8167 53.614 25.0089 55.7824 30.1153 58.1064C40.6264 62.8904 49.9733 69.3667 58.7808 76.7951C59.0328 77.0077 59.3612 76.6174 59.11 76.4035C50.2719 68.8804 40.9557 62.3984 30.3557 57.5993C25.1014 55.2202 19.7584 52.9957 14.851 49.9354C10.4896 47.2157 6.42549 44.2269 1.36826 42.9286C1.20576 42.8869 1.1689 43.1318 1.32173 43.1803Z" fill="#9D7C6B"/>
<path d="M4.1209 43.7347C14.1365 47.2707 24.2827 50.7246 33.5606 55.9753C43.1233 61.3868 51.0001 68.9124 58.6029 76.7368C58.839 76.9795 59.2732 76.5866 59.0432 76.3321C51.9547 68.4848 43.8879 61.2276 34.6856 55.9481C25.1253 50.4634 14.6257 46.9237 4.18225 43.5454C4.07483 43.5104 4.01379 43.6969 4.1209 43.7347Z" fill="#9D7C6B"/>
<path d="M1.39024 43.1745C9.20002 51.985 15.9655 60.9112 27.0184 65.822C37.4628 70.463 49.2281 71.3115 59.0988 77.2907C59.3142 77.4212 59.5479 77.0611 59.3387 76.9169C50.4061 70.7683 39.0661 70.0734 29.184 66.1154C23.219 63.7263 17.9637 60.4633 13.3785 55.9517C9.21373 51.8534 5.57964 47.255 1.49687 43.0761C1.43967 43.0174 1.33484 43.1119 1.39024 43.1745Z" fill="#9D7C6B"/>
<path d="M0.768196 0.337914C3.49368 1.9345 5.25326 4.63985 6.62213 7.4024C8.02676 10.1756 9.09785 13.1436 10.6662 15.9063C13.7692 21.4344 17.8682 26.2828 22.0267 30.9585C24.1019 33.3102 26.2604 35.6109 28.5839 37.7433C30.907 39.8864 33.4719 41.7164 35.9611 43.6125C41.0704 47.255 45.4226 51.7864 49.6102 56.4409L50.1582 57.0496L50.1096 56.2231C49.7231 49.6255 48.3768 43.0422 45.8463 36.8865C43.3193 30.7519 39.5664 25.0072 34.4887 20.626C33.8801 20.0514 33.2092 19.5507 32.5456 19.0421C31.8885 18.5247 31.2179 18.0235 30.5178 17.5708C29.1287 16.6492 27.7097 15.7924 26.2803 14.974C23.4007 13.3534 20.6661 11.6457 18.0563 9.62495C16.7385 8.64114 15.3714 7.6702 13.9409 6.83358C12.5464 5.99615 11.222 5.03183 9.87004 4.08248C8.52371 3.1299 7.10622 2.23161 5.5797 1.56553C4.05397 0.89913 2.44033 0.457884 0.805256 0.230469L0.786407 0.344164C2.39943 0.654021 3.96539 1.17225 5.42249 1.89999C6.88109 2.63033 8.21229 3.57661 9.52264 4.56187C10.8302 5.55099 12.1348 6.57442 13.5333 7.48352C14.9138 8.36345 16.2023 9.34615 17.5057 10.3525C20.0609 12.425 22.8817 14.2763 25.7061 15.9439C27.1084 16.8036 28.5204 17.631 29.8656 18.5436C30.5468 18.9883 31.1923 19.4765 31.8263 19.9809C32.4668 20.4766 33.1145 20.9633 33.7012 21.5239C38.5594 25.8176 42.3163 31.3089 44.8628 37.3026C47.4385 43.2903 48.9855 49.7313 49.5327 56.2625L50.0319 56.0449C47.8512 53.7944 45.6743 51.5328 43.4015 49.3655C41.1256 47.2017 38.6991 45.1916 36.216 43.2797C33.7311 41.3704 31.2728 39.429 29.0536 37.246C26.8202 35.0726 24.7977 32.6929 22.7547 30.3235C18.6965 25.564 14.543 20.8623 11.4304 15.4722C9.85213 12.8053 8.65831 9.90092 7.15096 7.12454C5.67257 4.36684 3.65278 1.69933 0.823418 0.236572L0.768196 0.337914Z" fill="#9D7C6B"/>
<path d="M1.69717 0.814022C7.44028 3.06379 11.5669 9.2683 15.13 14.0502C18.7227 18.8716 22.1278 23.83 26.1281 28.3313C33.8159 36.9824 42.6952 44.6561 48.6063 54.7359C48.7999 55.0657 49.2756 54.7142 49.0866 54.3861C42.9089 43.6792 33.3915 35.6953 25.3522 26.4793C21.2686 21.7976 17.7889 16.6673 13.9687 11.7791C10.7304 7.63614 6.90887 2.45296 1.79575 0.597903C1.65351 0.546223 1.55384 0.757839 1.69717 0.814022Z" fill="#9D7C6B"/>
<path d="M3.94785 1.87916C14.7092 7.39843 20.2306 18.4602 28.4253 26.7953C32.5477 30.9885 37.1881 34.5786 40.7944 39.2713C44.5196 44.1182 47.1654 49.5592 48.9807 55.3796C49.0971 55.7529 49.6458 55.5305 49.5429 55.1617C47.9857 49.574 45.4186 44.3011 41.9901 39.6215C38.4504 34.7903 33.8367 31.1344 29.5951 26.9695C21.0236 18.5529 15.3019 7.01484 4.03143 1.69606C3.91372 1.6405 3.83337 1.82039 3.94785 1.87916Z" fill="#9D7C6B"/>
<path d="M1.76231 0.99447C6.50067 2.41374 10.7353 5.81594 14.8817 8.45286C19.9164 11.6546 24.5878 15.4801 28.8607 19.612C33.7845 24.3728 38.497 29.4745 42.0339 35.3735C45.7863 41.6319 47.1625 48.578 48.9315 55.5591C49.0563 56.0517 49.8018 55.7641 49.6728 55.2718C47.8292 48.2345 46.4197 41.2591 42.6238 34.9436C39.048 28.9942 34.2602 23.8932 29.2509 19.1344C24.814 14.9195 19.7993 11.3772 14.5735 7.83172C10.5398 5.09528 6.4878 2.02563 1.81128 0.706368C1.62912 0.654811 1.58532 0.941634 1.76231 0.99447Z" fill="#9D7C6B"/>
<path d="M1.67722 0.790556C6.52945 3.93992 9.89621 9.82685 12.6745 14.7797C14.9712 18.8741 17.042 22.9427 19.9015 26.7058C23.8588 31.9142 28.4848 36.6571 33.3501 41.0186C38.5634 45.6923 44.759 49.48 48.6923 55.3992C48.925 55.7493 49.4344 55.369 49.2165 55.0172C45.7554 49.4295 40.078 45.8988 35.2103 41.6688C29.5256 36.7286 24.1247 31.2691 19.6646 25.1855C16.9063 21.4226 14.9528 17.2762 12.5839 13.2861C9.82923 8.64673 6.62555 3.31009 1.79205 0.60601C1.68463 0.545939 1.57255 0.722585 1.67722 0.790556Z" fill="#9D7C6B"/>
<path d="M61.9065 26.1685C62.5082 30.3415 61.3389 34.439 60.0264 38.3653C58.7163 42.3034 57.231 46.3176 56.8894 50.5574C56.5069 54.7698 56.9356 59.0229 58.0037 63.0815C59.0686 67.1498 60.9615 70.9388 61.8962 74.9905C61.9249 75.115 62.0492 75.1926 62.1737 75.1638C62.2728 75.1411 62.3422 75.0576 62.3518 74.962L62.3526 74.9534C62.7821 70.67 64.8189 66.8006 66.6477 62.901C67.5584 60.9371 68.4509 58.9411 69.0934 56.8362C69.7426 54.7275 69.9914 52.4921 70.0056 50.3129C70.0442 45.9315 69.3448 41.5935 68.159 37.4088C67.5455 35.3222 66.8306 33.261 65.8861 31.2961C64.9203 29.3586 63.7197 27.4518 61.9776 26.1245C61.9581 26.1093 61.9297 26.1132 61.9148 26.133C61.9003 26.152 61.9057 26.181 61.9238 26.1963C63.5719 27.6006 64.5839 29.555 65.4807 31.4846C66.3473 33.4474 66.9863 35.5038 67.5245 37.579C68.5449 41.746 69.0948 46.0349 69.0771 50.2996C69.0596 52.4407 68.7758 54.5336 68.2033 56.5721C67.6126 58.6125 66.766 60.5869 65.8877 62.5529C64.1339 66.4608 62.2052 70.5044 61.8902 74.9157L62.3465 74.8787C61.2578 70.7993 59.2625 67.0683 58.3151 63.0022C57.302 58.9587 57.167 54.7383 57.6345 50.6354C58.0671 46.51 59.4182 42.5711 60.6798 38.5731C61.295 36.5699 61.8298 34.5258 62.1469 32.4391C62.4426 30.3507 62.4235 28.2066 61.9948 26.1522C61.9898 26.128 61.9659 26.1124 61.9418 26.1174C61.9185 26.1225 61.9032 26.1453 61.9065 26.1685Z" fill="#9D7C6B"/>
<path d="M61.9933 26.3014C64.6619 29.2704 64.0099 34.1337 64.1118 37.8311C64.2387 42.4318 64.3455 46.8425 63.5965 51.4062C62.3126 59.2279 61.0998 67.1018 62.0103 75.042C62.0377 75.2802 62.4144 75.2794 62.3875 75.0382C61.3594 65.8824 63.5866 57.2049 64.588 48.1854C65.0992 43.5832 64.6593 38.8445 64.4289 34.2348C64.2914 31.485 64.3263 28.1735 62.063 26.2302C62.0144 26.1883 61.9501 26.2536 61.9933 26.3014Z" fill="#9D7C6B"/>
<path d="M62.1032 26.4412C64.606 29.7835 66.0759 33.6071 66.8136 37.6955C67.5946 42.0234 68.1428 46.9686 67.7984 51.3782C67.4715 55.5647 65.2769 59.6019 64.1192 63.609C63.0379 67.3508 62.2886 71.1624 61.9391 75.0426C61.9092 75.3751 62.4284 75.3672 62.4582 75.0372C62.8786 70.3918 63.908 65.8602 65.3369 61.4251C66.6458 57.3636 68.4176 53.666 68.3427 49.3155C68.2108 41.6113 67.6864 32.3285 62.2197 26.3494C62.1633 26.2879 62.052 26.3726 62.1032 26.4412Z" fill="#9D7C6B"/>
<path d="M61.9486 26.313C63.7443 29.2676 63.0789 34.0204 62.8348 37.2941C62.5134 41.6058 61.9607 45.8937 61.4746 50.1889C60.5691 58.1912 58.6087 66.4182 61.8101 74.1935C61.8818 74.3679 62.1206 74.2992 62.0904 74.1133C61.7446 71.991 61.1057 69.923 60.7508 67.7966C60.2626 64.8707 60.393 62.3867 60.8963 59.4705C61.5969 55.4124 61.8452 51.2684 62.3209 47.1792C62.8392 42.7246 63.4225 38.2361 63.5073 33.7468C63.5499 31.4873 63.6829 28.0407 62.0927 26.1995C62.0233 26.1191 61.8951 26.2247 61.9486 26.313Z" fill="#9D7C6B"/>
<path d="M61.8708 26.3109C63.3306 30.5848 62.1094 35.6958 61.2556 39.977C60.3494 44.5197 59.3002 49.0252 58.6209 53.6117C58.075 57.296 58.5191 60.8804 59.0314 64.5374C59.5274 68.0795 60.4275 71.9379 62.0613 75.1221C62.1478 75.2904 62.3905 75.1653 62.3526 74.9958C61.5068 71.2091 59.9673 67.717 59.4621 63.8294C59.2311 62.0518 58.9297 60.2576 58.8409 58.4681C58.7071 55.7668 59.2168 53.1265 59.6729 50.4778C60.4224 46.1238 61.4978 41.8351 62.2249 37.4779C62.8344 33.824 63.4287 29.8055 62.1853 26.2207C62.1167 26.0231 61.8023 26.1107 61.8708 26.3109Z" fill="#9D7C6B"/>
<path d="M78.4165 91.4576C73.8068 88.4051 68.8679 85.8426 63.7382 83.7382C58.5916 81.7015 53.2548 79.9709 47.6998 79.3554C44.935 79.0345 42.1182 78.9726 39.3534 79.3897C36.5768 79.7801 33.9365 80.7074 31.3771 81.7363L27.5452 83.3179C26.2978 83.8604 24.9477 84.3363 23.8167 85.1852C21.5241 86.7726 19.4597 88.6263 17.4356 90.5157L16.7317 91.1731L17.7063 91.1171C22.8004 90.8244 27.5982 93.186 32.882 93.5853C35.5233 93.7788 38.1676 93.4808 40.7206 92.9523C43.2716 92.3944 45.7502 91.6321 48.2158 90.9145C50.6818 90.1993 53.148 89.5255 55.6484 89.1221C58.1458 88.7056 60.6966 88.647 63.239 88.8187C68.334 89.1573 73.361 90.3798 78.3709 91.5625L78.4014 91.4512C73.4846 89.9319 68.504 88.4621 63.312 87.9339C60.7221 87.6902 58.0884 87.6801 55.4895 88.0435C52.8854 88.3701 50.3726 89.0811 47.8885 89.7769C42.944 91.1738 38.0039 92.7687 32.9599 92.4787C27.9596 92.1629 22.985 89.9757 17.6548 90.4173L17.9255 91.0183C19.8741 89.0849 21.8629 87.1626 24.0625 85.5377C25.1439 84.7019 26.426 84.237 27.6948 83.6653C28.9574 83.1119 30.2226 82.5649 31.5124 82.0829C34.0812 81.1023 36.7083 80.204 39.4252 79.9698C42.1364 79.6779 44.8857 79.8474 47.5819 80.2722C50.2897 80.6317 52.9603 81.2607 55.5961 82.0012C58.2484 82.6909 60.8367 83.6177 63.4107 84.57C68.5346 86.5481 73.544 88.8538 78.3557 91.5559L78.4165 91.4576Z" fill="#9D7C6B"/>
<path d="M17.7206 90.8141C22.336 87.5996 27.2008 85.1083 32.709 83.8271C37.2255 82.7763 42.0463 82.5748 46.6745 82.4366C57.5251 82.1126 67.9549 86.8563 77.465 91.5357C77.791 91.6961 77.9853 91.1613 77.6591 91.0036C67.6923 86.1879 56.8987 81.4227 45.5705 82.0079C35.5207 82.5268 25.5434 83.889 17.5457 90.6033C17.4085 90.7184 17.5779 90.9136 17.7206 90.8141Z" fill="#9D7C6B"/>
<path d="M17.6562 90.8342C27.8653 88.0456 38.2792 83.9807 49.0335 84.3471C59.3578 84.699 68.9387 87.8983 78.3346 91.9346C78.6693 92.0786 78.864 91.5441 78.5283 91.4027C69.1105 87.4325 59.3676 84.2835 49.0665 83.9366C38.3151 83.5749 27.7302 87.4605 17.6102 90.5827C17.4566 90.6302 17.495 90.8785 17.6562 90.8342Z" fill="#9D7C6B"/>
</svg>
