<svg width="1440" height="488" viewBox="0 0 1440 488" fill="none" xmlns="http://www.w3.org/2000/svg">
<path d="M1475.64 310.443C1469.02 289.222 1452.79 277.226 1446.25 271.206C1440.31 265.743 1437.69 256.948 1435.62 249.265C1435.46 248.659 1435.34 249.982 1435.44 250.606C1436.04 254.135 1437.39 256.279 1438.69 259.104C1439.99 261.928 1441.23 265.434 1443.48 268.3C1443.96 268.907 1447.37 274.713 1447.89 275.278C1446.87 274.735 1440.55 270.474 1439.54 269.929C1435.91 267.213 1432.36 264.412 1429.1 261.263C1416.61 249.17 1408.12 233.055 1396.64 219.947C1384.23 205.785 1375.01 189.524 1368.56 171.841C1368.31 171.151 1367.33 171.545 1367.51 172.232C1371.63 188.012 1378.75 202.397 1388.85 215.244C1394.01 221.814 1399.91 227.76 1404.94 234.446C1410.02 241.206 1414.35 248.501 1419.58 255.149C1420.6 256.438 1421.67 257.655 1422.76 258.843C1413.59 251.666 1404.92 243.802 1395.6 236.813C1395.07 236.412 1394.4 237.185 1394.93 237.612C1404.85 245.653 1413.67 254.975 1423.47 263.16C1428.11 267.027 1433.82 269.769 1438.88 273.117C1444.33 276.715 1449.59 280.619 1454.34 285.108C1461.03 291.433 1466.43 299.125 1469.82 307.704C1473.57 317.202 1474.31 327.473 1476 337.455C1476.12 338.16 1476.34 338.993 1477.02 339.215C1477.62 339.409 1478.27 338.978 1478.55 338.414C1478.82 337.85 1478.81 337.195 1478.78 336.568C1478.49 328.378 1478.11 318.36 1475.64 310.443Z" fill="#9D7C6B"/>
<path d="M1232.7 142.761C1244.22 155.287 1251.04 171.082 1261.93 184.43C1272.82 197.7 1286.94 208.402 1302.85 214.953C1318.82 221.499 1335.82 223.854 1352.41 227.17C1368.99 230.336 1385.75 234.447 1400.25 243.112L1403.87 245.28L1401.45 241.793C1391.8 227.936 1381.41 214.501 1369.55 202.365C1363.64 196.285 1357.4 190.494 1350.71 185.213C1343.98 179.925 1336.94 175.327 1329.76 170.768C1322.54 166.311 1314.97 162.204 1306.96 159.245C1298.98 156.229 1290.78 153.975 1282.56 151.995C1266.08 148.189 1249.48 145.284 1232.85 142.483L1232.78 142.807C1249.21 146.613 1265.68 150.234 1281.94 154.491C1290.05 156.648 1298.08 159.068 1305.8 162.196C1313.53 165.303 1320.89 169.191 1327.96 173.653C1335 178.126 1342 182.896 1348.59 187.924C1355.21 193.005 1361.42 198.623 1367.34 204.549C1379.15 216.417 1390.02 229.289 1399.96 242.85L1401.16 241.531C1386.07 233.165 1369.18 229.558 1352.63 226.058C1336.04 222.676 1319.29 219.22 1303.92 212.443C1288.58 205.732 1274.73 195.593 1263.88 182.81C1253 170.095 1245.35 154.361 1232.93 142.529L1232.7 142.761Z" fill="#9D7C6B"/>
<path d="M1236.46 143.751C1259.14 163.602 1278.7 186.592 1307.03 198.615C1321.64 204.817 1336.85 209.531 1351.52 215.618C1367.1 222.084 1381.81 229.82 1396.02 238.896C1396.75 239.364 1397.55 238.121 1396.84 237.612C1371.2 219.15 1340.85 210.322 1311.83 198.846C1281.5 186.851 1261.52 163.376 1236.79 143.351C1236.53 143.14 1236.2 143.529 1236.46 143.751Z" fill="#9D7C6B"/>
<path d="M1233.06 143.37C1247.59 147.952 1259.42 156.839 1272.23 164.742C1285.9 173.181 1300.74 179.376 1315.33 186.017C1345.36 199.685 1372.07 218.189 1397.23 239.413C1397.95 240.02 1398.89 238.905 1398.17 238.294C1372.92 216.799 1346.3 198.279 1316.02 184.568C1301 177.77 1285.74 171.415 1271.72 162.671C1259.26 154.9 1247.64 146.361 1233.19 142.651C1232.73 142.532 1232.63 143.232 1233.06 143.37Z" fill="#9D7C6B"/>
<path d="M1241.06 144.954C1269.68 155.057 1298.66 164.925 1325.17 179.927C1352.5 195.388 1375 216.89 1396.72 239.246C1397.4 239.939 1398.64 238.816 1397.98 238.089C1377.73 215.668 1354.68 194.933 1328.39 179.849C1301.07 164.179 1271.07 154.065 1241.24 144.413C1240.93 144.313 1240.75 144.846 1241.06 144.954Z" fill="#9D7C6B"/>
<path d="M1233.26 143.355C1255.57 168.527 1274.9 194.031 1306.48 208.062C1336.32 221.321 1369.94 223.746 1398.14 240.829C1398.75 241.202 1399.42 240.173 1398.82 239.761C1373.3 222.194 1340.9 220.208 1312.67 208.9C1295.63 202.074 1280.61 192.751 1267.51 179.861C1255.61 168.151 1245.23 155.013 1233.56 143.073C1233.4 142.905 1233.1 143.176 1233.26 143.355Z" fill="#9D7C6B"/>
<path d="M1231.48 20.9642C1239.27 25.5259 1244.3 33.2555 1248.21 41.1485C1252.22 49.0718 1255.28 57.5519 1259.76 65.4453C1268.63 81.24 1280.34 95.0924 1292.22 108.452C1298.15 115.171 1304.32 121.744 1310.95 127.837C1317.59 133.96 1324.92 139.188 1332.03 144.606C1346.63 155.013 1359.06 167.96 1371.03 181.258L1372.6 182.998L1372.46 180.636C1371.35 161.786 1367.51 142.977 1360.28 125.389C1353.06 107.861 1342.33 91.4478 1327.83 78.9301C1326.09 77.2884 1324.17 75.8579 1322.27 74.4048C1320.4 72.9264 1318.48 71.4945 1316.48 70.2011C1312.51 67.5678 1308.46 65.12 1304.37 62.7816C1296.15 58.1514 1288.33 53.2722 1280.88 47.4986C1277.11 44.6877 1273.2 41.9136 1269.12 39.5233C1265.13 37.1306 1261.35 34.3754 1257.49 31.663C1253.64 28.9413 1249.59 26.3748 1245.23 24.4717C1240.87 22.5677 1236.26 21.307 1231.59 20.6572L1231.53 20.9821C1236.14 21.8674 1240.62 23.348 1244.78 25.4273C1248.95 27.514 1252.75 30.2176 1256.49 33.0326C1260.23 35.8587 1263.96 38.7828 1267.95 41.3802C1271.9 43.8943 1275.58 46.702 1279.3 49.5773C1286.6 55.4986 1294.66 60.7882 1302.73 65.5528C1306.74 68.009 1310.77 70.3731 1314.62 72.9806C1316.56 74.251 1318.41 75.646 1320.22 77.0872C1322.05 78.5034 1323.9 79.8939 1325.58 81.4956C1339.46 93.7634 1350.19 109.453 1357.47 126.578C1364.82 143.685 1369.24 162.088 1370.81 180.749L1372.23 180.127C1366 173.697 1359.78 167.235 1353.29 161.043C1346.79 154.861 1339.86 149.118 1332.76 143.655C1325.66 138.2 1318.64 132.653 1312.3 126.416C1305.92 120.206 1300.14 113.407 1294.3 106.637C1282.7 93.0387 1270.84 79.6054 1261.94 64.2051C1257.44 56.5854 1254.02 48.2871 1249.72 40.3546C1245.49 32.4754 1239.72 24.854 1231.64 20.6747L1231.48 20.9642Z" fill="#9D7C6B"/>
<path d="M1234.13 22.3251C1250.54 28.753 1262.33 46.4802 1272.51 60.1426C1282.78 73.9182 1292.51 88.085 1303.94 100.946C1325.9 125.663 1351.27 147.588 1368.16 176.388C1368.71 177.33 1370.07 176.326 1369.53 175.388C1351.88 144.797 1324.69 121.986 1301.72 95.6545C1290.05 82.2782 1280.11 67.6201 1269.2 53.6539C1259.94 41.8168 1249.03 27.0078 1234.42 21.7076C1234.01 21.5599 1233.73 22.1646 1234.13 22.3251Z" fill="#9D7C6B"/>
<path d="M1240.57 25.3686C1271.31 41.1379 1287.09 72.7429 1310.5 96.5575C1322.28 108.538 1335.54 118.796 1345.84 132.203C1356.48 146.052 1364.04 161.597 1369.23 178.227C1369.56 179.294 1371.13 178.658 1370.84 177.605C1366.39 161.64 1359.05 146.574 1349.26 133.204C1339.14 119.4 1325.96 108.955 1313.84 97.0554C1289.35 73.0079 1273.01 40.042 1240.8 24.8455C1240.47 24.6867 1240.24 25.2007 1240.57 25.3686Z" fill="#9D7C6B"/>
<path d="M1234.32 22.8408C1247.86 26.8958 1259.96 36.6164 1271.81 44.1505C1286.19 53.2982 1299.54 64.2284 1311.75 76.0338C1325.81 89.636 1339.28 104.212 1349.38 121.066C1360.1 138.948 1364.04 158.794 1369.09 178.74C1369.45 180.147 1371.58 179.325 1371.21 177.919C1365.94 157.812 1361.91 137.883 1351.07 119.838C1340.85 102.84 1327.17 88.2657 1312.86 74.669C1300.18 62.6267 1285.86 52.5058 1270.92 42.3758C1259.4 34.5574 1247.82 25.7869 1234.46 22.0176C1233.94 21.8703 1233.82 22.6898 1234.32 22.8408Z" fill="#9D7C6B"/>
<path d="M1234.08 22.2586C1247.94 31.2568 1257.56 48.0766 1265.5 62.2277C1272.06 73.9258 1277.98 85.5504 1286.15 96.3021C1297.45 111.183 1310.67 124.734 1324.57 137.196C1339.47 150.549 1357.17 161.371 1368.41 178.283C1369.07 179.283 1370.53 178.197 1369.9 177.192C1360.02 161.227 1343.79 151.139 1329.89 139.054C1313.64 124.939 1298.21 109.34 1285.47 91.9585C1277.59 81.2073 1272.01 69.3605 1265.24 57.96C1257.37 44.7048 1248.22 29.4573 1234.41 21.7313C1234.1 21.5597 1233.78 22.0644 1234.08 22.2586Z" fill="#9D7C6B"/>
<path d="M1406.16 94.7655C1407.88 106.688 1404.54 118.396 1400.79 129.613C1397.05 140.865 1392.8 152.334 1391.83 164.448C1390.73 176.483 1391.96 188.635 1395.01 200.231C1398.05 211.855 1403.46 222.681 1406.13 234.257C1406.21 234.613 1406.57 234.834 1406.93 234.752C1407.21 234.687 1407.41 234.449 1407.43 234.175L1407.44 234.151C1408.66 221.913 1414.48 210.857 1419.71 199.715C1422.31 194.104 1424.86 188.401 1426.7 182.388C1428.55 176.363 1429.26 169.976 1429.3 163.749C1429.41 151.231 1427.41 138.837 1424.03 126.881C1422.27 120.919 1420.23 115.03 1417.53 109.416C1414.77 103.88 1411.34 98.4321 1406.36 94.6397C1406.31 94.5965 1406.23 94.6075 1406.19 94.6641C1406.14 94.7184 1406.16 94.8012 1406.21 94.8449C1410.92 98.8573 1413.81 104.441 1416.37 109.954C1418.85 115.562 1420.68 121.438 1422.21 127.367C1425.13 139.273 1426.7 151.527 1426.65 163.712C1426.6 169.829 1425.79 175.809 1424.15 181.633C1422.46 187.463 1420.05 193.104 1417.54 198.721C1412.53 209.886 1407.02 221.44 1406.12 234.043L1407.42 233.937C1404.31 222.282 1398.61 211.622 1395.9 200.005C1393.01 188.452 1392.62 176.393 1393.96 164.671C1395.19 152.884 1399.05 141.63 1402.66 130.207C1404.41 124.484 1405.94 118.643 1406.85 112.682C1407.69 106.715 1407.64 100.589 1406.41 94.7188C1406.4 94.6498 1406.33 94.6052 1406.26 94.6194C1406.2 94.6339 1406.15 94.6992 1406.16 94.7655Z" fill="#9D7C6B"/>
<path d="M1406.41 95.146C1414.03 103.629 1412.17 117.524 1412.46 128.088C1412.82 141.233 1413.13 153.835 1410.99 166.874C1407.32 189.222 1403.86 211.719 1406.46 234.405C1406.54 235.086 1407.61 235.083 1407.54 234.394C1404.6 208.235 1410.96 183.442 1413.82 157.672C1415.28 144.523 1414.03 130.984 1413.37 117.813C1412.98 109.956 1413.08 100.495 1406.61 94.9426C1406.47 94.823 1406.29 95.0094 1406.41 95.146Z" fill="#9D7C6B"/>
<path d="M1406.72 95.5457C1413.87 105.095 1418.07 116.02 1420.18 127.701C1422.41 140.066 1423.98 154.195 1423 166.794C1422.06 178.756 1415.79 190.291 1412.48 201.739C1409.39 212.43 1407.25 223.32 1406.26 234.407C1406.17 235.357 1407.65 235.334 1407.74 234.392C1408.94 221.119 1411.88 208.171 1415.96 195.5C1419.7 183.895 1424.77 173.331 1424.55 160.901C1424.17 138.889 1422.68 112.366 1407.06 95.2835C1406.9 95.1076 1406.58 95.3497 1406.72 95.5457Z" fill="#9D7C6B"/>
<path d="M1406.28 95.1804C1411.41 103.622 1409.51 117.201 1408.81 126.555C1407.9 138.874 1406.32 151.125 1404.93 163.397C1402.34 186.261 1396.74 209.767 1405.89 231.982C1406.09 232.48 1406.77 232.284 1406.69 231.753C1405.7 225.689 1403.87 219.78 1402.86 213.705C1401.46 205.345 1401.84 198.248 1403.28 189.916C1405.28 178.321 1405.99 166.482 1407.35 154.798C1408.83 142.071 1410.49 129.247 1410.74 116.42C1410.86 109.964 1411.24 100.117 1406.69 94.8561C1406.5 94.6264 1406.13 94.9283 1406.28 95.1804Z" fill="#9D7C6B"/>
<path d="M1406.06 95.1733C1410.23 107.385 1406.74 121.987 1404.3 134.219C1401.71 147.199 1398.72 160.071 1396.77 173.176C1395.21 183.702 1396.48 193.943 1397.95 204.392C1399.36 214.512 1401.94 225.536 1406.6 234.634C1406.85 235.115 1407.54 234.757 1407.44 234.273C1405.02 223.454 1400.62 213.477 1399.18 202.369C1398.52 197.29 1397.66 192.164 1397.4 187.051C1397.02 179.333 1398.48 171.789 1399.78 164.222C1401.92 151.782 1404.99 139.528 1407.07 127.079C1408.81 116.64 1410.51 105.158 1406.96 94.9157C1406.76 94.3511 1405.86 94.6014 1406.06 95.1733Z" fill="#9D7C6B"/>
<path d="M1436.65 177.724C1438.43 186.328 1436.61 194.904 1434.57 203.305C1433.58 207.54 1432.48 211.786 1431.68 216.147C1430.87 220.517 1430.61 225 1430.69 229.441C1431.02 238.356 1433.24 247.042 1436.49 255.203C1439.86 263.315 1444.27 270.948 1446.99 279.143C1447.13 279.587 1447.61 279.828 1448.06 279.682C1448.41 279.567 1448.63 279.248 1448.64 278.903L1448.64 278.848C1448.9 270.03 1451.68 261.516 1454.19 252.936C1455.45 248.636 1456.72 244.296 1457.67 239.825C1458.75 235.406 1458.98 230.548 1458.62 226.018C1457.97 216.846 1455.66 207.968 1452.34 199.515C1450.7 195.278 1448.65 191.2 1446.24 187.339C1443.81 183.533 1440.85 179.834 1436.89 177.539C1436.81 177.493 1436.71 177.52 1436.67 177.599C1436.63 177.672 1436.65 177.771 1436.72 177.82C1440.34 180.442 1442.66 184.356 1444.77 188.195C1446.85 192.093 1448.42 196.248 1449.88 200.419C1452.66 208.803 1454.57 217.528 1455.21 226.242C1455.94 234.934 1453.53 243.423 1451.25 252.114C1448.97 260.737 1446.59 269.668 1446.94 278.872L1448.59 278.577C1445.33 270.333 1440.63 262.912 1437.53 254.794C1434.38 246.706 1433.25 237.957 1433.41 229.413C1433.37 220.824 1435.25 212.443 1437.04 203.848C1438.73 195.348 1439.99 186.056 1436.97 177.634C1436.94 177.549 1436.84 177.503 1436.75 177.534C1436.68 177.562 1436.63 177.645 1436.65 177.724Z" fill="#9D7C6B"/>
<path d="M1436.92 177.957C1442.89 183.447 1442.51 193.409 1443.43 200.869C1444.58 210.15 1445.65 219.051 1445.01 228.426C1443.93 244.496 1443 260.657 1446.37 276.542C1446.48 277.019 1447.24 276.945 1447.14 276.461C1443.29 258.141 1446.11 240.158 1446.4 221.721C1446.54 212.313 1444.74 202.813 1443.38 193.533C1442.57 187.998 1442 181.293 1437.05 177.799C1436.94 177.725 1436.82 177.869 1436.92 177.957Z" fill="#9D7C6B"/>
<path d="M1437.17 178.218C1442.88 184.495 1446.59 191.945 1448.87 200.072C1451.29 208.675 1453.35 218.572 1453.51 227.558C1453.66 236.09 1450 244.68 1448.43 253.009C1446.97 260.786 1446.19 268.641 1446.23 276.557C1446.23 277.235 1447.28 277.119 1447.28 276.446C1447.23 266.968 1448.44 257.603 1450.47 248.356C1452.34 239.888 1455.2 232.066 1454.21 223.281C1452.46 207.723 1449.6 189.048 1437.39 178.01C1437.26 177.896 1437.05 178.09 1437.17 178.218Z" fill="#9D7C6B"/>
<path d="M1436.83 177.989C1441.04 183.618 1440.61 193.36 1440.75 200.029C1440.93 208.813 1440.64 217.593 1440.49 226.375C1440.2 242.736 1437.83 259.756 1445.81 274.865C1445.98 275.204 1446.45 275.019 1446.36 274.648C1445.25 270.422 1443.55 266.363 1442.43 262.13C1440.87 256.306 1440.66 251.257 1441.11 245.261C1441.74 236.917 1441.45 228.487 1441.62 220.124C1441.81 211.013 1442.12 201.821 1441.42 192.724C1441.07 188.146 1440.67 181.149 1437.1 177.732C1436.95 177.583 1436.71 177.821 1436.83 177.989Z" fill="#9D7C6B"/>
<path d="M1436.67 177.999C1440.45 186.363 1438.97 196.937 1438.07 205.761C1437.12 215.125 1435.86 224.441 1435.38 233.85C1434.99 241.408 1436.58 248.572 1438.32 255.869C1440.01 262.939 1442.57 270.569 1446.49 276.694C1446.7 277.018 1447.17 276.718 1447.06 276.383C1444.61 268.886 1440.83 262.12 1439.05 254.354C1438.24 250.804 1437.29 247.232 1436.76 243.63C1435.97 238.192 1436.49 232.753 1436.9 227.307C1437.57 218.356 1438.92 209.472 1439.55 200.519C1440.08 193.011 1440.5 184.767 1437.29 177.756C1437.12 177.37 1436.5 177.608 1436.67 177.999Z" fill="#9D7C6B"/>
<path d="M1453.33 281.306C1440.16 272.585 1426.05 265.263 1411.4 259.251C1396.69 253.431 1381.44 248.487 1365.57 246.728C1357.67 245.811 1349.62 245.635 1341.72 246.826C1333.79 247.942 1326.25 250.591 1318.93 253.531L1307.99 258.05C1304.42 259.6 1300.57 260.959 1297.33 263.385C1290.78 267.92 1284.89 273.217 1279.1 278.615L1277.09 280.493L1279.88 280.333C1294.43 279.497 1308.14 286.244 1323.23 287.385C1330.78 287.938 1338.34 287.087 1345.63 285.577C1352.92 283.983 1360 281.805 1367.05 279.754C1374.09 277.711 1381.14 275.786 1388.28 274.633C1395.42 273.443 1402.7 273.276 1409.97 273.766C1424.53 274.734 1438.89 278.227 1453.2 281.606L1453.29 281.288C1439.24 276.947 1425.01 272.747 1410.18 271.238C1402.78 270.542 1395.25 270.513 1387.83 271.552C1380.39 272.485 1373.21 274.516 1366.11 276.504C1351.98 280.495 1337.87 285.052 1323.46 284.223C1309.17 283.321 1294.96 277.072 1279.73 278.334L1280.5 280.051C1286.07 274.527 1291.75 269.035 1298.04 264.392C1301.13 262.004 1304.79 260.676 1308.41 259.042C1312.02 257.461 1315.64 255.898 1319.32 254.521C1326.66 251.719 1334.17 249.153 1341.93 248.484C1349.68 247.65 1357.53 248.134 1365.23 249.348C1372.97 250.375 1380.6 252.172 1388.13 254.288C1395.71 256.258 1403.11 258.906 1410.46 261.627C1425.1 267.279 1439.41 273.866 1453.16 281.587L1453.33 281.306Z" fill="#9D7C6B"/>
<path d="M1279.92 279.467C1293.1 270.283 1307 263.165 1322.74 259.504C1335.64 256.502 1349.42 255.926 1362.64 255.532C1393.64 254.606 1423.44 268.159 1450.61 281.529C1451.55 281.987 1452.1 280.459 1451.17 280.009C1422.69 266.25 1391.85 252.635 1359.49 254.307C1330.77 255.789 1302.27 259.681 1279.42 278.865C1279.02 279.194 1279.51 279.752 1279.92 279.467Z" fill="#9D7C6B"/>
<path d="M1279.73 279.526C1308.9 271.558 1338.65 259.944 1369.38 260.991C1398.88 261.996 1426.25 271.137 1453.1 282.67C1454.05 283.081 1454.61 281.554 1453.65 281.15C1426.74 269.806 1398.91 260.809 1369.48 259.818C1338.76 258.785 1308.51 269.887 1279.6 278.807C1279.16 278.943 1279.27 279.652 1279.73 279.526Z" fill="#9D7C6B"/>
<path d="M-20.6448 438.443C-14.0241 417.222 2.2123 405.226 8.75108 399.206C14.6857 393.743 17.3094 384.948 19.3785 377.265C19.5415 376.659 19.6629 377.982 19.558 378.606C18.9618 382.135 17.6102 384.279 16.3118 387.104C15.0139 389.928 13.7687 393.434 11.5164 396.3C11.0393 396.907 7.63206 402.713 7.11118 403.278C8.13268 402.735 14.4465 398.474 15.4638 397.929C19.0906 395.213 22.6445 392.412 25.8976 389.263C38.3936 377.17 46.875 361.055 58.3615 347.947C70.7707 333.785 79.9933 317.524 86.4396 299.841C86.6919 299.151 87.6719 299.545 87.4925 300.232C83.3698 316.012 76.2502 330.397 66.1532 343.244C60.9883 349.814 55.0863 355.76 50.0632 362.446C44.9848 369.206 40.65 376.501 35.4189 383.149C34.4043 384.438 33.334 385.655 32.2417 386.843C41.4124 379.666 50.0775 371.802 59.3991 364.813C59.9334 364.412 60.5973 365.185 60.0709 365.612C50.1535 373.653 41.3342 382.975 31.5258 391.16C26.8919 395.027 21.1842 397.769 16.1177 401.117C10.6735 404.715 5.41117 408.619 0.66268 413.108C-6.02995 419.433 -11.4294 427.125 -14.8196 435.704C-18.5729 445.202 -19.3095 455.473 -20.9977 465.455C-21.1173 466.16 -21.3404 466.993 -22.0201 467.215C-22.6169 467.409 -23.2717 466.978 -23.5459 466.414C-23.8197 465.85 -23.8073 465.195 -23.7847 464.568C-23.4865 456.378 -23.1148 446.36 -20.6448 438.443Z" fill="#9D7C6B"/>
<path d="M222.302 270.761C210.782 283.287 203.964 299.082 193.067 312.43C182.181 325.7 168.062 336.402 152.151 342.953C136.183 349.499 119.182 351.854 102.59 355.17C86.0064 358.336 69.2491 362.447 54.7524 371.112L51.1262 373.28L53.5542 369.793C63.2026 355.936 73.5871 342.501 85.4517 330.365C91.3625 324.285 97.599 318.494 104.286 313.213C111.018 307.925 118.062 303.327 125.243 298.768C132.463 294.311 140.026 290.204 148.037 287.245C156.019 284.229 164.216 281.975 172.435 279.995C188.915 276.189 205.523 273.284 222.152 270.483L222.216 270.807C205.793 274.613 189.318 278.234 173.063 282.491C164.95 284.648 156.917 287.068 149.198 290.196C141.47 293.303 134.107 297.191 127.039 301.653C119.998 306.126 113.003 310.896 106.405 315.924C99.7939 321.005 93.5771 326.623 87.6631 332.549C75.8458 344.417 64.9809 357.289 55.0409 370.85L53.8432 369.531C68.9274 361.165 85.8167 357.558 102.366 354.058C118.964 350.676 135.71 347.22 151.083 340.443C166.415 333.732 180.265 323.593 191.122 310.81C202.003 298.095 209.649 282.361 222.067 270.529L222.302 270.761Z" fill="#9D7C6B"/>
<path d="M218.544 271.751C195.862 291.602 176.301 314.592 147.971 326.615C133.358 332.817 118.152 337.531 103.483 343.618C87.9048 350.084 73.1859 357.82 58.9809 366.896C58.2484 367.364 57.4478 366.121 58.1555 365.612C83.8024 347.15 114.149 338.322 143.168 326.846C173.5 314.851 193.482 291.376 218.208 271.351C218.47 271.14 218.797 271.529 218.544 271.751Z" fill="#9D7C6B"/>
<path d="M221.938 271.37C207.415 275.952 195.58 284.839 182.772 292.742C169.095 301.181 154.26 307.376 139.671 314.017C109.639 327.685 82.9336 346.189 57.7694 367.413C57.0493 368.02 56.1112 366.905 56.8289 366.294C82.0805 344.799 108.698 326.279 138.984 312.568C153.996 305.77 169.262 299.415 183.283 290.671C195.744 282.9 207.356 274.361 221.805 270.651C222.269 270.532 222.375 271.232 221.938 271.37Z" fill="#9D7C6B"/>
<path d="M213.94 272.954C185.324 283.057 156.335 292.925 129.827 307.927C102.505 323.388 79.9997 344.89 58.2773 367.246C57.6029 367.939 56.3623 366.816 57.0194 366.089C77.2722 343.668 100.32 322.933 126.613 307.849C153.928 292.179 183.926 282.065 213.765 272.413C214.072 272.313 214.246 272.846 213.94 272.954Z" fill="#9D7C6B"/>
<path d="M221.742 271.355C199.428 296.527 180.099 322.031 148.519 336.062C118.678 349.321 85.0625 351.746 56.8607 368.829C56.245 369.202 55.5774 368.173 56.1751 367.761C81.6967 350.194 114.097 348.208 142.331 336.9C159.374 330.074 174.389 320.751 187.49 307.861C199.389 296.151 209.772 283.013 221.437 271.073C221.601 270.905 221.9 271.176 221.742 271.355Z" fill="#9D7C6B"/>
<path d="M223.519 148.964C215.732 153.526 210.705 161.255 206.794 169.148C202.78 177.072 199.72 185.552 195.239 193.445C186.373 209.24 174.662 223.092 162.781 236.452C156.852 243.171 150.684 249.744 144.046 255.837C137.408 261.96 130.08 267.188 122.968 272.606C108.37 283.013 95.9352 295.96 83.9706 309.258L82.4048 310.998L82.5438 308.636C83.6481 289.786 87.4947 270.977 94.7246 253.389C101.944 235.861 112.667 219.448 127.175 206.93C128.914 205.288 130.831 203.858 132.727 202.405C134.604 200.926 136.52 199.495 138.52 198.201C142.489 195.568 146.543 193.12 150.627 190.782C158.855 186.151 166.668 181.272 174.125 175.499C177.89 172.688 181.796 169.914 185.883 167.523C189.867 165.131 193.651 162.375 197.514 159.663C201.361 156.941 205.41 154.375 209.772 152.472C214.131 150.568 218.742 149.307 223.413 148.657L223.467 148.982C218.858 149.867 214.384 151.348 210.221 153.427C206.054 155.514 202.25 158.218 198.506 161.033C194.771 163.859 191.043 166.783 187.047 169.38C183.103 171.894 179.422 174.702 175.698 177.577C168.397 183.499 160.338 188.788 152.268 193.553C148.261 196.009 144.227 198.373 140.384 200.981C138.437 202.251 136.593 203.646 134.782 205.087C132.952 206.503 131.101 207.894 129.425 209.496C115.544 221.763 104.81 237.453 97.5346 254.578C90.1754 271.685 85.7554 290.088 84.192 308.749L82.7656 308.127C88.9962 301.697 95.2161 295.235 101.71 289.043C108.212 282.861 115.145 277.118 122.24 271.655C129.339 266.2 136.363 260.653 142.704 254.416C149.085 248.206 154.863 241.407 160.7 234.637C172.296 221.039 184.163 207.605 193.056 192.205C197.565 184.585 200.976 176.287 205.283 168.355C209.507 160.475 215.277 152.854 223.361 148.675L223.519 148.964Z" fill="#9D7C6B"/>
<path d="M220.865 150.325C204.456 156.753 192.666 174.48 182.486 188.143C172.221 201.918 162.492 216.085 151.062 228.946C129.097 253.663 103.728 275.588 86.839 304.388C86.2858 305.33 84.9266 304.326 85.4668 303.388C103.117 272.797 130.31 249.986 153.279 223.654C164.947 210.278 174.889 195.62 185.804 181.654C195.056 169.817 205.974 155.008 220.583 149.708C220.99 149.56 221.275 150.165 220.865 150.325Z" fill="#9D7C6B"/>
<path d="M214.434 153.369C183.688 169.138 167.912 200.743 144.499 224.557C132.721 236.538 119.462 246.796 109.159 260.203C98.5152 274.052 90.9558 289.597 85.7693 306.227C85.4366 307.294 83.8689 306.658 84.163 305.605C88.6119 289.64 95.9467 274.574 105.742 261.204C115.856 247.4 129.038 236.955 141.157 225.055C165.647 201.008 181.994 168.042 214.196 152.845C214.532 152.687 214.762 153.201 214.434 153.369Z" fill="#9D7C6B"/>
<path d="M220.794 150.428C207.256 154.483 195.157 164.203 183.31 171.737C168.926 180.885 155.579 191.815 143.37 203.621C129.302 217.223 115.838 231.799 105.733 248.653C95.0114 266.535 91.0796 286.381 86.0251 306.327C85.6685 307.734 83.5386 306.912 83.9072 305.506C89.1746 285.399 93.2016 265.47 104.047 247.425C114.264 230.427 127.943 215.853 142.255 202.256C154.932 190.214 169.26 180.093 184.191 169.963C195.716 162.144 207.293 153.374 220.654 149.605C221.175 149.457 221.3 150.277 220.794 150.428Z" fill="#9D7C6B"/>
<path d="M220.922 150.259C207.059 159.257 197.439 176.077 189.501 190.228C182.939 201.926 177.023 213.55 168.853 224.302C157.546 239.183 144.329 252.734 130.428 265.196C115.533 278.549 97.8314 289.371 86.5933 306.283C85.9284 307.283 84.473 306.197 85.0956 305.192C94.9845 289.227 111.206 279.139 125.113 267.054C141.355 252.939 156.786 237.34 169.53 219.959C177.411 209.207 182.992 197.361 189.76 185.96C197.631 172.705 206.784 157.457 220.594 149.731C220.901 149.56 221.221 150.064 220.922 150.259Z" fill="#9D7C6B"/>
<path d="M48.8385 222.765C47.1195 234.688 50.4604 246.396 54.2104 257.613C57.9535 268.865 62.1972 280.334 63.1732 292.448C64.266 304.483 63.0411 316.635 59.9896 328.231C56.9468 339.855 51.5386 350.681 48.868 362.257C48.786 362.613 48.4308 362.834 48.0752 362.752C47.7922 362.687 47.5939 362.449 47.5663 362.175L47.5639 362.151C46.3368 349.913 40.5176 338.857 35.2924 327.715C32.6905 322.104 30.1404 316.401 28.3046 310.388C26.4498 304.363 25.7389 297.976 25.6984 291.749C25.588 279.231 27.5863 266.837 30.9742 254.881C32.7273 248.919 34.7697 243.03 37.4684 237.416C40.2277 231.88 43.6579 226.432 48.6356 222.64C48.6913 222.596 48.7723 222.607 48.815 222.664C48.8564 222.718 48.8408 222.801 48.7893 222.845C44.0804 226.857 41.189 232.441 38.6265 237.954C36.1506 243.562 34.3248 249.438 32.7871 255.367C29.8718 267.273 28.3005 279.527 28.3511 291.712C28.4012 297.829 29.212 303.809 30.8477 309.633C32.5356 315.463 34.9543 321.104 37.4638 326.721C42.4746 337.886 47.985 349.44 48.885 362.043L47.5816 361.937C50.692 350.282 56.3929 339.622 59.0998 328.005C61.9944 316.452 62.38 304.393 61.0443 292.671C59.8084 280.884 55.9479 269.63 52.3434 258.207C50.5857 252.484 49.0577 246.643 48.1516 240.682C47.3068 234.715 47.3616 228.589 48.5864 222.719C48.6007 222.65 48.6688 222.605 48.7378 222.619C48.8045 222.634 48.8481 222.699 48.8385 222.765Z" fill="#9D7C6B"/>
<path d="M48.5909 223.146C40.9662 231.629 42.8292 245.524 42.538 256.088C42.1754 269.233 41.8704 281.835 44.0104 294.874C47.6785 317.222 51.1437 339.719 48.5422 362.405C48.4639 363.086 47.3877 363.083 47.4646 362.394C50.4021 336.235 44.0386 311.442 41.1774 285.672C39.717 272.523 40.9736 258.984 41.6322 245.813C42.025 237.956 41.9252 228.495 48.3917 222.943C48.5307 222.823 48.7143 223.009 48.5909 223.146Z" fill="#9D7C6B"/>
<path d="M48.2765 223.546C41.1256 233.095 36.9261 244.02 34.8182 255.701C32.5867 268.066 31.0204 282.195 32.0046 294.794C32.9386 306.756 39.2088 318.291 42.5166 329.739C45.6059 340.43 47.7468 351.32 48.7453 362.407C48.8309 363.357 47.3474 363.334 47.2623 362.392C46.061 349.119 43.1199 336.171 39.0373 323.5C35.2978 311.895 30.2355 301.331 30.4494 288.901C30.8262 266.889 32.3245 240.366 47.9437 223.283C48.1047 223.108 48.4226 223.35 48.2765 223.546Z" fill="#9D7C6B"/>
<path d="M48.7184 223.18C43.5877 231.622 45.4888 245.201 46.1863 254.555C47.1047 266.874 48.6839 279.125 50.0725 291.397C52.6598 314.261 58.2609 337.767 49.114 359.982C48.9093 360.48 48.2269 360.284 48.313 359.753C49.3013 353.689 51.1266 347.78 52.1407 341.705C53.5354 333.345 53.1628 326.248 51.7247 317.916C49.7232 306.321 49.0137 294.482 47.6545 282.798C46.1738 270.071 44.5072 257.247 44.2648 244.42C44.1433 237.964 43.7632 228.117 48.3065 222.856C48.5048 222.626 48.8711 222.928 48.7184 223.18Z" fill="#9D7C6B"/>
<path d="M48.9406 223.173C44.7696 235.385 48.2587 249.987 50.6983 262.219C53.2874 275.199 56.2851 288.071 58.2258 301.176C59.7857 311.702 58.5166 321.943 57.053 332.392C55.6358 342.512 53.0641 353.536 48.3962 362.634C48.1491 363.115 47.4557 362.757 47.5639 362.273C49.9804 351.454 54.3792 341.477 55.8226 330.369C56.4824 325.29 57.3438 320.164 57.5973 315.051C57.9797 307.333 56.5234 299.789 55.2203 292.222C53.0789 279.782 50.0063 267.528 47.9288 255.079C46.1873 244.64 44.4894 233.158 48.042 222.916C48.238 222.351 49.1362 222.601 48.9406 223.173Z" fill="#9D7C6B"/>
<path d="M18.3511 305.724C16.5723 314.328 18.3866 322.904 20.4345 331.305C21.4224 335.54 22.5166 339.786 23.3246 344.147C24.1307 348.517 24.3939 353 24.3056 357.441C23.9789 366.356 21.756 375.042 18.5071 383.203C15.1431 391.315 10.7283 398.948 8.01444 407.143C7.86721 407.587 7.38684 407.828 6.9419 407.682C6.59448 407.567 6.37138 407.248 6.36027 406.903L6.359 406.848C6.10131 398.03 3.31518 389.516 0.812546 380.936C-0.451392 376.636 -1.71723 372.296 -2.6701 367.825C-3.75137 363.406 -3.98326 358.548 -3.6189 354.018C-2.96922 344.846 -0.655722 335.968 2.66043 327.515C4.29618 323.278 6.35479 319.2 8.76025 315.339C11.1915 311.533 14.1474 307.834 18.1063 305.539C18.1854 305.493 18.2862 305.52 18.3317 305.599C18.3745 305.672 18.3455 305.771 18.2783 305.82C14.659 308.442 12.3441 312.356 10.234 316.195C8.14824 320.093 6.57599 324.248 5.122 328.419C2.34283 336.803 0.434261 345.528 -0.207622 354.242C-0.942458 362.934 1.47046 371.423 3.74711 380.114C6.02889 388.737 8.40819 397.668 8.0626 406.872L6.40752 406.577C9.67171 398.333 14.369 390.912 17.4675 382.794C20.6234 374.706 21.7453 365.957 21.5869 357.413C21.6257 348.824 19.7533 340.443 17.9556 331.848C16.2698 323.348 15.0118 314.056 18.0339 305.634C18.0647 305.549 18.1591 305.503 18.2451 305.534C18.3234 305.562 18.3672 305.645 18.3511 305.724Z" fill="#9D7C6B"/>
<path d="M18.0797 305.957C12.1072 311.447 12.4869 321.409 11.5661 328.869C10.4204 338.15 9.35198 347.051 9.98515 356.426C11.0701 372.496 12.0014 388.657 8.62551 404.542C8.52384 405.019 7.76278 404.945 7.86368 404.461C11.712 386.141 8.88518 368.158 8.6021 349.721C8.4581 340.313 10.2623 330.813 11.6201 321.533C12.4294 315.998 12.9987 309.293 17.9523 305.799C18.0585 305.725 18.1758 305.869 18.0797 305.957Z" fill="#9D7C6B"/>
<path d="M17.8292 306.218C12.1214 312.495 8.4091 319.945 6.12647 328.072C3.71082 336.675 1.64581 346.572 1.49084 355.558C1.34305 364.09 5.00161 372.68 6.56909 381.009C8.03321 388.786 8.8122 396.641 8.76896 404.557C8.76572 405.235 7.71708 405.119 7.72032 404.446C7.76771 394.968 6.56171 385.603 4.52764 376.356C2.66499 367.888 -0.203477 360.066 0.787648 351.281C2.54391 335.723 5.39853 317.048 17.6116 306.01C17.7372 305.896 17.9461 306.09 17.8292 306.218Z" fill="#9D7C6B"/>
<path d="M18.1671 305.989C13.9638 311.618 14.3918 321.36 14.2523 328.029C14.0697 336.813 14.3591 345.593 14.5119 354.375C14.7971 370.736 17.1728 387.756 9.19469 402.865C9.01567 403.204 8.54592 403.019 8.64302 402.648C9.75283 398.422 11.4452 394.363 12.5734 390.13C14.1263 384.306 14.3426 379.257 13.8876 373.261C13.2554 364.917 13.554 356.487 13.3819 348.124C13.1946 339.013 12.8817 329.821 13.5785 320.724C13.9285 316.146 14.3251 309.149 17.8975 305.732C18.0534 305.583 18.2926 305.821 18.1671 305.989Z" fill="#9D7C6B"/>
<path d="M18.3253 305.999C14.5468 314.363 16.0283 324.937 16.9283 333.761C17.8835 343.125 19.1351 352.441 19.6229 361.85C20.0144 369.408 18.4237 376.572 16.6808 383.869C14.9931 390.939 12.427 398.569 8.50673 404.694C8.29966 405.018 7.83265 404.718 7.9422 404.383C10.3851 396.886 14.1731 390.12 15.9465 382.354C16.7578 378.804 17.7134 375.232 18.2397 371.63C19.0321 366.192 18.5112 360.753 18.1008 355.307C17.4263 346.356 16.0795 337.472 15.4511 328.519C14.9237 321.011 14.4986 312.767 17.7065 305.756C17.8831 305.37 18.502 305.608 18.3253 305.999Z" fill="#9D7C6B"/>
<path d="M1.66699 409.306C14.8376 400.585 28.9486 393.263 43.605 387.251C58.3095 381.431 73.5576 376.487 89.4291 374.728C97.3285 373.811 105.377 373.635 113.276 374.826C121.209 375.942 128.753 378.591 136.065 381.531L147.014 386.05C150.578 387.6 154.435 388.959 157.666 391.385C164.217 395.92 170.115 401.217 175.898 406.615L177.909 408.493L175.125 408.333C160.57 407.497 146.862 414.244 131.766 415.385C124.219 415.938 116.664 415.087 109.369 413.577C102.081 411.983 94.9993 409.805 87.9548 407.754C80.909 405.711 73.8627 403.786 66.7188 402.633C59.5832 401.443 52.2953 401.276 45.0313 401.766C30.474 402.734 16.1112 406.227 1.79721 409.606L1.71023 409.288C15.7582 404.947 29.9885 400.747 44.8228 399.238C52.2225 398.542 59.7474 398.513 67.1729 399.552C74.613 400.485 81.7924 402.516 88.8897 404.504C103.017 408.495 117.132 413.052 131.543 412.223C145.829 411.321 160.043 405.072 175.272 406.334L174.498 408.051C168.931 402.527 163.249 397.035 156.964 392.392C153.874 390.004 150.211 388.676 146.586 387.042C142.979 385.461 139.364 383.898 135.679 382.521C128.339 379.719 120.833 377.153 113.071 376.484C105.324 375.65 97.4692 376.134 89.7658 377.348C82.0293 378.375 74.3991 380.172 66.8683 382.288C59.2901 384.258 51.8949 386.906 44.5408 389.627C29.901 395.279 15.5884 401.866 1.8406 409.587L1.66699 409.306Z" fill="#9D7C6B"/>
<path d="M175.084 407.467C161.897 398.283 147.997 391.165 132.26 387.504C119.355 384.502 105.582 383.926 92.3582 383.532C61.3565 382.606 31.5571 396.159 4.38536 409.529C3.45407 409.987 2.89881 408.459 3.83087 408.009C32.3074 394.25 63.1463 380.635 95.5124 382.307C124.226 383.789 152.733 387.681 175.583 406.865C175.975 407.194 175.491 407.752 175.084 407.467Z" fill="#9D7C6B"/>
<path d="M175.268 407.526C146.099 399.558 116.345 387.944 85.6189 388.991C56.1208 389.996 28.7467 399.137 1.90128 410.67C0.945168 411.081 0.388861 409.554 1.34778 409.15C28.2558 397.806 56.0928 388.809 85.5246 387.818C116.243 386.785 146.485 397.887 175.4 406.807C175.838 406.943 175.729 407.652 175.268 407.526Z" fill="#9D7C6B"/>
</svg>
