<svg width="67" height="112" viewBox="0 0 67 112" fill="none" xmlns="http://www.w3.org/2000/svg">
<path d="M-19.2257 101.655C-16.9084 94.2279 -11.2257 90.0295 -8.9371 87.9224C-6.85997 86.0104 -5.94169 82.9322 -5.21749 80.2431C-5.16045 80.0312 -5.11797 80.4942 -5.15469 80.7126C-5.36335 81.9476 -5.83639 82.6981 -6.29085 83.6867C-6.74512 84.6753 -7.18095 85.9021 -7.96924 86.9053C-8.13624 87.1177 -9.32876 89.1501 -9.51106 89.3475C-9.15354 89.1575 -6.94371 87.6662 -6.58764 87.4756C-5.31826 86.5251 -4.07441 85.5445 -2.93583 84.4425C1.43777 80.2098 4.40628 74.5696 8.42657 69.9818C12.7697 65.0252 15.9977 59.3337 18.2539 53.1449C18.3422 52.9033 18.6852 53.0413 18.6224 53.2814C17.1795 58.8045 14.6876 63.8394 11.1537 68.3357C9.34595 70.6354 7.28023 72.7164 5.52214 75.0566C3.7447 77.4224 2.22751 79.9756 0.396622 82.3025C0.0415344 82.7538 -0.333071 83.1796 -0.715378 83.5954C2.49438 81.0834 5.52714 78.3311 8.78972 75.885C8.97671 75.7447 9.20907 76.0151 9.02484 76.1645C5.55376 78.9791 2.46701 82.2415 -0.96595 85.1065C-2.58781 86.4598 -4.58552 87.4194 -6.3588 88.5913C-8.26425 89.8505 -10.1061 91.2171 -11.768 92.7881C-14.1105 95.0019 -16.0003 97.6941 -17.1869 100.697C-18.5005 104.021 -18.7583 107.616 -19.3492 111.11C-19.391 111.356 -19.4691 111.648 -19.707 111.726C-19.9159 111.794 -20.1451 111.643 -20.241 111.445C-20.3369 111.248 -20.3325 111.019 -20.3246 110.799C-20.2203 107.933 -20.0901 104.426 -19.2257 101.655Z" fill="#9D7C6B"/>
<path d="M65.8057 42.9673C61.7738 47.3513 59.3877 52.8798 55.5737 57.5515C51.7634 62.1958 46.8218 65.9417 41.2531 68.2344C35.6641 70.5256 29.7138 71.3497 23.9067 72.5103C18.1024 73.6184 12.2373 75.0575 7.16347 78.0903L5.89429 78.8489L6.7441 77.6284C10.121 72.7784 13.7556 68.0764 17.9082 63.8288C19.977 61.7006 22.1598 59.6737 24.5002 57.8254C26.8563 55.9747 29.3219 54.3654 31.8353 52.7698C34.3623 51.2098 37.0091 49.7723 39.813 48.7368C42.6067 47.681 45.4756 46.8922 48.3525 46.1991C54.1204 44.8672 59.9333 43.8502 65.7534 42.8701L65.7757 42.9833C60.0278 44.3155 54.2614 45.5829 48.5723 47.0727C45.7328 47.8278 42.9211 48.6748 40.2193 49.7694C37.5147 50.8571 34.9374 52.2179 32.4636 53.7795C29.9995 55.3449 27.551 57.0146 25.242 58.7744C22.928 60.5525 20.7521 62.5189 18.6822 64.5929C14.5462 68.7467 10.7434 73.2521 7.26444 77.9985L6.84525 77.5368C12.1247 74.6087 18.036 73.3461 23.8284 72.1212C29.6377 70.9374 35.4985 69.7279 40.8793 67.3561C46.2454 65.0073 51.093 61.4585 54.893 56.9843C58.7013 52.534 61.3774 47.0272 65.7236 42.8862L65.8057 42.9673Z" fill="#9D7C6B"/>
<path d="M64.4905 43.3136C56.5515 50.2616 49.7054 58.308 39.7896 62.516C34.6753 64.6867 29.3531 66.3368 24.219 68.4672C18.7666 70.7304 13.615 73.4377 8.64327 76.6146C8.38689 76.7783 8.10666 76.3432 8.35435 76.1651C17.3308 69.7034 27.9522 66.6135 38.1086 62.597C48.725 58.3986 55.7186 50.1824 64.3729 43.1736C64.4643 43.0997 64.579 43.236 64.4905 43.3136Z" fill="#9D7C6B"/>
<path d="M65.6783 43.1803C60.5951 44.784 56.4531 47.8943 51.9703 50.6603C47.1833 53.614 41.9911 55.7824 36.8847 58.1064C26.3736 62.8904 17.0267 69.3667 8.21922 76.7951C7.9672 77.0077 7.63883 76.6174 7.89005 76.4035C16.7281 68.8804 26.0443 62.3984 36.6443 57.5993C41.8986 55.2202 47.2416 52.9957 52.149 49.9354C56.5104 47.2157 60.5745 44.2269 65.6317 42.9286C65.7942 42.8869 65.8311 43.1318 65.6783 43.1803Z" fill="#9D7C6B"/>
<path d="M62.8791 43.7347C52.8635 47.2707 42.7173 50.7246 33.4394 55.9753C23.8767 61.3868 15.9999 68.9124 8.39707 76.7368C8.16102 76.9795 7.72681 76.5866 7.95679 76.3321C15.0453 68.4848 23.1121 61.2276 32.3144 55.9481C41.8747 50.4634 52.3743 46.9237 62.8178 43.5454C62.9252 43.5104 62.9862 43.6969 62.8791 43.7347Z" fill="#9D7C6B"/>
<path d="M65.6098 43.1745C57.8 51.985 51.0345 60.9112 39.9816 65.822C29.5372 70.463 17.7719 71.3115 7.90125 77.2907C7.68577 77.4212 7.4521 77.0611 7.66128 76.9169C16.5939 70.7683 27.9339 70.0734 37.816 66.1154C43.781 63.7263 49.0363 60.4633 53.6215 55.9517C57.7863 51.8534 61.4204 47.255 65.5031 43.0761C65.5603 43.0174 65.6652 43.1119 65.6098 43.1745Z" fill="#9D7C6B"/>
<path d="M66.2318 0.337914C63.5063 1.9345 61.7467 4.63985 60.3779 7.4024C58.9732 10.1756 57.9021 13.1436 56.3338 15.9063C53.2308 21.4344 49.1318 26.2828 44.9733 30.9585C42.8981 33.3102 40.7396 35.6109 38.4161 37.7433C36.093 39.8864 33.5281 41.7164 31.0389 43.6125C25.9296 47.255 21.5774 51.7864 17.3898 56.4409L16.8418 57.0496L16.8904 56.2231C17.2769 49.6255 18.6232 43.0422 21.1537 36.8865C23.6807 30.7519 27.4336 25.0072 32.5113 20.626C33.1199 20.0514 33.7908 19.5507 34.4544 19.0421C35.1115 18.5247 35.7821 18.0235 36.4822 17.5708C37.8713 16.6492 39.2903 15.7924 40.7197 14.974C43.5993 13.3534 46.3339 11.6457 48.9437 9.62495C50.2615 8.64114 51.6286 7.6702 53.0591 6.83358C54.4536 5.99615 55.778 5.03183 57.13 4.08248C58.4763 3.1299 59.8938 2.23161 61.4203 1.56553C62.946 0.89913 64.5597 0.457884 66.1947 0.230469L66.2136 0.344164C64.6006 0.654021 63.0346 1.17225 61.5775 1.89999C60.1189 2.63033 58.7877 3.57661 57.4774 4.56187C56.1698 5.55099 54.8652 6.57442 53.4667 7.48352C52.0862 8.36345 50.7977 9.34615 49.4943 10.3525C46.9391 12.425 44.1183 14.2763 41.2939 15.9439C39.8916 16.8036 38.4796 17.631 37.1344 18.5436C36.4532 18.9883 35.8077 19.4765 35.1737 19.9809C34.5332 20.4766 33.8855 20.9633 33.2988 21.5239C28.4406 25.8176 24.6837 31.3089 22.1372 37.3026C19.5615 43.2903 18.0145 49.7313 17.4673 56.2625L16.9681 56.0449C19.1488 53.7944 21.3257 51.5328 23.5985 49.3655C25.8744 47.2017 28.3009 45.1916 30.784 43.2797C33.2689 41.3704 35.7272 39.429 37.9464 37.246C40.1798 35.0726 42.2023 32.6929 44.2453 30.3235C48.3035 25.564 52.457 20.8623 55.5696 15.4722C57.1479 12.8053 58.3417 9.90092 59.849 7.12454C61.3274 4.36684 63.3472 1.69933 66.1766 0.236572L66.2318 0.337914Z" fill="#9D7C6B"/>
<path d="M65.3028 0.814022C59.5597 3.06379 55.4331 9.2683 51.87 14.0502C48.2773 18.8716 44.8722 23.83 40.8719 28.3313C33.1841 36.9824 24.3048 44.6561 18.3937 54.7359C18.2001 55.0657 17.7244 54.7142 17.9134 54.3861C24.0911 43.6792 33.6085 35.6953 41.6478 26.4793C45.7314 21.7976 49.2111 16.6673 53.0313 11.7791C56.2696 7.63614 60.0911 2.45296 65.2042 0.597903C65.3465 0.546223 65.4462 0.757839 65.3028 0.814022Z" fill="#9D7C6B"/>
<path d="M63.0521 1.87916C52.2908 7.39843 46.7694 18.4602 38.5747 26.7953C34.4523 30.9885 29.8119 34.5786 26.2056 39.2713C22.4804 44.1182 19.8346 49.5592 18.0193 55.3796C17.9029 55.7529 17.3542 55.5305 17.4571 55.1617C19.0143 49.574 21.5814 44.3011 25.0099 39.6215C28.5496 34.7903 33.1633 31.1344 37.4049 26.9695C45.9764 18.5529 51.6981 7.01484 62.9686 1.69606C63.0863 1.6405 63.1666 1.82039 63.0521 1.87916Z" fill="#9D7C6B"/>
<path d="M65.2377 0.99447C60.4993 2.41374 56.2647 5.81594 52.1183 8.45286C47.0836 11.6546 42.4122 15.4801 38.1393 19.612C33.2155 24.3728 28.503 29.4745 24.9661 35.3735C21.2137 41.6319 19.8375 48.578 18.0685 55.5591C17.9437 56.0517 17.1982 55.7641 17.3272 55.2718C19.1708 48.2345 20.5803 41.2591 24.3762 34.9436C27.952 28.9942 32.7398 23.8932 37.7491 19.1344C42.186 14.9195 47.2007 11.3772 52.4265 7.83172C56.4602 5.09528 60.5122 2.02563 65.1887 0.706368C65.3709 0.654811 65.4147 0.941634 65.2377 0.99447Z" fill="#9D7C6B"/>
<path d="M65.3228 0.790556C60.4706 3.93992 57.1038 9.82685 54.3255 14.7797C52.0288 18.8741 49.958 22.9427 47.0985 26.7058C43.1412 31.9142 38.5152 36.6571 33.6499 41.0186C28.4366 45.6923 22.241 49.48 18.3077 55.3992C18.075 55.7493 17.5656 55.369 17.7835 55.0172C21.2446 49.4295 26.922 45.8988 31.7897 41.6688C37.4744 36.7286 42.8753 31.2691 47.3354 25.1855C50.0937 21.4226 52.0472 17.2762 54.4161 13.2861C57.1708 8.64673 60.3745 3.31009 65.208 0.60601C65.3154 0.545939 65.4274 0.722585 65.3228 0.790556Z" fill="#9D7C6B"/>
<path d="M5.09346 26.1685C4.49181 30.3415 5.66113 34.439 6.97364 38.3653C8.28372 42.3034 9.76902 46.3176 10.1106 50.5574C10.4931 54.7698 10.0644 59.0229 8.99634 63.0815C7.93137 67.1498 6.03849 70.9388 5.10377 74.9905C5.0751 75.115 4.95078 75.1926 4.8263 75.1638C4.72725 75.1411 4.65785 75.0576 4.64818 74.962L4.64737 74.9534C4.21786 70.67 2.18114 66.8006 0.352341 62.901C-0.558353 60.9371 -1.45086 58.9411 -2.09341 56.8362C-2.74258 54.7275 -2.99138 52.4921 -3.00556 50.3129C-3.04422 45.9315 -2.3448 41.5935 -1.15904 37.4088C-0.545457 35.3222 0.169394 33.261 1.11393 31.2961C2.0797 29.3586 3.28027 27.4518 5.02244 26.1245C5.04193 26.1093 5.07028 26.1132 5.08524 26.133C5.09974 26.152 5.09427 26.181 5.07623 26.1963C3.42812 27.6006 2.41613 29.555 1.51927 31.4846C0.6527 33.4474 0.0136681 35.5038 -0.524514 37.579C-1.54489 41.746 -2.09484 46.0349 -2.07714 50.2996C-2.0596 52.4407 -1.77583 54.5336 -1.20332 56.5721C-0.612567 58.6125 0.233993 60.5869 1.11233 62.5529C2.86609 66.4608 4.79475 70.5044 5.10975 74.9157L4.65354 74.8787C5.74219 70.7993 7.73752 67.0683 8.6849 63.0022C9.69802 58.9587 9.83298 54.7383 9.36548 50.6354C8.93292 46.51 7.58176 42.5711 6.32016 38.5731C5.70498 36.5699 5.17017 34.5258 4.85305 32.4391C4.55737 30.3507 4.57654 28.2066 5.00524 26.1522C5.01023 26.128 5.03405 26.1124 5.05822 26.1174C5.08155 26.1225 5.09683 26.1453 5.09346 26.1685Z" fill="#9D7C6B"/>
<path d="M5.00671 26.3014C2.33807 29.2704 2.99012 34.1337 2.88819 37.8311C2.76128 42.4318 2.65452 46.8425 3.40353 51.4062C4.68738 59.2279 5.90018 67.1018 4.98966 75.042C4.96227 75.2802 4.5856 75.2794 4.6125 75.0382C5.64063 65.8824 3.4134 57.2049 2.412 48.1854C1.90084 43.5832 2.34065 38.8445 2.57115 34.2348C2.70864 31.485 2.67369 28.1735 4.93699 26.2302C4.98562 26.1883 5.04988 26.2536 5.00671 26.3014Z" fill="#9D7C6B"/>
<path d="M4.89679 26.4412C2.39399 29.7835 0.924147 33.6071 0.186408 37.6955C-0.594645 42.0234 -1.14284 46.9686 -0.798362 51.3782C-0.471451 55.5647 1.72309 59.6019 2.88084 63.609C3.96207 67.3508 4.7114 71.1624 5.06088 75.0426C5.09083 75.3751 4.57162 75.3672 4.54185 75.0372C4.12137 70.3918 3.09199 65.8602 1.66307 61.4251C0.354243 57.3636 -1.41756 53.666 -1.34267 49.3155C-1.21079 41.6113 -0.686416 32.3285 4.78033 26.3494C4.83667 26.2879 4.94795 26.3726 4.89679 26.4412Z" fill="#9D7C6B"/>
<path d="M5.05143 26.313C3.25568 29.2676 3.92107 34.0204 4.1652 37.2941C4.48664 41.6058 5.03935 45.8937 5.52536 50.1889C6.43091 58.1912 8.39131 66.4182 5.1899 74.1935C5.11824 74.3679 4.87941 74.2992 4.90956 74.1133C5.25544 71.991 5.8943 69.923 6.24924 67.7966C6.73739 64.8707 6.60696 62.3867 6.10365 59.4705C5.40312 55.4124 5.15479 51.2684 4.67907 47.1792C4.16082 42.7246 3.57752 38.2361 3.49267 33.7468C3.45015 31.4873 3.31713 28.0407 4.90727 26.1995C4.97669 26.1191 5.10488 26.2247 5.05143 26.313Z" fill="#9D7C6B"/>
<path d="M5.12923 26.3109C3.66938 30.5848 4.89057 35.6958 5.74442 39.977C6.65061 44.5197 7.69981 49.0252 8.37907 53.6117C8.92501 57.296 8.48086 60.8804 7.96856 64.5374C7.47256 68.0795 6.57247 71.9379 4.93871 75.1221C4.85223 75.2904 4.60953 75.1653 4.64738 74.9958C5.49318 71.2091 7.03274 67.717 7.53795 63.8294C7.76888 62.0518 8.07035 60.2576 8.15909 58.4681C8.29291 55.7668 7.78321 53.1265 7.32714 50.4778C6.57764 46.1238 5.50223 41.8351 4.7751 37.4779C4.1656 33.824 3.57134 29.8055 4.81473 26.2207C4.88334 26.0231 5.1977 26.1107 5.12923 26.3109Z" fill="#9D7C6B"/>
<path d="M-11.4165 91.4576C-6.8068 88.4051 -1.86794 85.8426 3.26178 83.7382C8.40839 81.7015 13.7452 79.9709 19.3002 79.3554C22.065 79.0345 24.8818 78.9726 27.6466 79.3897C30.4232 79.7801 33.0635 80.7074 35.6229 81.7363L39.4548 83.3179C40.7022 83.8604 42.0523 84.3363 43.1833 85.1852C45.4759 86.7726 47.5403 88.6263 49.5644 90.5157L50.2683 91.1731L49.2937 91.1171C44.1996 90.8244 39.4018 93.186 34.118 93.5853C31.4767 93.7788 28.8324 93.4808 26.2794 92.9523C23.7284 92.3944 21.2498 91.6321 18.7842 90.9145C16.3182 90.1993 13.852 89.5255 11.3516 89.1221C8.85417 88.7056 6.3034 88.647 3.76101 88.8187C-1.33404 89.1573 -6.36102 90.3798 -11.3709 91.5625L-11.4014 91.4512C-6.48456 89.9319 -1.50397 88.4621 3.68804 87.9339C6.27793 87.6902 8.91163 87.6801 11.5105 88.0435C14.1146 88.3701 16.6274 89.0811 19.1115 89.7769C24.056 91.1738 28.9961 92.7687 34.0401 92.4787C39.0404 92.1629 44.015 89.9757 49.3452 90.4173L49.0745 91.0183C47.1259 89.0849 45.1371 87.1626 42.9375 85.5377C41.8561 84.7019 40.574 84.237 39.3052 83.6653C38.0426 83.1119 36.7774 82.5649 35.4876 82.0829C32.9188 81.1023 30.2917 80.204 27.5748 79.9698C24.8636 79.6779 22.1143 79.8474 19.4181 80.2722C16.7103 80.6317 14.0397 81.2607 11.4039 82.0012C8.75157 82.6909 6.16328 83.6177 3.58933 84.57C-1.53458 86.5481 -6.54399 88.8538 -11.3557 91.5559L-11.4165 91.4576Z" fill="#9D7C6B"/>
<path d="M49.2794 90.8141C44.664 87.5996 39.7992 85.1083 34.291 83.8271C29.7745 82.7763 24.9537 82.5748 20.3255 82.4366C9.4749 82.1126 -0.954904 86.8563 -10.465 91.5357C-10.791 91.6961 -10.9853 91.1613 -10.6591 91.0036C-0.692273 86.1879 10.1013 81.4227 21.4295 82.0079C31.4793 82.5268 41.4566 83.889 49.4543 90.6033C49.5915 90.7184 49.4221 90.9136 49.2794 90.8141Z" fill="#9D7C6B"/>
<path d="M49.3438 90.8342C39.1347 88.0456 28.7208 83.9807 17.9665 84.3471C7.64221 84.699 -1.93872 87.8983 -11.3346 91.9346C-11.6693 92.0786 -11.864 91.5441 -11.5283 91.4027C-2.11054 87.4325 7.63241 84.2835 17.9335 83.9366C28.6849 83.5749 39.2698 87.4605 49.3898 90.5827C49.5434 90.6302 49.505 90.8785 49.3438 90.8342Z" fill="#9D7C6B"/>
</svg>
