<svg width="209" height="320" viewBox="0 0 209 320" fill="none" xmlns="http://www.w3.org/2000/svg">
<path d="M244.645 290.443C238.024 269.222 221.788 257.226 215.249 251.206C209.314 245.743 206.691 236.948 204.621 229.265C204.458 228.659 204.337 229.982 204.442 230.606C205.038 234.135 206.39 236.279 207.688 239.104C208.986 241.928 210.231 245.434 212.484 248.3C212.961 248.907 216.368 254.713 216.889 255.278C215.867 254.735 209.554 250.474 208.536 249.929C204.909 247.213 201.356 244.412 198.102 241.263C185.606 229.17 177.125 213.055 165.638 199.947C153.229 185.785 144.007 169.524 137.56 151.841C137.308 151.151 136.328 151.545 136.507 152.232C140.63 168.012 147.75 182.397 157.847 195.244C163.012 201.814 168.914 207.76 173.937 214.446C179.015 221.206 183.35 228.501 188.581 235.149C189.596 236.438 190.666 237.655 191.758 238.843C182.588 231.666 173.923 223.802 164.601 216.813C164.067 216.412 163.403 217.185 163.929 217.612C173.846 225.653 182.666 234.975 192.474 243.16C197.108 247.027 202.816 249.769 207.882 253.117C213.327 256.715 218.589 260.619 223.337 265.108C230.03 271.433 235.429 279.125 238.82 287.704C242.573 297.202 243.31 307.473 244.998 317.455C245.117 318.16 245.34 318.993 246.02 319.215C246.617 319.409 247.272 318.978 247.546 318.414C247.82 317.85 247.807 317.195 247.785 316.568C247.486 308.378 247.115 298.36 244.645 290.443Z" fill="#9D7C6B"/>
<path d="M1.69829 122.761C13.2179 135.287 20.0356 151.082 30.9327 164.43C41.8192 177.7 55.9381 188.402 71.8487 194.953C87.8171 201.499 104.818 203.854 121.41 207.17C137.994 210.336 154.751 214.447 169.248 223.112L172.874 225.28L170.446 221.793C160.797 207.936 150.413 194.501 138.548 182.365C132.637 176.285 126.401 170.494 119.714 165.213C112.982 159.925 105.938 155.327 98.7567 150.768C91.5365 146.311 83.9744 142.204 75.9632 139.245C67.9813 136.229 59.7843 133.975 51.5647 131.995C35.0849 128.189 18.4767 125.284 1.84776 122.483L1.78394 122.807C18.2067 126.613 34.6822 130.234 50.9366 134.491C59.0495 136.648 67.0828 139.068 74.8023 142.196C82.5296 145.303 89.8934 149.191 96.9613 153.653C104.002 158.126 110.997 162.896 117.595 167.924C124.206 173.005 130.423 178.623 136.337 184.549C148.154 196.417 159.019 209.289 168.959 222.85L170.157 221.531C155.073 213.165 138.183 209.558 121.634 206.058C105.035 202.676 88.2902 199.22 72.9166 192.443C57.5848 185.732 43.7347 175.593 32.8776 162.81C21.9965 150.095 14.3507 134.361 1.93291 122.529L1.69829 122.761Z" fill="#9D7C6B"/>
<path d="M5.45572 123.751C28.1385 143.602 47.6987 166.592 76.0294 178.615C90.642 184.817 105.848 189.531 120.517 195.618C136.095 202.084 150.814 209.82 165.019 218.896C165.752 219.364 166.552 218.121 165.845 217.612C140.198 199.15 109.851 190.322 80.8326 178.846C50.4999 166.851 30.5181 143.376 5.79161 123.351C5.53033 123.14 5.20267 123.529 5.45572 123.751Z" fill="#9D7C6B"/>
<path d="M2.06187 123.37C16.5852 127.952 28.4196 136.839 41.2276 144.742C54.9046 153.181 69.7395 159.376 84.3291 166.017C114.361 179.685 141.066 198.189 166.231 219.413C166.951 220.02 167.889 218.905 167.171 218.294C141.92 196.799 115.302 178.279 85.0161 164.568C70.0037 157.77 54.7381 151.415 40.7168 142.671C28.2557 134.9 16.644 126.361 2.19482 122.651C1.73055 122.532 1.62523 123.232 2.06187 123.37Z" fill="#9D7C6B"/>
<path d="M10.0597 124.954C38.6757 135.057 67.6649 144.925 94.173 159.927C121.495 175.388 144 196.89 165.723 219.246C166.397 219.939 167.638 218.816 166.981 218.089C146.728 195.668 123.68 174.933 97.3874 159.849C70.0722 144.179 40.0735 134.065 10.235 124.413C9.92809 124.313 9.75372 124.846 10.0597 124.954Z" fill="#9D7C6B"/>
<path d="M2.25786 123.355C24.5715 148.527 43.9013 174.031 75.4813 188.062C105.322 201.321 138.937 203.746 167.139 220.829C167.755 221.202 168.423 220.173 167.825 219.761C142.303 202.194 109.903 200.208 81.6687 188.9C64.6257 182.074 49.6106 172.751 36.5099 159.861C24.6107 148.151 14.2276 135.013 2.56252 123.073C2.39911 122.905 2.09958 123.176 2.25786 123.355Z" fill="#9D7C6B"/>
<path d="M0.480911 0.964212C8.26802 5.52588 13.2954 13.2555 17.2064 21.1485C21.2197 29.0718 24.2799 37.5519 28.761 45.4453C37.6267 61.24 49.3382 75.0924 61.2195 88.4517C67.1485 95.1709 73.3157 101.744 79.9544 107.837C86.5916 113.96 93.92 119.188 101.032 124.606C115.63 135.013 128.065 147.96 140.029 161.258L141.595 162.998L141.456 160.636C140.352 141.786 136.505 122.977 129.275 105.389C122.056 87.8612 111.333 71.4478 96.8252 58.9301C95.0864 57.2884 93.1695 55.8579 91.2734 54.4048C89.3961 52.9264 87.4801 51.4945 85.4799 50.2011C81.5109 47.5678 77.4568 45.12 73.3727 42.7816C65.1453 38.1514 57.3319 33.2722 49.8755 27.4986C46.1104 24.6877 42.2044 21.9136 38.1172 19.5233C34.133 17.1306 30.3489 14.3754 26.4862 11.663C22.6395 8.94131 18.5896 6.37476 14.2281 4.47168C9.86884 2.56769 5.25844 1.30698 0.586807 0.657227L0.532959 0.98207C5.14159 1.86737 9.61577 3.34802 13.7789 5.4273C17.9463 7.51396 21.7497 10.2176 25.4936 13.0326C29.2295 15.8587 32.9568 18.7828 36.9526 21.3802C40.8968 23.8943 44.5782 26.702 48.3025 29.5773C55.6028 35.4986 63.6623 40.7882 71.7319 45.5528C75.7387 48.009 79.773 50.3731 83.6164 52.9806C85.5627 54.251 87.407 55.646 89.2184 57.0872C91.0483 58.5034 92.899 59.8939 94.5752 61.4956C108.456 73.7634 119.19 89.4527 126.465 106.578C133.825 123.685 138.245 142.088 139.808 160.749L141.234 160.127C135.004 153.697 128.784 147.235 122.29 141.043C115.788 134.861 108.855 129.118 101.76 123.655C94.6607 118.2 87.637 112.653 81.2965 106.416C74.9151 100.206 69.1368 93.4069 63.2996 86.6372C51.7046 73.0387 39.8375 59.6054 30.9442 44.2051C26.435 36.5854 23.0241 28.2871 18.7174 20.3546C14.4934 12.4754 8.7226 4.85397 0.638702 0.674665L0.480911 0.964212Z" fill="#9D7C6B"/>
<path d="M3.13498 2.32508C19.5439 8.75298 31.3341 26.4802 41.5144 40.1426C51.7793 53.9182 61.5081 68.085 72.9376 80.9458C94.9029 105.663 120.272 127.588 137.161 156.388C137.714 157.33 139.073 156.326 138.533 155.388C120.883 124.797 93.6901 101.986 70.7207 75.6545C59.0534 62.2782 49.1115 47.6201 38.1965 33.6539C28.9443 21.8168 18.0256 7.00775 3.41666 1.7076C3.01025 1.55994 2.72548 2.16456 3.13498 2.32508Z" fill="#9D7C6B"/>
<path d="M9.56551 5.3686C40.3123 21.1379 56.0876 52.7429 79.501 76.5575C91.2792 88.5382 104.538 98.7957 114.841 112.203C125.485 126.052 133.044 141.597 138.231 158.227C138.563 159.294 140.131 158.658 139.837 157.605C135.388 141.64 128.053 126.574 118.258 113.204C108.144 99.4003 94.9621 88.955 82.8432 77.0554C58.3533 53.0079 42.0056 20.042 9.80429 4.84548C9.46799 4.68671 9.23842 5.2007 9.56551 5.3686Z" fill="#9D7C6B"/>
<path d="M3.32117 2.84078C16.8594 6.89585 28.9583 16.6164 40.8051 24.1505C55.1899 33.2982 68.5367 44.2284 80.7452 56.0338C94.813 69.636 108.278 84.2122 118.383 101.066C129.104 118.948 133.036 138.794 138.09 158.74C138.447 160.147 140.577 159.325 140.208 157.919C134.941 137.812 130.914 117.883 120.068 99.8384C109.852 82.8401 96.1722 68.2657 81.8601 54.669C69.1832 42.6267 54.8555 32.5058 39.9245 22.3758C28.3997 14.5574 16.8226 5.78695 3.46109 2.01764C2.94064 1.87033 2.81548 2.68982 3.32117 2.84078Z" fill="#9D7C6B"/>
<path d="M3.07774 2.25859C16.9413 11.2568 26.5606 28.0766 34.4986 42.2277C41.0605 53.9258 46.9772 65.5504 55.1472 76.3021C66.4537 91.1834 79.6709 104.734 93.5716 117.196C108.467 130.549 126.169 141.371 137.407 158.283C138.072 159.283 139.527 158.197 138.904 157.192C129.015 141.227 112.794 131.139 98.8865 119.054C82.6446 104.939 67.2134 89.3402 54.4704 71.9585C46.5894 61.2073 41.008 49.3605 34.2396 37.96C26.3692 24.7048 17.2158 9.45725 3.40584 1.73132C3.09892 1.55968 2.7787 2.06439 3.07774 2.25859Z" fill="#9D7C6B"/>
<path d="M175.162 74.7655C176.881 86.6882 173.54 98.3955 169.79 109.613C166.047 120.865 161.803 132.334 160.827 144.448C159.734 156.483 160.959 168.635 164.011 180.231C167.053 191.855 172.462 202.681 175.132 214.257C175.214 214.613 175.569 214.834 175.925 214.752C176.208 214.687 176.406 214.449 176.434 214.175L176.436 214.151C177.663 201.913 183.483 190.857 188.708 179.715C191.31 174.104 193.86 168.401 195.696 162.388C197.55 156.363 198.261 149.976 198.302 143.749C198.412 131.231 196.414 118.837 193.026 106.881C191.273 100.919 189.231 95.0296 186.532 89.4157C183.773 83.88 180.342 78.4321 175.365 74.6397C175.309 74.5965 175.228 74.6075 175.185 74.6641C175.144 74.7184 175.159 74.8012 175.211 74.8449C179.92 78.8573 182.811 84.4413 185.374 89.9545C187.85 95.5625 189.675 101.438 191.213 107.367C194.128 119.273 195.7 131.527 195.649 143.712C195.599 149.829 194.788 155.809 193.153 161.633C191.465 167.463 189.046 173.104 186.536 178.721C181.526 189.886 176.015 201.44 175.115 214.043L176.419 213.937C173.308 202.282 167.607 191.622 164.9 180.005C162.006 168.452 161.62 156.393 162.956 144.671C164.192 132.884 168.052 121.63 171.657 110.207C173.415 104.484 174.943 98.6434 175.849 92.6815C176.693 86.7147 176.639 80.5886 175.414 74.7188C175.4 74.6498 175.331 74.6052 175.262 74.6194C175.196 74.6339 175.152 74.6992 175.162 74.7655Z" fill="#9D7C6B"/>
<path d="M175.409 75.146C183.034 83.6289 181.171 97.5241 181.462 108.088C181.825 121.233 182.13 133.835 179.99 146.874C176.322 169.222 172.857 191.719 175.458 214.405C175.536 215.086 176.613 215.083 176.536 214.394C173.598 188.235 179.962 163.442 182.823 137.672C184.283 124.523 183.027 110.984 182.368 97.813C181.975 89.9564 182.075 80.4949 175.609 74.9426C175.47 74.823 175.286 75.0094 175.409 75.146Z" fill="#9D7C6B"/>
<path d="M175.724 75.5457C182.875 85.0951 187.074 96.0198 189.182 107.701C191.414 120.066 192.98 134.195 191.996 146.794C191.062 158.756 184.792 170.291 181.484 181.739C178.395 192.43 176.254 203.32 175.255 214.407C175.17 215.357 176.653 215.334 176.738 214.392C177.94 201.119 180.881 188.171 184.963 175.5C188.703 163.895 193.765 153.331 193.551 140.901C193.174 118.889 191.676 92.3665 176.057 75.2835C175.896 75.1076 175.578 75.3497 175.724 75.5457Z" fill="#9D7C6B"/>
<path d="M175.282 75.1804C180.413 83.6223 178.511 97.2015 177.814 106.555C176.896 118.874 175.316 131.125 173.928 143.397C171.34 166.261 165.739 189.767 174.886 211.982C175.091 212.48 175.773 212.284 175.687 211.753C174.699 205.689 172.874 199.78 171.86 193.705C170.465 185.345 170.837 178.248 172.276 169.916C174.277 158.321 174.987 146.482 176.346 134.798C177.826 122.071 179.493 109.247 179.735 96.4197C179.857 89.9642 180.237 80.1166 175.694 74.8561C175.495 74.6264 175.129 74.9283 175.282 75.1804Z" fill="#9D7C6B"/>
<path d="M175.06 75.1733C179.231 87.3845 175.742 101.987 173.302 114.219C170.713 127.199 167.715 140.071 165.774 153.176C164.215 163.702 165.484 173.943 166.947 184.392C168.364 194.512 170.936 205.536 175.604 214.634C175.851 215.115 176.545 214.757 176.436 214.273C174.02 203.454 169.621 193.477 168.178 182.369C167.518 177.29 166.656 172.164 166.403 167.051C166.021 159.333 167.477 151.789 168.78 144.222C170.921 131.782 173.994 119.528 176.071 107.079C177.813 96.6395 179.511 85.158 175.958 74.9157C175.762 74.3511 174.864 74.6014 175.06 75.1733Z" fill="#9D7C6B"/>
<path d="M205.649 157.724C207.428 166.328 205.613 174.904 203.565 183.305C202.578 187.54 201.483 191.786 200.675 196.147C199.869 200.517 199.606 205 199.694 209.441C200.021 218.356 202.244 227.042 205.493 235.203C208.857 243.315 213.272 250.948 215.986 259.143C216.133 259.587 216.613 259.828 217.058 259.682C217.406 259.567 217.629 259.248 217.64 258.903L217.641 258.848C217.899 250.03 220.685 241.516 223.187 232.936C224.451 228.636 225.717 224.296 226.67 219.825C227.751 215.406 227.983 210.548 227.619 206.018C226.969 196.846 224.656 187.968 221.34 179.515C219.704 175.278 217.645 171.2 215.24 167.339C212.808 163.533 209.853 159.834 205.894 157.539C205.815 157.493 205.714 157.52 205.668 157.599C205.626 157.672 205.655 157.771 205.722 157.82C209.341 160.442 211.656 164.356 213.766 168.195C215.852 172.093 217.424 176.248 218.878 180.419C221.657 188.803 223.566 197.528 224.208 206.242C224.942 214.934 222.53 223.423 220.253 232.114C217.971 240.737 215.592 249.668 215.937 258.872L217.592 258.577C214.328 250.333 209.631 242.912 206.533 234.794C203.377 226.706 202.255 217.957 202.413 209.413C202.374 200.824 204.247 192.443 206.044 183.848C207.73 175.348 208.988 166.056 205.966 157.634C205.935 157.549 205.841 157.503 205.755 157.534C205.677 157.562 205.633 157.645 205.649 157.724Z" fill="#9D7C6B"/>
<path d="M205.92 157.957C211.893 163.447 211.513 173.409 212.434 180.869C213.58 190.15 214.648 199.051 214.015 208.426C212.93 224.496 211.999 240.657 215.374 256.542C215.476 257.019 216.237 256.945 216.136 256.461C212.288 238.141 215.115 220.158 215.398 201.721C215.542 192.313 213.738 182.813 212.38 173.533C211.571 167.998 211.001 161.293 206.048 157.799C205.941 157.725 205.824 157.869 205.92 157.957Z" fill="#9D7C6B"/>
<path d="M206.171 158.218C211.879 164.495 215.591 171.945 217.874 180.072C220.289 188.675 222.354 198.572 222.509 207.558C222.657 216.09 218.998 224.68 217.431 233.009C215.967 240.786 215.188 248.641 215.231 256.557C215.234 257.235 216.283 257.119 216.28 256.446C216.232 246.968 217.438 237.603 219.472 228.356C221.335 219.888 224.203 212.066 223.212 203.281C221.456 187.723 218.601 169.048 206.388 158.01C206.263 157.896 206.054 158.09 206.171 158.218Z" fill="#9D7C6B"/>
<path d="M205.833 157.989C210.036 163.618 209.608 173.36 209.748 180.029C209.93 188.813 209.641 197.593 209.488 206.375C209.203 222.736 206.827 239.756 214.805 254.865C214.984 255.204 215.454 255.019 215.357 254.648C214.247 250.422 212.555 246.363 211.427 242.13C209.874 236.306 209.657 231.257 210.113 225.261C210.745 216.917 210.446 208.487 210.618 200.124C210.805 191.013 211.118 181.821 210.422 172.724C210.072 168.146 209.675 161.149 206.103 157.732C205.947 157.583 205.707 157.821 205.833 157.989Z" fill="#9D7C6B"/>
<path d="M205.675 157.999C209.453 166.363 207.972 176.937 207.072 185.761C206.116 195.125 204.865 204.441 204.377 213.85C203.986 221.408 205.576 228.572 207.319 235.869C209.007 242.939 211.573 250.569 215.493 256.694C215.7 257.018 216.167 256.718 216.058 256.383C213.615 248.886 209.827 242.12 208.054 234.354C207.242 230.804 206.287 227.232 205.76 223.63C204.968 218.192 205.489 212.753 205.899 207.307C206.574 198.356 207.921 189.472 208.549 180.519C209.076 173.011 209.501 164.767 206.294 157.756C206.117 157.37 205.498 157.608 205.675 157.999Z" fill="#9D7C6B"/>
<path d="M222.333 261.306C209.162 252.585 195.051 245.263 180.395 239.251C165.69 233.431 150.442 228.487 134.571 226.728C126.672 225.811 118.623 225.635 110.724 226.826C102.791 227.942 95.2474 230.591 87.9346 233.531L76.9865 238.05C73.4223 239.6 69.5651 240.959 66.3337 243.385C59.7834 247.92 53.8851 253.217 48.1018 258.615L46.0906 260.493L48.8753 260.333C63.4299 259.497 77.1378 266.244 92.2344 267.385C99.781 267.938 107.336 267.087 114.631 265.577C121.919 263.983 129.001 261.805 136.045 259.754C143.091 257.711 150.137 255.786 157.281 254.633C164.417 253.443 171.705 253.276 178.969 253.766C193.526 254.734 207.889 258.227 222.203 261.606L222.29 261.288C208.242 256.947 194.011 252.747 179.177 251.238C171.777 250.542 164.253 250.513 156.827 251.552C149.387 252.485 142.208 254.516 135.11 256.504C120.983 260.495 106.868 265.052 92.4569 264.223C78.1705 263.321 63.9573 257.072 48.7281 258.334L49.5016 260.051C55.0691 254.527 60.7512 249.035 67.036 244.392C70.1256 242.004 73.7887 240.676 77.414 239.042C81.0213 237.461 84.6362 235.898 88.3213 234.521C95.6607 231.719 103.167 229.153 110.929 228.484C118.676 227.65 126.531 228.134 134.234 229.348C141.971 230.375 149.601 232.172 157.132 234.288C164.71 236.258 172.105 238.906 179.459 241.627C194.099 247.279 208.412 253.866 222.159 261.587L222.333 261.306Z" fill="#9D7C6B"/>
<path d="M48.9162 259.467C62.1033 250.283 76.0027 243.165 91.7403 239.504C104.644 236.502 118.418 235.926 131.642 235.532C162.643 234.606 192.443 248.159 219.615 261.529C220.546 261.987 221.101 260.459 220.169 260.009C191.693 246.25 160.854 232.635 128.488 234.307C99.7737 235.789 71.2672 239.681 48.4165 258.865C48.0244 259.194 48.5085 259.752 48.9162 259.467Z" fill="#9D7C6B"/>
<path d="M48.7317 259.526C77.9007 251.558 107.655 239.944 138.381 240.991C167.879 241.996 195.253 251.137 222.099 262.67C223.055 263.081 223.611 261.554 222.652 261.15C195.744 249.806 167.907 240.809 138.475 239.818C107.757 238.785 77.5146 249.887 48.6004 258.807C48.1615 258.943 48.2711 259.652 48.7317 259.526Z" fill="#9D7C6B"/>
</svg>
