<svg width="224" height="320" viewBox="0 0 224 320" fill="none" xmlns="http://www.w3.org/2000/svg">
<path d="M-20.6448 290.443C-14.0241 269.222 2.2123 257.226 8.75108 251.206C14.6857 245.743 17.3094 236.948 19.3785 229.265C19.5415 228.659 19.6629 229.982 19.558 230.606C18.9618 234.135 17.6102 236.279 16.3118 239.104C15.0139 241.928 13.7687 245.434 11.5164 248.3C11.0393 248.907 7.63206 254.713 7.11118 255.278C8.13268 254.735 14.4465 250.474 15.4638 249.929C19.0906 247.213 22.6445 244.412 25.8976 241.263C38.3936 229.17 46.875 213.055 58.3615 199.947C70.7707 185.785 79.9933 169.524 86.4396 151.841C86.6919 151.151 87.6719 151.545 87.4925 152.232C83.3698 168.012 76.2502 182.397 66.1532 195.244C60.9883 201.814 55.0863 207.76 50.0632 214.446C44.9848 221.206 40.65 228.501 35.4189 235.149C34.4043 236.438 33.334 237.655 32.2417 238.843C41.4124 231.666 50.0775 223.802 59.3991 216.813C59.9334 216.412 60.5973 217.185 60.0709 217.612C50.1535 225.653 41.3342 234.975 31.5258 243.16C26.8919 247.027 21.1842 249.769 16.1177 253.117C10.6735 256.715 5.41117 260.619 0.66268 265.108C-6.02995 271.433 -11.4294 279.125 -14.8196 287.704C-18.5729 297.202 -19.3095 307.473 -20.9977 317.455C-21.1173 318.16 -21.3404 318.993 -22.0201 319.215C-22.6169 319.409 -23.2717 318.978 -23.5459 318.414C-23.8197 317.85 -23.8073 317.195 -23.7847 316.568C-23.4865 308.378 -23.1148 298.36 -20.6448 290.443Z" fill="#9D7C6B"/>
<path d="M222.302 122.761C210.782 135.287 203.964 151.082 193.067 164.43C182.181 177.7 168.062 188.402 152.151 194.953C136.183 201.499 119.182 203.854 102.59 207.17C86.0064 210.336 69.2491 214.447 54.7524 223.112L51.1262 225.28L53.5542 221.793C63.2026 207.936 73.5871 194.501 85.4517 182.365C91.3625 176.285 97.599 170.494 104.286 165.213C111.018 159.925 118.062 155.327 125.243 150.768C132.463 146.311 140.026 142.204 148.037 139.245C156.019 136.229 164.216 133.975 172.435 131.995C188.915 128.189 205.523 125.284 222.152 122.483L222.216 122.807C205.793 126.613 189.318 130.234 173.063 134.491C164.95 136.648 156.917 139.068 149.198 142.196C141.47 145.303 134.107 149.191 127.039 153.653C119.998 158.126 113.003 162.896 106.405 167.924C99.7939 173.005 93.5771 178.623 87.6631 184.549C75.8458 196.417 64.9809 209.289 55.0409 222.85L53.8432 221.531C68.9274 213.165 85.8167 209.558 102.366 206.058C118.964 202.676 135.71 199.22 151.083 192.443C166.415 185.732 180.265 175.593 191.122 162.81C202.003 150.095 209.649 134.361 222.067 122.529L222.302 122.761Z" fill="#9D7C6B"/>
<path d="M218.544 123.751C195.862 143.602 176.301 166.592 147.971 178.615C133.358 184.817 118.152 189.531 103.483 195.618C87.9048 202.084 73.1859 209.82 58.9809 218.896C58.2484 219.364 57.4478 218.121 58.1555 217.612C83.8024 199.15 114.149 190.322 143.168 178.846C173.5 166.851 193.482 143.376 218.208 123.351C218.47 123.14 218.797 123.529 218.544 123.751Z" fill="#9D7C6B"/>
<path d="M221.938 123.37C207.415 127.952 195.58 136.839 182.772 144.742C169.095 153.181 154.26 159.376 139.671 166.017C109.639 179.685 82.9336 198.189 57.7694 219.413C57.0493 220.02 56.1112 218.905 56.8289 218.294C82.0805 196.799 108.698 178.279 138.984 164.568C153.996 157.77 169.262 151.415 183.283 142.671C195.744 134.9 207.356 126.361 221.805 122.651C222.269 122.532 222.375 123.232 221.938 123.37Z" fill="#9D7C6B"/>
<path d="M213.94 124.954C185.324 135.057 156.335 144.925 129.827 159.927C102.505 175.388 79.9997 196.89 58.2773 219.246C57.6029 219.939 56.3623 218.816 57.0194 218.089C77.2722 195.668 100.32 174.933 126.613 159.849C153.928 144.179 183.926 134.065 213.765 124.413C214.072 124.313 214.246 124.846 213.94 124.954Z" fill="#9D7C6B"/>
<path d="M221.742 123.355C199.428 148.527 180.099 174.031 148.519 188.062C118.678 201.321 85.0625 203.746 56.8607 220.829C56.245 221.202 55.5774 220.173 56.1751 219.761C81.6967 202.194 114.097 200.208 142.331 188.9C159.374 182.074 174.389 172.751 187.49 159.861C199.389 148.151 209.772 135.013 221.437 123.073C221.601 122.905 221.9 123.176 221.742 123.355Z" fill="#9D7C6B"/>
<path d="M223.519 0.964212C215.732 5.52588 210.705 13.2555 206.794 21.1485C202.78 29.0718 199.72 37.5519 195.239 45.4453C186.373 61.24 174.662 75.0924 162.781 88.4517C156.852 95.1709 150.684 101.744 144.046 107.837C137.408 113.96 130.08 119.188 122.968 124.606C108.37 135.013 95.9352 147.96 83.9706 161.258L82.4048 162.998L82.5438 160.636C83.6481 141.786 87.4947 122.977 94.7246 105.389C101.944 87.8612 112.667 71.4478 127.175 58.9301C128.914 57.2884 130.831 55.8579 132.727 54.4048C134.604 52.9264 136.52 51.4945 138.52 50.2011C142.489 47.5678 146.543 45.12 150.627 42.7816C158.855 38.1514 166.668 33.2722 174.125 27.4986C177.89 24.6877 181.796 21.9136 185.883 19.5233C189.867 17.1306 193.651 14.3754 197.514 11.663C201.361 8.94131 205.41 6.37476 209.772 4.47168C214.131 2.56769 218.742 1.30698 223.413 0.657227L223.467 0.98207C218.858 1.86737 214.384 3.34802 210.221 5.4273C206.054 7.51396 202.25 10.2176 198.506 13.0326C194.771 15.8587 191.043 18.7828 187.047 21.3802C183.103 23.8943 179.422 26.702 175.698 29.5773C168.397 35.4986 160.338 40.7882 152.268 45.5528C148.261 48.009 144.227 50.3731 140.384 52.9806C138.437 54.251 136.593 55.646 134.782 57.0872C132.952 58.5034 131.101 59.8939 129.425 61.4956C115.544 73.7634 104.81 89.4527 97.5346 106.578C90.1754 123.685 85.7554 142.088 84.192 160.749L82.7656 160.127C88.9962 153.697 95.2161 147.235 101.71 141.043C108.212 134.861 115.145 129.118 122.24 123.655C129.339 118.2 136.363 112.653 142.704 106.416C149.085 100.206 154.863 93.4069 160.7 86.6372C172.296 73.0387 184.163 59.6054 193.056 44.2051C197.565 36.5854 200.976 28.2871 205.283 20.3546C209.507 12.4754 215.277 4.85397 223.361 0.674665L223.519 0.964212Z" fill="#9D7C6B"/>
<path d="M220.865 2.32508C204.456 8.75298 192.666 26.4802 182.486 40.1426C172.221 53.9182 162.492 68.085 151.062 80.9458C129.097 105.663 103.728 127.588 86.839 156.388C86.2858 157.33 84.9266 156.326 85.4668 155.388C103.117 124.797 130.31 101.986 153.279 75.6545C164.947 62.2782 174.889 47.6201 185.804 33.6539C195.056 21.8168 205.974 7.00775 220.583 1.7076C220.99 1.55994 221.275 2.16456 220.865 2.32508Z" fill="#9D7C6B"/>
<path d="M214.434 5.3686C183.688 21.1379 167.912 52.7429 144.499 76.5575C132.721 88.5382 119.462 98.7957 109.159 112.203C98.5152 126.052 90.9558 141.597 85.7693 158.227C85.4366 159.294 83.8689 158.658 84.163 157.605C88.6119 141.64 95.9467 126.574 105.742 113.204C115.856 99.4003 129.038 88.955 141.157 77.0554C165.647 53.0079 181.994 20.042 214.196 4.84548C214.532 4.68671 214.762 5.2007 214.434 5.3686Z" fill="#9D7C6B"/>
<path d="M220.794 2.4277C207.256 6.48276 195.157 16.2033 183.31 23.7374C168.926 32.8851 155.579 43.8153 143.37 55.6207C129.302 69.2229 115.838 83.7991 105.733 100.653C95.0114 118.535 91.0796 138.381 86.0251 158.327C85.6685 159.734 83.5386 158.912 83.9072 157.506C89.1746 137.399 93.2016 117.47 104.047 99.4253C114.264 82.427 127.943 67.8526 142.255 54.256C154.932 42.2136 169.26 32.0928 184.191 21.9627C195.716 14.1443 207.293 5.37386 220.654 1.60455C221.175 1.45725 221.3 2.27674 220.794 2.4277Z" fill="#9D7C6B"/>
<path d="M220.922 2.25859C207.059 11.2568 197.439 28.0766 189.501 42.2277C182.939 53.9258 177.023 65.5504 168.853 76.3021C157.546 91.1834 144.329 104.734 130.428 117.196C115.533 130.549 97.8314 141.371 86.5933 158.283C85.9284 159.283 84.473 158.197 85.0956 157.192C94.9845 141.227 111.206 131.139 125.113 119.054C141.355 104.939 156.786 89.3402 169.53 71.9585C177.411 61.2073 182.992 49.3605 189.76 37.96C197.631 24.7048 206.784 9.45725 220.594 1.73132C220.901 1.55968 221.221 2.06439 220.922 2.25859Z" fill="#9D7C6B"/>
<path d="M48.8385 74.7655C47.1195 86.6882 50.4604 98.3955 54.2104 109.613C57.9535 120.865 62.1972 132.334 63.1732 144.448C64.266 156.483 63.0411 168.635 59.9896 180.231C56.9468 191.855 51.5386 202.681 48.868 214.257C48.786 214.613 48.4308 214.834 48.0752 214.752C47.7922 214.687 47.5939 214.449 47.5663 214.175L47.5639 214.151C46.3368 201.913 40.5176 190.857 35.2924 179.715C32.6905 174.104 30.1404 168.401 28.3046 162.388C26.4498 156.363 25.7389 149.976 25.6984 143.749C25.588 131.231 27.5863 118.837 30.9742 106.881C32.7273 100.919 34.7697 95.0296 37.4684 89.4157C40.2277 83.88 43.6579 78.4321 48.6356 74.6397C48.6913 74.5965 48.7723 74.6075 48.815 74.6641C48.8564 74.7184 48.8408 74.8012 48.7893 74.8449C44.0804 78.8573 41.189 84.4413 38.6265 89.9545C36.1506 95.5625 34.3248 101.438 32.7871 107.367C29.8718 119.273 28.3005 131.527 28.3511 143.712C28.4012 149.829 29.212 155.809 30.8477 161.633C32.5356 167.463 34.9543 173.104 37.4638 178.721C42.4746 189.886 47.985 201.44 48.885 214.043L47.5816 213.937C50.692 202.282 56.3929 191.622 59.0998 180.005C61.9944 168.452 62.38 156.393 61.0443 144.671C59.8084 132.884 55.9479 121.63 52.3434 110.207C50.5857 104.484 49.0577 98.6434 48.1516 92.6815C47.3068 86.7147 47.3616 80.5886 48.5864 74.7188C48.6007 74.6498 48.6688 74.6052 48.7378 74.6194C48.8045 74.6339 48.8481 74.6992 48.8385 74.7655Z" fill="#9D7C6B"/>
<path d="M48.5909 75.146C40.9662 83.6289 42.8292 97.5241 42.538 108.088C42.1754 121.233 41.8704 133.835 44.0104 146.874C47.6785 169.222 51.1437 191.719 48.5422 214.405C48.4639 215.086 47.3877 215.083 47.4646 214.394C50.4021 188.235 44.0386 163.442 41.1774 137.672C39.717 124.523 40.9736 110.984 41.6322 97.813C42.025 89.9564 41.9252 80.4949 48.3917 74.9426C48.5307 74.823 48.7143 75.0094 48.5909 75.146Z" fill="#9D7C6B"/>
<path d="M48.2765 75.5457C41.1256 85.0951 36.9261 96.0198 34.8182 107.701C32.5867 120.066 31.0204 134.195 32.0046 146.794C32.9386 158.756 39.2088 170.291 42.5166 181.739C45.6059 192.43 47.7468 203.32 48.7453 214.407C48.8309 215.357 47.3474 215.334 47.2623 214.392C46.061 201.119 43.1199 188.171 39.0373 175.5C35.2978 163.895 30.2355 153.331 30.4494 140.901C30.8262 118.889 32.3245 92.3665 47.9437 75.2835C48.1047 75.1076 48.4226 75.3497 48.2765 75.5457Z" fill="#9D7C6B"/>
<path d="M48.7184 75.1804C43.5877 83.6223 45.4888 97.2015 46.1863 106.555C47.1047 118.874 48.6839 131.125 50.0725 143.397C52.6598 166.261 58.2609 189.767 49.114 211.982C48.9093 212.48 48.2269 212.284 48.313 211.753C49.3013 205.689 51.1266 199.78 52.1407 193.705C53.5354 185.345 53.1628 178.248 51.7247 169.916C49.7232 158.321 49.0137 146.482 47.6545 134.798C46.1738 122.071 44.5072 109.247 44.2648 96.4197C44.1433 89.9642 43.7632 80.1166 48.3065 74.8561C48.5048 74.6264 48.8711 74.9283 48.7184 75.1804Z" fill="#9D7C6B"/>
<path d="M48.9406 75.1733C44.7696 87.3845 48.2587 101.987 50.6983 114.219C53.2874 127.199 56.2851 140.071 58.2258 153.176C59.7857 163.702 58.5166 173.943 57.053 184.392C55.6358 194.512 53.0641 205.536 48.3962 214.634C48.1491 215.115 47.4557 214.757 47.5639 214.273C49.9804 203.454 54.3792 193.477 55.8226 182.369C56.4824 177.29 57.3438 172.164 57.5973 167.051C57.9797 159.333 56.5234 151.789 55.2203 144.222C53.0789 131.782 50.0063 119.528 47.9288 107.079C46.1873 96.6395 44.4894 85.158 48.042 74.9157C48.238 74.3511 49.1362 74.6014 48.9406 75.1733Z" fill="#9D7C6B"/>
<path d="M18.3511 157.724C16.5723 166.328 18.3866 174.904 20.4345 183.305C21.4224 187.54 22.5166 191.786 23.3246 196.147C24.1307 200.517 24.3939 205 24.3056 209.441C23.9789 218.356 21.756 227.042 18.5071 235.203C15.1431 243.315 10.7283 250.948 8.01444 259.143C7.86721 259.587 7.38684 259.828 6.9419 259.682C6.59448 259.567 6.37138 259.248 6.36027 258.903L6.359 258.848C6.10131 250.03 3.31518 241.516 0.812546 232.936C-0.451392 228.636 -1.71723 224.296 -2.6701 219.825C-3.75137 215.406 -3.98326 210.548 -3.6189 206.018C-2.96922 196.846 -0.655722 187.968 2.66043 179.515C4.29618 175.278 6.35479 171.2 8.76025 167.339C11.1915 163.533 14.1474 159.834 18.1063 157.539C18.1854 157.493 18.2862 157.52 18.3317 157.599C18.3745 157.672 18.3455 157.771 18.2783 157.82C14.659 160.442 12.3441 164.356 10.234 168.195C8.14824 172.093 6.57599 176.248 5.122 180.419C2.34283 188.803 0.434261 197.528 -0.207622 206.242C-0.942458 214.934 1.47046 223.423 3.74711 232.114C6.02889 240.737 8.40819 249.668 8.0626 258.872L6.40752 258.577C9.67171 250.333 14.369 242.912 17.4675 234.794C20.6234 226.706 21.7453 217.957 21.5869 209.413C21.6257 200.824 19.7533 192.443 17.9556 183.848C16.2698 175.348 15.0118 166.056 18.0339 157.634C18.0647 157.549 18.1591 157.503 18.2451 157.534C18.3234 157.562 18.3672 157.645 18.3511 157.724Z" fill="#9D7C6B"/>
<path d="M18.0797 157.957C12.1072 163.447 12.4869 173.409 11.5661 180.869C10.4204 190.15 9.35198 199.051 9.98515 208.426C11.0701 224.496 12.0014 240.657 8.62551 256.542C8.52384 257.019 7.76278 256.945 7.86368 256.461C11.712 238.141 8.88518 220.158 8.6021 201.721C8.4581 192.313 10.2623 182.813 11.6201 173.533C12.4294 167.998 12.9987 161.293 17.9523 157.799C18.0585 157.725 18.1758 157.869 18.0797 157.957Z" fill="#9D7C6B"/>
<path d="M17.8292 158.218C12.1214 164.495 8.4091 171.945 6.12647 180.072C3.71082 188.675 1.64581 198.572 1.49084 207.558C1.34305 216.09 5.00161 224.68 6.56909 233.009C8.03321 240.786 8.8122 248.641 8.76896 256.557C8.76572 257.235 7.71708 257.119 7.72032 256.446C7.76771 246.968 6.56171 237.603 4.52764 228.356C2.66499 219.888 -0.203477 212.066 0.787648 203.281C2.54391 187.723 5.39853 169.048 17.6116 158.01C17.7372 157.896 17.9461 158.09 17.8292 158.218Z" fill="#9D7C6B"/>
<path d="M18.1671 157.989C13.9638 163.618 14.3918 173.36 14.2523 180.029C14.0697 188.813 14.3591 197.593 14.5119 206.375C14.7971 222.736 17.1728 239.756 9.19469 254.865C9.01567 255.204 8.54592 255.019 8.64302 254.648C9.75283 250.422 11.4452 246.363 12.5734 242.13C14.1263 236.306 14.3426 231.257 13.8876 225.261C13.2554 216.917 13.554 208.487 13.3819 200.124C13.1946 191.013 12.8817 181.821 13.5785 172.724C13.9285 168.146 14.3251 161.149 17.8975 157.732C18.0534 157.583 18.2926 157.821 18.1671 157.989Z" fill="#9D7C6B"/>
<path d="M18.3253 157.999C14.5468 166.363 16.0283 176.937 16.9283 185.761C17.8835 195.125 19.1351 204.441 19.6229 213.85C20.0144 221.408 18.4237 228.572 16.6808 235.869C14.9931 242.939 12.427 250.569 8.50673 256.694C8.29966 257.018 7.83265 256.718 7.9422 256.383C10.3851 248.886 14.1731 242.12 15.9465 234.354C16.7578 230.804 17.7134 227.232 18.2397 223.63C19.0321 218.192 18.5112 212.753 18.1008 207.307C17.4263 198.356 16.0795 189.472 15.4511 180.519C14.9237 173.011 14.4986 164.767 17.7065 157.756C17.8831 157.37 18.502 157.608 18.3253 157.999Z" fill="#9D7C6B"/>
<path d="M1.66699 261.306C14.8376 252.585 28.9486 245.263 43.605 239.251C58.3095 233.431 73.5576 228.487 89.4291 226.728C97.3285 225.811 105.377 225.635 113.276 226.826C121.209 227.942 128.753 230.591 136.065 233.531L147.014 238.05C150.578 239.6 154.435 240.959 157.666 243.385C164.217 247.92 170.115 253.217 175.898 258.615L177.909 260.493L175.125 260.333C160.57 259.497 146.862 266.244 131.766 267.385C124.219 267.938 116.664 267.087 109.369 265.577C102.081 263.983 94.9993 261.805 87.9548 259.754C80.909 257.711 73.8627 255.786 66.7188 254.633C59.5832 253.443 52.2953 253.276 45.0313 253.766C30.474 254.734 16.1112 258.227 1.79721 261.606L1.71023 261.288C15.7582 256.947 29.9885 252.747 44.8228 251.238C52.2225 250.542 59.7474 250.513 67.1729 251.552C74.613 252.485 81.7924 254.516 88.8897 256.504C103.017 260.495 117.132 265.052 131.543 264.223C145.829 263.321 160.043 257.072 175.272 258.334L174.498 260.051C168.931 254.527 163.249 249.035 156.964 244.392C153.874 242.004 150.211 240.676 146.586 239.042C142.979 237.461 139.364 235.898 135.679 234.521C128.339 231.719 120.833 229.153 113.071 228.484C105.324 227.65 97.4692 228.134 89.7658 229.348C82.0293 230.375 74.3991 232.172 66.8683 234.288C59.2901 236.258 51.8949 238.906 44.5408 241.627C29.901 247.279 15.5884 253.866 1.8406 261.587L1.66699 261.306Z" fill="#9D7C6B"/>
<path d="M175.084 259.467C161.897 250.283 147.997 243.165 132.26 239.504C119.355 236.502 105.582 235.926 92.3582 235.532C61.3565 234.606 31.5571 248.159 4.38536 261.529C3.45407 261.987 2.89881 260.459 3.83087 260.009C32.3074 246.25 63.1463 232.635 95.5124 234.307C124.226 235.789 152.733 239.681 175.583 258.865C175.975 259.194 175.491 259.752 175.084 259.467Z" fill="#9D7C6B"/>
<path d="M175.268 259.526C146.099 251.558 116.345 239.944 85.6189 240.991C56.1208 241.996 28.7467 251.137 1.90128 262.67C0.945168 263.081 0.388861 261.554 1.34778 261.15C28.2558 249.806 56.0928 240.809 85.5246 239.818C116.243 238.785 146.485 249.887 175.4 258.807C175.838 258.943 175.729 259.652 175.268 259.526Z" fill="#9D7C6B"/>
</svg>
