<svg width="571" height="230" viewBox="0 0 571 230" fill="none" xmlns="http://www.w3.org/2000/svg">
<path d="M420.702 196.524C428.626 193.798 436.238 190.095 443.426 185.788C455.471 178.748 466.489 170.028 476.071 159.992C485.624 149.945 493.485 138.215 498.404 125.269C503.285 112.382 505.25 98.2515 503.551 84.4438C501.92 70.6734 496.716 57.128 487.558 46.3701L487.938 46.0263C497.885 56.218 504.033 69.9243 506.21 84.0754C508.366 98.2583 507.039 113.045 502.083 126.637C497.134 140.207 489.11 152.517 479.351 163.058C469.594 173.653 457.929 182.293 445.555 189.451C437.303 194.108 428.5 197.929 419.342 200.481C419.845 199.179 420.302 197.861 420.702 196.524Z" fill="#9D7C6B"/>
<path d="M489.931 42.679C489.463 30.3107 485.014 21.521 475.088 13.9487C472.283 11.8082 465.54 6.50078 461.924 9.31708C457.438 12.8103 459.15 23.1807 460.803 27.5079C465.066 38.6725 474.771 45.8603 486.747 45.9018C487.623 45.905 487.515 47.2645 486.642 47.2579C474.213 47.1619 464.102 39.6148 459.701 28.0258C458.154 23.9552 457.363 19.8015 457.699 15.4727C457.832 13.7689 458.121 8.95559 459.761 7.46058C465.075 2.61189 475.765 12.0012 478.777 14.511C487.073 21.4233 493.35 31.6368 490.42 42.7808C490.342 43.0801 489.941 42.9413 489.931 42.679Z" fill="#9D7C6B"/>
<path d="M470.259 9.22881C469.463 -0.776443 485.001 10.3604 487.166 12.3612C496.889 21.3513 497.517 35.049 490.63 46.1661C490.376 46.5766 489.62 46.348 489.71 45.8458C490.726 40.1268 493.567 34.9646 493.578 29.0038C493.588 23.9225 491.236 19.095 488.033 15.2546C486.211 13.2268 484.186 11.437 481.959 9.88461C478.765 7.1548 474.954 6.93168 470.526 9.21484C470.512 9.36019 470.272 9.38624 470.259 9.22881Z" fill="#9D7C6B"/>
<path d="M458.237 18.708C451.528 17.9371 455.983 29.3433 456.825 31.2128C458.668 35.3048 461.343 38.6767 464.755 41.522C472.057 47.6108 480.055 48.4886 489.208 47.866C490.15 47.802 490.406 49.0702 489.471 49.3199C477.666 52.479 464.71 46.7236 458.129 36.6445C455.92 33.262 448.57 16.3824 458.279 18.1723C458.611 18.2337 458.588 18.7483 458.237 18.708Z" fill="#9D7C6B"/>
<path d="M497.829 34.1492C497.822 33.419 497.703 32.5812 497.09 32.1845C495.996 31.4764 494.732 32.7904 494.091 33.9246C493.165 35.5623 492.24 37.1998 491.314 38.837C490.026 37.557 488.612 36.4037 487.099 35.3983C486.613 35.0751 485.858 34.8126 485.534 35.2987C485.388 35.5183 485.411 35.805 485.439 36.067C485.584 37.4031 485.73 38.739 485.875 40.0749C485.901 40.3202 485.925 40.5831 485.808 40.8008C485.452 41.4622 484.46 41.0094 483.845 40.5794C482.246 39.4613 479.343 36.927 478.288 39.2217C478.104 40.5197 480.614 42.9868 481.777 44.8696C479.483 43.9763 474.814 41.7454 474.543 43.6504C475.034 44.9528 476.073 46.0379 477.353 46.585C475.214 46.4035 473.033 46.7366 471.046 47.5483C470.447 47.7924 469.762 48.2727 469.895 48.9047C469.964 49.2353 470.246 49.4738 470.522 49.6682C473.201 51.5585 476.685 51.7504 479.963 51.8759C480.007 51.8774 480.051 51.8792 480.095 51.8812C486.789 52.1609 493.096 48.4918 495.658 42.3032C496.848 39.4271 497.848 36.347 497.829 34.1492Z" fill="#9D7C6B"/>
<path d="M480.099 26.9969C484.595 30.7235 489.637 39.1758 486.081 45.011C485.827 45.4279 485.2 45.244 485.106 44.8069C484.519 42.0616 484.999 39.1937 484.319 36.4169C483.507 33.1048 481.858 30.1096 479.568 27.5935C479.269 27.2651 479.744 26.7028 480.099 26.9969Z" fill="#9D7C6B"/>
<path d="M471.904 27.1646C476.054 34.2587 481.117 38.7142 487.43 43.7992C488.273 44.4786 487.669 46.0125 486.536 45.5873C478.956 42.7432 473.312 35.0282 471.396 27.3273C471.317 27.0132 471.759 26.9175 471.904 27.1646Z" fill="#9D7C6B"/>
<path d="M469.641 33.8579C473.374 39.286 478.87 41.4719 484.404 44.5189C484.96 44.825 484.485 45.6346 483.927 45.4724C477.805 43.6947 472.204 39.8221 469.417 34.0027C469.354 33.8706 469.552 33.7298 469.641 33.8579Z" fill="#9D7C6B"/>
<path d="M462.636 8.55168C466.027 10.0155 469.315 12.1333 471.289 15.3359C471.501 15.6796 470.981 15.9421 470.73 15.6974C468.12 13.1533 465.717 10.5896 462.577 8.67098C462.512 8.63195 462.566 8.52152 462.636 8.55168Z" fill="#9D7C6B"/>
<path d="M461.37 9.52636C462.36 11.5035 463.701 13.1684 464.915 14.9935C465.058 15.2077 464.799 15.4381 464.609 15.2555C463.027 13.734 461.981 11.6356 461.127 9.64101C461.059 9.48226 461.293 9.37117 461.37 9.52636Z" fill="#9D7C6B"/>
<path d="M459.749 11.4826C460.058 14.9037 462.781 17.7799 463.512 21.132C463.586 21.4694 463.075 21.7506 462.867 21.4384C461.781 19.8005 461.114 17.7777 460.475 15.9268C459.971 14.4688 459.425 13.0624 459.483 11.4969C459.488 11.3469 459.735 11.329 459.749 11.4826Z" fill="#9D7C6B"/>
<path d="M489.844 22.7415C491.632 25.3107 492.749 28.0544 493.14 31.1738C493.467 33.7819 493.561 37.4478 491.847 39.6057C491.622 39.888 491.022 39.8757 490.994 39.4271C490.838 36.9905 491.688 34.5401 491.677 32.0607C491.664 28.9236 490.871 25.7483 489.62 22.8862C489.563 22.7538 489.754 22.612 489.844 22.7415Z" fill="#9D7C6B"/>
<path d="M463.574 38.419C467.886 42.5892 472.821 45.0126 478.137 47.6266C478.564 47.8358 478.364 48.4337 477.895 48.325C472.095 46.9797 467.218 42.9839 463.421 38.5502C463.335 38.4502 463.482 38.3301 463.574 38.419Z" fill="#9D7C6B"/>
<path d="M494.471 42.8936C497.472 42.0586 500.839 42.6565 503.367 44.474C498.483 45.2828 493.754 47.0273 489.515 49.5853" fill="#9D7C6B"/>
<path d="M489.914 49.1031C486.333 51.7259 483.256 55.0326 480.897 58.7914C480.305 58.1123 480.14 57.1393 480.274 56.2485C480.409 55.3579 480.81 54.5307 481.243 53.7406C482.42 51.5927 483.898 49.5715 485.829 48.064" fill="#9D7C6B"/>
<path d="M506.232 97.6997C513.099 89.7056 511.343 79.1584 513.608 69.6086C515.854 60.1404 521.878 53.2373 524.819 44.3541C524.999 43.8082 525.752 44.1079 525.638 44.6376C524.918 47.9881 523.209 50.3907 521.55 53.3303C517.356 60.7613 514.555 68.7611 513.415 77.2417C512.406 84.7413 511.843 92.0123 506.415 97.8632C506.321 97.9648 506.141 97.8059 506.232 97.6997Z" fill="#9D7C6B"/>
<path d="M512.243 77.4539C508.208 63.5676 512.085 50.1688 525.495 43.3965C526.039 43.1216 526.591 43.5091 526.735 44.0354C530.261 56.8923 525.235 71.6281 513.334 78.0437C512.903 78.2758 512.486 77.6274 512.867 77.3217C522.161 69.8609 527.169 59.9059 525.659 47.9243C525.557 47.1188 525.595 45.6602 525.148 44.9471C525.065 44.814 525.13 44.5085 525.016 44.3999C526.061 45.3899 520.598 48.4503 519.485 49.4651C511.311 56.9183 509.926 67.0674 512.365 77.4319C512.383 77.5109 512.265 77.5293 512.243 77.4539Z" fill="#9D7C6B"/>
<path d="M526.966 49.8418C526.444 56.1579 521.423 58.7279 517.347 62.8046C517.075 63.0767 516.645 62.731 516.753 62.4009C517.476 60.1917 519.588 59.2659 521.3 57.8321C523.853 55.6939 526.012 53.0844 526.846 49.8166C526.863 49.7475 526.972 49.7727 526.966 49.8418Z" fill="#9D7C6B"/>
<path d="M516.192 52.1674C518.747 54.9526 518.529 58.8929 517.165 62.1985C517.013 62.5686 516.379 62.4883 516.443 62.0486C516.928 58.7197 518.147 55.3239 516.098 52.2485C516.055 52.1835 516.136 52.1074 516.192 52.1674Z" fill="#9D7C6B"/>
<path d="M512.456 61.2133C514.958 63.6364 515.068 66.713 514.754 69.9747C514.716 70.3777 514.14 70.3206 514.136 69.927C514.106 67.001 514.212 63.7306 512.361 61.2942C512.312 61.2297 512.398 61.1584 512.456 61.2133Z" fill="#9D7C6B"/>
<path d="M526.101 60.7124C525.019 61.2824 524.222 63.2515 523.505 64.1695C522.765 65.1172 521.863 65.9942 520.954 66.7731C518.592 68.799 515.676 69.8816 514.186 72.7763C514.055 73.0297 513.654 72.8149 513.746 72.5564C514.477 70.4899 516.041 69.4735 517.799 68.2484C519.054 67.3741 520.271 66.5124 521.368 65.4369C522.365 64.4582 525.169 61.8078 524.982 60.1366C524.77 58.244 527.755 59.8406 526.101 60.7124Z" fill="#9D7C6B"/>
<path d="M448.873 184.369C459.74 186.141 468.495 178.405 478.388 175.477C487.497 172.781 496.091 174.013 505.228 172.519C505.787 172.427 505.915 173.227 505.382 173.373C501.802 174.356 498.646 174.211 494.976 174.281C487.116 174.429 479.546 176.044 472.228 178.936C464.454 182.008 457.61 186.383 448.853 184.616C448.701 184.586 448.713 184.343 448.873 184.369Z" fill="#9D7C6B"/>
<path d="M469.304 178.948C479.019 168.27 492.587 164.546 505.306 172.504C505.836 172.835 505.76 173.506 505.386 173.902C496.243 183.612 481.023 187 469.363 180.185C468.935 179.935 469.291 179.25 469.748 179.415C481.131 183.527 492.456 182.466 501.932 174.662C502.217 174.427 503.985 173.244 504.025 172.786C503.999 173.087 495.701 170.178 494.221 169.89C484.576 168.014 476.124 172.36 469.384 179.042C469.327 179.099 469.251 179.006 469.304 178.948Z" fill="#9D7C6B"/>
<path d="M483.671 174.685C488.145 174.782 492.453 176.191 495.657 179.395C495.807 179.545 495.582 179.788 495.412 179.67C491.837 177.19 488.028 175.321 483.661 174.809C483.582 174.799 483.591 174.683 483.671 174.685Z" fill="#9D7C6B"/>
<path d="M474.938 177.053C479.558 177.233 484.021 179.275 486.982 182.871C487.131 183.053 486.892 183.353 486.695 183.192C483.149 180.301 479.383 178.258 474.913 177.173C474.842 177.156 474.871 177.051 474.938 177.053Z" fill="#9D7C6B"/>
<path d="M484.188 174.672C487.077 171.803 491.422 170.224 495.419 169.817C495.617 169.797 495.668 170.07 495.474 170.122C491.373 171.216 488.063 172.967 484.354 174.93C484.192 175.016 484.069 174.79 484.188 174.672Z" fill="#9D7C6B"/>
<path d="M475.491 176.919C478.425 173.168 482.745 169.861 487.403 168.724C487.641 168.666 487.692 169.019 487.47 169.09C482.599 170.635 479.517 174.072 475.536 176.96C475.51 176.979 475.468 176.948 475.491 176.919Z" fill="#9D7C6B"/>
<path d="M498.278 128.697C492.413 121.858 493.132 113.961 491.701 105.676C489.845 94.9196 485.247 84.3377 480.581 74.5072C480.336 73.9921 481.082 73.6726 481.367 74.1378C485.714 81.2204 488.755 89.3971 491.044 97.3674C493.959 107.519 491.624 119.91 498.466 128.535C498.565 128.66 498.382 128.818 498.278 128.697Z" fill="#9D7C6B"/>
<path d="M493.146 108.05C495.847 98.2154 495.188 88.1841 487.82 80.4974C486.715 79.3445 481.765 75.031 481.654 75.1189C481.145 75.5219 481.048 77.9217 480.952 78.5575C479.192 90.2935 483.779 100.198 492.595 107.886C493.008 108.246 492.601 108.898 492.109 108.605C480.439 101.681 476.104 86.7791 480.138 74.0344C480.322 73.4542 480.985 73.3244 481.463 73.5922C494.573 80.9479 497.813 94.3508 493.263 108.09C493.238 108.167 493.125 108.126 493.146 108.05Z" fill="#9D7C6B"/>
<path d="M480.037 83.158C483.816 85.3319 486.786 88.1121 489.023 91.8576C489.271 92.2721 488.601 92.57 488.349 92.1742C486.136 88.7025 483.342 85.6304 479.968 83.261C479.902 83.2143 479.969 83.1184 480.037 83.158Z" fill="#9D7C6B"/>
<path d="M481.351 91.3727C481.869 92.8688 484.261 93.8979 485.441 94.8249C486.244 95.4556 486.946 96.1161 487.638 96.8694C489.334 98.7153 490.919 100.8 491.932 103.101C492.095 103.47 491.572 103.849 491.312 103.501C489.937 101.66 488.726 99.7286 487.197 98.0033C485.988 96.6395 482.753 92.3406 480.773 92.491C478.651 92.6522 480.777 89.7197 481.351 91.3727Z" fill="#9D7C6B"/>
<path d="M488.163 79.8685C486.927 83.0926 487.355 86.0246 488.292 89.2369C488.415 89.659 487.779 89.8138 487.589 89.4615C485.986 86.4936 486.421 82.7158 487.811 79.747C487.91 79.5344 488.25 79.6407 488.163 79.8685Z" fill="#9D7C6B"/>
<path d="M493.402 87.8767C492.502 89.72 492.346 91.7033 492.009 93.696C491.694 95.5507 491.684 97.6632 490.996 99.4079C490.865 99.7404 490.337 99.7358 490.278 99.3531C489.964 97.3136 490.602 94.8402 491.04 92.841C491.435 91.0328 492.033 89.2528 493.072 87.7117C493.186 87.5429 493.496 87.6824 493.402 87.8767Z" fill="#9D7C6B"/>
<path d="M526.348 117C532.909 115.696 537.655 113.063 541.32 107.294C542.686 105.144 546.764 99.1913 544.23 96.5093C542.317 94.4843 536.722 95.7069 534.607 96.6816C527.222 100.087 522.814 107.209 524.061 115.308C524.144 115.848 523.306 116.003 523.224 115.461C522.18 108.475 525.035 102.013 530.855 97.9496C533.325 96.2256 542.234 91.9223 545.204 95.0065C548.124 98.0381 544.749 103.662 543.224 106.396C539.77 112.591 533.99 118.075 526.364 117.311C526.187 117.293 526.171 117.035 526.348 117Z" fill="#9D7C6B"/>
<path d="M545.117 101.59C551.469 100.056 545.51 111.363 544.335 112.985C539.7 119.385 531.489 120.789 524.313 117.783C523.982 117.644 524.077 117.165 524.44 117.172C529.034 117.253 533.308 119.027 537.884 117.212C540.494 116.176 542.513 114.024 544.119 111.797C544.539 111.215 550.276 101.445 545.147 101.755C545.041 101.762 545.009 101.616 545.117 101.59Z" fill="#9D7C6B"/>
<path d="M538.076 95.0846C538.726 89.7338 527.744 97.4068 527.626 97.5182C525.723 99.3176 524.144 101.628 523.233 104.079C521.596 108.483 522.124 112.656 523.109 117.125C523.222 117.638 522.456 117.876 522.237 117.404C519.026 110.486 521.458 101.792 527.003 96.7905C528.512 95.4292 539.592 88.9248 538.411 95.1102C538.371 95.3168 538.049 95.3033 538.076 95.0846Z" fill="#9D7C6B"/>
<path d="M532.398 121.025C532.848 120.949 533.354 120.794 533.54 120.377C533.87 119.633 532.936 118.983 532.173 118.698C531.073 118.288 529.972 117.878 528.871 117.468C529.536 116.548 530.111 115.563 530.585 114.532C530.737 114.2 530.825 113.709 530.494 113.557C530.344 113.489 530.169 113.531 530.011 113.574C529.2 113.794 528.389 114.015 527.578 114.235C527.43 114.276 527.269 114.316 527.124 114.265C526.681 114.11 526.864 113.454 527.07 113.033C527.605 111.938 528.887 109.9 527.368 109.474C526.549 109.488 525.27 111.277 524.221 112.178C524.549 110.676 525.473 107.579 524.27 107.599C523.514 108.029 522.945 108.776 522.732 109.619C522.636 108.282 522.218 106.97 521.524 105.824C521.315 105.479 520.953 105.104 520.575 105.248C520.378 105.323 520.258 105.52 520.165 105.709C519.258 107.546 519.478 109.713 519.719 111.746C519.722 111.774 519.726 111.801 519.729 111.828C520.206 115.983 523.084 119.512 527.153 120.485C529.044 120.937 531.043 121.252 532.398 121.025Z" fill="#9D7C6B"/>
<path d="M535.071 109.43C533.196 112.575 528.531 116.398 524.583 114.862C524.333 114.765 524.259 114.348 524.55 114.241C526.181 113.643 527.958 113.62 529.595 112.961C531.594 112.157 533.309 110.819 534.653 109.149C534.855 108.898 535.238 109.149 535.071 109.43Z" fill="#9D7C6B"/>
<path d="M534.202 104.35C530.174 107.64 527.944 111.222 525.381 115.646C525.078 116.17 524.108 115.865 524.231 115.247C525.23 110.279 529.429 106.008 534.021 104.072C534.191 104 534.353 104.227 534.202 104.35Z" fill="#9D7C6B"/>
<path d="M529.825 103.631C526.822 106.451 526.067 110.042 524.704 113.732C524.576 114.081 524.006 113.986 524.053 113.597C524.52 109.666 526.402 105.764 529.716 103.504C529.803 103.444 529.906 103.556 529.825 103.631Z" fill="#9D7C6B"/>
<path d="M544.775 96.8448C544.191 99.0753 543.231 101.282 541.45 102.821C541.273 102.974 541.002 102.74 541.14 102.545C542.457 100.666 543.797 98.9618 544.696 96.8175C544.717 96.7671 544.789 96.7927 544.775 96.8448Z" fill="#9D7C6B"/>
<path d="M544.06 96.1469C542.933 96.9687 542.018 97.9367 541.008 98.8873C540.906 98.9842 540.737 98.8355 540.822 98.7214C541.667 97.5903 542.789 96.766 543.969 96.0074C544.048 95.9563 544.136 96.0914 544.06 96.1469Z" fill="#9D7C6B"/>
<path d="M542.673 95.3458C540.662 95.9215 539.014 97.7021 537.117 98.5986C536.885 98.7084 536.662 98.38 536.869 98.2147C538.452 96.9513 540.606 95.4927 542.643 95.1809C542.751 95.1639 542.775 95.3165 542.673 95.3458Z" fill="#9D7C6B"/>
<path d="M538.659 114.996C536.311 117.233 531.627 119.542 528.411 117.851C528.172 117.726 528.293 117.366 528.523 117.319C530.146 116.986 531.846 117.278 533.503 116.952C535.299 116.597 537.029 115.835 538.569 114.856C538.653 114.804 538.724 114.934 538.659 114.996Z" fill="#9D7C6B"/>
<path d="M526.43 100.323C524.27 103.387 523.242 106.711 522.152 110.24C522.074 110.493 521.686 110.406 521.704 110.147C521.961 106.437 523.955 103.023 526.325 100.253C526.377 100.193 526.478 100.256 526.43 100.323Z" fill="#9D7C6B"/>
<path d="M526.677 119.806C527.484 121.575 527.442 123.709 526.565 125.445C525.592 122.513 524.056 119.769 522.065 117.406" fill="#9D7C6B"/>
<path d="M522.396 117.605C520.428 115.654 518.088 114.08 515.538 112.993C515.899 112.562 516.484 112.365 517.047 112.36C517.611 112.356 518.16 112.522 518.69 112.712C520.13 113.227 521.522 113.941 522.64 114.984" fill="#9D7C6B"/>
<path d="M468.013 132.026C468.307 125.118 466.653 119.768 461.681 114.761C460.067 113.135 454.959 108.083 452.156 109.75C449.719 111.2 449.828 117.531 450.298 119.6C452.049 127.322 457.739 133.169 465.836 133.855C466.381 133.901 466.316 134.75 465.77 134.702C458.407 134.046 452.629 129.336 450.245 122.334C449.371 119.769 447.65 110.687 450.939 108.608C454.374 106.438 458.899 110.673 461.029 112.552C466.552 117.426 470.985 124.52 468.319 132.09C468.259 132.261 468.006 132.204 468.013 132.026Z" fill="#9D7C6B"/>
<path d="M457.465 110.18C457.475 103.441 467.655 112.662 468.933 114.285C473.508 120.095 472.727 128.426 468.289 134.198C468.065 134.49 467.646 134.265 467.73 133.92C468.617 130.272 470.778 127.188 471.009 123.319C471.196 120.174 470.108 117.383 468.245 114.874C467.34 113.654 458.538 105.169 457.632 110.193C457.613 110.298 457.465 110.289 457.465 110.18Z" fill="#9D7C6B"/>
<path d="M449.514 115.49C445.003 114.597 448.067 123.554 448.607 124.725C449.782 127.267 451.462 129.361 453.617 131.107C457.796 134.494 462.206 135.135 467.383 135.205C467.914 135.212 467.938 136.026 467.429 136.119C459.898 137.495 452.1 133.269 448.51 126.628C447.24 124.279 443.646 113.563 449.582 115.164C449.764 115.213 449.702 115.527 449.514 115.49Z" fill="#9D7C6B"/>
<path d="M473.363 127.102C473.396 126.647 473.364 126.119 473.002 125.841C472.358 125.345 471.504 126.099 471.048 126.773C470.388 127.745 469.73 128.718 469.07 129.691C468.333 128.829 467.512 128.039 466.621 127.337C466.334 127.111 465.877 126.909 465.652 127.196C465.549 127.325 465.549 127.505 465.554 127.669C465.577 128.508 465.599 129.347 465.622 130.186C465.626 130.341 465.627 130.505 465.543 130.635C465.288 131.028 464.694 130.696 464.333 130.398C463.394 129.621 461.716 127.896 460.942 129.271C460.762 130.07 462.2 131.733 462.828 132.964C461.446 132.292 458.652 130.667 458.387 131.839C458.627 132.674 459.218 133.403 459.988 133.808C458.665 133.587 457.291 133.684 456.013 134.089C455.628 134.211 455.177 134.475 455.228 134.875C455.254 135.084 455.417 135.247 455.579 135.382C457.151 136.695 459.31 136.99 461.344 137.234C461.372 137.237 461.399 137.24 461.426 137.244C465.579 137.757 469.69 135.792 471.598 132.069C472.485 130.338 473.264 128.471 473.363 127.102Z" fill="#9D7C6B"/>
<path d="M462.723 121.787C465.271 124.266 468.051 129.892 465.516 133.249C465.348 133.471 464.952 133.426 464.908 133.121C464.655 131.394 465.109 129.612 464.845 127.849C464.532 125.759 463.629 123.778 462.341 122.115C462.14 121.856 462.493 121.563 462.723 121.787Z" fill="#9D7C6B"/>
<path d="M457.574 121.433C459.824 126.104 462.778 129.151 466.486 132.667C466.929 133.088 466.356 133.933 465.801 133.672C461.211 131.505 458.064 126.461 457.257 121.534C457.226 121.347 457.49 121.259 457.574 121.433Z" fill="#9D7C6B"/>
<path d="M455.84 125.51C457.881 129.063 461.185 130.695 464.46 132.863C464.773 133.071 464.522 133.596 464.162 133.459C460.437 132.042 457.131 129.351 455.688 125.581C455.649 125.48 455.786 125.416 455.84 125.51Z" fill="#9D7C6B"/>
<path d="M452.759 109.392C454.799 110.494 456.704 111.935 457.789 114.034C457.899 114.247 457.594 114.435 457.439 114.26C455.925 112.548 454.575 110.838 452.713 109.462C452.669 109.429 452.713 109.367 452.759 109.392Z" fill="#9D7C6B"/>
<path d="M451.913 109.926C452.444 111.206 453.174 112.336 453.858 113.535C453.929 113.659 453.737 113.778 453.648 113.671C452.753 112.591 452.218 111.316 451.761 109.997C451.727 109.897 451.871 109.824 451.913 109.926Z" fill="#9D7C6B"/>
<path d="M450.807 111.083C450.892 113.198 452.231 115.177 452.658 117.246C452.711 117.503 452.332 117.623 452.222 117.386C451.38 115.578 450.464 113.094 450.64 111.07C450.649 110.959 450.803 110.978 450.807 111.083Z" fill="#9D7C6B"/>
<path d="M468.979 119.611C470.595 122.403 471.747 127.537 469.325 130.237C469.141 130.441 468.834 130.217 468.841 129.992C468.888 128.429 469.544 126.919 469.647 125.331C469.769 123.431 469.44 121.479 468.827 119.683C468.792 119.581 468.924 119.517 468.979 119.611Z" fill="#9D7C6B"/>
<path d="M451.821 128.025C454.315 130.861 457.266 132.608 460.458 134.517C460.688 134.654 460.497 135.004 460.254 134.926C456.704 133.795 453.868 131.062 451.725 128.107C451.678 128.042 451.766 127.963 451.821 128.025Z" fill="#9D7C6B"/>
<path d="M470.83 132.377C472.741 132.009 474.806 132.551 476.287 133.81C473.206 134.067 470.174 134.914 467.406 136.292" fill="#9D7C6B"/>
<path d="M467.679 136.011C465.318 137.463 463.234 139.366 461.576 141.586C461.241 141.133 461.188 140.519 461.317 139.972C461.445 139.424 461.737 138.929 462.046 138.459C462.888 137.182 463.91 135.998 465.188 135.158" fill="#9D7C6B"/>
<path d="M527.258 116.051C509.47 123.383 505.781 151.688 485.405 153.674C484.903 153.723 484.572 152.976 485.116 152.769C504.094 145.535 507.971 121.964 527.139 115.798C527.305 115.745 527.429 115.981 527.258 116.051Z" fill="#9D7C6B"/>
<path d="M466.374 131.095C474.82 149.25 469.643 174.422 450.049 183.141C449.639 183.323 449.275 182.776 449.619 182.475C465.336 168.748 473.68 151.94 466.12 131.214C466.059 131.048 466.296 130.929 466.374 131.095Z" fill="#9D7C6B"/>
<path d="M421.349 199.32C428.93 195.692 435.461 190.397 439.708 183.046C444.003 175.613 443.307 169.592 441.829 161.679C440.82 156.275 439.873 149.829 440.738 144.314C440.778 144.062 441.145 144.085 441.137 144.345C440.817 154.144 445.386 164.31 444.001 173.854C442.289 185.654 431.765 194.945 421.417 199.465C421.323 199.505 421.255 199.365 421.349 199.32Z" fill="#9D7C6B"/>
<path d="M444.027 174.022C435.474 165.263 432.923 153.481 440.369 143.12C440.655 142.722 441.233 142.678 441.562 143.051C449.036 151.533 450.744 164.72 444.373 174.194C444.146 174.533 443.546 174.26 443.717 173.867C447.794 164.479 447.801 154.769 442 146.133C441.79 145.821 440.977 144.305 440.628 144.273C441.008 144.308 438.165 150.25 437.775 151.563C435.304 159.894 438.586 167.68 444.107 173.953C444.152 174.004 444.073 174.07 444.027 174.022Z" fill="#9D7C6B"/>
<path d="M446.999 157.183C445.141 160.694 444.354 164.275 443.729 168.16C443.703 168.326 443.47 168.308 443.471 168.14C443.488 164.268 444.961 160.413 446.9 157.116C446.939 157.048 447.034 157.116 446.999 157.183Z" fill="#9D7C6B"/>
<path d="M436.321 159.354C439.638 162.321 442.366 166.014 443.607 170.332C443.639 170.443 443.466 170.491 443.418 170.392C441.467 166.37 439.344 162.682 436.261 159.406C436.224 159.368 436.284 159.321 436.321 159.354Z" fill="#9D7C6B"/>
<path d="M437.664 151.814C439.769 154.327 441.551 157.201 442.448 160.375C442.476 160.474 442.321 160.52 442.278 160.429C440.894 157.433 439.516 154.577 437.603 151.866C437.574 151.825 437.631 151.774 437.664 151.814Z" fill="#9D7C6B"/>
<path d="M445.116 148.668C443.711 150.395 442.268 154.185 442.474 156.416C442.488 156.563 442.303 156.625 442.229 156.494C441.593 155.381 442.378 153.889 442.78 152.809C443.32 151.355 443.903 149.699 445.013 148.575C445.068 148.52 445.166 148.606 445.116 148.668Z" fill="#9D7C6B"/>
<path d="M150.12 196.524C142.196 193.798 134.583 190.095 127.396 185.788C115.35 178.748 104.332 170.028 94.7499 159.992C85.1968 149.945 77.3362 138.215 72.4176 125.269C67.5365 112.382 65.5709 98.2515 67.2699 84.4438C68.9016 70.6734 74.1052 57.128 83.2628 46.3701L82.8837 46.0263C72.9358 56.218 66.788 69.9243 64.611 84.0754C62.4548 98.2583 63.7817 113.045 68.7383 126.637C73.6872 140.207 81.7116 152.517 91.4701 163.058C101.227 173.653 112.893 182.293 125.266 189.451C133.518 194.108 142.321 197.929 151.48 200.481C150.976 199.179 150.519 197.861 150.12 196.524Z" fill="#9D7C6B"/>
<path d="M80.8902 42.679C81.3579 30.3107 85.8071 21.521 95.7328 13.9487C98.5382 11.8082 105.281 6.50078 108.897 9.31708C113.383 12.8103 111.671 23.1807 110.019 27.5079C105.756 38.6725 96.0503 45.8603 84.074 45.9018C83.1978 45.905 83.3061 47.2645 84.1795 47.2579C96.6087 47.1619 106.719 39.6148 111.121 28.0258C112.667 23.9552 113.458 19.8015 113.122 15.4727C112.99 13.7689 112.7 8.95559 111.061 7.46058C105.746 2.61189 95.0565 12.0012 92.0445 14.511C83.7482 21.4233 77.4713 31.6368 80.4011 42.7808C80.4796 43.0801 80.8803 42.9413 80.8902 42.679Z" fill="#9D7C6B"/>
<path d="M100.562 9.22881C101.358 -0.776443 85.82 10.3604 83.6556 12.3612C73.9321 21.3513 73.3039 35.049 80.1917 46.1661C80.4457 46.5766 81.201 46.348 81.1117 45.8458C80.0948 40.1268 77.2546 34.9646 77.243 29.0038C77.2329 23.9225 79.5851 19.095 82.7884 15.2546C84.6105 13.2268 86.6348 11.437 88.8622 9.88461C92.0566 7.1548 95.8676 6.93168 100.295 9.21484C100.31 9.36019 100.549 9.38624 100.562 9.22881Z" fill="#9D7C6B"/>
<path d="M112.584 18.708C119.294 17.9371 114.838 29.3433 113.996 31.2128C112.153 35.3048 109.478 38.6767 106.066 41.522C98.764 47.6108 90.7665 48.4886 81.6131 47.866C80.6717 47.802 80.4153 49.0702 81.3499 49.3199C93.1555 52.479 106.111 46.7236 112.692 36.6445C114.901 33.262 122.251 16.3824 112.543 18.1723C112.21 18.2337 112.234 18.7483 112.584 18.708Z" fill="#9D7C6B"/>
<path d="M72.9929 34.1492C72.9996 33.419 73.1184 32.5812 73.7316 32.1845C74.8253 31.4764 76.0893 32.7904 76.7306 33.9246C77.6563 35.5623 78.5817 37.1998 79.5073 38.837C80.7957 37.557 82.2098 36.4037 83.7224 35.3983C84.2088 35.0751 84.9639 34.8126 85.2873 35.2987C85.4335 35.5183 85.4107 35.805 85.3823 36.067C85.2372 37.4031 85.0919 38.739 84.9469 40.0749C84.9201 40.3202 84.8965 40.5831 85.0136 40.8008C85.3698 41.4622 86.3613 41.0094 86.9767 40.5794C88.5752 39.4613 91.4784 36.927 92.5335 39.2217C92.7171 40.5197 90.2073 42.9868 89.0446 44.8696C91.3388 43.9763 96.0077 41.7454 96.278 43.6504C95.7877 44.9528 94.7486 46.0379 93.4685 46.585C95.6075 46.4035 97.7886 46.7366 99.7759 47.5483C100.375 47.7924 101.059 48.2727 100.927 48.9047C100.857 49.2353 100.576 49.4738 100.299 49.6682C97.6204 51.5585 94.1365 51.7504 90.8584 51.8759C90.814 51.8774 90.77 51.8792 90.7261 51.8812C84.0322 52.1609 77.7257 48.4918 75.1638 42.3032C73.973 39.4271 72.9731 36.347 72.9929 34.1492Z" fill="#9D7C6B"/>
<path d="M90.722 26.9959C86.2262 30.7225 81.1846 39.1748 84.74 45.01C84.9939 45.427 85.6212 45.243 85.7148 44.8059C86.3023 42.0606 85.8222 39.1927 86.5025 36.4159C87.3138 33.1038 88.9636 30.1086 91.2535 27.5925C91.5525 27.2641 91.0769 26.7019 90.722 26.9959Z" fill="#9D7C6B"/>
<path d="M98.9177 27.1646C94.7671 34.2587 89.7045 38.7142 83.3915 43.7992C82.5485 44.4786 83.152 46.0125 84.2857 45.5873C91.8649 42.7432 97.5091 35.0282 99.4257 27.3273C99.504 27.0132 99.062 26.9175 98.9177 27.1646Z" fill="#9D7C6B"/>
<path d="M101.181 33.8579C97.4473 39.286 91.9519 41.4719 86.4176 44.5189C85.8612 44.825 86.3369 45.6346 86.8947 45.4724C93.0166 43.6947 98.618 39.8221 101.405 34.0027C101.468 33.8706 101.269 33.7298 101.181 33.8579Z" fill="#9D7C6B"/>
<path d="M108.185 8.55168C104.794 10.0155 101.507 12.1333 99.5322 15.3359C99.3203 15.6796 99.8408 15.9421 100.091 15.6974C102.701 13.1533 105.105 10.5896 108.245 8.67098C108.309 8.63195 108.255 8.52152 108.185 8.55168Z" fill="#9D7C6B"/>
<path d="M109.451 9.52636C108.461 11.5035 107.12 13.1684 105.906 14.9935C105.763 15.2077 106.022 15.4381 106.212 15.2555C107.794 13.734 108.84 11.6356 109.694 9.64101C109.762 9.48226 109.528 9.37117 109.451 9.52636Z" fill="#9D7C6B"/>
<path d="M111.072 11.4826C110.763 14.9037 108.04 17.7799 107.31 21.132C107.236 21.4694 107.747 21.7506 107.954 21.4384C109.041 19.8005 109.707 17.7777 110.347 15.9268C110.85 14.4688 111.396 13.0624 111.339 11.4969C111.333 11.3469 111.086 11.329 111.072 11.4826Z" fill="#9D7C6B"/>
<path d="M80.9771 22.7415C79.1889 25.3107 78.0723 28.0544 77.6815 31.1738C77.3544 33.7819 77.2605 37.4478 78.9744 39.6057C79.1989 39.888 79.799 39.8757 79.8272 39.4271C79.9833 36.9905 79.1331 34.5401 79.1438 32.0607C79.1573 28.9236 79.9504 25.7483 81.2009 22.8862C81.2584 22.7538 81.067 22.612 80.9771 22.7415Z" fill="#9D7C6B"/>
<path d="M107.247 38.419C102.935 42.5892 98.0004 45.0126 92.6838 47.6266C92.2575 47.8358 92.4566 48.4337 92.9257 48.325C98.7259 46.9797 103.603 42.9839 107.4 38.5502C107.486 38.4502 107.339 38.3301 107.247 38.419Z" fill="#9D7C6B"/>
<path d="M76.3501 42.8936C73.3488 42.0586 69.9824 42.6565 67.4543 44.474C72.3386 45.2828 77.0668 47.0273 81.306 49.5853" fill="#9D7C6B"/>
<path d="M80.9068 49.1021C84.4876 51.7249 87.5651 55.0316 89.9238 58.7905C90.5161 58.1113 90.6812 57.1384 90.5471 56.2476C90.4125 55.3569 90.0113 54.5297 89.5784 53.7396C88.4012 51.5917 86.9234 49.5705 84.9924 48.063" fill="#9D7C6B"/>
<path d="M64.5895 97.6997C57.7226 89.7056 59.478 79.1584 57.2129 69.6086C54.9676 60.1404 48.9432 53.2373 46.0028 44.3541C45.8223 43.8082 45.0691 44.1079 45.1828 44.6376C45.9032 47.9881 47.6128 50.3907 49.2715 53.3303C53.4651 60.7613 56.266 68.7611 57.4063 77.2417C58.4148 84.7413 58.9785 92.0123 64.4061 97.8632C64.5003 97.9648 64.6805 97.8059 64.5895 97.6997Z" fill="#9D7C6B"/>
<path d="M58.5785 77.4539C62.6133 63.5676 58.7365 50.1688 45.3267 43.3965C44.7821 43.1216 44.2303 43.5091 44.0858 44.0354C40.5602 56.8923 45.5865 71.6281 57.4877 78.0437C57.9182 78.2758 58.3352 77.6274 57.9543 77.3217C48.6607 69.8609 43.652 59.9059 45.162 47.9243C45.2638 47.1188 45.2259 45.6602 45.673 44.9471C45.7565 44.814 45.691 44.5085 45.8054 44.3999C44.7604 45.3899 50.2235 48.4503 51.3363 49.4651C59.5105 56.9183 60.8951 67.0674 58.4567 77.4319C58.4379 77.5109 58.5565 77.5293 58.5785 77.4539Z" fill="#9D7C6B"/>
<path d="M43.8554 49.8418C44.3775 56.1579 49.3986 58.7279 53.4744 62.8046C53.7464 63.0767 54.1762 62.731 54.068 62.4009C53.3447 60.1917 51.2328 59.2659 49.5211 57.8321C46.9683 55.6939 44.8094 53.0844 43.9757 49.8166C43.958 49.7475 43.8496 49.7727 43.8554 49.8418Z" fill="#9D7C6B"/>
<path d="M54.6292 52.1674C52.0741 54.9526 52.2919 58.8929 53.6561 62.1985C53.8086 62.5686 54.4426 62.4883 54.3785 62.0486C53.8928 58.7197 52.6738 55.3239 54.7235 52.2485C54.7667 52.1835 54.6848 52.1074 54.6292 52.1674Z" fill="#9D7C6B"/>
<path d="M58.3654 61.2133C55.8633 63.6364 55.7529 66.713 56.0666 69.9747C56.1053 70.3777 56.6805 70.3206 56.6846 69.927C56.7151 67.001 56.6087 63.7306 58.4599 61.2942C58.5087 61.2297 58.4225 61.1584 58.3654 61.2133Z" fill="#9D7C6B"/>
<path d="M44.7207 60.7124C45.8024 61.2824 46.5995 63.2515 47.3162 64.1695C48.0561 65.1172 48.9584 65.9942 49.8669 66.7731C52.2297 68.799 55.1453 69.8816 56.6357 72.7763C56.7662 73.0297 57.1673 72.8149 57.0758 72.5564C56.3448 70.4899 54.7805 69.4735 53.0225 68.2484C51.7675 67.3741 50.5506 66.5124 49.4538 65.4369C48.4565 64.4582 45.6523 61.8078 45.8395 60.1366C46.0514 58.244 43.0664 59.8406 44.7207 60.7124Z" fill="#9D7C6B"/>
<path d="M121.949 184.368C111.082 186.14 102.326 178.404 92.4336 175.476C83.3239 172.78 74.7301 174.012 65.5935 172.518C65.0343 172.426 64.9063 173.226 65.4387 173.372C69.0187 174.355 72.175 174.211 75.8452 174.28C83.705 174.428 91.2751 176.043 98.5928 178.935C106.368 182.007 113.211 186.383 121.968 184.615C122.121 184.585 122.109 184.342 121.949 184.368Z" fill="#9D7C6B"/>
<path d="M101.517 178.949C91.8016 168.271 78.2334 164.547 65.5145 172.505C64.9851 172.836 65.0611 173.507 65.4345 173.903C74.5779 183.613 89.7975 187.001 101.458 180.186C101.886 179.936 101.53 179.251 101.073 179.416C89.6894 183.528 78.3647 182.467 68.889 174.663C68.6035 174.428 66.8363 173.245 66.7954 172.787C66.8222 173.088 75.1194 170.179 76.5994 169.891C86.2444 168.015 94.6964 172.361 101.437 179.043C101.494 179.1 101.57 179.007 101.517 178.949Z" fill="#9D7C6B"/>
<path d="M87.1499 174.684C82.6762 174.781 78.3675 176.19 75.1633 179.394C75.0135 179.544 75.2389 179.787 75.4089 179.669C78.9838 177.189 82.7927 175.32 87.1592 174.808C87.2389 174.798 87.2297 174.682 87.1499 174.684Z" fill="#9D7C6B"/>
<path d="M95.8829 177.052C91.263 177.232 86.8002 179.274 83.8393 182.87C83.6904 183.052 83.9293 183.352 84.126 183.191C87.6719 180.3 91.4381 178.257 95.908 177.172C95.9788 177.155 95.9503 177.05 95.8829 177.052Z" fill="#9D7C6B"/>
<path d="M86.6336 174.672C83.7446 171.803 79.3992 170.224 75.4025 169.817C75.2038 169.797 75.1537 170.07 75.3475 170.122C79.4487 171.216 82.7587 172.967 86.4667 174.93C86.6296 175.016 86.7518 174.79 86.6336 174.672Z" fill="#9D7C6B"/>
<path d="M95.3303 176.918C92.3964 173.167 88.0763 169.861 83.4174 168.723C83.1796 168.665 83.1292 169.018 83.3513 169.089C88.2215 170.634 91.3041 174.071 95.2846 176.959C95.3111 176.978 95.3534 176.947 95.3303 176.918Z" fill="#9D7C6B"/>
<path d="M72.5432 128.697C78.4078 121.858 77.6895 113.961 79.1198 105.676C80.9765 94.9196 85.5741 84.3377 90.2399 74.5072C90.4847 73.9921 89.7396 73.6726 89.454 74.1378C85.1072 81.2204 82.0661 89.3971 79.7773 97.3674C76.8618 107.519 79.1975 119.91 72.3547 128.535C72.2559 128.66 72.4388 128.818 72.5432 128.697Z" fill="#9D7C6B"/>
<path d="M77.6751 108.05C74.9744 98.2154 75.6337 88.1841 83.0011 80.4974C84.1061 79.3445 89.0563 75.031 89.167 75.1189C89.6758 75.5219 89.7733 77.9217 89.8689 78.5575C91.6289 90.2935 87.0428 100.198 78.2267 107.886C77.8137 108.246 78.2202 108.898 78.7123 108.605C90.382 101.681 94.7172 86.7791 90.6832 74.0344C90.4997 73.4542 89.8358 73.3244 89.3586 73.5922C76.2482 80.9479 73.0087 94.3508 77.558 108.09C77.5833 108.167 77.696 108.126 77.6751 108.05Z" fill="#9D7C6B"/>
<path d="M90.784 83.158C87.005 85.3319 84.0356 88.1121 81.7983 91.8576C81.5506 92.2721 82.2199 92.57 82.4722 92.1742C84.6854 88.7025 87.4794 85.6304 90.8535 83.261C90.9197 83.2143 90.8526 83.1184 90.784 83.158Z" fill="#9D7C6B"/>
<path d="M89.4703 91.3727C88.9514 92.8688 86.56 93.8979 85.3796 94.8249C84.5768 95.4556 83.8745 96.1161 83.1829 96.8694C81.4872 98.7153 79.9021 100.8 78.889 103.101C78.7262 103.47 79.2486 103.849 79.5084 103.501C80.8835 101.66 82.0951 99.7286 83.6241 98.0033C84.8329 96.6395 88.068 92.3406 90.0476 92.491C92.1698 92.6522 90.0437 89.7197 89.4703 91.3727Z" fill="#9D7C6B"/>
<path d="M82.6587 79.8685C83.8943 83.0926 83.4665 86.0246 82.5294 89.2369C82.4063 89.659 83.0421 89.8138 83.2324 89.4615C84.835 86.4936 84.3998 82.7158 83.0107 79.747C82.9111 79.5344 82.5715 79.6407 82.6587 79.8685Z" fill="#9D7C6B"/>
<path d="M77.4191 87.8767C78.3186 89.72 78.475 91.7033 78.8123 93.696C79.1267 95.5507 79.1365 97.6632 79.8251 99.4079C79.9562 99.7404 80.4839 99.7358 80.5425 99.3531C80.8566 97.3136 80.2187 94.8402 79.7813 92.841C79.3861 91.0328 78.7881 89.2528 77.7493 87.7117C77.6353 87.5429 77.3246 87.6824 77.4191 87.8767Z" fill="#9D7C6B"/>
<path d="M44.4727 117C37.9117 115.696 33.1662 113.063 29.5008 107.294C28.1348 105.144 24.0573 99.1913 26.5913 96.5093C28.5041 94.4843 34.0992 95.7069 36.2139 96.6816C43.5996 100.087 48.0075 107.209 46.7602 115.308C46.6773 115.848 47.5154 116.003 47.5968 115.461C48.6416 108.475 45.7866 102.013 39.9661 97.9496C37.4964 96.2256 28.5875 91.9223 25.6171 95.0065C22.6977 98.0381 26.0723 103.662 27.5969 106.396C31.0512 112.591 36.8316 118.075 44.457 117.311C44.634 117.293 44.6502 117.035 44.4727 117Z" fill="#9D7C6B"/>
<path d="M25.7042 101.59C19.3516 100.056 25.3108 111.363 26.4855 112.985C31.1207 119.385 39.3317 120.789 46.5081 117.783C46.8393 117.644 46.7439 117.165 46.3808 117.172C41.7867 117.253 37.5124 119.027 32.9367 117.212C30.3271 116.176 28.3076 114.024 26.7018 111.797C26.2819 111.215 20.5449 101.445 25.674 101.755C25.7801 101.762 25.8116 101.616 25.7042 101.59Z" fill="#9D7C6B"/>
<path d="M32.7452 95.0846C32.0951 89.7338 43.0771 97.4068 43.1948 97.5182C45.0978 99.3176 46.6772 101.628 47.5883 104.079C49.2254 108.483 48.6975 112.656 47.7124 117.125C47.5994 117.638 48.3654 117.876 48.5843 117.404C51.7946 110.486 49.3632 101.792 43.8184 96.7905C42.3095 95.4292 31.2286 88.9248 32.4104 95.1102C32.4501 95.3168 32.7717 95.3033 32.7452 95.0846Z" fill="#9D7C6B"/>
<path d="M38.4231 121.025C37.9729 120.949 37.4673 120.794 37.2815 120.377C36.951 119.633 37.8852 118.983 38.6477 118.698C39.7483 118.288 40.849 117.878 41.95 117.468C41.2847 116.548 40.7101 115.563 40.2364 114.532C40.084 114.2 39.9957 113.709 40.3268 113.557C40.4767 113.489 40.6517 113.531 40.8105 113.574C41.6212 113.794 42.4318 114.015 43.2426 114.235C43.3913 114.276 43.5517 114.316 43.6972 114.265C44.14 114.11 43.9567 113.454 43.7511 113.033C43.2163 111.938 41.9336 109.9 43.453 109.474C44.2718 109.488 45.5513 111.277 46.6004 112.178C46.2718 110.676 45.3484 107.579 46.5507 107.599C47.3068 108.029 47.8758 108.776 48.0891 109.619C48.185 108.282 48.6026 106.97 49.2966 105.824C49.5057 105.479 49.8685 105.104 50.2457 105.248C50.4431 105.323 50.563 105.52 50.6565 105.709C51.563 107.546 51.3428 109.713 51.102 111.746C51.0985 111.774 51.0954 111.801 51.0921 111.828C50.615 115.983 47.7369 119.512 43.6678 120.485C41.7766 120.937 39.7778 121.252 38.4231 121.025Z" fill="#9D7C6B"/>
<path d="M35.7499 109.43C37.6245 112.575 42.2894 116.398 46.2376 114.862C46.4881 114.765 46.562 114.348 46.2705 114.241C44.6398 113.643 42.8625 113.62 41.2256 112.961C39.2267 112.157 37.5116 110.819 36.1676 109.149C35.9653 108.898 35.5826 109.149 35.7499 109.43Z" fill="#9D7C6B"/>
<path d="M36.6189 104.35C40.6471 107.64 42.8772 111.222 45.4401 115.646C45.7431 116.17 46.7133 115.865 46.5894 115.247C45.5906 110.279 41.3915 106.008 36.7996 104.072C36.6301 104 36.4675 104.227 36.6189 104.35Z" fill="#9D7C6B"/>
<path d="M40.996 103.631C43.9995 106.451 44.7537 110.042 46.1166 113.732C46.2453 114.081 46.8146 113.986 46.7685 113.597C46.3013 109.666 44.4193 105.764 41.1049 103.504C41.0177 103.444 40.9155 103.556 40.996 103.631Z" fill="#9D7C6B"/>
<path d="M26.0454 96.8448C26.6294 99.0753 27.5898 101.282 29.3703 102.821C29.5482 102.974 29.8182 102.74 29.6808 102.545C28.3632 100.666 27.0234 98.9618 26.1248 96.8175C26.1036 96.7671 26.0319 96.7927 26.0454 96.8448Z" fill="#9D7C6B"/>
<path d="M26.7614 96.1469C27.8878 96.9687 28.803 97.9367 29.8127 98.8873C29.9155 98.9842 30.084 98.8355 29.9991 98.7214C29.1541 97.5903 28.0317 96.766 26.8517 96.0074C26.7727 95.9563 26.6852 96.0914 26.7614 96.1469Z" fill="#9D7C6B"/>
<path d="M28.1484 95.3458C30.159 95.9215 31.8068 97.7021 33.7045 98.5986C33.9358 98.7084 34.1595 98.38 33.9525 98.2147C32.3687 96.9513 30.215 95.4927 28.1783 95.1809C28.0698 95.1639 28.046 95.3165 28.1484 95.3458Z" fill="#9D7C6B"/>
<path d="M32.1614 114.996C34.5094 117.233 39.1939 119.542 42.4099 117.851C42.6492 117.726 42.5277 117.366 42.298 117.319C40.6744 116.986 38.9752 117.278 37.3173 116.952C35.5215 116.597 33.7923 115.835 32.2517 114.856C32.1683 114.804 32.0964 114.934 32.1614 114.996Z" fill="#9D7C6B"/>
<path d="M44.3913 100.323C46.5514 103.387 47.5791 106.711 48.6689 110.24C48.7472 110.493 49.1348 110.406 49.1169 110.147C48.8601 106.437 46.8661 103.023 44.4954 100.253C44.444 100.193 44.3433 100.256 44.3913 100.323Z" fill="#9D7C6B"/>
<path d="M44.1443 119.806C43.3369 121.575 43.3791 123.709 44.2557 125.445C45.2295 122.513 46.7654 119.769 48.756 117.406" fill="#9D7C6B"/>
<path d="M48.4251 117.605C50.3924 115.654 52.7328 114.08 55.2827 112.993C54.9215 112.562 54.3368 112.365 53.7736 112.36C53.2103 112.356 52.6608 112.522 52.1307 112.712C50.6905 113.227 49.2987 113.941 48.1805 114.984" fill="#9D7C6B"/>
<path d="M102.808 132.026C102.515 125.118 104.169 119.768 109.141 114.761C110.755 113.135 115.863 108.083 118.666 109.75C121.103 111.2 120.993 117.531 120.524 119.6C118.773 127.322 113.083 133.169 104.986 133.855C104.441 133.901 104.506 134.75 105.052 134.702C112.415 134.046 118.192 129.336 120.577 122.334C121.451 119.769 123.171 110.687 119.882 108.608C116.447 106.438 111.923 110.673 109.792 112.552C104.269 117.426 99.8363 124.52 102.503 132.09C102.563 132.261 102.816 132.204 102.808 132.026Z" fill="#9D7C6B"/>
<path d="M113.357 110.18C113.346 103.441 103.166 112.662 101.889 114.285C97.3136 120.095 98.0946 128.426 102.533 134.198C102.757 134.49 103.175 134.265 103.091 133.92C102.205 130.272 100.043 127.188 99.8128 123.319C99.6259 120.174 100.714 117.383 102.576 114.874C103.481 113.654 112.283 105.169 113.189 110.193C113.209 110.298 113.357 110.289 113.357 110.18Z" fill="#9D7C6B"/>
<path d="M121.307 115.49C125.819 114.597 122.755 123.554 122.214 124.725C121.04 127.267 119.359 129.361 117.204 131.107C113.026 134.494 108.616 135.135 103.439 135.205C102.908 135.212 102.884 136.026 103.392 136.119C110.924 137.495 118.722 133.269 122.312 126.628C123.582 124.279 127.175 113.563 121.239 115.164C121.058 115.213 121.119 115.527 121.307 115.49Z" fill="#9D7C6B"/>
<path d="M97.4584 127.102C97.4253 126.647 97.457 126.119 97.8188 125.841C98.4634 125.345 99.3167 126.099 99.7736 126.773C100.433 127.745 101.092 128.718 101.751 129.691C102.488 128.829 103.309 128.039 104.2 127.337C104.487 127.111 104.944 126.909 105.169 127.196C105.272 127.325 105.272 127.505 105.267 127.669C105.245 128.508 105.222 129.347 105.199 130.186C105.195 130.341 105.194 130.505 105.278 130.635C105.533 131.028 106.127 130.696 106.488 130.398C107.427 129.621 109.106 127.896 109.879 129.271C110.059 130.07 108.622 131.733 107.993 132.964C109.375 132.292 112.169 130.667 112.434 131.839C112.194 132.674 111.603 133.403 110.833 133.808C112.156 133.587 113.53 133.684 114.809 134.089C115.193 134.211 115.644 134.475 115.594 134.875C115.567 135.084 115.404 135.247 115.242 135.382C113.67 136.695 111.511 136.99 109.477 137.234C109.449 137.237 109.422 137.24 109.395 137.244C105.242 137.757 101.131 135.792 99.2227 132.069C98.3358 130.338 97.557 128.471 97.4584 127.102Z" fill="#9D7C6B"/>
<path d="M108.098 121.787C105.55 124.266 102.77 129.892 105.305 133.249C105.473 133.471 105.869 133.426 105.914 133.121C106.167 131.394 105.713 129.612 105.977 127.849C106.29 125.759 107.193 123.778 108.481 122.115C108.681 121.856 108.329 121.563 108.098 121.787Z" fill="#9D7C6B"/>
<path d="M113.247 121.433C110.998 126.104 108.043 129.151 104.335 132.667C103.892 133.088 104.466 133.933 105.02 133.672C109.611 131.505 112.757 126.461 113.565 121.534C113.595 121.347 113.331 121.259 113.247 121.433Z" fill="#9D7C6B"/>
<path d="M114.982 125.51C112.94 129.063 109.637 130.695 106.362 132.863C106.049 133.071 106.3 133.596 106.66 133.459C110.385 132.042 113.691 129.351 115.134 125.581C115.172 125.48 115.036 125.416 114.982 125.51Z" fill="#9D7C6B"/>
<path d="M118.062 109.392C116.023 110.494 114.118 111.935 113.033 114.034C112.922 114.247 113.228 114.435 113.382 114.26C114.896 112.548 116.246 110.838 118.109 109.462C118.153 109.429 118.108 109.367 118.062 109.392Z" fill="#9D7C6B"/>
<path d="M118.908 109.926C118.378 111.206 117.647 112.336 116.964 113.535C116.893 113.659 117.084 113.778 117.174 113.671C118.069 112.591 118.603 111.316 119.06 109.997C119.095 109.897 118.951 109.824 118.908 109.926Z" fill="#9D7C6B"/>
<path d="M120.014 111.082C119.929 113.197 118.59 115.176 118.163 117.245C118.11 117.502 118.489 117.622 118.599 117.385C119.441 115.577 120.357 113.093 120.182 111.069C120.172 110.958 120.018 110.977 120.014 111.082Z" fill="#9D7C6B"/>
<path d="M101.843 119.611C100.227 122.403 99.0741 127.537 101.496 130.237C101.68 130.441 101.987 130.217 101.981 129.992C101.934 128.429 101.277 126.919 101.175 125.331C101.052 123.431 101.381 121.479 101.995 119.683C102.029 119.581 101.898 119.517 101.843 119.611Z" fill="#9D7C6B"/>
<path d="M119 128.024C116.506 130.86 113.555 132.607 110.363 134.516C110.133 134.653 110.324 135.003 110.567 134.925C114.117 133.794 116.953 131.061 119.096 128.106C119.143 128.041 119.055 127.962 119 128.024Z" fill="#9D7C6B"/>
<path d="M99.9911 132.376C98.0803 132.008 96.0152 132.55 94.5339 133.809C97.6151 134.066 100.647 134.913 103.415 136.291" fill="#9D7C6B"/>
<path d="M103.142 136.011C105.504 137.463 107.587 139.366 109.245 141.586C109.58 141.133 109.633 140.519 109.505 139.972C109.376 139.424 109.084 138.929 108.775 138.459C107.933 137.182 106.911 135.998 105.633 135.158" fill="#9D7C6B"/>
<path d="M43.5632 116.051C61.351 123.383 65.0398 151.688 85.4158 153.674C85.9186 153.723 86.2494 152.976 85.7053 152.769C66.7273 145.535 62.8503 121.964 43.6819 115.798C43.5162 115.745 43.3918 115.981 43.5632 116.051Z" fill="#9D7C6B"/>
<path d="M104.448 131.095C96.0013 149.25 101.179 174.422 120.772 183.141C121.182 183.323 121.547 182.776 121.202 182.475C105.485 168.748 97.1415 151.94 104.701 131.214C104.762 131.048 104.525 130.929 104.448 131.095Z" fill="#9D7C6B"/>
<path d="M149.473 199.32C141.891 195.692 135.361 190.397 131.113 183.046C126.818 175.613 127.514 169.592 128.992 161.679C130.001 156.275 130.948 149.829 130.083 144.314C130.044 144.062 129.676 144.085 129.685 144.345C130.005 154.144 125.435 164.31 126.82 173.854C128.532 185.654 139.057 194.945 149.405 199.465C149.498 199.505 149.566 199.365 149.473 199.32Z" fill="#9D7C6B"/>
<path d="M126.795 174.022C135.347 165.263 137.898 153.481 130.453 143.12C130.166 142.722 129.589 142.678 129.26 143.051C121.785 151.533 120.078 164.72 126.448 174.194C126.676 174.533 127.275 174.26 127.105 173.867C123.027 164.479 123.021 154.769 128.822 146.133C129.031 145.821 129.844 144.305 130.194 144.273C129.813 144.308 132.657 150.25 133.047 151.563C135.517 159.894 132.235 167.68 126.715 173.953C126.67 174.004 126.748 174.07 126.795 174.022Z" fill="#9D7C6B"/>
<path d="M123.822 157.182C125.68 160.693 126.467 164.274 127.091 168.159C127.118 168.325 127.351 168.307 127.35 168.139C127.333 164.267 125.86 160.412 123.921 157.115C123.882 157.047 123.786 157.115 123.822 157.182Z" fill="#9D7C6B"/>
<path d="M134.5 159.354C131.183 162.321 128.455 166.014 127.215 170.332C127.183 170.443 127.356 170.491 127.404 170.392C129.355 166.37 131.477 162.682 134.561 159.406C134.598 159.368 134.538 159.321 134.5 159.354Z" fill="#9D7C6B"/>
<path d="M133.157 151.814C131.052 154.327 129.27 157.201 128.373 160.375C128.345 160.474 128.5 160.52 128.543 160.429C129.927 157.433 131.305 154.577 133.218 151.866C133.247 151.825 133.19 151.774 133.157 151.814Z" fill="#9D7C6B"/>
<path d="M125.705 148.668C127.11 150.395 128.553 154.185 128.347 156.416C128.333 156.563 128.518 156.625 128.592 156.494C129.228 155.381 128.443 153.889 128.041 152.809C127.501 151.355 126.919 149.699 125.808 148.575C125.753 148.52 125.655 148.606 125.705 148.668Z" fill="#9D7C6B"/>
</svg>
