<svg
              width="116"
              height="91"
              viewBox="0 0 116 91"
              fill="none"
              xmlns="http://www.w3.org/2000/svg"
            >
              <path
                d="M81.5438 18.4714L84.9324 11.6961C85.2032 11.5514 85.4138 11.3151 85.5264 11.0294C85.639 10.7437 85.6462 10.4273 85.5469 10.1367C85.544 9.96575 85.5068 9.79714 85.4374 9.64088C85.3681 9.48462 85.2681 9.34389 85.1433 9.22705C85.0185 9.11021 84.8715 9.01966 84.711 8.96076C84.5505 8.90186 84.3798 8.87582 84.209 8.88418C83.4972 8.54739 78.828 4.57127 78.0895 4.94926L63.9118 7.31062C63.6044 7.3526 63.3246 7.50991 63.129 7.75063C62.9872 7.88352 59.4659 12.8778 59.3448 13.0254C57.93 13.3886 58.2014 15.784 59.566 15.9939L65.0976 21.4292C60.7474 23.1464 56.8634 25.865 53.7606 29.3644C50.4897 27.8165 46.9569 26.8973 43.3464 26.6547L45.0597 24.2566C50.073 15.9721 38.2059 9.461 33.5205 18.0733C26.2789 11.4475 17.2013 21.4653 24.6083 27.6628L26.6757 29.1399C-7.51422 42.6845 7.55865 92.7209 43.7358 84.7648C50.8539 84.1951 57.5111 81.0172 62.4304 75.8409C68.92 79.1506 76.3979 79.9658 83.4483 78.1323C120.981 73.83 119.141 20.3511 81.5438 18.4714ZM82.8579 74.5879C77.1369 74.9918 71.4419 73.5018 66.6517 70.3476C73.9958 58.6697 70.6867 41.2074 59.697 32.9655C63.2628 27.981 68.4749 24.4164 74.4132 22.9011C105.636 21.3982 113.305 65.8012 82.8579 74.5879ZM16.1928 59.9187C12.5028 41.263 33.1153 23.0768 49.8021 34.6864C42.7978 46.326 46.0626 63.741 56.7746 72.0656C44.8163 89.5026 19.0173 79.2831 16.1928 59.9187ZM75.8172 13.2871L74.9571 19.0585C73.8257 19.3286 72.6769 19.52 71.519 19.6311L68.8406 14.4856L75.8172 13.2871ZM63.7308 68.1203L63.4089 67.8278C65.6129 62.5749 66.2381 56.7935 65.2079 51.1909C64.1777 45.5883 61.5369 40.4075 57.6085 36.2822C57.6469 36.1823 57.6986 36.0879 57.7621 36.0017C66.9324 43.1623 69.7662 58.2085 63.6688 68.1852L63.7308 68.1203ZM58.8188 69.0294C49.7726 61.7388 46.9594 46.8167 52.8028 36.7366C52.9652 36.8526 53.1201 36.9789 53.2665 37.1147C51.1741 42.3752 50.609 48.1195 51.6362 53.687C52.6633 59.2544 55.2411 64.4189 59.0729 68.5864L58.8188 69.0294ZM56.0663 39.9269C58.9445 43.3439 60.8832 47.4516 61.6917 51.8456C62.5002 56.2396 62.1505 60.7683 60.6771 64.9861C57.8623 61.5473 55.9588 57.4551 55.1422 53.0869C54.3255 48.7188 54.622 44.2153 56.0042 39.9918L56.0663 39.9269ZM78.5399 18.48L77.707 18.6187L78.5671 12.8474L81.5976 12.3426L78.5399 18.48ZM80.4401 9.32977L79.1287 9.5482L79.3001 8.49967L80.4401 9.32977ZM76.6656 7.77279L76.3109 10.0175L67.1308 11.5465L66.0677 9.5379L76.6656 7.77279ZM63.8995 11.0647L64.4016 12.0011L63.0015 12.2342L63.8995 11.0647ZM62.8003 15.4005L65.8485 14.8928L68.6332 20.13C68.3589 20.1577 68.0866 20.2031 67.818 20.2657L62.8003 15.4005ZM11.3369 60.7274C10.7654 57.3196 10.8947 53.8311 11.7167 50.4749C12.5388 47.1187 14.0364 43.9653 16.1181 41.2073C9.16395 52.3832 12.0124 69.3758 22.2488 77.6885C19.3706 75.7537 16.9181 73.2512 15.0417 70.3346C13.1653 67.418 11.9046 64.1487 11.3369 60.7274ZM101.417 64.8488C109.292 52.973 106.264 34.7901 94.9643 26.1081C108.098 33.8835 111.304 53.2391 101.417 64.8488Z"
                fill="#9D7C6B"
              />
            </svg>