<svg width="128" height="170" viewBox="0 0 128 170" fill="none" xmlns="http://www.w3.org/2000/svg">
<g clip-path="url(#clip0_3060_11577)">
<path d="M73.6083 46.7444C63.864 52.5516 52.1067 52.9823 42.3665 58.69C33.5661 63.847 27.1042 72.9114 25.1779 82.9328C22.9342 94.6059 25.8485 106.501 23.4878 118.236C20.6422 132.378 13.8307 143.87 4.52001 154.663C4.13929 155.104 4.72751 155.619 5.1576 155.271C14.2308 147.927 19.9984 136.302 23.2133 125.288C24.8561 119.66 25.9046 113.795 25.9871 107.925C26.0697 102.043 25.3316 96.1822 25.433 90.2995C25.6593 77.1741 32.1359 65.0958 43.8656 58.7307C53.3044 53.6088 64.9266 53.3951 73.6398 46.7958C73.6702 46.7728 73.6422 46.7242 73.6083 46.7444Z" fill="#9D7C6B"/>
<path d="M80.0404 40.1091C77.4381 43.2467 74.0509 45.9102 70.7155 48.2248C70.541 48.3459 70.6988 48.5945 70.8856 48.5027C74.2863 46.8292 78.3229 43.5601 80.1566 40.1932C80.1946 40.1233 80.0936 40.0449 80.0404 40.1091Z" fill="#9D7C6B"/>
<path d="M76.7085 43.9418C77.6663 42.7418 77.3083 41.9712 76.798 40.6995C76.2616 39.3625 75.4148 38.3949 75.5634 36.8401C75.6959 35.4548 76.5641 34.2162 77.4973 33.2079C79.1845 31.385 81.7752 29.8402 84.3068 30.0231C87.3062 30.2398 89.2067 32.4372 89.3342 35.4191C89.4857 38.9618 87.4582 41.6531 84.0803 42.7657C81.6341 43.5715 78.7609 42.2981 76.6048 43.8025C76.4929 43.8806 76.5721 44.0318 76.6979 44.0099C79.1627 43.5838 81.41 44.592 83.8619 43.8313C85.8365 43.2187 87.8712 42.1882 88.9836 40.39C90.7031 37.611 90.5294 32.6937 87.783 30.5604C84.6398 28.1191 80.4686 29.7412 77.8193 32.0731C76.405 33.3177 75.0871 34.8248 74.9006 36.7773C74.6827 39.0595 77.5038 41.9386 76.6116 43.8717C76.5848 43.9297 76.6636 43.9979 76.7085 43.9418Z" fill="#9D7C6B"/>
<path d="M88.1054 31.9657C85.9223 29.4356 83.1717 29.6091 80.5553 31.5625C79.1057 32.6446 78.1276 34.1409 77.5106 35.8199C77.1717 36.7417 76.8859 37.6912 76.8955 38.6804C76.9128 40.4449 77.9288 41.6916 76.9886 43.6549C76.9415 43.753 77.0784 43.8691 77.1526 43.7736C78.7204 41.7586 76.9601 39.4374 77.4588 37.0934C78.4416 32.4729 83.9538 27.6416 88.0791 31.9935C88.0963 32.0116 88.1214 31.9841 88.1054 31.9657Z" fill="#9D7C6B"/>
<path d="M85.7544 30.9969C84.2339 30.7185 82.5642 32.0531 81.6097 33.0999C81.5258 33.192 81.658 33.3144 81.7484 33.2321C82.7421 32.3287 84.2709 30.9085 85.7375 31.0717C85.7851 31.077 85.804 31.0061 85.7544 30.9969Z" fill="#9D7C6B"/>
<path d="M80.9028 34.1778C79.6856 35.344 79.0327 36.9511 78.717 38.5862C78.6899 38.7275 78.8815 38.7619 78.9288 38.6343C79.5028 37.0846 79.8424 35.5177 80.9861 34.2571C81.0361 34.2021 80.9561 34.1267 80.9028 34.1778Z" fill="#9D7C6B"/>
<path d="M87.3868 33.575C86.8647 37.4404 83.7429 39.3038 80.9133 41.4759C80.817 41.5501 80.9034 41.7004 81.0134 41.6394C84.1336 39.912 87.1415 37.3577 87.5611 33.6148C87.5737 33.5024 87.4022 33.4598 87.3868 33.575Z" fill="#9D7C6B"/>
<path d="M88.5504 32.5161C88.6628 34.2883 88.4681 35.6545 87.8392 37.3194C87.7854 37.4618 87.9699 37.5718 88.053 37.4342C88.8903 36.0465 89.1223 34.0457 88.6128 32.5057C88.6017 32.4721 88.548 32.4789 88.5504 32.5161Z" fill="#9D7C6B"/>
<path d="M87.2684 38.776C85.5075 40.4621 83.7019 42.1812 81.2146 42.617C79.6797 42.8858 78.2162 42.7748 76.8371 43.5975C76.7646 43.6407 76.818 43.7717 76.8993 43.7361C78.8007 42.9033 80.9558 43.3338 82.8645 42.5116C84.6711 41.7334 86.0265 40.2502 87.3053 38.8113C87.3273 38.7868 87.292 38.7534 87.2684 38.776Z" fill="#9D7C6B"/>
<path d="M85.8914 32.6447C81.6884 35.3697 80.2518 39.7709 77.2707 43.5715C77.1949 43.6683 77.317 43.7872 77.4094 43.7037C79.0316 42.2372 79.8595 40.9749 80.7503 39.0285C81.9244 36.463 83.6751 34.4005 85.9315 32.71C85.9703 32.681 85.9335 32.6173 85.8914 32.6447Z" fill="#9D7C6B"/>
<path d="M70.5366 57.6633C65.862 52.6452 59.0196 52.3385 52.83 54.5866C52.6331 54.6581 52.7199 54.9505 52.924 54.8984C59.332 53.2627 65.2278 53.2045 70.4367 57.7681C70.5071 57.8299 70.5998 57.7313 70.5366 57.6633Z" fill="#9D7C6B"/>
<path d="M66.5125 55.223C67.5036 56.7273 65.5714 59.7765 65.9858 61.6519C66.34 63.2551 67.3447 64.3565 68.6504 65.298C71.7536 67.5352 76.5811 68.9503 79.6588 65.8621C82.157 63.3554 81.5378 58.4504 79.3705 55.9146C77.9418 54.2432 75.6174 53.5909 73.5025 53.3716C70.8924 53.101 68.9138 54.5338 66.3736 54.6235C66.2658 54.6273 66.2157 54.7922 66.3235 54.8389C68.4406 55.7586 70.2057 54.2679 72.3873 54.2121C75.2302 54.1391 78.3828 55.3926 79.6747 57.9875C80.9956 60.6406 81.0556 64.4571 78.243 66.208C74.2138 68.7161 67.0101 65.3495 66.5891 60.7038C66.3967 58.5796 68.3761 56.8292 66.6057 55.1478C66.5568 55.1015 66.4743 55.165 66.5125 55.223Z" fill="#9D7C6B"/>
<path d="M79.9467 64.1156C76.8561 69.0813 70.7424 65.6802 68.6914 61.6057C67.5605 59.3588 68.8976 56.4875 66.893 54.7742C66.8101 54.7033 66.6616 54.8044 66.7354 54.9014C68.1637 56.784 67.2141 59.3138 68.2221 61.4056C69.1065 63.2408 70.4414 64.84 72.2453 65.8182C75.2647 67.4557 78.2539 67.2211 79.9804 64.1337C79.9926 64.112 79.9596 64.0947 79.9467 64.1156Z" fill="#9D7C6B"/>
<path d="M77.8434 65.4854C76.4007 65.9359 74.682 64.8824 73.488 64.1651C73.3798 64.1 73.2998 64.2645 73.3974 64.3338C74.5533 65.1544 76.4184 66.1254 77.8657 65.5588C77.9109 65.5411 77.8913 65.4706 77.8434 65.4854Z" fill="#9D7C6B"/>
<path d="M72.5396 63.3148C71.1581 62.3173 70.5168 60.83 69.6456 59.4306C69.5827 59.3297 69.4006 59.4014 69.4491 59.5186C70.0877 61.0608 71.0465 62.5226 72.4853 63.4162C72.5496 63.456 72.5976 63.3568 72.5396 63.3148Z" fill="#9D7C6B"/>
<path d="M79.1196 62.6406C77.9786 59.045 74.4817 57.1458 71.0799 56.0775C70.9768 56.0451 70.9169 56.2084 71.0133 56.2553C74.2179 57.8173 77.6833 58.9983 78.9484 62.6922C78.9856 62.8008 79.1546 62.7508 79.1196 62.6406Z" fill="#9D7C6B"/>
<path d="M80.3677 63.5097C80.5638 61.8954 79.9268 59.9683 78.8219 58.7793C78.7276 58.6779 78.5617 58.8157 78.6347 58.9305C79.0813 59.6333 79.5077 60.3015 79.8032 61.0876C80.0994 61.8758 80.1929 62.6748 80.3046 63.5038C80.3089 63.5364 80.3629 63.5486 80.3677 63.5097Z" fill="#9D7C6B"/>
<path d="M77.8257 57.5921C76.2784 56.4386 74.6719 55.2784 72.7493 54.8684C70.7111 54.4338 68.6971 55.2563 66.6504 54.8535C66.5521 54.8341 66.524 54.9723 66.6164 55.0029C68.1176 55.4997 69.4294 55.1189 70.9681 55.0753C73.5634 55.0017 75.683 56.3071 77.7959 57.633C77.8199 57.6482 77.8488 57.6095 77.8257 57.5921Z" fill="#9D7C6B"/>
<path d="M77.7049 63.8441C74.9723 62.5536 72.8996 60.7756 71.1286 58.3413C70.0002 56.7904 68.7944 55.7526 67.1367 54.7749C67.0448 54.7206 66.9425 54.8582 67.0254 54.9285C70.7077 58.0554 72.9965 62.0804 77.6688 63.9116C77.7134 63.9291 77.7506 63.8656 77.7049 63.8441Z" fill="#9D7C6B"/>
<path d="M35.1894 104.544C30.2378 105.229 26.8499 108.447 24.8427 112.893C24.7564 113.085 25.0181 113.225 25.1297 113.047C27.7751 108.824 30.3438 106.138 35.2128 104.686C35.2891 104.663 35.2729 104.533 35.1894 104.544Z" fill="#9D7C6B"/>
<path d="M30.9467 106.605C32.404 106.417 33.476 108.775 34.4675 109.61C35.0552 110.104 35.7317 110.48 36.4764 110.688C38.3249 111.205 40.1684 110.548 41.8131 109.713C45.0121 108.089 48.1767 104.654 46.8812 100.773C45.8263 97.6142 41.5087 95.7133 38.3695 96.1923C36.3682 96.4977 34.8024 97.8814 33.5115 99.354C31.6217 101.51 31.775 104.033 30.3614 106.401C30.3035 106.498 30.4288 106.616 30.5222 106.553C31.3672 105.99 31.6927 105.511 32.0813 104.534C32.851 102.599 33.2731 100.84 34.8306 99.293C36.6452 97.4909 38.5181 96.6356 41.075 97.1191C43.6903 97.6137 46.4537 99.4855 46.5357 102.388C46.6557 106.635 40.7637 111.305 36.6091 110.104C34.2512 109.422 34.2952 107.449 32.5182 106.54C31.8767 106.212 31.5836 106.221 30.9271 106.487C30.8688 106.511 30.8735 106.615 30.9467 106.605Z" fill="#9D7C6B"/>
<path d="M45.6989 100.137C48.0415 104.938 42.9696 108.263 38.6419 108.283C37.0822 108.29 35.8893 107.99 34.5696 107.218C34.0171 106.894 33.559 106.439 32.9776 106.161C32.1833 105.782 31.5928 105.726 30.767 106.043C30.6655 106.082 30.6776 106.256 30.8002 106.243C33.1542 106.005 35.0477 108.353 37.4904 108.565C39.4567 108.737 41.4626 108.428 43.1796 107.42C46.0331 105.745 47.3719 103.115 45.7317 100.117C45.7196 100.095 45.6884 100.115 45.6989 100.137Z" fill="#9D7C6B"/>
<path d="M45.7082 102.648C45.2838 104.106 43.5005 104.966 42.2346 105.592C42.1378 105.64 42.211 105.805 42.3122 105.765C43.6542 105.238 45.4539 104.189 45.783 102.664C45.7935 102.616 45.722 102.6 45.7082 102.648Z" fill="#9D7C6B"/>
<path d="M41.0211 105.922C39.4332 106.548 37.8231 106.28 36.1705 106.253C36.0483 106.251 36.0293 106.445 36.1505 106.468C37.7876 106.767 39.5429 106.754 41.0677 106.026C41.1262 105.998 41.0818 105.898 41.0211 105.922Z" fill="#9D7C6B"/>
<path d="M44.0057 100.031C40.394 98.9993 36.8433 100.978 34.1351 103.233C34.0501 103.303 34.1643 103.435 34.2545 103.38C37.271 101.551 40.2167 99.2257 43.966 100.205C44.0778 100.234 44.116 100.062 44.0057 100.031Z" fill="#9D7C6B"/>
<path d="M45.4159 99.4533C44.1502 98.4109 42.2092 97.9138 40.5971 98.1907C40.4559 98.2149 40.5054 98.4265 40.6365 98.4281C42.4152 98.4492 43.7625 98.7568 45.3788 99.5045C45.4096 99.5187 45.4452 99.4773 45.4159 99.4533Z" fill="#9D7C6B"/>
<path d="M39.0649 98.3829C37.4237 98.994 35.7807 99.6334 34.4359 100.792C32.684 102.302 32.2693 104.632 30.7054 106.291C30.6358 106.365 30.7422 106.458 30.8163 106.397C32.3537 105.128 32.7064 103.236 33.9527 101.734C35.2651 100.153 37.2659 99.2786 39.0857 98.4291C39.1119 98.4168 39.0921 98.3728 39.0649 98.3829Z" fill="#9D7C6B"/>
<path d="M44.2534 101.873C41.9809 103.322 39.42 104.253 36.7192 104.409C34.5387 104.534 32.8798 104.852 30.9014 105.839C30.8024 105.889 30.8771 106.043 30.9791 106.013C32.4522 105.57 33.8559 104.954 35.4042 104.819C36.3922 104.734 37.3571 104.769 38.3388 104.588C40.5508 104.181 42.4895 103.269 44.2935 101.939C44.3326 101.91 44.2956 101.846 44.2534 101.873Z" fill="#9D7C6B"/>
<path d="M17.2673 104.291C22.6785 108.491 23.8262 114.405 23.3916 120.979C23.3795 121.162 23.6831 121.19 23.7132 121.009C24.7768 114.592 23.1949 107.709 17.3513 104.175C17.2827 104.133 17.2022 104.24 17.2673 104.291Z" fill="#9D7C6B"/>
<path d="M20.5636 107.561C18.7931 106.295 17.7088 107.911 15.8843 108.45C11.036 109.882 5.62338 102.797 7.5756 98.2452C8.67574 95.6799 11.0119 94.7885 13.6704 95.0031C17.0649 95.2768 19.2139 97.5853 20.1516 100.775C20.8405 103.119 19.4864 105.679 20.9179 107.772C20.9761 107.857 21.1493 107.83 21.1302 107.708C20.7732 105.435 21.7303 103.286 21.1667 101.008C20.7002 99.1233 19.7551 96.9294 18.1919 95.6948C15.4827 93.5553 10.1222 93.5773 7.83718 96.3991C5.32181 99.5056 6.90622 103.734 9.20648 106.413C10.4221 107.829 11.9097 109.163 13.8364 109.384C15.9345 109.625 18.8599 106.984 20.5066 107.668C20.5794 107.698 20.6264 107.606 20.5636 107.561Z" fill="#9D7C6B"/>
<path d="M9.22357 96.1245C6.66602 98.2769 6.80653 101.029 8.72782 103.67C9.79266 105.133 11.2761 106.129 12.948 106.767C13.865 107.117 14.8118 107.417 15.801 107.417C17.5627 107.416 18.8308 106.425 20.775 107.386C20.8734 107.435 20.9875 107.297 20.8938 107.222C18.9154 105.643 16.5365 107.321 14.2167 106.833C9.58325 105.86 4.88409 100.189 9.25134 96.1509C9.26968 96.1339 9.24207 96.109 9.22357 96.1245Z" fill="#9D7C6B"/>
<path d="M8.22553 98.4636C7.92809 99.9801 9.2442 101.668 10.2778 102.635C10.3692 102.72 10.4906 102.587 10.41 102.496C9.51888 101.491 8.11885 99.945 8.30014 98.4806C8.3061 98.4328 8.23513 98.4143 8.22553 98.4636Z" fill="#9D7C6B"/>
<path d="M11.3472 103.354C12.4985 104.586 14.0978 105.259 15.729 105.595C15.8432 105.618 15.9228 105.439 15.8042 105.393C14.2499 104.795 12.6814 104.438 11.4264 103.271C11.3719 103.221 11.2968 103.301 11.3472 103.354Z" fill="#9D7C6B"/>
<path d="M10.8251 96.8633C14.6837 97.4332 16.5074 100.579 18.6446 103.435C18.7178 103.533 18.8672 103.445 18.808 103.335C17.1191 100.193 14.6024 97.155 10.8646 96.6889C10.7523 96.6748 10.71 96.8463 10.8251 96.8633Z" fill="#9D7C6B"/>
<path d="M9.78007 95.6864C11.5544 95.596 12.9174 95.8086 14.5752 96.458C14.718 96.5139 14.8254 96.3283 14.6898 96.2442C13.313 95.3901 11.3153 95.1339 9.76967 95.624C9.73558 95.6348 9.74317 95.6883 9.78007 95.6864Z" fill="#9D7C6B"/>
<path d="M16.0237 97.0468C17.6838 98.824 19.3927 100.661 19.7893 103.15C20.0344 104.688 19.9122 106.152 20.7154 107.538C20.758 107.611 20.8886 107.557 20.8541 107.475C20.0444 105.562 20.5031 103.414 19.7035 101.494C18.9476 99.6795 17.4813 98.3058 16.059 97.0099C16.0345 96.9876 16.0014 97.0229 16.0237 97.0468Z" fill="#9D7C6B"/>
<path d="M9.87599 98.3471C12.5485 102.584 16.9322 104.076 20.6956 107.103C20.792 107.181 20.9095 107.057 20.8278 106.965C19.381 105.324 18.1287 104.481 16.1932 103.566C13.6431 102.36 11.6031 100.584 9.94136 98.3072C9.91262 98.2679 9.84936 98.3049 9.87599 98.3471Z" fill="#9D7C6B"/>
<path d="M10.7442 126.07C15.2161 131.259 15.1695 137.282 13.441 143.64C13.3929 143.817 13.6848 143.905 13.7503 143.734C16.0641 137.654 15.8772 130.595 10.8496 125.973C10.7905 125.918 10.6904 126.007 10.7442 126.07Z" fill="#9D7C6B"/>
<path d="M13.3268 129.929C11.8422 128.337 10.4593 129.706 8.56429 129.873C3.52839 130.316 -0.373333 122.299 2.44187 118.224C4.02847 115.928 6.49499 115.517 9.05823 116.254C12.3312 117.195 13.9803 119.883 14.2674 123.196C14.4782 125.63 12.644 127.87 13.6323 130.206C13.6726 130.301 13.8478 130.309 13.8531 130.185C13.9535 127.886 15.3174 125.969 15.2162 123.625C15.1324 121.685 14.6407 119.348 13.3531 117.828C11.1213 115.194 5.86264 114.154 3.06401 116.467C-0.0169662 119.013 0.698295 123.472 2.42222 126.554C3.33335 128.182 4.52716 129.784 6.37191 130.383C8.38068 131.035 11.7713 129.025 13.2499 130.022C13.3153 130.066 13.3795 129.986 13.3268 129.929Z" fill="#9D7C6B"/>
<path d="M4.47727 116.472C1.54391 118.075 1.1364 120.801 2.49656 123.769C3.25029 125.415 4.50711 126.685 6.01953 127.641C6.84896 128.165 7.71768 128.647 8.68725 128.843C10.414 129.192 11.8533 128.472 13.5686 129.799C13.6555 129.866 13.7947 129.754 13.7176 129.661C12.0914 127.721 9.42708 128.895 7.24984 127.958C2.90114 126.085 -0.581433 119.596 4.4992 116.503C4.52062 116.49 4.49842 116.46 4.47727 116.472Z" fill="#9D7C6B"/>
<path d="M3.03589 118.567C2.44403 119.994 3.39945 121.91 4.22111 123.062C4.29384 123.164 4.43927 123.057 4.37826 122.952C3.7039 121.79 2.63798 119.998 3.10577 118.598C3.121 118.553 3.0551 118.521 3.03589 118.567Z" fill="#9D7C6B"/>
<path d="M5.1266 123.979C6.01112 125.415 7.44552 126.391 8.97782 127.043C9.08508 127.089 9.19873 126.929 9.09143 126.861C7.68633 125.967 6.21967 125.306 5.22077 123.913C5.1774 123.853 5.08802 123.917 5.1266 123.979Z" fill="#9D7C6B"/>
<path d="M5.90114 117.514C9.5703 118.837 10.7348 122.282 12.2637 125.504C12.3161 125.615 12.4799 125.558 12.4437 125.439C11.4107 122.025 9.54583 118.548 5.97447 117.351C5.86712 117.315 5.79174 117.474 5.90114 117.514Z" fill="#9D7C6B"/>
<path d="M5.10963 116.153C6.86676 116.415 8.16051 116.894 9.65685 117.859C9.78575 117.942 9.9278 117.781 9.81158 117.672C8.63132 116.562 6.72394 115.915 5.11185 116.089C5.07636 116.093 5.07302 116.147 5.10963 116.153Z" fill="#9D7C6B"/>
<path d="M10.9603 118.722C12.2353 120.793 13.5463 122.933 13.4421 125.45C13.3777 127.007 12.9678 128.418 13.4807 129.935C13.5078 130.015 13.6465 129.988 13.6288 129.901C13.2143 127.865 14.0893 125.851 13.6859 123.811C13.3047 121.882 12.1396 120.245 11.0021 118.693C10.9825 118.666 10.943 118.695 10.9603 118.722Z" fill="#9D7C6B"/>
<path d="M4.67685 118.78C6.45714 123.462 10.4583 125.793 13.5474 129.507C13.6265 129.602 13.7662 129.504 13.7045 129.397C12.6113 127.502 11.5509 126.427 9.83508 125.147C7.57429 123.46 5.92682 121.315 4.74887 118.754C4.72851 118.71 4.65909 118.734 4.67685 118.78Z" fill="#9D7C6B"/>
<path d="M49.7733 64.3285C42.9713 60.5191 34.6952 63.5376 30.7589 70.0025C30.6651 70.1564 30.9108 70.3412 31.0203 70.1919C35.5249 64.0471 42.5924 61.4349 49.7049 64.4561C49.7893 64.4919 49.8559 64.3748 49.7733 64.3285Z" fill="#9D7C6B"/>
<path d="M45.1722 63.3052C46.351 64.2213 45.8694 68.4013 46.9497 69.9146C47.8933 71.2366 49.3353 71.8745 50.8558 72.2882C54.4386 73.2632 59.1782 72.9221 61.0347 69.1752C62.6604 65.8942 60.3219 61.2978 57.2764 59.6954C55.5213 58.7719 53.5264 58.8872 51.6252 59.24C48.8106 59.7622 47.4296 61.8092 44.8586 62.7823C44.7319 62.8303 44.7675 62.996 44.8958 63.0066C47.2795 63.2023 48.7062 61.0091 50.8818 60.3413C53.7174 59.4707 56.9249 60.0154 58.9619 62.2181C61.2871 64.7326 61.726 68.9478 58.5437 71.0511C55.2277 73.2429 48.0847 72.4032 46.7358 68.1432C46.1086 66.1624 47.4348 64.2212 45.2423 63.2085C45.1845 63.1817 45.1154 63.261 45.1722 63.3052Z" fill="#9D7C6B"/>
<path d="M60.7546 67.412C59.4287 73.0828 52.5939 71.8974 49.2979 68.6596C47.5217 66.9151 47.828 63.7365 45.3969 62.7634C45.2749 62.7146 45.1904 62.8692 45.3003 62.9435C47.1997 64.228 47.5387 67.5415 49.3876 69.1739C50.8289 70.4464 52.5502 71.3647 54.4835 71.5816C57.7354 71.9465 60.1861 70.6967 60.792 67.4204C60.7964 67.3963 60.7603 67.3877 60.7546 67.412Z" fill="#9D7C6B"/>
<path d="M59.2047 69.3843C58.0002 70.2803 55.9999 69.8196 54.659 69.5357C54.5372 69.5099 54.5 69.686 54.6166 69.7225C55.967 70.1437 58.0809 70.4503 59.2524 69.4434C59.285 69.4153 59.2394 69.3584 59.2047 69.3843Z" fill="#9D7C6B"/>
<path d="M53.4855 69.0357C51.8634 68.525 50.7747 67.337 49.4991 66.2912C49.3903 66.202 49.2574 66.3437 49.3493 66.4485C50.4487 67.7021 51.8184 68.7546 53.4601 69.1477C53.5326 69.165 53.5551 69.0576 53.4855 69.0357Z" fill="#9D7C6B"/>
<path d="M59.5008 66.287C57.2411 63.2559 53.3637 62.5653 49.7819 62.6491C49.6764 62.6516 49.6538 62.8244 49.7641 62.8383C53.3199 63.288 56.9276 63.2819 59.3483 66.3802C59.4181 66.4696 59.5701 66.38 59.5008 66.287Z" fill="#9D7C6B"/>
<path d="M60.9572 66.6981C60.6182 65.107 59.408 63.5014 57.981 62.7242C57.864 62.6605 57.7313 62.8307 57.8399 62.919C59.2101 64.0296 60.1079 65.1473 60.8992 66.724C60.9166 66.7583 60.9641 66.7311 60.9572 66.6981Z" fill="#9D7C6B"/>
<path d="M56.6445 61.9153C54.8196 61.3205 52.9219 60.7367 50.9773 60.9579C48.9053 61.1935 47.2597 62.6567 45.192 62.9138C45.0953 62.9258 45.0974 63.0667 45.1977 63.0667C46.986 63.0697 48.2615 62.0281 49.9252 61.5307C52.1378 60.869 54.4534 61.4441 56.6333 61.9652C56.6657 61.9729 56.6753 61.9254 56.6445 61.9153Z" fill="#9D7C6B"/>
<path d="M58.5465 67.8772C55.7317 67.5551 53.2146 66.6373 50.8861 65.0232C49.184 63.8432 47.6703 63.1109 45.6282 62.6846C45.5271 62.6635 45.4574 62.8213 45.5616 62.8625C50.0532 64.6381 53.5346 67.7209 58.5395 67.9528C58.5822 67.9547 58.5899 67.8821 58.5465 67.8772Z" fill="#9D7C6B"/>
<path d="M34.1832 82.4145C31.6939 82.2489 28.1737 82.5508 26.3352 84.5233C24.6226 86.3608 24.6115 89.6307 24.7492 91.9267C24.762 92.1393 25.0626 92.1211 25.0748 91.9148C25.1967 89.8449 25.2582 86.7521 26.6618 85.0377C28.3541 82.9708 31.743 82.7275 34.1885 82.5592C34.2833 82.5526 34.2748 82.4205 34.1832 82.4145Z" fill="#9D7C6B"/>
<path d="M29.6308 83.5414C31.1022 83.6635 31.6532 86.2099 32.4229 87.2045C32.8917 87.8102 33.4719 88.3233 34.1534 88.6843C35.7193 89.5142 37.4732 89.3495 39.1419 88.9631C42.6857 88.1427 46.5704 85.6797 46.4333 81.5778C46.3176 78.1165 42.4479 75.1795 39.1802 74.925C37.1114 74.7638 35.2762 75.783 33.6652 76.9762C31.3586 78.6848 30.9669 81.198 29.093 83.2137C29.0197 83.2926 29.0981 83.4463 29.2091 83.4025C29.9645 83.1033 30.1819 82.9949 30.7247 82.3802C32.3504 80.5394 32.6616 78.714 34.9301 77.2175C37.2209 75.7061 39.6274 75.4266 42.1259 76.6985C44.881 78.1009 46.7146 81.0322 45.2842 84.0719C43.2988 88.2916 35.7919 90.454 32.6642 86.5593C31.6455 85.2904 31.7089 83.0563 29.6113 83.4234C29.5379 83.4362 29.5691 83.5362 29.6308 83.5414Z" fill="#9D7C6B"/>
<path d="M45.3985 80.3088C46.6817 85.6234 40.7605 87.7441 36.4821 86.7251C34.3061 86.2067 33.5253 85.018 31.9434 83.7325C31.1147 83.0593 30.6059 82.8709 29.5649 82.9538C29.4556 82.9625 29.4257 83.1392 29.546 83.1555C31.919 83.4784 33.2547 86.1178 35.5975 86.8284C37.53 87.4147 39.5724 87.523 41.4984 86.8613C44.6324 85.7848 46.3867 83.5611 45.4353 80.298C45.4282 80.274 45.3928 80.2851 45.3985 80.3088Z" fill="#9D7C6B"/>
<path d="M44.8824 82.7651C44.1812 84.1074 42.2241 84.5653 40.8716 84.9163C40.7686 84.9429 40.7939 85.1203 40.9028 85.1036C42.3058 84.8889 44.335 84.2123 44.9499 82.8013C44.9693 82.7569 44.9056 82.7209 44.8824 82.7651Z" fill="#9D7C6B"/>
<path d="M39.6144 84.9846C37.9291 85.2589 36.4161 84.6654 34.8048 84.2928C34.6895 84.266 34.6132 84.4463 34.7295 84.4942C36.2723 85.1313 37.9843 85.4849 39.633 85.0972C39.6956 85.0824 39.6792 84.9741 39.6144 84.9846Z" fill="#9D7C6B"/>
<path d="M43.7699 79.8524C40.4337 78.1074 36.5882 79.2608 33.4467 80.9087C33.3504 80.9591 33.422 81.1176 33.5244 81.0821C36.8765 79.9198 40.1924 78.2828 43.6854 80.0099C43.7882 80.0608 43.8722 79.9059 43.7699 79.8524Z" fill="#9D7C6B"/>
<path d="M45.2664 79.5826C44.2441 78.2996 42.4607 77.4053 40.8239 77.3361C40.6845 77.3302 40.6699 77.5455 40.8015 77.5757C42.5345 77.9716 43.7959 78.5561 45.217 79.6224C45.2431 79.6419 45.2909 79.6136 45.2664 79.5826Z" fill="#9D7C6B"/>
<path d="M39.2813 77.2029C37.5028 77.4624 35.7037 77.7555 34.1197 78.6573C32.1679 79.7686 31.2951 81.9397 29.4513 83.1804C29.3683 83.2359 29.4439 83.3551 29.5314 83.3111C31.1199 82.5099 31.8346 81.0144 33.0906 79.8323C34.7666 78.2544 37.1164 77.7507 39.2896 77.2529C39.3173 77.2465 39.3101 77.1987 39.2813 77.2029Z" fill="#9D7C6B"/>
<path d="M43.623 81.7042C40.9699 82.6788 38.1994 83.0301 35.4063 82.5392C33.3994 82.1865 31.7211 82.2692 29.7387 82.7815C29.6342 82.8085 29.6608 82.978 29.7698 82.9689C31.2942 82.8439 32.8095 82.5411 34.3418 82.728C35.2635 82.8404 36.1424 83.074 37.0739 83.1163C39.3886 83.2215 41.5405 82.7164 43.6452 81.7776C43.6889 81.7582 43.6705 81.6868 43.623 81.7042Z" fill="#9D7C6B"/>
<path d="M33.7327 127.411C25.3632 123.631 19.5143 132.011 16.8976 138.952C16.8262 139.142 17.0925 139.301 17.1846 139.106C20.4276 132.243 25.1667 124.73 33.6823 127.546C33.7594 127.571 33.8068 127.445 33.7327 127.411Z" fill="#9D7C6B"/>
<path d="M29.05 126.886C30.6641 127.885 30.0912 131.665 31.5182 133.267C32.8206 134.73 34.7765 135.165 36.654 135.329C40.1787 135.638 44.5749 134.443 45.6069 130.572C46.4998 127.222 43.6937 123.147 40.63 121.97C38.7095 121.232 36.4741 121.618 34.5734 122.276C32.1443 123.116 30.8829 125.277 28.6592 126.402C28.5525 126.456 28.6152 126.617 28.7231 126.614C31.1737 126.558 32.6615 124.064 34.8398 123.159C37.6299 121.998 40.6711 122.357 42.859 124.456C44.7896 126.308 45.7645 129.065 44.395 131.506C41.925 135.91 32.9209 136.24 31.1176 131.107C30.4792 129.29 31.1547 127.473 29.092 126.774C29.0242 126.751 28.9953 126.852 29.05 126.886Z" fill="#9D7C6B"/>
<path d="M44.9729 129.306C44.2597 135.073 37.2977 134.671 33.7295 131.743C31.8124 130.17 31.7107 127.02 29.1918 126.313C29.0798 126.282 29.0201 126.45 29.1209 126.503C31.1162 127.564 31.6596 130.612 33.5157 132.031C35.0332 133.191 36.7938 133.971 38.7108 134.09C42.1235 134.301 44.7425 132.811 45.0108 129.309C45.0125 129.288 44.9756 129.284 44.9729 129.306Z" fill="#9D7C6B"/>
<path d="M43.6366 131.437C42.5498 132.442 40.4922 132.207 39.1471 132.069C39.0284 132.057 38.9804 132.231 39.1047 132.256C40.4916 132.531 42.6326 132.618 43.6919 131.49C43.7261 131.454 43.6725 131.404 43.6366 131.437Z" fill="#9D7C6B"/>
<path d="M37.9235 131.695C36.2478 131.358 35.0346 130.289 33.6471 129.379C33.5437 129.311 33.4324 129.472 33.521 129.553C34.7472 130.684 36.2233 131.59 37.898 131.807C37.9699 131.816 37.9973 131.71 37.9235 131.695Z" fill="#9D7C6B"/>
<path d="M43.5968 128.312C41.0388 125.551 37.0996 125.277 33.5653 125.738C33.4443 125.754 33.4473 125.927 33.5724 125.929C37.1475 125.999 40.7486 125.631 43.4734 128.442C43.554 128.525 43.6744 128.396 43.5968 128.312Z" fill="#9D7C6B"/>
<path d="M45.0988 128.579C44.5934 127.04 43.2231 125.568 41.7276 124.947C41.5838 124.887 41.4807 125.074 41.6128 125.16C43.1123 126.134 44.0704 127.102 45.0409 128.605C45.0603 128.635 45.1104 128.614 45.0988 128.579Z" fill="#9D7C6B"/>
<path d="M40.3044 124.278C38.4638 123.888 36.5888 123.528 34.7117 123.903C32.6012 124.325 31.0966 126.017 29.009 126.491C28.9248 126.51 28.9473 126.649 29.0339 126.641C30.6447 126.483 31.7449 125.514 33.1502 124.811C35.393 123.69 37.8999 124.019 40.293 124.328C40.3249 124.332 40.337 124.285 40.3044 124.278Z" fill="#9D7C6B"/>
<path d="M42.8204 130.004C39.8121 129.982 37.1264 129.267 34.5286 127.765C32.8684 126.804 31.3499 126.41 29.439 126.217C29.3192 126.205 29.2745 126.37 29.3967 126.404C34.0284 127.691 37.8433 130.382 42.8232 130.081C42.8726 130.078 42.8697 130.005 42.8204 130.004Z" fill="#9D7C6B"/>
<path d="M59.7508 44.5386C58.4243 49.3456 55.5945 53.0653 51.0515 55.1559C50.8814 55.2342 51.0107 55.5046 51.1836 55.4508C55.9629 53.9578 59.224 49.4698 59.892 44.5707C59.9044 44.4793 59.7759 44.4475 59.7508 44.5386Z" fill="#9D7C6B"/>
<path d="M58.0369 48.8528C58.4979 46.7765 56.8198 46.6251 55.5383 45.2777C51.8056 41.354 56.5745 33.3225 61.5089 33.178C64.462 33.0916 66.4605 35.6943 67.1559 38.3095C67.9574 41.3245 66.3675 43.9315 64.0976 45.7644C62.2176 47.2826 59.3254 47.1516 57.9758 49.2654C57.9131 49.3637 58.0445 49.475 58.1366 49.4174C60.2652 48.0906 62.7032 48.1616 64.7011 46.5127C66.2331 45.2482 67.7272 43.5484 68.1109 41.5481C68.7678 38.1237 66.5013 33.3888 62.8805 32.6744C58.7745 31.8644 55.6257 35.4301 54.2251 38.8639C53.6317 40.3192 53.2598 41.8594 53.7301 43.4051C54.3449 45.4258 57.8989 46.9884 57.9178 48.8416C57.9185 48.9102 58.0221 48.9194 58.0369 48.8528Z" fill="#9D7C6B"/>
<path d="M64.1108 33.9275C60.9532 32.3307 58.3458 33.8023 56.7544 36.8505C55.8706 38.5432 55.6232 40.4548 55.8278 42.3437C56.0923 44.7881 58.419 46.5532 58.2821 48.9831C58.2755 49.1032 58.4543 49.1087 58.4839 49.0021C59.1831 46.4844 56.4752 44.8207 56.1595 42.3315C55.5838 37.7925 58.6919 31.5405 64.0927 33.9613C64.115 33.9713 64.133 33.9387 64.1108 33.9275Z" fill="#9D7C6B"/>
<path d="M61.5612 33.9271C60.047 34.265 59.0393 36.114 58.5396 37.4387C58.4975 37.5502 58.6547 37.6439 58.7084 37.5292C59.2963 36.2705 60.1363 34.4324 61.5834 34.0005C61.6311 33.9862 61.6088 33.9165 61.5612 33.9271Z" fill="#9D7C6B"/>
<path d="M58.2945 38.7095C57.6005 40.254 57.6212 42.0021 57.9532 43.6378C57.978 43.7605 58.1698 43.7232 58.1655 43.6025C58.1062 41.9498 57.8114 40.3517 58.4012 38.7494C58.4235 38.6889 58.3211 38.6506 58.2945 38.7095Z" fill="#9D7C6B"/>
<path d="M64.0598 35.6986C65.068 39.4467 62.8529 42.3968 61.0746 45.4702C61.0216 45.5618 61.16 45.6672 61.2284 45.5816C63.4537 42.7942 65.2937 39.2688 64.231 35.6471C64.1984 35.5362 64.03 35.5877 64.0598 35.6986Z" fill="#9D7C6B"/>
<path d="M64.7319 34.2687C65.1008 35.0161 65.4714 35.7346 65.6656 36.5523C65.8597 37.3694 65.8796 38.1614 65.9016 38.9942C65.9051 39.1282 66.1194 39.1554 66.1413 39.0166C66.3936 37.413 65.8465 35.459 64.7811 34.229C64.7559 34.1998 64.7171 34.2387 64.7319 34.2687Z" fill="#9D7C6B"/>
<path d="M65.9304 40.5403C64.9187 42.8198 63.89 45.0869 61.6968 46.4754C60.3962 47.299 59.095 47.7159 58.1273 48.9666C58.068 49.0432 58.1671 49.1436 58.2382 49.0724C59.7105 47.5952 61.8405 47.1521 63.288 45.6534C64.6541 44.2389 65.339 42.3789 65.9778 40.5578C65.9872 40.5309 65.942 40.514 65.9304 40.5403Z" fill="#9D7C6B"/>
<path d="M62.3175 35.4031C59.4812 39.5084 59.8038 44.1748 58.5077 48.7991C58.4787 48.9022 58.6389 48.9633 58.6855 48.8655C59.4331 47.2954 59.8725 45.8584 60.0096 44.1228C60.2671 40.8655 60.6708 38.3193 62.385 35.4393C62.4107 35.3961 62.345 35.3634 62.3175 35.4031Z" fill="#9D7C6B"/>
<path d="M34.9026 55.9702C34.9869 60.318 33.5511 64.2679 31.7354 68.1507C31.6457 68.3424 31.9079 68.4787 32.0224 68.3046C34.3208 64.8128 35.7587 60.1158 35.0442 55.9466C35.03 55.8637 34.901 55.8906 34.9026 55.9702Z" fill="#9D7C6B"/>
<path d="M34.5218 60.6014C34.6392 58.9019 33.1946 58.7828 31.9161 58.1974C28.9869 56.8562 28.1718 54.2753 28.6871 51.2461C29.0989 48.8238 30.1867 46.1273 32.5185 44.9344C35.7211 43.2961 39.2091 45.6998 40.5486 48.6477C41.5497 50.8508 41.1326 52.9858 39.9467 55.0453C38.9289 56.8129 37.5103 57.6776 36.0197 58.8986C35.2086 59.5629 34.8557 60.0355 34.5843 61.0088C34.5542 61.1168 34.7056 61.1975 34.7791 61.1133C36.2921 59.3779 38.5696 58.703 39.9444 56.8008C41.0651 55.2502 42.1454 53.1231 42.0808 51.1535C41.9667 47.6715 38.5202 43.6136 34.8833 43.6635C30.6981 43.7209 28.5026 48.0073 28.03 51.6302C27.8048 53.3566 27.8079 55.1401 28.8067 56.6348C29.8379 58.1778 34.1231 59.1419 34.4037 60.6211C34.4176 60.6935 34.5175 60.664 34.5218 60.6014Z" fill="#9D7C6B"/>
<path d="M35.9782 44.5508C32.6386 43.9462 30.6031 45.9363 29.8617 49.1471C29.4314 51.0108 29.6944 52.8426 30.362 54.6171C31.2778 57.0508 34.2099 58.2661 34.7929 60.648C34.821 60.7626 34.9957 60.7289 34.9928 60.6148C34.9706 59.7265 34.8645 59.3169 34.2586 58.6323C32.8231 57.0103 31.3384 56.383 30.5216 54.1314C29.0155 49.979 30.5398 43.8653 35.9696 44.5883C35.9936 44.5915 36.0028 44.5554 35.9782 44.5508Z" fill="#9D7C6B"/>
<path d="M33.5399 45.2943C32.1853 46.0851 31.7643 48.1155 31.671 49.5576C31.6641 49.6649 31.845 49.6828 31.8602 49.5752C32.0581 48.1808 32.3284 46.214 33.5801 45.3596C33.6208 45.3318 33.5828 45.2692 33.5399 45.2943Z" fill="#9D7C6B"/>
<path d="M31.8099 50.8209C31.5897 52.4948 32.126 54.171 32.9184 55.6325C32.9768 55.7405 33.155 55.6608 33.1148 55.5443C32.5761 53.9836 31.8193 52.5335 31.9234 50.8315C31.9274 50.7673 31.8184 50.7562 31.8099 50.8209Z" fill="#9D7C6B"/>
<path d="M36.4435 46.2581C38.5275 49.5544 37.2473 53.0146 36.4409 56.4758C36.4172 56.5773 36.5778 56.6454 36.6187 56.5422C37.9275 53.2457 38.6804 49.3018 36.5961 46.1647C36.5325 46.0691 36.3818 46.1605 36.4435 46.2581Z" fill="#9D7C6B"/>
<path d="M36.6705 44.6963C37.2392 45.3039 37.8035 45.8797 38.2273 46.6046C38.6499 47.3271 38.9026 48.084 39.1672 48.8713C39.2089 48.9955 39.4248 48.9738 39.4045 48.8317C39.1743 47.2225 38.086 45.5143 36.7077 44.6451C36.6758 44.625 36.6471 44.6712 36.6705 44.6963Z" fill="#9D7C6B"/>
<path d="M39.6472 50.3441C39.3724 52.594 39.1031 54.8884 37.706 56.7519C36.6665 58.1385 35.2915 59.0246 34.6424 60.6789C34.6073 60.7683 34.7288 60.8404 34.7773 60.7514C35.8353 58.8103 37.8614 57.7089 38.7785 55.674C39.5305 54.0052 39.6234 52.1477 39.6977 50.3487C39.6988 50.3202 39.6508 50.3151 39.6472 50.3441Z" fill="#9D7C6B"/>
<path d="M34.6933 46.4848C33.9804 48.6716 33.7048 50.8696 34.0472 53.1557C34.1685 53.9652 34.4199 54.7243 34.6236 55.5126C35.049 57.1599 34.9181 58.7285 34.9564 60.4069C34.9588 60.5129 35.1291 60.5343 35.1455 60.4248C35.4462 58.4107 35.3765 56.7184 34.7976 54.7658C33.9941 52.0551 34.0793 49.2286 34.768 46.5018C34.7802 46.4534 34.7084 46.4386 34.6933 46.4848Z" fill="#9D7C6B"/>
<path d="M20.4819 78.672C22.9782 82.2383 24.029 86.28 24.6921 90.5274C24.7236 90.7294 25.0199 90.7312 25.0177 90.5156C24.9757 86.4166 23.5329 81.5295 20.5936 78.5817C20.5365 78.5246 20.4343 78.6039 20.4819 78.672Z" fill="#9D7C6B"/>
<path d="M22.7701 82.7288C21.8672 81.1723 20.6563 82.0336 19.2043 82.2568C13.6955 83.1043 9.88492 75.533 12.3146 70.894C13.8439 67.9741 17.5199 67.6449 20.2599 68.9876C22.4821 70.0765 23.6556 71.8612 24.0245 74.2456C24.398 76.6594 23.6985 78.1397 23.0786 80.3945C22.7972 81.4175 22.7006 81.9926 23.0446 83.0184C23.0782 83.1182 23.2514 83.1313 23.2661 83.0107C23.543 80.7289 25.051 78.9092 25.1283 76.5676C25.192 74.6339 24.8739 72.2568 23.7132 70.6495C21.6921 67.8508 16.5536 66.4291 13.5899 68.4835C10.2571 70.7938 10.6674 75.3609 12.1821 78.5832C12.9683 80.2556 14.0153 81.9047 15.7933 82.6362C17.5566 83.3619 21.6265 81.7496 22.6771 82.804C22.7261 82.8534 22.8039 82.7872 22.7701 82.7288Z" fill="#9D7C6B"/>
<path d="M14.9704 68.6205C11.739 70.0765 11.243 73.1063 12.6408 76.2495C13.3004 77.733 14.3606 78.9129 15.6517 79.8754C16.3207 80.374 17.0436 80.881 17.8348 81.1662C19.6256 81.8113 21.344 81.0973 23.0124 82.6066C23.0951 82.6813 23.2397 82.5768 23.1699 82.4792C21.6371 80.3347 18.6397 81.3564 16.4925 80.0722C12.5394 77.7076 9.80836 71.2846 14.9905 68.653C15.0128 68.6418 14.9923 68.6105 14.9704 68.6205Z" fill="#9D7C6B"/>
<path d="M13.3721 70.5992C12.689 71.9778 13.467 73.9569 14.2097 75.1728C14.2754 75.2803 14.4252 75.1815 14.373 75.0728C13.7836 73.8407 12.8765 72.007 13.4396 70.6355C13.4579 70.5908 13.3945 70.5541 13.3721 70.5992Z" fill="#9D7C6B"/>
<path d="M15.042 76.1564C15.8051 77.6553 17.1744 78.7416 18.6467 79.5064C18.7508 79.5605 18.8741 79.4081 18.773 79.3322C17.4448 78.3369 16.0216 77.5645 15.14 76.0963C15.1014 76.0321 15.0089 76.0913 15.042 76.1564Z" fill="#9D7C6B"/>
<path d="M16.3104 69.768C19.9016 71.3575 20.762 74.8889 22.0406 78.2252C22.0848 78.3407 22.2504 78.2904 22.2238 78.1698C21.4604 74.7044 19.8663 71.0541 16.3949 69.6105C16.2902 69.5668 16.2042 69.7209 16.3104 69.768Z" fill="#9D7C6B"/>
<path d="M15.626 68.3497C17.35 68.75 18.6155 69.3331 20.0289 70.4006C20.1518 70.4936 20.3037 70.3422 20.1962 70.2249C19.0995 69.0286 17.254 68.2412 15.6319 68.2867C15.5956 68.2877 15.5907 68.3416 15.626 68.3497Z" fill="#9D7C6B"/>
<path d="M21.2616 71.362C22.3768 73.53 23.5364 75.7821 23.2288 78.296C23.0391 79.8468 22.5291 81.1767 22.9137 82.7359C22.9342 82.8192 23.0738 82.7982 23.0637 82.7109C22.8211 80.6407 23.853 78.6908 23.5848 76.6204C23.3323 74.6714 22.3219 72.973 21.3052 71.3354C21.2876 71.307 21.2467 71.3332 21.2616 71.362Z" fill="#9D7C6B"/>
<path d="M14.9922 70.9376C15.592 73.0015 16.4839 74.8314 17.8929 76.4725C18.6064 77.3034 19.4545 77.9085 20.2419 78.6559C21.3615 79.7187 22.1245 81.0632 23.0133 82.3139C23.0858 82.4158 23.2296 82.324 23.1767 82.2138C22.2826 80.3503 21.314 79.0636 19.7342 77.7483C17.5525 75.9318 16.037 73.5708 15.0655 70.9155C15.0487 70.8694 14.9781 70.8899 14.9922 70.9376Z" fill="#9D7C6B"/>
</g>
<defs>
<clipPath id="clip0_3060_11577">
<rect width="131.409" height="131.409" fill="white" transform="matrix(-0.353329 -0.935499 -0.935499 0.353329 127.363 122.933)"/>
</clipPath>
</defs>
</svg>
