<svg width="125" height="170" viewBox="0 0 125 170" fill="none" xmlns="http://www.w3.org/2000/svg">
<g clip-path="url(#clip0_3060_12005)">
<path d="M53.755 46.7444C63.4992 52.5516 75.2566 52.9823 84.9968 58.69C93.7971 63.847 100.259 72.9114 102.185 82.9328C104.429 94.6059 101.515 106.501 103.875 118.236C106.721 132.378 113.533 143.87 122.843 154.663C123.224 155.104 122.636 155.619 122.206 155.271C113.132 147.927 107.365 136.302 104.15 125.288C102.507 119.66 101.459 113.795 101.376 107.925C101.294 102.043 102.032 96.1822 101.93 90.2995C101.704 77.1741 95.2274 65.0958 83.4977 58.7307C74.0589 53.6088 62.4367 53.3951 53.7234 46.7958C53.693 46.7728 53.7211 46.7242 53.755 46.7444Z" fill="#9D7C6B"/>
<path d="M47.3228 40.1091C49.9251 43.2467 53.3124 45.9102 56.6478 48.2248C56.8223 48.3459 56.6645 48.5945 56.4777 48.5027C53.077 46.8292 49.0404 43.5601 47.2067 40.1932C47.1686 40.1233 47.2697 40.0449 47.3228 40.1091Z" fill="#9D7C6B"/>
<path d="M50.6548 43.9418C49.697 42.7418 50.055 41.9712 50.5652 40.6995C51.1017 39.3625 51.9485 38.3949 51.7999 36.8401C51.6674 35.4548 50.7992 34.2162 49.866 33.2079C48.1788 31.385 45.5881 29.8402 43.0565 30.0231C40.0571 30.2398 38.1566 32.4372 38.0291 35.4191C37.8776 38.9618 39.9051 41.6531 43.283 42.7657C45.7292 43.5715 48.6024 42.2981 50.7585 43.8025C50.8703 43.8806 50.7912 44.0318 50.6654 44.0099C48.2006 43.5838 45.9533 44.592 43.5014 43.8313C41.5268 43.2187 39.4921 42.1882 38.3797 40.39C36.6602 37.611 36.8339 32.6937 39.5803 30.5604C42.7234 28.1191 46.8947 29.7412 49.544 32.0731C50.9582 33.3177 52.2762 34.8248 52.4627 36.7773C52.6806 39.0595 49.8594 41.9386 50.7517 43.8717C50.7785 43.9297 50.6997 43.9979 50.6548 43.9418Z" fill="#9D7C6B"/>
<path d="M39.2579 31.9657C41.441 29.4356 44.1915 29.6091 46.808 31.5625C48.2575 32.6446 49.2357 34.1409 49.8527 35.8199C50.1915 36.7417 50.4774 37.6912 50.4678 38.6804C50.4504 40.4449 49.4344 41.6916 50.3747 43.6549C50.4218 43.753 50.2849 43.8691 50.2107 43.7736C48.6429 41.7586 50.4031 39.4374 49.9044 37.0934C48.9216 32.4729 43.4094 27.6416 39.2842 31.9935C39.267 32.0116 39.2419 31.9841 39.2579 31.9657Z" fill="#9D7C6B"/>
<path d="M41.6089 30.9969C43.1294 30.7185 44.7991 32.0531 45.7536 33.0999C45.8374 33.192 45.7053 33.3144 45.6149 33.2321C44.6212 32.3287 43.0924 30.9085 41.6258 31.0717C41.5781 31.077 41.5593 31.0061 41.6089 30.9969Z" fill="#9D7C6B"/>
<path d="M46.4605 34.1778C47.6777 35.344 48.3305 36.9511 48.6462 38.5862C48.6733 38.7275 48.4817 38.7619 48.4345 38.6343C47.8605 37.0846 47.5209 35.5177 46.3772 34.2571C46.3272 34.2021 46.4072 34.1267 46.4605 34.1778Z" fill="#9D7C6B"/>
<path d="M39.9765 33.575C40.4985 37.4404 43.6204 39.3038 46.45 41.4759C46.5463 41.5501 46.4599 41.7004 46.3499 41.6394C43.2297 39.912 40.2218 37.3577 39.8022 33.6148C39.7896 33.5024 39.9611 33.4598 39.9765 33.575Z" fill="#9D7C6B"/>
<path d="M38.8129 32.5161C38.7004 34.2883 38.8952 35.6545 39.5241 37.3194C39.5779 37.4618 39.3934 37.5718 39.3103 37.4342C38.473 36.0465 38.241 34.0457 38.7505 32.5057C38.7615 32.4721 38.8152 32.4789 38.8129 32.5161Z" fill="#9D7C6B"/>
<path d="M40.0949 38.776C41.8558 40.4621 43.6614 42.1812 46.1487 42.617C47.6836 42.8858 49.147 42.7748 50.5261 43.5975C50.5987 43.6407 50.5453 43.7717 50.464 43.7361C48.5626 42.9033 46.4075 43.3338 44.4988 42.5116C42.6922 41.7334 41.3367 40.2502 40.0579 38.8113C40.036 38.7868 40.0713 38.7534 40.0949 38.776Z" fill="#9D7C6B"/>
<path d="M41.4719 32.6447C45.6749 35.3697 47.1115 39.7709 50.0926 43.5715C50.1684 43.6683 50.0463 43.7872 49.9539 43.7037C48.3316 42.2372 47.5038 40.9749 46.613 39.0285C45.4389 36.463 43.6882 34.4005 41.4318 32.71C41.393 32.681 41.4298 32.6173 41.4719 32.6447Z" fill="#9D7C6B"/>
<path d="M56.8267 57.6633C61.5012 52.6452 68.3437 52.3385 74.5333 54.5866C74.7302 54.6581 74.6434 54.9505 74.4393 54.8984C68.0313 53.2627 62.1355 53.2045 56.9265 57.7681C56.8561 57.8299 56.7635 57.7313 56.8267 57.6633Z" fill="#9D7C6B"/>
<path d="M60.8508 55.223C59.8596 56.7273 61.7919 59.7765 61.3775 61.6519C61.0233 63.2551 60.0186 64.3565 58.7129 65.298C55.6097 67.5352 50.7821 68.9503 47.7045 65.8621C45.2063 63.3554 45.8254 58.4504 47.9928 55.9146C49.4214 54.2432 51.7458 53.5909 53.8608 53.3716C56.4709 53.101 58.4495 54.5338 60.9897 54.6235C61.0975 54.6273 61.1475 54.7922 61.0397 54.8389C58.9227 55.7586 57.1576 54.2679 54.976 54.2121C52.1331 54.1391 48.9805 55.3926 47.6885 57.9875C46.3677 60.6406 46.3077 64.4571 49.1203 66.208C53.1495 68.7161 60.3532 65.3495 60.7742 60.7038C60.9666 58.5796 58.9872 56.8292 60.7576 55.1478C60.8064 55.1015 60.889 55.165 60.8508 55.223Z" fill="#9D7C6B"/>
<path d="M47.4165 64.1156C50.5072 69.0813 56.6208 65.6802 58.6719 61.6057C59.8028 59.3588 58.4657 56.4875 60.4703 54.7742C60.5532 54.7033 60.7017 54.8044 60.6278 54.9014C59.1996 56.784 60.1492 59.3138 59.1412 61.4056C58.2568 63.2408 56.9219 64.84 55.118 65.8182C52.0985 67.4557 49.1094 67.2211 47.3829 64.1337C47.3707 64.112 47.4037 64.0947 47.4165 64.1156Z" fill="#9D7C6B"/>
<path d="M49.5199 65.4854C50.9626 65.9359 52.6813 64.8824 53.8753 64.1651C53.9835 64.1 54.0635 64.2645 53.9658 64.3338C52.81 65.1544 50.9449 66.1254 49.4976 65.5588C49.4523 65.5411 49.472 65.4706 49.5199 65.4854Z" fill="#9D7C6B"/>
<path d="M54.8237 63.3148C56.2052 62.3173 56.8465 60.83 57.7177 59.4306C57.7806 59.3297 57.9627 59.4014 57.9142 59.5186C57.2756 61.0608 56.3168 62.5226 54.878 63.4162C54.8137 63.456 54.7657 63.3568 54.8237 63.3148Z" fill="#9D7C6B"/>
<path d="M48.2437 62.6406C49.3846 59.045 52.8816 57.1458 56.2834 56.0775C56.3865 56.0451 56.4463 56.2084 56.3499 56.2553C53.1454 57.8173 49.68 58.9983 48.4148 62.6922C48.3777 62.8008 48.2087 62.7508 48.2437 62.6406Z" fill="#9D7C6B"/>
<path d="M46.9956 63.5097C46.7995 61.8954 47.4365 59.9683 48.5414 58.7793C48.6357 58.6779 48.8016 58.8157 48.7286 58.9305C48.282 59.6333 47.8556 60.3015 47.5601 61.0876C47.2639 61.8758 47.1703 62.6748 47.0587 63.5038C47.0544 63.5364 47.0004 63.5486 46.9956 63.5097Z" fill="#9D7C6B"/>
<path d="M49.5376 57.5921C51.0849 56.4386 52.6913 55.2784 54.614 54.8684C56.6522 54.4338 58.6661 55.2563 60.7129 54.8535C60.8112 54.8341 60.8393 54.9723 60.7469 55.0029C59.2457 55.4997 57.9339 55.1189 56.3952 55.0753C53.7999 55.0017 51.6803 56.3071 49.5674 57.633C49.5433 57.6482 49.5145 57.6095 49.5376 57.5921Z" fill="#9D7C6B"/>
<path d="M49.6584 63.8441C52.391 62.5536 54.4636 60.7756 56.2347 58.3413C57.363 56.7904 58.5689 55.7526 60.2266 54.7749C60.3185 54.7206 60.4208 54.8582 60.3379 54.9285C56.6556 58.0554 54.3668 62.0804 49.6945 63.9116C49.6499 63.9291 49.6127 63.8656 49.6584 63.8441Z" fill="#9D7C6B"/>
<path d="M92.1739 104.544C97.1255 105.229 100.513 108.447 102.521 112.893C102.607 113.085 102.345 113.225 102.234 113.047C99.5882 108.824 97.0195 106.138 92.1504 104.686C92.0742 104.663 92.0904 104.533 92.1739 104.544Z" fill="#9D7C6B"/>
<path d="M96.4166 106.605C94.9592 106.417 93.8873 108.775 92.8958 109.61C92.3081 110.104 91.6316 110.48 90.8869 110.688C89.0384 111.205 87.1949 110.548 85.5502 109.713C82.3512 108.089 79.1866 104.654 80.4821 100.773C81.537 97.6142 85.8546 95.7133 88.9938 96.1923C90.9951 96.4977 92.5609 97.8814 93.8518 99.354C95.7416 101.51 95.5883 104.033 97.0019 106.401C97.0597 106.498 96.9345 106.616 96.841 106.553C95.996 105.99 95.6705 105.511 95.2819 104.534C94.5123 102.599 94.0902 100.84 92.5327 99.293C90.718 97.4909 88.8452 96.6356 86.2882 97.1191C83.673 97.6137 80.9095 99.4855 80.8276 102.388C80.7075 106.635 86.5996 111.305 90.7542 110.104C93.1121 109.422 93.0681 107.449 94.8451 106.54C95.4866 106.212 95.7797 106.221 96.4362 106.487C96.4944 106.511 96.4898 106.615 96.4166 106.605Z" fill="#9D7C6B"/>
<path d="M81.6644 100.137C79.3218 104.938 84.3936 108.263 88.7214 108.283C90.2811 108.29 91.474 107.99 92.7937 107.218C93.3462 106.894 93.8042 106.439 94.3857 106.161C95.18 105.782 95.7705 105.726 96.5962 106.043C96.6978 106.082 96.6857 106.256 96.563 106.243C94.2091 106.005 92.3156 108.353 89.8728 108.565C87.9066 108.737 85.9007 108.428 84.1836 107.42C81.3302 105.745 79.9914 103.115 81.6316 100.117C81.6437 100.095 81.6749 100.115 81.6644 100.137Z" fill="#9D7C6B"/>
<path d="M81.655 102.648C82.0795 104.106 83.8628 104.966 85.1287 105.592C85.2255 105.64 85.1523 105.805 85.0511 105.765C83.7091 105.238 81.9094 104.189 81.5803 102.664C81.5698 102.616 81.6412 102.6 81.655 102.648Z" fill="#9D7C6B"/>
<path d="M86.3422 105.922C87.93 106.548 89.5402 106.28 91.1927 106.253C91.315 106.251 91.334 106.445 91.2128 106.468C89.5757 106.767 87.8204 106.754 86.2956 106.026C86.2371 105.998 86.2815 105.898 86.3422 105.922Z" fill="#9D7C6B"/>
<path d="M83.3576 100.031C86.9693 98.9993 90.5199 100.978 93.2282 103.233C93.3132 103.303 93.199 103.435 93.1088 103.38C90.0923 101.551 87.1465 99.2257 83.3972 100.205C83.2855 100.234 83.2473 100.062 83.3576 100.031Z" fill="#9D7C6B"/>
<path d="M81.9474 99.4533C83.2131 98.4109 85.1541 97.9138 86.7662 98.1907C86.9074 98.2149 86.8578 98.4265 86.7267 98.4281C84.9481 98.4492 83.6008 98.7568 81.9845 99.5045C81.9537 99.5187 81.9181 99.4773 81.9474 99.4533Z" fill="#9D7C6B"/>
<path d="M88.2984 98.3829C89.9396 98.994 91.5826 99.6334 92.9274 100.792C94.6792 102.302 95.094 104.632 96.6579 106.291C96.7275 106.365 96.6211 106.458 96.547 106.397C95.0096 105.128 94.6569 103.236 93.4106 101.734C92.0982 100.153 90.0974 99.2786 88.2776 98.4291C88.2514 98.4168 88.2712 98.3728 88.2984 98.3829Z" fill="#9D7C6B"/>
<path d="M83.1099 101.873C85.3824 103.322 87.9433 104.253 90.6441 104.409C92.8245 104.534 94.4835 104.852 96.4618 105.839C96.5609 105.889 96.4861 106.043 96.3842 106.013C94.9111 105.57 93.5074 104.954 91.9591 104.819C90.9711 104.734 90.0062 104.769 89.0245 104.588C86.8125 104.181 84.8738 103.269 83.0698 101.939C83.0307 101.91 83.0676 101.846 83.1099 101.873Z" fill="#9D7C6B"/>
<path d="M110.096 104.291C104.685 108.491 103.537 114.405 103.972 120.979C103.984 121.162 103.68 121.19 103.65 121.009C102.587 114.592 104.168 107.709 110.012 104.175C110.081 104.133 110.161 104.24 110.096 104.291Z" fill="#9D7C6B"/>
<path d="M106.8 107.561C108.57 106.295 109.654 107.911 111.479 108.45C116.327 109.882 121.74 102.797 119.788 98.2452C118.688 95.6799 116.351 94.7885 113.693 95.0031C110.298 95.2768 108.149 97.5853 107.212 100.775C106.523 103.119 107.877 105.679 106.445 107.772C106.387 107.857 106.214 107.83 106.233 107.708C106.59 105.435 105.633 103.286 106.197 101.008C106.663 99.1233 107.608 96.9294 109.171 95.6948C111.881 93.5553 117.241 93.5773 119.526 96.3991C122.041 99.5056 120.457 103.734 118.157 106.413C116.941 107.829 115.454 109.163 113.527 109.384C111.429 109.625 108.503 106.984 106.857 107.668C106.784 107.698 106.737 107.606 106.8 107.561Z" fill="#9D7C6B"/>
<path d="M118.14 96.1245C120.697 98.2769 120.557 101.029 118.635 103.67C117.571 105.133 116.087 106.129 114.415 106.767C113.498 107.117 112.551 107.417 111.562 107.417C109.801 107.416 108.533 106.425 106.588 107.386C106.49 107.435 106.376 107.297 106.469 107.222C108.448 105.643 110.827 107.321 113.147 106.833C117.78 105.86 122.479 100.189 118.112 96.1509C118.094 96.1339 118.121 96.109 118.14 96.1245Z" fill="#9D7C6B"/>
<path d="M119.138 98.4636C119.435 99.9801 118.119 101.668 117.085 102.635C116.994 102.72 116.873 102.587 116.953 102.496C117.844 101.491 119.244 99.945 119.063 98.4806C119.057 98.4328 119.128 98.4143 119.138 98.4636Z" fill="#9D7C6B"/>
<path d="M116.016 103.354C114.865 104.586 113.265 105.259 111.634 105.595C111.52 105.618 111.44 105.439 111.559 105.393C113.113 104.795 114.682 104.438 115.937 103.271C115.991 103.221 116.066 103.301 116.016 103.354Z" fill="#9D7C6B"/>
<path d="M116.538 96.8633C112.68 97.4332 110.856 100.579 108.719 103.435C108.645 103.533 108.496 103.445 108.555 103.335C110.244 100.193 112.761 97.155 116.499 96.6889C116.611 96.6748 116.653 96.8463 116.538 96.8633Z" fill="#9D7C6B"/>
<path d="M117.583 95.6864C115.809 95.596 114.446 95.8086 112.788 96.458C112.645 96.5139 112.538 96.3283 112.673 96.2442C114.05 95.3901 116.048 95.1339 117.594 95.624C117.628 95.6348 117.62 95.6883 117.583 95.6864Z" fill="#9D7C6B"/>
<path d="M111.34 97.0468C109.68 98.824 107.971 100.661 107.574 103.15C107.329 104.688 107.451 106.152 106.648 107.538C106.605 107.611 106.475 107.557 106.509 107.475C107.319 105.562 106.86 103.414 107.66 101.494C108.416 99.6795 109.882 98.3058 111.304 97.0099C111.329 96.9876 111.362 97.0229 111.34 97.0468Z" fill="#9D7C6B"/>
<path d="M117.487 98.3471C114.815 102.584 110.431 104.076 106.668 107.103C106.571 107.181 106.454 107.057 106.535 106.965C107.982 105.324 109.235 104.481 111.17 103.566C113.72 102.36 115.76 100.584 117.422 98.3072C117.451 98.2679 117.514 98.3049 117.487 98.3471Z" fill="#9D7C6B"/>
<path d="M116.619 126.07C112.147 131.259 112.194 137.282 113.922 143.64C113.97 143.817 113.678 143.905 113.613 143.734C111.299 137.654 111.486 130.595 116.514 125.973C116.573 125.918 116.673 126.007 116.619 126.07Z" fill="#9D7C6B"/>
<path d="M114.037 129.929C115.521 128.337 116.904 129.706 118.799 129.873C123.835 130.316 127.737 122.299 124.921 118.224C123.335 115.928 120.868 115.517 118.305 116.254C115.032 117.195 113.383 119.883 113.096 123.196C112.885 125.63 114.719 127.87 113.731 130.206C113.691 130.301 113.516 130.309 113.51 130.185C113.41 127.886 112.046 125.969 112.147 123.625C112.231 121.685 112.723 119.348 114.01 117.828C116.242 115.194 121.501 114.154 124.299 116.467C127.38 119.013 126.665 123.472 124.941 126.554C124.03 128.182 122.836 129.784 120.991 130.383C118.983 131.035 115.592 129.025 114.113 130.022C114.048 130.066 113.984 129.986 114.037 129.929Z" fill="#9D7C6B"/>
<path d="M122.886 116.472C125.819 118.075 126.227 120.801 124.867 123.769C124.113 125.415 122.856 126.685 121.344 127.641C120.514 128.165 119.646 128.647 118.676 128.843C116.949 129.192 115.51 128.472 113.795 129.799C113.708 129.866 113.569 129.754 113.646 129.661C115.272 127.721 117.936 128.895 120.113 127.958C124.462 126.085 127.945 119.596 122.864 116.503C122.843 116.49 122.865 116.46 122.886 116.472Z" fill="#9D7C6B"/>
<path d="M124.327 118.567C124.919 119.994 123.964 121.91 123.142 123.062C123.069 123.164 122.924 123.057 122.985 122.952C123.659 121.79 124.725 119.998 124.258 118.598C124.242 118.553 124.308 118.521 124.327 118.567Z" fill="#9D7C6B"/>
<path d="M122.237 123.979C121.352 125.415 119.918 126.391 118.385 127.043C118.278 127.089 118.165 126.929 118.272 126.861C119.677 125.967 121.144 125.306 122.143 123.913C122.186 123.853 122.275 123.917 122.237 123.979Z" fill="#9D7C6B"/>
<path d="M121.462 117.514C117.793 118.837 116.629 122.282 115.1 125.504C115.047 125.615 114.883 125.558 114.92 125.439C115.953 122.025 117.817 118.548 121.389 117.351C121.496 117.315 121.572 117.474 121.462 117.514Z" fill="#9D7C6B"/>
<path d="M122.254 116.153C120.497 116.415 119.203 116.894 117.706 117.859C117.578 117.942 117.435 117.781 117.552 117.672C118.732 116.562 120.639 115.915 122.251 116.089C122.287 116.093 122.29 116.147 122.254 116.153Z" fill="#9D7C6B"/>
<path d="M116.403 118.722C115.128 120.793 113.817 122.933 113.921 125.45C113.986 127.007 114.396 128.418 113.883 129.935C113.855 130.015 113.717 129.988 113.734 129.901C114.149 127.865 113.274 125.851 113.677 123.811C114.059 121.882 115.224 120.245 116.361 118.693C116.381 118.666 116.42 118.695 116.403 118.722Z" fill="#9D7C6B"/>
<path d="M122.686 118.78C120.906 123.462 116.905 125.793 113.816 129.507C113.737 129.602 113.597 129.504 113.659 129.397C114.752 127.502 115.812 126.427 117.528 125.147C119.789 123.46 121.436 121.315 122.614 118.754C122.635 118.71 122.704 118.734 122.686 118.78Z" fill="#9D7C6B"/>
<path d="M77.59 64.3285C84.392 60.5191 92.6681 63.5376 96.6044 70.0025C96.6982 70.1564 96.4525 70.3412 96.343 70.1919C91.8384 64.0471 84.7709 61.4349 77.6584 64.4561C77.574 64.4919 77.5073 64.3748 77.59 64.3285Z" fill="#9D7C6B"/>
<path d="M82.1911 63.3052C81.0123 64.2213 81.4939 68.4013 80.4136 69.9146C79.47 71.2366 78.028 71.8745 76.5075 72.2882C72.9247 73.2632 68.1851 72.9221 66.3286 69.1752C64.7029 65.8942 67.0414 61.2978 70.0869 59.6954C71.842 58.7719 73.8369 58.8872 75.7381 59.24C78.5527 59.7622 79.9337 61.8092 82.5047 62.7823C82.6314 62.8303 82.5958 62.996 82.4675 63.0066C80.0837 63.2023 78.6571 61.0091 76.4815 60.3413C73.6459 59.4707 70.4384 60.0154 68.4014 62.2181C66.0762 64.7326 65.6373 68.9478 68.8196 71.0511C72.1356 73.2429 79.2785 72.4032 80.6275 68.1432C81.2546 66.1624 79.9285 64.2212 82.121 63.2085C82.1788 63.1817 82.2479 63.261 82.1911 63.3052Z" fill="#9D7C6B"/>
<path d="M66.6087 67.412C67.9346 73.0828 74.7693 71.8974 78.0654 68.6596C79.8416 66.9151 79.5353 63.7365 81.9664 62.7634C82.0884 62.7146 82.1729 62.8692 82.063 62.9435C80.1636 64.228 79.8246 67.5415 77.9757 69.1739C76.5344 70.4464 74.8131 71.3647 72.8797 71.5816C69.6278 71.9465 67.1772 70.6967 66.5713 67.4204C66.5669 67.3963 66.603 67.3877 66.6087 67.412Z" fill="#9D7C6B"/>
<path d="M68.1586 69.3843C69.3631 70.2803 71.3634 69.8196 72.7043 69.5357C72.8261 69.5099 72.8633 69.686 72.7467 69.7225C71.3963 70.1437 69.2824 70.4503 68.1109 69.4434C68.0783 69.4153 68.1239 69.3584 68.1586 69.3843Z" fill="#9D7C6B"/>
<path d="M73.8778 69.0357C75.4998 68.525 76.5885 67.337 77.8641 66.2912C77.973 66.202 78.1059 66.3437 78.0139 66.4485C76.9146 67.7021 75.5448 68.7546 73.9032 69.1477C73.8306 69.165 73.8081 69.0576 73.8778 69.0357Z" fill="#9D7C6B"/>
<path d="M67.8625 66.287C70.1222 63.2559 73.9996 62.5653 77.5814 62.6491C77.6868 62.6516 77.7094 62.8244 77.5992 62.8383C74.0434 63.288 70.4357 63.2819 68.0149 66.3802C67.9452 66.4696 67.7932 66.38 67.8625 66.287Z" fill="#9D7C6B"/>
<path d="M66.4061 66.6981C66.7451 65.107 67.9552 63.5014 69.3823 62.7242C69.4992 62.6605 69.632 62.8307 69.5234 62.919C68.1532 64.0296 67.2554 65.1473 66.464 66.724C66.4467 66.7583 66.3991 66.7311 66.4061 66.6981Z" fill="#9D7C6B"/>
<path d="M70.7188 61.9153C72.5437 61.3205 74.4414 60.7367 76.386 60.9579C78.458 61.1935 80.1036 62.6567 82.1713 62.9138C82.268 62.9258 82.2659 63.0667 82.1656 63.0667C80.3773 63.0697 79.1018 62.0281 77.4381 61.5307C75.2255 60.869 72.9099 61.4441 70.73 61.9652C70.6976 61.9729 70.688 61.9254 70.7188 61.9153Z" fill="#9D7C6B"/>
<path d="M68.8168 67.8772C71.6316 67.5551 74.1487 66.6373 76.4772 65.0232C78.1793 63.8432 79.693 63.1109 81.7351 62.6846C81.8362 62.6635 81.9059 62.8213 81.8017 62.8625C77.3101 64.6381 73.8287 67.7209 68.8238 67.9528C68.7811 67.9547 68.7734 67.8821 68.8168 67.8772Z" fill="#9D7C6B"/>
<path d="M93.18 82.4145C95.6694 82.2489 99.1896 82.5508 101.028 84.5233C102.741 86.3608 102.752 89.6307 102.614 91.9267C102.601 92.1393 102.301 92.1211 102.288 91.9148C102.167 89.8449 102.105 86.7521 100.701 85.0377C99.0092 82.9708 95.6203 82.7275 93.1748 82.5592C93.08 82.5526 93.0885 82.4205 93.18 82.4145Z" fill="#9D7C6B"/>
<path d="M97.7324 83.5414C96.2611 83.6635 95.7101 86.2099 94.9404 87.2045C94.4716 87.8102 93.8914 88.3233 93.2099 88.6843C91.644 89.5142 89.8901 89.3495 88.2214 88.9631C84.6776 88.1427 80.7929 85.6797 80.9299 81.5778C81.0456 78.1165 84.9154 75.1795 88.1831 74.925C90.2519 74.7638 92.0871 75.783 93.6981 76.9762C96.0047 78.6848 96.3963 81.198 98.2702 83.2137C98.3436 83.2926 98.2651 83.4463 98.1542 83.4025C97.3988 83.1033 97.1814 82.9949 96.6386 82.3802C95.0129 80.5394 94.7017 78.714 92.4332 77.2175C90.1423 75.7061 87.7359 75.4266 85.2374 76.6985C82.4823 78.1009 80.6487 81.0322 82.079 84.0719C84.0645 88.2916 91.5714 90.454 94.6991 86.5593C95.7178 85.2904 95.6544 83.0563 97.752 83.4234C97.8253 83.4362 97.7941 83.5362 97.7324 83.5414Z" fill="#9D7C6B"/>
<path d="M81.9648 80.3088C80.6816 85.6234 86.6028 87.7441 90.8812 86.7251C93.0572 86.2067 93.838 85.018 95.4199 83.7325C96.2486 83.0593 96.7574 82.8709 97.7984 82.9538C97.9077 82.9625 97.9375 83.1392 97.8172 83.1555C95.4443 83.4784 94.1086 86.1178 91.7658 86.8284C89.8333 87.4147 87.7909 87.523 85.8649 86.8613C82.7309 85.7848 80.9766 83.5611 81.928 80.298C81.9351 80.274 81.9705 80.2851 81.9648 80.3088Z" fill="#9D7C6B"/>
<path d="M82.4809 82.7651C83.1821 84.1074 85.1392 84.5653 86.4916 84.9163C86.5947 84.9429 86.5694 85.1203 86.4605 85.1036C85.0574 84.8889 83.0283 84.2123 82.4134 82.8013C82.3939 82.7569 82.4577 82.7209 82.4809 82.7651Z" fill="#9D7C6B"/>
<path d="M87.7489 84.9846C89.4342 85.2589 90.9471 84.6654 92.5585 84.2928C92.6738 84.266 92.7501 84.4463 92.6338 84.4942C91.0909 85.1313 89.379 85.4849 87.7302 85.0972C87.6677 85.0824 87.6841 84.9741 87.7489 84.9846Z" fill="#9D7C6B"/>
<path d="M83.5934 79.8524C86.9296 78.1074 90.7751 79.2608 93.9166 80.9087C94.0129 80.9591 93.9413 81.1176 93.8389 81.0821C90.4868 79.9198 87.1709 78.2828 83.6779 80.0099C83.5751 80.0608 83.4911 79.9059 83.5934 79.8524Z" fill="#9D7C6B"/>
<path d="M82.0969 79.5826C83.1192 78.2996 84.9025 77.4053 86.5394 77.3361C86.6788 77.3302 86.6934 77.5455 86.5618 77.5757C84.8288 77.9716 83.5674 78.5561 82.1463 79.6224C82.1202 79.6419 82.0723 79.6136 82.0969 79.5826Z" fill="#9D7C6B"/>
<path d="M88.082 77.2029C89.8604 77.4624 91.6596 77.7555 93.2436 78.6573C95.1954 79.7686 96.0682 81.9397 97.912 83.1804C97.995 83.2359 97.9194 83.3551 97.8319 83.3111C96.2434 82.5099 95.5286 81.0144 94.2727 79.8323C92.5967 78.2544 90.2469 77.7507 88.0737 77.2529C88.046 77.2465 88.0532 77.1987 88.082 77.2029Z" fill="#9D7C6B"/>
<path d="M83.7403 81.7042C86.3934 82.6788 89.1639 83.0301 91.957 82.5392C93.9639 82.1865 95.6422 82.2692 97.6246 82.7815C97.7291 82.8085 97.7025 82.978 97.5934 82.9689C96.0691 82.8439 94.5537 82.5411 93.0215 82.728C92.0998 82.8404 91.2209 83.074 90.2894 83.1163C87.9747 83.2215 85.8228 82.7164 83.7181 81.7776C83.6744 81.7582 83.6928 81.6868 83.7403 81.7042Z" fill="#9D7C6B"/>
<path d="M93.6306 127.411C102 123.631 107.849 132.011 110.466 138.952C110.537 139.142 110.271 139.301 110.179 139.106C106.936 132.243 102.197 124.73 93.681 127.546C93.6039 127.571 93.5564 127.445 93.6306 127.411Z" fill="#9D7C6B"/>
<path d="M98.3133 126.886C96.6992 127.885 97.2721 131.665 95.8451 133.267C94.5427 134.73 92.5868 135.165 90.7093 135.329C87.1845 135.638 82.7884 134.443 81.7564 130.572C80.8634 127.222 83.6696 123.147 86.7333 121.97C88.6538 121.232 90.8892 121.618 92.7899 122.276C95.219 123.116 96.4803 125.277 98.7041 126.402C98.8108 126.456 98.7481 126.617 98.6402 126.614C96.1896 126.558 94.7018 124.064 92.5235 123.159C89.7334 121.998 86.6921 122.357 84.5043 124.456C82.5737 126.308 81.5988 129.065 82.9682 131.506C85.4383 135.91 94.4423 136.24 96.2457 131.107C96.8841 129.29 96.2086 127.473 98.2713 126.774C98.3391 126.751 98.368 126.852 98.3133 126.886Z" fill="#9D7C6B"/>
<path d="M82.3904 129.306C83.1036 135.073 90.0655 134.671 93.6338 131.743C95.5509 130.17 95.6526 127.02 98.1715 126.313C98.2834 126.282 98.3432 126.45 98.2424 126.503C96.2471 127.564 95.7037 130.612 93.8476 132.031C92.3301 133.191 90.5695 133.971 88.6525 134.09C85.2398 134.301 82.6208 132.811 82.3525 129.309C82.3508 129.288 82.3877 129.284 82.3904 129.306Z" fill="#9D7C6B"/>
<path d="M83.7267 131.437C84.8135 132.442 86.8711 132.207 88.2162 132.069C88.3349 132.057 88.3829 132.231 88.2586 132.256C86.8717 132.531 84.7307 132.618 83.6714 131.49C83.6372 131.454 83.6908 131.404 83.7267 131.437Z" fill="#9D7C6B"/>
<path d="M89.4398 131.695C91.1154 131.358 92.3287 130.289 93.7162 129.379C93.8196 129.311 93.9309 129.472 93.8423 129.553C92.6161 130.684 91.1399 131.59 89.4653 131.807C89.3934 131.816 89.3659 131.71 89.4398 131.695Z" fill="#9D7C6B"/>
<path d="M83.7665 128.312C86.3245 125.551 90.2637 125.277 93.7979 125.738C93.919 125.754 93.916 125.927 93.7909 125.929C90.2158 125.999 86.6147 125.631 83.8899 128.442C83.8092 128.525 83.6889 128.396 83.7665 128.312Z" fill="#9D7C6B"/>
<path d="M82.2645 128.579C82.7699 127.04 84.1402 125.568 85.6357 124.947C85.7795 124.887 85.8826 125.074 85.7505 125.16C84.251 126.134 83.2929 127.102 82.3224 128.605C82.303 128.635 82.2529 128.614 82.2645 128.579Z" fill="#9D7C6B"/>
<path d="M87.0589 124.278C88.8995 123.888 90.7745 123.528 92.6515 123.903C94.7621 124.325 96.2667 126.017 98.3543 126.491C98.4385 126.51 98.416 126.649 98.3293 126.641C96.7186 126.483 95.6183 125.514 94.213 124.811C91.9703 123.69 89.4634 124.019 87.0703 124.328C87.0384 124.332 87.0262 124.285 87.0589 124.278Z" fill="#9D7C6B"/>
<path d="M84.5429 130.004C87.5511 129.982 90.2369 129.267 92.8347 127.765C94.4949 126.804 96.0133 126.41 97.9243 126.217C98.0441 126.205 98.0888 126.37 97.9666 126.404C93.3349 127.691 89.52 130.382 84.5401 130.081C84.4907 130.078 84.4936 130.005 84.5429 130.004Z" fill="#9D7C6B"/>
<path d="M67.6125 44.5386C68.939 49.3456 71.7688 53.0653 76.3118 55.1559C76.4819 55.2342 76.3526 55.5046 76.1797 55.4508C71.4004 53.9578 68.1393 49.4698 67.4713 44.5707C67.4589 44.4793 67.5873 44.4475 67.6125 44.5386Z" fill="#9D7C6B"/>
<path d="M69.3263 48.8528C68.8653 46.7765 70.5434 46.6251 71.825 45.2777C75.5577 41.354 70.7888 33.3225 65.8544 33.178C62.9013 33.0916 60.9028 35.6943 60.2074 38.3095C59.4059 41.3245 60.9957 43.9315 63.2656 45.7644C65.1457 47.2826 68.0379 47.1516 69.3875 49.2654C69.4502 49.3637 69.3188 49.475 69.2267 49.4174C67.0981 48.0906 64.6601 48.1616 62.6621 46.5127C61.1302 45.2482 59.6361 43.5484 59.2523 41.5481C58.5955 38.1237 60.862 33.3888 64.4827 32.6744C68.5888 31.8644 71.7376 35.4301 73.1382 38.8639C73.7316 40.3192 74.1035 41.8594 73.6332 43.4051C73.0183 45.4258 69.4643 46.9884 69.4455 48.8416C69.4447 48.9102 69.3412 48.9194 69.3263 48.8528Z" fill="#9D7C6B"/>
<path d="M63.2525 33.9275C66.4101 32.3307 69.0174 33.8023 70.6089 36.8505C71.4927 38.5432 71.74 40.4548 71.5355 42.3437C71.271 44.7881 68.9443 46.5532 69.0812 48.9831C69.0878 49.1032 68.909 49.1087 68.8794 49.0021C68.1802 46.4844 70.888 44.8207 71.2038 42.3315C71.7795 37.7925 68.6714 31.5405 63.2705 33.9613C63.2483 33.9713 63.2303 33.9387 63.2525 33.9275Z" fill="#9D7C6B"/>
<path d="M65.8021 33.9271C67.3163 34.265 68.324 36.114 68.8236 37.4387C68.8658 37.5502 68.7086 37.6439 68.6549 37.5292C68.067 36.2705 67.227 34.4324 65.7799 34.0005C65.7322 33.9862 65.7545 33.9165 65.8021 33.9271Z" fill="#9D7C6B"/>
<path d="M69.0687 38.7095C69.7628 40.254 69.7421 42.0021 69.4101 43.6378C69.3853 43.7605 69.1935 43.7232 69.1978 43.6025C69.2571 41.9498 69.5519 40.3517 68.9621 38.7494C68.9398 38.6889 69.0422 38.6506 69.0687 38.7095Z" fill="#9D7C6B"/>
<path d="M63.3035 35.6986C62.2953 39.4467 64.5104 42.3968 66.2887 45.4702C66.3417 45.5618 66.2033 45.6672 66.1349 45.5816C63.9095 42.7942 62.0696 39.2688 63.1323 35.6471C63.1649 35.5362 63.3333 35.5877 63.3035 35.6986Z" fill="#9D7C6B"/>
<path d="M62.6314 34.2687C62.2624 35.0161 61.8919 35.7346 61.6977 36.5523C61.5036 37.3694 61.4837 38.1614 61.4617 38.9942C61.4581 39.1282 61.2438 39.1554 61.222 39.0166C60.9697 37.413 61.5168 35.459 62.5822 34.229C62.6074 34.1998 62.6462 34.2387 62.6314 34.2687Z" fill="#9D7C6B"/>
<path d="M61.4329 40.5403C62.4445 42.8198 63.4733 45.0869 65.6665 46.4754C66.9671 47.299 68.2683 47.7159 69.236 48.9666C69.2953 49.0432 69.1961 49.1436 69.1251 49.0724C67.6527 47.5952 65.5228 47.1521 64.0753 45.6534C62.7092 44.2389 62.0243 42.3789 61.3855 40.5578C61.3761 40.5309 61.4213 40.514 61.4329 40.5403Z" fill="#9D7C6B"/>
<path d="M65.0458 35.4031C67.882 39.5084 67.5595 44.1748 68.8555 48.7991C68.8846 48.9022 68.7244 48.9633 68.6777 48.8655C67.9302 47.2954 67.4908 45.8584 67.3536 44.1228C67.0962 40.8655 66.6925 38.3193 64.9783 35.4393C64.9526 35.3961 65.0183 35.3634 65.0458 35.4031Z" fill="#9D7C6B"/>
<path d="M92.4607 55.9702C92.3763 60.318 93.8122 64.2679 95.6279 68.1507C95.7175 68.3424 95.4554 68.4787 95.3409 68.3046C93.0425 64.8128 91.6046 60.1158 92.3191 55.9466C92.3332 55.8637 92.4622 55.8906 92.4607 55.9702Z" fill="#9D7C6B"/>
<path d="M92.8415 60.6014C92.7241 58.9019 94.1687 58.7828 95.4472 58.1974C98.3764 56.8562 99.1915 54.2753 98.6762 51.2461C98.2643 48.8238 97.1766 46.1273 94.8448 44.9344C91.6422 43.2961 88.1542 45.6998 86.8147 48.6477C85.8136 50.8508 86.2306 52.9858 87.4166 55.0453C88.4344 56.8129 89.853 57.6776 91.3435 58.8986C92.1546 59.5629 92.5076 60.0355 92.779 61.0088C92.8091 61.1168 92.6577 61.1975 92.5842 61.1133C91.0712 59.3779 88.7937 58.703 87.4189 56.8008C86.2982 55.2502 85.2179 53.1231 85.2825 51.1535C85.3966 47.6715 88.8431 43.6136 92.48 43.6635C96.6652 43.7209 98.8607 48.0073 99.3333 51.6302C99.5585 53.3566 99.5554 55.1401 98.5566 56.6348C97.5254 58.1778 93.2402 59.1419 92.9596 60.6211C92.9457 60.6935 92.8458 60.664 92.8415 60.6014Z" fill="#9D7C6B"/>
<path d="M91.3851 44.5508C94.7247 43.9462 96.7602 45.9363 97.5016 49.1471C97.9319 51.0108 97.6689 52.8426 97.0013 54.6171C96.0854 57.0508 93.1534 58.2661 92.5703 60.648C92.5423 60.7626 92.3676 60.7289 92.3705 60.6148C92.3927 59.7265 92.4988 59.3169 93.1047 58.6323C94.5402 57.0103 96.0249 56.383 96.8417 54.1314C98.3478 49.979 96.8235 43.8653 91.3936 44.5883C91.3696 44.5915 91.3604 44.5554 91.3851 44.5508Z" fill="#9D7C6B"/>
<path d="M93.8233 45.2943C95.178 46.0851 95.599 48.1155 95.6922 49.5576C95.6992 49.6649 95.5183 49.6828 95.5031 49.5752C95.3052 48.1808 95.0349 46.214 93.7832 45.3596C93.7425 45.3318 93.7804 45.2692 93.8233 45.2943Z" fill="#9D7C6B"/>
<path d="M95.5534 50.8209C95.7736 52.4948 95.2373 54.171 94.4449 55.6325C94.3865 55.7405 94.2083 55.6608 94.2485 55.5443C94.7872 53.9836 95.5439 52.5335 95.4399 50.8315C95.4359 50.7673 95.5449 50.7562 95.5534 50.8209Z" fill="#9D7C6B"/>
<path d="M90.9198 46.2581C88.8358 49.5544 90.116 53.0146 90.9224 56.4758C90.9461 56.5773 90.7854 56.6454 90.7446 56.5422C89.4358 53.2457 88.6829 49.3018 90.7672 46.1647C90.8308 46.0691 90.9815 46.1605 90.9198 46.2581Z" fill="#9D7C6B"/>
<path d="M90.6928 44.6963C90.124 45.3039 89.5598 45.8797 89.1359 46.6046C88.7133 47.3271 88.4607 48.084 88.1961 48.8713C88.1544 48.9955 87.9384 48.9738 87.9588 48.8317C88.1889 47.2225 89.2773 45.5143 90.6555 44.6451C90.6875 44.625 90.7162 44.6712 90.6928 44.6963Z" fill="#9D7C6B"/>
<path d="M87.7161 50.3441C87.9909 52.594 88.2602 54.8884 89.6572 56.7519C90.6968 58.1385 92.0718 59.0246 92.7209 60.6789C92.756 60.7683 92.6345 60.8404 92.5859 60.7514C91.528 58.8103 89.5019 57.7089 88.5847 55.674C87.8328 54.0052 87.7399 52.1477 87.6656 50.3487C87.6645 50.3202 87.7125 50.3151 87.7161 50.3441Z" fill="#9D7C6B"/>
<path d="M92.6699 46.4848C93.3829 48.6716 93.6584 50.8696 93.3161 53.1557C93.1948 53.9652 92.9434 54.7243 92.7397 55.5126C92.3142 57.1599 92.4452 58.7285 92.4069 60.4069C92.4045 60.5129 92.2342 60.5343 92.2178 60.4248C91.9171 58.4107 91.9868 56.7184 92.5657 54.7658C93.3692 52.0551 93.284 49.2286 92.5953 46.5018C92.5831 46.4534 92.6549 46.4386 92.6699 46.4848Z" fill="#9D7C6B"/>
<path d="M106.881 78.672C104.385 82.2383 103.334 86.28 102.671 90.5274C102.64 90.7294 102.343 90.7312 102.346 90.5156C102.388 86.4166 103.83 81.5295 106.77 78.5817C106.827 78.5246 106.929 78.6039 106.881 78.672Z" fill="#9D7C6B"/>
<path d="M104.593 82.7288C105.496 81.1723 106.707 82.0336 108.159 82.2568C113.668 83.1043 117.478 75.533 115.049 70.894C113.519 67.9741 109.843 67.6449 107.103 68.9876C104.881 70.0765 103.708 71.8612 103.339 74.2456C102.965 76.6594 103.665 78.1397 104.285 80.3945C104.566 81.4175 104.663 81.9926 104.319 83.0184C104.285 83.1182 104.112 83.1313 104.097 83.0107C103.82 80.7289 102.312 78.9092 102.235 76.5676C102.171 74.6339 102.489 72.2568 103.65 70.6495C105.671 67.8508 110.81 66.4291 113.773 68.4835C117.106 70.7938 116.696 75.3609 115.181 78.5832C114.395 80.2556 113.348 81.9047 111.57 82.6362C109.807 83.3619 105.737 81.7496 104.686 82.804C104.637 82.8534 104.559 82.7872 104.593 82.7288Z" fill="#9D7C6B"/>
<path d="M112.393 68.6205C115.624 70.0765 116.12 73.1063 114.723 76.2495C114.063 77.733 113.003 78.9129 111.712 79.8754C111.043 80.374 110.32 80.881 109.528 81.1662C107.738 81.8113 106.019 81.0973 104.351 82.6066C104.268 82.6813 104.124 82.5768 104.193 82.4792C105.726 80.3347 108.724 81.3564 110.871 80.0722C114.824 77.7076 117.555 71.2846 112.373 68.653C112.35 68.6418 112.371 68.6105 112.393 68.6205Z" fill="#9D7C6B"/>
<path d="M113.991 70.5992C114.674 71.9778 113.896 73.9569 113.154 75.1728C113.088 75.2803 112.938 75.1815 112.99 75.0728C113.58 73.8407 114.487 72.007 113.924 70.6355C113.905 70.5908 113.969 70.5541 113.991 70.5992Z" fill="#9D7C6B"/>
<path d="M112.321 76.1564C111.558 77.6553 110.189 78.7416 108.717 79.5064C108.612 79.5605 108.489 79.4081 108.59 79.3322C109.918 78.3369 111.342 77.5645 112.223 76.0963C112.262 76.0321 112.354 76.0913 112.321 76.1564Z" fill="#9D7C6B"/>
<path d="M111.053 69.768C107.462 71.3575 106.601 74.8889 105.323 78.2252C105.278 78.3407 105.113 78.2904 105.139 78.1698C105.903 74.7044 107.497 71.0541 110.968 69.6105C111.073 69.5668 111.159 69.7209 111.053 69.768Z" fill="#9D7C6B"/>
<path d="M111.737 68.3497C110.013 68.75 108.748 69.3331 107.334 70.4006C107.211 70.4936 107.06 70.3422 107.167 70.2249C108.264 69.0286 110.109 68.2412 111.731 68.2867C111.768 68.2877 111.773 68.3416 111.737 68.3497Z" fill="#9D7C6B"/>
<path d="M106.102 71.362C104.986 73.53 103.827 75.7821 104.134 78.296C104.324 79.8468 104.834 81.1767 104.45 82.7359C104.429 82.8192 104.289 82.7982 104.3 82.7109C104.542 80.6407 103.51 78.6908 103.778 76.6204C104.031 74.6714 105.041 72.973 106.058 71.3354C106.076 71.307 106.117 71.3332 106.102 71.362Z" fill="#9D7C6B"/>
<path d="M112.371 70.9376C111.771 73.0015 110.879 74.8314 109.47 76.4725C108.757 77.3034 107.909 77.9085 107.121 78.6559C106.002 79.7187 105.239 81.0632 104.35 82.3139C104.277 82.4158 104.134 82.324 104.187 82.2138C105.081 80.3503 106.049 79.0636 107.629 77.7483C109.811 75.9318 111.326 73.5708 112.298 70.9155C112.315 70.8694 112.385 70.8899 112.371 70.9376Z" fill="#9D7C6B"/>
</g>
<defs>
<clipPath id="clip0_3060_12005">
<rect width="131.409" height="131.409" fill="white" transform="translate(0 122.933) rotate(-69.3089)"/>
</clipPath>
</defs>
</svg>
