<svg width="48" height="49" viewBox="0 0 48 49" fill="none" xmlns="http://www.w3.org/2000/svg">
<path d="M8.52 22.2845V32.2245C8.52 35.8645 8.52 35.8645 11.96 38.1845L21.42 43.6445C22.84 44.4645 25.16 44.4645 26.58 43.6445L36.04 38.1845C39.48 35.8645 39.48 35.8645 39.48 32.2245V22.2845C39.48 18.6445 39.48 18.6445 36.04 16.3245L26.58 10.8645C25.16 10.0445 22.84 10.0445 21.42 10.8645L11.96 16.3245C8.52 18.6445 8.52 18.6445 8.52 22.2845Z" stroke="#34C759" stroke-width="2.5" stroke-linecap="round" stroke-linejoin="round"/>
<path d="M35 15.5046V10.2446C35 6.24463 33 4.24463 29 4.24463H19C15 4.24463 13 6.24463 13 10.2446V15.3646" stroke="#34C759" stroke-width="2.5" stroke-linecap="round" stroke-linejoin="round"/>
<path d="M25.26 22.2246L26.4 24.0046C26.58 24.2846 26.98 24.5646 27.28 24.6446L29.32 25.1646C30.58 25.4846 30.92 26.5646 30.1 27.5646L28.76 29.1846C28.56 29.4446 28.4 29.9046 28.42 30.2246L28.54 32.3246C28.62 33.6246 27.7 34.2846 26.5 33.8046L24.54 33.0245C24.24 32.9045 23.74 32.9045 23.44 33.0245L21.48 33.8046C20.28 34.2846 19.36 33.6046 19.44 32.3246L19.56 30.2246C19.58 29.9046 19.42 29.4246 19.22 29.1846L17.88 27.5646C17.06 26.5646 17.4 25.4846 18.66 25.1646L20.7 24.6446C21.02 24.5646 21.42 24.2646 21.58 24.0046L22.72 22.2246C23.44 21.1446 24.56 21.1446 25.26 22.2246Z" stroke="#34C759" stroke-width="2.5" stroke-linecap="round" stroke-linejoin="round"/>
</svg>
