<svg width="33" height="32" viewBox="0 0 33 32" fill="none" xmlns="http://www.w3.org/2000/svg">
<path d="M29.58 5.25341C27.5267 10.3734 22.38 17.3334 18.0733 20.7867L15.4467 22.8934C15.1133 23.1334 14.78 23.3467 14.4067 23.4934C14.4067 23.2534 14.3933 22.9867 14.3533 22.7334C14.2067 21.6134 13.7 20.5734 12.8067 19.6801C11.9 18.7734 10.7933 18.2401 9.65999 18.0934C9.39332 18.0801 9.12665 18.0534 8.85999 18.0801C9.00665 17.6667 9.23332 17.2801 9.51332 16.9601L11.5933 14.3334C15.0333 10.0267 22.02 4.85341 27.1267 2.81341C27.9133 2.52008 28.6733 2.73341 29.1533 3.22675C29.66 3.72008 29.9 4.48008 29.58 5.25341Z" stroke="#0E1E5D" stroke-width="2" stroke-linecap="round" stroke-linejoin="round"/>
<path d="M14.4067 23.4933C14.4067 24.96 13.8467 26.36 12.7934 27.4267C11.98 28.24 10.8734 28.8 9.55335 28.9733L6.27335 29.3333C4.48669 29.5333 2.95335 28.0133 3.16669 26.2L3.52669 22.92C3.84669 20 6.28669 18.1333 8.87335 18.08C9.14002 18.0667 9.42002 18.08 9.67335 18.0933C10.8067 18.24 11.9134 18.76 12.82 19.68C13.7134 20.5733 14.22 21.6133 14.3667 22.7333C14.38 22.9867 14.4067 23.24 14.4067 23.4933Z" stroke="#0E1E5D" stroke-width="2" stroke-linecap="round" stroke-linejoin="round"/>
<path opacity="0.4" d="M19.4867 19.2932C19.4867 15.8132 16.6601 12.9866 13.1801 12.9866" stroke="#0E1E5D" stroke-width="2" stroke-linecap="round" stroke-linejoin="round"/>
</svg>
