<svg width="70" height="70" viewBox="0 0 70 70" fill="none" xmlns="http://www.w3.org/2000/svg">
<path d="M14.5833 46.6667V40.8333M35 61.25V55.4167M55.4167 37.9167V32.0833M14.5833 23.3333V17.5M35 37.9167V32.0833M55.4167 14.5833V8.75M20.4167 25.0833V39.0833C20.4167 39.5475 20.2323 39.9926 19.9041 40.3208C19.5759 40.649 19.1308 40.8333 18.6667 40.8333H10.5C10.0359 40.8333 9.59075 40.649 9.26256 40.3208C8.93437 39.9926 8.75 39.5475 8.75 39.0833V25.0833C8.75 24.6192 8.93437 24.1741 9.26256 23.8459C9.59075 23.5177 10.0359 23.3333 10.5 23.3333H18.6667C19.1308 23.3333 19.5759 23.5177 19.9041 23.8459C20.2323 24.1741 20.4167 24.6192 20.4167 25.0833ZM40.8333 39.6667V53.6667C40.8333 54.1308 40.649 54.5759 40.3208 54.9041C39.9926 55.2323 39.5475 55.4167 39.0833 55.4167H30.9167C30.4525 55.4167 30.0074 55.2323 29.6792 54.9041C29.351 54.5759 29.1667 54.1308 29.1667 53.6667V39.6667C29.1667 39.2025 29.351 38.7574 29.6792 38.4292C30.0074 38.101 30.4525 37.9167 30.9167 37.9167H39.0833C39.5475 37.9167 39.9926 38.101 40.3208 38.4292C40.649 38.7574 40.8333 39.2025 40.8333 39.6667ZM61.25 16.3333V30.3333C61.25 30.7975 61.0656 31.2426 60.7374 31.5708C60.4093 31.899 59.9641 32.0833 59.5 32.0833H51.3333C51.1035 32.0833 50.876 32.0381 50.6636 31.9501C50.4513 31.8622 50.2584 31.7333 50.0959 31.5708C49.9334 31.4083 49.8045 31.2153 49.7165 31.003C49.6286 30.7907 49.5833 30.5631 49.5833 30.3333V16.3333C49.5833 16.1035 49.6286 15.876 49.7165 15.6636C49.8045 15.4513 49.9334 15.2584 50.0959 15.0959C50.2584 14.9334 50.4513 14.8045 50.6636 14.7165C50.876 14.6286 51.1035 14.5833 51.3333 14.5833H59.5C59.9641 14.5833 60.4093 14.7677 60.7374 15.0959C61.0656 15.4241 61.25 15.8692 61.25 16.3333Z" stroke="black" stroke-width="2" stroke-linecap="round" stroke-linejoin="round"/>
</svg>
