<svg width="48" height="49" viewBox="0 0 48 49" fill="none" xmlns="http://www.w3.org/2000/svg">
<path d="M9.84 40.8046L13.38 43.5446C13.84 44.0046 14.86 44.2246 15.56 44.2246H19.9C21.28 44.2246 22.76 43.2047 23.1 41.8247L25.84 33.4846C26.42 31.8846 25.38 30.5046 23.66 30.5046H19.08C18.4 30.5046 17.82 29.9245 17.94 29.1245L18.52 25.4646C18.74 24.4446 18.06 23.2845 17.04 22.9445C16.12 22.6045 14.98 23.0646 14.52 23.7446L9.84 30.7246" stroke="#34C759" stroke-width="2.5" stroke-miterlimit="10"/>
<path d="M4 40.8047V29.6047C4 28.0047 4.68 27.4246 6.28 27.4246H7.42C9.02 27.4246 9.7 28.0047 9.7 29.6047V40.8047C9.7 42.4047 9.02 42.9846 7.42 42.9846H6.28C4.68 42.9846 4 42.4247 4 40.8047Z" stroke="#34C759" stroke-width="2.5" stroke-linecap="round" stroke-linejoin="round"/>
<path d="M38.16 7.68457L34.62 4.94458C34.16 4.48458 33.14 4.26465 32.44 4.26465H28.1C26.72 4.26465 25.24 5.28455 24.9 6.66455L22.16 15.0046C21.58 16.6046 22.62 17.9846 24.34 17.9846H28.92C29.6 17.9846 30.18 18.5647 30.06 19.3647L29.48 23.0247C29.26 24.0447 29.94 25.2047 30.96 25.5447C31.88 25.8847 33.02 25.4246 33.48 24.7446L38.16 17.7646" stroke="#34C759" stroke-width="2.5" stroke-miterlimit="10"/>
<path d="M44 7.68457V18.8845C44 20.4845 43.32 21.0647 41.72 21.0647H40.58C38.98 21.0647 38.3 20.4845 38.3 18.8845V7.68457C38.3 6.08457 38.98 5.50464 40.58 5.50464H41.72C43.32 5.50464 44 6.06457 44 7.68457Z" stroke="#34C759" stroke-width="2.5" stroke-linecap="round" stroke-linejoin="round"/>
</svg>
