<svg width="148" height="42" viewBox="0 0 148 42" fill="none" xmlns="http://www.w3.org/2000/svg">
<path d="M16.5612 0.272705L14.2727 2.77271L26.3689 15.2727L14.2727 27.7727L16.5612 30.2727L23.9169 22.7727L31.2727 15.2727L16.5612 0.272705Z" fill="#002F88"/>
<path d="M14.7115 11.7272L17 14.2272L4.90384 26.7272L17 39.2272L14.7115 41.7272L7.35577 34.2272L0 26.7272L14.7115 11.7272Z" fill="#002F88"/>
<path d="M55.4667 25.072H59.0807C58.3527 28.998 55.6487 31.598 51.6447 31.598C47.1207 31.598 43.6627 28.504 43.6627 22.576C43.6627 16.726 46.7567 13.164 51.6967 13.164C56.0127 13.164 58.7427 15.92 59.0807 19.404H55.4667C54.9727 17.454 53.4387 16.284 51.7227 16.284C48.7327 16.284 47.3287 18.598 47.3287 22.368C47.3287 26.19 48.7327 28.452 51.5407 28.452C53.6727 28.452 54.9727 27.23 55.4667 25.072ZM66.186 28.504C68.24 28.504 69.28 27.204 69.28 24.604C69.28 22.004 68.24 20.73 66.186 20.73C64.132 20.73 63.092 22.004 63.092 24.604C63.092 27.204 64.132 28.504 66.186 28.504ZM66.186 31.338C62.052 31.338 59.608 28.582 59.608 24.604C59.608 20.548 62.13 17.87 66.186 17.87C70.19 17.87 72.686 20.522 72.686 24.604C72.686 28.66 70.164 31.338 66.186 31.338ZM79.9676 28.582C81.5796 28.582 82.8276 27.074 82.8276 24.916C82.8276 22.134 81.8656 20.756 79.9936 20.756C78.0176 20.756 77.0816 22.082 77.0816 24.708C77.0816 26.996 78.2776 28.582 79.9676 28.582ZM86.0256 31H82.7756L82.7496 29.44C81.9436 30.74 80.7476 31.338 79.1876 31.338C75.9636 31.338 73.6496 28.79 73.6496 24.474C73.6496 20.6 75.5996 17.87 78.9016 17.87C80.4876 17.87 81.7356 18.52 82.6976 19.872V13.528H86.0256V31ZM90.977 31H87.597V18.208H90.977V31ZM90.977 16.674H87.597V13.528H90.977V16.674ZM104.117 31H100.711V23.252C100.711 21.276 100.139 20.73 98.527 20.73C96.759 20.73 95.901 21.718 95.901 23.668V31H92.521V18.208H95.745V20.08C96.525 18.65 97.825 17.87 99.879 17.87C102.323 17.87 104.117 19.352 104.117 22.134V31ZM111.733 28.452C113.371 28.452 114.619 27.074 114.619 24.916C114.619 22.134 113.657 20.808 111.733 20.808C109.835 20.808 108.847 22.082 108.847 24.708C108.847 26.996 110.069 28.452 111.733 28.452ZM114.515 31.39V29.284C114.047 30.428 112.669 31.104 111.005 31.104C106.793 31.104 105.337 27.88 105.337 24.526C105.337 20.548 107.833 17.87 110.927 17.87C112.539 17.87 113.709 18.494 114.515 19.794V18.208H117.895V31.13C117.895 34.978 115.087 37.058 111.525 37.058C107.963 37.058 105.337 35.004 105.337 31.702H108.483C108.483 33.236 109.601 34.146 111.291 34.146C113.085 34.146 114.515 33.08 114.515 31.39ZM122.582 23.356H127.808C127.756 21.458 126.508 20.548 125.182 20.548C123.83 20.548 122.712 21.588 122.582 23.356ZM131.292 25.488H122.478C122.582 27.412 123.674 28.66 125.338 28.66C126.43 28.66 127.392 28.114 127.626 27.23H131.11C130.33 29.856 128.224 31.338 125.494 31.338C121.23 31.338 119.098 28.998 119.098 24.37C119.098 20.418 121.36 17.87 125.286 17.87C129.212 17.87 131.292 20.418 131.292 25.488ZM135.84 31H132.46V18.208H135.632V19.742C136.75 18.026 138.05 17.87 139.428 17.87H139.87V21.328C139.558 21.276 139.246 21.25 138.934 21.25C136.854 21.25 135.84 22.29 135.84 24.344V31Z" fill="#002F88"/>
</svg>
