<svg width="48" height="49" viewBox="0 0 48 49" fill="none" xmlns="http://www.w3.org/2000/svg">
<path d="M36 14.5646C35.88 14.5446 35.74 14.5446 35.62 14.5646C32.86 14.4646 30.66 12.2046 30.66 9.40463C30.66 6.54463 32.96 4.24463 35.82 4.24463C38.68 4.24463 40.98 6.56463 40.98 9.40463C40.96 12.2046 38.76 14.4646 36 14.5646Z" stroke="#34C759" stroke-width="2.5" stroke-linecap="round" stroke-linejoin="round"/>
<path d="M33.94 29.1247C36.68 29.5847 39.7 29.1047 41.82 27.6847C44.64 25.8047 44.64 22.7247 41.82 20.8447C39.68 19.4247 36.62 18.9447 33.88 19.4247" stroke="#34C759" stroke-width="2.5" stroke-linecap="round" stroke-linejoin="round"/>
<path d="M11.94 14.5646C12.06 14.5446 12.2 14.5446 12.32 14.5646C15.08 14.4646 17.28 12.2046 17.28 9.40463C17.28 6.54463 14.98 4.24463 12.12 4.24463C9.26003 4.24463 6.96002 6.56463 6.96002 9.40463C6.98002 12.2046 9.18003 14.4646 11.94 14.5646Z" stroke="#34C759" stroke-width="2.5" stroke-linecap="round" stroke-linejoin="round"/>
<path d="M14 29.1247C11.26 29.5847 8.24 29.1047 6.12 27.6847C3.3 25.8047 3.3 22.7247 6.12 20.8447C8.26 19.4247 11.32 18.9447 14.06 19.4247" stroke="#34C759" stroke-width="2.5" stroke-linecap="round" stroke-linejoin="round"/>
<path d="M24 29.5046C23.88 29.4846 23.74 29.4846 23.62 29.5046C20.86 29.4046 18.66 27.1446 18.66 24.3446C18.66 21.4846 20.96 19.1846 23.82 19.1846C26.68 19.1846 28.98 21.5046 28.98 24.3446C28.96 27.1446 26.76 29.4246 24 29.5046Z" stroke="#34C759" stroke-width="2.5" stroke-linecap="round" stroke-linejoin="round"/>
<path d="M18.18 35.8046C15.36 37.6846 15.36 40.7646 18.18 42.6446C21.38 44.7846 26.62 44.7846 29.82 42.6446C32.64 40.7646 32.64 37.6846 29.82 35.8046C26.64 33.6846 21.38 33.6846 18.18 35.8046Z" stroke="#34C759" stroke-width="2.5" stroke-linecap="round" stroke-linejoin="round"/>
</svg>
