<svg width="48" height="49" viewBox="0 0 48 49" fill="none" xmlns="http://www.w3.org/2000/svg">
<path d="M18.32 21.9846C18.12 21.9646 17.88 21.9646 17.66 21.9846C12.9 21.8246 9.12 17.9246 9.12 13.1246C9.12 8.22463 13.08 4.24463 18 4.24463C22.9 4.24463 26.88 8.22463 26.88 13.1246C26.86 17.9246 23.08 21.8246 18.32 21.9846Z" stroke="#34C759" stroke-width="2.5" stroke-linecap="round" stroke-linejoin="round"/>
<path d="M32.82 8.24463C36.7 8.24463 39.82 11.3846 39.82 15.2446C39.82 19.0246 36.82 22.1046 33.08 22.2446C32.92 22.2246 32.74 22.2246 32.56 22.2446" stroke="#34C759" stroke-width="2.5" stroke-linecap="round" stroke-linejoin="round"/>
<path d="M8.32 29.3646C3.48 32.6046 3.48 37.8846 8.32 41.1046C13.82 44.7846 22.84 44.7846 28.34 41.1046C33.18 37.8646 33.18 32.5846 28.34 29.3646C22.86 25.7046 13.84 25.7046 8.32 29.3646Z" stroke="#34C759" stroke-width="2.5" stroke-linecap="round" stroke-linejoin="round"/>
<path d="M36.68 40.2446C38.12 39.9446 39.48 39.3646 40.6 38.5046C43.72 36.1646 43.72 32.3046 40.6 29.9646C39.5 29.1246 38.16 28.5646 36.74 28.2446" stroke="#34C759" stroke-width="2.5" stroke-linecap="round" stroke-linejoin="round"/>
</svg>
