<svg width="21" height="15" viewBox="0 0 21 15" fill="none" xmlns="http://www.w3.org/2000/svg">
<path d="M20.2597 2.20301C20.1458 1.78041 19.9232 1.39501 19.614 1.08518C19.3049 0.775338 18.92 0.551868 18.4977 0.437007C16.9317 0.00700739 10.6667 7.5965e-06 10.6667 7.5965e-06C10.6667 7.5965e-06 4.40268 -0.00699261 2.83568 0.404007C2.41361 0.524154 2.0295 0.750785 1.72025 1.06214C1.41099 1.3735 1.18697 1.75913 1.06968 2.18201C0.656681 3.74801 0.652681 6.99601 0.652681 6.99601C0.652681 6.99601 0.648681 10.26 1.05868 11.81C1.28868 12.667 1.96368 13.344 2.82168 13.575C4.40368 14.005 10.6517 14.012 10.6517 14.012C10.6517 14.012 16.9167 14.019 18.4827 13.609C18.9052 13.4943 19.2904 13.2714 19.6003 12.9622C19.9102 12.653 20.1341 12.2682 20.2497 11.846C20.6637 10.281 20.6667 7.03401 20.6667 7.03401C20.6667 7.03401 20.6867 3.76901 20.2597 2.20301ZM8.66268 10.005L8.66768 4.00501L13.8747 7.01001L8.66268 10.005Z" fill="white"/>
</svg>
